<?xml version="1.0" encoding="utf-8"?>
<!-- Generator: Adobe Illustrator 22.1.0, SVG Export Plug-In . SVG Version: 6.00 Build 0)  -->
<svg version="1.1" id="Layer_1" xmlns="http://www.w3.org/2000/svg" xmlns:xlink="http://www.w3.org/1999/xlink" x="0px" y="0px"
	 viewBox="0 0 612 792" style="enable-background:new 0 0 612 792;" xml:space="preserve">
<style type="text/css">
	.st0{opacity:0.6;fill:#747576;}
	.st1{fill:url(#SVGID_1_);}
	.st2{fill:url(#SVGID_2_);}
	.st3{fill:url(#SVGID_3_);}
	.st4{fill:url(#SVGID_4_);}
	.st5{fill:url(#SVGID_5_);}
	.st6{fill:url(#SVGID_6_);}
	.st7{fill:url(#SVGID_7_);}
	.st8{fill:url(#SVGID_8_);}
	.st9{fill:url(#SVGID_9_);}
	.st10{fill:url(#SVGID_10_);}
	.st11{fill:url(#SVGID_11_);}
	.st12{fill:url(#SVGID_12_);}
	.st13{fill:url(#SVGID_13_);}
	.st14{fill:#FFFFFF;}
	.st15{fill:#F7941D;}
	.st16{fill:#515254;}
	.st17{fill:url(#SVGID_14_);}
	.st18{fill:#414042;}
	.st19{fill:#58595B;}
	.st20{fill:#9A643E;}
	.st21{fill:#FBD19D;}
	.st22{fill:#3C2415;}
	.st23{fill:#8B5E3C;}
	.st24{fill:#FFE9C3;}
	.st25{fill:#FCBE87;}
	.st26{opacity:0.3;fill:url(#SVGID_15_);}
</style>
<g>
	<g>
		<path class="st0" d="M147.5,181.3c-2-9.8-0.8-34.1,17.6-52.7c11.6-11.7,25.5-15.9,35.4-13.7c6.9-18.8,24.4-18.2,44.1-31.4
			c28.5-19.2,80.7-9.1,85.8-8.1c6.8,1.4,38.3,14.9,63.9,29.5c5.3,3,10.3,5.3,15.2,7l62.2-5.6c0,0-10.6,11.9-29.6,22.9
			c-0.7,0.7-1.3,1.3-1.9,1.8l10.2,0.2c9.6-3.6,19.9-9.3,19.9-9.3c-6.8,18.6-17.8,26.8-24.6,30.2c0.3,0.6,0.7,1.3,1.1,2
			c11.1-0.7,17.3-2.1,17.3-2.1c-4,4.7-8.3,8.9-12.7,12.8c7.4,20.3,14.1,58-13.5,98.7c-0.5,20.1-1.3,44.3-2.6,73.7
			c1.9,47.2,53.3,110.3,11.3,132.7c-13.7,7.1-32.5,12.4-51.8,16.3c3.8,2.8,8.4,6.5,13.1,10.3l-218.3-10.4c8.1-5.9,17-9.6,26-11.6
			c3.3-3.5,7.5-5.8,12.9-7c-5.6-6-10.6-13.1-14.5-21.5c-9.3-19.9-7.2-52.6-8.8-81.9c-32.1,10.2-36.7-32.6-42.3-42.3
			c-6.5-14.1-10.9-33.9,5.1-43c-2.3,0.7-3.8,1.3-3.8,1.3S148.4,185.8,147.5,181.3z"/>
		<path class="st0" d="M471.1,478.1c0,0,0.2,0.4,0.6,1.1c-2.5-12.1,4-23.8,13.6-23.6c5.8-13.2,12-23.7,13.9-28
			c2.5-5.7,20.7-6.8,8,19.3l-3.1,6.7c4.3-0.7,8,0.6,9.9,4.4c1.3,2.5,1.2,4.6,0.2,6.5c3.3-0.1,6.1,1.2,7.5,4.8c1.2,3,0.5,5.4-1,7.5
			c2,0.6,3.5,1.8,4.3,3.5c1.5,3.4-0.8,7.8-5.2,10.4c-2,3.8-5.8,7.6-10,10.8l-60.3-2.9C457.9,490.5,466.4,481.8,471.1,478.1z"/>
	</g>
	<g>
		
			<linearGradient id="SVGID_1_" gradientUnits="userSpaceOnUse" x1="423.435" y1="585.3312" x2="406.0975" y2="495.4698" gradientTransform="matrix(1 0 0 1 -233.1935 0)">
			<stop  offset="0.4909" style="stop-color:#282829"/>
			<stop  offset="1" style="stop-color:#4D4D4F"/>
		</linearGradient>
		<path class="st1" d="M197.6,528.5l19.3-49.2c-26.4-2.1-63.8,5.7-78.4,46.7c-7.8,36.8,5,73,67.9,71.4"/>
		<g>
			<g>
				
					<linearGradient id="SVGID_2_" gradientUnits="userSpaceOnUse" x1="-800.923" y1="508.829" x2="-790.3119" y2="482.5959" gradientTransform="matrix(1 0 0 1 1262.2966 0)">
					<stop  offset="0.3636" style="stop-color:#FBD19D"/>
					<stop  offset="0.6667" style="stop-color:#DEA378"/>
					<stop  offset="1" style="stop-color:#D7905E"/>
				</linearGradient>
				<path class="st2" d="M448.4,474.2c0,0-2.9,13.7-1.3,18.3c5.3,15.1,9.2,29.5,21,24.6c6.5-2.7,29.7-16.3,25.8-27.6
					C483.7,459.8,457.9,469.6,448.4,474.2z"/>
				
					<linearGradient id="SVGID_3_" gradientUnits="userSpaceOnUse" x1="-784.703" y1="437.9732" x2="-796.1112" y2="465.6232" gradientTransform="matrix(1 0 0 1 1262.2966 0)">
					<stop  offset="0.2121" style="stop-color:#FFDFB6"/>
					<stop  offset="0.7273" style="stop-color:#FBD19D"/>
					<stop  offset="0.903" style="stop-color:#E6B98B"/>
				</linearGradient>
				<path class="st3" d="M457.2,464.8c6.1-14.4,13.1-26.1,15-30.6c2.5-5.7,20.7-6.8,8,19.3l-8.9,19.4l-6.2,9.9l-8.9-3.1L457.2,464.8
					z"/>
				
					<linearGradient id="SVGID_4_" gradientUnits="userSpaceOnUse" x1="-731.4429" y1="731.7059" x2="-726.5356" y2="747.1495" gradientTransform="matrix(0.9754 0.2207 -0.2207 0.9754 1350.4486 -91.2591)">
					<stop  offset="3.030300e-02" style="stop-color:#FFDFB6"/>
					<stop  offset="0.5939" style="stop-color:#FBD19D"/>
					<stop  offset="0.8303" style="stop-color:#DEA378"/>
				</linearGradient>
				<path class="st4" d="M487.2,464.7c3.1,6-1.6,10-7.8,12.6c-6.1,2.6-12.6,1.3-14.5-3.1c-1.9-4.3,1.6-10,7.8-12.6
					C478.8,458.9,484.5,459.6,487.2,464.7z"/>
				
					<linearGradient id="SVGID_5_" gradientUnits="userSpaceOnUse" x1="-707.2332" y1="763.4905" x2="-720.3312" y2="750.6135" gradientTransform="matrix(0.9754 0.2207 -0.2207 0.9754 1350.4486 -91.2591)">
					<stop  offset="3.030300e-02" style="stop-color:#FFDFB6"/>
					<stop  offset="0.3212" style="stop-color:#FBD19D"/>
					<stop  offset="0.8242" style="stop-color:#DEA378"/>
				</linearGradient>
				<path class="st5" d="M498.1,486.9c1.7,3.9-1.5,9-7,11.3c-5.5,2.4-11.3,1.1-13-2.8c-1.7-3.9,1.5-8.9,7-11.3
					C490.6,481.8,496.4,483,498.1,486.9z"/>
				
					<linearGradient id="SVGID_6_" gradientUnits="userSpaceOnUse" x1="-713.1956" y1="745.358" x2="-729.6498" y2="755.5648" gradientTransform="matrix(0.9754 0.2207 -0.2207 0.9754 1350.4486 -91.2591)">
					<stop  offset="3.030300e-02" style="stop-color:#FFDFB6"/>
					<stop  offset="0.5879" style="stop-color:#FBD19D"/>
					<stop  offset="0.8303" style="stop-color:#DEA378"/>
				</linearGradient>
				<path class="st6" d="M494.9,475.9c2.5,6.5-3,10.3-9.2,13c-6.1,2.6-12.5,2-14.4-2.3c-1.9-4.3,2.9-11.1,9-13.8
					C486.5,470.2,492.6,470,494.9,475.9z"/>
				
					<linearGradient id="SVGID_7_" gradientUnits="userSpaceOnUse" x1="-792.6672" y1="478.7713" x2="-804.8366" y2="490.1194" gradientTransform="matrix(1 0 0 1 1262.2966 0)">
					<stop  offset="0.4182" style="stop-color:#DEA378"/>
					<stop  offset="0.897" style="stop-color:#FBD19D"/>
				</linearGradient>
				<path class="st7" d="M459.6,480.1c0,0,13.4,3.3,13,7.9c-0.9,10.3-11.6,15.5-19.9,10.9c-4.2-2.3-7.8-9-6.4-14.2
					C447.7,479.6,456.8,476.6,459.6,480.1z"/>
				
					<linearGradient id="SVGID_8_" gradientUnits="userSpaceOnUse" x1="-793.4103" y1="470.3506" x2="-801.7797" y2="481.3445" gradientTransform="matrix(1 0 0 1 1262.2966 0)">
					<stop  offset="0.2121" style="stop-color:#FFDFB6"/>
					<stop  offset="0.6848" style="stop-color:#FBD19D"/>
				</linearGradient>
				<path class="st8" d="M446.2,490.7c-7.9-18.8,8.5-40.3,25.7-21c12.8,14.2,8.4,17.2,3.7,19.5c-3,1.5-11.6,0.4-14.3-7.5"/>
			</g>
		</g>
		
			<linearGradient id="SVGID_9_" gradientUnits="userSpaceOnUse" x1="646.7328" y1="556.1426" x2="633.5345" y2="487.7352" gradientTransform="matrix(1 0 0 1 -233.1935 0)">
			<stop  offset="0.4909" style="stop-color:#000000"/>
			<stop  offset="1" style="stop-color:#4D4D4F"/>
		</linearGradient>
		<path class="st9" d="M359.5,487c0,0,29.5,21,39.5,33.7c4.7,6,34.6-27.4,45.1-35.9c0,0,16.7,28.7,17.1,33.4
			c0,0-44.8,48.7-58.1,51.5c-13.3,2.8-39.8-24.3-47.3-33.8c-7.6-9.5,0.8-47,0.8-47"/>
		<g>
			
				<linearGradient id="SVGID_10_" gradientUnits="userSpaceOnUse" x1="446.7799" y1="696.1903" x2="441.0074" y2="666.2713" gradientTransform="matrix(-1 0 0 1 800.1346 0)">
				<stop  offset="0.4909" style="stop-color:#000000"/>
				<stop  offset="1" style="stop-color:#4D4D4F"/>
			</linearGradient>
			<path class="st10" d="M355.3,661.8c0.6,7-4,17,18.4,11.8c16.4-6.1,20.1,0,19.4,19.6c0,0-27.4,2.3-29.7,2.5
				c-11.7,1.1-19.4-1.9-22.4-7.6l0.3,6.9l-18.7,0.4l-2.7-29L355.3,661.8z"/>
			
				<linearGradient id="SVGID_11_" gradientUnits="userSpaceOnUse" x1="253.527" y1="685.2861" x2="247.6912" y2="655.0383" gradientTransform="matrix(0.9984 -5.690000e-02 5.690000e-02 0.9984 -72.2447 24.6655)">
				<stop  offset="0.4909" style="stop-color:#000000"/>
				<stop  offset="1" style="stop-color:#4D4D4F"/>
			</linearGradient>
			<path class="st11" d="M215.8,659.8c-0.3,7,4.8,16.7-17.8,13c-16.6-5-20.1,0.3-18.3,19.8c0,0,27.4,0.6,29.8,0.6
				c16.3-0.1,19.2-2.1,22-8l0,6.9l19.4-0.2l0.5-29.7L215.8,659.8z"/>
			
				<linearGradient id="SVGID_12_" gradientUnits="userSpaceOnUse" x1="513.2158" y1="585.253" x2="513.2158" y2="668.8314" gradientTransform="matrix(-1 0 0 1 800.1346 0)">
				<stop  offset="0.4909" style="stop-color:#000000"/>
				<stop  offset="1" style="stop-color:#4D4D4F"/>
			</linearGradient>
			<path class="st12" d="M246.7,597.4l0.5-9.7l45.2-13.3c0,0,3.8,12.5,6.9,23h42.9l25.2,74.3H316l-22.4-47.9
				c-8.7-16-38.5-15.7-38.5,4.2H255v40.3h-48.6v-71H246.7z"/>
		</g>
		
			<linearGradient id="SVGID_13_" gradientUnits="userSpaceOnUse" x1="507.1969" y1="473.5066" x2="507.1969" y2="615.0563" gradientTransform="matrix(1 0 0 1 -233.1935 0)">
			<stop  offset="0.4909" style="stop-color:#000000"/>
			<stop  offset="1" style="stop-color:#4D4D4F"/>
		</linearGradient>
		<path class="st13" d="M344.9,473.9H215.8c-49.2-5.7-38.4,48.9-38.4,141.1h11.7h85.5l9.1-14l10,14h77.8h-1.1
			C370.5,522.8,374,484.7,344.9,473.9z"/>
		<polygon class="st14" points="315.1,470 284.4,573.2 253.8,470 		"/>
		<g>
			<polygon class="st15" points="296.3,533.4 293,506.3 275.9,506.3 272.6,533.4 284.4,573.2 			"/>
		</g>
		<polygon class="st16" points="229.7,479 238.8,503.7 258.4,509.9 245.7,515 284.4,573.2 259.1,482.6 		"/>
		
			<linearGradient id="SVGID_14_" gradientUnits="userSpaceOnUse" x1="530.9688" y1="556.2379" x2="501.5797" y2="556.2379" gradientTransform="matrix(1 0 0 1 -233.1935 0)">
			<stop  offset="0" style="stop-color:#FFFFFF"/>
			<stop  offset="0.9152" style="stop-color:#000000"/>
		</linearGradient>
		<polygon class="st17" points="284.2,573.2 284.2,601.1 293.8,615.1 317.6,615.1 312.5,497.4 		"/>
		<polygon class="st16" points="336.2,479 327.5,503.7 308.9,509.9 321,515 284.2,573.2 308.2,482.6 		"/>
		<path class="st18" d="M281.1,582.2c0,2.6-2.1,4.6-4.6,4.6c-2.6,0-4.7-2.1-4.7-4.6c0-2.6,2.1-4.6,4.7-4.6
			C279,577.5,281.1,579.6,281.1,582.2z"/>
		<path class="st19" d="M280.3,581.5c0,2.3-1.9,4.2-4.2,4.2c-2.3,0-4.2-1.9-4.2-4.2c0-2.3,1.9-4.2,4.2-4.2
			C278.4,577.4,280.3,579.2,280.3,581.5z"/>
		<polygon class="st15" points="295.6,508.4 272.4,508.4 269.3,489.1 298.6,489.1 		"/>
		<g>
			<g>
				<path class="st20" d="M416.9,155.9c0,0,43.3,67.1-23.7,135.7l4.7-64.9l0.1-69.3L416.9,155.9z"/>
				<path class="st21" d="M403.6,177.1c0,0,13.4-27,4.5,166.8c1.9,47.2,53.3,110.3,11.3,132.7c-39.7,20.4-120.8,26.1-139.1,26.4
					c-36.8,0.6-75.5-11.6-93.5-50.3c-9.3-19.9-7.2-52.6-8.8-81.9c-32.1,10.2-36.7-32.6-42.3-42.3c-8.1-17.5-12.9-43.9,20.5-47.4
					l5.9-45.8C136.7,147.7,295,83.7,403.6,177.1z"/>
				<path class="st22" d="M156.7,332.8c1.3-1.8,3.6-2.6,5.5-2.3c2,0.3,3.1,2,3.6,3.9c0.8,3.7,0.5,8.8-1.7,11
					c-2.1,2.2-6.3,0.3-8.8-2.5c-1.3-1.5-2.3-3.1-3.2-5.1c-1-2-1.8-3.9-2.6-6c-1.6-4-3.1-8.1-4-12.2c-0.9-4.1-1.3-8.4,0.1-12.2
					c0.7-1.8,2-3.4,3.7-4.2c1.6-0.6,3.8,0.3,5.4,1.6c3.3,2.6,5.9,6.4,7.3,10.5c-1-4.3-3.2-8.4-6.6-11.5c-1.7-1.5-4-2.9-6.7-2.3
					c-2.5,0.7-4.3,2.7-5.4,4.9c-2.2,4.4-1.9,9.3-1.2,13.8c0.8,4.5,2.1,8.8,3.7,13c0.8,2.1,1.7,4.2,2.6,6.2c0.9,2.1,2.2,4.3,3.8,6.1
					c1.7,1.8,3.7,3.4,6.3,4.2c2.5,0.8,6,0.4,8-1.9c2-2.2,2.4-4.8,2.5-7.2c0-2.3-0.2-4.7-1.1-7c-0.8-2.3-3-4.5-5.7-4.4
					C159.8,329.2,157.6,330.7,156.7,332.8z"/>
				<path class="st22" d="M268.4,283.1c0.5,7.7-4.7,14.3-11.6,14.7c-6.9,0.4-12.8-5.5-13.3-13.2c-0.5-7.7,4.7-14.3,11.6-14.7
					C261.9,269.5,267.9,275.4,268.4,283.1z"/>
				<path class="st22" d="M382,277.3c0.5,7.7-4.2,14.2-10.5,14.6c-6.3,0.4-11.8-5.5-12.2-13.2c-0.5-7.7,4.2-14.3,10.5-14.6
					C376,263.7,381.5,269.6,382,277.3z"/>
				<path class="st23" d="M338.3,232c23.2-3.2,47.4-14.7,63.2-8l-5.1,11.3c0,0-47.8,0.8-57.7,9.2L338.3,232z"/>
				<path class="st24" d="M295,248.9l12.7,120.9l55.4,0.8C363,370.5,349.5,284.4,295,248.9z"/>
				<path class="st25" d="M358,348.9c3.5,13,5,21.7,5,21.7l-55.4-0.8l-2.7-22.6L358,348.9z"/>
				<path class="st22" d="M307.7,369.8c4.6,0.4,9.2,0.8,13.8,1.1l13.8,0.9c9.2,0.5,18.4,0.9,27.7,1.3l3,0.1l-0.5-3
					c-1.9-12-4.8-23.7-8.6-35.1c-3.7-11.5-8.4-22.6-14-33.3c-5.6-10.7-12.3-20.9-20.3-30c-7.9-9.1-17.3-17.1-27.7-22.9
					c9.5,7.2,17.6,15.9,24.7,25.3c7.1,9.4,13,19.6,18.2,30.1c5.2,10.5,9.5,21.5,13.4,32.6c3.7,11.1,7,22.6,9.3,34l2.5-2.9
					c-9.2,0.1-18.5,0.3-27.7,0.5l-13.9,0.5C316.9,369.2,312.3,369.4,307.7,369.8z"/>
				<g>
					<path class="st14" d="M264.5,373.7c0,0,26,27.6,82.4,19.5l0,45.4C347,438.7,282.7,450.4,264.5,373.7z"/>
					<path class="st22" d="M358.9,390.1c-8.6,1.9-17.4,2.9-26.1,3.3c-8.8,0.3-17.6-0.1-26.1-1.6c-8.6-1.5-17-4-24.6-8
						c-7.6-4-14.3-9.5-19.5-16.3l-5.6-7.3l1.7,9c2.3,11.9,6.3,23.1,11.9,33.7c5.7,10.5,13.3,20.4,23.4,27.4c9.9,7.2,22,11.1,34,11.9
						c12.1,0.7,23.9-1.6,35-5.6l-0.2-0.6c-11.5,2.2-23.1,3.4-34.4,1.8c-11.3-1.3-22-5.7-30.9-12.3c-9-6.7-16.3-15.5-22.1-25.3
						c-5.7-9.8-10-20.7-12.4-31.8l-3.8,1.7c5.8,7.1,13.2,12.8,21.3,16.8c8.1,4,16.9,6.3,25.8,7.5c8.9,1.2,17.8,1.2,26.7,0.6
						c8.8-0.7,17.6-2.1,26.2-4.3L358.9,390.1z"/>
					<polygon class="st22" points="350.3,439.3 347,393 345.7,439.4 					"/>
					<path class="st22" d="M251.3,362.3c1.9,0.8,4-0.2,5.5-1.5c0.6-0.8,1.2-1.5,1.5-2.5c0.3-0.9,0.5-1.9,0.3-2.9
						c-1.5,1.4-2.3,2.7-3.5,3.7C254.1,360.4,252.9,361.2,251.3,362.3z"/>
				</g>
				<path class="st20" d="M173.5,121.6c-9.9-2.3-23.8,2-35.4,13.7c-18.4,18.6-19.6,42.9-17.6,52.7c0.9,4.5,16.4,99,16.4,99
					s24.5-11.4,31,13.9c0.5,1.8,5.2,19.1,5.6,21.2l10.6-4.6l-10.8-61.7l-4.9-33.8c0,0,17.5-9.8,29.3-61.7
					c36.3,28.8,168.8,80.3,239.1-1.6c0,0-8.7,2-24.2,2.4c0,0,20.2-4.3,30.5-32.6c0,0-24.6,13.7-33.3,12c0,0,13.2-10.6,20.3-24.8
					c-17.8,9.1-37.3,10.3-62.9-4.2c-25.6-14.5-57.1-28.1-63.9-29.5c-5.1-1-57.3-11-85.8,8.1C198,103.4,180.4,102.8,173.5,121.6z"/>
				<path class="st22" d="M437,138.1c-8.1,6-16.7,11.2-25.7,15.6c-8.9,4.5-18.2,8.4-27.6,11.4c-18.9,6-38.8,9.2-58.5,8.6
					c-19.8-0.4-39.4-4.6-58.1-11.4c-9.4-3.4-18.5-7.5-27.3-12.2c-8.9-4.5-17.5-9.8-26-15.3c7.7,6.6,15.9,12.4,24.5,17.9
					c8.7,5.3,17.7,10,27.1,14c18.8,8,39.1,12.5,59.7,13.1c20.5,0.5,41.1-3,60.2-10.2C404.2,162.2,422.3,152,437,138.1z"/>
				<path class="st22" d="M444.6,113c-12,10.8-25.8,19.3-40.2,25.8c-14.5,6.4-29.9,10.5-45.6,11.6c-15.7,1.3-31.6-0.4-47-4.3
					c-15.4-3.9-30.3-9.9-44.8-17.2c13.2,9.3,27.8,16.9,43.5,21.8c15.6,4.9,32.3,7,48.7,5.8c16.5-1.3,32.6-5.9,47.2-13.4
					C421,135.6,434.3,125.5,444.6,113z"/>
				<path class="st23" d="M214.8,236.4c23-4.4,46.6-17.1,62.7-11.2l-4.5,11.5c0,0-47.7,3.2-57.2,12.1L214.8,236.4z"/>
			</g>
		</g>
	</g>
	
		<radialGradient id="SVGID_15_" cx="154.798" cy="-586.8265" r="113.9688" gradientTransform="matrix(-1.612 0 0 0.2219 555.6421 818.6358)" gradientUnits="userSpaceOnUse">
		<stop  offset="0" style="stop-color:#000000"/>
		<stop  offset="1" style="stop-color:#FFFFFF"/>
	</radialGradient>
	<path class="st26" d="M122.4,688.4c0,14,82.3,25.3,183.7,25.3c101.5,0,183.7-11.3,183.7-25.3c0-14-82.3-25.3-183.7-25.3
		C204.6,663.1,122.4,674.5,122.4,688.4z"/>
</g>
</svg>
