<?xml version="1.0" encoding="UTF-8"?>
<svg width="512px" height="665px" viewBox="0 0 512 665" version="1.1" xmlns="http://www.w3.org/2000/svg" xmlns:xlink="http://www.w3.org/1999/xlink">
    <!-- Generator: Sketch 47 (45396) - http://www.bohemiancoding.com/sketch -->
    <title>pro</title>
    <desc>Created with Sketch.</desc>
    <defs>
        <linearGradient x1="70.2798411%" y1="220.378032%" x2="6.06699271%" y2="81.1993146%" id="linearGradient-1">
            <stop stop-color="#000000" offset="0%"></stop>
            <stop stop-color="#FFFFFF" offset="100%"></stop>
        </linearGradient>
        <linearGradient x1="30.9199447%" y1="81.1970015%" x2="53.1559306%" y2="27.8488315%" id="linearGradient-2">
            <stop stop-color="#FBD19D" offset="36.36%"></stop>
            <stop stop-color="#DEA378" offset="66.67%"></stop>
            <stop stop-color="#D7905E" offset="100%"></stop>
        </linearGradient>
        <linearGradient x1="75.1696901%" y1="13.6793277%" x2="35.0852322%" y2="66.9235162%" id="linearGradient-3">
            <stop stop-color="#FFDFB6" offset="21.21%"></stop>
            <stop stop-color="#FBD19D" offset="72.73%"></stop>
            <stop stop-color="#E6B98B" offset="90.3%"></stop>
        </linearGradient>
        <linearGradient x1="46.7643041%" y1="5.20833115%" x2="52.5555118%" y2="92.1043335%" id="linearGradient-4">
            <stop stop-color="#FFDFB6" offset="3.0303%"></stop>
            <stop stop-color="#FBD19D" offset="59.39%"></stop>
            <stop stop-color="#DEA378" offset="83.03%"></stop>
        </linearGradient>
        <linearGradient x1="69.1785482%" y1="87.5852167%" x2="21.6798374%" y2="-6.21735131%" id="linearGradient-5">
            <stop stop-color="#FFDFB6" offset="3.0303%"></stop>
            <stop stop-color="#FBD19D" offset="32.12%"></stop>
            <stop stop-color="#DEA378" offset="82.42%"></stop>
        </linearGradient>
        <linearGradient x1="78.8127426%" y1="37.624447%" x2="4.52964334%" y2="70.2489311%" id="linearGradient-6">
            <stop stop-color="#FFDFB6" offset="3.0303%"></stop>
            <stop stop-color="#FBD19D" offset="58.79%"></stop>
            <stop stop-color="#DEA378" offset="83.03%"></stop>
        </linearGradient>
        <linearGradient x1="88.8061103%" y1="0.841383986%" x2="43.0842124%" y2="52.4242588%" id="linearGradient-7">
            <stop stop-color="#DEA378" offset="41.82%"></stop>
            <stop stop-color="#FBD19D" offset="89.7%"></stop>
        </linearGradient>
        <linearGradient x1="68.3907055%" y1="28.7766488%" x2="45.2429879%" y2="67.2555426%" id="linearGradient-8">
            <stop stop-color="#FFDFB6" offset="21.21%"></stop>
            <stop stop-color="#FBD19D" offset="68.48%"></stop>
        </linearGradient>
        <linearGradient x1="49.5203896%" y1="57.7381793%" x2="53.5307466%" y2="13.102771%" id="linearGradient-9">
            <stop stop-color="#000000" offset="0%"></stop>
            <stop stop-color="#4D4D4F" offset="100%"></stop>
        </linearGradient>
        <linearGradient x1="51.147115%" y1="59.7831603%" x2="45.8196869%" y2="14.2578127%" id="linearGradient-10">
            <stop stop-color="#000000" offset="0%"></stop>
            <stop stop-color="#4D4D4F" offset="100%"></stop>
        </linearGradient>
    </defs>
    <g id="Page-1" stroke="none" stroke-width="1" fill="none" fill-rule="evenodd">
        <g id="pro">
            <path d="M0,631.4 C0,649.530648 106.582308,664.164671 237.9,664.164671 C369.347197,664.164671 475.8,649.530648 475.8,631.4 C475.8,613.269352 369.217692,598.635329 237.9,598.635329 C106.452803,598.635329 0,613.398857 0,631.4 Z" id="Shape" fill="url(#linearGradient-1)" fill-rule="nonzero" opacity="0.3"></path>
            <g id="Group" transform="translate(132.000000, 14.000000)" fill-rule="nonzero" fill="#747576" opacity="0.6">
                <path d="M1.5,110.3 C-0.5,100.5 0.7,76.2 19.1,57.6 C30.7,45.9 44.6,41.7 54.5,43.9 C61.4,25.1 78.9,25.7 98.6,12.5 C127.1,-6.7 179.3,3.4 184.4,4.4 C191.2,5.8 222.7,19.3 248.3,33.9 C253.6,36.9 258.6,39.2 263.5,40.9 L325.7,35.3 C325.7,35.3 315.1,47.2 296.1,58.2 C295.4,58.9 294.8,59.5 294.2,60 L304.4,60.2 C314,56.6 324.3,50.9 324.3,50.9 C317.5,69.5 306.5,77.7 299.7,81.1 C300,81.7 300.4,82.4 300.8,83.1 C311.9,82.4 318.1,81 318.1,81 C314.1,85.7 309.8,89.9 305.4,93.8 C312.8,114.1 319.5,151.8 291.9,192.5 C291.4,212.6 290.6,236.8 289.3,266.2 C291.2,313.4 342.6,376.5 300.6,398.9 C286.9,406 268.1,411.3 248.8,415.2 C252.6,418 257.2,421.7 261.9,425.5 L43.6,415.1 C51.7,409.2 60.6,405.5 69.6,403.5 C72.9,400 77.1,397.7 82.5,396.5 C76.9,390.5 71.9,383.4 68,375 C58.7,355.1 60.8,322.4 59.2,293.1 C27.1,303.3 22.5,260.5 16.9,250.8 C10.4,236.7 6,216.9 22,207.8 C19.7,208.5 18.2,209.1 18.2,209.1 C18.2,209.1 2.4,114.8 1.5,110.3 Z" id="Shape"></path>
                <path d="M325.1,407.1 C325.1,407.1 325.3,407.5 325.7,408.2 C323.2,396.1 329.7,384.4 339.3,384.6 C345.1,371.4 351.3,360.9 353.2,356.6 C355.7,350.9 373.9,349.8 361.2,375.9 L358.1,382.6 C362.4,381.9 366.1,383.2 368,387 C369.3,389.5 369.2,391.6 368.2,393.5 C371.5,393.4 374.3,394.7 375.7,398.3 C376.9,401.3 376.2,403.7 374.7,405.8 C376.7,406.4 378.2,407.6 379,409.3 C380.5,412.7 378.2,417.1 373.8,419.7 C371.8,423.5 368,427.3 363.8,430.5 L303.5,427.6 C311.9,419.5 320.4,410.8 325.1,407.1 Z" id="Shape"></path>
            </g>
            <g id="Group" transform="translate(105.000000, 21.000000)" fill-rule="nonzero">
                <path d="M78.6,450.5 L97.9,401.3 C71.5,399.2 34.1,407 19.5,448 C11.7,484.8 24.5,521 87.4,519.4" id="Shape" fill="#BCDCCB"></path>
                <g transform="translate(325.000000, 352.000000)" id="Shape">
                    <path d="M4.4,44.2 C4.4,44.2 1.5,57.9 3.1,62.5 C8.4,77.6 12.3,92 24.1,87.1 C30.6,84.4 53.8,70.8 49.9,59.5 C39.7,29.8 13.9,39.6 4.4,44.2 Z" fill="url(#linearGradient-2)"></path>
                    <path d="M13.2,34.8 C19.3,20.4 26.3,8.7 28.2,4.2 C30.7,-1.5 48.9,-2.6 36.2,23.5 L27.3,42.9 L21.1,52.8 L12.2,49.7 L13.2,34.8 Z" fill="url(#linearGradient-3)"></path>
                    <path d="M43.2,34.7 C46.3,40.7 41.6,44.7 35.4,47.3 C29.3,49.9 22.8,48.6 20.9,44.2 C19,39.9 22.5,34.2 28.7,31.6 C34.8,28.9 40.5,29.6 43.2,34.7 Z" fill="url(#linearGradient-4)"></path>
                    <path d="M54.1,56.9 C55.8,60.8 52.6,65.9 47.1,68.2 C41.6,70.6 35.8,69.3 34.1,65.4 C32.4,61.5 35.6,56.5 41.1,54.1 C46.6,51.8 52.4,53 54.1,56.9 Z" fill="url(#linearGradient-5)"></path>
                    <path d="M50.9,45.9 C53.4,52.4 47.9,56.2 41.7,58.9 C35.6,61.5 29.2,60.9 27.3,56.6 C25.4,52.3 30.2,45.5 36.3,42.8 C42.5,40.2 48.6,40 50.9,45.9 Z" fill="url(#linearGradient-6)"></path>
                    <path d="M15.6,50.1 C15.6,50.1 29,53.4 28.6,58 C27.7,68.3 17,73.5 8.7,68.9 C4.5,66.6 0.9,59.9 2.3,54.7 C3.7,49.6 12.8,46.6 15.6,50.1 Z" fill="url(#linearGradient-7)"></path>
                    <path d="M2.2,60.7 C-5.7,41.9 10.7,20.4 27.9,39.7 C40.7,53.9 36.3,56.9 31.6,59.2 C28.6,60.7 20,59.6 17.3,51.7" fill="url(#linearGradient-8)"></path>
                </g>
                <path d="M240.5,409 C240.5,409 270,430 280,442.7 C284.7,448.7 314.6,415.3 325.1,406.8 C325.1,406.8 341.8,435.5 342.2,440.2 C342.2,440.2 297.4,488.9 284.1,491.7 C270.8,494.5 244.3,467.4 236.8,457.9 C229.2,448.4 237.6,410.9 237.6,410.9" id="Shape" fill="#BCDCCB"></path>
                <g transform="translate(60.000000, 496.000000)" id="Shape">
                    <path d="M176.3,87.8 C176.9,94.8 172.3,104.8 194.7,99.6 C211.1,93.5 214.8,99.6 214.1,119.2 C214.1,119.2 186.7,121.5 184.4,121.7 C172.7,122.8 165,119.8 162,114.1 L162.3,121 L143.6,121.4 L140.9,92.4 L176.3,87.8 Z" fill="url(#linearGradient-9)"></path>
                    <path d="M36.8,85.8 C36.5,92.8 41.6,102.5 19,98.8 C2.4,93.8 -1.1,99.1 0.7,118.6 C0.7,118.6 28.1,119.2 30.5,119.2 C46.8,119.1 49.7,117.1 52.5,111.2 L52.5,118.1 L71.9,117.9 L72.4,88.2 L36.8,85.8 Z" fill="url(#linearGradient-10)"></path>
                    <path d="M67.7,23.4 L68.2,13.7 L113.4,0.4 C113.4,0.4 117.2,12.9 120.3,23.4 L163.2,23.4 L188.4,97.7 L137,97.7 L114.6,49.8 C105.9,33.8 76.1,34.1 76.1,54 L76,54 L76,94.3 L27.4,94.3 L27.4,23.3 L67.7,23.3 L67.7,23.4 Z" fill="#4B5983"></path>
                </g>
                <path d="M225.9,395.9 L96.8,395.9 C47.6,390.2 58.4,444.8 58.4,537 L70.1,537 L155.6,537 L164.7,523 L174.7,537 L252.5,537 L251.4,537 C251.5,444.8 255,406.7 225.9,395.9 Z" id="Shape" fill="#BCDCCB"></path>
                <polygon id="Shape" fill="#FBD19D" points="199.889396 435.3 134.709397 435.3 126 416 208.317845 416"></polygon>
                <g id="Shape">
                    <path d="M297.9,77.9 C297.9,77.9 341.2,145 274.2,213.6 L278.9,148.7 L279,79.4 L297.9,77.9 Z" fill="#9A643E"></path>
                    <path d="M284.6,99.1 C284.6,99.1 298,72.1 289.1,265.9 C291,313.1 342.4,376.2 300.4,398.6 C260.7,419 179.6,424.7 161.3,425 C124.5,425.6 85.8,413.4 67.8,374.7 C58.5,354.8 60.6,322.1 59,292.8 C26.9,303 22.3,260.2 16.7,250.5 C8.6,233 3.8,206.6 37.2,203.1 L43.1,157.3 C17.7,69.7 176,5.7 284.6,99.1 Z" fill="#FBD19D"></path>
                    <path d="M149.4,205.1 C149.9,212.8 144.7,219.4 137.8,219.8 C130.9,220.2 125,214.3 124.5,206.6 C124,198.9 129.2,192.3 136.1,191.9 C142.9,191.5 148.9,197.4 149.4,205.1 Z" fill="#3C2415"></path>
                    <path d="M263,199.3 C263.5,207 258.8,213.5 252.5,213.9 C246.2,214.3 240.7,208.4 240.3,200.7 C239.8,193 244.5,186.4 250.8,186.1 C257,185.7 262.5,191.6 263,199.3 Z" fill="#3C2415"></path>
                    <path d="M219.3,154 C242.5,150.8 266.7,139.3 282.5,146 L277.4,157.3 C277.4,157.3 229.6,158.1 219.7,166.5 L219.3,154 Z" fill="#8B5E3C"></path>
                    <path d="M176,170.9 L188.7,291.8 L244.1,292.6 C244,292.5 230.5,206.4 176,170.9 Z" fill="#FFE9C3"></path>
                    <path d="M239,270.9 C242.5,283.9 244,292.6 244,292.6 L188.6,291.8 L185.9,269.2 L239,270.9 Z" fill="#FCBE87"></path>
                    <path d="M188.7,291.8 C193.3,292.2 197.9,292.6 202.5,292.9 L216.3,293.8 C225.5,294.3 234.7,294.7 244,295.1 L247,295.2 L246.5,292.2 C244.6,280.2 241.7,268.5 237.9,257.1 C234.2,245.6 229.5,234.5 223.9,223.8 C218.3,213.1 211.6,202.9 203.6,193.8 C195.7,184.7 186.3,176.7 175.9,170.9 C185.4,178.1 193.5,186.8 200.6,196.2 C207.7,205.6 213.6,215.8 218.8,226.3 C224,236.8 228.3,247.8 232.2,258.9 C235.9,270 239.2,281.5 241.5,292.9 L244,290 C234.8,290.1 225.5,290.3 216.3,290.5 L202.4,291 C197.9,291.2 193.3,291.4 188.7,291.8 Z" fill="#3C2415"></path>
                    <g transform="translate(132.000000, 277.000000)">
                        <path d="M13.5,18.7 C13.5,18.7 39.5,46.3 95.9,38.2 L95.9,83.6 C96,83.7 31.7,95.4 13.5,18.7 Z" fill="#FFFFFF"></path>
                        <path d="M107.9,35.1 C99.3,37 90.5,38 81.8,38.4 C73,38.7 64.2,38.3 55.7,36.8 C47.1,35.3 38.7,32.8 31.1,28.8 C23.5,24.8 16.8,19.3 11.6,12.5 L6,5.2 L7.7,14.2 C10,26.1 14,37.3 19.6,47.9 C25.3,58.4 32.9,68.3 43,75.3 C52.9,82.5 65,86.4 77,87.2 C89.1,87.9 100.9,85.6 112,81.6 L111.8,81 C100.3,83.2 88.7,84.4 77.4,82.8 C66.1,81.5 55.4,77.1 46.5,70.5 C37.5,63.8 30.2,55 24.4,45.2 C18.7,35.4 14.4,24.5 12,13.4 L8.2,15.1 C14,22.2 21.4,27.9 29.5,31.9 C37.6,35.9 46.4,38.2 55.3,39.4 C64.2,40.6 73.1,40.6 82,40 C90.8,39.3 99.6,37.9 108.2,35.7 L107.9,35.1 Z" fill="#3C2415"></path>
                        <polygon fill="#3C2415" points="99.3 84.3 96 38 94.7 84.4"></polygon>
                        <path d="M0.3,7.3 C2.2,8.1 4.3,7.1 5.8,5.8 C6.4,5 7,4.3 7.3,3.3 C7.6,2.4 7.8,1.4 7.6,0.4 C6.1,1.8 5.3,3.1 4.1,4.1 C3.1,5.4 1.9,6.2 0.3,7.3 Z" fill="#3C2415"></path>
                    </g>
                    <path d="M54.5,43.6 C44.6,41.3 30.7,45.6 19.1,57.3 C0.7,75.9 -0.5,100.2 1.5,110 C2.4,114.5 17.9,209 17.9,209 C17.9,209 42.4,197.6 48.9,222.9 C49.4,224.7 54.1,242 54.5,244.1 L65.1,239.5 L54.3,177.8 L49.4,144 C49.4,144 66.9,134.2 78.7,82.3 C115,111.1 247.5,162.6 317.8,80.7 C317.8,80.7 309.1,82.7 293.6,83.1 C293.6,83.1 313.8,78.8 324.1,50.5 C324.1,50.5 299.5,64.2 290.8,62.5 C290.8,62.5 304,51.9 311.1,37.7 C293.3,46.8 273.8,48 248.2,33.5 C222.6,19 191.1,5.4 184.3,4 C179.2,3 127,-7 98.5,12.1 C79,25.4 61.4,24.8 54.5,43.6 Z" fill="#9A643E"></path>
                    <path d="M95.8,158.4 C118.8,154 142.4,141.3 158.5,147.2 L154,158.7 C154,158.7 106.3,161.9 96.8,170.8 L95.8,158.4 Z" fill="#8B5E3C"></path>
                </g>
            </g>
            <path d="M359.198437,57.8588386 C388.492915,77.4929532 405.23101,96.1893167 409.412721,113.947929 C413.594432,131.706541 421.140637,129.83586 432.051336,108.335886 L432.051336,82.3054568 L428.989783,63.9698905 L420.807965,57.8588386 L381.788838,53.3388298 L359.198437,53.3388298 L359.198437,57.8588386 Z" id="Path-3" fill="#ACACAD"></path>
            <path d="M391.089604,52.3932581 C415.764331,71.2691871 431.298085,89.8413436 437.690867,108.109728 C444.083649,126.378112 464.970714,134.39689 500.352062,132.166061 L487.042356,17.846606 L424.051622,0.383083088 L397.613252,22.6778077 L391.089604,40.4525617 L391.089604,52.3932581 Z" id="Path-4" fill="#FFFFFF"></path>
            <polygon id="Path-5" fill="#FFFFFF" points="353.86623 435.705916 380.768671 429.810593 396.311409 431.711538 396.311409 441.982386 380.768671 441.982386 366.78691 441.982386 355.725038 437.891285"></polygon>
        </g>
    </g>
</svg>