<?xml version="1.0" encoding="UTF-8"?>
<svg width="176px" height="287px" viewBox="0 0 176 287" version="1.1" xmlns="http://www.w3.org/2000/svg" xmlns:xlink="http://www.w3.org/1999/xlink">
    <!-- Generator: Sketch 47 (45396) - http://www.bohemiancoding.com/sketch -->
    <title>pro2</title>
    <desc>Created with Sketch.</desc>
    <defs>
        <linearGradient x1="31.3041935%" y1="80.5648908%" x2="53.6626164%" y2="27.4799587%" id="linearGradient-1">
            <stop stop-color="#FBD19D" offset="36.36%"></stop>
            <stop stop-color="#DEA378" offset="66.67%"></stop>
            <stop stop-color="#D7905E" offset="100%"></stop>
        </linearGradient>
        <linearGradient x1="73.7905344%" y1="13.1536202%" x2="34.0444423%" y2="66.118204%" id="linearGradient-2">
            <stop stop-color="#FFDFB6" offset="21.21%"></stop>
            <stop stop-color="#FBD19D" offset="72.73%"></stop>
            <stop stop-color="#E6B98B" offset="90.3%"></stop>
        </linearGradient>
        <linearGradient x1="46.2803504%" y1="4.28817897%" x2="52.0350757%" y2="89.7782603%" id="linearGradient-3">
            <stop stop-color="#FFDFB6" offset="3.0303%"></stop>
            <stop stop-color="#FBD19D" offset="59.39%"></stop>
            <stop stop-color="#DEA378" offset="83.03%"></stop>
        </linearGradient>
        <linearGradient x1="68.1900762%" y1="86.176587%" x2="20.5365625%" y2="-6.45462986%" id="linearGradient-4">
            <stop stop-color="#FFDFB6" offset="3.0303%"></stop>
            <stop stop-color="#FBD19D" offset="32.12%"></stop>
            <stop stop-color="#DEA378" offset="82.42%"></stop>
        </linearGradient>
        <linearGradient x1="78.7108075%" y1="38.7575956%" x2="3.32888426%" y2="71.573447%" id="linearGradient-5">
            <stop stop-color="#FFDFB6" offset="3.0303%"></stop>
            <stop stop-color="#FBD19D" offset="58.79%"></stop>
            <stop stop-color="#DEA378" offset="83.03%"></stop>
        </linearGradient>
        <linearGradient x1="88.9484337%" y1="0.957612399%" x2="43.2580514%" y2="52.096344%" id="linearGradient-6">
            <stop stop-color="#DEA378" offset="41.82%"></stop>
            <stop stop-color="#FBD19D" offset="89.7%"></stop>
        </linearGradient>
        <linearGradient x1="69.0506861%" y1="29.7630113%" x2="45.9538927%" y2="68.2098321%" id="linearGradient-7">
            <stop stop-color="#FFDFB6" offset="21.21%"></stop>
            <stop stop-color="#FBD19D" offset="68.48%"></stop>
        </linearGradient>
        <linearGradient x1="45.4249192%" y1="101.227251%" x2="53.3136462%" y2="12.9659983%" id="linearGradient-8">
            <stop stop-color="#000000" offset="49.09%"></stop>
            <stop stop-color="#4D4D4F" offset="100%"></stop>
        </linearGradient>
        <linearGradient x1="56.4156466%" y1="103.638517%" x2="45.9335255%" y2="13.7944471%" id="linearGradient-9">
            <stop stop-color="#000000" offset="49.09%"></stop>
            <stop stop-color="#4D4D4F" offset="100%"></stop>
        </linearGradient>
    </defs>
    <g id="Page-1" stroke="none" stroke-width="1" fill="none" fill-rule="evenodd">
        <g id="pro2" transform="translate(0.000000, -4.000000)" fill-rule="nonzero">
            <path d="M166,279.5 C166,285.792453 128.896641,291 83,291 C37.1033592,291 0,285.792453 0,279.5 C0,273.207547 37.1033592,268 83,268 C128.896641,268 166,273.207547 166,279.5 Z" id="Shape" fill="#000000" opacity="0.3"></path>
            <g id="Group" transform="translate(3.000000, 0.000000)">
                <path d="M35.7117026,206.320827 L44.5320629,184.107362 C32.4847415,183.252998 15.7045439,186.670454 9.03549103,205.039281 C5.59339921,221.485789 11.4019292,237.932297 39.7991867,237.077932 L35.7117026,206.320827 Z" id="Shape" fill="#BCDCCB"></path>
                <g transform="translate(146.288902, 162.329169)" id="Shape">
                    <path d="M3.01183034,19.6422825 C3.01183034,19.6422825 1.72104591,25.8364219 2.36643813,27.972332 C4.73287625,34.8072443 6.45392216,41.2149747 11.8321906,39.0790646 C14.844021,37.7975185 25.3854272,31.8169702 23.4492505,26.6907859 C18.931505,13.2345522 7.31444512,17.5063724 3.01183034,19.6422825 Z" fill="url(#linearGradient-1)"></path>
                    <path d="M7.09931438,15.3704623 C9.89601398,8.96273192 13.1229751,3.62295663 13.983498,1.70063753 C15.0591517,-0.862454616 23.4492505,-1.28963664 17.6407206,10.457869 L13.5532365,19.2151005 L10.7565369,23.7005117 L6.6690529,22.2053747 L7.09931438,15.3704623 Z" fill="url(#linearGradient-2)"></path>
                    <path d="M20.6525509,15.3704623 C22.1584661,18.1471454 20.0071587,19.8558735 17.2104591,21.1374196 C14.4137595,22.4189657 11.4019292,21.7781926 10.5414062,19.8558735 C9.68088324,17.9335544 11.1867984,15.3704623 13.983498,14.0889162 C16.7801976,12.8073701 19.3617665,13.0209611 20.6525509,15.3704623 Z" fill="url(#linearGradient-3)"></path>
                    <path d="M25.6005579,25.4092398 C26.4610809,27.1179679 24.9551657,29.4674691 22.3735968,30.5354241 C19.792028,31.6033792 17.2104591,30.9626061 16.5650669,29.253878 C15.9196747,27.5451499 17.2104591,25.1956488 19.792028,24.1276938 C22.1584661,23.0597387 24.740035,23.4869207 25.6005579,25.4092398 Z" fill="url(#linearGradient-4)"></path>
                    <path d="M24.0946427,20.2830555 C25.1702964,23.2733297 22.8038583,24.9820578 20.0071587,26.0500129 C17.2104591,27.3315589 14.4137595,26.9043769 13.5532365,24.9820578 C12.6927136,23.0597387 14.844021,20.0694645 17.6407206,18.7879185 C20.2222894,17.7199634 23.018989,17.7199634 24.0946427,20.2830555 Z" fill="url(#linearGradient-5)"></path>
                    <path d="M8.17496807,22.2053747 C8.17496807,22.2053747 14.1986288,23.7005117 13.983498,25.8364219 C13.5532365,30.5354241 8.82036029,32.8849252 4.94800699,30.7490151 C3.01183034,29.6810601 1.29078443,26.6907859 2.15130739,24.3412848 C2.7966996,21.9917836 6.88418364,20.7102376 8.17496807,22.2053747 Z" fill="url(#linearGradient-6)"></path>
                    <path d="M1.93617665,26.9043769 C-1.72104591,18.3607364 5.80852995,8.74914091 13.5532365,17.5063724 C19.3617665,23.9141027 17.4255898,25.1956488 15.2742824,26.2636039 C13.983498,26.9043769 10.1111447,26.4771949 8.82036029,22.8461477 L1.93617665,26.9043769 Z" fill="url(#linearGradient-7)"></path>
                </g>
                <path d="M109.071285,187.738409 C109.071285,187.738409 122.40939,197.136413 126.927136,202.903371 C129.078443,205.680054 142.63168,190.515092 147.364556,186.670454 C147.364556,186.670454 154.894132,199.485914 155.109263,201.621825 C155.109263,201.621825 134.886973,223.621699 128.863312,224.903245 C122.839652,226.184791 110.79233,214.010103 107.350239,209.738283 C103.908147,205.466463 107.7805,188.592773 107.7805,188.592773 L109.071285,187.738409 Z" id="Shape" fill="#BCDCCB"></path>
                <g transform="translate(26.897560, 226.406472)" id="Shape">
                    <path d="M80.2375479,39.9334286 C80.4526786,43.1372938 78.516502,47.6227051 88.6276467,45.2732039 C95.9420918,42.4965208 97.6631377,45.2732039 97.448007,54.0304354 C97.448007,54.0304354 84.9704241,55.0983905 83.8947705,55.0983905 C78.516502,55.5255725 75.0744102,54.2440264 73.7836257,51.6809343 L73.9987565,54.6712084 L65.6086577,54.8847995 L64.3178732,41.8557477 L80.2375479,39.9334286 Z" fill="url(#linearGradient-8)"></path>
                    <path d="M16.9891107,39.0790646 C16.77398,42.2829298 19.1404181,46.55475 9.02927338,44.8460219 C1.49969752,42.4965208 -0.00621765141,45.0596129 0.639174565,53.8168444 C0.639174565,53.8168444 13.1167574,54.0304354 14.1924111,54.0304354 C21.5068562,54.0304354 23.0127714,52.9624803 24.0884251,50.3993882 L24.0884251,53.3896624 L32.9087854,53.3896624 L33.1239161,39.9334286 L16.9891107,39.0790646 Z" fill="url(#linearGradient-9)"></path>
                    <path d="M31.1877395,10.885051 L31.4028702,6.6132308 L51.8402904,0.632682467 C51.8402904,0.632682467 53.5613363,6.18604877 55.0672515,10.885051 L74.4290179,10.885051 L85.8309471,44.4188399 L62.3816966,44.4188399 L52.2705519,22.8461477 C48.3981986,15.5840533 34.844962,15.7976443 34.844962,24.7684668 L34.844962,24.7684668 L34.844962,42.9237028 L12.9016267,42.9237028 L12.9016267,11.098642 L31.1877395,11.098642 L31.1877395,10.885051 Z" fill="#4B5983"></path>
                </g>
                <path d="M108.210762,186.884045 L49.9103314,186.884045 C27.5367346,184.320953 32.4847415,208.883919 32.4847415,250.320575 L37.86301,250.320575 L76.586543,250.320575 L85.1917725,250.320575 L120.473214,250.320575 L120.042952,250.320575 C119.827821,208.883919 121.548867,191.796638 108.210762,186.884045 Z" id="Shape" fill="#BCDCCB"></path>
                <polygon id="Shape" fill="#FBD19D" points="86.2674262 197.350004 65.3997446 197.350004 62.603045 188.592773 88.8489951 188.592773"></polygon>
                <path d="M135.102104,38.8654736 C135.102104,38.8654736 154.679001,68.9818062 124.345567,99.9525029 L126.496874,70.6905343 L126.496874,39.5062466 L135.102104,38.8654736 Z" id="Shape" fill="#9A643E"></path>
                <path d="M129.078443,48.2634781 C129.078443,48.2634781 135.102104,36.0887904 131.01462,123.233923 C131.875143,144.379433 155.109263,172.787038 136.177758,183.039407 C118.106776,192.22382 81.53455,194.786912 73.1444512,195.000503 C56.3642535,195.214094 38.9386637,189.874319 30.7636956,172.359856 C26.4610809,163.389033 27.5367346,148.651254 26.6762116,135.408611 C12.2624521,140.107613 10.1111447,120.670831 7.52957586,116.399011 C3.8723533,108.496143 1.72104591,96.5350467 16.7801976,95.0399097 L19.3617665,74.5351725 C8.17496807,35.0208354 79.8135041,6.39963978 129.078443,48.2634781 Z" id="Shape" fill="#FBD19D"></path>
                <path d="M17.2104591,118.32133 C17.8558513,117.466966 18.931505,117.039784 19.792028,117.253375 C20.6525509,117.466966 21.2979431,118.107739 21.5130739,118.962103 C21.9433353,120.670831 21.7282046,123.020332 20.6525509,123.874696 C19.5768972,124.942651 17.8558513,124.088287 16.7801976,122.806741 C16.1348054,122.165968 15.7045439,121.311604 15.2742824,120.45724 C14.844021,119.602876 14.4137595,118.748512 13.983498,117.680557 C13.3381058,115.971829 12.4775828,114.04951 12.2624521,112.127191 C11.8321906,110.204871 11.6170599,108.282552 12.2624521,106.573824 C12.4775828,105.71946 13.1229751,105.078687 13.983498,104.651505 C14.6288902,104.437914 15.7045439,104.865096 16.3499361,105.292278 C17.8558513,106.573824 18.931505,108.068961 19.5768972,109.99128 C19.1466357,108.068961 18.0709821,106.146642 16.5650669,104.865096 C15.7045439,104.224323 14.844021,103.58355 13.5532365,103.797141 C12.4775828,104.010732 11.6170599,105.078687 11.1867984,105.933051 C10.1111447,107.85537 10.3262755,110.204871 10.5414062,112.127191 C10.9716677,114.04951 11.4019292,116.18542 12.2624521,117.894148 C12.6927136,118.748512 13.1229751,119.816467 13.5532365,120.670831 C13.983498,121.525195 14.6288902,122.59315 15.2742824,123.447514 C16.1348054,124.301878 16.9953284,124.942651 18.0709821,125.369833 C19.1466357,125.797015 20.8676817,125.583424 21.7282046,124.515469 C22.5887276,123.447514 22.8038583,122.379559 22.8038583,121.311604 C22.8038583,120.243649 22.8038583,119.175694 22.3735968,118.107739 C21.9433353,117.039784 21.0828124,115.971829 19.792028,116.18542 C18.7163743,116.826193 17.6407206,117.466966 17.2104591,118.32133 Z" id="Shape" fill="#3C2415"></path>
                <path d="M67.7661827,95.8942737 C67.9813134,99.3117299 65.6148753,102.302004 62.603045,102.515595 C59.5912146,102.729186 56.794515,99.9525029 56.5793843,96.5350467 C56.3642535,93.1175906 58.7306917,90.1273164 61.742522,89.9137254 C64.9694831,89.9137254 67.551052,92.4768175 67.7661827,95.8942737 Z" id="Shape" fill="#3C2415"></path>
                <path d="M119.182429,93.3311816 C119.39756,96.7486378 117.246253,99.7389119 114.449553,99.9525029 C111.652853,100.166094 109.071285,97.3894108 108.856154,93.9719546 C108.641023,90.5544984 110.79233,87.5642242 113.58903,87.3506332 C116.60086,87.3506332 118.967299,89.9137254 119.182429,93.3311816 Z" id="Shape" fill="#3C2415"></path>
                <path d="M99.3904013,73.0400354 C109.931807,71.5448984 120.903475,66.4187141 128.00279,69.4089883 L125.636351,74.5351725 C125.636351,74.5351725 103.908147,74.9623546 99.3904013,78.5934018 L99.3904013,73.0400354 Z" id="Shape" fill="#8B5E3C"></path>
                <path d="M79.8135041,80.5157209 L85.622034,134.981429 L110.79233,135.408611 C110.5772,135.408611 104.553539,96.5350467 79.8135041,80.5157209 Z" id="Shape" fill="#FFE9C3"></path>
                <path d="M108.425892,125.583424 C109.931807,131.350382 110.79233,135.408611 110.79233,135.408611 L85.622034,134.981429 L84.3312496,124.72906 L108.425892,125.583424 Z" id="Shape" fill="#FCBE87"></path>
                <path d="M85.622034,134.981429 C87.7733414,135.19502 89.709518,135.408611 91.8608254,135.408611 L98.0996169,135.835793 C102.187101,136.049384 106.489716,136.262975 110.5772,136.476566 L111.867984,136.476566 L111.867984,135.19502 C111.007461,129.855245 109.716677,124.515469 107.995631,119.389285 C106.274585,114.263101 104.123278,109.136916 101.756839,104.437914 C98.9601398,99.5253209 95.9483095,95.0399097 92.2910869,90.7680894 C88.6338644,86.7098602 84.5463803,83.078813 79.8135041,80.5157209 C84.1161188,83.719586 87.7733414,87.5642242 91.0003025,91.8360445 C94.2272636,96.1078647 96.8088324,100.593276 99.1752706,105.292278 C101.541709,109.99128 103.477885,114.903874 105.198931,120.030058 C106.919977,124.942651 108.425892,130.282427 109.501546,135.408611 L110.5772,134.127065 C106.489716,134.127065 102.187101,134.340656 98.0996169,134.340656 L91.8608254,134.554247 C89.709518,134.767838 87.7733414,134.767838 85.622034,134.981429 Z" id="Shape" fill="#3C2415"></path>
                <g transform="translate(59.167171, 128.154607)" id="Shape">
                    <path d="M6.87796599,8.5355499 C6.87796599,8.5355499 18.7101566,20.9238286 44.3107145,17.2927814 L44.3107145,37.7975185 C44.3107145,37.7975185 15.0529341,43.1372938 6.87796599,8.5355499 Z" fill="#FFFFFF"></path>
                    <path d="M49.688983,16.0112353 C45.8166297,16.8655994 41.7291457,17.2927814 37.8567924,17.5063724 C33.9844391,17.7199634 29.896955,17.5063724 26.0246017,16.8655994 C22.1522484,16.2248263 18.2798951,15.1568713 14.8378033,13.2345522 C11.3957115,11.5258241 8.38388116,8.96273192 6.01744303,5.97245776 L3.43587417,2.76859258 L4.29639712,6.82682181 C5.37205082,12.1665971 7.09309673,17.2927814 9.67466559,21.9917836 C12.2562345,26.6907859 15.6983263,31.1761971 20.2160718,34.3800623 C24.7338173,37.5839275 30.1120858,39.2926556 35.705485,39.7198376 C41.0837534,39.9334286 46.4620219,39.0790646 51.6251596,37.1567455 L51.6251596,36.9431545 C46.4620219,38.0111095 41.0837534,38.4382915 36.1357465,37.7975185 C30.9726087,37.1567455 26.2397325,35.2344264 22.1522484,32.2441522 C18.0647644,29.253878 14.8378033,25.1956488 12.0411037,20.9238286 C9.45953485,16.4384173 7.5233582,11.5258241 6.44770451,6.6132308 L4.7266586,7.46759484 C7.30822747,10.67146 10.7503193,13.2345522 14.4075418,14.9432803 C18.0647644,16.6520083 22.1522484,17.7199634 26.0246017,18.3607364 C30.1120858,18.7879185 33.9844391,19.0015095 38.0719231,18.5743275 C42.1594071,18.3607364 46.0317604,17.7199634 49.9041137,16.6520083 L49.688983,16.0112353 Z" fill="#3C2415"></path>
                    <polygon fill="#3C2415" points="45.8166297 38.0111095 44.3107145 17.2927814 43.6653223 38.2247005"></polygon>
                    <path d="M0.854305303,3.40936562 C1.71482826,3.83654764 2.57535121,3.19577461 3.22074343,2.76859258 C3.43587417,2.34141056 3.86613565,2.12781955 3.86613565,1.70063753 C4.08126638,1.2734555 4.08126638,0.846273478 4.08126638,0.419091455 C3.43587417,1.05986449 3.00561269,1.70063753 2.57535121,2.12781955 C2.14508974,2.55500157 1.71482826,2.9821836 0.854305303,3.40936562 Z" fill="#3C2415"></path>
                </g>
                <path d="M24.740035,23.2733297 C20.2222894,22.2053747 13.983498,24.1276938 8.60522955,29.4674691 C0.215130739,37.7975185 -0.215130739,48.6906601 0.645392216,53.1760714 C1.07565369,55.0983905 8.17496807,97.6030018 8.17496807,97.6030018 C8.17496807,97.6030018 19.1466357,92.4768175 22.1584661,103.797141 C22.3735968,104.651505 24.5249042,112.340782 24.740035,113.408737 L29.4729112,111.272827 L24.5249042,83.505995 L22.3735968,68.3410332 C22.3735968,68.3410332 30.3334342,63.8556219 35.7117026,40.5742017 C52.0616388,53.6032534 140.050111,40.7877927 133.165927,41.0013837 C133.165927,41.0013837 135.962627,32.4577432 131.875143,31.8169702 C131.875143,31.8169702 124.130436,25.1956488 112.513376,18.7879185 C100.896316,12.1665971 86.6976877,6.18604877 83.4707266,5.54527574 C81.1042885,5.11809371 57.4399072,0.632682467 44.5320629,9.17632294 C35.9268334,15.1568713 27.966996,14.9432803 24.740035,23.2733297 Z" id="Shape" fill="#9A643E"></path>
                <path d="M43.4564092,74.9623546 C53.7826847,73.0400354 64.5392216,67.2730781 71.8536667,69.8361703 L69.7023593,74.9623546 C69.7023593,74.9623546 48.1892855,76.4574916 43.8866707,80.3021298 L43.4564092,74.9623546 Z" id="Shape" fill="#8B5E3C"></path>
                <path d="M120.903475,43.1372938 C120.903475,43.1372938 126.496874,45.2732039 131.01462,50.3993882 C135.747496,55.5255725 138.113934,45.7003859 138.113934,45.7003859 C138.113934,45.7003859 136.392888,35.4480174 131.660012,31.8169702 L120.903475,43.1372938 Z" id="Shape" fill="#9A643E"></path>
            </g>
        </g>
    </g>
</svg>