<?xml version="1.0" encoding="utf-8"?>
<!-- Generator: Adobe Illustrator 23.0.1, SVG Export Plug-In . SVG Version: 6.00 Build 0)  -->
<svg version="1.1" id="Layer_1" xmlns="http://www.w3.org/2000/svg" xmlns:xlink="http://www.w3.org/1999/xlink" x="0px" y="0px"
	 viewBox="0 0 300 300" style="enable-background:new 0 0 300 300;" xml:space="preserve">
<style type="text/css">
	.st0{fill:#B55F90;}
	.st1{opacity:0.8;}
	.st2{opacity:0.6;fill:#B55F90;}
	.st3{opacity:0.4;fill:#B55F90;}
	.st4{opacity:0.2;fill:#B55F90;}
	.st5{fill:none;}
	.st6{fill:#2D2D2D;}
	.st7{font-family:'GoodlifeBrush';}
	.st8{font-size:16.1996px;}
</style>
<path class="st0" d="M289.1,110.8c-0.7-2.5-1.8-4.5-2.4-6.9s-1.3-4.2-3.2-5.9c-2-1.7-4.5-3.9-6.3-3s-1.1,3.4,0.8,3
	c1.8-0.4,3.5,0.1,3.6,1.1s0.5,1.7,0.5,1.7s1.8,0.8,2.1,2.6c0.3,1.7,0.6,3.4-0.8,3.6c-1.4,0.3-2.2,0-3.1,1.1s-1.2,2-3.6,2
	s-4.9-1.2-5.8-3.1c-0.9-2-1.2-3.4-3.2-2.8c-2,0.5-2.4-2.1-1.5-2.6c1-0.5,1.1-1,0.2-2s-2.4-1.6-3-2.1c-0.7-0.5-0.2-1.4-1.5-2.2
	c-1.3-0.8-4.7-0.6-4.7-0.6s0.2,1.4-0.9,1.6c-1,0.1-4.8-1.9-4.2-3.3c0.7-1.4,1.1-2.7,1-3.6c-0.2-0.9,3-1.6,2.8-2.7
	c-0.2-1.1-0.8-1.3-0.5-2.1c0.3-0.8,3.4-1.9,3.1-3.1c-0.3-1.1-2.4-1.6-3.3-2.3c-0.9-0.7-1.6-3.7-2.9-4.6c0,0,0.1-0.2,0.2-0.4
	l-4.2-0.5l-0.6,0.6l-1.9,2.2l-0.6,0.1L243,77l-1.3,3.6L188.6,92c0,0,0.9,1.6,0.9,8.1s0.4,20.4,0.4,20.4l17.7-4.3
	c0.1,0.3,0.2,0.5,0.3,0.7c0.4,0.2,0.9,0.4,1.4,0c0.3-0.5,0.6-1.1,0.6-1.1l26.2-5.4l10.3-4l2,3.8l1.8,4.5l5.2,0.7l3.9,7.1
	c0,0,1,0.8,2.4,0.2c1.4-0.6,1.6-1.9,1.6-2.6c0-0.8,0.8-1.8,1.5-2.1c0.7-0.3,1.6-2.3,1.6-2.3s1-3.6,2.4-3.6s1.3,1.1,1.3,2.3
	c0,1.3,0.4,4.4,2.1,3.7c1.7-0.7,3.8-2.4,5.5-4.1c1.7-1.6,2.9-1.5,3.6-2.1s4.5-3.2,5.2-1C287.2,112.9,289.8,113.3,289.1,110.8z"/>
<g class="st1">
	<path class="st0" d="M161.1,92.1c-0.7-1.6-1.4-3.6-1.8-6.4c-0.1-0.3-0.2-0.6-0.2-0.9c-0.1-0.3-0.1-0.6-0.1-0.8c0-0.1,0-0.1,0-0.2
		c-1.3-3.4-4.2,3.5-4.2,3.5s0.6-3.5,0.5-6.8c-0.3-1.9-0.8-3.9-1.5-5.7c-0.3-0.6-0.6-1.3-0.9-2c-1.4-3-1.4-5-1.2-8.4
		c0-5.9-0.6-9.6-3.1-12.7c-1.2-1.5-1.9-2.9-2.2-4.2c-0.4-1-0.5-2-0.1-3c0.1-0.3,0.1-0.6,0.2-0.9c0.1-0.2,0.1-0.4,0.1-0.5
		c0.1-0.6,0-1.3-0.1-2c-0.5-2.6-2.4-5.4-2.4-5.4l46.2-13l-71.9,20.1c0,0-4.5,1.5-6.2,1.5c-1.6,0-3-0.6-4.5,0.4
		c-1.4,1-5.8,3.8-7.4,5.7c-1.7,1.9-4,5.9-4.7,7.1c-0.7,1.2-2.9,2.6-3.8,5c-0.9,2.4-1.9,4.7-2.3,5.7c-0.4,1.1-1.3,4.3-1.9,5.5
		c-0.7,1.2-8.9,11-8.9,11l2.6,2.1c0,0,0.5,0.9,1.2,0.1c0.8-0.8,1.5,1.1,1.9,1.8c0.4,0.8,0.7,2.3-0.8,2.9c-1.6,0.6-2.1,0.9-0.7,2
		s3.6,4.4,3.7,6.1c0.2,1.7,0,4.7-2.4,4.7s-4.2,0.4-4.1,2.3c0,0-1.9,1.4-2.6,3.3c-0.7,1.8-0.8,2.6-2.6,3.8c-1.9,1.1-4.4,2.2-4.7,3.3
		c0,0-3.2-1.8-7.6-0.2c-4.4,1.6-6.4,3.8-6.4,3.8s-2.4,0.2-4.5-1.3c-2.1-1.6-4.1-1.5-6.7-1.5c-2.6,0-6.9,1.6-8.6,2s-8.1,0.5-12.1,2.6
		s-5.8,3-5.8,4.6s0,5.8,0,5.8s1.6,0,1.6,1.8s0.5,3.3,1.1,3s1.8-1,2.7,0.4s2,2.7,1.7,3.7s-1.4,2.7-2.9,4.2c-1.5,1.4-1.8,2.9-1.8,3.7
		s-1.3,2.1-2.7,3.3c-1.4,1.2-7.6,6.3-9.5,9.3c-2,3-3.2,4.2-3.2,4.2L7,174l107.6-21.3c0,0,5.4-1.8,10.1,2.2s6.9,9.6,9.4,12.1
		s6.3,2.2,7.4,3.6c1.1,1.3,24,7,24,7l-0.6,2.9c0.2-1.1,2.2,1.6,2.2,1.6l0.8,2.3c0,0-1.8,1.6-2.7,3.9c-0.9,2.4-0.7,4.6,1.5,4.6
		c2.1,0,1.5-0.8,1.6-1.6c0.2-0.8,1.6-2.4,1.8-1.7c0.3,0.7,1.3,1.8,0.4,2.5c-0.8,0.7,3.2-1.5,3.7-1.9c0.5-0.5,1.7-0.7,4.8-2.4
		c3.1-1.8,7.4-4.8,9.8-6.3c2.4-1.5,4.2-1.8,5.5-2.9c1.2-1,3.6-2.9,3.9-2.3c0.3,0.5-1,2.2-4.9,4.5s-7.7,4-7.1,5
		c0.6,1,5.9,1.1,14.6-6.7c8.7-7.8,8.2-7.9,11.8-10.5c3.7-2.5,6.9-5.7,5.9-6.5s-4,1.5-5.3,2.4c-1.4,1-3.2,0.1-3.2,0.1l-1.1,1.8
		l-2.8,0.7c0,0-1,2.2-1.3,2.7s-0.9,0.9-1.1,1.3c-0.2,0.4-0.8,3.1-1.8,2.2c-1-0.8-2.9-1.4-1.6-2.6c1.4-1.1,2.4-1.8,2.5-2.5
		s1.1-1.4,1.1-2.4c0-0.9,1.6-2.6,2.3-2.8c0.7-0.3,1.9,0.2,1.9-0.8s-2.5-1.5-4-0.5c-1.6,0.9-2.6,4.4-3,5.1c-0.4,0.8-3.8,2.4-5.5,3.5
		s-7.2,3.2-9.9,3.3h-0.6c0,0-0.4,3.1-2.1,3.2c-1.8,0.2-4-0.6-5.1,0.1c-1,0.8-1.1,2.4-1.1,2.4s-2.6-0.5-3.4,0.4
		c-0.7,0.9-0.7,2.9-0.7,2.9s-0.8-0.3-1.2,0.2c-0.5,0.4-0.5,1.9-0.5,1.9s-2.1-0.2-2.8-0.1l-0.8-2.3c0,0,4-3.4,4.2-5.3l-1.9-3.6
		l3.1-4.9c0,0-1.6-2.9-2.5-7.6c-0.1-0.6-0.2-1.2-0.4-1.8c-0.7-2.4-1.4-4.6-1.6-5.6c-0.7-2.8-1.7-12.4-1.8-14.4
		c-0.2-2-1.1-21.4-1.3-28.5c0-0.1,0-0.3,0-0.4h-0.1h0.1c0,0-1.8-6.4-2.1-10.6C162.5,96.9,161.8,94.4,161.1,92.1z"/>
</g>
<path class="st2" d="M61.6,199.1c-0.5,0.8-1.2,1.6-2.2,2.3c-2,2.2-2.2,7.8-2,12.8c0.1,2.2,0.4,4.7,1,6.9c1.2,2.9,2.9,5.3,5.1,6.3
	c2.5,1.1,4.2,3,5.2,5.2c0.1,0.2,0.2,0.4,0.3,0.7c0,0.1,0.1,0.1,0.1,0.2c0.3,0.7,0.5,1.4,0.6,2.1c0.1,0.4,0.1,0.8,0.1,1.2
	c0.2,2.8-0.6,5.2-2.1,5.7c-0.1,0-0.3,0.1-0.4,0.1c-0.6,0.4-1.2,0.6-2,0.6c-1.6,0.5-3.2,1-4.4,1.8c-0.4,0.4-0.6,0.7-0.6,0.7l-1.5,2.4
	c-0.9,2.2-2,3.3,0.7,6.1c2.5,2.6,3.4,3.4,3.6,3.7c0.2-0.2,0.4-0.4,0.7-0.3c1,0.1,2.5,0,3.2,0.9s2,2.1,3.2,1.3c1.2-0.9,5-0.3,5-0.3
	s1.4,0.2,0.8,2.1c-0.7,1.9-1,5.3,0.5,5.1c1.6-0.2,2.3-6,2.3-6.3c0-0.2,2.2-2.6,2.1-4.2s-1.1-2.4-1.1-2.4s2.3,0.6,2.8-0.9
	s1.8-5.4,1.8-5.4s0-1.2-0.9-1.4c-1-0.2-1.5-1.2,0.8-1.4s3.4-3,3.5-5.2c0.1-2.1-1.8-6-1.6-7.9c0.2-1.9,2.1-1.8,2.1-4.3
	c0-2.6-0.1-7.4-0.1-7.4s0.2-3.2-2.1-3.2c-2.3,0-3.4,1.8-4.7,1.8c-1.3,0-2.6-1.2-3-1.2s1.1-1.5,1.2-3.8s1.8-3.1,1.9-4.4
	c0.1-1.2,2.7-5.5,2.9-6.6l0.6-2.9c0,0-18.3-4.5-22.9-6.4c0.1,0.4,0.2,0.9,0.3,1.5C63.2,196.5,62.6,197.9,61.6,199.1z M63,257.4
	c0,0,0.4-0.4-2.9-3.1c-3.4-2.7-1.6-4.9-1.6-4.9s-1.8,2.2,1.6,4.9C63.5,256.9,63,257.4,63,257.4z"/>
<path class="st3" d="M255.1,228.7l-1.9-4.5l-2.1-3.8l-10.2,4.4c0.8,2.1,7.1,19.6,5.9,20.1c-1.3,0.5,0,3.8,0,3.8s1.6-0.4,2.2-1.1
	c0.6-0.7,4.6-2.2,5.4-3.2c0.8-1,2-1.3,1.9-3.2s-1.4-3.8-1.4-5.9c0-2.1,2.8-3.2,3-1.2s0.7,6.2,2,5.8s1.3-2.8,1.3-2.8s3,0,3.1-0.7
	l-4-7L255.1,228.7z"/>
<path class="st4" d="M185.8,234.8c1.3-0.4-4.8-18.1-5.5-20.2h-0.1l-26.2,5.1c-0.2,0.6-0.3,0.9-0.6,1.1c-0.4,0.6-0.9,1-1.4,0
	c-0.3-0.2-0.6-0.5-0.6-0.5l-17.4,4c0,0,1.1,4.9,1.1,8.7c0,3.3,1.4,7.2,2.3,11.2c1.3,4.3,2.8,9.4,2.8,9.4l-3.1,4.9l2,2.7l-2-2.7
	l1.9,3.6c0-0.1,0-0.1,0-0.2c0,0,1.1-0.3,2.6-0.4c1.5-0.2,3-1.7,3.6-2.8c0.5-1.1,2.9-2.2,3.1-2.2c0.1,0,2.2-1.8,2.2-1.8s1.7,0,1.8,0
	s0.9-1.3,2.1-2.4c1.2-1.1,1.3-2.6,1.7-3.5s1.2-0.9,1.5-0.5s1,0.5,2.4-0.3c1.4-0.7,3.9-1.2,4-1.3c0.2-0.1,2.8-0.3,2.9-0.4
	c0.2,0,2.1-1.1,2.1-1.1l2-0.1l0.8-1.8l2.2,0.5l2.2-2l1.8-0.4l2.8-0.5c0,0,2-1.6,2.1-1.6s2.5-1.1,2.5-1.1S184.5,235.2,185.8,234.8z"
	/>
<rect x="77.4" y="125.9" class="st5" width="118.7" height="48.4"/>
<text transform="matrix(1 0 0 1 77.387 136.0862)" class="st6 st7 st8">New York</text>
<rect x="32.4" y="268" class="st5" width="118.7" height="48.4"/>
<text transform="matrix(1 0 0 1 32.3608 278.2196)" class="st6 st7 st8">New Jersey</text>
<rect x="195.9" y="196.9" class="st5" width="118.7" height="21.1"/>
<text transform="matrix(1 0 0 1 195.874 207.1669)" class="st6 st7 st8">Rhode Island</text>
<rect x="186.8" y="55" class="st5" width="118.7" height="48.4"/>
<text transform="matrix(1 0 0 1 186.8407 65.2101)" class="st6 st7 st8">Massachusetts</text>
<rect x="128.9" y="267.8" class="st5" width="104.2" height="18.2"/>
<text transform="matrix(1 0 0 1 128.8524 278.0315)" class="st6 st7 st8">Connecticut</text>
<rect x="324" y="7" class="st5" width="127" height="192"/>
<text transform="matrix(1 0 0 1 324 15.52)"><tspan x="0" y="0" style="font-family:'MyriadPro-Regular'; font-size:12px;">Massachusetts</tspan><tspan x="0" y="14.4" style="font-family:'MyriadPro-Regular'; font-size:12px;">New York</tspan><tspan x="0" y="28.8" style="font-family:'MyriadPro-Regular'; font-size:12px;">New Jersey</tspan><tspan x="0" y="43.2" style="font-family:'MyriadPro-Regular'; font-size:12px;">District of Columbia</tspan><tspan x="0" y="57.6" style="font-family:'MyriadPro-Regular'; font-size:12px;">Rhode Island</tspan><tspan x="0" y="72" style="font-family:'MyriadPro-Regular'; font-size:12px;">Connecticut</tspan></text>
</svg>
