<?xml version="1.0" encoding="utf-8"?>
<!-- Generator: Adobe Illustrator 23.0.1, SVG Export Plug-In . SVG Version: 6.00 Build 0)  -->
<svg version="1.1" xmlns="http://www.w3.org/2000/svg" xmlns:xlink="http://www.w3.org/1999/xlink" x="0px" y="0px"
	 viewBox="0 0 300 300" style="enable-background:new 0 0 300 300;" xml:space="preserve">
<style type="text/css">
	.st0{fill:#305874;}
	.st1{fill:none;}
	.st2{fill:#2D2D2D;}
	.st3{font-family:'GoodlifeBrush';}
	.st4{font-size:15.4569px;}
	.st5{fill:#FFFFFF;}
</style>
<g id="Layer_1">
	<g>
		<path class="st0" d="M124,74.2c0,0,0.3,0.4,0.3,1.3c0,0.9,0.7,1.6,0,2.3c-0.7,0.7-1.3,0.7-1.1,1.6c0.1,0.9-1,0.1-1.4,1
			c-0.4,0.9-0.5,2.1,0,2.7c0.5,0.6,1.3,1.3,1.3,1.7c0,0.4-0.3,1.1,0.4,1.9c0.7,0.9,0.5,1.7,0.1,2.9c-0.3,1.2,0,4,0.9,4.1
			c0.9,0.1,2,1.1,2.3,1.7c0.3,0.7,1.7,1,1.9-0.3c0.2-1.3,3.8-4.8,5.2-4.8c1.5,0,3.2-0.7,4.6-1.2c1.5-0.5,3.4-1.9,3.5-2.7
			c0.1-0.9-0.5-0.6-1.3-0.8c-0.8-0.2-1.8-2.6-2.5-3.4c-0.7-0.8-0.5-1.5-0.9-1.8c-0.4-0.3-2.4-1.8-2.9-2.5c-0.5-0.7-1.9-2-2.5-2.1
			c-0.5-0.1-1.6-1-1.7-1.2c-0.1-0.2-1-0.2-1.4-0.2c-0.4,0-0.3-0.1-1.7-1.1C125.8,72.2,123.5,71.8,124,74.2z"/>
		<path class="st0" d="M115,63.8c0,0-0.3,2.6,1.3,2.8c1.7,0.2,1.7-0.3,2.8-0.3s2.7-0.4,2.7-1.5c0.1-1.1-0.1-1.6-1.5-2.4
			c-1.3-0.8-2.1-1.4-2.5-1.5c-0.5-0.1-1.1,0.1-2,0.1c-0.9,0-1.7-0.6-2.1-1.1c-0.5-0.5-0.7-1.3-1.5-0.7c-0.9,0.7-1.6,2.3-0.5,2.7
			c1.1,0.5,1.7,0.9,2.5,1.1C115.1,63.3,115,63.8,115,63.8z"/>
		<path class="st0" d="M105.4,61.7c0,0,0.9,0.7,0.9,1.3c0,0.6,0.8,2,1.6,1.4c0.8-0.6,1.9-0.7,1.2-1.6c-0.7-0.9,0.6-1.7-0.9-1.9
			C106.6,60.7,103.9,60.2,105.4,61.7z"/>
		<path class="st0" d="M99.8,58.3c0.5,0,1.4-0.1,2.3,0c0.9,0.1,2,0.3,2.3,0c0.3-0.3,1.3,0.4,2.3,0.3c1.1-0.1,2.2-0.1,2.4-0.3
			c0.2-0.2,0.6-0.1,1.4-0.6c0.8-0.5,0.4-1-0.7-1c-1.1,0-2,0.4-2.8-0.2c-0.8-0.6-1.3-0.1-1.9,0.1c-0.6,0.1-1.1,0.5-1.7,0.2
			c-0.6-0.3-1.7-0.4-1.9-0.5c-0.2-0.1-0.6-0.9-1.1-0.3C100,56.5,99.8,58.3,99.8,58.3z"/>
		<path class="st0" d="M93.1,52.2c0,0,0.9-0.9,1.1,0.1c0.2,0.9,0.7,1.5,0.9,1.7c0.3,0.3-0.6,0.6-1.4,0.6c-0.8,0-1.5,0.5-2.1-0.2
			c-0.6-0.7-0.8-1.3-1.1-1.5c-0.3-0.1-0.9,0.5-1.4,1.1c-0.5,0.6-1.2,0-1.5-0.7c-0.3-0.7-0.5-1.3-0.7-1.5c-0.2-0.1-1.1-0.7-1.1-1
			c0-0.3-1-0.5-0.2-1.3c0.8-0.9,1-0.8,1.8-0.7c0.8,0.1,1.5-2.1,2.4-1.9c0.9,0.3,1.1,0.7,1.2,1.4c0.1,0.7,0.7,1,0.9,2.1
			C92,51.5,92.8,52.2,93.1,52.2z"/>
		<path class="st0" d="M67.7,42.1c0,0,0.7,1.9-0.9,1.9c-1.7,0-2.7,0-3.1,0c-0.3,0-0.3-0.1-1.2-1c-0.9-0.9-0.4-1.2-1.9-1.2
			c-1.5,0-0.7-0.9,0.1-1.5c0.8-0.7,1.3-0.7,1.5-1.4c0.2-0.7,0.5-0.9,1.9-0.9c1.4,0,1.9-0.3,2.8,0c0.9,0.3,1.5,0.1,1.7,0.5
			C68.7,39,69.1,40.4,67.7,42.1z"/>
		<path class="st0" d="M56.4,42.7c0,0-0.5,1.4-1.3,1.5c-0.8,0.1,0.6,1.3-0.5,1.3c-1.1,0-1.9-0.8-1.3-2.3c0.7-1.5,1.9-1.4,1.9-1.4
			s0.7-1.7,1.3-1.1C56.9,41.4,56.4,42.7,56.4,42.7z"/>
	</g>
	<g>
		<path class="st0" d="M194.9,258.8l3.5-59c0,0-2.5-2.3-4.2-2.3c0,0,1.4-1.7,1-2c-0.4-0.3-2,0.3-2.7,0.9c-0.7,0.6-0.8,1.1-2,0.4
			c-1.1-0.7-4.2-1-5.5-1l-0.6-1.1l-0.9,0.4c0,0-0.6-1.6-1.6-2.4c-1-0.9-1.8-0.9-2.8,0.1c-1,1-1.4-0.1-1.4-0.1s-0.4-0.7-2-0.6
			c-1.6,0.1,1-2.7-1.3-2.7c-2.3,0-4.1,0.1-3.7-1.3c0.4-1.4,0.8-2.5,1-2.5c0.2,0-2.1-0.2-3,0.4c0,0,1-1.1,0.1-1.4
			c-0.8-0.4-0.1-1.7-1-1.6c-0.9,0.1-0.7,0.9-1.6,1c-0.8,0.1-2.3,1.5-3.5,1.5c-1.2,0-0.3-0.3-0.8-1.1c-0.6-0.8-0.8-0.6-2,0.1
			c-1.2,0.7-0.6,0.6-2.6,0.8c-2,0.2-6.2,1.2-7.5,2.8c-1.3,1.6-0.5,2.3-1.1,2.3c-0.6,0-1.1,0.8-1.6,0.9c-0.6,0.1-1.6,1.6-2,0.6
			c-0.4-1-1.2-1.1-1.6-1.1c-0.4,0.1-0.8-0.8-1.8-0.8s-0.8,1.6-1.5,2.5c-0.7,0.9-1.4,1-0.8,2.1c0.6,1.1,4,2.9,3.6,4.9
			c-0.4,2-0.8,2.9-0.8,2.9l1.7,1.7l0.4-0.6c0,0,0.5-0.2,1,0.6c0.5,0.9,2.5,1.1,1.9,1.6c-0.6,0.6-2.6-1.2-2.8,0
			c-0.2,1.2-0.2,3.5,1.3,3.5c1.6,0,1.9,1.1,1.2,2.5c-0.7,1.3-0.8,1.1-0.8-0.2c0-1.3-0.5-1.4-1.1-0.8c-0.6,0.6-1.8,1-1.8,0.1
			c-0.1-0.9,0.6-0.6-1.1-1.4c-1.8-0.8-2.8-1.3-2-2.4c0.9-1.1,1.1-2.4,1.1-2.4l-7.2-0.1c0,0-1.4,0.4-1.8,0.6
			c-0.4,0.1-3.4,0.4-3.9,0.4c-0.5,0.1-1.2,1.6,0.7,2.8c1.9,1.2,2.9,2.4,2.9,2.4s-2.3-0.5-2.7-0.5c-0.4,0,0,4,0,4s1.2,2.8,3,2.8
			c1.8,0,2.8,0.8,2.8,0.8s1.1,2.5,1.8,1.9c0.6-0.6,0.6-0.6,0.6-0.6s0.6,1.6,0.7,1.2c0.1-0.4,0.8-1.4,0.8-1.4s0.8-0.8,1-0.8
			c0.2,0,0.9-0.4,0.9-0.4l1.9-1.3c0,0,0.8-0.1,0.8,1c0,1.1-1.1,1.1-1.1,1.1s-0.3,1.1-1.4,1.3c-1.1,0.2-1.3,1.6-0.1,1
			c1.2-0.6,1.6,0.1,1.3,1c-0.4,0.9-1.5,1.6-0.8,2.2c0.6,0.6,0.4,1.7-1.1,2.2c-1.4,0.5-3,1.2-4,0.4c-1-0.9-1.5-1.1-2.5-0.4
			c-1,0.8-1.7,0.6-1.7,0.6l-0.5,6.8c0,0-0.9-3.8-1.9-5.1c-1-1.3-1.7-1.6-1.7-0.9c0,0.7-0.4,0.8-0.5,1.3c-0.1,0.5-1,1-1,0.2
			c0-0.8,0.4-1.2-0.3-1.2s-1.1,1.3-1.1,1.3s-0.4,1.1-0.7,0.2c-0.4-0.9-0.9-1.6-1.3-0.8c-0.4,0.9-1.1,1.1-1.6,0.9
			c-0.5-0.1-1.1-0.4-1.1,0.4c0,0.7,0.4,1.3-0.3,1.4c-0.6,0.1,0.3,1.3,0.8,1.4c0.5,0.1-0.1,0.9-0.1,0.9s0,0.3,0.4,0.9
			c0.4,0.6,0.6,1.2,1.4,2.2c0.8,1,1.3,1.7,0.7,2c-0.6,0.3-1.3,0.1-1.3,0.1s0.5,0.7-0.4,0.6c-0.9-0.1-2.1-0.8-2,0.1
			c0.1,0.9,0.6,2,1.4,2.1c0.8,0.1,1.3-0.5,1.8-0.5c0.5,0,1.3,0.9,1.3,1.3c0,0.5-0.8,0.7-1.2,0.7c-0.4,0,0,0.8-0.4,1.3
			c-0.4,0.5-0.8,0.9-0.2,1.1c0.6,0.2,1.4,0.6,1.9,1.1c0.5,0.5,1.1,1.1,1.9,0.5c0.8-0.6,2.3-0.7,2.3-0.9c0-0.2,0,1.1,0,1.1
			s-2.6,3-1.2,4.6c0,0-1,0.2-1.1,1.1c-0.1,0.8-1,1.3-1,1.3s-0.8-0.2-1.3-0.2s-1.1,0.8,0,0.8c1.1,0.1,1.1,0.1,1.1,0.1
			s1.1,0.3,1.6,0.3c0.5,0,1,0.3,1,0.3s-0.1-1.6,0.8-1.6c0.9,0,1.3,0.1,1.8-0.4c0.4-0.4,0.8-0.4,0.8-0.4s0,1.8,1.1,2.1
			c1.1,0.2,2.8,2.1,2.6,3.6c-0.2,1.6,1,2.8,1.1,0.9c0.1-1.9,0-2.6,0.9-3c0.9-0.4,0.3,0.1,0.3,0.1s-0.7,2.8,0.4,2.8
			c1.1,0,1.6-1.1,2-1.1c0.4,0,0.6-0.1,1.3-0.7c0.7-0.6,2.5-1.1,2.9-1.1c0.4,0-2.1,0.4-2.4,2c-0.3,1.6-1.3,2-2.1,2.1
			c-0.7,0.1,0.1,0.9-0.2,1.3c-0.3,0.4-1.3-0.1-1.7,0.6c-0.4,0.6-1.3,1.4-1.3,1.4l-0.6,2.1c0,0-0.9-0.6-1.1-0.2
			c-0.2,0.4-1.8,1.5-2.8,1.7c-1,0.2-0.6,1.3-0.2,1.4c0.4,0.1-1.7-0.4-3.6,0.4c-1.9,0.7-2.4,2.1-2.9,2.1c-0.5,0-1.1,0-1.1,0
			s-1.3-1.3-2.5-0.9c-1.1,0.4-0.4,1.2-0.4,1.2s-0.4-0.2-2.3,0.1c-1.9,0.4-2.4,0.6-2.1,1.8c0.4,1.1,1,2.1,1.7,0.9s1.8-1.9,2-1.5
			c0.1,0.4-1.1,1.7,0.6,1.7c1.8,0,1.8-0.6,1.8-0.6s0.6,0.2,1.3,0.2c0.6,0,2.3-1.7,2.4-0.8c0.1,0.8-0.6,2.3,0,2.3
			c0.6,0,1.3-1.8,1.3-1.8s0.2-0.5,0.8-0.2c0.6,0.3,2.7-0.3,3.5-0.3c0.8,0,1.8-0.4,1.1-1.1c-0.8-0.6-1.1-1.6-0.2-1.5
			c0.9,0.1,1.2,1.1,1.7,0.9c0.5-0.2,0.8-0.5,0.8-0.5s0.7,0.4,0.8,0.1c0.1-0.3,0.1-1.2,0.1-1.2s0.8-0.2,1,0.3
			c0.2,0.5,0.7,0.6,0.7,0.6s0.4-0.9,0.8-1c0.5-0.1,0.4-0.9,0.4-0.9l1.1-0.1l0.7-1l0.3,0.4l2.1-0.7l0.1,0.7c0,0,0.9-2.2-0.1-2.2
			c-1,0-1.6-1-0.1-1c1.5,0,2.2-0.3,1.6,0.5c-0.6,0.8-0.4,1.8,0.3,1.1c0.7-0.7,1.6-2.3,1.6-2.3s0.1,2,1,1.6c0.8-0.4,0.5-1.6,0.5-1.6
			s0.4-1,1.1-0.9c0.6,0.1,0.9-0.6,1.3-0.6c0.4,0,1.1-0.1,1.1-0.1s0.6,0.2,0.7-0.4c0.1-0.6,0.3-1.1,1.1-1.1c0.8,0,0.6-0.8-0.6-0.8
			c-1.1,0-0.4-0.9-1.1-1.4c-0.7-0.5-0.8-0.9-0.7-1.8c0.1-0.9,1.3-0.5,1.3-1.1c0-0.6,0.7-1.2,1.5-1c0.8,0.2,3.4,0,3.4,0
			s-0.1-0.6,0.2-1.6c0.4-0.9,1.1-1.4,1.6-2.3c0.5-0.9,0.8-2.1,2-1.7c1.2,0.4,0.7-0.1,1.5-0.7c0.8-0.6,1.6-0.1,2.5-1
			c0.9-0.9,1.6-1.1,1.6-1.1l-0.1,1.2c0,0,2.4-1.6,2.8-1c0.4,0.6-2.1,2.3-2.1,2.3l1,0.5c0,0,2.5,1.5,1.8,2.4c-0.7,0.9-1,0.6-1.8-0.7
			c-0.9-1.3-1.6-0.9-1.6-0.9s-1-0.8-1.4-0.8s-0.5,0.6-1.5,0.7c-1,0.1-1.6,0.6-1.6,0.6s0.6,0.6-0.1,1.1c-0.7,0.5-1.9,1.8-2.6,4
			c-0.7,2.2,0.7,1.5,1.2,0.6c0.5-0.9,1.1-1.5,1.8-0.6c0.6,0.9-0.5,2.1-1.9,2.2c-1.4,0.1-1.9,0.2-1.9,0.2l-0.6,1.5l1.6,0.3l1.4-0.1
			l0.9,1c0,0,0.8-0.3,1.2-1.1c0.4-0.8,0.6-2.2,0.6-2.2s2-1.3,1.5-0.3c-0.5,1-0.2,1.3-0.2,1.3l1.3-1.6c0,0,0.6,1.6,1.8-0.4l1-0.3
			c0,0-0.1,0.8,0.5,0.8c0.6,0,1.4,0,1.4,0s0.7-0.8,1.3-0.8c0.6-0.1,0.5-0.9,0.1-1.3c-0.4-0.4,0.4-0.7,0.5-0.4
			c0.1,0.3,2.3,0.4,0.8-0.8c-1.5-1.2-2.1-1.8-2.1-1.8l3.1-2.2c0,0-1.3,2.2-0.4,2.2c1,0,1.4-0.6,1.4-0.6s0.5,0.5,1,0.5
			c0.5,0,1.7-2.1,2.2-1.7c0.5,0.4-0.7,1.4-0.4,1.5c0.3,0.1,2.8-0.4,2.9,0.1c0.1,0.6-1,0.6-1.6,0.9s-2.1,0-2.5,1.1c0,0,0.6-0.1,1.5,0
			c0.9,0.1,2.3,0.6,2.5,1.1c0.2,0.6,0.1,1.6,1.1,1.7c0.9,0.1,1.6,0.1,1.6,0.9c0,0.9,0.2,1.1,1.6,1.1c1.3,0,3.1-0.5,3.8-0.1
			c0.7,0.4,0,1.2,1.8,0.9c1.8-0.3,1.4,0.7,2.8,0.7c1.3,0,1.1,0.7,2.3,0.7c1.2,0,0.4,0.7,1.1,1.5c0.7,0.8,1.6,1,1.6,1
			s-0.2,0.2,1.3,1.1c1.6,0.9,2,0.8,2,0.8s-0.7,0.6,0.3,0.6c1,0,2.1-0.4,2.2,1c0.1,1.3,0.9,2.3,0.9,2.3l1.9,1.8c0,0,1,0.7,1.1,0.2
			c0.1-0.5,1.3-0.3,1.3-0.3s0.4-0.2,1.1-0.1c0.7,0.1,1.2,0.2,2.1,0.7c0.9,0.5,0.8,0.1,0.1-1.4c-0.7-1.5-0.6-1.3-0.8-2.8
			c-0.1-1.5-0.6-2.5,0.1-2.5c0.8,0,1.1,1.8,1.1,1.8s1.8,4.2,3.3,5.3c1.6,1.1,2.1,3,2.1,3.9c0,0.9,0.5,2.1,0.9,2.1
			c0.4,0,0.9-0.3,1.1,0c0.2,0.3,3.1,0.8,3.1,0.8s-0.8,2,0.4,2.8c1.2,0.8,1.6,2.6,1.6,2.6s-1.5,2.1-0.7,2.1s1.7-1.7,2.7-1.3
			c1,0.4,1.2,1.8,1.2,2.5c0,0.7,0.5,1.7,0.5,1.7s0.2,0.4,0.4,0.4c0.2,0,1.2,0.3,1.2,0.3s0.6-1.7,1.3-1.7c0,0-1-3-2.4-4.2
			c-1.4-1.3-1.9-1.3-2-2.8c-0.1-1.5-0.2-3.6-3-3.6c-2.8,0-2.7-1.7-3.4-3.5c-0.7-1.8-1.4-3.3-3-4.7c-1.6-1.4-2.1-2.3-2.8-3.7
			c-0.8-1.3-2.3-2.8-4.6-2.8c-2.3,0.1-1.8,0.2-2.5,1.8c-0.7,1.6-1.3,3.3-2,1.8l-3.2-3c0,0,0.3-0.6-0.2-1.6c-0.5-1.1-0.4-0.9-0.4-1.6
			c0.1-0.7-1.4-0.9-2-0.7c-0.6,0.1-1.9,0-2.8-0.5c-0.9-0.5-1-0.3-1.5,0C196.7,259.9,195.3,258.6,194.9,258.8z"/>
		<path class="st0" d="M216.3,283.8c0,0,0.3,1.1-0.4,0.9c-0.7-0.2-0.9-1.2-1.4-2.1c-0.5-0.9-0.3-1.3-1.2-1.3c-0.8,0-2.9,0.5-2.2-0.9
			c0.7-1.4,0.5-2.1,1.6-2.1c1.1,0,1.4-0.5,1.8,0.2c0.4,0.7,0.2,1.4,0.6,1.5c0.4,0.1,1.1,1.3,1.1,2.1c0,0.9,0.2,1.7,0.2,1.7
			L216.3,283.8z"/>
		<path class="st0" d="M218.6,282.7c0,0-1.5,2-1.5,0.3c0-1.3-0.4-1.8-0.3-2.2c0-0.1,0.1-0.2,0.2-0.4c0.5-0.6,1.4-0.3,1.4-0.3
			s0.7-0.6,1-0.7c0.3-0.1,2.3,0.1,2.2,0.8c0,0.7-1.1,1.2-1.7,0.4c-0.6-0.8-0.5-1-0.5-1s0.5,1.4,0,1.5c-0.5,0.1-1.1-0.7-1.1-0.7
			s0.9,1.2,0.3,1.4c-0.6,0.2-1.7-1-1.7-1S218.8,282.3,218.6,282.7z"/>
		<path class="st0" d="M218.9,283.1c0,0,1.4,0.8,1.8-0.3c0.5-1-0.1-1.5-0.8-1.8C219.2,280.7,218.2,281.9,218.9,283.1z"/>
		<path class="st0" d="M219.5,284.7c0,0,0.5,2.1,0.9,3c0.4,0.9,0.4,1.3,0.4,1.7c0,0.3,1.1,0.7,1.1,0.7l0.3,0.7c0,0-1.4,0.1-1.7,0.6
			c-0.2,0.5,0.1,0.2,0.8,0.8c0.6,0.6,1.5,2.3,2,1.7c0.5-0.5,0.3-0.7-0.1-1.6c-0.4-0.8-0.6-1.1-0.6-1.1s1,0.3,1.5,0.9
			c0.4,0.6,1.4,2.1,1.8,1.8c0.5-0.3,0.4-1.4-0.1-1.9c-0.6-0.5,0.7-0.9,0.3-1.4c-0.4-0.5-1-0.1-1.2-0.8c-0.1-0.7,2.1-1.1,1.2-1.9
			c-0.9-0.8-2.4,0-1.6,0.8l0.3,0.4c0,0-0.6,0-0.9-0.1c-0.3-0.1-0.7-0.5-0.7-1.2c0-0.8-0.3-1.7-0.3-1.7s0-0.3-0.7-0.3
			C221.6,285.8,220,282.9,219.5,284.7z"/>
		<path class="st0" d="M222.6,284.6c0,0-2.2-0.9-1.3-1.7c0.9-0.8,1.7,0,2.1,0.3c0.5,0.4,1.9,1.7,1.3,2.2
			C224,286.1,222.6,284.6,222.6,284.6z"/>
		<path class="st0" d="M226.7,286.8v4.2c0,0-0.3,0.9,0.9,0.9c1.2,0,1.3-0.4,1-1.4c-0.3-1-0.6-1.5,0-2c0.6-0.5-0.8-1.2-0.7-1.6
			C228,286.5,227,285.9,226.7,286.8z"/>
		<path class="st0" d="M230.7,291.3l0,1.1c0,0,0.8,0.7,1.1,0s0.1-1.3,0.1-1.3S231,290.9,230.7,291.3z"/>
		<path class="st0" d="M209.6,274.4l1.2,0.9l1.3,2.2c0,0,0.6-0.9,1.2-0.5c0.7,0.4,1.4-0.7,0.9-1.3c-0.5-0.6-1-0.6-1.3-1.2
			c-0.3-0.7-0.7-1.7-0.7-1.9c0-0.2-1.5-0.1-1.4,0.5c0,0.6-1.7,0.4-1.4,1.2C209.6,275,209.6,274.4,209.6,274.4z"/>
		<path class="st0" d="M215.1,272.8l0.7,6c0,0,0.3,0.8,0.6,0.8c0.3,0,0.6-0.8,0.6-0.8l0.1-1.3c0,0,1.7-0.2,1.3-1.7
			C218,274.4,216.3,272.6,215.1,272.8z"/>
		<path class="st0" d="M147.5,272.1c0,0-0.5,2.1-1.5,0.8c-0.9-1.3,0.1-1.6,0.9-1.3c0.8,0.3,0.4,0.1,0.4,0.1l-1.4-1.2
			c0,0-0.9,0,0.1-0.6c1-0.6,1.2-1,1.7-1.2c0.4-0.2,1.7-0.8,1.7,0.1c0,0.9-0.4,1.5,0.7,1.2c1-0.3,1.2-0.7,0.7-1.2
			c-0.5-0.5-1.8-1.2-1.1-1.6c0.7-0.4,1.6-0.7,1.5,0.1c-0.1,0.8,0.7,0.7,0.9,0.8c0.2,0,1.2-0.6,1.7,0c0.5,0.5,0.4,1.2,0.4,1.2
			s1.9-0.5,1.9,0.6c0,1.1-1.7,0.4-1.7,0.4s1.6,0.8,0.8,1.3c-0.8,0.5-1.7-0.6-1.7-0.6l-0.9,0.5c0,0,0.7,1.1,0.1,1.3
			c-0.6,0.1-2,1.4-2.3,0.9c-0.2-0.5,0.7-0.9,0-1.2c-0.7-0.3-0.7,0.2-1.2,0.8c-0.5,0.6-1.7,1.2-2,1c-0.2-0.2,1.2-0.9,0.7-1.7
			C147.4,271.7,147.5,272.1,147.5,272.1z"/>
		<path class="st0" d="M145.1,274c-0.2,0-2.5,1.3-0.8,1.7c1.6,0.4,2.3-0.8,2.1-1.3C146.2,273.9,145.1,274,145.1,274z"/>
		<path class="st0" d="M141.4,277.3c0,0-0.8,0.5-1.7,0.9c-0.9,0.4-1.9,1.1-0.6,1.4C140.5,279.9,141.1,280.4,141.4,277.3z"/>
		<path class="st0" d="M153.9,264.4l-1,1.3c0,0-0.8,1.3,0.6,1.1c1.5-0.2,2.1-0.9,2.6-0.6C156.6,266.6,156.9,264,153.9,264.4z"/>
		<path class="st0" d="M115.1,273.3c-0.2,0-0.8,0.5-1.7,0c-0.9-0.5-1.1-0.1-0.8,0.5c0.3,0.6,0.6,0.7,0.5,1.1c-0.1,0.5,0.8,1,1.2,0.8
			c0.5-0.2-0.2-0.9,0.5-0.9s1.3-1.1,0.4-1.6C114.3,272.9,115.1,273.3,115.1,273.3z"/>
		<path class="st0" d="M111.9,273c0,0-1.2,0.2-2.2,0.3c-1,0.1-2.4,0.1-2.4,0.1s-0.7,0.8,0.3,1.1c0.9,0.3,1.1,0.2,1.1,0.2
			s0.6,1.7,2.1,1.7l0.5-0.1c0,0-0.2-1.3,0.4-1.5C112.3,274.6,111.9,273,111.9,273z"/>
		<path class="st0" d="M107.4,275c0,0-0.7-0.3-1.3-0.9c-0.6-0.7-1.9,0.9-1,1.5c0.9,0.5,0.8,0.8,0.8,1.1c0,0.4-0.1,0.8,1.1,0.4
			C108.2,276.5,108.7,275.1,107.4,275z"/>
		<path class="st0" d="M101.9,275.5c0,0,0.9,0,0.9,0.7c0,0.7,0.2,0.9-0.8,0.9s-1.2-0.2-1-0.7C101.2,275.8,101.9,275.5,101.9,275.5z"
			/>
		<path class="st0" d="M100.4,275.5c-1.5,0-1.2,0.7-1.2,0.7s-0.4,0.9,0.8,0.9c1.1,0,1.1-0.7,0.7-1.4L100.4,275.5z"/>
		<path class="st0" d="M98.4,277.2c0,0-1,0.6-1.1,1c0,0.4-1.2,0.7-1.6,0.9c-0.4,0.2-0.4,0.5-0.9,0.4c-0.5,0-1.1,0-1.5-0.1
			c-0.4-0.2-1.2-0.6-0.7-0.9c0.5-0.3,1.5-0.5,1.9-0.2c0.4,0.3,0.3,0.9,0.3,0.9s0.6-0.5,0.4-0.9c-0.2-0.5-0.8-1.1-0.1-1.2
			c0.6-0.1,0.7-0.3,0.7-0.3s-1.2-0.2-0.2-0.8c0.9-0.6,2-0.8,2-0.1c0,0.6,0,0.9,0,0.9S98.8,276,98.4,277.2z"/>
		<path class="st0" d="M92.3,277.5c0,0-0.4,0.6-1.5,0.7c-1.1,0-1.3,0.5-1.7,0.9c-0.4,0.5-1.5,0.8-2.5,0.7c-1-0.1-2-0.7-0.4-0.8
			c1.6-0.1,1.6-0.7,2.5-1.1c0.9-0.4,0.8-0.6,1.7-0.6c1,0,0.7-0.7,1.2-0.8C92.4,276.4,93.2,276.6,92.3,277.5z"/>
		<path class="st0" d="M81.6,279.8c0,0,0-0.5,0.8-0.5c0.9,0,0.9,0.2,0.9,0.2l0,0.8L81.6,279.8z"/>
		<path class="st0" d="M80.5,279.2c0,0-0.4,0.7-1.5,0.7c-1.1,0-0.9-0.4-0.7-0.8C78.6,278.7,79.6,278.6,80.5,279.2z"/>
		<path class="st0" d="M72.4,277.1c0,0-1.4,0.3-0.9,0.8C71.9,278.4,73,278,72.4,277.1z"/>
		<path class="st0" d="M67.7,276.3c0,0,2.7,2.4,1.4,1.6c-1.3-0.8-2.6-1.8-2.7-1.9C66.2,275.9,67.7,276.3,67.7,276.3z"/>
		<path class="st0" d="M61.2,273.5c0.2,0.3,2.3,1.6,2.3,1.6l1.1-0.3l1.3,0.5l0.7-0.4l0.7-0.1c0,0-0.7-1.8-1.4-1.5
			c-0.8,0.3-0.2,0.7-0.2,0.7l-1.1,0l-2-1C62.4,272.9,60.7,272.6,61.2,273.5z"/>
		<path class="st0" d="M58.7,270.7l0,0.9l0.9,0C59.5,271.6,60.1,270.4,58.7,270.7z"/>
		<path class="st0" d="M57.3,270.6l-0.1,1.6l-2.5-0.3c0,0,1.4-1.2,1.6-1.4C56.3,270.3,57.3,270.2,57.3,270.6z"/>
		<polygon class="st0" points="54.6,269.5 54,269.9 54.6,270.4 55.6,269.8 54.8,269.4 54.6,269.3 		"/>
		<path class="st0" d="M52.8,268.1l-1.5-1.2l0.2,1.4c0,0-0.9,0.2-0.8,0.2c0.1,0,1.7,1.1,1.7,1.1l0.6,0.2l-0.3-1.1L52.8,268.1z"/>
		<path class="st0" d="M44.6,261.9c0.3,0,1.1,0.7,1.1,0.7l0.7-0.9l-1.3-0.8L44.6,261.9z"/>
		<polygon class="st0" points="40.9,260.5 42.5,263.9 41.4,264.1 40.8,260.8 		"/>
		<path class="st0" d="M37.1,256.5c0.2,0,1.3,0.3,1.3,0.3l0.9,0.1l0.6-0.5l0.1-0.7l-3.4,0L37.1,256.5z"/>
		<path class="st0" d="M96.7,255.7C96.7,255.7,96.6,255.7,96.7,255.7c-0.3-0.2-0.9-0.7-1.2-0.4c-0.4,0.3-0.8,0.6-0.1,1.1
			c0.7,0.5,1.6,0.8,1.7,0.6C97.2,256.8,97.9,256.3,96.7,255.7z"/>
		<path class="st0" d="M94.4,250.2c0,0,0.4,1,1,0.6c0.6-0.4,1.4-0.8,1.9-1c0.5-0.2,1-0.9,0.4-1.2c-0.5-0.3-1.1-0.7-1.5-0.3
			c-0.5,0.4-1.5,0.7-2.4,0.7C92.9,249,93.8,249.8,94.4,250.2z"/>
		<path class="st0" d="M118.7,241c-0.1-0.1-0.5-0.5-0.5-1.4c0-1-0.5-1.5-1.3-1.3c-0.8,0.2-0.6,0.6-1.5,0.6c-0.9,0-2-0.2-2.1,0.2
			c-0.1,0.4,1,0.8,1.3,0.8c0.3,0,0.8,0,0.4,0.5c-0.3,0.4-1.1,0.4-0.4,1.2c0.7,0.8,0.8,1.4,1.3,1.1c0.5-0.3,0.1-0.8,1.2-0.8
			C118.1,241.9,119.9,242.3,118.7,241z"/>
		<path class="st0" d="M98.7,224.9c0.5,0.6,0.8,0.8,0.2,1.5c-0.6,0.7-0.7,1.6-0.3,2.2c0.5,0.6,1.7,1,1.4,1.6c-0.4,0.6,0.6,1,1.1,0.3
			c0.5-0.7,0.6-1.2-0.2-1.9c-0.7-0.7-1.9-1.1-1.4-1.9c0.6-0.8,0.1-1.7-0.3-2.1C98.9,224.2,98.4,224.4,98.7,224.9z"/>
		<path class="st0" d="M114.4,238.8"/>
		<path class="st0" d="M114.3,211.1c0,0-2.2,0.7-2.5,1.9c-0.3,1.2-0.2,1.7-0.5,1.7c-0.3,0,0.1,0.6,0.9,0.5c0.8-0.1,1-1,1.7-0.1
			c0.7,0.9,1.6,1.1,1.8,2.2c0.1,1.1,0.1,2.8,0.5,2.4c0.3-0.5,0.5-1.2,0.9-1.1c0.4,0,0,0.3,0.7,0.8c0.7,0.5,2.4,0.5,1.7-0.2
			c-0.7-0.7-0.6-1.7-0.6-1.7s-0.2,0.1-0.6-0.3s-0.4-0.9-0.5-1.1c-0.1-0.2-0.3-0.2-0.3-0.2s0.2,0,0.3-0.7c0-0.7-0.3-1.3-0.4-1.5
			c-0.2-0.2-0.6-0.5-1.1-0.2c-0.5,0.3-1.2,0.8-1.6,0c-0.4-0.8-0.1-1.1,0.1-1.5C114.5,211.7,114.3,211.1,114.3,211.1z"/>
	</g>
	<path class="st0" d="M79.7,131.2L44.6,122l-10.5,35.6c0,0-0.4,2.5,1.1,2.3c0,0-2.3,3.6-2.5,4.2c-0.3,0.7,0.2,1.2-0.3,1.7
		c-0.5,0.5,47.5,72.7,47.5,72.7s1.7,0.6,1.7-1.6c0-2.2-0.2-4.3-0.7-5.6c-0.5-1.2-0.1-2.5,0.3-3.5c0.4-0.9,1-1.7,1-3.1
		c0-1.4,1.2-4.3,4-4.2c2.7,0.1,2.5-0.3,3.1,1c0.6,1.3,2.4,2.5,2.4,2.5l2.7-12.5l16.3-72.2L79.7,131.2z"/>
	<path class="st0" d="M251.6,150.3c-0.9,0-0.8,1.9-0.8,1.9s-0.6,3.1-1.9,3.5c-1.3,0.4-1.4-2-1.4-2l-34.3,1.3l-2.2-3.4l-32,2.1
		c1.2,0.3,0.9,3.8,0.9,4.7c0,0.9,0.8,1.6,0.9,2.5c0.1,0.9-1.8,0.7-1.8,1.6c0,0.9,1.2,1.3,1.2,1.3s3.4-0.1,3.3-1.7
		c-0.1-1.6-0.7-2-0.2-2c0.5,0,0.4,0.9,0.8,0.9c0.5,0,0.7-0.4,0.9-1.2c0.2-0.7,0.3-1.3,0.8-1.2c0.5,0.1,1.5,0.8,0.7,1.7
		c-0.8,0.9-2.1,1.5-2,2.6c0.1,1.1,1.3,1.5,2.7,1.4c1.4-0.1,4.1-0.3,4.1-1.3c0-1.1-2.2-0.3-3.1-0.2c-0.9,0.1-2.1,0.1-2-0.4
		c0-0.5,1.3-0.8,2.4-0.8c1.1,0,2.3-0.3,2.3-0.3s0.6-1.6,1.9-1.8c1.3-0.1,3.8,0.1,3.8,0.9c0,0.8-1.1,1.3-1.6,1c-0.5-0.2-2-0.3-2,0.1
		c0,0.4,0.7,1.3,1.8,1.1c1.1-0.2,3-1.1,3.8-0.9c0.9,0.2,2.4,1.4,2.8,1.9c0.4,0.5,1.8,0.8,1.5-0.3c-0.3-1.1-0.2-2.7,1.1-2.6
		c1.3,0.1,1.2,1,1,1.3c-0.2,0.4-0.2,1.6,0.5,1.5c0.7-0.1,1.5,0,1.5,0.5c0,0.5-0.4,1.1-1.1,0.7c-0.7-0.5-2-1-2-1s0.1,1.1,0.7,1.6
		c0.6,0.5,2.7,1.8,2.7,2.8c0,1.1,0.1,2.2,0.1,2.2s0,1.1,0.9,0.7c0.9-0.4,1.6-0.7,2.4-0.8c0.8-0.1,1-0.8,1-0.8s0.4-0.3,1-0.1
		c0.5,0.2,1.5-0.6,1.7-0.8c0.2-0.2,1-0.3,1.1,0.2c0.1,0.5,0.1,0.5-0.4,1c-0.5,0.4-1.6,1.1-1.1,1.4c0.5,0.2,1.6,0.3,2.4-0.5
		c0.8-0.8,1.2-1.5,0.7-2.1c0,0,1-0.4,0.8-1.1c-0.3-0.7,1.5-1,2.2-0.9c0.8,0.1,1.6,0.2,1.3-1c-0.3-1.2-0.2-1.9,0.7-1.9
		c0.9,0,1-0.3,1-0.7c0-0.4,1.1-0.6,1.7-0.3c0.6,0.4,1.3,0.7,1.8,0.7c0.5,0,1.8-0.5,1.8,0.6c0,1.1-0.2,2.8,0.9,2.9
		c1.2,0.1,1.3,0.1,2,0.6c0.7,0.5,1.3,0,1.5-0.1c0.2-0.1,1.3,0.1,0.9,0.9c-0.4,0.8-0.8,1.8,0.6,2.7c1.4,0.9,3.2,1,3.2,2.2
		s0.1,3.3,0.1,3.3s2.4,0,3.6-1.3c0,0,0.4-0.6,0.9-0.3c0.5,0.3,0.7,0.7,0.3,1.4c-0.4,0.7,0,1.2,0.6,1.7c0.6,0.5,1.5,1.1,1.7,2.8
		c0.2,1.6,0.4,2.9,0.3,4c-0.1,1.1-0.2,1.7-0.8,2.8c-0.6,1.1-1,1.8-1.3,2.7c-0.2,0.9-0.7,1.5-0.6,2.4c0.1,1-0.2,1.9,0.8,2.2
		s1.5,0.6,1.6,1c0.1,0.5,0.4,1.4,0.9,1.4c0.6,0,1.4-1.1,0.6-2.4c-0.8-1.3-1.1-2-1.3-2.8c-0.2-0.8,0.8-1.2,1.3-0.5
		c0.5,0.8,0.4,2.9,1,3.1c0.6,0.1,0.8-0.2,0.7-0.7c0-0.5,0-1.2,0.4-1.2c0.4,0,1.3,0.8,1.1,1.9c-0.1,1.1-0.7,1.8-0.8,2.3
		c-0.1,0.5-0.4,1.2,0.3,1.4c0.7,0.2,1.4,0.9,0.6,1.2c-0.8,0.3-1.1-0.6-1.3,0.1c-0.2,0.6-0.2,1-0.7,0.8c-0.5-0.1-1.3-0.6-1.9-0.4
		c-0.5,0.2,0.3,0.9,0.3,0.9s0.8,0.7,0.7,1.3c-0.1,0.7-0.7,1.5-0.7,1.5s0.2,0.5,0.5,0.8c0.2,0.3,0.5,1,1,1.1c0.5,0.1,0.8,0.2,1.1,0.9
		c0.3,0.6,0.4,1.1,1,1.1c0.5-0.1,1.2-0.6,1.5,0.1c0.3,0.7,0.6,1.3,1,1.3c0.4,0,0.6-0.5,0.6-1c0.1-0.5,0.3-1.9,1.7-1.9
		c1.5,0,1.8,1,1.1,1.7c-0.7,0.7-1.5,1.5-0.7,1.7c0.8,0.2,1.4,1.2,1,1.9c-0.4,0.7-1.7,0.7-2.5-0.1c-0.8-0.8-1.4-1.5-1.9-0.7
		c-0.5,0.8,0.9,2.3,0.9,2.3s-0.4,1.6,0.4,2.1c0.9,0.5,1.6,0.5,2,0.3c0.4-0.2,1.1-0.1,1.4,0.3c0.2,0.4,1,0.4,1.1-0.7
		c0.1-1.2,0.7-2.1,1.4-1.9c0.7,0.2,0.7,1.1,0.8,1.6c0,0.5,0.3,3,0.8,4c0.5,1,1,1.8,1.5,1.8c0.6,0,0.7,0.3,0.8,0.6
		c0,0.3,0.5,0.8,0.8,0.4c0.4-0.3,1.5-0.5,1.1,0.2c-0.4,0.7-0.8,1.3,0,1.3c0.8,0,2.4,0.1,2.7,0.1c0.4-0.1,1.2-0.8,1.8-0.7
		c0.6,0.1,0.5,1.5,0.6,1.9c0,0.4,0.3,1.4-0.6,1.8c-1,0.4-3.1,1.3-2.4,2.1c0.7,0.7,2.1-0.4,2.5-0.7c0.4-0.3,0.8-0.7,1-0.4
		c0.2,0.3-0.1,0.8-1.5,1.8c-1.4,1,0.4,1.7,1.7,0.7c1.2-1,1.8-1.1,2.3-0.6c0.5,0.5,0.9,1.6-0.2,1.9c-1.1,0.3-3.1-0.1-3.9,0.4
		c-0.8,0.5-1,1.2-1,1.2s0.8,0.6,1.3,1c0.5,0.4,1.3,0.5,1.8,0.5c0.5,0,1.6-1.1,2.1-1.2c0.5,0,0.7,1.1,1.6,1c0.9-0.1,0.7-1.4,0.7-1.5
		s0-0.9,1.5-1.3c1.5-0.4,3-2,3-2s0.5-0.3,0-0.8c-0.5-0.5-1.3-1.4-1.3-2.1c0-0.7-0.1-1.5,0.2-2.5c0.4-1.1,1.1-3,1.9-4
		c0.8-1,1.7,0,1.8-1c0.1-1-0.7-2.8-0.7-3.5c-0.1-0.7-0.2-1-0.1-1.6c0.1-0.6,0.4-2.2,0.4-2.5c0-0.3-0.7,0.5-1,0.5
		c-0.2,0-0.7-1.5-0.4-2.1c0.2-0.6,0.9-0.4,0.9-0.8c0-0.5,0-1.7-1.1-1.4c-1.1,0.3-1.6-0.3-1.6-1.2c0-0.9-0.2-2.6-0.4-3.3
		c-0.2-0.7-0.2-1.4-0.8-2.1c-0.6-0.7-0.9-1.3-0.9-1.8c0-0.6,0.3-1.2,0.7-0.4c0.4,0.8,1.5,2.2,1.7,2.9c0.2,0.7,0.4,4.2,1.8,3.5
		c1.4-0.6-1-4.1-1.6-5.1c-0.6-1-1.4-3-2.1-4c-0.7-1-1.1-2.4-1.4-3.4c-0.4-1-0.6-1.6-1.1-1.5c-0.5,0.1-0.4,0.7,0,1.6
		c0.5,0.8,0.6,2.1,0.3,2c-0.3-0.1-1-1.1-1.6-2.1c-0.7-1.1-0.6-1.9-0.6-1.9s0.4,0.1,0.7-0.3c0.4-0.4,0.2-1.1,0-1.5
		c-0.2-0.4-1-2.9-1.6-3c-0.7,0-0.1,0.9-0.1,0.9s0.2,1.1,0.2,1.7s-0.2,0.6-0.2,0.6s-1.1-0.4-1.6-1.8c-0.5-1.3-0.7-2-1.5-3.1
		c-0.8-1.2-1.8-3.2-1.8-3.8c0-0.5,0.6-0.7,0.9-0.2s1,1,1.4,0.9c0.3-0.1,0.7,1.4,1.3,0.9c0.6-0.5,0.3-1.8-1.2-3.8
		c-1.5-2-1.8-2.2-2.1-1.9c-0.4,0.3-0.2,0.8-0.2,0.8s-0.5,0.2-0.8-0.5c-0.4-0.7-1-1.3-1.9-1.2l-1-1.1c0,0-0.4-0.4,0.1-0.9
		c0.4-0.4,0.9-0.1,0.9-0.1s1.3,1.2,1.5,0.8c0.3-0.4-0.6-1.3-0.6-1.3s-0.7-0.9-0.9-1.3c-0.2-0.4-0.5-0.7-1-1.3
		c-0.4-0.6-1.2-1.6-1.5-2.6c-0.3-1-0.3-2.1-0.6-2.9c-0.3-0.8-0.5-1.9-1-2.4c-0.5-0.6-0.8-1.1-0.8-1.7c0-0.6,0-2.3-0.4-3.3
		c-0.3-0.9-0.6-1.2-0.8-1.9c-0.3-0.7-0.5-1.6-0.3-2c0.2-0.4,0-2.1,0-2.2l-0.4-0.1C254.7,152.2,252.6,150.3,251.6,150.3z"/>
	<path class="st0" d="M258.5,77.8l1.3-13.5l-22.9-2.9l-54.7-6.8l-0.7-0.1l-8.7,58c4.1,0.6,55.2,8.4,81.3,10.6l0.1-0.6l-0.1,0l0.1,0
		L258.5,77.8C258.5,77.8,258.5,77.8,258.5,77.8z"/>
	<rect x="234.6" y="235.8" class="st1" width="99.4" height="34.8"/>
	<text transform="matrix(1 0 0 1 234.6094 245.5148)" class="st2 st3 st4">Florida</text>
	<rect x="42.3" y="159.7" class="st1" width="113.3" height="46.2"/>
	<text transform="matrix(1 0 0 1 42.2988 169.501)" class="st5 st3 st4">Nevada</text>
	<rect x="141.3" y="224.1" class="st1" width="113.3" height="46.2"/>
	<text transform="matrix(1 0 0 1 141.3017 233.8079)" class="st5 st3 st4">Alaska</text>
	<rect x="60.7" y="73" class="st1" width="113.3" height="46.2"/>
	<text transform="matrix(1 0 0 1 60.7473 82.7516)" class="st2 st3 st4">Hawaii</text>
	<rect x="181.5" y="84.5" class="st1" width="99.4" height="34.8"/>
	<text transform="matrix(1 0 0 1 181.543 94.2881)" class="st5 st3 st4">Colorado</text>
</g>
<g id="Layer_2">
	
		<image style="overflow:visible;" width="1732" height="404" xlink:href="../Screen Shot 2018-12-03 at 9.00.49 PM.png"  transform="matrix(0.5 0 0 0.5 -230 354)">
	</image>
</g>
</svg>
