<?xml version="1.0" encoding="utf-8"?>
<!-- Generator: Adobe Illustrator 23.0.1, SVG Export Plug-In . SVG Version: 6.00 Build 0)  -->
<svg version="1.1" id="Layer_1" xmlns="http://www.w3.org/2000/svg" xmlns:xlink="http://www.w3.org/1999/xlink" x="0px" y="0px"
	 viewBox="0 0 300 300" style="enable-background:new 0 0 300 300;" xml:space="preserve">
<style type="text/css">
	.st0{fill:#305874;}
	.st1{opacity:0.8;}
	.st2{opacity:0.6;fill:#305874;enable-background:new    ;}
	.st3{opacity:0.2;fill:#305874;enable-background:new    ;}
	.st4{fill:none;}
	.st5{fill:#2D2D2D;}
	.st6{font-family:'GoodlifeBrush';}
	.st7{font-size:30px;}
	.st8{font-size:15.4569px;}
	.st9{font-size:18.5145px;}
	.st10{font-size:29.6963px;}
	.st11{opacity:0.4;fill:#305874;enable-background:new    ;}
	.st12{fill:#757575;}
	.st13{font-size:18px;}
</style>
<g>
	<path class="st0" d="M118.1,82.3c0,0,0.3,0.4,0.3,1.3s0.7,1.6,0,2.3c-0.7,0.7-1.3,0.7-1.1,1.6c0.1,0.9-1,0.1-1.4,1s-0.5,2.1,0,2.7
		s1.3,1.3,1.3,1.7c0,0.4-0.3,1.1,0.4,1.9c0.7,0.9,0.5,1.7,0.1,2.9c-0.3,1.2,0,4,0.9,4.1s2,1.1,2.3,1.7c0.3,0.7,1.7,1,1.9-0.3
		s3.8-4.8,5.2-4.8c1.5,0,3.2-0.7,4.6-1.2c1.5-0.5,3.4-1.9,3.5-2.7c0.1-0.9-0.5-0.6-1.3-0.8c-0.8-0.2-1.8-2.6-2.5-3.4
		s-0.5-1.5-0.9-1.8s-2.4-1.8-2.9-2.5s-1.9-2-2.5-2.1c-0.5-0.1-1.6-1-1.7-1.2s-1-0.2-1.4-0.2s-0.3-0.1-1.7-1.1
		C119.9,80.3,117.6,79.9,118.1,82.3z"/>
	<path class="st0" d="M109.1,71.9c0,0-0.3,2.6,1.3,2.8c1.7,0.2,1.7-0.3,2.8-0.3s2.7-0.4,2.7-1.5c0.1-1.1-0.1-1.6-1.5-2.4
		c-1.3-0.8-2.1-1.4-2.5-1.5c-0.5-0.1-1.1,0.1-2,0.1s-1.7-0.6-2.1-1.1c-0.5-0.5-0.7-1.3-1.5-0.7c-0.9,0.7-1.6,2.3-0.5,2.7
		c1.1,0.5,1.7,0.9,2.5,1.1C109.2,71.4,109.1,71.9,109.1,71.9z"/>
	<path class="st0" d="M99.5,69.8c0,0,0.9,0.7,0.9,1.3s0.8,2,1.6,1.4c0.8-0.6,1.9-0.7,1.2-1.6c-0.7-0.9,0.6-1.7-0.9-1.9
		C100.7,68.8,98,68.3,99.5,69.8z"/>
	<path class="st0" d="M93.9,66.4c0.5,0,1.4-0.1,2.3,0s2,0.3,2.3,0s1.3,0.4,2.3,0.3c1.1-0.1,2.2-0.1,2.4-0.3c0.2-0.2,0.6-0.1,1.4-0.6
		s0.4-1-0.7-1s-2,0.4-2.8-0.2s-1.3-0.1-1.9,0.1c-0.6,0.1-1.1,0.5-1.7,0.2s-1.7-0.4-1.9-0.5c-0.2-0.1-0.6-0.9-1.1-0.3
		C94.1,64.6,93.9,66.4,93.9,66.4z"/>
	<path class="st0" d="M87.2,60.3c0,0,0.9-0.9,1.1,0.1c0.2,0.9,0.7,1.5,0.9,1.7c0.3,0.3-0.6,0.6-1.4,0.6s-1.5,0.5-2.1-0.2
		s-0.8-1.3-1.1-1.5c-0.3-0.1-0.9,0.5-1.4,1.1s-1.2,0-1.5-0.7s-0.5-1.3-0.7-1.5c-0.2-0.1-1.1-0.7-1.1-1s-1-0.5-0.2-1.3
		c0.8-0.9,1-0.8,1.8-0.7s1.5-2.1,2.4-1.9c0.9,0.3,1.1,0.7,1.2,1.4s0.7,1,0.9,2.1C86.1,59.6,86.9,60.3,87.2,60.3z"/>
	<path class="st0" d="M61.8,50.2c0,0,0.7,1.9-0.9,1.9c-1.7,0-2.7,0-3.1,0c-0.3,0-0.3-0.1-1.2-1s-0.4-1.2-1.9-1.2S54,49,54.8,48.4
		c0.8-0.7,1.3-0.7,1.5-1.4s0.5-0.9,1.9-0.9s1.9-0.3,2.8,0s1.5,0.1,1.7,0.5C62.8,47.1,63.2,48.5,61.8,50.2z"/>
	<path class="st0" d="M50.5,50.8c0,0-0.5,1.4-1.3,1.5s0.6,1.3-0.5,1.3s-1.9-0.8-1.3-2.3c0.7-1.5,1.9-1.4,1.9-1.4s0.7-1.7,1.3-1.1
		C51,49.5,50.5,50.8,50.5,50.8z"/>
</g>
<g class="st1">
	<path class="st0" d="M260.1,124.2l3.5-59c0,0-2.5-2.3-4.2-2.3c0,0,1.4-1.7,1-2s-2,0.3-2.7,0.9c-0.7,0.6-0.8,1.1-2,0.4
		c-1.1-0.7-4.2-1-5.5-1l-0.6-1.1l-0.9,0.4c0,0-0.6-1.6-1.6-2.4c-1-0.9-1.8-0.9-2.8,0.1s-1.4-0.1-1.4-0.1s-0.4-0.7-2-0.6
		c-1.6,0.1,1-2.7-1.3-2.7s-4.1,0.1-3.7-1.3c0.4-1.4,0.8-2.5,1-2.5s-2.1-0.2-3,0.4c0,0,1-1.1,0.1-1.4c-0.8-0.4-0.1-1.7-1-1.6
		c-0.9,0.1-0.7,0.9-1.6,1c-0.8,0.1-2.3,1.5-3.5,1.5s-0.3-0.3-0.8-1.1c-0.6-0.8-0.8-0.6-2,0.1c-1.2,0.7-0.6,0.6-2.6,0.8
		s-6.2,1.2-7.5,2.8s-0.5,2.3-1.1,2.3s-1.1,0.8-1.6,0.9c-0.6,0.1-1.6,1.6-2,0.6s-1.2-1.1-1.6-1.1c-0.4,0.1-0.8-0.8-1.8-0.8
		s-0.8,1.6-1.5,2.5s-1.4,1-0.8,2.1c0.6,1.1,4,2.9,3.6,4.9c-0.4,2-0.8,2.9-0.8,2.9l1.7,1.7l0.4-0.6c0,0,0.5-0.2,1,0.6
		c0.5,0.9,2.5,1.1,1.9,1.6c-0.6,0.6-2.6-1.2-2.8,0s-0.2,3.5,1.3,3.5c1.6,0,1.9,1.1,1.2,2.5c-0.7,1.3-0.8,1.1-0.8-0.2
		s-0.5-1.4-1.1-0.8s-1.8,1-1.8,0.1c-0.1-0.9,0.6-0.6-1.1-1.4c-1.8-0.8-2.8-1.3-2-2.4c0.9-1.1,1.1-2.4,1.1-2.4l-7.2-0.1
		c0,0-1.4,0.4-1.8,0.6c-0.4,0.1-3.4,0.4-3.9,0.4c-0.5,0.1-1.2,1.6,0.7,2.8s2.9,2.4,2.9,2.4s-2.3-0.5-2.7-0.5s0,4,0,4s1.2,2.8,3,2.8
		s2.8,0.8,2.8,0.8s1.1,2.5,1.8,1.9c0.6-0.6,0.6-0.6,0.6-0.6s0.6,1.6,0.7,1.2c0.1-0.4,0.8-1.4,0.8-1.4s0.8-0.8,1-0.8s0.9-0.4,0.9-0.4
		l1.9-1.3c0,0,0.8-0.1,0.8,1s-1.1,1.1-1.1,1.1s-0.3,1.1-1.4,1.3c-1.1,0.2-1.3,1.6-0.1,1s1.6,0.1,1.3,1c-0.4,0.9-1.5,1.6-0.8,2.2
		c0.6,0.6,0.4,1.7-1.1,2.2c-1.4,0.5-3,1.2-4,0.4c-1-0.9-1.5-1.1-2.5-0.4c-1,0.8-1.7,0.6-1.7,0.6l-0.5,6.8c0,0-0.9-3.8-1.9-5.1
		s-1.7-1.6-1.7-0.9s-0.4,0.8-0.5,1.3s-1,1-1,0.2s0.4-1.2-0.3-1.2s-1.1,1.3-1.1,1.3s-0.4,1.1-0.7,0.2c-0.4-0.9-0.9-1.6-1.3-0.8
		c-0.4,0.9-1.1,1.1-1.6,0.9c-0.5-0.1-1.1-0.4-1.1,0.4c0,0.7,0.4,1.3-0.3,1.4c-0.6,0.1,0.3,1.3,0.8,1.4S186,99,186,99s0,0.3,0.4,0.9
		s0.6,1.2,1.4,2.2s1.3,1.7,0.7,2s-1.3,0.1-1.3,0.1s0.5,0.7-0.4,0.6s-2.1-0.8-2,0.1s0.6,2,1.4,2.1s1.3-0.5,1.8-0.5s1.3,0.9,1.3,1.3
		c0,0.5-0.8,0.7-1.2,0.7s0,0.8-0.4,1.3s-0.8,0.9-0.2,1.1s1.4,0.6,1.9,1.1s1.1,1.1,1.9,0.5s2.3-0.7,2.3-0.9s0,1.1,0,1.1
		s-2.6,3-1.2,4.6c0,0-1,0.2-1.1,1.1c-0.1,0.8-1,1.3-1,1.3s-0.8-0.2-1.3-0.2s-1.1,0.8,0,0.8c1.1,0.1,1.1,0.1,1.1,0.1s1.1,0.3,1.6,0.3
		s1,0.3,1,0.3s-0.1-1.6,0.8-1.6s1.3,0.1,1.8-0.4c0.4-0.4,0.8-0.4,0.8-0.4s0,1.8,1.1,2.1c1.1,0.2,2.8,2.1,2.6,3.6
		c-0.2,1.6,1,2.8,1.1,0.9s0-2.6,0.9-3s0.3,0.1,0.3,0.1s-0.7,2.8,0.4,2.8c1.1,0,1.6-1.1,2-1.1s0.6-0.1,1.3-0.7s2.5-1.1,2.9-1.1
		s-2.1,0.4-2.4,2c-0.3,1.6-1.3,2-2.1,2.1c-0.7,0.1,0.1,0.9-0.2,1.3c-0.3,0.4-1.3-0.1-1.7,0.6c-0.4,0.6-1.3,1.4-1.3,1.4l-0.6,2.1
		c0,0-0.9-0.6-1.1-0.2c-0.2,0.4-1.8,1.5-2.8,1.7s-0.6,1.3-0.2,1.4c0.4,0.1-1.7-0.4-3.6,0.4c-1.9,0.7-2.4,2.1-2.9,2.1s-1.1,0-1.1,0
		s-1.3-1.3-2.5-0.9c-1.1,0.4-0.4,1.2-0.4,1.2s-0.4-0.2-2.3,0.1c-1.9,0.4-2.4,0.6-2.1,1.8c0.4,1.1,1,2.1,1.7,0.9s1.8-1.9,2-1.5
		c0.1,0.4-1.1,1.7,0.6,1.7c1.8,0,1.8-0.6,1.8-0.6s0.6,0.2,1.3,0.2c0.6,0,2.3-1.7,2.4-0.8c0.1,0.8-0.6,2.3,0,2.3s1.3-1.8,1.3-1.8
		s0.2-0.5,0.8-0.2s2.7-0.3,3.5-0.3s1.8-0.4,1.1-1.1c-0.8-0.6-1.1-1.6-0.2-1.5c0.9,0.1,1.2,1.1,1.7,0.9s0.8-0.5,0.8-0.5
		s0.7,0.4,0.8,0.1s0.1-1.2,0.1-1.2s0.8-0.2,1,0.3s0.7,0.6,0.7,0.6s0.4-0.9,0.8-1c0.5-0.1,0.4-0.9,0.4-0.9l1.1-0.1l0.7-1l0.3,0.4
		l2.1-0.7l0.1,0.7c0,0,0.9-2.2-0.1-2.2s-1.6-1-0.1-1s2.2-0.3,1.6,0.5c-0.6,0.8-0.4,1.8,0.3,1.1s1.6-2.3,1.6-2.3s0.1,2,1,1.6
		c0.8-0.4,0.5-1.6,0.5-1.6s0.4-1,1.1-0.9c0.6,0.1,0.9-0.6,1.3-0.6c0.4,0,1.1-0.1,1.1-0.1s0.6,0.2,0.7-0.4c0.1-0.6,0.3-1.1,1.1-1.1
		s0.6-0.8-0.6-0.8c-1.1,0-0.4-0.9-1.1-1.4c-0.7-0.5-0.8-0.9-0.7-1.8s1.3-0.5,1.3-1.1s0.7-1.2,1.5-1s3.4,0,3.4,0s-0.1-0.6,0.2-1.6
		c0.4-0.9,1.1-1.4,1.6-2.3s0.8-2.1,2-1.7s0.7-0.1,1.5-0.7s1.6-0.1,2.5-1s1.6-1.1,1.6-1.1l-0.1,1.2c0,0,2.4-1.6,2.8-1
		c0.4,0.6-2.1,2.3-2.1,2.3l1,0.5c0,0,2.5,1.5,1.8,2.4s-1,0.6-1.8-0.7c-0.9-1.3-1.6-0.9-1.6-0.9s-1-0.8-1.4-0.8s-0.5,0.6-1.5,0.7
		s-1.6,0.6-1.6,0.6s0.6,0.6-0.1,1.1c-0.7,0.5-1.9,1.8-2.6,4c-0.7,2.2,0.7,1.5,1.2,0.6s1.1-1.5,1.8-0.6c0.6,0.9-0.5,2.1-1.9,2.2
		s-1.9,0.2-1.9,0.2L223,126l1.6,0.3l1.4-0.1l0.9,1c0,0,0.8-0.3,1.2-1.1c0.4-0.8,0.6-2.2,0.6-2.2s2-1.3,1.5-0.3s-0.2,1.3-0.2,1.3
		l1.3-1.6c0,0,0.6,1.6,1.8-0.4l1-0.3c0,0-0.1,0.8,0.5,0.8s1.4,0,1.4,0s0.7-0.8,1.3-0.8c0.6-0.1,0.5-0.9,0.1-1.3s0.4-0.7,0.5-0.4
		s2.3,0.4,0.8-0.8s-2.1-1.8-2.1-1.8l3.1-2.2c0,0-1.3,2.2-0.4,2.2c1,0,1.4-0.6,1.4-0.6s0.5,0.5,1,0.5s1.7-2.1,2.2-1.7
		s-0.7,1.4-0.4,1.5s2.8-0.4,2.9,0.1c0.1,0.6-1,0.6-1.6,0.9s-2.1,0-2.5,1.1c0,0,0.6-0.1,1.5,0s2.3,0.6,2.5,1.1
		c0.2,0.6,0.1,1.6,1.1,1.7c0.9,0.1,1.6,0.1,1.6,0.9c0,0.9,0.2,1.1,1.6,1.1c1.3,0,3.1-0.5,3.8-0.1s0,1.2,1.8,0.9
		c1.8-0.3,1.4,0.7,2.8,0.7c1.3,0,1.1,0.7,2.3,0.7c1.2,0,0.4,0.7,1.1,1.5s1.6,1,1.6,1s-0.2,0.2,1.3,1.1c1.6,0.9,2,0.8,2,0.8
		s-0.7,0.6,0.3,0.6s2.1-0.4,2.2,1c0.1,1.3,0.9,2.3,0.9,2.3l1.9,1.8c0,0,1,0.7,1.1,0.2s1.3-0.3,1.3-0.3s0.4-0.2,1.1-0.1
		c0.7,0.1,1.2,0.2,2.1,0.7s0.8,0.1,0.1-1.4c-0.7-1.5-0.6-1.3-0.8-2.8c-0.1-1.5-0.6-2.5,0.1-2.5c0.8,0,1.1,1.8,1.1,1.8
		s1.8,4.2,3.3,5.3c1.6,1.1,2.1,3,2.1,3.9s0.5,2.1,0.9,2.1s0.9-0.3,1.1,0s3.1,0.8,3.1,0.8s-0.8,2,0.4,2.8c1.2,0.8,1.6,2.6,1.6,2.6
		s-1.5,2.1-0.7,2.1s1.7-1.7,2.7-1.3s1.2,1.8,1.2,2.5s0.5,1.7,0.5,1.7s0.2,0.4,0.4,0.4c0.2,0,1.2,0.3,1.2,0.3s0.6-1.7,1.3-1.7
		c0,0-1-3-2.4-4.2c-1.4-1.3-1.9-1.3-2-2.8s-0.2-3.6-3-3.6s-2.7-1.7-3.4-3.5c-0.7-1.8-1.4-3.3-3-4.7s-2.1-2.3-2.8-3.7
		c-0.8-1.3-2.3-2.8-4.6-2.8c-2.3,0.1-1.8,0.2-2.5,1.8s-1.3,3.3-2,1.8l-3.2-3c0,0,0.3-0.6-0.2-1.6c-0.5-1.1-0.4-0.9-0.4-1.6
		c0.1-0.7-1.4-0.9-2-0.7c-0.6,0.1-1.9,0-2.8-0.5s-1-0.3-1.5,0C261.9,125.3,260.5,124,260.1,124.2z"/>
	<path class="st0" d="M281.5,149.2c0,0,0.3,1.1-0.4,0.9c-0.7-0.2-0.9-1.2-1.4-2.1s-0.3-1.3-1.2-1.3c-0.8,0-2.9,0.5-2.2-0.9
		c0.7-1.4,0.5-2.1,1.6-2.1s1.4-0.5,1.8,0.2s0.2,1.4,0.6,1.5s1.1,1.3,1.1,2.1c0,0.9,0.2,1.7,0.2,1.7L281.5,149.2z"/>
	<path class="st0" d="M283.8,148.1c0,0-1.5,2-1.5,0.3c0-1.3-0.4-1.8-0.3-2.2c0-0.1,0.1-0.2,0.2-0.4c0.5-0.6,1.4-0.3,1.4-0.3
		s0.7-0.6,1-0.7c0.3-0.1,2.3,0.1,2.2,0.8c0,0.7-1.1,1.2-1.7,0.4s-0.5-1-0.5-1s0.5,1.4,0,1.5s-1.1-0.7-1.1-0.7s0.9,1.2,0.3,1.4
		s-1.7-1-1.7-1S284,147.7,283.8,148.1z"/>
	<path class="st0" d="M284.1,148.5c0,0,1.4,0.8,1.8-0.3c0.5-1-0.1-1.5-0.8-1.8C284.4,146.1,283.4,147.3,284.1,148.5z"/>
	<path class="st0" d="M284.7,150.1c0,0,0.5,2.1,0.9,3s0.4,1.3,0.4,1.7c0,0.3,1.1,0.7,1.1,0.7l0.3,0.7c0,0-1.4,0.1-1.7,0.6
		c-0.2,0.5,0.1,0.2,0.8,0.8c0.6,0.6,1.5,2.3,2,1.7c0.5-0.5,0.3-0.7-0.1-1.6c-0.4-0.8-0.6-1.1-0.6-1.1s1,0.3,1.5,0.9
		c0.4,0.6,1.4,2.1,1.8,1.8c0.5-0.3,0.4-1.4-0.1-1.9c-0.6-0.5,0.7-0.9,0.3-1.4s-1-0.1-1.2-0.8c-0.1-0.7,2.1-1.1,1.2-1.9
		c-0.9-0.8-2.4,0-1.6,0.8l0.3,0.4c0,0-0.6,0-0.9-0.1s-0.7-0.5-0.7-1.2c0-0.8-0.3-1.7-0.3-1.7s0-0.3-0.7-0.3
		C286.8,151.2,285.2,148.3,284.7,150.1z"/>
	<path class="st0" d="M287.8,150c0,0-2.2-0.9-1.3-1.7c0.9-0.8,1.7,0,2.1,0.3c0.5,0.4,1.9,1.7,1.3,2.2
		C289.2,151.5,287.8,150,287.8,150z"/>
	<path class="st0" d="M291.9,152.2v4.2c0,0-0.3,0.9,0.9,0.9c1.2,0,1.3-0.4,1-1.4s-0.6-1.5,0-2s-0.8-1.2-0.7-1.6
		S292.2,151.3,291.9,152.2z"/>
	<path class="st0" d="M295.9,156.7v1.1c0,0,0.8,0.7,1.1,0c0.3-0.7,0.1-1.3,0.1-1.3S296.2,156.3,295.9,156.7z"/>
	<path class="st0" d="M274.8,139.8l1.2,0.9l1.3,2.2c0,0,0.6-0.9,1.2-0.5c0.7,0.4,1.4-0.7,0.9-1.3s-1-0.6-1.3-1.2
		c-0.3-0.7-0.7-1.7-0.7-1.9s-1.5-0.1-1.4,0.5c0,0.6-1.7,0.4-1.4,1.2C274.8,140.4,274.8,139.8,274.8,139.8z"/>
	<path class="st0" d="M280.3,138.2l0.7,6c0,0,0.3,0.8,0.6,0.8c0.3,0,0.6-0.8,0.6-0.8l0.1-1.3c0,0,1.7-0.2,1.3-1.7
		C283.2,139.8,281.5,138,280.3,138.2z"/>
	<path class="st0" d="M212.7,137.5c0,0-0.5,2.1-1.5,0.8c-0.9-1.3,0.1-1.6,0.9-1.3c0.8,0.3,0.4,0.1,0.4,0.1l-1.4-1.2
		c0,0-0.9,0,0.1-0.6s1.2-1,1.7-1.2c0.4-0.2,1.7-0.8,1.7,0.1s-0.4,1.5,0.7,1.2c1-0.3,1.2-0.7,0.7-1.2s-1.8-1.2-1.1-1.6
		s1.6-0.7,1.5,0.1s0.7,0.7,0.9,0.8c0.2,0,1.2-0.6,1.7,0c0.5,0.5,0.4,1.2,0.4,1.2s1.9-0.5,1.9,0.6s-1.7,0.4-1.7,0.4s1.6,0.8,0.8,1.3
		s-1.7-0.6-1.7-0.6l-0.9,0.5c0,0,0.7,1.1,0.1,1.3c-0.6,0.1-2,1.4-2.3,0.9c-0.2-0.5,0.7-0.9,0-1.2s-0.7,0.2-1.2,0.8s-1.7,1.2-2,1
		c-0.2-0.2,1.2-0.9,0.7-1.7C212.6,137.1,212.7,137.5,212.7,137.5z"/>
	<path class="st0" d="M210.3,139.4c-0.2,0-2.5,1.3-0.8,1.7c1.6,0.4,2.3-0.8,2.1-1.3C211.4,139.3,210.3,139.4,210.3,139.4z"/>
	<path class="st0" d="M206.6,142.7c0,0-0.8,0.5-1.7,0.9s-1.9,1.1-0.6,1.4C205.7,145.3,206.3,145.8,206.6,142.7z"/>
	<path class="st0" d="M219.1,129.8l-1,1.3c0,0-0.8,1.3,0.6,1.1c1.5-0.2,2.1-0.9,2.6-0.6C221.8,132,222.1,129.4,219.1,129.8z"/>
	<path class="st0" d="M180.3,138.7c-0.2,0-0.8,0.5-1.7,0s-1.1-0.1-0.8,0.5s0.6,0.7,0.5,1.1c-0.1,0.5,0.8,1,1.2,0.8
		c0.5-0.2-0.2-0.9,0.5-0.9S181.3,139.1,180.3,138.7C179.5,138.3,180.3,138.7,180.3,138.7z"/>
	<path class="st0" d="M177.1,138.4c0,0-1.2,0.2-2.2,0.3s-2.4,0.1-2.4,0.1s-0.7,0.8,0.3,1.1c0.9,0.3,1.1,0.2,1.1,0.2s0.6,1.7,2.1,1.7
		l0.5-0.1c0,0-0.2-1.3,0.4-1.5C177.5,140,177.1,138.4,177.1,138.4z"/>
	<path class="st0" d="M172.6,140.4c0,0-0.7-0.3-1.3-0.9c-0.6-0.7-1.9,0.9-1,1.5c0.9,0.5,0.8,0.8,0.8,1.1c0,0.4-0.1,0.8,1.1,0.4
		C173.4,141.9,173.9,140.5,172.6,140.4z"/>
	<path class="st0" d="M167.1,140.9c0,0,0.9,0,0.9,0.7s0.2,0.9-0.8,0.9s-1.2-0.2-1-0.7C166.4,141.2,167.1,140.9,167.1,140.9z"/>
	<path class="st0" d="M165.6,140.9c-1.5,0-1.2,0.7-1.2,0.7s-0.4,0.9,0.8,0.9c1.1,0,1.1-0.7,0.7-1.4L165.6,140.9z"/>
	<path class="st0" d="M163.6,142.6c0,0-1,0.6-1.1,1c0,0.4-1.2,0.7-1.6,0.9c-0.4,0.2-0.4,0.5-0.9,0.4c-0.5,0-1.1,0-1.5-0.1
		c-0.4-0.2-1.2-0.6-0.7-0.9s1.5-0.5,1.9-0.2s0.3,0.9,0.3,0.9s0.6-0.5,0.4-0.9c-0.2-0.5-0.8-1.1-0.1-1.2c0.6-0.1,0.7-0.3,0.7-0.3
		s-1.2-0.2-0.2-0.8c0.9-0.6,2-0.8,2-0.1c0,0.6,0,0.9,0,0.9S164,141.4,163.6,142.6z"/>
	<path class="st0" d="M157.5,142.9c0,0-0.4,0.6-1.5,0.7c-1.1,0-1.3,0.5-1.7,0.9c-0.4,0.5-1.5,0.8-2.5,0.7s-2-0.7-0.4-0.8
		s1.6-0.7,2.5-1.1c0.9-0.4,0.8-0.6,1.7-0.6c1,0,0.7-0.7,1.2-0.8C157.6,141.8,158.4,142,157.5,142.9z"/>
	<path class="st0" d="M146.8,145.2c0,0,0-0.5,0.8-0.5c0.9,0,0.9,0.2,0.9,0.2v0.8L146.8,145.2z"/>
	<path class="st0" d="M145.7,144.6c0,0-0.4,0.7-1.5,0.7s-0.9-0.4-0.7-0.8C143.8,144.1,144.8,144,145.7,144.6z"/>
	<path class="st0" d="M137.6,142.5c0,0-1.4,0.3-0.9,0.8C137.1,143.8,138.2,143.4,137.6,142.5z"/>
	<path class="st0" d="M132.9,141.7c0,0,2.7,2.4,1.4,1.6c-1.3-0.8-2.6-1.8-2.7-1.9C131.4,141.3,132.9,141.7,132.9,141.7z"/>
	<path class="st0" d="M126.4,138.9c0.2,0.3,2.3,1.6,2.3,1.6l1.1-0.3l1.3,0.5l0.7-0.4l0.7-0.1c0,0-0.7-1.8-1.4-1.5
		c-0.8,0.3-0.2,0.7-0.2,0.7h-1.1l-2-1C127.6,138.3,125.9,138,126.4,138.9z"/>
	<path class="st0" d="M123.9,136.1v0.9h0.9C124.7,137,125.3,135.8,123.9,136.1z"/>
	<path class="st0" d="M122.5,136l-0.1,1.6l-2.5-0.3c0,0,1.4-1.2,1.6-1.4C121.5,135.7,122.5,135.6,122.5,136z"/>
	<polygon class="st0" points="119.8,134.9 119.2,135.3 119.8,135.8 120.8,135.2 120,134.8 119.8,134.7 	"/>
	<path class="st0" d="M118,133.5l-1.5-1.2l0.2,1.4c0,0-0.9,0.2-0.8,0.2s1.7,1.1,1.7,1.1l0.6,0.2l-0.3-1.1L118,133.5z"/>
	<path class="st0" d="M109.8,127.3c0.3,0,1.1,0.7,1.1,0.7l0.7-0.9l-1.3-0.8L109.8,127.3z"/>
	<polygon class="st0" points="106.1,125.9 107.7,129.3 106.6,129.5 106,126.2 	"/>
	<path class="st0" d="M102.3,121.9c0.2,0,1.3,0.3,1.3,0.3l0.9,0.1l0.6-0.5l0.1-0.7h-3.4L102.3,121.9z"/>
	<path class="st0" d="M161.9,121.1C161.9,121.1,161.8,121.1,161.9,121.1c-0.3-0.2-0.9-0.7-1.2-0.4c-0.4,0.3-0.8,0.6-0.1,1.1
		s1.6,0.8,1.7,0.6C162.4,122.2,163.1,121.7,161.9,121.1z"/>
	<path class="st0" d="M159.6,115.6c0,0,0.4,1,1,0.6s1.4-0.8,1.9-1s1-0.9,0.4-1.2c-0.5-0.3-1.1-0.7-1.5-0.3c-0.5,0.4-1.5,0.7-2.4,0.7
		C158.1,114.4,159,115.2,159.6,115.6z"/>
	<path class="st0" d="M183.9,106.4c-0.1-0.1-0.5-0.5-0.5-1.4c0-1-0.5-1.5-1.3-1.3s-0.6,0.6-1.5,0.6s-2-0.2-2.1,0.2
		c-0.1,0.4,1,0.8,1.3,0.8s0.8,0,0.4,0.5c-0.3,0.4-1.1,0.4-0.4,1.2s0.8,1.4,1.3,1.1s0.1-0.8,1.2-0.8
		C183.3,107.3,185.1,107.7,183.9,106.4z"/>
	<path class="st0" d="M163.9,90.3c0.5,0.6,0.8,0.8,0.2,1.5s-0.7,1.6-0.3,2.2c0.5,0.6,1.7,1,1.4,1.6c-0.4,0.6,0.6,1,1.1,0.3
		s0.6-1.2-0.2-1.9c-0.7-0.7-1.9-1.1-1.4-1.9c0.6-0.8,0.1-1.7-0.3-2.1C164.1,89.6,163.6,89.8,163.9,90.3z"/>
	<path class="st0" d="M179.6,104.2"/>
	<path class="st0" d="M179.5,76.5c0,0-2.2,0.7-2.5,1.9s-0.2,1.7-0.5,1.7s0.1,0.6,0.9,0.5s1-1,1.7-0.1s1.6,1.1,1.8,2.2
		c0.1,1.1,0.1,2.8,0.5,2.4c0.3-0.5,0.5-1.2,0.9-1.1c0.4,0,0,0.3,0.7,0.8s2.4,0.5,1.7-0.2s-0.6-1.7-0.6-1.7s-0.2,0.1-0.6-0.3
		c-0.4-0.4-0.4-0.9-0.5-1.1s-0.3-0.2-0.3-0.2s0.2,0,0.3-0.7c0-0.7-0.3-1.3-0.4-1.5c-0.2-0.2-0.6-0.5-1.1-0.2s-1.2,0.8-1.6,0
		c-0.4-0.8-0.1-1.1,0.1-1.5C179.7,77.1,179.5,76.5,179.5,76.5z"/>
</g>
<path class="st2" d="M64.7,144.8l-35.1-9.2l-10.5,35.6c0,0-0.4,2.5,1.1,2.3c0,0-2.3,3.6-2.5,4.2c-0.3,0.7,0.2,1.2-0.3,1.7
	s47.5,72.7,47.5,72.7s1.7,0.6,1.7-1.6c0-2.2-0.2-4.3-0.7-5.6c-0.5-1.2-0.1-2.5,0.3-3.5c0.4-0.9,1-1.7,1-3.1c0-1.4,1.2-4.3,4-4.2
	c2.7,0.1,2.5-0.3,3.1,1s2.4,2.5,2.4,2.5l2.7-12.5l16.3-72.2L64.7,144.8z"/>
<path class="st3" d="M288.8,222.2l1.3-13.5l-22.9-2.9l-54.7-6.8l-0.7-0.1l-8.7,58c4.1,0.6,55.2,8.4,81.3,10.6l0.1-0.6h-0.1h0.1
	L288.8,222.2L288.8,222.2z"/>
<rect x="228.7" y="221" class="st4" width="99.4" height="34.8"/>
<text transform="matrix(1 0 0 1 97.3233 284.9504)" class="st5 st6 st7">4. </text>
<text transform="matrix(1 0 0 1 127.4951 284.9504)" class="st5 st6 st8">Florida</text>
<rect x="35.4" y="134.3" class="st4" width="113.3" height="46.2"/>
<text transform="matrix(1 0 0 1 46.639 174.4645)" class="st6 st8">Nevada</text>
<rect x="135.4" y="209.3" class="st4" width="113.3" height="46.2"/>
<text transform="matrix(1 0 0 1 205.5421 98.4604)" class="st6 st9">Alaska</text>
<rect x="54.8" y="81.1" class="st4" width="113.3" height="46.2"/>
<text transform="matrix(1 0 0 1 54.8771 90.8162)" class="st5 st6 st8">Hawaii</text>
<text transform="matrix(1 0 0 1 231.5515 233.0095)" class="st6 st8">Colorado</text>
<text transform="matrix(1 0 0 1 31.0604 91.5622)" class="st6 st7">1.</text>
<rect x="176.1" y="47.2" class="st4" width="36.7" height="21.8"/>
<text transform="matrix(1 0 0 1 184.4731 99.1005)" class="st6 st7">2.</text>
<rect x="13.2" y="127.6" class="st4" width="73" height="39.1"/>
<text transform="matrix(1 0 0 1 21.083 176.2387)" class="st6 st7">3.</text>
<polygon class="st4" points="58.9,272.9 63,272.9 63,272.9 "/>
<rect x="238" y="181.1" class="st4" width="55.3" height="40.6"/>
<text transform="matrix(1.0552 0 0 1 209.1055 236.0137)" class="st6 st10">5.</text>
<path class="st11" d="M177,288.3L177,288.3h-0.1v0.1l0,0l0.1,0.1l0.1,0.1v-0.1L177,288.3L177,288.3z M175.8,289L175.8,289l0.1,0.1
	l0.1-0.1H175.8L175.8,289z M176.4,273.1l-0.1,0.1v0.1l0.3,0.1h0.1l0.1-0.1v-0.1h-0.1h-0.1L176.4,273.1L176.4,273.1L176.4,273.1z
	 M176.3,288l-0.4-0.3h-0.1l0,0l0,0l0.8,1.3v0.4l0.3-0.2l-0.2-0.5L176.3,288z M175.9,273.1l0.1,0.2l0,0l0,0l0,0l0,0v-0.1l0.1-0.1h0.1
	h0.1V273l-0.1-0.1h-0.1l-0.1-0.2l-0.1-0.1l-0.2-0.1l-0.1,0.1v0.1v0.1v0.3h0.1L175.9,273.1L175.9,273.1z M175.4,272.9L175.4,272.9
	v-0.2l0,0v-0.1l-0.1-0.2l-0.1-0.1H175h-0.1h-0.1l-0.2,0.1v0.2l0.1,0.1l0,0v0.1l0,0v-0.1v-0.1v-0.1h0.1h0.1l0,0h0.2l0.1,0.1v0.1
	l0.1,0.1L175.4,272.9L175.4,272.9z M175.5,288.6L175.5,288.6h-0.1H175.5L175.5,288.6l-0.2,0.1v0.1l0.1,0.1v0.1h0.1v-0.1v-0.2
	L175.5,288.6z M177.8,288.7l-0.2,0.2l0,0l0.1-0.1L177.8,288.7L177.8,288.7L177.8,288.7z M185.1,282.8l0.2,0.1v-0.1H185.1z
	 M184.6,282.3l0.1,0.1L184.6,282.3L184.6,282.3z M185.1,282.5L185.1,282.5l-0.1,0.1L185.1,282.5L185.1,282.5L185.1,282.5z
	 M179.6,288.1l-0.3,0.1h0.4l0.1,0.1l0.1,0.2l0.1-0.2l0.1-0.1l0.1-0.1l0.3-0.1l0,0v-0.1h-0.3L179.6,288.1z M184.4,284.2L184.4,284.2
	L184.4,284.2L184.4,284.2z M175.1,288.6L175.1,288.6l-0.1-0.1h-0.1h-0.1h-0.1l0,0l-0.1,0.1v0.2l0.1,0.1l0,0l0,0h0.1h0.1h0.1h0.1
	l0.1,0.1l0.1,0.1V289v-0.2L175.1,288.6z M184.5,286.1l-0.1,0.1l-0.1,0.1v0.1h0.1L184.5,286.1h0.1l0.1-0.2v-0.1L184.5,286.1z
	 M183.6,286.6L183.6,286.6l-0.1,0.1v-0.1v-0.1l-0.5,0.3l-0.1,0.2h0.5l0.2-0.1l0.1-0.1l0.1-0.1L183.6,286.6L183.6,286.6L183.6,286.6z
	 M180.7,288.1l0.9-0.4l0.2-0.2h0.2h0.1h0.1v-0.1l-0.4,0.1L180.7,288.1z M184.1,283.7l0.1,0.1L184.1,283.7L184.1,283.7L184.1,283.7z
	 M172.3,272L172.3,272l0.1,0.2h0.1h0.2l0.1-0.1l0.2-0.3v-0.1l-0.2-0.1h-0.2h-0.1h-0.1v0.1L172.3,272L172.3,272L172.3,272z
	 M165.6,261.1v-0.3l-0.1-0.1l0,0h-0.1l0.2,0.7l0.1,0.3l0.2,0.3v-0.3L165.6,261.1z M136.4,216.5l-0.3,0.2l-0.5,0.3l-0.1,0.1l0.7-0.2
	l0.3-0.2l0.1-0.3L136.4,216.5L136.4,216.5z M160.8,251.1l-0.3-0.6l-0.1-0.1l-0.2-0.1l0.1,0.2l0.1,0.2l0.1,0.1l0.1,0.2l0.5,0.6
	l0.2,0.2v-0.2L160.8,251.1z M165.4,259.8l-0.1-0.3l-0.1-0.3l-0.1-0.1l0,0l-0.1,0.1l0.1,0.3v0.7l0.1,0.3l0.1-0.3L165.4,259.8z
	 M155.7,226L155.7,226l-0.2-0.1l-0.1,0.1v0.2l0.1,0.1l0.2-0.1h0.1L155.7,226L155.7,226z M134.7,217.6l-0.2,0.1h-0.1v0.1l-0.1,0.1
	h-0.1h-0.1v0.1v0.1v0.1l-2.6,1.3l-0.5,0.1h-0.3l-0.3-0.2h-0.2l0.3,0.2l0.3,0.1h0.7l0.3-0.1l0.8-0.4l0.3-0.2l1.2-0.5L134.7,217.6
	l0.2-0.1v-0.1l0.1-0.1h0.1v-0.1l-0.2,0.1L134.7,217.6z M188.1,244.7l0.4,1l0.2,0.4v0.1v0.2l0.1,0.3l0.1,0.4l0.1,0.2l0.1,0.2l0.1,0.2
	l0.5,2.1l0.2,0.4v0.2v0.1l0.2,0.1v0.1v0.2l0.8,1.7l0.1,0.5l0.3,0.3l0.2,0.4l-0.1-0.3l-2.1-5.8v-0.2v-0.3l-0.1-0.3l-0.2-0.5l-0.5-0.9
	l-0.3-0.6l-0.1-0.6v-0.1l0,0l0,0v-0.1H188l0,0l0,0L188.1,244.7z M110.7,207.8l-0.4,0.1l-0.1-0.1l-0.3,0.1l-1.3,0.2h-0.5h-0.2
	l-0.3,0.1h-0.1l-0.3,0.1h-0.9l-0.7,0.3l-1.4,0.2h-1l-0.2,0.1l0.7,0.1l8.4-1.1l0.1,0.1h0.1h0.1l0.1-0.1l-1.2-0.2L110.7,207.8z
	 M130.2,218.6L130.2,218.6v-0.2l0,0H130l-0.2-0.1h-0.3l-0.2,0.2h-0.2l-0.5-0.1l0.1,0.1l0.3,0.1l0.1,0.1l0.1,0.1l0.1,0.1l0.1,0.1h0.1
	l0.3,0.1h0.1l0.1-0.1v-0.1l0.1-0.1L130.2,218.6z M167.7,264.1h-0.2l-0.4-0.1l-0.2-0.1l-0.2-0.2l-0.1-0.2l-0.1-0.3V263v-0.1l-0.1-0.1
	l-0.1-0.1l0.1,0.4l0.1,0.4l0.1,0.2l0.1,0.2l0.1,0.1l0.8,0.4h0.2l0.2-0.1l0.3-0.3l0.2-0.1l-0.5-0.3L167.7,264.1z M172.9,289.7
	l-0.3,0.1h-0.1l-0.1-0.1h-0.1l-0.1,0.1v0.1v0.1l0.1,0.1v0.1l-0.1,0.1h-0.1l0.9-0.3L172.9,289.7L172.9,289.7z M171.9,290.1
	L171.9,290.1l-0.1-0.1h-0.1l-0.3,0.2h-0.1h-0.1h-0.1H171l-0.1,0.2l0.4-0.1l0.2-0.1l0.1-0.1l0.1-0.1v-0.1l0.1,0.1l0,0l0,0l0,0
	L171.9,290.1l-0.1,0.1l0,0h0.1V290.1L171.9,290.1z M185.5,283.1L185.5,283.1V283V283.1L185.5,283.1z M174.3,288.5L174.3,288.5
	L174.3,288.5L174.3,288.5L174.3,288.5l-0.2-0.1l-0.1,0.3h0.1h0.1v0.1l-0.1,0.1v0.1h0.2l0.1,0.1v0.1l-0.1,0.2h-0.1l-0.1-0.2l-0.2-0.1
	l-0.4-0.1l0.1,0.1l0.1,0.1l0.2,0.1l-0.1,0.1l0,0l0,0l-0.1,0.1l-0.3,0.1l-0.1-0.1l-0.1,0.1l-0.2,0.2v0.1l0.9-0.3l0.4-0.2l0.3-0.2
	v-0.1l-0.4-0.5L174.3,288.5z M174.4,271.8L174.4,271.8l-0.2-0.1v0.1v0.1l0.1,0.1h0.1v0.1v0.2v0.1l0.1-0.2v-0.1V272L174.4,271.8
	L174.4,271.8L174.4,271.8L174.4,271.8z M167.1,260.9l-0.2-0.2l-0.3-0.1h-0.2l0.2,0.4l0.2,0.4l0.2,0.4l-0.1,0.3l0.2,0.3l0.2,0.7
	l0.2,0.3l0.2,0.1v-0.2l-0.1-0.7l-0.1-0.2l-0.2-0.3l-0.1-0.3l0.1-0.5L167.1,260.9z M167.1,289.8h-0.2h-0.1l0,0h0.1H167.1L167.1,289.8
	l0.1,0.1l0.1,0.2v0.1v-0.1V290L167.1,289.8z M167,290.3L167,290.3h0.1l0.1-0.1h-0.1L167,290.3z M179.7,279.7l0.1,0.1l0.1,0.1v-0.1
	v-0.1v-0.1v-0.1h-0.1h-0.1l0,0l0,0h-0.1l-0.1,0.1L179.7,279.7z M160.2,229.7L160.2,229.7h0.1l0,0H160.2L160.2,229.7v-0.1h-0.1l0,0
	l0,0L160.2,229.7L160.2,229.7z M158.6,226.7L158.6,226.7l-0.1-0.1h-0.1h-0.1v0.1v0.1L158.6,226.7L158.6,226.7z M160,231.3L160,231.3
	l0.1,0.1v0.1v0.1l0,0h0.1h0.1l0.1-0.1v-0.1l-0.1-0.1l-0.1-0.1L160,231.3L160,231.3z M159.5,230.2L159.5,230.2v0.1V230.2L159.5,230.2
	z M159.4,231.1L159.4,231.1L159.4,231.1L159.4,231.1L159.4,231.1z M160.5,234.6L160.5,234.6L160.5,234.6v-0.1h-0.1L160.5,234.6
	L160.5,234.6L160.5,234.6L160.5,234.6z M159.8,232.2L159.8,232.2h0.1l0,0H159.8L159.8,232.2L159.8,232.2z M159.7,230L159.7,230
	L159.7,230L159.7,230L159.7,230L159.7,230h0.1H159.7L159.7,230L159.7,230L159.7,230L159.7,230z M159.5,230.8L159.5,230.8h0.1h0.1
	l0,0h0.1l0,0l0,0h-0.1H159.5L159.5,230.8z M160,230.1h0.2h0.1h0.1l0,0l0,0h-0.1h-0.1H160L160,230.1L160,230.1z M185.9,234.3
	l-0.2-0.4h-0.2l-0.2,0.1l-0.3,0.2l-0.3,0.2l-0.1,0.1l-0.1,0.2h-0.3l-0.1,0.4v0.5l0.1,0.2l0.1,1.1l0.1,0.3l0.2,0.3l0.4,1.3l0.2,0.4
	V239l-0.1-0.2l-0.1-0.3v-0.2v-0.1l0.1-0.3l0.1-1.7l0.1-0.5l0.4-0.9L185.9,234.3z M160.6,229.9l-0.1-0.1h-0.1L160.6,229.9l-0.1,0.1
	v0.1v0.1v0.1l0.1,0.1l0,0l0,0l0,0V229.9L160.6,229.9z M185.5,239.5v0.2v0.2h0.1v-0.1l-0.2-0.5L185.5,239.5z M160.4,233.4
	L160.4,233.4L160.4,233.4L160.4,233.4L160.4,233.4L160.4,233.4l-0.1-0.1l0,0L160.4,233.4L160.4,233.4z M160.2,233L160.2,233
	L160.2,233L160.2,233z M160.3,232.4L160.3,232.4L160.3,232.4L160.3,232.4L160.3,232.4z M160.5,231.7L160.5,231.7h-0.2v0.1
	L160.5,231.7L160.5,231.7z M160.2,231.9L160.2,231.9h-0.1v0.1L160.2,231.9l-0.1,0.1l0,0l0,0l0,0l0.2,0.1v0.1l0,0h0.1l0,0l0.1-0.1
	v-0.2L160.2,231.9L160.2,231.9z M180.1,280v0.2l0.1,0.2h0.1l0.1-0.1v-0.1l0.1-0.2v-0.1h-0.1h-0.2H180L180.1,280z M186.9,281.5
	L186.9,281.5L186.9,281.5l-0.1,0.1v0.1l0,0h0.1V281.5z M187.6,282.6v-0.2V282.6h-0.2v0.1l0,0v0.1l0,0L187.6,282.6L187.6,282.6z
	 M191.1,277.4L191.1,277.4l-0.2,0.9l-0.1,0.2l-0.2,0.1l0,0l0,0l0,0l0.2-0.2l0.2-0.3l0.1-0.3v-0.3V277.4v-0.1v-0.1V277.4z
	 M191.4,274.2L191.4,274.2l-0.1,0.1l-0.1,0.1v0.1h0.1l0,0l0,0l0,0l-0.1,0.1v0.1l0.1,0.1h0.2l0.1-0.1v-0.8L191.4,274.2L191.4,274.2z
	 M186.2,282L186.2,282v-0.1h-0.1L186,282v0.1L186.2,282z M185.4,282.6L185.4,282.6L185.4,282.6v0.1v0.1l0,0l0,0v-0.1V282.6
	L185.4,282.6L185.4,282.6z M181.9,280.7L181.9,280.7l0.1,0.3l0,0v-0.1v-0.1l-0.1-0.2l-0.1-0.1l-0.1,0.1L181.9,280.7L181.9,280.7
	L181.9,280.7z M189.9,279.5l-0.3,0.5l-0.2,0.1l-0.4,0.1l-0.1,0.1v0.2l0.1,0.1l0.1,0.1v0.2l-0.1,0.3l-0.5,0.5l-0.2,0.6l-0.6-0.1
	l-0.1,0.2l0.2-0.1l0.1,0.1l0.1,0.1v0.2h-0.1l0,0v0.1l0.1,0.1l-0.1,0.2l-0.1,0.1h-0.3v0.2l-0.1,0.2l-0.3,0.3l-0.2,0.3l-0.1,0.1h-0.2
	l-0.1,0.1l-0.1,0.5l-0.1,0.1h-0.2l-0.1-0.3l0.1,0.2h0.2l0.3-0.3l0.5-0.6l0.4-0.3l0.1-0.1l0.1-0.3l0.1-0.1h0.1l0.1-0.1l1-1V282v-0.3
	l0.2-0.3l0.4-0.6l0.4-0.5l0.1-0.1v-0.1l0.1-0.2l0.1-0.2l0.1-0.1h0.1l0,0v-0.1v-0.1l-0.3-0.1L189.9,279.5z M185.7,285.1l-0.4,0.5h0.1
	l0.3-0.3L185.7,285.1h0.1H185.7L185.7,285.1z M179.7,279.3L179.7,279.3l-0.1,0.1h0.1h0.4l0,0h-0.2L179.7,279.3z M180.5,279.9
	l0.1-0.1v-0.1l-0.2-0.1h-0.1v0.1v0.1L180.5,279.9L180.5,279.9z M193.1,260.4L193,260l-0.2-0.2v-0.1l0.2-0.2v-0.4l-0.3-1.3l-0.1-0.1
	l-0.1-0.1l-0.3-0.1l-0.2-0.1v-0.1l0.1-0.1h0.1h0.1l0.1-0.2v-0.2l-0.2-0.5l-0.3-0.8l-0.3-0.6v-0.2l-0.1-0.2l-0.3-0.2l-0.1-0.2
	l-0.5-0.5h-0.1l-0.3,0.1h-0.1l-0.2-0.1h-0.1l-0.3-0.4l-0.1-0.1h0.2l0.1,0.1l0.1,0.1l0.1,0.1l0.3,0.1l0.5,0.1l0.1,0.1l0.1,0.3v-0.2
	l-1.8-4.4l-0.4-2.1l-4-8.9l-0.1-0.3l-0.4-0.7l-0.2-0.8l-0.1-0.3l-0.3-1.4v-0.6V234l-0.4-0.7l0.1-0.1V233l-0.1-0.3l-0.2-1.3l0.2,0.1
	l0.4,0.4l0.5,0.2v0.2l-0.1,0.3l-0.1,0.2l-0.1-0.1l-0.1,0.2v0.3v0.3l0.1,0.2l0.2,0.2l0.2,0.1l0.8,0.1h0.1h0.2l0,0v-0.2v-0.1h0.1h0.1
	h0.1l0,0h0.2l0.2,0.1l0.1,0.1l0.1,0.2l0.1,0.6v0.6l-0.4,1.8v2.4l0.1,0.6l0.4,1.1l0.7,1.3l0.1,0.5l0.4,0.4l0.1,0.1v0.1l0.3,0.6v-0.6
	l-1-1.5l-0.3-0.6v-0.2l-0.2-0.4l-0.3-1.4l-0.1-0.8v-0.3l-0.1-0.1l0.1-0.2v-1.4v-0.1h0.1l0.1-0.1l0.1-0.1v-0.1h0.1l0.2-0.3l0.2-0.3
	l-0.2-0.3l-0.3-0.9l-0.7-1.3l-0.7-0.9l-0.8-1.4l-1.7-2.7l-0.1-0.3l-0.1-0.3l-0.2-0.2l-0.2-0.2l0.1-0.2l-1.2-2.1l-0.8-2.2l-0.7-1.7
	l-0.6-1l-0.1-0.3l-0.1-0.3v-0.3l-0.1-0.3l-0.4-0.7l-0.2-0.9l-0.1-0.1l-0.1-0.2l-0.1-0.7l-0.1-0.2l0.1-0.1l-0.1-0.1l-0.1-0.1v-0.1
	l0.1-0.1h-0.1l-0.1-0.1h-0.1l0.1-0.5l-0.4-1.6l0.2-1.1l-0.1-0.3l-0.3-0.5l-0.1-0.3l-0.4-1.6V209l0.1-0.6v-0.1l-0.1-0.1l-0.1-0.1V208
	v-0.5v-0.2l-0.1-0.1l-0.1-0.1h-0.1l-0.1-0.1l-0.1-0.1l-0.1-0.2l-0.1-0.1l-0.3-0.3V206l-0.2-0.1l-0.1-0.2v-0.3v-0.3v-0.3v-0.1h0.1
	h0.1l0.1,0.1l0.1,0.1v0.1v0.3v0.3l0.1,0.2l0.2,0.1v-0.4v-1.2l0.1-0.4v-0.2l-0.1-0.1l0,0v-0.1v-0.1h-0.1h-0.1l-0.2,0.1h-0.1l-0.3-0.1
	v-0.1h-0.1l-0.2-0.1l-0.4,0.1h-0.1l-0.5-0.1l-0.1-0.1L173,203h-0.1h-0.1h-0.1l-0.6-0.2l-0.2-0.1l-0.1-0.1l-0.1-0.1l-0.1-0.1h-0.2
	h-0.1h-0.1l-1.1-0.5l-0.2-0.1l-0.1-0.1l-0.2-0.1h-0.1h-0.1h-0.1h-0.2H169h-0.1l0.1,0.5v0.1v0.1l0,0v0.1v0.1v0.1h-0.1h-0.1h-0.1h-0.1
	h-0.1v0.1v0.2v0.1v0.1l-0.1,0.1v0.1v0.1v0.1v0.1v0.4v0.1v0.1l-0.1,0.3v0.1v0.2v0.1v0.1l0.1,0.1l0.2,0.3l0.1,0.1v0.1v0.1v0.2l-0.2,1
	l-0.2,0.9v0.2v0.1v0.4v0.1v0.1v0.1h-0.1l-0.3,0.1h-0.1h-0.1l-0.2-0.1h-0.1l-0.6,0.1h-0.1h-0.1h-0.1v-0.1l-0.1-0.1l-0.2-0.5v-0.1V208
	v-0.1v-0.2l0.1-0.2v-0.1v-0.1v-0.1v-0.1l-0.1-0.1l-0.1-0.1l-0.3-0.4l-0.1-0.1v-0.1v-0.1v-0.1l0.1-0.1v-0.1l0,0l0,0h-0.5h-0.5h-0.6
	h-0.7l-0.8-0.1l-0.9-0.1l-1-0.1l-1.1-0.1l-1.2-0.1l-1.2-0.1l-1.3-0.1l-1.3-0.1l-1.4-0.1l-1.4-0.1l-1.4-0.1l-1.4-0.1l-1.4-0.1
	l-1.4-0.1l-1.4-0.1l-1.3-0.1l-1.3-0.1l-1.2-0.1l-1.2-0.1l-1.1-0.1l-1-0.1l-1-0.1l-0.9-0.1l-0.7-0.1h-0.6h-0.5h-0.4h-0.2h-0.1H133
	h-0.1l-0.6-0.6l-0.2-0.9v-0.6L132,201l-0.2-0.3l-0.1-0.1l-0.1-0.4l-0.1-0.2l-0.1-0.1l-0.2-0.2l-0.1-0.1v-0.2l0,0h-17.8h-2H99
	l-0.1,0.2v0.7v0.1l-0.3,0.6v0.1v0.1v0.1v0.1l0.1,0.1l0.1,0.2l0.1,0.2l0.6,0.6l0.1,0.1l0.3,0.5l0.2,0.2l0.2,0.1l1,0.6l0.1,0.1v0.1
	v0.1v0.2l-0.1,0.5l-0.1,0.4l-0.2,0.4v0.1v0.1v0.2l0.2,0.7l0,0l0.2,0.1l0.1,0.1h0.1h0.2h0.1l0.1,0.1l0.1,0.2v0.2l-0.1,0.1l-0.3,0.1
	l-0.2,0.2l-0.4,0.4v0.1l0.2,0.1v0.1l-0.1,0.1l-0.1,0.1h-0.2h-0.3l-0.2,0.1l0.2,0.1l0.2,0.1l-0.5,0.1h-0.1l-0.1,0.1l-0.1,0.1
	l-0.1,0.1l-0.1,0.1v0.1l0.1-0.1l0.3-0.1h0.1l0.2-0.1l1.8-0.4l0.3-0.1v-0.3h0.1h0.3l0.1-0.1v-0.1v-0.4V208l0.2-0.1h0.3l0.2-0.1
	l0.1-0.3h0.1l0,0l0,0h0.1l0.3-0.6v-0.2l-0.1-0.3l-0.2-0.4l-0.1-0.2v-0.5v-0.2h0.2l0.1,0.1l0.1,0.1l0.1,0.1h0.2v0.1v0.2v0.1h0.3
	l0.1,0.2v0.3l0.1,0.2l-0.1,0.2v0.2l0.1,0.2h0.2l0.1-0.2l0.1-0.5l0.2-0.3l0.3-0.8l0.1-0.1v-0.1l-0.1-0.3l0.3,0.2l0.1,0.3l0.1,0.2
	l0.2-0.2l0.1,0.1l0,0v0.1l-0.4,0.2l-0.2,0.2l-0.1,0.2v0.1l0.1,0.1h0.1h0.1l0.1,0.1l0.2,0.3l0.1,0.1h0.2l0.3,0.1l0.3,0.1l0.2,0.2v0.2
	l-0.2-0.1l-0.2-0.1l-0.2-0.1l-0.8,0.7h-0.2h-0.7l-0.7,0.2l-0.5,0.2h-0.1l-0.1,0.1l-0.1,0.2l0.6-0.1l1.2-0.3l1.9-0.3h0.7l0.4-0.1
	l0.3-0.1l0.3,0.1l1-0.1l1,0.1l0.1-0.1v-0.2v-0.1h0.3h0.2l0.2-0.2h0.1h0.2l0.2-0.1l0.1-0.1l0.1-0.1v-0.1l-0.1-0.4v-0.2l0.1,0.2
	l0.1,0.1h0.1l0.1-0.2l0.1-0.1h0.1h0.3l-0.3,0.4l-0.1,0.2l0.2,0.2h0.2l0.2-0.1l0.2-0.1l0.2-0.1h0.2l0.5-0.1h0.2l0.5,0.1h0.2l0.2-0.2
	l0.2,0.4l0.2,0.1h0.2l0.3-0.2v0.2L117,207l-0.1,0.1l0.1,0.2l0.4,0.4v0.1l0.1,0.1v0.2l-0.1,0.1l-0.2-0.2l-0.1-0.1l-0.6-0.2l-0.3-0.3
	l-0.2-0.1h-0.2l-0.2,0.1v0.1l0.2,0.1h0.2h0.1v0.1l-0.1,0.1l-0.1,0.1l-0.6-0.1l-0.1-0.1l-0.1-0.2l-0.1-0.2l0,0l0,0h-0.1l-0.1,0.1
	l-0.1,0.2l-0.1,0.2l-0.2,0.1l-0.8-0.2h-1l-0.2-0.1l0,0l0,0l0,0l0.3,0.2l1.5,0.2l2.1,0.6l1.6,0.5l1.4,0.8l1.1,0.5l1.5,1.1l0.3,0.1
	l-0.1-0.1l-0.1-0.1h0.1l0.2,0.2l0.1-0.2l-0.2-0.2l-0.2-0.1l-0.1-0.2l0.2-0.3l-0.2-0.2l-0.1-0.2l-0.1-0.1l-0.2-0.1h-0.3l-0.2,0.1l0,0
	l-0.2-0.2l-0.1-0.3l0.1-0.2l0.2-0.1l0.2-0.1h0.4l0.1-0.1l0.1-0.3l0.2,0.3l0.2,0.2l0.1,0.2v0.2h0.1l0.1-0.1l0.1-0.2l0.1-0.1l0.2-0.1
	l0.2-0.1h0.1l0.1,0.2l0.2-0.1l0.3-0.5l0.1-0.1l0.1,0.1l0.1,0.2l0.2,0.3H124l-0.5,0.6l-0.3-0.1H123l-0.5,0.7l-0.3,0.2l0.1,0.1
	l0.1,0.1l0.1,0.1l0.4,0.2l0.1,0.1l0.1,0.2l0.2-0.1l0.3,0.1l0.3,0.2l0.2,0.1v-0.1v-0.1v-0.1v-0.1l0.2,0.1l0.2-0.1l0.2-0.1h0.2v0.1
	l-0.2,0.2v0.2l0.1,0.1l0.2-0.1v0.2v0.5l0.1,0.2l0.2,0.1l0.1-0.1l0.2-0.3l0.1-0.1l0,0v0.1l0.1,0.1h0.1h0.2h0.1l0.1,0.2l-0.1,0.1
	l-0.2,0.1l-0.1,0.1l-0.2,0.1l-0.4-0.2l-0.4-0.3l-0.2-0.3l-0.2-0.2l-0.8-0.2v-0.3l-0.8-0.1h-0.1l0.1,0.2l0.6,0.6l0.2,0.1l1.6,1.3
	h-0.2l-0.3-0.2l-0.3-0.3l-0.1-0.2h-0.1v0.1v0.1v0.1l0.1,0.1l0.4,0.3l1.4,0.7l0.2,0.2l0.2,0.2l0.2,0.3l0.1,0.3l0.1,0.2l0.4,0.5
	l0.1,0.3l-0.1,1v0.2v0.1l-0.1,0.1l-0.1,0.1l-0.1,0.1h-0.2l-0.1-0.1l-0.3-0.5l-0.1-0.3l-0.1-0.3v-0.3v-1v-0.1l-0.2,0.3v0.7l0.2,1.2
	l0.1,0.2l0.2,0.2l0.2,0.1l0.5-0.2h0.3l0.3,0.1h0.3l1.5-0.5h0.5l1,0.1l0.2-0.1l0.3-0.4h0.3l0.2-0.4l0.2-0.1l0.2-0.1l0.2-0.1l0.2-0.1
	l0.2,0.1l-0.4,0.6l-0.1,0.1l0.1,0.3h0.1l0.2-0.2l0.2-0.1l0.2-0.1l0.2-0.1l0.3-0.2l0.2-0.1h0.3l0.2-0.1l0.6-0.6l0.4-0.3l0.6-0.2
	l0.5-0.4l0.7-0.4l0.1,0.1h0.2l0.2-0.1h0.2h0.5l0.5,0.2v0.1l-0.1,0.1l-0.1,0.2l0.4-0.2l0.2-0.3l-0.1-0.3l-0.4-0.1l-0.8-0.1l-0.1-0.1
	v-0.2v-0.1H138l0.2-0.2l0.2,0.1l0.2,0.2l0.4,0.1l0.3,0.1h0.2l0,0l-0.2-0.3l-0.1-0.1v0.1l-0.1,0.1v0.1l-0.1-0.1v-0.1v-0.1l0,0l0,0
	v-0.1l0.1-0.1l0,0l0,0h0.1v-0.2l0.1-0.1l0.4-0.2h0.1h0.4v-0.1l0.1-0.2l0.1-0.2l0.1-0.1h0.1h0.1l0,0l0,0h0.3h0.1l0.1-0.1h0.1h0.1l0,0
	l0,0l0,0l0.1,0.1l0.1,0.2l0.1,0.1l0.1-0.1l0.3-0.2l0.9-0.1l0.4-0.2h0.2l0.9,0.7l1.2,0.7l0.6,0.2l0.3-0.1l0.3,0.3l0.2,0.1l0.2,0.1
	l0.2,0.1l0.5,0.4l0.1,0.1l0.1,0.2l0.5,0.5l0.1,0.3l0.1,0.1l0.1,0.1l0.1,0.1l0.1,0.1l0.1,0.3v0.1l0.1,0.2l0.2,0.3l0.2,0.2l0.2,0.2
	l0.4,0.2l0.1,0.1l0.1,0.1l0.1,0.1l0.3,0.1h0.2l0.2,0.1l0.1,0.2l0.1,0.3v0.3l-0.1,0.3l-0.1,0.2l0.1,0.1l0.1,0.2v0.2l-0.1,0.1l0.3,0.2
	l0.2,0.1h0.1l0.6,0.7l0.3,0.3l0.3-0.1l0.3,0.2l0.2,0.2l0.4,0.5l0.2,0.4l0,0v0.3v0.1v0.1l0.1,0.1l0.2,0.1l0.2,0.1h0.2l0.2,0.1
	l0.1,0.2l0.1,0.2l0.1,0.1l-0.1,0.1v0.1l0.1,0.1h0.2l0.1,0.1v0.2l0.1,0.2l0.2,0.1h0.2h0.1l0.2-0.1h0.2h0.4h0.1l0.2,0.1l0.3,0.1h0.3
	l0.2-0.2l0.1,0.1l0.1,0.1l0.1,0.1l0.1-0.1l0.3-0.1v0.3v0.2l0.1,0.2l0.2,0.1l-0.3,0.2l0.1,0.2l0.5,0.4v0.1v0.4v0.1l-0.1,0.1l0.1,0.1
	l0.1,0.1h0.1l-0.1,0.3l0.1,0.2l0.5,0.6l0.1,0.1h0.1h0.2h0.1l0.1,0.2v0.2l-0.1,0.7v0.2l0.1,0.4l-0.3-0.4l-0.2-0.1l-0.2,0.2v0.1
	l0.2,0.3l0.1,0.2v0.1h0.1h0.1v0.1v0.5v0.1v0.1v0.1l-0.1,0.1v0.1v0.1v0.1v0.1l-0.1,0.2v1.2l-0.1,0.4v0.2v0.8l-0.3,0.5v0.1v0.1
	l-0.1,0.2l-0.4,1.2h0.1l0,0l0,0v0.2l-0.1,0.2l-0.3,0.4l-0.1,0.4l-0.1,0.2l-0.2,0.2l-0.1-0.1l-0.1,0.2v0.3v0.2l0.1,0.4l0.1,0.2
	l0.1,0.2l-0.1,0.1v0.2v0.4l-0.3,1.3l-0.4,1.1l-0.1-0.2v-0.2l0.1-0.2l0.1-0.2l-0.1,0.1l-0.1,0.2l-0.1,0.2v0.3v0.3l0.1,0.4v0.2
	l0.2,0.3l0.8,0.7l0.2,0.5v0.2l0.1,0.3l0.1,0.3h0.2v-0.2l-0.1-0.3l-0.2-0.5l-0.1-0.3l-0.7-0.8l-0.1-0.2v-0.2l0.2,0.2l0.5,0.4l0.2,0.3
	l0.2,0.3l0.2,0.1h0.3v0.1v0.3v0.1l0.1,0.1h0.1h0.2l0.2-0.1l0.1-0.2v-0.3l-0.1-0.2l0.2-0.4v-0.1v-0.1l0.2-0.2l0.1-0.1v-0.2l-0.1-0.3
	v-0.2l0.4-0.2l0.1-0.1l-0.5,0.1l-0.5-0.2l-0.5-0.3l-0.5-0.2l0.2-0.2l0.6-0.2l0.2-0.2h-0.5h-0.1v-0.1l0.1-0.1v-0.1l0.1-0.2V241v-0.1
	l-0.1-0.2v-0.1l0.5,0.5V241l0,0h0.1l0.1,0.2l0.2,0.1l0.3,0.2v0.1l-0.3,0.1v0.1h0.4l0.3,0.1l0.2,0.2l0.1,0.4l-0.1,0.7v0.4l0.2,0.3
	h0.1h0.4l0.1-0.1v0.2l-0.1-0.2v-0.5l0.1-0.2l0.1-0.2l0.3-0.1h0.2l0.2,0.2l0.1,0.6l0.2,0.6v0.3l-0.1,0.2l-0.4,0.5l-0.1,0.1l-0.3,0.2
	l-0.1,0.1l-0.2,0.4l-0.1,0.1h-0.1l-0.1,0.1v0.2v0.1l-0.3,0.3l-0.2,0.3l-0.1,0.3l-0.1,0.3l-0.3,0.2l0.1,0.1v0.1l-0.1,0.2l0.2-0.1h0.2
	l-0.1,0.2l-0.2,0.1l-0.4,0.1l-0.2,0.1h0.2l0.2,0.1l0.1,0.1l0.1,0.1h-0.3l-0.3-0.2l-0.3-0.1l-0.2,0.2l0.1,0.1l0.1,0.1h0.1l0.1-0.1
	h0.1v0.1v0.1l-0.1,0.1l-0.1,0.1l-0.1-0.1l-0.3-0.2l-0.1-0.1l-0.1-0.1l-0.2-0.5h-0.1v0.2l0.2,0.6l0.1,0.2l0.2,0.1l0.5,0.1l0.5,0.4
	l0.2,0.1l0.2,0.2l0.1,0.7l0.3,0.5v0.3H162v-0.1l0,0l0,0h-0.1v0.3l0.2,0.3l0.2,0.3l0.1,0.3h0.1v-0.2l0.1,0.1l0.1,0.2v0.2v0.2
	l-0.1-0.1v-0.1l-0.1-0.2l0.1,0.3l0.3,0.6l0.1,0.5l1.1,2.2l0.1,0.3l0.1,0.1h0.1l0.2,0.1l-0.1-0.2l-0.2-0.3v-0.2l0.3,0.4l0.4,1.2
	l0.4,0.3h0.1h0.1l0.2,0.1l0.1,0.1l0.1,0.1h0.1h0.1l0,0l0,0l0,0h0.1l0.1,0.1l0,0l0.1-0.1l0.1-0.1l0.1-0.1v-0.1l0.1,0.2v0.4l0.1-0.1
	l0.1-0.2v-0.2l-0.1-0.6l-0.2-0.5l-0.1-0.1l-0.1-0.1l-0.2-0.4l-0.1-0.2l-0.1,0.1l-0.1-0.1l-0.4-0.5l-0.1-0.3v-0.1l0.3,0.1l0.1,0.2
	l0.2,0.4h0.2l0.2-0.1h0.1v0.2l0.2,0.3l0.1,0.1h0.1l0.1-0.1h0.2h0.2l0.1-0.2l0.3,0.1h0.2l0.2-0.1l0.5-0.1l0.3-0.3l0.2-0.1l-0.2,0.4
	l-0.1,0.1l-0.1,0.1l-0.3,0.1l-0.6,0.4l-0.2,0.2v0.2l0.3,0.2l0.2,0.1l0.1,0.1v0.3v0.3l-0.3,1.6v0.3l0.1,0.2l0.2,0.5l0.1,0.2v0.3
	l-0.1,0.2v0.2l0.1,0.2l0.2,0.2h0.2l0.2-0.1l0.2-0.1v0.2l0.1-0.1l0.3-0.1l0.1-0.1l0.1-0.1l0.4-1.1l0.1-0.2l0.4-0.4l0.2-0.2l0.2-0.1
	h0.2l0.3-0.2l0.2-0.1l-0.1,0.2l-0.1,0.1l-0.1,0.1l-0.1,0.1l-0.1-0.1l-0.1,0.1l-0.1,0.1v0.1l-0.5,0.5l-0.1,0.2l0.1,0.4l-0.2,0.4
	l-0.3,0.3l-0.3,0.2l-0.1,0.1l-0.1,0.1h-0.1h-0.1l-0.1-0.2h-0.1l-0.1,0.1v0.2v0.2v0.1l0.1-0.1l0.1,0.1l0,0l0.2-0.1l0.7,0.4h0.3h0.1
	l0.1,0.1h0.1h0.1l0.1-0.1V263l0,0l0.1,0.2l0.2,0.4l0.1,0.2l0.1,0.3v0.9h-0.1v-0.1h-0.1v0.2l0.4,0.7l0,0v0.1l-0.1,0.5l0.1,1.1l0.2,1
	h0.1v-0.2v-0.1v-0.1l0.1-0.1l0.2,1l0.2,0.4l0.4,0.3l-0.1,0.1v0.2l0.1,0.2l0.1,0.1h0.1h0.3h0.2v0.2l-0.1,0.2l-0.1,0.2l-0.1,0.1
	l-0.1-0.1l-0.1-0.1l-0.1-0.1l-0.2,0.1l0.1,0.4v0.1l0.1,0.1l0,0h0.1h0.1v-0.1l0.1-0.1l0,0v-0.1V271l0.1,0.1l0.1,0.1h0.1h0.2l0.1-0.1
	l0.1-0.2l0.1-0.1l0.1,0.2l0.1,0.1l0.1,0.1h0.1v0.1l0,0l0,0l-0.1,0.1h0.1l0.1-0.1h0.1h0.1l0.2,0.1l0.3,0.1l0.1,0.1l0.1,0.1l0.2-0.2
	l0.1,0.1l0.2,0.2l0.1,0.1l0.2,0.1l0.4,0.1l0.2,0.1l0.3,0.2l0.3,0.3l0.2,0.4l0.1,0.1l-0.3,0.2l-0.1,0.2l0.2,0.1l0.1,0.1l0.2,0.4
	l0.1,0.1h0.1h0.4v0.2v0.2l0.1,0.1v0.2l0.3,0.5l0.1,0.6v0.1l0.1,0.1l0.3-0.1l0.1,0.1v0.1v0.1l-0.1,0.1l-0.2,0.2l0.1,0.3l0.4,0.5
	l0.2,0.5v0.1l0.1,0.3v0.1l0.1,0.1l0.6,0.5l0.5,0.1h0.1l0.2,0.1l0.4,0.1l0.2,0.1l0.7,0.7l0.1,0.2l-0.1,0.3l-0.2,0.2l-0.3,0.1h-0.3
	l-0.2-0.1l0,0h0.1l0.1-0.1h0.1v-0.1l-1-0.4l-0.2-0.1l0,0l-0.2-0.4l-0.1-0.1l-0.1-0.1l-0.1-0.1h-0.2l0.1-0.2l-0.2,0.2l-0.2,0.5
	l-0.1,0.5v0.4l0.1,0.4l0.2,0.4l0.6,0.6h0.2l0.6-0.1h0.5l0.4-0.1h0.5h0.2l0.3-0.3h0.1l0.3-0.2l0.2,0.2l0.4,0.1v0.1v0.1h0.1h0.1l0,0
	v-0.1l0.1,0.1h0.1h0.1h0.1v-0.1l0,0l0,0V282l0.1,0.1l0.2,0.1h0.2h0.2l0.2-0.2l0.2-0.1l0.2,0.1h0.1l0.1-0.1v-0.1v-0.1v-0.1h0.1
	l0.5-0.1v0.1l0,0l0,0l0,0l0.2,0.1l0.1-0.2l0.1-0.3l0.1-0.2l0.2-0.1h0.5h0.2v0.1l0,0v0.1h-0.1h-0.1v0.1v0.1h0.1l0.1,0.1l0.1,0.1v0.1
	l0.2-0.1h0.2l0.2,0.2v0.3h0.1v-0.3l-0.2-0.2l-0.2-0.1h-0.3l0.2-0.2l0.2-0.1h0.2v0.2l0.2,0.1l0.2,0.4l0.2,0.2v-0.1l-0.2-0.2l-0.2-0.2
	v-0.3V281l0.2-0.2v-0.1v-0.1l0.1-0.1l0.6-0.6l0.5-0.4v-0.2l-0.1-0.1l-0.2-0.1l-0.1-0.1l0.1-0.3l0.1-0.2v-0.1l-0.1-0.1l-0.1-0.1v-0.3
	v-0.3l0.1-0.2l0.2-0.3l0.1-0.2v-0.7v-0.3l0.4-0.4l0.3-0.6v-0.3v-0.1l0.1-0.1h0.1h0.1l0.1-0.1l0.2-0.3v-0.6l0.2-0.4l0.1-0.5l0.4-0.6
	h0.1v0.2v0.4l-0.1,0.6v0.6h0.1l0.2-4l-0.2-0.3v-0.1l0.2-0.2l0.1-0.4l0.3-2v-0.3l0.1-0.2V266v-0.5v-0.2l0.1-0.4l0.1-1.9h0.2l0.1-0.4
	L193.1,260.4z M185.6,282.6v-0.1l-0.1-0.2l0,0l0,0v0.1L185.6,282.6L185.6,282.6z M181.3,280.7L181.3,280.7l0.2-0.1l-0.1-0.1h-0.1
	l0,0l0,0l0,0L181.3,280.7L181.3,280.7z M181.6,281.1h0.1l0,0V281h0.1h0.1l0,0v-0.1h-0.1h-0.1l0,0v0.1L181.6,281.1z M161,248.6
	L161,248.6l-0.1,0.2L161,248.6L161,248.6L161,248.6z M161.1,248.7L161.1,248.7L161.1,248.7L161.1,248.7z M157.7,289.4L157.7,289.4
	L157.7,289.4L157.7,289.4z M157.1,289.3L157.1,289.3L157.1,289.3L157.1,289.3z M157.8,289.3L157.8,289.3L157.8,289.3L157.8,289.3z
	 M158,289.1L158,289.1L158,289.1L158,289.1L158,289.1L158,289.1L158,289.1L158,289.1z M157.9,289.4L157.9,289.4L157.9,289.4
	L157.9,289.4z"/>
<text transform="matrix(1 0 0 1 70.2936 15.5884)" class="st12 st6 st13">Car Rental Interest</text>
</svg>
