<?xml version="1.0" encoding="utf-8"?>
<!-- Generator: Adobe Illustrator 23.0.1, SVG Export Plug-In . SVG Version: 6.00 Build 0)  -->
<svg version="1.1" id="Layer_1" xmlns="http://www.w3.org/2000/svg" xmlns:xlink="http://www.w3.org/1999/xlink" x="0px" y="0px"
	 viewBox="0 0 300 300" style="enable-background:new 0 0 300 300;" xml:space="preserve">
<style type="text/css">
	.st0{fill:#757575;}
	.st1{font-family:'GoodlifeBrush';}
	.st2{font-size:18px;}
	.st3{font-size:30px;}
	.st4{font-size:15.6px;}
	.st5{fill:none;}
	.st6{opacity:0.2;fill:#8E7890;enable-background:new    ;}
	.st7{fill:#8E7890;}
	.st8{opacity:0.8;fill:#8E7890;enable-background:new    ;}
	.st9{opacity:0.6;fill:#8E7890;enable-background:new    ;}
	.st10{opacity:0.4;fill:#8E7890;enable-background:new    ;}
</style>
<text transform="matrix(1 0 0 1 62.6938 15.9042)" class="st0 st1 st2">Company Rental Interest</text>
<text transform="matrix(1 0 0 1 2.7295 55.3361)" class="st1 st3">1. </text>
<text transform="matrix(1.2345 0 0 1 31.3491 55.3359)" class="st1 st4">Liberia</text>
<rect x="122.9" y="184.3" class="st5" width="78.5" height="59.4"/>
<rect x="135" y="45.9" class="st5" width="139.5" height="37.3"/>
<g>
	<text transform="matrix(1.2345 0 0 1 183.8364 57.1616)" class="st1 st4"> Singapore</text>
</g>
<rect x="201.1" y="225.7" class="st5" width="96.2" height="44.4"/>
<text transform="matrix(1 0 0 1 113.9155 131.6912)" class="st1 st3">3. </text>
<text transform="matrix(1.2345 0 0 1 142.3149 136.5664)" class="st1 st4">Dominica</text>
<g>
	<g>
		<text transform="matrix(1.2345 0 0 1 17.4932 195.3369)" class="st1 st3">4.</text>
	</g>
	<text transform="matrix(1 0 0 1 44.6106 200.8912)" class="st1 st4"> Mauritius</text>
</g>
<g>
	<text transform="matrix(1 0 0 1 212.384 191.6073)" class="st1 st3">5</text>
	<text transform="matrix(1 0 0 1 225.3839 191.6073)" class="st1 st4">.</text>
	<text transform="matrix(1 0 0 1 229.7711 191.7497)" class="st1 st4"> Namibia</text>
</g>
<text transform="matrix(1.2345 0 0 1 155.71 59.4263)" class="st1 st3">2.</text>
<path vector-effect="none" class="st6" d="M288.6,210.5l0.3-0.1h0.2h0.1h0.2l0.3-0.1l0.3-0.1l0.3-0.1l0.3-0.1l0.3-0.1l0.3-0.1
	l0.3-0.1l0.3-0.1l0.3-0.1l0.3-0.1l0.3-0.1l0.3-0.1l0.3-0.1l0.3-0.1l0.3-0.1l0.3-0.1h0.2h0.1h0.1h0.3h0.1h0.1l0.3-0.1h0.1h0.1
	l0.3,0.1h0.2l0.1,0.1h0.2h0.1l0,0h0.1h0.1h0.1h0.1h0.1l0.1-0.1h0.1l0,0l0,0h0.1h0.3l0.6,0.1l0,0l0,0l0,0h0.1h0.2l0.5,0.1l0.2,0.1
	l0.1,0.1l0.1-0.1l0.1,0.1l0.1,0.1l0.1,0.1h0.1h0.1h0.1l0,0v0.1l0,0v0.1l0,0l0,0h0.1l0,0l0.1,0.1l0,0l0.1,0.2l0,0h0.1l0,0l0,0l0,0
	l0.1-0.1l0,0l0.1,0.1l0,0v0.1l0,0l0,0h0.1l0,0l0.1,0.1l0,0h0.1h0.1l0.1,0.1l0.1,0.1v0.1l-0.4-0.1h-0.3l-0.2,0.2l-0.2,0.1h-0.2
	l-0.1-0.1l-0.2,0.1h-0.1l-0.1-0.1h-0.1h-0.1v-0.1h-0.1v-0.1H299l0,0l0,0l-0.1,0.1l0,0l-0.5,0.2h-0.1h-0.1l-0.2,0.1h-0.1l0,0v0.1
	h-0.1h-0.1h-0.1l0,0l0,0l-0.2,0.2l-0.2,0.1l-0.1,0.1l-0.3,0.4l0,0l0,0l-0.1,0.1l0,0h-0.1h-0.3h-0.1l-0.2-0.2v-0.1l0,0l0,0l0,0
	l-0.1-0.2l-0.1-0.1h-0.1h-0.2h-0.1l-0.1,0.1l-0.2,0.3H295h-0.1l-0.1-0.1h-0.1h-0.1h-0.1l-0.2,0.1l-0.3,0.4l-0.2,0.2h-0.2h-0.1
	l-0.2,0.2h-0.1l-0.2,0.1l-0.1,0.1l0,0l0,0l0,0l0,0l0,0l0,0l-0.2,0.2v0.2l-0.1,0.1l-0.2,0.1l-0.1,0.1l-0.1,0.2l-0.1,0.1H292l-0.6,0.7
	l-0.1,0.1h-0.1l-0.2,0.2l0,0l0,0l-0.2,0.1h-0.1l-0.1-0.1l-0.1-0.3l-0.1-0.3l-0.1-0.1l0.1-0.1l-0.1-0.1l-0.2-0.2l0.1-0.1v-0.1
	l-0.1-0.1V213v-0.1H290h-0.1h-0.1v-0.1l-0.1-0.1l-0.1-0.1l-0.1,0.1h-0.1h-0.1l0,0l0,0v-0.1l0,0v-0.1l-0.2-0.2l-0.1-0.2l-0.1-0.1l0,0
	l0,0v-0.2l0,0l0,0l0,0l0,0v-0.1l0,0l0,0h-0.1h-0.2h-0.5h-0.6l-0.8,0.1l-0.6,0.1l-0.6,0.1l-0.6,0.1l-0.6,0.1l-0.6,0.1l-0.6,0.1
	l-0.6,0.1l-0.6,0.1l-0.6,0.1l-0.6,0.1l-0.6,0.1l-0.6,0.1l-0.6,0.1l-0.6,0.1l-0.6,0.1l-0.6,0.1l-0.6,0.1h-0.1h-0.1h-0.1h-0.1H276
	h-0.1h-0.3h-0.3H275h-0.3h-0.4h-0.4h-0.4h-0.4h-0.3v0.2v0.3v0.3v0.3v0.3v0.3v0.3v0.3v0.3v0.3v0.3v0.3v0.3v0.3v0.3v0.3v0.3v0.9v0.9
	v0.9v0.9v0.9v0.9v0.9v0.9v0.9v0.9v0.9v0.9v0.9v0.9v0.9v0.9v0.4v0.4v0.4v0.4v0.4v0.4v0.4v0.4v0.4v0.4v0.4v0.4v0.4v0.4v0.4v0.4v0.3
	l-0.1,0.3h-0.4h-1.5h-1.5h-1.5h-1.5v0.6v1.1v1.1v1.1v1.1v1.2v1.2v1.2v1.2v1.2v1.2v1.2v1.2v1.2v1.2v1.2v1.2v0.1v0.4v0.4v0.4v0.4v0.4
	v0.4v0.4v0.4v0.4v0.4v0.4v0.4v0.4v0.4v0.4v0.4v0.4v0.4v0.4v0.4v0.4v0.4v0.4v0.4v0.4v0.4v0.4v0.4v0.4v0.4v0.4v0.4v0.4v0.4v0.4v0.4
	v0.4v0.4v0.4v0.4v0.4v0.4v0.4v0.4v0.4v0.4v0.4v0.4v0.4v0.4v0.4v0.4v0.4v0.4v0.4v0.4v0.4v0.4v0.4v0.4v0.4v0.4v0.4v0.4v0.3v0.2
	l-0.2,0.1H266h-0.2h-0.1l-0.2,0.1l-0.3,0.3l-0.2,0.1h-0.3l-0.2,0.1l-0.1,0.1l-0.1,0.1h-0.7h-0.1h-0.1l0,0v0.1l-0.1,0.1v0.1l-0.1,0.1
	l0,0h-0.1v0.1l-0.2,0.6l-0.1,0.1l-0.1,0.1l-0.1,0.1l-0.5,0.1H262h-0.1l-0.2-0.1h-0.1l-0.1,0.1l-0.1,0.1l-0.1,0.2v0.2v0.2l0.2,0.4
	v0.1h-0.1h-0.2l0,0l-0.1,0.1l-0.1,0.1l-0.4,0.2l-0.3,0.1H260l-0.1-0.1l0,0h-0.1h-0.2l0,0l-0.1-0.1l-0.2-0.3l-0.1-0.1l-1.4-0.2
	l-1.3,0.2l-0.2,0.1h-0.1l0,0l-0.1-0.1l0,0l0,0H256l0,0h-0.1h-0.1h-0.1l-0.1,0.1h-0.2l-0.3-0.1H255l-0.6,0.1l-0.2,0.1h-0.1l-0.6-0.2
	l-0.3-0.1l-0.4-0.3l-0.2-0.1l-0.2-0.1l-1.1-0.2h-0.2H251l-0.1,0.1h-0.1h-0.1l-0.2-0.1l-0.1-0.1v-0.2v-0.2v-0.2l-0.1-0.1h-0.1
	l-0.1,0.1H250h-0.3l-0.3,0.1h-0.2v-0.2l0.1-0.3v-0.3l-0.1-0.2l-0.2-0.1l-0.1-0.1v-0.2l-0.2-0.2l-0.1-0.1v-0.1l0.1-0.1l0.1-0.1h0.1
	l0.1-0.1l0.1-0.2v-0.2v-0.2v-0.1l-0.1-0.1v-0.1v-0.1v-0.1v-0.1l0,1.7v-0.1v-0.1v-0.1h-0.1h-0.2l-0.4,0.1h-0.2l-0.1-0.2v-0.3v-0.2
	v-0.2l-0.1-0.1l-0.2-0.1l-0.1-0.1l-0.1-0.1l-0.1-0.1l-0.1-0.1h-0.1h-0.1H247h-0.1l-0.2,0.2h-0.2h-0.1l-0.1,0.1h-0.1h-0.1l-0.1-0.1
	h-0.1l0,0l-0.1,0.1l0,0v0.6v0.1l0,0l0,0h-0.1l0,0l0,0l0,0l0,0l0,0l0.1,0.1v0.1h-0.1h-0.1l0,0v0.1v0.1v0.1v0.1v0.1h-0.1h-0.1h-0.1
	h-0.1l-0.1,0.1v0.1v0.2v0.1l0.1,0.2v0.1l-0.1,0.1L245,287v0.1v0.2v0.1l-0.1,0.1l-0.1,0.2l-0.1,0.1h-0.1v-0.1v-0.1v-0.1h-0.1h-0.1
	L244,288l-0.3,0.1l-0.2,0.1l-0.2,0.1l-0.1,0.1l-0.1,0.1l-0.1,0.1l-0.1,0.1h-0.2h-0.1l-0.4-0.3l-0.2-0.2l-0.1-0.1l-0.7-0.7h-0.1H241
	l-0.4-0.5l-0.4-0.5l-0.9-0.6l-0.2-0.2l-0.3-0.4l-0.5-0.4l-0.1-0.1l-0.2-0.3l-0.2-0.2v-0.1V284v-0.2v-0.1l-0.1-0.2l-0.2-0.2l-0.7-0.7
	l-0.1-0.1v-0.2v-0.4v-0.1v-0.1l-0.6-1l-0.1-0.2l-0.1-0.1l-0.1-0.1l-0.1-0.1l-0.2-0.4l-0.3-0.3v-0.1l-0.1-0.6v-0.1v-0.1v-0.1v-0.1
	v-0.3l-0.1-0.5v-0.1l-0.1-0.3v-0.1v-0.2v-0.3v-0.1l-0.1-0.1l0,0h-0.1h-0.1l0,0v-0.1v-0.1l0,0V276v-0.1l-0.2-0.4v-0.1v-0.2l-0.1-0.1
	l-0.1-0.1l-0.1-0.1v-0.2v-0.1l0.1-0.1h0.1h0.1h0.1h0.1v0.1v0.3l0,0v-0.1l0.1-0.4v-0.1v-0.1l-0.1-0.4l-0.1-0.4l-0.2-0.3l-0.2-0.2
	l-0.3-0.2l-0.4-0.2l-0.1-0.1v-0.6v-0.5l-0.1-0.2l0,0V271l0,0h0.1h0.1l0.1-0.2v-0.3l-0.1-0.3l-0.1-0.2l-0.3-0.5v-0.2l0.1-0.3l0,0
	l-0.3-0.4l-0.1-0.2v-0.1v-0.1v-0.1v-0.6v-0.1l0.2-0.4v-0.1v-0.2v-0.1l-0.1-0.1v-0.2V266l-0.2-0.4v-0.3l-0.1-0.3v-0.1l0.2-0.5v-0.1
	l0.1-0.5v-0.3l-0.1-0.3l-0.2-0.5l-0.1-0.3v-0.6l-0.1-0.3l-0.4-0.7l-0.2-0.2l-0.3-0.3l-0.1-0.2l-0.2-0.3v-0.2v-0.1l0.1-0.1l0,0v-0.3
	V259l-0.1-0.3l-0.1-0.4l-0.4-0.7l-0.1-0.5l-0.1-0.2v-0.3v-0.1v-0.1v-0.2V256l-0.1-0.2l0.1-0.1v-0.2v-0.1l0,0h0.1h0.1v-0.1l0.1-0.2
	l-0.1-0.1v-0.4l-0.1-0.3v-0.1l0.1-1v-0.3l-0.3-0.8l-0.1-0.3v-0.1l0.1-0.1l0.2-0.3l0.1-0.1v0.1v0.1l0,0v-0.2v-0.3l-0.1-0.8L230,249
	l-0.1-0.2l-0.1-0.2l-0.1-0.2v-0.2v-0.5v-0.1v-0.1l0.1-0.1v-0.1V247l0,0l0,0l0,0v0.1l0,0v0.1l0,0v0.1v0.1v0.1l0.1-0.1v0.1l-0.1,0.2
	l0.1-0.1l0.1-0.3l0.1-0.1l0.1-0.1v-0.2v-0.3v-1.2l-0.1-0.9l-0.2-0.3l-0.1-0.3l-0.2-0.5l-0.1-0.4l-0.2-0.4v-0.1l-0.4-0.5l-0.1-0.2
	v-0.2v-0.1l-1-1.3l-0.5-0.5l-0.1-0.1l-0.5-0.5l-0.1-0.1v-0.1v-0.1l0,0v-0.2l0,0v-0.1v-0.1l-0.5-0.8l-0.1-0.5l-0.2-0.5l-0.7-0.9
	l-0.4-0.7l-0.4-0.5l-0.6-1.1l-0.3-0.4l-0.1-0.3l-0.1-0.1l-0.2-0.1l-0.1-0.2l-0.1-0.2l-0.1-0.6l-0.2-0.6l-0.6-1.1l-0.2-0.6v-0.3
	l-0.1-0.6l-0.2-0.6l-0.2-0.2l-0.2-0.2l-0.4-0.4l-0.1-0.2l-0.3-0.8l-0.5-1l-0.1-0.2l-0.3-0.4l-0.5-0.9l-0.1-0.2l-0.1-0.1l-0.2-0.3
	l-0.1-0.1l-0.3-0.5l-0.1-0.2v-0.1v-0.3l-0.1-0.1l-0.2-0.3l-0.1-0.2l-0.3-0.8l-0.1-0.2l-0.2-0.2l-0.2-0.2l-0.1-0.1l-0.1-0.5l-0.1-0.1
	l-1.1-1.4l-1-0.8h-0.1l0,0l-0.1-0.2H214h-0.1l-0.4-0.5l-0.1-0.1v-0.1l-0.1-0.2v-0.1v-0.1v-0.1v-0.1l-0.2-0.2l-0.3-0.7l0,0l-0.6-0.7
	l-0.2-0.1l-0.1-0.1v-0.1v-0.2l-0.2-0.4v-0.1V212l-0.1-0.4v-0.9l-0.1-0.3l0.1-0.2V210l-0.1-0.4v-0.5l0.2-1.4l0.1-0.1h0.1l0.1,0.1h0.1
	h0.1l0,0l0,0v-0.1l0.1-0.1l0.3-0.1l0.3-0.2l0.3-0.1l0.3-0.1h0.3l0,0l0,0l0,0h0.1l0.2,0.1h0.1l0,0l0,0h0.1l0,0l0,0v0.1v0.1l0,0h0.1
	h0.1h0.1h0.1v0.1v0.1l0,0h0.5h0.4h0.1l0.1-0.1h0.1l0.2,0.1h0.1h0.4l0.2,0.1h0.1l0.2-0.1l0.3-0.3l0.2-0.1h0.2l0.1-0.1l0.2-0.2
	l0.3-0.1l0.2-0.1v-0.1l0.1-0.1l0.1-0.1h0.1h0.1h0.1v-0.1v-0.1V206h0.2l0.1-0.1h0.2l0.3-0.2l0.7-0.1l0.1-0.1h0.1l0.1,0.1h0.1l0,0v0.1
	h0.1h0.1h0.1h0.1v0.1l0.2-0.1h0.1l0,0l0,0l0.3-0.1h0.1l0.2,0.2h0.1h0.2l0.1,0.1l0.1,0.1l0.1,0.3l0.1,0.1l0.1,0.1l-0.1,0.2l0.6,0.3
	l0.6,0.5l0.6,0.4l0.6,0.3l0.1,0.1l0.3,0.4l0.1,0.1h0.2h0.1l0.1-0.1h0.1h0.1h0.1h0.1h0.1h0.1h0.1l0.1-0.1l0,0h0.3h0.1l0.1-0.1l0,0
	h0.1h0.5h1.7h1.7h1.7h1.7h1.7h1.7h1.7h1.7h1.7h1.7h1.7h1.7h1.7h1.7h1.7h1.7h0.3h0.1l0,0v0.1l0,0l0,0l0.1,0.3v0.1l0,0h0.2l0.2,0.4
	v0.1h0.1l0.3,0.3v0.1v0.1v0.1l0.1,0.1l0.1,0.1h0.1l0.4,0.4l0.1,0.2l0.1,0.1l0.3,0.1l0.6,0.3l0.9,0.2h0.6l0.2-0.1h0.1h0.1h0.2h0.3
	l0.1,0.1l1,0.3h1.1l0.4-0.1h0.2h0.1l0.1,0.1h0.1l0.1,0.1h0.2h0.1l0,0l0.1-0.1l0,0h1l0.2,0.1l0.2,0.1h0.1h0.4h0.2h0.1h0.1v0.1
	l0.1-0.1h0.2h0.2l0.2,0.1l0.2-0.2h0.1h0.1h0.2h0.1l0.3,0.2h0.2l0.2,0.1l0.1,0.1l0.1,0.1l0.1,0.1l0.2,0.1l0.2,0.1h0.1h0.2h0.3h0.2
	l0.1,0.1v0.1h0.1h0.1l0,0v-0.1h0.1l0.2,0.1l0.1,0.1h0.2l0.2-0.1h0.2l0.1-0.2l0.6-0.2l0.6-0.2h0.1h0.1l0.1-0.1h0.1h0.1h0.3h0.1
	l0.3,0.2l0.4,0.1l0.2,0.1l0.1,0.1l0,0h0.1l0.5-0.1l1.6-0.3l1.6-0.3l1.6-0.3l1.6-0.3l1.3-0.3l1.3-0.3l1.3-0.3l1.3-0.3L288.6,210.5"/>
<path vector-effect="non-scaling-stroke" class="st7" d="M59,79l2.3,9.1L60.8,93l-3.4,5.5l3.8,3.6l4.3,0.6l2.4,5.8l4.3,2.6l0,0
	l0.9,6.2l-1.5,7.5l-1,0.6v13l0.5,0.6l-9.6-4.5L50,125.7l-3.3-3.6l-11.9-15.5l-5.7-3.2l-1.9-3.9l-5.7-4.2L18.7,91l4.4-7.4l7.2-8.4
	l1.5-6.8l2.4-1l1-5.8l2.9,1.3l3.8-1.9l3.3,3.2L47,74.5l-1,7.4l1.4-0.3l2.9,3.9l3.4-1l2.9-8.1L59,79z"/>
<path class="st8" d="M192.8,113.1L192.8,113.1L192.8,113.1l-0.1-0.1v0.1l0,0H192.8L192.8,113.1l-0.1,0.1l0.1,0.1h0.1v-0.1
	L192.8,113.1L192.8,113.1z M189.5,108.3l-0.1-0.1l-0.1-0.1V108v-0.1v-0.1v-0.1v-0.1v-0.1v-0.1l0.1-0.1l0.1-0.1v-0.1V107v-0.1
	l-0.1-0.1l-0.1-0.3l-0.1-0.1l-0.1-0.1v-0.1l-0.1-0.1l0,0l-0.1,0.1l-0.2,0.3l-0.2,0.4l-0.2,0.5l-0.2,0.4l-0.1,0.1l-0.1,0.2v0.1v0.1
	v0.1v0.1l0.1,0.5l-0.1,0.1l-0.1,0.1l-0.1,0.1l-0.1,0.1l0,0v-0.1l-0.1-0.1l-0.1-0.1l0,0l-0.1,0.1l0,0l0,0v0.1l0,0l0,0l0,0l0,0l0,0
	l0,0l0,0l0,0l0,0l0,0v0.1v0.1v0.1l0,0v0.1l0.1,0.1v0.1v0.1l0.1,0.1v0.1v0.1l0,0v0.1l0.1,0.2l0.1,0.2l0.1,0.3l0,0l-0.1,0.1l-0.1,0.2
	l-0.1,0.3l-0.1,0.1l-0.1,0.1l-0.3,0.5l-0.3,0.3l-0.1,0.1h-0.1l-0.1-0.1V112l0,0h-0.1v0.1l-0.1,0.1l0.1,0.2l0.1,0.1h0.1l0.1-0.1
	l1.3-1.3l0,0l0.4-0.4l0,0l0.1-0.1l0.3-0.3l0.2-0.2l0.1-0.1v0l-0.1-0.1l0,0l0,0l0,0h-0.1l0.2,0.1v0.1l-0.1,0.1l-0.1,0.1l-0.1,0.1
	l-0.1,0.1l-0.1,0.1l0,0v0.1h-0.1h-0.1h-0.1h-0.1H188h-0.1h-0.1h-0.1l0,0l-0.1-0.1v-0.1v-0.1V110v-0.1v-0.1v-0.1v-0.1v-0.1l0.1-0.1
	l0.2-0.1l0.1-0.1l0.2-0.1l0.1-0.1l0.2-0.1l0.1-0.1l0.1-0.1l0.1-0.1v-0.1L189.5,108.3z M195,115.8L195,115.8h0.1l0,0h0.1h0.1h0.1h0.1
	h0.1h0.1l0.1-0.1h0.2h0.1h0.1l0.1,0.1h0.1l0.1,0.1l0.1,0.1h0.1l0.3-0.1h0.1h0.1h0.3l0.1-0.1l0.1-0.1h0.1h0.1l0.1,0.1l0.1,0.1
	l0.1-0.1l-0.1-0.1l-0.1-0.1v-0.1l-0.1-0.1l-0.1-0.1h-0.1l-0.1-0.1l-0.1-0.1l-0.1-0.1l-0.1-0.1l-0.1-0.1l-0.1-0.1l-0.1-0.1h-0.1
	l-0.1-0.1v-0.1v-0.1l0.1-0.2l0.1-0.1v-0.1v0.1l-0.1-0.1l-0.1,0.1l-0.1,0.1l0,0h-0.1h-0.1h-0.1h-0.1h-0.1h-0.1L196,114h0l-0.1-0.1
	l-0.1-0.1h-0.1h-0.1h-0.1h-0.1h-0.1l0,0h-0.1h-0.1l-0.1,0.1h-0.1h-0.1l0,0h-0.1l-0.1,0.1h0.4h-0.1l-0.1-0.1l-0.1,0.1h-0.1l-0.1,0.1
	h-0.1h-0.1h-0.1h-0.1H194h-0.1l0.1-0.1l0,0l0,0v0.1l-0.1,0.1l-0.1,0.1v0.1l-0.1,0.1l-0.1,0.1l-0.1,0.1l-0.1,0.1l-0.1,0.1l-0.1,0.1
	h-0.1l-0.1,0.1l-0.1,0.1h0.1l-0.1,0.1l-0.1,0.1v0.1v0.1l0.1,0.1h0.1h0.1h0.1h0.1h0.1h0.2h0.1h0.1h0.1h0.1h0.1h0.1l0.2,0.1h0.1v0.1
	h0.2h0.1L195,115.8L195,115.8z M186.2,110.1l0.1-0.1v-0.2c0-0.1,0.1-0.6,0.1-0.6s-0.1,0-0.1,0.1c0,0-0.1,0.1-0.1,0.2
	s-0.1,0.2-0.1,0.3c0,0.1,0,0.3,0,0.4s0.1,0.1,0.1,0.1C186.2,110.1,186.2,110.1,186.2,110.1L186.2,110.1z M183.3,98.2L183.3,98.2
	l-0.1,0.1l-0.1,0.1l-0.1,0.1l-0.1,0.1v0.1l0.1-0.1l0.1-0.1l0.1-0.1L183.3,98.2L183.3,98.2L183.3,98.2L183.3,98.2z M196.9,118.5
	L196.9,118.5l0.1,0.1h0.1h0.1h0.1h0.1l0.1-0.1v-0.1v-0.1v-0.1v-0.1V118v-0.1h-0.1h-0.1h-0.1h-0.1v0.1l-0.1,0.1l-0.1,0.1l0,0l0,0
	v-0.1l-0.1-0.1h-0.1h-0.1h-0.1h-0.1l-0.1-0.1h-0.1h-0.1L196,118h0l-0.1,0.1v0.3v0.1v0.1l-0.1,0.1l-0.1,0.1h-0.1h-0.1h-0.1h-0.1h-0.1
	h-0.1v0.1H195l0,0l0,0h-0.1l-0.1-0.1h-0.2l0,0v0.1l0,0h0.1h0.1l0.1,0.1v0.1v0.1l0.1,0.1v0.1v0.1v0.1v0.1l0.1,0.1v0.1l0,0v0.1l0,0
	l0.1,0.1h0.1l0,0V120l0,0v-0.1l0.1-0.1l0.1-0.1h0.1h0.1h0.1l0.1-0.1l0.1-0.1l0.1-0.1h0.2v-0.1v-0.1l0.1-0.1h0.1h0.1l0.1,0.1h0.1h0.1
	h0.1h0.1h0.1h0.1v-0.1l-0.1-0.1l-0.1-0.1v-0.1l0,0l0.1-0.1v-0.1v-0.1v-0.1l0,0h0.1L196.9,118.5L196.9,118.5L196.9,118.5z
	 M200.6,111.5h-0.1l-0.1-0.1l-0.1-0.1l0,0l0,0v0.1v0.1h0.1l0.1,0.1l0.1,0.1l-0.1,0.1l-0.1,0.1l0.1,0.1l0.1,0.1h0.1V112v-0.1
	L200.6,111.5L200.6,111.5L200.6,111.5z M201,109.9L201,109.9l-0.1-0.1l-0.1-0.1l-0.1-0.1l-0.1-0.1l-0.1-0.1h-0.1h-0.1h-0.1h-0.1H200
	h-0.2h-0.1l0,0h-0.1l-0.1,0.1h-0.1h-0.1l-0.1,0.1h-0.1l-0.1,0.1l-0.1,0.1l-0.1,0.1l-0.1,0.1h-0.1l0,0h0.4h-0.1v0.1v0.1v0.1v0.1v0.1
	l0.1,0.1l0.1,0.1l0.1,0.1l0.1,0.1h0.1l0.1,0.1h0.1h0.3h0.1h0.1h0.1l0.1-0.1h0.1l0.1-0.1l0.1-0.1l0.1-0.1h0.1h0.1l0.1-0.1h0.1h0.1
	h0.1h0.1h0.1v-0.1v-0.1l0.1-0.1L201,109.9z M199.2,120.8L199.2,120.8L199.2,120.8h-0.1l0,0H199h-0.1h-0.1l0,0h-0.1l0,0h-0.1l0,0l0,0
	l0,0l0,0l0,0h-0.1h-0.1h-0.1l0,0l0,0h-0.1h-0.1l0,0H198h-0.1l0,0h-0.1h-0.3h-0.1l-0.1-0.1l-0.1-0.1l-0.1-0.1H197h-0.1h-0.1h-0.1
	h-0.1v0.1l-0.1,0.1h-0.1h-0.1h0.7l-0.1,0.1v0.1v0.1v0.1h-0.1h-0.1l0,0v0.1h0.1h0.1h0.1h0.1h0.1v0.1v0.1v0.1l0,0v0.1v0.1l0.1,0.1v0.1
	v0.1v0.1v0.1l0.1,0.1v0.1l0.1,0.1v0.1v0.1l0.1,0.1h0.1l0,0v0.1l0.1,0.1l0.1,0.1h0.1h0.1h0.1l0,0l0,0h0.1l0,0h0.1l0.1,0.1h0.1
	l0.1,0.1h0.1h0.1h0.1h0.1l0,0l0,0h0.1l0.1-0.1v-0.1V123v-0.1v-0.1v-0.1V122l0,0v-0.1v-0.1v-0.1v-0.1l0,0v-0.1v-0.1v-0.1v-0.1l0,0
	l0,0l0,0l0,0h0.1l0,0l0,0h0.1l0,0l0,0l0,0l0,0l0.1-0.1V121l0,0L199.2,120.8L199.2,120.8z M201,111.3L201,111.3L201,111.3L201,111.3z
	 M222.7,75.2l0.2,0.1l0.3,0.2l0.4,0.3l0.3,0.3l0.3,0.2l0.3,0.2l0.3,0.1l0.4,0.1l0.1-0.3l0.4-0.5l0.5-0.7v-0.1l-0.3-0.2l-0.3-0.2
	l-0.5-0.3l-0.5-0.3l-0.4-0.1l-0.5,0.1l-0.3,0.2l-0.1,0.1l-0.4,0.2l-0.2,0.1V75V75.2L222.7,75.2z M238.1,79.8L238.1,79.8l-0.1-0.2
	l-0.1-0.1l-0.1-0.1h-0.1l-0.1-0.1h-0.1l-0.1-0.1h-0.1l-0.1-0.1l-0.1-0.1l-0.1-0.1l-0.1-0.1v-0.1v-0.1l-0.1-0.1v-0.1h0.2l-0.1-0.1
	h-0.1l-0.1-0.1h-0.1v0.1l-0.1,0.1v0.1l0.1,0.1l0.1,0.1l0.1,0.1l0.1,0.1L237,79l0.1,0.1l0.1,0.1l0.1,0.1l0.1,0.1l0.1,0.1l0.1,0.1
	l0.1,0.1l0.1,0.1l0.1,0.1L238,80l0.1,0.1l0.1,0.1h0.1v-0.1l-0.1-0.1L238.1,79.8z M231.1,77.1L231.1,77.1l0.1,0.1h0.1l0.1,0.1
	l0.1,0.1h0.1l0.1,0.1l0.1,0.1l0.1,0.1l0.1,0.1l0.1,0.1l0.1,0.1l0.1,0.1l0.1,0.1l0.1,0.1l0.1,0.1l0.1,0.1l0.1,0.1l0.1,0.1v0.1
	l-0.1,0.1l-0.1,0.1v0h0.1h0.1v-0.1l0.1-0.1l0.1-0.1h0.1l0.1,0.1l0.1,0.1l0.1,0.1l0.1,0.1l0.2,0.2l0.1,0.1h0.1h0.1v-0.1l-0.1-0.1
	l-0.1-0.2l-0.1-0.1l-0.1-0.1l-0.1-0.1l-0.1-0.1l-0.1-0.1l-0.1-0.1l-0.1-0.1l-0.1-0.1l-0.1-0.1l-0.1-0.1l-0.1-0.1l-0.1-0.1l-0.1-0.1
	l-0.1-0.1l-0.2-0.1l-0.3-0.1l-0.1-0.1l-0.1-0.1l-0.1-0.2l-0.1-0.1l-0.1-0.1L231,77h-0.1v0.2L231.1,77.1z M244.2,79.1L244.2,79.1
	L244.2,79.1h0.2l0.1-0.1l0.1-0.1l-0.1-0.1h-0.1h-0.1h-0.1h-0.1l0,0l0,0V79v0.1H244.2z M233.2,76l0.1,0.1v0.1l0.1,0.1l0.1,0.1
	l0.1,0.2l0.1,0.1l0.1,0.1l0.1-0.1l0.2-0.1l0.2,0.1v0.1l0.1,0.2l0.1,0.1l0.1,0.1h0.1l0.1,0.1l0.1,0.1h0.1l0.1-0.1l0.1,0.1l0.1,0.1
	h0.1l0.1,0.1l0.1,0.1l0.1,0.1l0.1,0.1L236,78l0.2,0.1l0.3,0.1l0.1,0.1l0.1,0.1l0.1-0.1l0.1,0.1h0.1l0.1,0.1l0.1,0.1h0.1v0.1l0.1,0.1
	l0.1,0.1l0.1,0.2l0.1,0.2h0.3l0.1-0.1v-0.1L238,79v-0.1v-0.1l0.1-0.1h0.1l0.1,0.1l0.1,0.1h-0.1l-0.1-0.1l-0.1-0.1l-0.1,0.1v0.1
	l0.1,0.1v0.1v0.2l0.1,0.1l0.1,0.1V79l0.1,0.1l0.1,0.2l0.1,0.1h0.1v-0.1l0.1-0.1l0.1,0.1v0.1v0.1h0.1l0.1-0.1l0.1-0.1l0.1-0.1
	l0.1-0.1l0.1-0.1h0.1h0.1v-0.1v-0.1l0.1-0.1h0.1v0.1V79l-0.1,0.1l-0.1,0.1h-0.1l-0.1-0.1l0,0l-0.1,0.1l-0.1,0.1v0.1l0.1,0.2
	l-0.1,0.1l-0.1-0.1l-0.1-0.1H239l-0.1,0.1l-0.1,0.2l0.1,0.1h0.1h0.1l0.3,0.1h0.2l0.2-0.1l0.2-0.1h0.1l0.1-0.1l0.1-0.1h0.3l0.2,0.1
	l0.1-0.1l0.1-0.1h0.2l0.1,0.1l0.2-0.1l0.1-0.1l0.1-0.1l0.1-0.1V79l-0.1-0.1l-0.1-0.1v-0.1l0.1-0.1h0.1l0.1,0.1h0.3l0.1-0.1l0.1-0.1
	v-0.1v-0.1l0.1-0.1l0.1,0.1l0.1,0.1l0.1,0.1l0.1-0.1l0.1-0.1v-0.1v-0.1V78h0.1v0.1l0.1,0.1h0.1l0,0l0,0l0.1,0.1l0.3,0.1l0.1-0.1h0.1
	v0.1l0.1,0.1l0.2-0.1l0.1-0.1l0.1-0.1h0.1h0.2l0.1-0.1l0.1-0.1h0.2h0.3v-0.1l-0.1-0.1h-0.1h-0.1l-0.1-0.1v-0.3l0.2-0.2v-0.1
	l-0.1-0.1l0.1-0.1V77l-0.1-0.1l-0.2-0.1l-0.1-0.1l-0.1-0.1h-0.1H244l-0.1,0.1l-0.2-0.1h-0.1l-0.1,0.1l0,0l-0.1-0.1l-0.3,0.1
	l-0.1-0.1l-0.2,0.1l-0.1,0.1l-0.2,0.1l-0.2-0.1l-0.1-0.1l-0.1-0.1h-0.2l-0.1,0.2l-0.1-0.1l-0.1-0.1l-0.2-0.1l-0.2-0.1l-0.2-0.1
	l-0.1,0.1l-0.4,0.1l-0.2,0.1l-0.1,0.1l-0.1,0.1l-0.1-0.1l-0.2,0.1l-0.1,0.1l-0.2,0.1l-0.1-0.1l-0.1,0.1l-0.2,0.1H239h-0.1l-0.1-0.1
	l-0.2,0.1h-0.1l-0.1-0.1l-0.1-0.1h-0.1l-0.1,0.1l-0.1-0.1h-0.1l-0.3-0.1l-0.2-0.1l-0.1-0.2l-0.1-0.1l-0.1-0.1l-0.2-0.2l-0.2-0.1
	h-0.2h-0.3l-0.2-0.1l-0.2-0.1h-0.3l-0.1-0.2l-0.3-0.1l-0.5-0.1l-0.1-0.1l-0.2,0.1l-0.1,0.3h-0.3l-0.1,0.2l-0.1,0.1l-0.4,0.1
	l-0.1,0.1v0.2l0.1,0.1L233.2,76L233.2,76z M249.4,77.5l0.1,0.1l0.2,0.1h0.3l0.1,0.1l0.1,0.1l0.2-0.1h0.2l0.1-0.1l0.1-0.1l0.1-0.2
	l0.1-0.1h0.2h0.2l0.2-0.1v-0.1l-0.1-0.1l-0.1-0.2l-0.1-0.2l-0.2-0.3l-0.2-0.1l-0.2-0.1l-0.1-0.1h-0.2l-0.1-0.2l-0.1-0.1l-0.1-0.1
	l-0.1,0.1V76l-0.1,0.2l-0.1,0.1l-0.1,0.1l-0.1,0.1l-0.1,0.2v0.2l-0.1,0.1l-0.1,0.1l-0.1,0.1l-0.1,0.1L249.4,77.5L249.4,77.5z
	 M201.1,111.5l-0.1-0.1l0,0l0,0v0.1H201.1l-0.1,0.1l0.1,0.1l0.1,0.1v0.2v0.1l0,0h0.1v-0.2l0.1-0.1l-0.1-0.1L201.1,111.5z
	 M220.5,70.9l0.1,0.1l0.1,0.1l0.1,0.1v0.1l0.1,0.1v0.1v0.1v0.1v0.1L221,72l0.1,0.1h0.1v0.1v0.1l0.1,0.1l0.1,0.1l0.1,0.1l0.1,0.1
	l0.1,0.1l0.1,0.1h0.1l0.1-0.1v-0.1l-0.1-0.1l-0.1-0.1v-0.1l-0.1-0.1v-0.1h-0.1l-0.1-0.1l-0.1-0.1l-0.1-0.1l-0.1-0.1h-0.1l-0.1-0.1
	v-0.1v-0.1l-0.1-0.1l-0.1-0.1l-0.1-0.1l-0.1-0.1L220.5,70.9h-0.1H220.5l-0.1-0.1v0.1H220.5z M195.8,70.9L195.8,70.9L195.8,70.9
	L195.8,70.9z M225.2,76.7l0.2,0.1h0.1h0.1h0.1L226,77h0.1l0.3,0.1l0.7,0.1l0.3,0.1l0.2-0.2l0.1-0.3l0.1-0.1l-0.1-0.2l-0.1-0.2
	l-0.5-0.3l-0.3-0.2l-0.4-0.2l-0.3-0.2L225.2,76.7L225.2,76.7z M195.9,71L195.9,71l0.1,0.1l0.2-0.1l0.2-0.1l0.1-0.1l0.1-0.1v-0.1
	l-0.1-0.1h-0.1h-0.2h-0.1l-0.1,0.1l-0.1,0.1L195.9,71L195.9,71L195.9,71z M221.3,112.1L221.3,112.1l-0.1-0.2l-0.1-0.1H221h-0.1
	l-0.1-0.1h-0.1l-0.1,0.1v0.1l0.1,0.1l0.1,0.1l0.1,0.1l0.1,0.1l0.1,0.1l0.1,0.1l0.1,0.1h0.1v0.1l0.1,0.1l0.1-0.1v-0.1L221.3,112.1z
	 M197.4,90.9L197.4,90.9l-0.1-0.1l-0.1-0.1l-0.1-0.1H197h0l0,0h-0.1h-0.1l-0.1,0.1l-0.1,0.1h-0.1v0.1V91l0,0l0,0l0.1,0.1l0.1,0.1
	h0.1v-0.1l-0.1-0.1l0,0h0.1h0.2h0.1l0.1-0.1v-0.1L197.4,90.9L197.4,90.9L197.4,90.9L197.4,90.9L197.4,90.9L197.4,90.9l0.3,0.2h0.1
	V91l-0.1-0.1l-0.1-0.1L197.4,90.9L197.4,90.9L197.4,90.9z M197,91.8L197,91.8h0.1h0.1l0.1,0.1l0.1,0.1l0.1,0.1h0.1h0.1V92l0,0
	l-0.1-0.1l-0.1-0.1l-0.1-0.1l-0.1-0.1l-0.2-0.1H197h-0.1l-0.1,0.1l-0.1,0.1v0.1v0.1V92v0.1L197,91.8L197,91.8z M253.5,87.7l-0.4-0.3
	l-0.5-0.3h-0.2l-0.4-0.3l-0.6-0.3l-0.5-0.2l-0.3-0.1l-0.3-0.1l-0.1,0.1h-0.3l-0.3-0.1l-0.3-0.2l0.1-0.1l0.1-0.1l-0.1-0.1h-0.3
	l-0.1,0.2l-0.1,0.2l-0.5-0.1l-0.5-0.2v-0.1l-0.1-0.1l0.1-0.1l0.1-0.1l0-0.3h0.3v-0.2h-0.1H248l-0.1-0.1l-0.1-0.2l-0.1-0.3l-0.1-0.1
	l-0.1-0.3l0,0v-0.2v-0.1v-0.1v-0.1l-0.1-0.1l-0.1-0.1l-0.1-0.1l-0.1-0.1l-0.1-0.1l-0.1-0.1h-0.2l-0.1-0.1l-0.1-0.1v-0.1l-0.1-0.1
	l-0.1-0.1l-0.1-0.1l-0.1-0.1l-0.1-0.1l-0.1-0.1h-0.1l0,0l-0.1-0.1h-0.1h-0.1h-0.1l-0.1-0.1h-0.1l-0.1-0.1l-0.2-0.1l-0.3-0.1
	l-0.1-0.1l-0.1-0.1l-0.1-0.1l-0.1-0.1l-0.1-0.1l-0.1-0.1l-0.1-0.1h0.1l-0.1,0.1v0.1v0.1h0.1h0.1h0.1l0.1,0.1v0.1l0.1,0.1v0.1h0.1
	h0.1h0.1h0.1h0.1v0.1l0,0h0.1l0.1-0.1l0,0l0,0h0.1h0.1l0.1,0.1v0.1v0.1v0.1V82l0.1,0.1h0.1h-0.1l0,0l0,0h-0.1L245,82l-0.1-0.1v-0.1
	v-0.1l-0.1-0.1l-0.1-0.1h-0.1h-0.1l0,0l0,0h-0.1l-0.1-0.1l-0.1-0.1l-0.1-0.1v-0.1L244,81v0.1l-0.1-0.1l-0.1-0.1l-0.1-0.1l-0.1-0.1
	h-0.1h-0.1l0,0l0,0h-0.1h-0.1h-0.1H243h-0.1h-0.1l-0.1,0.1l-0.1,0.1h-0.1l0,0l0,0h-0.1l0,0l0,0l0,0h-0.1h-0.1h-0.1H242h-0.1h-0.1
	l0,0l0,0h-0.1h-0.1l-0.1,0.1h-0.1h-0.1l-0.1,0.1l-0.1,0.1l-0.1,0.1l0,0h-0.1h-0.1h-0.1l-0.1,0.1v0.1v0.1v0.1l-0.1,0.1h-0.1h-0.1l0,0
	l0,0h0.1h0.1l0,0l0,0h0.1l0,0h0.1l0,0V82l0.1,0.1l0.1,0.1h0.1h0.1h0.1h0.1v0.1h0.7h-0.1h-0.1h-0.1l0,0h-0.1l0,0v-0.1V82l0,0h-0.1
	l0,0l0,0h-0.1h-0.1l0,0l0,0l0,0h-0.1l0,0l0,0l-0.1,0.1l0,0l0,0L241,82h-0.1l0.1,0.1l-0.1,0.1l0,0l0,0l-0.1-0.1l0,0l0.1,0.1l-0.1,0.1
	l-0.1,0.1l-0.1,0.1l0,0l0,0h-0.1l0,0l0,0h0.1l0,0l-0.1,0.1l-0.1,0.1l0,0l0,0h-0.1l-0.1-0.1l0,0v0.1l0.1,0.1v0.1l-0.1,0.1h-0.1l0,0
	l0,0l-0.1-0.1l-0.1-0.1v-0.1v-0.1v-0.1v-0.1l-0.1-0.1l0,0v0.1v0.1v0.1v0.1h-0.1l-0.1,0.1v0.1h0.1h0.1h0.1l0,0l0,0l0,0V83l0.1,0.1
	h0.1l0,0V83l0.1,0.1v0.1v0.1v0.1h-0.1H240l0,0l0,0l0,0l0,0l0,0v0.1l0.1,0.1l-0.1,0.1l-0.1,0.1l-0.1,0.1l-0.1,0.1l-0.1,0.1v0.2v0.1
	l-0.1,0.1l0,0l0,0l0.1-0.1v-0.3V84l0.1-0.1l0.1-0.1v-0.2l-0.1-0.1l-0.1-0.1h-0.1h-0.1h-0.1h-0.1h0.8l0,0h-0.1h-0.1h-0.1h-0.1h-0.1
	h-0.1l0,0h-0.1l0,0l0,0h-0.1h-0.1l0,0H239h-0.1l0,0l0,0h0.1h-0.2h-0.1h-0.1h-0.1h-0.1l0,0l0,0h-0.1h-0.1l-0.1,0.1l-0.1,0.1l-0.1,0.1
	l-0.1,0.1l0,0l0,0h-0.1l0.1-0.2v-0.1h-0.1l-0.1-0.1l-0.2-0.1l-0.2-0.1l-0.1-0.1L237,83l0,0l0,0l-0.1-0.1l-0.2-0.1l-0.3-0.1l-0.1-0.1
	l-0.1-0.1v-0.1l0,0l-0.1-0.1l-0.1-0.1l-0.1-0.1l-0.1-0.1l-0.2-0.1l-0.1-0.1l0,0l-0.1-0.1l-0.2-0.1l-0.1-0.1v-0.1l-0.1-0.1l-0.1-0.1
	l-0.1-0.2l-0.1-0.1v-0.1l-0.1-0.2l-0.1-0.1l-0.1-0.3l-0.2-0.1L234,80l-0.3-0.1h-0.1l-0.3,0.1l-0.5,0.3l-0.1,0.1h-0.1l-0.1,0.1v0.1
	l-0.3,0.1L232,81l-0.1,0.1l0.1,0.1l0.1,0.1l0.1,0.1v0.1l0,0l0,0l-0.1-0.1l-0.1-0.1l-0.1-0.1l-0.1-0.1l-0.2,0.2l-0.2,0.2l-0.2,0.3
	l-0.1,0.3l-0.2,0.3l-0.2,0.1l-0.3,0.1l0,0l0,0h-0.2h-0.3h-0.3l-0.3,0.1l-0.1,0.1l-0.1,0.2v0.3v0.1v0.1H229l-0.1,0.1l-0.1,0.1
	l-0.1,0.1V84h0.1l0.1-0.1l0,0l0,0h0.3h0.1l0.1,0.1h0.2v0.1v0.1v0.1h-0.1l0,0l0,0l-0.1-0.1l-0.1-0.1l-0.1-0.1h-0.1l-0.1,0.1v0.1
	l-0.1,0.1l-0.1,0.2l-0.1,0.1l-0.1,0.1l-0.1,0.1l-0.1,0.1l-0.2,0.2l-0.1,0.1l-0.1,0.2l-0.1,0.3v0.1v0.1L228,86h-0.1l-0.1,0.1
	l-0.2,0.2l-0.1,0.1l-0.1,0.1l-0.1,0.1v0.1l-0.1,0.1l0,0l0,0v-0.1v-0.1l0.1-0.2l0.1-0.1l0.2-0.2l0.1-0.1l0.1-0.2v-0.2l0.1-0.1
	l0.1-0.1l0.2-0.3l0.1-0.1l0.1-0.1l0.1-0.1l0.1-0.1l0.1-0.1v-0.1l-0.1-0.1l-0.1-0.1h-0.1h-0.1l0,0l0,0h-0.1v-0.1v-0.1l-0.1-0.1
	l0.1-0.1l0.1-0.1v-0.1h-0.1l-0.4,0.1h-0.3h-0.2l0,0l0,0v-0.1l0.3-0.1l0.8-0.1h0.1l0.1-0.1v-0.1l-0.1-0.2l-0.1-0.2l-0.1-0.1v-0.1
	l0.1-0.1l0.1-0.1l0,0l0,0l0.1,0.1h0.1l0.1-0.1l0.1-0.1h0.1l0.1-0.1l0,0l0,0h0.1l0.1,0.1l0.1,0.1l0.1-0.1h0.1l0.2,0.1l0.3,0.1h0.2
	l0.1-0.1l0.1-0.1l0.1-0.1l0.1-0.3l0.1-0.3l0.1-0.1l0.2-0.2l0.2-0.2l0.1-0.1l0.1-0.1l0.1-0.2l0.1-0.1v-0.3v-0.1l0.1-0.1l0.1-0.1h0.1
	l0.1-0.1v-0.1l0.1-0.1v-0.1H232l-0.1-0.1l-0.1-0.1l-0.1-0.1v-0.1l-0.1-0.1h-0.1h0.1l0,0l0,0l0,0l-0.2-0.3l-0.1-0.2l-0.1-0.1
	l-0.1-0.1l-0.1-0.1l-0.1-0.1v-0.1v-0.1l-0.1-0.1l-0.1-0.2l-0.1-0.2l-0.1-0.3l0.1-0.2l0.1-0.1v-0.1l-0.1-0.1v-0.1l0.1-0.1l-0.1-0.1
	l-0.1-0.1l-0.1-0.1l-0.1-0.1l-0.1-0.1l0.1-0.1v-0.1l0.1-0.1v-0.1l-0.1-0.1h-0.1h-0.1H230l-0.1,0.1l-0.1,0.1h-0.1l0,0l0,0l-0.1-0.1
	h-0.1h-0.1l-0.1,0.1l-0.1,0.1l-0.1,0.1v0.1h-0.3h-0.5l-0.3,0.1l-0.2,0.1l-0.1,0.1l-0.1,0.3l-0.1,0.3l-0.2,0.4l-0.1,0.3l-0.1,0.2
	L227,78v0.1l0.1,0.1v0.1l-0.1,0.1l-0.1,0.1l-0.1,0.2l-0.1,0.1l-0.1,0.1l-0.1,0.1v0.1l0.1,0.1v0.1h-0.1l0,0l0,0l-0.1-0.1l-0.1-0.1
	h-0.1l0,0l0,0h-0.1H226h-0.1h-0.1l-0.1,0.1l0,0l0,0h0.3v0.1v0.1h0.1v0.1l0,0H226v0.1h0.1h0.1v0.1l-0.1,0.1l-0.1,0.1v0.5l0,0v0.1l0,0
	l-0.1,0.1v0.1l0.1,0.1l0.1,0.1L226,81l0,0l0,0h-0.1l-0.1-0.1l0,0l0.1,0.1v0.1h-0.1l-0.1,0.1l0,0l0,0h-0.1l-0.1-0.1l-0.1,0.1
	l-0.1,0.1h-0.1l0,0l-0.2,0.1l-0.1,0.1v0.1v0.1l-0.1,0.1l-0.1,0.1l0,0l0,0l-0.1-0.1l0.1-0.1l0.1-0.2v-0.1v-0.1v-0.1l0.1-0.1L225,81
	h0.1v-0.1l0.1-0.1l0.1-0.2l0.1-0.3v-0.2l-0.1-0.1v-0.1l0.1-0.1l0.1-0.1l0.1-0.1l0.1-0.1v-0.1v-0.1v-0.1l0.1-0.1h0.1L226,79l0.1-0.1
	l0.1-0.1l0.1-0.1l0.1-0.1l0.1-0.1l0.1-0.1h0.1l0.2-0.1l0.1-0.1l0.1-0.1l0.2-0.3l0.1-0.1l0.1-0.2v-0.2l-0.1-0.1l-0.1-0.1h-0.2
	l-0.3-0.1h-0.3l-0.3-0.1l-0.2-0.1l0,0.2l-0.1-0.1l-0.2-0.1l-0.1-0.1h-0.2H225l-0.1,0.1h-0.1v0.1V77l0,0h-0.1l0,0l0,0l-0.1-0.1
	l-0.1-0.1l-0.1-0.1l-0.1-0.1v-0.1l-0.1,0.1l0,0l0,0l-0.1-0.1l-0.1-0.1l-0.3-0.3l-0.1-0.1v-0.1v-0.1l-0.1-0.1h-0.1l-0.1,0.3l-0.1,0.1
	h-0.1l0.1-0.1l0.1-0.2l-0.1-0.2l-0.1-0.1l-0.3-0.1l-0.1-0.1h-0.3h-0.1l-0.1-0.1h-0.1l-0.2,0.1l-0.2,0.1l-0.2,0.1l-0.1,0.1l-0.1,0.1
	v0.1l-1.1-0.5v-0.1l0.1-0.1l0.1-0.1l0.1-0.1l0,0l0.1-0.1h0.1l0,0l0.1-0.1v-0.1l0.1-0.1h0.1h0.1v-0.2v-0.1H221v-0.1h0.2V74h0.1v0
	l0.1-0.1l0.1-0.1v-0.1l0.1-0.3l-0.1-0.1l-0.1-0.1l-0.2-0.3l-0.1-0.1l-0.1-0.1v-0.1l-0.1-0.1l-0.1-0.1h-0.1v-0.1l-0.1-0.1l-0.1-0.1
	l-0.1-0.1l-0.1-0.1h-0.1h-0.1H220h-0.1l-0.1,0.1v0.1h-0.1v0.1l-0.1,0.1l-0.1,0.1h-0.1l-0.1,0.1l-0.1,0.1h-0.1l-0.1,0.1h-0.1
	l-0.1,0.1l0,0l0,0l-0.1-0.1l0,0l0.1-0.1l0.1-0.1l0.1-0.1l0.1-0.1l0.1-0.1l0.1-0.1l0.1-0.1l0.1-0.1l0.1-0.1v-0.1l0.1-0.1l0.1-0.1
	l-0.1-0.2l-0.1-0.2l-0.1-0.3l-0.1-0.2l-0.2-0.1h-0.1l-0.2,0.1l-0.2,0.1l-0.1,0.1l0,0l0,0h-0.1h-0.1l0,0l0,0h-0.1h-0.1h0.8l0,0l0,0
	l-0.1-0.1h-0.1V71l0.1,0.1l0.1,0.1l-0.1,0.1l0,0l0,0l-0.1-0.1l-0.1-0.1h-0.1l-0.1-0.1v-0.1v-0.3l-0.1-0.6v-0.1h0.1l0,0l0,0l0.1,0.6
	v0.1l0,0l0.1,0.1h0.1h0.1h0.1l0.1-0.1l0.1-0.1l0.1-0.1l0.1-0.1h0.1h0.1v-0.1v-0.1l-0.1-0.1v-0.1l-0.1-0.2l-0.2-0.1v-0.1l-0.1-0.1
	l-0.3-0.1l-0.2-0.1l-0.3-0.1l-0.1-0.1l-0.4-0.3l-0.2-0.1h-0.2l0,0l0,0h-0.1v-0.3l-0.2-0.1l-0.1-0.1l-0.2-0.1l-0.5,0.1L216,69l0,0
	l0,0l-0.1-0.1l-0.1-0.1l0.4-0.8l-1.2-0.7l-0.3,0.5l-0.2,0.4l0,0l0,0l-0.2-0.1l0.1-0.3l-0.1-0.1h-0.1h-0.1l0,0l0,0H214l-0.1-0.1h-0.1
	h-0.1l-0.1,0.1l-0.1,0.1l-0.1,0.1l-0.1,0.1l-0.1,0.1l-0.3,0.1l0,0l0,0v-0.1l0.2-0.3l0.1-0.2l0.1-0.1l0.1-0.1l0.1-0.1h0.2l0.1-0.1
	v-0.1V67v-0.1h-0.1l-0.1-0.1l-0.2-0.1l-0.1-0.1h-0.1h-0.1l-0.1-0.1l0,0.5h-0.1h-0.2l0,0l0,0h-0.2l-0.1,0.1h-0.2H212l0,0l0,0h-0.1
	h-0.1l0,0l0,0h-0.1l-0.2-0.1h-0.2l-0.1,0.1h-0.1l-0.1,0.1l-0.1,0.1h-0.1h-0.1l-0.1,0.1h-0.1h-0.1l-0.1,0.1l-0.1,0.1l-0.1,0.1
	l-0.1,0.1l0,0l0,0h-0.1h-0.1l-0.1,0.1l-0.1,0.1l-0.1,0.1l-0.1,0.1l-0.1,0.1l-0.1,0.1l-0.1,0.1l-0.1,0.1l-0.1,0.1l-0.1,0.1l-0.1,0.1
	l-0.1,0.1l-0.1,0.1l-0.1,0.1l-0.1,0.1l-0.1,0.1l-0.1,0.1H208l-0.1,0.1l-0.1,0.1l-0.1,0.1h-0.1l-0.1,0.1l-0.1,0.1l-0.1,0.1v0.1
	l-0.1,0.1l-0.1,0.1v0.1l-0.1,0.1v0.1l-0.1,0.1l-0.1,0.1l-0.1,0.1l-0.1,0.1l-0.1,0.1l-0.1,0.1v0.1h-0.1v0.1h-0.1l-0.1,0.1H206
	l-0.1,0.1h-0.1l0,0l0,0h-0.1l-0.1,0.1h-0.1l-0.1,0.1h-0.1l-0.1,0.1l-0.1,0.1l-0.1,0.1l-0.1,0.1l-0.1,0.1l-0.1,0.1l-0.1,0.1l-0.1,0.1
	h-0.1v0.1l0,0l0,0l0,0l0,0v0.1h0.1V73l-0.1,0.1v0.1l0,0l0,0l-0.1-0.1h-0.1V73l-0.1-0.1H204l-0.1,0.1h-0.1v0.1l0,0l0,0h-0.1l-0.1,0.1
	l-0.1,0.1V72l0,0v0.1l-0.1,0.1v0.1l-0.1,0.1v0.3l-0.1,0.1l-0.1,0.1H203l-0.1,0.1l0,0l0,0v-0.1l-0.1-0.1h-0.1h-0.1l0,0l0,0h0.4h-0.4
	h-0.3l-0.1,0.1L202,73l-0.1,0.1v0.1V73v0.2l0,0l0,0l-0.1-0.1l-0.1-0.1l-0.1-0.1h-0.1l-0.1,0.1h-0.1l0,0l0,0h-0.1h-0.1H201l0,0l0,0
	l-0.1-0.1l-0.1-0.1l-0.2-0.1l-0.1-0.1l-0.1-0.1l-0.2-0.1h-0.3l-0.1,0.2l0.1,0.1L200,73l0.1,0.1v0.1l0.3,0.3l0.1,0.3l0.1,0.1l0.1,0.3
	l-0.1,0.2l-0.1,0.1l-0.2,0.1l-0.1,0.1l-0.1,0.2l-0.1,0.2l-0.2,0.3l-0.1,0.1l-0.1,0.1l-0.1,0.1v0.2V76l-0.1,0.1h-0.1l-0.1,0.1
	l-0.1,0.1H199l-0.1,0.1l-0.1,0.1l0,0l0,0l-0.1-0.1h-0.1l-0.1,0.1v0.1l-0.1,0.1h-0.1v0.1h-0.1l0,0l-0.1,0.1L198,77l-0.1,0.1l-0.1,0.1
	v0.1h-0.1v0.1h0.3l0,0l0,0l-0.1-0.1h-0.1v0.1h-0.1v0.1l0,0v0.1l-0.1,0.1l-0.1,0.1h-0.1V78l0.1,0.1h0.1h0.1l0.1,0.1l-0.1,0.1
	l-0.1,0.1v0.1l0.1,0.1h0.1l0.1,0.1h0.1l0.1,0.1l0.1,0.1l0.1,0.1l0.1,0.1h0.1l0.1,0.1l0.1,0.1h0.2l0.1,0.1h0.1V79l-0.1,0.1v0.1v0.1
	l0.1,0.1l0.1,0.1l0.1,0.1l0.1,0.1l0.1,0.1v0.1V80l0.1,0.1l0,0v0.1l-0.1,0.1l-0.1,0.1l-0.1,0.1v0.1v0.1l-0.1,0.1v0.1l-0.1,0.1v0.2
	l-0.1,0.1v0.2l0,0l0,0l0,0v-0.1v-0.1V81v-0.1v-0.1v-0.1l0.1-0.1v-0.1l-0.1-0.1v-0.3l0,0V80v0h-0.1l-0.1-0.1v-0.1v-0.1V80l-0.1-0.1
	l-0.1-0.1v-0.1l-0.1-0.1v-0.1v-0.1l-0.1-0.1l-0.1-0.1v-0.1l-0.1-0.1h-0.1H198l-0.1-0.1l-0.1-0.1h-0.1l0,0l0,0v-0.1v-0.1l-0.1-0.1
	h-0.1l-0.1,0.1l-0.1,0.1l-0.1,0.1l-0.1,0.1L197,79v0.1v0.2V80v0.1v0.1v0.2l-0.1,0.1l-0.1,0.1h-0.1v0.2h-0.1l-0.1,0.1V81l-0.1,0.1
	h-0.1l0,0l-0.1,0.1h-0.1l-0.1,0.1l-0.1,0.1l-0.1,0.1l0,0l0,0h-0.1l-0.1,0.1h-0.1l0,0l0,0l-0.1-0.1h-0.1v-0.2h0.1l0.1,0.1h0.1v-0.1
	h0.1h0.1V81l0.1-0.1l0.1-0.1h0.1l0.1-0.1l0.1-0.1l0.1-0.1l0.1-0.3v-0.1l-0.1,0.1l-0.1,0.1h-0.2l0,0l0,0l-0.2-0.1l-0.1-0.1h0.1l0,0
	h0.1l0.1-0.1l0.1-0.1l0.1-0.1l0.1-0.1v-0.1l-0.1-0.1l-0.1-0.1l0,0l0.1-0.1v-0.1l-0.1-0.1V79l0.1-0.1l0.1-0.1v-0.3l-0.1-0.3l-0.1-0.1
	l-0.1-0.1H196l-0.1,0.1v0.1l-0.1,0.1l0,0l0,0l0.1-0.2v-0.2l-0.1-0.1l-0.1,0.1l-0.1,0.1h-0.9l-0.1-0.1h0.4l-0.1,0.1l-0.1,0.1l0,0l0,0
	h-0.1h-0.1l0,0l0,0l-0.1-0.1v-0.1v-0.1v-0.3l-0.1-0.1v-0.1l0.1-0.1v-0.1l-0.1-0.1l-0.1-0.1h-0.1l-0.1,0.1l-0.1,0.1l-0.1,0.1
	l-0.1,0.1v0.1h-0.1l-0.1,0.1l-0.1,0.1l-0.1,0.1l0,0l0,0v-0.1h-0.1l-0.1-0.1l0,0l0,0h0.1h0.1l0.1-0.1l0.1-0.1l0.1-0.1l0,0l0,0h0.1
	l0.1-0.1h0.1l0.1-0.1l0.1-0.1l0.1-0.1l0.1-0.1l0.1-0.1h0.1h0.1l0.1,0.1l0.1,0.1L195,77l0.2,0.1l0.1,0.1h0.1l0.1-0.1h0.1l0,0l0,0h0.1
	h0.1h0.5V77l0.1-0.1l0,0l0,0h0.1l0.1,0.1l0.1-0.1v-0.1v-0.1l0.1-0.1l0.1-0.1h0.1l0.1-0.1h0.1l0.1-0.1l0.1-0.1l0.2-0.2h0.1l0.1-0.1
	l0.2-0.2l0.1-0.2l0.1-0.2v-0.2l0.1-0.1v-0.1l0.1-0.1l0,0l0,0l0.1,0.1h0.1l0.1-0.1l0.1-0.1l0,0l0,0h0.1h0.1l0.1-0.1v-0.1l0.1-0.1h0.1
	l0.1-0.1L199,75l0,0l0.1-0.1l0,0l0,0h0.1l0.1,0.1l0.1-0.3l-0.1-0.1l-0.3-0.1l-0.1,0.1h-0.1l0,0l0,0l-0.1-0.1v-0.2l0.1-0.1l0.1-0.1
	V74l-0.1-0.1l-0.1-0.1v-0.1h0.1l0.2-0.1v-0.1l-0.2-0.1l0.1-0.1v-0.1v-0.1l-0.1-0.1l-0.1-0.1l-0.1-0.1l0.1-0.1v-0.2v-0.3l0.1-0.1
	l0.1-0.1v-0.1l-0.1-0.2l-0.1-0.1l-0.2-0.1l-0.1-0.1l-0.1-0.1l-0.1-0.1l0,0l-0.1-0.1L198,71l-0.1-0.1l-0.1-0.1l-0.1-0.1l-0.1-0.1
	l-0.1-0.1l0,0l-0.1-0.1h-0.1l-0.1,0.1l-0.1,0.2l-0.1,0.2l-0.1,0.1v0.1v0.1l0,0v0.3v0.1l-0.1,0.1h0.2l0,0l0,0v-0.1l0.1-0.1l0.1-0.1
	l-0.1-0.1H197h-0.1l-0.1,0.1l-0.1,0.1l-0.1,0.1l0.1,0.1l-0.1,0.1l-0.1,0.1l-0.1,0.1l-0.1,0.1h-0.1l0,0l0,0l-0.1-0.1H196l-0.1,0.1
	v0.1l0.2,0.1l0.1,0.1l0.1,0.1l-0.1,0.1l-0.1,0.2l-0.1,0.1l0,0l0,0v-0.1l0.1-0.1l0.1-0.2l-0.1-0.1l-0.1-0.1l-0.1-0.1l0.1-0.1h0.1h0.2
	l0.2-0.1l0.1-0.1l0.1-0.1v-0.1l0.1-0.1l0.1-0.1l0.1-0.1h0.1l0.1-0.1v-0.1l0.1-0.1V71l0.1-0.1l0.1-0.1l0.1-0.3l-0.1-0.1l-0.1,0.1
	l-0.1,0.1l-0.2,0.1l-0.2,0.1l-0.2,0.1l0,0l0,0h-0.2H196v-0.1l0.1-0.1v-0.2l-0.1-0.1h-0.2l-0.1,0.1l-0.2,0.1h-0.2l-0.1,0.1H195
	l-0.2,0.1h-0.1l-0.2,0.1l-0.2,0.1l-0.2,0.1l-0.2,0.2l-0.1,0.1l-0.3,0.1h-0.1l-0.5,0.4V72h-0.1l0,0l0,0l0,0l-0.1,0.1l0,0l-0.1,0.1
	l-0.1,0.2l-0.1,0.1l-0.1,0.1l-0.1,0.1l-0.1,0.1l-0.1,0.1l-0.1,0.1l-0.1,0.1l-0.2,0.2l-0.2,0.1l-0.3,0.2l-0.1,0.1l-0.3,0.1l-0.1,0.1
	h-0.1h-0.1l-0.1-0.1H190l-0.1,0.1l-0.2,0.1l-0.2,0.1v0.3h-0.1l0,0l0,0l-0.1-0.1l-0.1-0.1h-0.3l-0.1,0.1l-0.1,0.1l-0.1,0.1l-0.2,0.1
	h-0.2l0,0l0,0l-0.1-0.1l-0.1-0.1h0l-0.1,0.1l-0.1,0.1v0.2V75l-0.1,0.1l0,0h-0.1l-0.1,0.1v0.1l-0.1,0.1l-0.1,0.2v0.1l-0.1,0.1
	l0.1,0.2h0.1v0.2l0,0l0,0l-0.1-0.1h-0.1l-0.2,0.1v0.1h0.1h0.1l-0.1,0.1l-0.1,0.1l-0.1,0.1l-0.1,0.2V77l0.1,0.1v0.1l0,0l0.1,0.1
	l-0.1,0.1h-0.1l0,0l0,0h-0.1l-0.1,0.1h-0.1l-0.1,0.1v0.1v0.1l0.1,0.1V78v0.1h-0.1l-0.1,0.1l-0.1,0.1l-0.1,0.1v0.1v0.1l-0.1,0.1l0,0
	l0,0l-0.1-0.1l-0.1-0.1v-0.1l-0.1-0.1h-0.1h-0.1l-0.1,0.1l-0.1,0.1l-0.1,0.1v0.1v0.1v0.1l-0.1,0.1l-0.1,0.1l0,0l0,0h-0.1l-0.1,0.1
	v0.2l0.1,0.1v0.1v0.1v0.1v0.1V80l-0.1,0.2v0.1l-0.1,0.1v0.1v0.1v0.1v0.1l0.1,0.1V81v0.1v0.1v0.1v0.1v0.1l0,0V81l0.1,0.1v0.1
	l-0.1,0.1l-0.1,0.1h-0.1l-0.1,0.1v0.1l-0.1,0.1v0.2l-0.1,0.1v0l-0.1,0.1l-0.1,0.1l-0.1,0.1l-0.1,0.1v0.1l0,0v0.1v0.1l-0.1,0.1
	l-0.1,0.1l-0.1,0.1l0,0l-0.1,0.1l-0.1,0.1V83l0.1,0.1l-0.1,0.3l-0.1,0.3l-0.1,0.1l-0.1,0.1L183,84v0.1l-0.1,0.2l-0.1,0.2l-0.1,0.1
	v0.1l0.1,0.1h-0.1l0,0l0,0l-0.1-0.1l-0.1-0.1h-0.1v0.1l0.1,0.1l-0.1,0.1l-0.3,0.1l-0.1,0.1v0.1l0.1,0.1l0,0l-0.1,0.2l-0.6,1.1v0.1
	l-0.1,0.1l-0.1,0.1l-0.1,0.1l-0.1,0.1l-0.1,0.1l-0.1,0.1v0.1l-0.1,0.1l-0.1,0.1l-0.1,0.1l-0.1,0.1l-0.2,0.2l-0.1,0.1v0.1l-0.1,0.2
	v0.1l-0.1,0.2l-0.1,0.2l-0.1,0.2l-0.1,0.2V89l0,0v-0.1v-0.1l-0.1-0.1h-0.1h-0.1l-0.1,0.1l-0.1,0.1l-0.1,0.2l-0.1,0.2v0.2l0.1,0.2
	l0.1,0.1h0.1l0.1-0.1l0,0l0,0l-0.1,0.3l-0.1,0.1l-0.1,0.1l-0.1,0.1v0.1v0.1l0.1,0.1l-0.1,0.2l-0.1,0.2l-0.1,0.1l-0.1,0.2l-0.2,0.2
	l-0.9,2.6l-1.1,3l-0.6,1.5l-0.1,0.2l-0.1,0.3l0.1,0.3l0.3,0.5l0.2,0.3l0.1,0.1v0.1l0.1,0.2v0.1h-0.1L176,101l-0.1-0.1l0.3-0.3l0,0
	l-0.3,0.3l-0.1,0.7l-0.3,0.3l-0.1,0.4l-0.1,0.1c0,0,0,0.1-0.1,0.1h-0.1c-0.1,0-0.3-0.1-0.3-0.1v-0.1h0.1v-0.1h-0.1v0.1h-0.1h1.3
	h-0.1h-0.1l-0.1-0.1h-0.1c0,0,0,0,0,0.1l0.1,0.1h0.1h0.1c0,0,0,0.1,0,0.3c0,0.1,0.1,0.1,0.1,0.2l0.1,0.1h0.1l0.1,0.1
	c0,0,0,0.1,0,0.3c0,0.1,0,0.3,0,0.3v0.1l-0.1,0.1h-0.5v-0.1h-0.1v0.1h-0.1v-0.1h-0.4l-0.1-0.1l-0.1,0.1l-0.1,0.1l-0.4,1.1v0.1
	c0,0,0,0.1,0.1,0.1s0.1,0.1,0.1,0.1v-0.1l0,0v-0.1l0.1-0.1v-0.1l0.1-0.1h0.1v-0.1h-0.1v-0.2l0.2-0.2l0.1-0.3h0.7l0.2,0.1
	c0.1,0,0.3,0,0.4,0c0.1,0,0.2,0,0.3,0c0,0,0.2,0.1,0.2,0.2v0.1c0,0.2,0,0.3,0,0.3v0.3v0.1c0,0.1-0.1,0.3-0.2,0.3
	c-0.2,0.1-0.2,0.1-0.2,0.1s-0.1,0-0.1,0.1l-0.1,0.1c0,0.1,0,0.3,0,0.3v0.1h-0.1l-0.2,0.1h-0.3h-0.1l0,0v0.4c0,0,0,0.1-0.1,0.1
	c0,0.1-0.1,0.1-0.1,0.1c-0.1,0-0.1,0-0.1,0.1c0,0-0.1,0.1,0,0.1c0,0,0,0.1,0.1,0.1c0,0,0,0.1,0,0.2c0,0.2,0,0.5,0,0.5s0,0.1,0.1,0.1
	c0,0,0.1,0.1,0.1,0c0.1,0,0.1,0,0.1-0.1l0.1-0.1c0,0,0.1,0,0.1-0.1c0,0,0-0.1,0.1-0.1c0,0,0.2-0.1,0.3-0.1c0.1,0.1,0.4,0.3,0.5,0.4
	h0.1l0.3,0.5c0,0,0,0.1,0,0.2s-0.2,0.3-0.3,0.3s-0.1,0.1-0.1,0.1l-0.1,0.1h-0.1h-0.2l-0.2,0.1h-0.1H176c0,0,0-0.1-0.1-0.1l-0.1,0.1
	c0,0.1-0.1,0.4,0,0.5c0,0.1,0,0.1,0.1,0.1h0.1v-0.1h-0.1v-0.1c0,0,0-0.1,0.1-0.1l0.3-0.1l0.1-0.1h0.1h0.1l0.1,0.1v0.1
	c0,0,0.1,0.1,0.1,0.2s0.3,0.5,0.3,0.5v0.2l-0.1,0.2c-0.1,0.1-1.2,0.5-1.2,0.5s-0.1,0.1-0.2,0.2c-0.1,0.1-0.1,0.1-0.1,0.2
	s0,0.9,0,0.9s0,0.1-0.1,0.1l0,0c-0.1,0-0.2,0-0.3,0s-0.3-0.2-0.3-0.5s0-0.4,0-0.4l0,0v-0.1l-0.1-0.1v0.5c0,0,0,0.3,0.2,0.5
	c0.2,0.1,0.3,0.2,0.5,0.3c0,0,0,0,0.1,0c0.3,0.1,2.7,0.7,2.7,0.7l0.1-0.1v-0.1l-2.4-0.7c-0.1,0-0.1,0-0.1-0.1s0.1-0.3,0.1-0.3
	l0.1-0.1l0.7,0.1l0.1-0.2l0.1-0.4l0.3-0.5l0.3-0.1l0.1-0.2c0-0.1-0.2-0.5-0.2-0.7c0-0.1-0.1-0.2-0.1-0.3s0-0.1-0.1-0.2
	c0-0.1-0.1-0.1-0.1-0.1c0-0.1,0-0.1,0-0.1c0-0.1,0.1-0.1,0.1-0.2c0.1-0.1,0.3-0.1,0.4-0.1c0.1,0,0.2-0.1,0.3-0.1
	c0.1-0.1,0-0.2,0-0.2s-1.1-2.2-1.1-2.3c0-0.1,0-0.3,0-0.3c0-0.1,0.1-0.2,0.1-0.2l2.4-1.1l0.1-0.1l0,0l-0.1,0.1l-1.3,0.6
	c0,0,0,0-0.1,0v-0.1c0,0,0.1-0.5,0.1-0.6l0.1-0.1l3-1.5c0,0,0,0,0.1,0s0.1,0,0.1,0l-0.1,0.7l-1,0.5l-0.2,0.1v0.1h0.3l1-0.5l0.1-1.9
	l-0.1-0.1l-0.1-0.1h-0.1l-0.1-0.1l0.1-0.3h0.3h0.1h0.1l0,0v0.1h0.1v-0.1l0,0l0.6,0.1h0.1h0.1h0.2l0.2-0.1l0.1-0.1l0,0l0.3-0.3l0,0
	v-0.1l0.1-0.1v-0.1v-0.1v-0.1l0,0v-0.3l-0.3-0.6l-0.5-0.9l-0.5-0.8l-0.1-0.1l0,0l0,0l0,0v-0.1v-0.1v-0.1l0,0l0,0l0,0v-0.1v-0.1V98
	l0,0v-0.1l-0.1-0.1v-0.1v-0.1h-0.1h-0.1v-0.1v-0.1v-0.1v-0.1l0,0l-0.1-0.1l0,0l0,0l0,0V97v-0.1l0,0v-0.1l-0.1-0.1l0,0l-0.1-0.1v-0.1
	l-0.1-0.1H181l0,0l-0.1-0.1l0,0l-0.1-0.1l-0.1-0.1l-0.1-0.1l-0.1-0.1l-0.1-0.1l-0.1-0.1l-0.2-0.2l0.2-0.3l0.3-0.5l0.1-0.1l0,0l0,0
	l0.2,0.3l-0.2,0.3l0.4,0.4l0.3-0.2l0,0l0,0l0.1,0.1l0.1,0.1l0.1,0.1h0.1h0.1l0.1-0.1l0.2-0.2l0.1-0.1l0.2-0.2l0.1-0.1l0.1-0.1l0,0
	l0,0l0,0l0,0l0.1,0.1l0,0l-0.1-0.1l0.1-0.1l0,0l0.1-0.1h0.1h0.1l0,0l0,0h0.1l0.1,0.1l0,0l0,0l0,0l0,0l0,0l0,0l0.1-0.1l0,0l0,0
	l0.1,0.1l-0.1,0.1l0,0h-0.1l0,0V95l0,0h0.1h0.1l0,0l0,0l0.1,0.1v0.1v0.1l-0.1,0.1l-0.4,0.3v0.1l-0.1,0.1l-0.1,0.1l-0.1,0.1l-0.1,0.1
	l-0.1,0.1h-0.1l-0.1,0.1l-0.1,0.1l-0.1,0.1V97l0,0l0.1,0.1l0.1,0.1l0.2,0.2l0.1,0.1l0.1,0.1l0.2,0.1l0.2-0.2l0,0l0.1-0.2l0.1-0.1
	l0.1-0.1l0.1-0.1l0.1-0.1l0.1-0.1l0.1-0.1l0.1-0.1l0.1-0.1l0,0l0,0h0.1l0.1-0.1l0.1-0.1v-0.1h0.1l0,0l0,0h0.1v0.1v0.1l0.1,0.1
	l-0.1,0.1h-0.1l-0.2,0.2h-0.1l-0.7-0.3l-0.1,0.1v0.1l0,0l-0.1,0.1h-0.1l0,0l0,0l-0.1-0.1l-0.1,0.1l0.1,0.1l0.1,0.1v0l-0.1,0.1
	l-0.1,0.1l-0.1,0.1v0.1l-0.2,0.2l-0.2,0.2l0.2,0.2l0.5-0.4l0,0l0,0l0.1,0.1l-0.5,0.4l0.1,0.1l0.1,0.1l0.3-0.3l0,0l0,0l0.2,0.2
	l0.1,0.1l0.1,0.1h0.1l0,0l0,0h0.1l0.1,0.2l-0.5,0.4l0,0l0.2-0.1l0,0l0,0l0.1,0.1l0.3-0.3l0,0l0,0l0.2,0.2l-0.1,0.1v0.1V99l0.3,0.2
	l0.2,0.1l0.2,0.1l0.1,0.1l-0.1,0.1h0.1l0,0l0,0l0,0h0.1v-0.1H185l0,0l0,0l0,0l0.1,0.1l0,0h0.1l0,0l0,0l0,0l0,0l0,0l0,0l0.1,0.1v0.1
	l0,0l-0.3,0.1l-0.1,0.1l0.1,0.1h-0.1h-0.1l0,0l0,0l0,0l0,0l0,0l0,0l0,0l0,0h0.1h0.1h0.1l0.1-0.1l0.4-0.2l0,0l0,0v0.1l-0.1,0.1
	l0.1,0.1l0,0l0,0l0.1,0.1l0.2-0.1l0.1-0.1l0.1-0.1l0.1-0.1l0.2-0.1l0.1-0.1l0.1-0.1l0.1-0.1l0.1-0.1l0.1-0.2L187,99l0.1-0.1v-0.1
	l-0.1-0.1l-0.1-0.1h-0.1l-0.1-0.1l-0.1-0.1l0,0l0,0l0,0l0,0l0,0l0,0l0,0l0,0l-0.1-0.1l0,0l0,0l0,0l0,0l0,0l0,0l0,0l-0.1-0.1l0,0
	h-0.1l-0.1-0.1l0,0l0,0l0,0l-0.1-0.1l-0.1,0l0,0l0,0v-0.1v-0.1l0,0h-0.1l0,0l0,0l0,0h0.1h0.1l0,0v-0.1l0,0l0,0v-0.1l0,0l0,0v-0.1
	l0,0v-0.1l0,0H186l0,0l0,0v-0.1v-0.1v-0.1l0,0h0.1h0.1h0.1l0,0l0,0l0,0l0,0V97l0,0l0,0l0,0l0,0l0,0l0,0l0,0l0,0l0,0h0.1v-0.1v-0.1
	V97l0,0l0,0h0.1h0.1h0.2h0.1h0.1h0.1h0.1l0,0l0,0v0.2l0,0v0.1l0,0l0,0v0.1v0.1v0.1v0.1v0.1v0.1V98l0,0v0.1v0.1L187,98l0,0l0.1,0.1
	l0.1,0.1l0,0h0.1l0,0l0,0l0,0l0,0l0,0l0,0l0,0l0.1,0.1l0.1,0.1l0.1,0.1l0,0h0.1l0.1,0.1l0,0l0.1,0.1l0,0l0,0v0.1l0.1,0.1l0.1,0.1
	l0.1,0.1l0,0l0,0l0,0l0,0l0,0l0,0l0.1-0.1l0,0l0.1-0.1l0.1-0.1l0,0l0,0l0,0l0,0l0.1,0.1l0.1,0.1h0.1l0.1-0.1l0,0l0,0l0.1-0.1
	l0.1-0.1l0,0l0,0v-0.1v-0.1l0,0l0,0v-0.1v-0.1v-0.1V98l0,0v-0.1v-0.1v-0.1v-0.1v-0.1l0,0v-0.1l0,0l0,0v-0.1l0,0l0,0l0,0v-0.1v-0.1
	V97v-0.1v-0.1V97l0,0l0,0v-0.1v-0.1l0,0l0,0H189l0,0l0,0l0,0l0,0v-0.1l0,0l0,0v-0.1l0,0l0,0l0,0l0,0l0,0l0,0l0,0l-0.1-0.1l0.1-0.1
	v-0.1h0.1l0,0l0,0l0,0v0.1l0.1,0.1v0.1v0.1l0,0l0,0l0,0l0,0l0,0l0,0l0,0l0,0l0,0l0,0l0,0l0,0l0,0l0,0v0.1l0,0l0,0l0,0v0.1l0,0l0,0
	l0,0V97l0,0l0,0l0,0l0,0l0,0h0.1l0,0l0,0l0,0l0,0l0,0l0,0v0.1v0.1v0.1v0.1v0.1v0.1v0.1v0.1v0.1V98v0.1v0.1v0.1l0,0l0,0V98l0,0v0.1
	l0,0l0,0v0.1l0,0l0,0l0,0l0,0v0.1l0,0l0,0l0,0l0,0v0.1v0.1h0.1h0.2l0.2-0.1h0.1h0.1l0,0l0,0l0,0h0.1h0.1l0,0l0,0l0,0h0.1h0.1l0,0
	h0.1h0.1h0.1h0.1l0.1-0.1h0.1l0.1-0.1h0.1v-0.1V98v-0.1v-0.1l0,0v-0.1v-0.5l0,0l-0.1-0.1h0.1l0,0l-0.1-0.1v0l0,0l0,0h0.1l0.1-0.1
	l0.1-0.1h0.2l0.1-0.1l0.1-0.1h0.1l0,0l0,0v0.1l-0.1,0.1v0.1h0.1l0,0H191l0,0l0.1,0.1l0.1,0.1l0.1,0.1l0.1,0.1h0.1v-0.1h0.1l0,0l0,0
	v0.1v0.1l0.2,0.1h0.1l0,0l0.1,0.1V98h1.1v-1.1h0.2l0.1-0.1h0.1l0.1-0.1l0,0l0,0l0.1,0.1l0.1,0.1l0,0v0.7v0.8v0.4l0,0V99l0,0v0.2v0.4
	v0.2h-0.1h-0.1l-0.1-0.1h-0.1l-0.1-0.1l-0.1-0.1l0,0l0,0l0,0l0,0l0,0l0,0l0,0H193h-0.1l0,0l0,0l0,0l0,0l0,0h-0.1l0,0l0,0l0,0l0,0
	l0,0l0,0h-0.1l0,0l0,0l0,0l0,0l0,0l0,0v0.1v0.1l0,0l0,0l0,0l0,0l0,0h-0.1l0,0h-0.1l-0.1,0.1l-0.1,0.1l0,0l0,0v0.1l0,0v0.1l0,0l0,0
	h0.1l0,0l0,0l0.1,0.1l0.1,0.1h0.1l0,0v0.1l0.1,0.1h0.1h0.1v0.1l0.1,0.1v0.1l0,0v0.1l0.1,0.1v0.1l0,0l0,0H193l0,0l0,0l0,0l0,0l0,0
	l0,0l0,0l0,0l0,0v0.1l0,0v0.1l0.1,0.1l0.1,0.1v0.1v0.1H193l0,0v0.1v0.1v0.1l0.1,0.1l0.1,0.1l0.1,0.1l0.1,0.1l0.1,0.1h0.1h0.1l0,0
	h0.1l0,0l0,0h0.1l0,0h0.1h0.1l0,0l0,0l0,0l0,0l0.1,0.1l0,0l0,0l0,0l0,0l0,0l0,0l0,0l-0.1,0.1v0.1l-0.1,0.1h-0.1l-0.1,0.1l-0.1,0.1
	l-0.1,0.1l0,0v0.1l0,0l0,0l0,0l0,0h-0.1h-0.1l0,0l0,0l0,0h-0.1v-0.1l0,0l0,0h-0.1L193,102v-0.1l0,0l-0.1-0.1l-0.1-0.1h-0.1l-0.1-0.1
	l-0.1-0.1v-0.1l-0.1-0.1v-0.1v-0.1V101v-0.1l-0.1-0.1v-0.1l-0.1-0.1l-0.1-0.1l-0.1-0.1l-0.1-0.1l-0.1-0.1v-0.1V100l-0.1-0.1h-0.1
	l-0.1-0.1l0,0h-0.1l-0.1,0.1l0,0l-0.1,0.1v0.1l0,0l-0.1,0.1l-0.1,0.1h-0.1h-0.1l-0.1,0.1h-0.1h-0.1h-0.1l-0.1,0.1l0,0v0.1l0.1,0.1
	v0.1l0.1,0.1l-0.2,0.2v0.1l0.1,0.1l-0.1,0.1l-0.1,0.1l-0.1,0.1l-0.1,0.1h-0.1l0.1,0.2l0,0l-0.1,0.1l0,0l0,0l0,0l0,0l-0.1-0.1
	l-0.1-0.1l-0.1-0.1l0.1-0.1h-0.1l-0.1-0.1h-0.1l-0.1-0.1h-0.1l0,0l-0.1,0.1l-0.1,0.1l-0.1,0.1v0.1h1.1l-0.2,0.3l-0.1,0.1l0,0l0,0
	l0,0l-0.1-0.1l-0.1-0.1l-0.2-0.1l-0.3-0.3l0.3-0.2l0.1-0.1l0.2-0.2l0.3-0.3l0.1-0.1l0.1-0.1l0.3-0.3l0.1-0.1v-0.1l0.1-0.1l0.1-0.1
	l0.4-0.5l0.3-0.3V99v-0.1L191,99h-0.1h-0.1h-0.1h-0.1h-0.1h-0.1l0,0h-0.1h-0.1H190h-0.1h-0.1h-0.1h-0.1h-0.1h-0.1l0,0l0,0h-0.1h-0.1
	h-0.1H189h-0.1h-0.1h-0.1l-0.1,0.1l-0.1,0.1l-0.1,0.1l-0.1,0.1l-0.1,0.1h-0.1l-0.1,0.1l-0.2,0.1l-0.2,0.1l-0.1,0.1l-0.1,0.1
	l-0.1,0.1l-0.1,0.1l-0.1,0.1l-0.1,0.1l-0.1,0.1l-0.1,0.1l-0.1,0.1l-0.1,0.1l-0.1,0.1l-0.1,0.1l-0.1,0.1l-0.1,0.1l-0.3,0.2l-0.1,0.1
	l-0.1,0.1l-0.1,0.1l-0.1,0.1l-0.1,0.1l-0.1,0.1l-0.1,0.1l-0.1,0.1l-0.2,0.1l-0.1,0.1l-0.2,0.1l-0.3,0.2l-0.2,0.1l-0.1,0.1l-0.2,0.1
	l-0.1,0.1l-0.1,0.1l-0.2,0.1l-0.1,0.1h-0.1h-0.1l0,0l0,0l0,0l0,0l0,0v0.1v0.1v0.1v0.1v0.1L183,104l-0.1,0.1h-0.1h-0.1l0,0v0.1v0.1
	v0.1v0.1v0.1v0.1v0.1v0.1v0.1v0.1v0.1v0.1h0.1v0.1l0,0l0,0l0.1,0.1v0.1l0.1,0.1l0.1,0.1l0.1,0.1l0.1,0.1l0,0v0.1h0.1h0.1h0.1h0.1
	h0.1l0.1,0.1l0.1,0.1v0.1v0.1v0.1v0.1v0.1v0.1l0,0v0.1h-0.1l0,0l0,0h-0.1v0.1l0,0l0,0l0,0l0,0h0.1l0,0l0,0h0.1l0,0l0.1,0.1l0.1,0.1
	l0.1,0.1l0.1,0.1l0.1,0.1l0.1,0.1l0.1,0.1l0,0v0.1v0.1v0.1v0.1l0.1,0.1l0,0l0,0l0.1,0.1l0.1,0.1l0.1,0.1v0.1v0.1v0.1l0.1,0.1v0.1
	h0.1v0.1v0.1v0.1v0.1l0.1,0.1l0.1,0.1l0.1,0.1l0.1,0.1l0.1,0.1v0.1v0.1v0.1l0.1,0.1l0.1,0.1h0.1l0,0h0.1l0.1,0.1h0.1l0.1,0.1
	l0.1,0.1l0.1,0.1l0.1,0.1l0.1,0.1l0.1,0.1l0.1,0.1l0.1,0.1h0.1l0.1,0.1h0.1h0.1h0.1h0.1h0.1h0.1h0.1h0.1h0.1l0,0l0,0h0.1h0.1
	l0.1-0.1l0,0l0,0l0,0l0.1,0.1l0,0l-0.1-0.1l0,0V108l0,0l0,0l0,0v0.1l0.1,0.1l0,0h0.1l-0.1-0.1l0,0l0,0l0,0l0,0v0.1l0,0l0,0V108l0,0
	l0,0v-0.1v-0.1l0,0v-0.1l0.1-0.1v-0.1l0,0l0.1-0.1l0.1-0.1l0,0l0.1-0.1v-0.1V107v-0.1v-0.1l0.1-0.1v0.3v-0.1v-0.1v-0.1l0.1-0.1v-0.1
	v-0.1v-0.1v-0.1l0.1-0.1l0.1-0.1l0,0l0,0l0,0l0,0l0.1-0.1v-0.1v-0.1v0.3l0,0v-0.1v-0.1l0.1-0.1l0.1-0.1v-0.1v-0.1v-0.1l0.1-0.1
	l0.1-0.1l0.1-0.1v-0.1l0.1-0.1l0.1-0.1l0.1-0.1l0,0v-0.1v-0.1v-0.1l-0.1-0.1l-0.1-0.1l-0.1-0.1l-0.3-0.3l-0.1-0.1l0.5-0.5l0.3-0.4
	l0.1-0.1l0,0l0,0l0.1,0.1l0.1,0.1l0.1,0.1l0,0l0.1,0.1l0,0l0,0l0,0l0,0l0,0h0.1l0.1,0.1l0.1,0.1l0.1,0.1l0.1,0.1l0,0l0.1-0.1l0,0
	l0,0h0.1h0.1h0.1v0.1l-0.1,0.1l0,0h0.1h0.1h0.1h0.1h0.1v-0.1v-0.1l0,0l0,0h0.1l0,0l0,0l0,0h0.1v0.1v0.1v0.2v0.2v0.1v0.1v0.1l0,0l0,0
	l0,0h0.1l0,0l0.1,0.1l0.1,0.1v0.1l0.1,0.2l0.1,0.4l0.1,0.2l0.1,0.3l0.1,0.2l0.1,0.3l0.1,0.1l0,0l0.2-0.1l0.2-0.1l0.1-0.1l0.1-0.1
	l0.1-0.1l0.2-0.1l0.2-0.1l0.1-0.1l0.2-0.1l0.1-0.1l0.1-0.1h0.1h0.1l0.1-0.1l0.1-0.1h0.1l0.1-0.1l0.1-0.1l0.1-0.1l0.1-0.1l0.1-0.1
	l0.1-0.1l0.1-0.1l0.1-0.1l0.1-0.1l0.2-0.1l0,0l0.1-0.1v-0.1v-0.1v-0.1v-0.1h-0.1l-0.1-0.1h-0.1l-0.4,0.9l-0.1-0.1l-0.1-0.1l-0.3-0.1
	l-0.2-0.1l-0.3-0.2l-0.2-0.1l-0.3-0.1l0.1-0.1l0.1-0.1v-0.1V103h0.1v-0.1v1.1l0.1-0.1l0.1-0.1l0,0l0,0h0.1l0.1,0.1h0.1l0.1,0.1
	l0.1,0.1h0.1l0,0l0,0l0.1-0.1l0.1-0.1l0.1-0.1l0,0l0,0l0.1,0.1v0.1v0.1v0.1v0.1v0.1v0.1v0.1v0.1l0.1,0.1h0.1l0.1,0.1l0.1,0.1
	l0.1,0.1l0.1,0.1l0.1,0.1l0.1,0.1l0.1,0.1l0.1,0.1l0.1,0.1l0.1,0.1l0.1,0.1h0.1l0.1,0.1h0.1l0.1,0.1l0.1,0.1l0.1,0.1l0.1,0.1
	l0.1,0.1l0.1,0.1h0.1h0.1h0.1l0,0l0,0h0.1h0.1h0.1h0.1h0.1h0.1h0.1l0.1-0.1l0.1-0.1l0.1-0.1l0.1-0.1l0.1-0.1l0.1-0.1l0.1-0.1
	l0.1-0.1h0.1l0,0l0,0v-0.1v-0.1v-0.1v-0.1l0,0l0,0l0.1-0.1l0,0l0,0l0,0h0.1l0,0l0,0v-0.1l0,0v-0.1V105l0,0v-0.1l-0.1-0.1h-0.1h-0.1
	H200h-0.1l0,0l0,0h-0.1h-0.1h-0.1l0,0l0,0h-0.1h-0.1h-0.1l0,0v-0.1l0,0h-0.1H196l0,0l0,0h-0.1h-0.1h-0.1l-0.1-0.1l-0.1-0.1l-0.1-0.1
	l-0.1-0.1l-0.1-0.1l-0.1-0.1L195,104l-0.1-0.1l-0.1-0.1l-0.1-0.1l-0.1-0.1v-0.1l-0.1-0.1l-0.1-0.1v-0.1l0,0l0,0l0,0v0.1l0.1,0.1v0.1
	l0,0l0.1,0.1l0.1,0.1l0.2,0.1l0.1,0.1l0.2,0.1l0.1,0.1l0.1,0.1l0.2,0.1l0.1,0.1l0.1,0.1h0.1h0.1h0.1h0.1h0.1v-0.1l0,0l0.1-0.1
	l0.1-0.1l0,0l0.1-0.1l0.1-0.1l0,0l0,0l0.1-0.1h0.1l0,0l0,0l0,0l0,0l0,0l0,0l0,0l0,0h0.1h0.1h0.1h0.1l0,0l0,0l0,0h0.1h0.1h0.1h0.1
	h0.1h0.1h0.1l0,0h0.1h0.1h0.1h0.1h0.1l0,0l0,0l0,0l0,0l0.1,0.1l0.1,0.1l0.1,0.1l0,0l0,0h0.1l0.1-0.1h0.1h0.1h0.1h0.1h0.1h0.1h0.1
	h0.1h0.1h0.1h0.1h0.1h0.1h0.1h0.1h0.1l0.1-0.1h0.1l0,0h0.1l0.1-0.1l0.1-0.1l0,0v-0.1l0.1-0.1v-0.1l-0.1-0.1l-0.1-0.1l-0.1-0.1
	l-0.1-0.1l-0.1-0.1l-0.1-0.1l-0.1-0.1l-0.1-0.1l-0.1-0.1l-0.2-0.1H200h-0.1h-0.1l-0.1,0.1l0,0H198l0,0l0,0l-0.1-0.1h-0.1l-0.1-0.1
	l-0.1-0.1l-0.1-0.1l-0.1-0.1l-0.1-0.1l-0.1-0.1l0,0l0,0l0,0l0,0l0,0l-0.1-0.1l-0.1-0.1l-0.1-0.1l-0.1-0.1l-0.1-0.1l-0.1-0.1
	l-0.1-0.1l-0.1-0.1l-0.1-0.1l-0.1-0.1l0,0l0,0l0,0l-0.1-0.1v-0.1v-0.1v-0.1v-0.1v-0.1v-0.1v-0.1v0.9l-0.1-0.1l-0.1-0.2l-0.1-0.1
	l0.2-0.6l-0.1-0.1l-0.1-0.1l-0.1-0.1h-0.1l-0.1-0.1l-0.1-0.1h-0.1h-0.1l-0.1,0.1l-0.1,0.1h-0.1l0,0l0,0v-0.1l0.2-0.2v-0.1H195h-0.1
	h-0.1h0.2l0,0l0,0v0.1v0.1l-0.1,0.1l0,0l0,0h-0.1h-0.1l-0.1-0.1l-0.2-0.1l-0.1-0.1h-0.1l0,0H194l0,0v-0.1l-0.1-0.1V99v-0.1v-0.3
	v-0.3v-0.1l0,0v-0.1l0,0v-0.3V98h0.1h0.1l0,0l0,0l0,0l0,0l0,0l0,0l0,0l0,0h0.1h0.1l0,0l0,0h0.1h0.1l0,0l0,0h0.4h0.4h0.2h0.1h0.2l0,0
	h-0.3l0,0l0.1-0.1l0,0l0,0l0,0l0,0l0.1-0.1l-0.1-0.1l-0.1-0.1l-0.1-0.1l-0.3-0.2l-0.2-0.2l-0.2-0.1l-0.1-0.1l-0.1,0.1l0,0l0,0l0,0
	l0,0h-0.1l0,0h-0.1h-0.1h-0.1H194h-0.1l0,0l0,0h0.1l-0.1-0.1l-0.1-0.1v-0.1l0,0v-0.1l-0.1-0.2l0.1-0.1h0.3l0.1,0.1l0.3,0.1h0.1l0,0
	l0.1,0.1l0.1,0.1l0.2,0.2l0.1,0.1l0,0l0.1,0.1h0.1l0.3,0.2l0.3,0.2l0.1,0.1l0.3,0.1l0.4,0.2l0.1-0.1l0.1-0.1l0,0l-0.1-0.3l-0.1-0.4
	h-0.1h-0.1h-0.1h-0.1h-0.1h-0.1l-0.1,0.2l-0.1,0.1l0,0l0,0l0,0l0.1-0.1l-0.1-0.1l-0.1-0.1l0,0l-0.1-0.1l0.1-0.1l0.1-0.3l0.1-0.3h0.1
	l0.1-0.1l0.1-0.1l0,0l0.1-0.2l0.1-0.1v-0.1l0.1-0.1l0.1-0.3l0.1-0.2l0.1-0.1v-0.1v-0.1l-0.1-0.1h-0.1l-0.1-0.1h-0.1l-0.1-0.1
	l-0.1-0.1l-0.1-0.1v-0.1h0.1l0.1,0.1l0.1,0.1l0.1,0.1l0.1,0.1l0.1,0.1h0.1l0.1-0.1v-0.1l0.1-0.1l0.1-0.2l0.1-0.1l0.1-0.1v-0.1
	l0.1-0.1l0.1-0.1v-0.1v-0.1l0.1-0.1v-0.2l-0.1-0.1l-0.1-0.1v-0.1l-0.1-0.1h-0.2l-0.2,0.1h-0.1l-0.1-0.1h-0.1h-0.1l-0.1-0.1v-0.1
	v-0.1l0.1-0.3l0.1-0.2l0.1-0.3v-0.1v-0.1v-0.1l-0.1-0.1l-0.1-0.1l-0.1-0.1v-0.1v-0.1v-0.1l0.1-0.1v-0.1l-0.1-0.1l-0.1-0.1l-0.1-0.1
	l-0.1-0.1V90v-0.1h-0.1H196h-0.1h-0.1l-0.1-0.1l-0.1-0.1l-0.1-0.1h0.5l0,0V90h0.1v-0.1l0.1-0.1v-0.1v-0.1h0.1h0.1h0.1h0.1h0.1h0.1
	l0.1,0.1l0.1,0.1h0.1h0.1l0.1-0.1v-0.1l0,0l0,0l0.1,0.1l0.1,0.1h0.1h0.1l0.1,0.1l0.1,0.1l0.1,0.1l0.1,0.1l0.1,0.1l0.1,0.1v0.2
	l0.1,0.1l0.1,0.1l0.1,0.1V91l0.1,0.1l0.1,0.1l0.1,0.1v0.1l-0.1,0.1v0.1l0,0l0,0h-0.1h-0.1h-0.1l-0.1-0.1l-0.1-0.1l-0.1-0.1h-0.1
	l-0.1-0.1h-0.1l-0.1,0.1l-0.1,0.1l-0.1,0.1v0.1l-0.1,0.1l-0.1,0.3v0.1l0.1,0.1h0.1l0.3-0.1l0.2,0.1h0.1l0.1-0.1h0.1l-0.1,0.1
	l-0.1,0.1v0.1l0.1,0.1l0.1,0.2l0.1,0.1l0.1,0.1V93l-0.1,0.1v0.1v0.1v0.1v0.1v0.1l-0.1,0.1v0.2l-0.1,0.2v0.1h-0.1l0,0l-0.1,0.1
	l-0.1,0.1l-0.1,0.2l-0.1,0.1l-0.1,0.1l-0.1,0.1l-0.1,0.1l-0.1,0.2v0.1l-0.1,0.1v0.1v0.1v0.1l-0.1,0.1V96l0.1,0.1v0.1l0.1,0.2
	l0.1,0.1h0.1h0.1l0.2,0.1l0.1,0.1l0.2,0.1l-0.1,0.3l-0.3-0.1h-0.3v0.1l0,0l0,0v0.1V97l0,0v0.1v0.1v0.1v0.1l0.1,0.1v0.1l0,0l0,0h0.1
	l0.1,0.1h0.1h0.1h0.1l0,0h0.1l0.1,0.1h0.1h0.1h0.1h0.1h0.1h0.1h0.1h0.1l0.1,0.1h0.1h0.1h0.1h0.1h0.1l0.1,0.1h0.1h0.1l0,0l0.4-0.4
	l0,0l0.1,0.1l0.1,0.1l0.1-0.1l0,0l-0.1,0.2l0,0l0,0v-0.1l0,0l0,0l0,0l0,0v0.1l0,0V98v0.1v0.1v0.1v0.1L200,98l0,0h0.1h0.1h0.1h0.1
	l0,0l0,0l0,0l0,0h0.1l0,0l0,0l0,0v0.1v0.1l0,0l0,0l0.1-0.1l0.1-0.1l0.1,0.1l0,0l0,0h0.1h0.1h0.1h0.1l0,0h0.1h0.1l0,0h0.1h0.1h0.1
	h0.1h0.1h0.1h0.1h0.1h0.1h0.1h0.1h0.1h0.1h0.1l0.1,0.1v0.1l0.1,0.1h0.1l0,0v-0.1l0,0H203l0,0l0,0v-0.1l0,0l0,0l0,0l0,0l0,0l0,0l0,0
	h0.1l0,0v-0.1H203l0,0h-0.1l0,0V98l0,0l0,0l-0.1-0.1v-0.1l-0.1-0.2v-0.1v-0.1l-0.1-0.3l-0.1-0.1h-0.1l-0.1-0.1v-0.1v-0.1l0.1-0.1
	v-0.1l-0.1-0.1l-0.1-0.1h-0.1l-0.1-0.1l-0.1-0.1l-0.1-0.1h-0.1h-0.1l-0.1,0.1l-0.1,0.1l-0.1,0.1h-0.1h-0.3l-0.1-0.1v-0.1l0.1-0.1
	h0.1l0.1-0.1l0.1-0.1v-0.1l0.1-0.1v-0.1l-0.1-0.1V96v-0.1v-0.1v-0.1v-0.1v-0.1v-0.1v-0.1l0.1-0.2l0.1-0.3l0.1-0.1v-0.1l0.1-0.1v-0.1
	h0.1l-0.1,0.1l0,0l-0.2,0.3l-0.1,0.3v0.1v0.2v0.1v0.1l0.1,0.1l0.1,0.1l0.1,0.1h0.1h0.1h0.1h0.1h0.1h0.1h0.1l0.1,0.1h0.1l0,0l0,0
	l0.1,0.1l0.1,0.1l0.1,0.1v0.1v0.1l0.1,0.1l0.1,0.1v0.1l0.1,0.1l0.1,0.1v0.1l0.1,0.1l0,0V97l0,0v0.1l0,0l0.1,0.1v0.1v0.1v0.1v0.1v0.1
	h0.1l0.1,0.1v0.1h-0.1l0,0l0,0l0.1,0.1v0.1l0.1,0.1L202,98l0.1,0.1h0.1l0.1,0.1l0.1,0.1l0.1,0.1l0.1,0.1l0.1,0.1l0.1,0.1l0.1,0.1
	L203,99l0,0v0.1l-0.1,0.1l-0.1,0.1v0.1l-0.1,0.1l0,0l-0.2,0.3l2.1,1.3l-0.6,1l-2.3-1.4l-0.7,0.1l-0.5,0.9l3.8,2.2l1.4-2.4l0.4,0.3
	l-0.1,0.1l-0.3-0.2l-0.1,0.1l2.8,1.7l0.1-0.3l0.1-0.1l0.2,0.1l-0.1,0.3v0.1l0.2-0.3l0,0v0.1l-0.1,0.1l0.1,0.1l0.1,0.1h0.1l0.1-0.1
	h0.1l0.1,0.1v0.1l-0.1,0.1v0.1l0.1,0.1h0.1h0.1l0.1,0.1h0.1l0.1,0.1l0.1,0.1l0.2,0.1l-0.1,0.1l0.1,0.1l0.1,0.1l0.2,0.2l0.3,0.3v0.1
	h0.1v-0.1v-0.1l0.2-0.2v-0.1l0.1-0.1l-0.1-0.1l-0.1-0.1l-0.3-0.3l-0.1-0.1l-0.1-0.1v-0.2l0.1-0.3h0.1v0.2v0.1v0.1l0.1,0.1l0.1,0.1
	l0.1,0.1l0.1,0.1h0.1v0.1h0.1l0.1,0.1l0.1,0.1l0.1,0.1h0.1h0.1h0.1l0.1-0.1l0.1-0.1l0.1-0.1v-0.1h0.1v-0.1h0.1h0.1l0.1,0.1h0.1h0.1
	h0.1l0.1-0.1v0.1l-0.1,0.1l0,0l0.1-0.1l0,0l-0.1,0.1l0,0l0.1-0.1l0,0v0.1l0.3,0.3h0.1v-0.1h0.1l0.1,0.1l0.3,0.1v-0.1l0,0h0.1v0.1
	l0,0v0.1h-0.3v0.1h0.3v-0.2h0.7v0.5l0.1-0.1l0.1,0.1l0.1,0.1l0.1,0.1l0.1,0.1l0.1,0.1h0.1l0.1,0.1l0.1,0.1h0.3l0.1-0.3h0.1v0.1
	l0.1,0.1v0.1h-0.1v0.1l0.9,0.2v-0.1l0.6-0.3v0.1l0.5-0.3l-1.1-0.9l-0.1-0.1h-1.1l-0.9,0.8l-0.1-0.1V105l1.5-0.8h1.3l1.2,1.1l0.2-0.1
	l-0.5-0.6l0.3-0.2l1,1.1l0.1-0.1l-0.3-0.3l0.1-0.1h0.1v-0.1v-0.1v-1.6h0.1v-0.1l-0.3-0.1v-0.1l0.1-0.1l0.3,0.1l0.2,0.1l0.2,0.1
	l0.3,0.1l-0.1,0.2l0.1,0.1l0.1,0.1l0.1,0.1l0.2,0.1l0.2,0.1h0.2l0.1-0.1l0.2-0.1l0.4-0.3l0.6-0.5l0.5-0.4l0.1-0.1v-0.1v-0.1
	l-0.1-0.2l-0.1-0.2l-0.1-0.2l-0.1-0.1l-0.1-0.1l-0.1-0.1l-0.3-0.2l-0.2-0.1l-0.3-0.1l-0.3-0.1l-0.3-0.1l-0.1-0.1h-0.1l-0.1,0.1v0.1
	l0.1,0.1l0.1,0.1l-0.6,0.9l-0.3-0.1l0,0v-0.1V101v-0.1h-0.2l-0.1,0.1l-0.1-0.1v-0.1h0.1v-0.1H220v0.1h-0.1v-0.1h0.1v-0.1h0.1v-0.1
	H220h-0.1v-0.1l0.1-0.1v0.2v-0.1l-0.1-0.1h-0.1l-0.1,0.1l-0.1,0.1l-0.1,0.1l-0.1-0.1l-0.1-0.1l-0.1-0.1v-0.1v-0.1l-0.1-0.1l-0.1-0.1
	l-0.1-0.1h-0.1l-0.1,0.1L218,100l0,0l0.1-0.1l0.3-0.1h0.1l0.1,0.1l0.1,0.1l0.1,0.1l0.1,0.1l0.1,0.2l0.1,0.1h0.1l0.1-0.1l0.1-0.3h0.1
	h0.6l0,0L220,100v-0.1l0.3,0.3v0.1l0.4,0.1h0.6l0.1-0.1l0.1-0.2l-0.1-0.3v-0.1l-0.1-0.3l-0.1-0.4l-0.1-0.2v-0.2l0.1-0.3l0.3-0.2
	l0.2-0.1l0.1-0.1l0,0l-0.1-0.1v-0.1v-0.1l0.1-0.1h0.1v-0.1v-0.1l-0.1,0.1l-0.1-0.1l-0.1-0.1v-0.1l-0.1-0.1l-0.1-0.1l-0.1-0.1v-0.1
	v-0.1h-0.1l0.1-0.1l0.1,0.1v0.2l0.1,0.1h0.1l0.1,0.1l0.1-0.1l0.1-0.1l0.1-0.1v-0.1h0.1l0.1-0.1l0.1-0.1v-0.2v-0.1v-0.2l-0.1-0.2
	l-0.1-0.1l-0.1-0.1v-0.1l0.1-0.2l0.1-0.2v-0.1l0.1,0.1l0.1-0.1l0.1,0.1l-0.1,0.1v0.2l-0.1,0.1v0.2l0.2,0.1l0.1,0.2V96v0.1l0.1,0.1
	v0.2l-0.1,0.1l-0.1,0.1h-0.1l-0.1,0.1l0.1,0.3h0.3l0.1,0.1l0.1,0.3l-0.1,0.1l-0.1,0.1v0.1l0.1,0.1l0.1,0.1L223,98l0.2,0.1h0.1h0.1
	h0.1l0.3-0.1l0.3-0.3l0.2-0.3l0.1,0.1l0.1,0.1l-0.2,0.3L224,98l-0.2,0.2l-0.3,0.1h-0.3l-0.3-0.1h-0.2l-0.1-0.1h-0.1v0.1h0.1v0.1
	l-0.2,0.1l-0.5,0.1l-0.1-0.1h-0.1h-0.1l-0.1,0.1v0.2l0.1,0.2l0.1,0.1l0.1,0.1l0.1,0.5l0.1,0.3l0.2,0.3l0.2,0.3l0.2,0.3l0.3,0.3
	l0.3,0.3l0.1,0.1h0.1l0.1-0.1l0.2-0.2l0.2-0.2l0.3-0.1h0.1l0.2-0.2l0.5-0.4h0.2l0.3-0.3l0.4-0.3h0.2l0.1-0.1l0.4-0.3l0.1-0.1h0.2
	l0.2-0.1l0.2-0.1h0.1l0.1-0.1l0.1-0.1h0.1l0.4-0.1l0.4-0.1l0.5-0.2l0.7-0.2l0.5-0.1l0.2-0.1l0.2-0.1l0.1,0.1l0.1-0.1l0.2-0.1h0.1
	l0.1-0.1l0.4-0.1l0.1-0.1h0.2l0.2-0.1l0.1-0.1h0.1l0.1-0.1l0.2-0.1l0.1,0.1l0.1-0.1h0.1l0.1,0.1l0.1-0.1l0.3-0.1h0.1h0.1l0.1-0.1
	l0.2-0.1v-0.1h-0.1v-0.1l0.1-0.1l0.1-0.1h0.2l0.1,0.1v0.1l-0.1,0.1h-0.1v0.1h0.1L234,97h0.1l0.3-0.1l0.2-0.1h0.1l0.1-0.1l0.3-0.1
	h0.1l0.2-0.1l0.1-0.1l0.1-0.1h0.2h0.1l0.3-0.1l0.2-0.1h0.3l0.2-0.1h0.1l0.1-0.1h0.2h0.1l0.1-0.1l0.1,0.1h0.1v-0.1l0.1-0.1l0.2-0.1
	l0.1,0.1h0.1l0.2-0.2h0.1l0.1,0.1l0.3-0.1l0.1-0.1h0.1l0.1-0.1v-0.1l0.1-0.1h0.1h0.1V95l-0.5-1.2l-1.2-1l-0.3-0.5h0.1l0.3,0.5l1.1,1
	l0.6,1.2h0.1l0.4-0.2l0.3,0.1l0.3-0.1h0.5l0.1,0.1h0.1h0.1l0.1-0.1l0.1,0.1l0.1-0.1v-1.5l0.1-0.1l0.1,1.7l0,0l0.1,0.1l0.1,0.1
	l0.5-0.1l0.5-0.1h0.3l0.2,0.1l0.1,0.3v0.1v0.2l-0.1,0.2l1.3-0.3l1.4,0.5l0.3,0.2h0.3l0.5-0.1l0.3-0.2l0.5-0.3l0.2-0.2l0.5-0.1
	l1.7-0.1l0.1,0.1v0.9h0.8V96h-0.7l-0.1-1.6h0.2h0.5h0.4v0.8l0.7-0.1l0.1-0.3l-0.1-0.1v-1.3h-1.1l-1.6,0.1l0.6-1.3l0.3-0.7l0.1,0.1
	l0.3,0.1l0.4,0.2l0.3,0.1l0.1,0.1l0.1-0.1l-0.1-0.1l-0.2-0.1l-0.2-0.1l-0.2-0.1l-0.3-0.1l-0.2-0.1V91h0.1l0.3-0.4l0.3-0.5l0.1-0.5
	l0.1-0.2l0.2,0.1l0.2,0.1l0.1,0.1h0.1v-0.1l-0.1-0.1l-0.2-0.1l-0.2-0.1l0.3-0.3l0.1,0.1l0.4,0.2l0.2,0.1l0.1,0.1l0.1,0.1l0.1-0.1
	l0.1-0.2l0.1-0.2l-0.1-0.1l-0.2-0.1l-0.2-0.1l-0.3-0.1l-0.2-0.1l-0.1-0.1l0.1-0.3l0.2-0.3l0.2-0.3l0.1-0.1l0.1,0.1l0.2,0.1l0.3,0.2
	l0.3,0.1l0.5,0.3l0.2,0.1v-0.1l-0.3-0.2L253.5,87.7z M191,98.2h0.1h0.5l0.1-0.1v-0.2l0.1-0.1v-0.1v-0.2h-0.1h-0.1h-0.1l-0.2-0.1
	l-0.1-0.1l-0.1-0.1l-0.1-0.1l-0.1-0.1h0.1h-0.1l-0.1-0.1l-0.1-0.1h-0.1h-0.1h-0.1h-0.1h-0.1V97v0.1v0.1v0.1h0.1h0.1l0,0v0.1h-0.1
	h-0.1h-0.1v0.1v0.2V98v0l0.1,0.1v0.1H191z M202.2,110.8L202.2,110.8l0.1-0.1l0.1-0.1v-0.2l-0.1-0.1v-0.1l-0.1-0.3l-0.1-0.1l-0.1-0.1
	h0l-0.1,0.1l-0.1,0.1v0.1h-0.1v-0.1v-0.1l-0.1,0.1v0.1v0.1l-0.1,0.1v0.1v0.1l-0.1,0.1l-0.1,0.1l0.1,0.1h0.1l0.1,0.1l0.1,0.1l0.1,0.1
	l0.1,0.1l0.1,0.1v0.1l0.1,0.1h0.1h0.1L202.2,110.8L202.2,110.8L202.2,110.8z M220.8,112.5L220.8,112.5l-0.1-0.1l-0.1-0.1l-0.1-0.1
	l-0.2-0.2l-0.1-0.1v-0.1l0,0h-0.1H220l-0.1-0.1l-0.1-0.1l-0.1-0.1v-0.1h-0.1h-0.1h-0.1h-0.1h-0.1h-0.1v0.1l0.1,0.1l0.1,0.1v0.1v0.1
	l0.1,0.1v0.1v0.1v0.1l0.1,0.1l0.1,0.1h0.1l0.1,0.1l0.1,0.1l0.2,0.1l0.1,0.1v0.1l0.1,0.1l0.1,0.1l0.1,0.1v0.1v0.1h0.1l0.1-0.1V113
	h-0.1h-0.1l-0.1-0.1v-0.1l0.1-0.1l0.1-0.1h0.1l0.1,0.1h0.1L220.8,112.5L220.8,112.5z M181.4,96.6L181.4,96.6l-0.1,0.1v0.1
	L181.4,96.6L181.4,96.6h0.1l0.1-0.1l0.1-0.1h-0.1v-0.1l-0.1-0.1h-0.1l-0.1,0.1v0.1l0,0v0.2H181.4z M182.4,97.2L182.4,97.2
	L182.4,97.2l-0.1,0.1l-0.1,0.1l0,0l0,0h0.1L182.4,97.2L182.4,97.2L182.4,97.2L182.4,97.2L182.4,97.2z M261.9,77.4l-0.2-0.3V77
	l-0.2-0.2l-0.1-0.2l-0.1-0.1l-0.3-0.3h-0.1l-0.2-0.2l-0.2-0.2l-0.4-0.3H260l-0.1-0.1l-0.2-0.1l-0.3-0.1h-0.1l-0.1-0.1l-0.3-0.1
	l-0.5-0.2l-0.3-0.1l-0.3-0.2h-0.1h-0.2l-0.3-0.2H257l-0.3,0.1l-0.1,0.3l-0.1,0.1l-0.5,0.1l0,0h-0.3l-0.2-0.2h-0.6l-0.1-0.2v-0.1
	l-0.4-0.1l-0.1,0.1l0.1,0.3l-0.1,0.1L254,75l-0.3,0.3l-0.1,0.1l-0.2,0.1l-0.2,0.1l-0.1-0.1l-0.5,0.1h-0.1h-0.1l-0.1-0.2h-0.2
	l-0.3,0.3v0.1l0.1,0.1v0.2l0.1,0.3l0.1,0.3L252,77l0.1,0.3v0.2l-0.1,0.1l-0.1,0.3l-0.2,0.3l-0.2,0.3l-0.1,0.3l0.1,0.2v0.1l0.2,0.1
	l0.3,0.3l0.3,0.1l0.2,0.1l0.1,0.1l0.1,0.1l0.3,0.2l0.1,0.3l0.1,0.5l0.3,0.1h0.2l0.1,0.1l0.1,0.1h0.1h0.1l0.1,0.1h0.1l0.1,0.1h0.2
	h0.1l0.1-0.1h0.1l0.1-0.1l0,0l0.1-0.1l0.1-0.1h0.1l0.1-0.1h0.1l0.1-0.1l0.1-0.1l0.1-0.1h0.2h0.2l0.2,0.1h0.1l0.2-0.1l0.1-0.1
	l0.1-0.1h0.1v0.1l-0.1,0.1l-0.1,0.1l-0.1,0.1l-0.2,0.1h-0.1l-0.2-0.1H256l-0.2-0.1l-0.1,0.1l-0.1,0.1l-0.1,0.1h-0.1l-0.1,0.1h-0.1
	l-0.1,0.1l-0.1,0.1l-0.1,0.1h-0.1l-0.1,0.1h0.3h-0.2l-0.1-0.1h-0.1l-0.1-0.1h-0.1l-0.1-0.1L254,81l-0.1-0.1h-0.3l0.2,0.1l0.1,0.1
	l0.1,0.1l0.1,0.2l0.2,0.2l0.1,0.3l0.1,0.1l0.1,0.1l0.1,0.1l0.1,0.2l0.2,0.3h0.1l0.1,0.2V83l0.1,0.1v0.1v0.1V84l0.2,0.1h0.1l0.1,0.1
	h0.1l0.2-0.1l0.2-0.1l0.2-0.1l0.2-0.1l0.2-0.1l0.3-0.1l0.7-0.3l0.5-0.1l0.3-0.2l0.3-0.1l0.2-0.1l0.3-0.1l0.3-0.1l0.4-0.1l0.7-0.3
	l0.1-0.1l0.1-0.5l0.1-0.3v-0.2l0.2-0.1v-0.1l0.1-0.1v-0.1v-0.2l0.1-0.2v-0.1l0.1-0.1l0.1-0.2l-0.1-0.1l0.1-0.1v-0.1l0.1-0.3v-0.1
	l0.1-0.1l-0.1-0.1l-0.1-0.1l0,0l-0.1,0.1l-0.1,0.1l-0.1,0.1h-0.1h-0.2H261l-0.1,0.1l-0.1,0.1h-0.1h-0.1l-0.1,0.1h-0.1l-0.1,0.1h-0.1
	l-0.1,0.1H260l-0.1,0.1h-0.1l-0.1,0.1l-0.1,0.2l-0.1,0.1l-0.1,0.1h-0.1v0.1h-0.1h-0.3h-0.1l-0.1,0.1l-0.1-0.1l0,0v-0.1l0.1-0.1h0.1
	h0.3h0.1v-0.1h0.1l0.1-0.1l0.1-0.1l0.1-0.2l0.1-0.1h0.1l0.1-0.1h0.1l0.1-0.1h0.1l0.1-0.1h0.1l0.1-0.1h0.1h0.1l0.1-0.1l0.1-0.1h0.1
	h0.2h0.1l0.1-0.1l0.1-0.1l0.1-0.1h0.1h0.1l0.1-0.1l0.3-0.3V78L261.9,77.4z M182,97L182,97L182,97l0.1-0.1v-0.1l0,0H182h-0.1h-0.1
	l-0.1-0.1h-0.1h-0.1l-0.1,0.1v0.1l0.1,0.1l0,0l-0.1,0.1v0.1h0.1l0.1,0.1l0.1,0.1h0.1l0.1-0.1v-0.1L182,97L182,97z M219.3,111.1h0.1
	V111l0.1-0.1l0.1-0.1l0.1-0.1h0.1h0.1l0.1,0.1l0.1,0.1h0.1h0.1l0.1-0.1l0.1-0.1v-0.1l-0.1-0.1h-0.1h-0.1v0.1l-0.1,0.1l-0.1,0.1
	l-0.1,0.1h-0.1l-0.1-0.1h-0.1l-0.1,0.1l-0.1,0.1L219.3,111.1h-0.1H219v0.1v0.1l0,0l0.1,0.1L219.3,111.1z M206.5,114.9L206.5,114.9
	v-0.3l-0.1-0.2l-0.2-0.2h-0.5l-0.3,0.1h-0.1l-0.1,0.1l-0.1,0.1l-0.2,0.1l-0.1,0.1l-0.1,0.1h-0.1h-0.1l-0.1-0.1h-0.1l0,0l0,0
	l-0.1-0.1h-0.1l-0.3-0.1l-0.2-0.1l-0.3,0.1v0.1H203l-0.1-0.1v-0.6l-0.2-0.1l-0.2-0.5l-0.1-0.2l-0.1,0.1v0.5v0.1l0.1,0.3l-0.1,0.4
	l-0.1,0.2l-0.1,0.6l0.1,0.2v0.4l0.1,0.2h0.2l0.1-0.1l0.3-0.1v-0.1l0.1-0.1l0.1,0.1l0.1,0.3l-0.1,0.3l-0.1,0.2l-0.3,0.4l-0.1,0.1v0.1
	v0.1l0.1,0.1l0.1,0.1l0.1,0.1l0.1,0.1l0.1,0.1l0.1,0.1l0.1,0.1l0.3,0.3l0.1,0.1l0.1,0.1l0.1,0.1h0.2h0.1l0.1-0.1l0.1-0.1l0.1-0.1
	l0.1-0.1l0.1-0.1l0.1-0.1l0.1-0.1l0.1-0.1l0.1-0.1v-0.1v-0.3v-0.1v-0.1l0.2-0.1l0.2-0.1l0.2-0.1l0.1-0.1l0.1-0.1l0.1-0.1l0.1-0.1
	l0.1-0.1v-0.1v-0.1v-0.2v-0.2v-0.3L206.5,114.9z M210.2,115.9l-0.1-0.1l-0.1-0.1l-0.1-0.1l-0.1-0.1l-0.1-0.1l-0.1-0.1l-0.1-0.1v-0.1
	l-0.1-0.1l-0.1-0.1l-0.1-0.1l-0.1-0.1l-0.1-0.1l-0.1-0.1h0.1l-0.1-0.1l-0.1-0.1v-0.1v-0.1l-0.1-0.1l-0.1-0.1l-0.1-0.1l-0.1-0.1
	l-0.1-0.1v0.1v0.1v0.1v0.1v0.1v0.1v0.1v0.1v0.1v0.1v0.1v0.1v0.1l0.1,0.1l0.1,0.1l0.1,0.1l0.1,0.1v0.1h0.1l0.1,0.1h0.1l0.1,0.1
	l0.1,0.1h0.1l0.1,0.1h0.1h0.1l0,0l0.1,0.1l0.1,0.1l0.1,0.1h0.1l0.1,0.1h0.1h0.1h0.1h0.1L210.2,115.9L210.2,115.9L210.2,115.9
	L210.2,115.9l0.1-0.1L210.2,115.9z M207.4,113.2l-0.1,0.1v0.1v0.1l0.1,0.1h0.2l0.1-0.1v-0.1l-0.1-0.1L207.4,113.2z M219.3,113.6
	L219.3,113.6l-0.1-0.1v-0.1l0.1-0.1l0.1-0.1v-0.1l-0.1-0.1h-0.1l-0.1-0.1l-0.1-0.2v-0.1h0.1h0.1h0.1v-0.1l-0.1-0.1l-0.1-0.1v0.1
	l-0.1,0.1h0l-0.1-0.1h-0.1v-0.1v-0.1l-0.1-0.1h-0.1v0.1l0,0h-0.1l-0.1-0.1h-0.1l-0.1-0.1v-0.1h0.1v-0.1h-0.1h-0.1l-0.1,0.1h0
	l-0.1,0.1h-0.1l-0.1,0.1v0.1v0.1l0.1,0.1l0.1,0.1l0.1,0.1l0.1,0.1l0.1,0.1l0.1,0.1l0.1,0.1l0.1,0.1l0.1,0.1l0.2,0.1l0.1,0.1l0.1,0.1
	l0.1,0.1H219.3L219.3,113.6l0.1,0.2l0.1,0.1v0.1h0.1l0.1-0.1v0.1L219.3,113.6z M202.6,109.5L202.6,109.5L202.6,109.5v0.2v0.1v0.1
	v0.1v0.1v0.1l0.1,0.1l0,0h0.1h0.1l0.1,0.1h0.1h0.1l0.1,0.1v0.1h0.1h0.1h0.1h0.1h0.1h0.1h0.1h0.1h0.1h0.1h0.1h0.1h0.1h0.1h0.1
	l0.1,0.1h0.1l0.1,0.1l0.1,0.1l0,0l0.1,0.1l0,0l0.1,0.1l0.1,0.1h0.1v0.1v0.1v0.1v0.1l0.1,0.1v0.1v0.1v0.1h0.1h0.1h0.1h0.1h0.1h0.1
	h0.1h0.2h0.1h0.1h0.1h0.1h0.1h0.1v-0.1v-0.1l-0.1-0.1v-0.1l-0.1-0.1l-0.1-0.1l-0.1-0.1l-0.1-0.1h-0.1h-0.1l0.1-0.1l0,0l0,0V111v-0.1
	l0,0v-0.1l-0.1-0.1l-0.1-0.1l0,0h-0.1l-0.1-0.1l-0.1-0.1l-0.1-0.1v-0.1h-0.1l0,0l-0.1-0.1V110l0,0l-0.1-0.1h-0.1h-0.1l-0.1-0.1
	l-0.1-0.1l-0.1,0.1l-0.2-0.1v-0.1l-0.1-0.1l-0.1-0.1h-0.1l-0.1-0.1l-0.1-0.1l-0.1-0.1l-0.1-0.1l-0.1-0.1l-0.1-0.1l-0.1-0.1h-0.1
	l-0.1-0.1l-0.1-0.1l0,0l-0.1-0.1l-0.1-0.1h-0.1h-0.1l-0.1-0.1l-0.1-0.1H203h-0.1l-0.3,0.1h-0.2v0.1l-0.1,0.1v0.1v0.1v0.1
	L202.6,109.5z M202.4,111.2L202.4,111.2l0.1,0.2v0.1l0.1,0.1l0.1,0.1h0.1h0.3h0.1h0.2h0.1l0.1,0.1h0.1h0.1h0.1h0.1h0.1h0.1h0.1h0.1
	l0.1-0.1l0.1-0.1l0.1-0.1l0.1-0.1v-0.1l0.1-0.1l0.1-0.1l-0.1-0.1l-0.1-0.1l-0.1-0.1l-0.1-0.1l-0.2-0.1l-0.1-0.1h-0.1H204l-0.1,0.1
	h-0.1h-0.3l-0.1-0.1l-0.1-0.1h-0.1l-0.2-0.1l0,0l-0.1,0.1l-0.1,0.1v0.1l-0.1,0.1L202.4,111.2z M217.1,110.8L217.1,110.8l-0.2-0.1
	l-0.1-0.1l-0.1-0.1v-0.1l-0.1-0.1l-0.1-0.1l-0.1-0.1h-0.1l0,0v0.1l0,0l0.1,0.1v0.1v0.1l0.1,0.1h0.1l0.1,0.1v0.1v0.1v0.1v0.1l0.1,0.1
	l0.1,0.1l0.1,0.1h0.1v-0.1L217.1,110.8L217.1,110.8z M218,108l0.1-0.1l0.1-0.1l0.1-0.3l0.1-0.1l0.1-0.2l0.1-0.1l0.1-0.1l0.1-0.1
	l-0.1-0.1l-0.2-0.1l-0.1-0.1h-0.1l-0.1,0.1l-0.1,0.1h-0.3l-0.1,0.1v0.2l-0.1,0.1l-0.1,0.1h-0.1v-0.1h0.1V107l0.1-0.1l0.1-0.2v-0.1
	v-0.1h-0.1h-0.2l-0.2-0.1H217l-0.1,0.1h-0.1h-0.3l-0.1-0.1l-0.2-0.1l-0.1-0.1h-0.3h-0.4h-0.2H215l-0.2-0.1l-0.2-0.1l-0.1-0.1
	l-0.1-0.1h-0.1l-0.1-0.1l-0.1-0.1H214l-0.1-0.1l-0.1-0.1l-0.1-0.1l-0.1-0.1l-0.1-0.1l-0.1-0.1l-0.1,0.1l-0.1,0.1l-0.1,0.1H213h-0.1
	l-0.1-0.1h-0.1h-0.2H212l-0.3-0.1l-0.2-0.1h-0.2l-0.1,0.1v0.1l0.1,0.1l0.1,0.1l0.1,0.1v0.1l0.1,0.1l0.1,0.1h0.1v0.2l0.1-0.1h0.1h0.1
	l0.1,0.1l0.1,0.1l0.1,0.1l0.1,0.1l0.1,0.1l0.1,0.1l0.1,0.1l0.1,0.1l0.1,0.1l0.1,0.1l0.1,0.1v0.1v0.1h-0.1l0,0v0.1l0.1,0.1l0.1,0.1
	l0.1,0.1l0.1,0.1l0.1,0.1h0.1l0,0v-0.1h-0.1l-0.1-0.1v-0.1v-0.1h0.1h0.1l0.1,0.1l0.1,0.1l0.1,0.1l0.1,0.1l0.1,0.1h0.1l0.1,0.1
	l0.1,0.1l0.1,0.1v0.1L214,108h-0.1l-0.1-0.1h-0.1l0.1,0.1l0.1,0.1l0.1,0.1l0.1,0.1l0.1,0.1l0.1,0.1h0.1l0,0l-0.1-0.1v-0.1v-0.1h0.1
	h0.1l0.1,0.1l0.1,0.1l0.1,0.1l0.1,0.1l0.1,0.1v0.1l-0.1,0.1l0,0h0.1l0,0l0.1,0.1l0.1,0.1h0.1l0.1,0.1l0.1,0.1l0.1,0.1h0.1l0.1-0.1
	l0.1-0.1l0.1-0.1h0.1h0.1l0.1-0.1h0.1v0.1v0.1l0,0l0.1-0.1l0.1-0.1l0.1-0.1l0.1-0.1l0.1-0.1l0.1-0.1v-0.1h-0.1h-0.1h-0.1l-0.1-0.1
	v-0.1v-0.1V108l-0.1-0.3v-0.1l0.1-0.1l0.1-0.1h0.1l0.1,0.1v0.1l-0.1,0.1v0.1l0.1,0.1v0.1v0.1v0.2v0.1l0.1-0.1l0.1-0.1l0.1-0.1
	L218,108z M216.4,113.4L216.4,113.4L216.4,113.4l-0.1,0.1L216.4,113.4l0.1,0.1v0.1l-0.1,0.1v0.1v0.1h-0.1l0,0v0.1v0.1h0.1V114
	l0.1-0.1v-0.1l0.1-0.1l0.1-0.1v-0.1l-0.1-0.1H216.4z M216,113.4L216,113.4L216,113.4l-0.1-0.1v-0.1l0.1-0.1h0.1l0,0L216,113h-0.1
	l0,0l0,0l0,0l-0.1,0.1h-0.1v0.1v0.1h0.1l0.1,0.1H216L216,113.4L216,113.4L216,113.4L216,113.4L216,113.4z"/>
<polygon class="st9" points="173.4,186.2 172.7,185.6 172.1,185.4 173.1,181 172.9,175.3 171.4,169.8 168.9,166.1 168,164.6 
	166.5,162.1 165.5,159.7 165.3,158.6 157.7,155.6 155.9,156 153.6,157.2 151.7,155.9 149.2,152.3 147.3,150.9 145.6,150.3 
	140.8,150.1 139.1,156.8 137.8,158.6 139,158.7 140.8,159.4 141.8,159.6 141.1,161.1 138.6,162.9 137.8,164 137.8,165.4 
	138.4,166.3 139.3,167 139.9,168.2 140,172 140.4,173.9 141.4,174.7 142.2,175.2 143.1,176.5 143.7,178.1 144,179.6 144.6,180.9 
	148.1,184.3 148.6,185.7 148.9,188.6 149.2,189.7 151.3,194.3 152,197.1 152.3,201 152.7,202.8 154.6,205.1 155.4,206.8 
	155.3,207.5 155.4,212.1 154.9,215.9 155.2,217.1 156.9,217.6 158.8,217.1 159.5,215.9 160,214.8 162.1,213.9 162.9,211.8 
	163.7,211.1 164.6,210.9 165.9,211.2 167.5,211 168.1,211.1 168.8,210.9 169.9,210 173,204.6 173.5,198.4 173.2,192.2 174.1,186.5 
	"/>
<path vector-effect="non-scaling-stroke" class="st10" d="M70.4,279.8l-27.9,2.3l3.9-36.9l30.8-30l11,27.7L70.4,279.8z"/>
</svg>
