<?xml version="1.0" encoding="utf-8"?>
<!-- Generator: Adobe Illustrator 23.0.1, SVG Export Plug-In . SVG Version: 6.00 Build 0)  -->
<svg version="1.1" id="Layer_1" xmlns="http://www.w3.org/2000/svg" xmlns:xlink="http://www.w3.org/1999/xlink" x="0px" y="0px"
	 viewBox="0 0 300 300" style="enable-background:new 0 0 300 300;" xml:space="preserve">
<style type="text/css">
	.st0{fill:#757575;}
	.st1{font-family:'GoodlifeBrush';}
	.st2{font-size:18px;}
	.st3{font-size:30px;}
	.st4{font-size:15.6px;}
	.st5{fill:none;}
	.st6{enable-background:new    ;}
	.st7{fill:#C77885;}
	.st8{opacity:0.8;fill-rule:evenodd;clip-rule:evenodd;fill:#C77885;enable-background:new    ;}
	.st9{opacity:0.6;fill:#C77885;enable-background:new    ;}
	.st10{opacity:0.4;fill:#C77885;enable-background:new    ;}
	.st11{opacity:0.2;fill:#C77885;enable-background:new    ;}
</style>
<text transform="matrix(1 0 0 1 62.6938 15.9042)" class="st0 st1 st2">Company Rental Interest</text>
<text transform="matrix(1 0 0 1 2.7295 55.3361)" class="st1 st3">1. </text>
<text transform="matrix(1.2345 0 0 1 31.3491 55.3361)" class="st1 st4">Cyprus</text>
<rect x="122.9" y="184.3" class="st5" width="78.5" height="59.4"/>
<rect x="135" y="45.9" class="st5" width="139.5" height="37.3"/>
<g>
	<text transform="matrix(1.2345 0 0 1 183.8364 57.1618)" class="st1 st4"> Monaco</text>
</g>
<rect x="201.1" y="225.7" class="st5" width="96.2" height="44.4"/>
<text transform="matrix(1 0 0 1 125.4617 132.6533)" class="st1 st3">3. </text>
<text transform="matrix(1.2345 0 0 1 151.0503 136.5662)" class="st1 st4">Malta</text>
<g>
	<g>
		<text transform="matrix(1.2345 0 0 1 17.4932 195.3367)" class="st1 st3">4.</text>
	</g>
	<text transform="matrix(1 0 0 1 44.6106 200.8912)" class="st1 st4"> Iceland</text>
</g>
<g>
	<text transform="matrix(1 0 0 1 121.332 286.8635)" class="st6"><tspan x="0" y="0" class="st1 st3">5</tspan><tspan x="13" y="0" class="st1 st4">.</tspan></text>
	<text transform="matrix(1 0 0 1 138.7192 287.006)" class="st1 st4"> United Arab Emirates</text>
</g>
<path class="st7" d="M113.9,66.4l-1.5,0.6l-8.1,3.6l-1.9,1.4L99,73.7l-1.5,0.4l-1.2-0.3l-2,2.5L91,78.2l-8.4,3.4l-1.8,0.1l-1,0.4
	l-3.1,0.2L73,84.4l-10.4,1.7L56,85.4L55.2,85l-8.4-0.4l-2-0.6l-1-0.2l-1-0.3L41,82.4l-1.1-0.2l0.6,1.7l0.2,1.6l-0.1,3.6l-0.2,2
	l-0.7,1.7l-1,1.4l-1.2,1l-1.6,0.4l-1.2-0.4l-1.1-0.7l-1.4-0.4l-1.5-0.2V94h-0.1v-0.1l-1.4-0.2h-0.8l0,0l-1,0.1l-0.8,0.3h-0.1
	l-0.7,0.3l-0.4,0.1l-0.3-0.1l-0.4-0.3L24.5,94l-0.3,0.1l-0.1,0.3L24,94.7l-0.7,0.5l-0.5,0.9l-0.6,1.7l-1,1.4l-1.3,1.3l-1.6,0.8
	l-1.9,0.1l-0.8-0.3l-0.7-0.6L13.6,99l-0.9-0.6l-0.5,0.3l-0.2,1l0.2,1.3l0.3,0.8l1,1.7l0.2,1v1.2l0.1,0.6l0.8,1.4l-0.4,0.7v0.7
	l0.3,0.7l0.3,0.6l0.4,0.4l1,0.6l0.5,0.4l1,2.9v0.5l0.2,0.2l0.3,1.6l0.3,0.3l1.8,1.4l0.7,0.4l0.8,0.3l1.9,0.2l0.9,0.2l0.8,0.3
	l2.3,1.4l1.7,0.8l1.9,0.3l1.9-0.2l0.5-0.2l0,0l2.4-0.8l1-0.1l1,0.1l1.5,0.4l0,0l0.7,0.2h0.1l0,0l0,0l0,0l0,0l0.1-0.1l0.1,1l1.3,2.5
	l-0.2,1v0.3h4v-0.3l-1-1.2v-1.5l0.3-0.5l0,0l0.4-0.9l2.1-1.9l0.6-0.4l0.7-0.2l3.2-0.4l3.2,0.4l0.6-0.1l1-0.7l0.7-0.3l3.3-0.7
	l1.3-0.8l0.1-1.5l0.7,0.8l1.1-0.2l1.3-0.6l1.4-0.3l0.6-0.3l0.6-0.6l0.4-0.6l0.4-0.4l0.6-0.2h1.5l0.7-0.2l0.2-0.3l0.3-1l0.3-0.2
	l0.4-0.2l0.1-0.4l-0.1-1.1l0.1-1l0.2-1l0.3-0.9l0.3-0.7l1.2-1.2l1-0.3l0,0l0.7-0.3l1.9-0.1h0.2l0,0l0,0l0.6,0.1l0,0l0,0v0.1h0.1l0,0
	h0.2h0.1l0.8,0.2l0.7,0.4l1.2,1.2l0.7,0.2l0.6-0.2L84,106l0.2-0.3h-0.1l0,0h0.1l0.2-0.2l0.3-0.4l0.4-0.3l2.1-0.6l2.4-0.3l0.5,0.3
	l0.5,0.6l1.1,0.3l1.1,0.1l0.6-0.1l-0.5-0.4l-0.6-0.9l-0.5-1l-0.5-1.5l-0.7-0.8l-0.7-0.5l-0.8-0.3l0,0l-1.4-1.2l-0.5-0.7L87,97.1
	l-0.4-0.6l-2.3-0.9l-0.6-0.5l0.3-4.3l0.2-1l0.5-1l1.2-1.8l0.9-0.5l1.1,0.1l1.1,0.3l1-0.1l0.7-0.5l0.4-0.7l0.8-1.7l1.1-1.3l1.3-1.1
	l9.6-5.8l4-3.5l4.3-2.7l0.2-0.2l1.1-0.2l0.3-0.1v-0.4L114,67l0.1-0.2l0.1-0.2l0.2-0.2l0.2-0.2L113.9,66.4z"/>
<rect x="155.7" y="40.5" class="st5" width="40.7" height="37.5"/>
<text transform="matrix(1.2345 0 0 1 155.7099 59.4264)" class="st1 st3">2.</text>
<polygon class="st8" points="279.7,55.3 281.2,54.1 280.9,53.3 279.4,54.2 279.2,52.9 279.9,49.6 278.6,47.7 277.5,47.6 276.1,47.1 
	275.8,48.4 276.5,49.2 271.9,53.9 270.1,53.8 266,55.5 265.1,55.5 263.6,57.1 263.2,57.1 260.7,56.6 260,57.6 259.5,59.3 
	258.3,60.2 256.3,64.1 255.2,64.8 254.7,69.2 254,71.3 253.6,73.3 252.1,75.2 250.9,76.1 250,78 248.5,80 247.5,81.3 246.5,82.2 
	244.8,84 241.4,81.7 239.3,83.1 238,85 236.5,87.1 235.1,87.9 232.3,90.2 230,89.9 229.7,90.5 231.4,91 226.7,95.4 222.7,98.7 
	217.2,102.8 214,105.9 214.7,107.5 215.3,109.5 216.2,110.7 216,114 215.3,114.4 214,114.3 212.9,114.5 210.4,115.8 207.5,121.3 
	208.7,122.2 214.9,126.6 218.8,129.5 222.9,132.8 226,135.3 226.4,135.6 229.6,138.1 239.9,129.4 237.9,125.1 237.7,124.9 
	237,124.1 233.6,124.2 233.1,123.8 231.8,123.8 231.4,123.2 231.2,120.8 231,120.2 229.2,119.9 229.1,119.7 230.8,117.9 231,117.8 
	231.9,117.8 232.8,118.1 233.7,119.2 235.2,120.9 237,120 237.2,120.1 237.6,120.1 239,122 239.7,122.5 244,122.4 249.1,118.6 
	250.7,118.7 251.9,117.8 252.3,116.4 253.4,115.2 253.8,113.5 254.5,110.8 254.1,108.6 253.2,107.8 248.8,109 248.8,109 
	241.8,110.9 240.8,109.3 240,106.7 239,102 239.6,99.3 239.7,99.2 239.9,99.1 250,96.7 253.8,95.8 258.2,94.1 258.6,93.4 
	261.2,82.9 262.1,79.7 262.3,79 264.2,75.1 264.7,70.3 265.1,68.9 266.6,67 269.1,64.6 271.2,64 272,62.9 273.4,61.9 273.6,62 
	275,64.3 276.7,65.9 278.1,66.6 281.2,65.3 281.6,64.1 "/>
<path class="st9" d="M120.7,139.5l0.3-0.3V139l-0.1-0.1l-0.6,0l-0.3,0.3v0.2l0.1,0.1L120.7,139.5z M89.8,133.4l-0.1-0.1h-0.2
	l-0.1,0.1v0.5l0.1,0.1l0.3-0.3L89.8,133.4z M121.3,140.9l-0.5,0l-0.2,0.5l-0.4-0.5l-0.7,0.2l-0.2-0.2h-0.4l-0.3,0.3l0.2,0.2v0.2
	l0.2,0.2l0,0.9l0.3,0.6l1,0.1L120,144h-0.2l-0.4,0.7l-0.3,0.1l0.1,0.3l0.5,0l0.2-0.2l0.2,0.2l0.9,0l0.5-0.4l0.4,0.2l0.7,0l0.2-0.2
	l1.3,0l1-1l-0.3-0.6h-0.2l-0.7-0.9l-0.5-0.5h-0.4l-0.5-0.9h-0.4l-0.4,0.4l-0.4-0.2L121.3,140.9z M116.9,139.3h1.4l0.4-0.4h0.9
	l1.1-0.7l0.7,0l0.3-0.3l-0.2-1.6l-1-1h-0.2l-0.1-0.4l-1.2-1.4l-1.3-1.1l-0.2,0.2l-0.4,0l-0.6-0.8l-0.3-1.5l-0.9-0.2l-0.5,0.4l-1.1,0
	l-0.5-0.9l-0.7-0.2l-0.5-0.9h-0.7l-0.4,0.3l-0.1,0.3l-0.7,0.2l-0.7-0.5l-0.3-0.6h-0.4l-0.2,0.2l-0.4-0.2l-0.9-1.3l-0.9-0.7l-0.7-0.2
	l-0.7,0.5l-0.1-0.6l-0.4-0.6l-0.9,0l0-0.9l-0.7,0.2l-0.4-0.4l-0.4,0l-0.2,0.2h-0.5l-0.5-0.5l-0.9,0l-0.2,0.2l-0.2-0.2l-0.7,0
	l-0.2,0.2l-0.7-0.2l-0.4,0.2l-0.4-0.2l-0.7,0.4l-0.2-0.2h-0.4l-0.2,0.2l-0.7,0l-0.7,0.4h-1.5l-0.9,0.9l-0.4,0l-0.2-0.2l-0.2,0.2
	l-0.4,0l-0.5,0.5l-1.5-0.2l-0.5,0.8l0,0.7L89,129l0.7,0.2l0.1,0.8l0.4,0.4l0,0.5l-0.7,0.7v0.2l0.9,1.8l-0.7,0.7l0,0.7l-0.9,1.3
	l0.3,0.6l0.7,0l0.5,0.4l0.6,0l0.2,0.2l0.9-0.2l0.2-0.2l0.6,0l0.5,0.5l0.9,0l0.2,0.5l0.5,0l0.5,0.3l-0.5,0.1l-0.1,0.3l0.4,0.5
	l0.7,0.5l0.4,0.9H97l0.2,0.2h0.4l0.7-0.4l0.7,0.4h1.3l0.2,0.2l1.4,0.2l0.2,0.2l0.4-0.2l0.5,0l0.8,0.8l0.3,0.6h0.7l0.7,0.7l0.5-0.2
	l0.2-0.4l0.5-0.4l0.9-0.2l0.2-0.9l0.5,0.7l0.4,0.2l0.7,0l0.4-0.4l0.9,0l0.2-0.2l0.4-0.2l0.7,0.2l0.7-0.4l0.5-0.6l0-0.4l0.6-0.6
	l0.5-0.5l0.7,0.5l0.4,0l0.5-0.4l0.2,0.2l0.5,0L116.9,139.3z M145.3,158.8l0.1-0.1v-0.2l-0.1-0.1h-0.2l-0.1,0.1v0.2l0.1,0.1H145.3z
	 M135.9,155.9l0.3-0.3v-0.4l-0.1-0.1h-0.2l-0.2,0.2h-0.2l-0.1,0.1v0.5l0.1,0.1H135.9z M137.4,155.2l0.1-0.3l-0.5-0.3l-0.2,0.2h-0.2
	l-0.1,0.3l0.1,0.1L137.4,155.2z M173.6,182.5H173l-0.2-0.2l-0.9,0l-0.2,0.2l-0.7,0.2l-0.1-0.3l0.3-0.3h0.5l0.2-0.2l1.4,0l0.1-0.3
	l-0.4-0.4l-0.4-1.1l-0.6-0.8l-0.9-0.2l-0.4-0.7l-0.2,0l-0.4-0.4l-0.5,0l-0.5-0.4l-0.9-1.3l-0.5-0.2l-0.6-0.7l-1.1-0.7l-0.4-0.4
	l-0.7,0.2l-0.2-0.2l-0.7-0.2l-0.4-0.5l-1.5-0.2l-0.1,0.6l0.7,0.9l-0.3,0.1l-0.4-0.2l-0.3,0.3l0.7,0.9l-0.3,0.1l-0.2-0.2h-0.2
	l-0.7-0.9l-0.6,0.1v0.4l0.9,1.3v0.4l-0.3,0.1l-0.4-1.2l-0.5-0.6l-0.5,0.1l0.7,1.8l-0.1,0.6l-0.4-0.6l0-0.7l-0.3-0.3l-0.5,0.2
	l-0.2,0.2l-0.5,0l-0.4,0.2l-0.5,0.6l0,0.7l-0.3,0.3l-1-0.3l0.7-0.2l0-0.9l0.8-0.8l0.5,0l0.1-0.6l0.3-0.3h0.2l1.1-1.3h0.5l0.6-0.6
	l-0.2-0.2l0.2-0.4l-0.1-1l-0.2,0.2l-1.5,0l-0.5,0.7l-0.5,0.2l-0.4,0.4H158l-1.3,1.3l-0.1-0.6l-1.3,0l0.1-0.3h0.9l0.2-0.2l0.8-0.1
	l0-0.5l-0.6-0.6h-0.4l-0.3-0.8l0.8-0.8l1.1-0.2l0.7,0.4l0.5,0l0.4,0.5l0.5,0l0.5-0.6l-0.3-0.6l-0.5-0.2l-0.4-0.4h-0.5l-0.1-0.3
	l0.2-0.7l-0.8-0.3l-0.9-0.7h-0.4l-0.4,0.7l-0.5,0l-0.2,0.2l-0.4-0.8l0.5-0.1l0.3-0.3l0-0.7l-0.2-0.2l0.5-0.9l-0.5-0.1l-0.2,0.2
	l-0.9,0l-0.2,0.2l0-0.4h0.5l0.3-0.3V165l-0.6-0.6l-0.7,0l-1-1l-0.3-0.6l-0.9-0.2l-0.2-0.2h-0.4l-0.4,0.4l-0.9,0l-0.2,0.2l-0.9-0.2
	l-0.7-0.4l-0.4-0.7l-0.2,0.2l-0.5-0.1l0-1.1l-0.3-0.6l-0.4,0.1l-0.5,1l-0.5-0.6l-0.2-0.9l-0.5-0.8l-0.4-0.2l-0.5,0l-0.7-0.4
	l-0.2-0.2l-0.7,0l-0.5,1.1l-0.6,0.2l-0.4,0.4l-0.3-0.3l0.2-1.6l0.5-0.8l0.4,0l0.5-0.6l-0.3-0.3h-0.4l-0.2,0.2l-0.5,0l-0.4,0.2
	l-0.7,0.7l-0.5-0.2l-0.4,1.3l-0.7,0.2l-0.2-0.2l-0.4,0l-0.7,0.9l-1.1,0l-0.2-0.2l-0.5,0l-0.2,0.2l-0.4,0.2l-0.2-0.2l-0.2,0.2h-0.4
	l-0.5,0.7h-0.7l-0.2,0.2l-0.3-0.1l0-0.4l0.9-0.9l0.2-0.7l0.4-0.4v-0.4l-0.3-0.1v-0.2h0.7l0.4,0.2l0.5-0.6l0.2-1.1l-0.4-0.2l0.4-0.4
	l0-0.5l-0.6-0.3l-0.2,0.2h-0.6l-0.2-0.2h-0.7l-0.2-0.2l-0.4,0l-0.2,0.2l-0.7,0l-0.4-0.7h-0.5l-0.7,0.5l-1.6,0.2l-0.2,0.2l-1.1,0
	l-0.2,0.2l-1.1,0l-0.2,0.2l-0.3-0.3l0-0.4l-0.6-0.7l0-0.2l0.5-0.6l0.7,0l0.4-0.2l0.2-0.5l0.4,0l0.7-0.9h0.2l0.4-0.9l1.3,0l0.2-0.2
	h0.4l0.6-0.8l-0.4-0.7l-0.2-0.9l-0.3-0.1l-0.1-0.3l-0.8-0.8l-0.4,0.2h-0.9l-0.1,1l0.4,0.2l-0.1,0.1h-0.4l-0.5,0.4l-1.3-0.2l-0.3,0.3
	v0.5l-0.3,0.3l-0.4-0.4h-0.4l-0.4,0.4l-0.4,0l-0.2-0.2h-0.7l-0.2,0.2h-0.5l-0.2-0.2l-1.3,0l-0.2-0.2l-0.5,0.2v0.4l0.4,0l0.5,0.4
	l0.4,0l0.1,0.3l-0.3,0.3l-0.5,0l-0.4,0.7l-0.4,0.2l-0.4-0.2l-0.3,0.3l0,0.5l-0.5,0.9l-0.2,0.9l0.5,0.3h0.5l0.2,0.2l0.7,0l0.2-0.2
	l1.3,0l0.4,1l0,0.7l-0.2,0.2l0.1,0.6l1,0.1l-0.7,0.2l0.2,1.4l0.1,0.1l0.2-0.2l0.1,0.3l-0.5,0.4l0,0.7l-0.3,0.1l-0.5,0.9h-0.7
	l-0.3,0.3l-0.2,1.1l0.4,0.2l0.3,0.6l0.9-0.2l0.7,0.9h0.7l0.3,0.3l-0.2,0.7l0.4,0.5l-1.3,0l0.1,0.6l0.8,0.3l-0.2,0.7l0.2,0.2
	l-0.3,0.3l-0.5-0.7l-0.7,0l-0.2-0.2l-0.3,0.3l-0.2,0.9l-0.4,0.2l0,0.7l0.8,0.5l0.1,0.1l-0.2,0.2l0.7,0.7l0.4,0.7l-1,0.6l-1.3-0.4
	l-0.1,0.6l0.4,0.4l-0.5,2l0.6,0.1l0.8,0.8l0.2,0.4l0.4,0.9l0,1.3l-0.2,0.7l0.4,0.6h0.2l0.5,0.6l0,0.5l0.3,0.3l0.4,0l0.2,0.4l0.4,0.2
	h0.5l0.2,0.2l0.7,0l-0.1,0.6l0.3,0.3l0.4,0.2h0.5l0.6,0.8l0,0.7l0.5,0.1l0.2,0.2l0.4,0l1.1,1.3l0.4,0.2h0.7l0.5,0.9l0.4,0.2h0.9
	l1.1,0.9l1.3,0.8l0.2,0.7l-0.2,0.2l0.1,0.3l0.9,0l0.4,0.5l0.4,0.2l0.7,0l0.2,0.2l1.1,0l0.4,0.2l0.1,0.8l0.4,0.8l0.4,0.2l0.5,0
	l0.2,0.2l1.3,0l0.2-0.2l0.7,0.4l0.7,0l0.1,0.3l0.6,0.6l0.2-0.2l0.4,0l0.6,0.5l0.9,0.2l0.9,0.7h0.5l0.5-0.9l0.6,0.4l0.5-0.2l0.2,0.2
	l0.5,0l1.3,1.3l1.5,0.2l0.2-0.2h0.7l0.5,0.5h0.5l0.2-0.2l0.9,0l0.4,0.4l1.1,0l0.5,0.5l0.7,0l0.4,0.4l1.1,0.7l0.7,0l0.4,0.2l0.2-0.2
	l1.1,0l0.2-0.2l0.2,0.2l1.3-0.2l0.2,0.2l1.3-0.2l1.4-0.9l0.1-0.4l-0.2-0.2l-0.3-1l-0.4-0.2l-0.4,0.2l-0.4-0.7l-1-0.3l-0.4-1.3
	l0.6-0.1l0.3-0.3V192l-0.5-0.5l0.3-0.3l0.9,0l0.2-0.2l0.4,0l0.5,0.9h0.4l0.2,0.2l0.5-0.1l0.2-0.7l-0.2-1.3l-0.4-0.2l0.1-0.8l0.4,0.5
	h0.4l0.7,0.9l0.9,0.4l0.3,0.6l-0.4,2l0.4,0.4l0.2,0.9l0.3,0.1l0.6-0.3l0.2-0.4l-0.2-0.7l0.5-1.3l-0.4-0.7l0.2-0.9l-0.4-0.1l-0.4-0.8
	l0.6-0.1l0.5,0.5l0.1-0.6l-0.5-0.7l0.5-0.3l0.5,0.2l0.4,0.4l0.8-0.1l0-0.5l-0.3-0.6h-0.5l-0.3-0.3l0.5-0.8h0.7l0-0.7l-1.6,0
	l-0.5-0.8l0.5-0.3l0.5,0.4l0.3-0.3l0-0.4l0.5-0.4l0.1-0.3l0.4-0.2h0.5l0.1-0.6L173.6,182.5z M137.2,203.3l-0.2-0.2l-0.4,0l-0.1,0.3
	l0.3,0.3l1.2-0.1l-0.1-0.3L137.2,203.3z M116.3,139.7l0.3,0.3l0.4,0l0.3-0.3l-0.8-0.4L116.3,139.7z M158.2,171.3l-1.3,0l-0.3,0.6
	l0.5,0.6l0.7,0l0.2,0.2h0.4l0.6-1l-0.6-0.1L158.2,171.3z M136.3,203.7l-0.1,0.1v0.2l0.1,0.1l0.2,0l0.1-0.1v-0.2l-0.1-0.1H136.3z
	 M135.5,203.7l-0.1,0.1v0.2l0.1,0.1h0.4l0.1-0.1v-0.2l-0.1-0.1H135.5z M118.8,142.6l-0.6-0.6l-0.5,0l-0.1,0.6l0.3,0.3l1-0.1V142.6z"
	/>
<path class="st10" d="M32.4,239.8L32.4,239.8L32.4,239.8L32.4,239.8l0,0.2l0,0h0l0-0.1l0,0l0,0l0,0l0.1-0.1l0-0.1h0l0,0h0l0,0
	L32.4,239.8L32.4,239.8L32.4,239.8L32.4,239.8L32.4,239.8L32.4,239.8z M32.3,240L32.3,240l-0.1-0.1l-0.1,0.1l0,0l0,0v0.1l0,0l0,0.1
	h0.1l0,0.1l-0.1,0l0,0l0,0l0.1,0l0.1-0.1v0l0,0L32.3,240L32.3,240z M30.3,237.2L30.3,237.2L30.3,237.2l0-0.1L30.3,237.2l-0.2,0
	L30.3,237.2L30.3,237.2L30.3,237.2z M99.5,249.8L99.5,249.8l-0.2,0h0l0,0l0,0l0,0v0.1l0,0l0,0v0l0,0l0.1,0.1l0,0l0.1,0l0.1,0
	L99.5,249.8L99.5,249.8L99.5,249.8z M31.7,239.3l0.2,0l0,0l0-0.1v0L32,239l0-0.1l0.1,0l0,0l-0.1,0l-0.3,0.2L31.7,239.3L31.7,239.3z
	 M32.8,241l0.1-0.2h0l0,0l0.5-0.1l0-0.1l-0.2-0.1l-0.4,0.1l0,0l-0.1,0l0,0l0,0.1L32.8,241L32.8,241z M80,263.5l0,0.1l0,0l0.5-0.7
	l0-0.1l-0.1,0.1L80,263.5z M79.6,264.1L79.6,264.1l0,0.1l0.1,0l0.2-0.3l0,0L79.6,264.1z M76.9,264.1l0,0.2l0,0L76.9,264.1
	L76.9,264.1L76.9,264.1z M79.4,264.3L79.4,264.3l-0.1,0.1l0.3-0.1l-0.1,0L79.4,264.3z M78.6,264.5L78.6,264.5l0.6-0.1l-0.3,0
	L78.6,264.5z M79.2,264.4L79.2,264.4L79.2,264.4L79.2,264.4z M77.9,264.5l0,0.1l-0.3,0.1l0.8-0.1l0,0l-0.1-0.1L77.9,264.5z
	 M75.4,264.6L75.4,264.6l0.3,0.1l0.1,0l-0.2,0L75.4,264.6z M74.9,264.6l-0.5,0.1v0l0.6-0.1l0,0L74.9,264.6z M76,264.6L76,264.6
	l0.8,0l-0.4,0L76,264.6z M96.2,215.5L96.2,215.5L96.2,215.5L96.2,215.5z M68.8,212.5l0.2-0.1l0-0.2l-0.1-0.1l-0.2-0.3l-0.1,0.1
	l0,0.3L68.8,212.5z M70.8,265.8l-0.1,0l-0.1,0l-0.1,0.1l-0.2,0.2l0,0.2l0.4-0.1l0.1,0l0.1,0l0,0.1l0,0.1l-0.1,0.1l0.1,0l0.1-0.2
	l0.1-0.2l0-0.2L70.8,265.8z M65.6,223.1l0,0.2l0.1,0.1l0.1,0.1l0.1,0l0.1-0.1h0v-0.2l-0.1-0.3l-0.1-0.1l-0.1-0.1l-0.2-0.2l-0.1,0.1
	l0.1,0.3L65.6,223.1z M50.8,270.7L50.8,270.7l0-0.1l-0.2,0l-0.2,0.1l0,0.2l0.1,0.2l0.1,0.1l0,0.2l0.1,0.1l0.1-0.1l0.1-0.2l0.1-0.2
	L50.8,270.7L50.8,270.7z M104.6,240.5l-0.1-0.1v-0.1l0-0.2l0-0.4v-0.4l0-0.3l-0.3,0.4l-0.2,0.5l0,0.1l-0.1,0.1l-0.1,0.3l-0.1,0.1
	l0,0l0-0.1l-0.1-0.1l-0.1,0h-0.3l0.1-0.1l0.1-0.1l0.1-0.1l0.1,0v-0.1l-0.1-0.1l-0.6,0.1v-0.1l0.2-0.1l0.3,0l0.3-0.1l0-0.1v-0.1
	l0-0.1l0-0.1l0.1-0.2l0-0.1l-0.1-0.1h-0.3l-0.6,0.1l-1.2-0.1l-0.9,0.2l-0.2-0.2h0.5l0.5-0.1h1.1l1-0.3l0.2-0.1l0.3-0.5l0.2-0.2
	L104,237l-0.2-0.2l-0.4-0.3l-0.2-0.1l-0.8,0.2l-0.4,0l-1.3,0.5l-0.1-0.2l0.2-0.1l0.7-0.1l0.3-0.2l0.2-0.1h0.4l0.3-0.1l0.2-0.2l0-0.3
	l-0.6-0.2l-0.2-0.2l0.3-0.2l0.7,0.1l0.3-0.2v-0.2l0-0.2v-0.1l-0.1-0.1l0.3-0.2l0.1-0.1V234l-0.1-0.4l0-0.1l0.1-0.2l0.1-0.2l0.1-0.3
	l0-0.4l-0.1-0.1l-0.3-0.3l0,0l-0.1,0l-0.1,0l0-0.1v-0.1l0-0.1l0-0.1l-0.2-0.1l-0.2,0.2l-0.4,0.6l-0.1-0.1l-0.1-0.1l-0.1-0.1l0-0.2
	l0-0.2l0-0.1l-0.1-0.1l-0.1,0l-0.2,0v-0.1l0.1,0l0-0.1l0-0.2l-0.1-0.2l-0.1-0.1l-0.2,0l-0.9,0.2l-0.2,0l-1.8-1.1l0.1,0.2L99,230
	l0.1,0.2l-0.6-0.5l-0.2,0l-0.2,0.1l-1,1.5l-0.2,0.3l-0.1,0.1l-0.3,0.3l-0.1,0l-0.1,0.1l-0.2,0.4l-0.1,0.1l0-0.3l0.1-0.3l0.1-0.2
	l0.6-0.7l0.2-0.4l0.4-0.5l0.2-0.5l0.2-0.2l0.4-0.1l-0.2-0.2l-0.5-0.3l-0.2-0.1l0,0l0-0.1l-0.1-0.2l0-0.2l0.2-0.2l0.3-0.8l-0.3-0.3
	l-0.3,0.1l-0.6,0.3l-1.7,0.5l-0.6,0.4l-0.3,0.1l-0.3-0.1l0.1-0.3l0.2-0.4l0.1-0.4l-0.4,0.5l-0.2,0.2l-0.2,0l0.4-0.4l0.2-0.3l0-0.3
	l0.2-0.2l0.6-0.4l0.5-0.7l0.1-0.1l0-0.1l0.2-0.5l0-0.1l0-0.2v-0.1l0-0.1l0.1-0.1l0-0.1l0-0.2l-0.1-0.4l0-0.2l0-0.1l-0.1,0l-0.1-0.1
	l0-0.2l0-0.4l-0.1-0.3l-0.2-0.2l-0.2-0.1l-0.4,0l-0.7,0.6l-0.4,0l-0.5-0.2l-0.9,0l-0.2-0.1l0.1-0.1l0.2-0.2l0.1-0.1l0-0.4l-0.1-0.1
	l-0.5,0l-0.1,0l-0.2-0.2l0.1-0.4l0.2-0.2l0.5,0l0.1-0.1l0.8-0.7l0.1-0.1l0.1-0.3l0-0.2l-0.1-0.1l0-0.1l-0.2-0.3l0,0l0-0.2l-0.1-0.1
	l-0.2-0.1l0.2-0.3l0.3-0.2l0.7-0.2l0.6-0.5l1.4-0.6l0.4-0.4l-1.5,0.3l-0.2-0.1l-0.3-0.3l-0.2-0.1l-0.7,0.1l-0.2,0.1l-0.3,0.3
	l-0.1,0.3l-0.1,0.3l-0.1,0.2l-0.6,0.4l0,0.1l0,0.2l0,0.2l-0.6,0.2h-1l-0.2,0.1l-0.1,0.2l0,0.3l0,0.4l0,0.4l-0.1,0.3l-0.1,0.2
	l-0.1,0.1l0,0.1l0,0l0.1,0l-0.2,0.2l-0.1-0.2l-0.2-0.3l-0.3-0.2l-0.2-0.3l-0.2-0.1l-0.1-0.1l0-0.2l0-0.2l-0.1,0.1l-0.1,0h-0.1
	l-0.1-0.1l0-0.1l-0.1,0l-0.3,0.1l-0.6,0l-0.1-0.1l0.1-0.3l0-0.2l0-0.1l-0.3-0.1l-0.1-0.1l-0.1-0.1l-0.1,0.1l-0.1-0.3l0.2-0.2
	l0.2-0.3l0.3-0.6l-0.2-0.5v-0.1l0-0.2l-0.1-0.2l-0.1-0.1l-0.1-0.1h-0.8l0-0.1l0-0.2l0-0.1l-0.1,0.1l-0.3-0.1l-0.3,0.1l-0.1,0
	l0.1-0.2l0-0.1l-0.1-0.2l0-0.1l0.2-0.2V214l0,0l-0.1,0l0.1-0.3l0.1-0.1l0.1-0.1l0.1-0.2l-0.4-0.2l-0.7-0.7l-0.4,0.2l-0.1,0.1
	l-0.4-0.2h-0.2l-0.2,0.1l-0.1,0.1l-0.1,0.4l-0.1,0.1l-0.1,0l-0.1-0.2l0-0.1l-0.1,0.1l-0.1,0.2l-0.1,0.1v0.1l0,0l-0.2,0.1l-0.1,0
	l-0.1-0.1l0,0l0.1-0.1l-0.1,0l-0.1-0.1L82,213l-0.1-0.1l-0.1,0l-0.2,0.2l-0.1,0.1l0,0.1l0,0.1v0.1l0,0.1l-0.1-0.1l-0.1-0.1l0-0.2
	l0-0.2v-0.2l-0.1,0l-0.2,0.1l-0.1,0.1l-0.1,0.2l0,0.2l0,0.1l-0.1,0l0-0.1l0-0.1l-0.1-0.1l-0.2,0l-0.2,0.2l-0.1,0.3l0.2,0.3l0.2,0.6
	l0.1,0.2v0.1h-0.2l0.1,0.3l0,0.1l0.1,0.1l0,0.1l-0.1,0.1l0,0.1l0.1,0l0,0l-0.1,0.3l0,0.2l0.2,0.2l0,0.1l0,0.2l0,0.2l0,0.1l0,0l0,0
	l0,0.1l0.1,0.3l0.1,0.1l0.1,0.2l0,0.3l0,0.2l-0.1,0.2l-0.1,0.2l0,0.1v0.1l-0.1,0.1l-0.1,0.2l-0.1,0.3l0,0.3l0.1,0.2l0.2,0.2l0.3,0.3
	v0.1l-0.2,0l-0.3-0.5l-0.2-0.2l-0.2,0l-0.7,0.3l0.2-0.2l0.7-0.4l-0.2,0l-0.3,0.2l-0.5,0.2l-0.4,0.3l0.1,0.2l0,0.1v0.2l0.1,0.3
	l0.1,0.1l0.1,0.2L80,221v0.1l-0.3-0.1l-0.2-0.3l-0.2-0.4l-0.2-0.2l-0.1,0l-0.1,0.2l-0.1,0.4l-0.1,0l-0.1-0.3l-0.1-0.1l0.1-0.1
	l0.1-0.1l0.1,0H79l-0.3-0.1l-1,0.3l-0.3,0.2l0.1,0.1l0.1,0l-0.1,0.1l-0.1,0l-0.1,0l-0.1-0.1v-0.1h0.1v-0.2l0-0.1l-0.3-0.8l-0.2-0.4
	l-0.2-0.1l-0.8-0.1l-0.2-0.2l-0.1,0.3l-0.5,0.2l-0.2,0.2l-0.2,0.3l0,0.1l0.1,0.1l0,0.1l0,0.2l0,0.2l-0.1,0.1l-0.2,0.1l-0.2,0.2
	l-0.2,0.3l-0.1,0.3l0,0.3l0,0.3l0,0.1l0,0.1l0,0.1l-0.1,0.1l0,0.3l0,0.2l-0.1,0.1l-0.1,0.1v0.1l0.1,0.1l0,0.1l0,0.1l0,0.1h-0.1
	l-0.1-0.4l-0.1-0.2l-0.1-0.1l-1.3,0l0.2,0.2l0.7,0l-0.1,0.1l-0.2,0.1l-0.2,0.1l-0.2,0l0.1,0.3l0.1,0.3l0.1,0.3l0,0.4l-0.1-0.3
	l-0.3-0.8l-0.2-0.4l-0.1-0.2l-0.3-0.2l-0.1-0.3l-0.1-0.6l-0.1-0.2l-0.3-0.5l-0.1-0.1l-0.1-0.1l-0.3-0.4l-0.1-0.1l-0.3,0.1l-0.1-0.1
	l-0.1-0.1l-0.1-0.4l-0.1-0.1l-0.3-0.2l-0.8,0.2l-0.3-0.2l0,0l0,0v0l0-0.1l-0.1,0l-0.3,0l-0.1,0l-0.2-0.2l-0.1-0.1l-0.7,0l-0.1,0
	l-0.2,0.6l0,0.9l0.1,0.9l0.2,0.6v0.1h-0.1v0.1l0.1,0.2l0.2,0.4l0.2,0.1l0.1,0.2l0,0.3l-0.1,0.3l0.1,0.1l0.2,0.3l0.1,0.1l0,0l0.1-0.2
	l0,0l0,0l0,0l0,0l0,0l0.1,0.1l0.2,0.4l0,0l0.1,0H68l0,0.1l0,0.3l0,0.1l0.2,0.9l0,0.3l-0.1,0.4l0,0.1l-0.1,0.1l0,0.1l0,0.2v0.1l0,0.1
	v0.2l0,0.1l0,0.1l0,0.1l0,0.2l0.1,0.1l0.2,0.1l0.1,0.1l0.1,0.2l0.1,0.4l0,0.3l-0.1,0.2l-0.1-0.1l-0.1-0.3l0-0.3l0-0.3l-0.4-0.4
	l-0.2-0.3l-0.1-0.1l0-0.1v-0.8l0-0.2l-0.1-0.4l0-0.2l0-0.5l0-0.2l-0.1-0.2l0-0.1l-0.1,0l-0.2,0l-0.1,0l0-0.1l0-0.1l-0.1-0.3l0-0.2
	l-0.1-0.2l-0.2-0.2l-0.1-0.3l-0.1-0.1l-0.1-0.1l-0.6-0.1l-0.4-0.2l-0.6-0.1l0-0.1l0.1-0.3l0.1-0.6l-0.1-0.3l-0.1-0.4l-0.1-0.3
	l-0.1-0.2l-0.1-0.1l-0.1-0.1l-0.1-0.1l-0.1,0.1l-0.1,0.1l-0.1,0.1l-0.1,0l-0.1,0l0.2-0.5l0.1-0.3l-0.1-0.1l-0.1-0.1l-0.2-0.3
	l-0.2-0.2l-0.2-0.1l-0.6,0.6l-0.1,0l0-0.3l0.1-0.4l0.1-0.3l-0.4-0.2l-0.2,0l-0.1,0.1l0,0.1l0,0.2l-0.2,0.4l-0.1,0.2l-0.1,0.1
	l0.1-0.6l-0.2-0.1l-0.7,0.3l-0.3,0.2l-0.1,0.1l-0.1,0.2l-0.1,0.5l-0.1,0.1v0.1l0,0l0.1,0.1l0,0v0.1h-0.1l0,0.2l0.1,0.1l0.1,0.1
	l0.1,0.1l-0.2,0l-0.3-0.3l-0.2-0.1l0-0.2l0-0.1l-0.1,0l-0.1,0l-0.1,0l-0.1,0.1l0,0.3l-0.2,0l-0.4-0.3l-1.1,0.2l-0.5,0.2l-0.1,0.2
	l-0.1,0.2l0,0v0.1l0.1,0.4l0.1,0.2l0.1,0.2l0.1,0.1l-0.1,0.2l-0.2,0.2l-0.2,0.1l-0.1,0l-0.1,0.1l-0.1,0.2l0,0.2v0.1l0.5,0.5l0,0.1
	l0.2,0.7l0.1,0.5l0,0.5l0,0.5l0,0.6l-0.1,0.6l-0.1,0.3l-0.1,0.1l-0.2,0.1l-0.1,0l0-0.2l0-0.1l0.1-0.1l0.1,0l-0.2,0l-0.1,0l-0.1-0.1
	l-0.1-0.2l0,0l-0.2,0l-0.1,0.2l-0.1,0.4l-0.2-0.2l-0.4-0.1l-0.2-0.2l0-0.2l0-0.5l0-0.2l-0.1-0.1l-0.2-0.4l0-0.1l0-0.1l0-0.1l0-0.1
	l0,0l-0.1,0l0-0.1l-0.1-0.2l-0.1,0l-0.1,0l-0.3-0.2l-0.4-0.1l-0.1-0.1l0-0.4l-0.2-0.3l-0.2-0.2l-0.1-0.3l0-0.1l0-0.1l0-0.1l-0.1-0.1
	l0-0.1l0-0.1l0-0.2l-0.3-0.6l-0.1-0.3l-0.1-0.3l-0.1-0.1l-0.1-0.1l0.1-0.1l-0.2-0.1l-0.1-0.1l-0.1-0.2l0-0.4l-0.2,0.2l-0.2,0
	l-0.4-0.2l-0.1,0.1l-0.3,0.4l-0.1,0.1l-0.3,0l-0.1,0l-0.1,0.1l-0.1,0.2l-0.1,0l-0.3,0l-0.2,0l-0.2,0.1l0.1,0.3l0,0.3l-0.1,0.3
	l-0.1,0.2l0.1,0.2l0.1,0.2l0.1,0.2l0.1,0.3l0,0.7l0.1,0.2l0.3,0.7l0.2,0.6l0.1,0.6l-0.2,0.2v0.2l0.2,0.2l0.2,0.4l0.2,0.5l0.1,0.5
	l0,0.3l-0.1,0.3l-0.1,0.2l-0.1,0.1l-0.1,0.1l0,0.3l0.1,0.2l0.2,0l-0.2,0h-0.1l-0.1,0.1l0,0.1l0,0.3l0,0.1l-0.1,0.2l-0.3,0.4
	l-0.1,0.3l0.1,0.3l-0.1,0.2l-0.1,0.2l0,0.3l-0.1-0.3l0-0.8l-0.1-0.2l-0.1,0l-0.2,0.2l-0.1,0l-0.3,0l-0.3,0.1l0.1,0.1l0.1,0l0.3,0
	l0.1,0.1l0.1,0.3l0.1,0.1l-0.1,0.4l0,0.3l-0.1,0.2l-0.2,0.1l-0.1,0l-0.1,0l-0.1-0.1l-0.1-0.1l-0.1-0.1l0-0.1l0-0.1l-0.1-0.1l0-0.1
	l-0.2-0.1l0,0V232l0-0.1l0-0.2l0-0.2v-0.1l0-0.1l-0.1-0.1L48,231l-0.1,0.1l0,0.3l0.1,0.4l-0.2,0.1l-0.1-0.2v-0.3l0.1-0.3l-0.1-0.3
	l0-0.4l0.1-0.8l0-0.1l0,0l0,0l0-0.2l0,0l-0.1,0l0,0l-0.2-0.2l-0.1-0.1l-0.1,0l0,0.2l-0.1,0.1l-0.1,0l-0.2,0.1l-0.5,0.7l-0.9,0.7
	l-0.2,0.5l0,0.1l-0.1,0.6l0,0.1l-0.1,0.2l0,0.1l0,0.3v0.3l0,0.5l0.1,0.6l0.1,0.6l0.2,0.6l0.2,0.5l-0.1,0.1l-0.1-0.1l-0.3-0.1
	l-0.1-0.1l0-0.1l-0.2-0.5l-0.2-0.8l-0.2-0.3l-0.2-0.1l-0.1,0.3l0,0.6l0.2,1.5v0.3l0,0.3l-0.1,0.1l-0.1,0.1l0,0.1l0,0.2l0,0.1
	l-0.1,0.2l0.1,0.2l0.1,0.3l0.1,0.2l0,0.1l0,0.3l0.1,0.5l-0.1,0.3l-0.1,0.1l-0.1-0.1v-0.1l0.1-0.3l-0.1-0.4l-0.2-0.3l-0.1-0.2l0,0v0
	l0,0l0,0l-0.1-0.2l-0.3-1v-0.2l0-0.4v-0.3l0-0.4v-0.2l0-0.2l0-0.1l-0.1-0.1l0.1-0.3l-0.1-0.2l-0.3-0.3l-0.2-0.4l-0.1-0.1l-0.2,0
	l-0.2,0.1l-0.3,0.3l-0.8,0.3v-0.1l0.4-0.1L42,233l0.4-0.7l0.2-0.7l-0.2-0.8l-0.4,0.1l-0.5,0.4l-0.4,0.2v-0.1l0.2-0.2l0.4-0.7
	l0.1-0.2l-0.1-0.3l-0.2-0.1l-1.3,0l-0.1-0.1l0-0.1l-0.1-0.1l-0.1-0.2l0-0.3l0-0.1l-0.1-0.1l-0.1-0.1l0.1-0.2l0.1-0.1l0-0.2l0-0.2
	l0,0l-0.2-0.3l0-0.1l-0.1-0.1l-0.4-0.3l-0.1,0l0.2-0.1h0.3l0.2,0.1l0.2,0.3l0,0.2l0.1,0.3l0.2,0.3l0.1,0.1l0,0.1l0.1,0.3l0.1,0.1
	l1.1,0l0.2-0.2l0.6-0.8l-0.1-0.1l-0.4-0.3l-0.1,0l-0.3,0.1l-0.2,0v-0.1l0.8-0.3l0.2-0.2l0.1-0.3l0.4-0.9v-0.1l-0.4-0.3l0.2-0.1
	l0.1-0.3l0-0.3l-0.1-0.4l-0.2-0.2l-0.9,0.2v-0.1l0.3-0.3l0.1-0.2l-0.2-0.1l-0.8,0.1l-0.5,0.3l-0.2,0l-0.1-0.3h0.1l0.8-0.2l0.2-0.2
	l1.1-0.1l-0.1-0.4l-0.1-0.2l-0.2-0.1l-0.2-0.1l-0.9,0.2l-0.2-0.2l-0.1-0.3l0-0.1l0.1-0.2l0.1,0l0.2-0.1l0.1-0.1l-0.2-0.1l0-0.1
	l0-0.2l0-0.1l-0.1-0.1l-0.4,0l-0.3,0.1l-0.1,0.1l0.2,0.4l0,0.1v0.3l0,0.1l-0.1,0.1l-0.1,0.1l-0.1,0l0.1-0.2l0.1-0.2l0.1-0.3l0-0.3
	l-0.1-0.1l-0.1,0l-0.1,0.1l-0.1,0l-0.1-0.1l-0.1-0.1l0-0.4l0-0.3v0l0-0.1l-0.1-0.2l0-0.1l0.1-0.1V220l-0.1-0.2l-0.1-0.1l0-0.2l0-0.1
	l-0.5-0.3l-0.1,0l-0.2,0.1h-0.1l-0.1-0.1l-0.1-0.1l-0.4-0.3l-0.1,0l-0.1,0.1l-0.1,0.1l-0.1,0.1l-0.1-0.1l0.5-0.4l0.1-0.1l-0.3-0.5
	l-0.1-0.1l-0.1-0.1h-0.1l-0.1,0.1l-0.1-0.1l-0.6,0.1l0-0.3l-0.1-0.1l-0.1,0l-0.1,0.2l-0.1,0.1l-0.1,0l-0.1-0.1l-0.1-0.1h-0.1
	l-0.1,0.1l-0.1,0.1l-0.1,0.1l-0.1-0.1v-0.1l0.1-0.1l0-0.2l-0.1-0.1l0-0.1v-0.2l0-0.2l0.1-0.1l0.1,0v-0.1l-0.3-0.1l-0.1-0.1L35,216
	l-0.2-0.4l-0.7-0.4L34,215l-0.1-0.5l-0.2-0.4l-0.3-0.2l-0.3,0l0.1,0.2l0.2,0.1l0.1,0.2l0,0.3l-0.1,0l-0.5-0.3l-0.3-0.3l-0.3-0.2
	l-0.3,0.1l0,0.2l0,0.1l-0.2,0.1l-0.3,0.4l-0.2,0l-0.2-0.1l-0.3-0.4l-0.4-0.1l-0.3-0.3l-0.1-0.1h-0.8l0.4,0.4l0.1,0.1l0.1,0.1l0,0.2
	l-0.1,0.2l-0.2,0l0-0.1l-0.1-0.2l0-0.1l-0.1,0l-0.9,0.1l0.1,0.1l0,0.1l0.1,0.2l-0.2-0.1l-0.3-0.2l-0.3-0.1l-0.2,0.2l0.2,0.3l0.2,0.3
	l0.2,0.2l0.2,0l-0.2,0.6l-0.3,0.1l-0.4-0.2l-0.3,0l-0.1,0.2l0,0.1l0.1,0.1l0.2,0.3l0.3,0.2l1.3,0.3l0.2-0.2l0.1,0l0.3-0.6l0.1-0.2
	l0.1-0.1l0.3-0.1v0.2l-0.1,0.1l-0.1,0.3l0,0.3l0.1,0.1l0.3-0.1l0.2-0.1l0.6-0.7l0.3-0.2l0.3-0.1l-0.4,0.2l-0.1,0.1l0,0.1l0,0.4
	l0,0.1l-0.2,0.2l-0.1,0.1l0,0.2l0.1,0.1l0.4,0.1l0.5,0l0.4-0.2l0.3-0.3l0.1,0l0.2,0.1v0.1h-0.1l-0.1,0.1l-0.1,0.1l-0.1,0.2l-0.1,0.1
	l-0.1,0l0,0l0.2,0.2l0.3,0.2l1.1-0.2l-0.2,0.2l-0.4,0l-0.4,0.3l-0.2,0.1h-0.4l0.1,0.3l0,0.1l0.1,0.1l-0.1,0.1l-0.1,0l-0.2-0.2l0-0.1
	l0-0.1l0-0.1l-0.1,0h-0.2l-0.8-0.3l-0.2,0l-1.2,0.3l-0.4,0.2l0.3,0.9l0.6,0.6l1.9,0.8l0.4,0.5l0.7,0.3l0.1,0l0.2-0.2l0.4-0.2l0.2,0
	l-0.1,0.3l-0.1,0.1l-0.2,0l-0.2,0.1l-0.1,0.2l-0.1,0.2l0,0.2l-0.1,0.3l0.2,0.1l0.2,0.2l0.2,0.3l0.1,0.3l0.1,0.4l0.1,0.4l0.1,0.4
	l0.2,0.2v0.1l-0.2,0.2l-0.3,1.1l-0.3,0.2v-0.1l0.1-0.2l0.2-0.4l0.1-0.2l0-0.7v-0.1l-0.1,0l-0.1,0.2l0,0.2l0,0.1l-0.1-0.1l0-0.1
	l0-0.1v-0.2l-0.1-0.2h-0.1l-0.1,0.1l-0.1,0l-0.1-0.3l-0.1-0.3l-0.1-0.2l-0.2,0v0.1l-0.1,0.4l-0.5,1.4l-0.2,0.8l-0.1,0l-0.1-0.2
	l0.1-0.4l0.4-1.1l0,0l0-0.1l0.1-0.1l0-0.2l0-0.2l0-0.4l0-0.1l0-0.1l-0.3-0.6l-0.3-0.3l-0.1-0.1l0-0.2l0-0.3l-0.1-0.1l-0.5,0l0,0
	l-0.1,0.2l-0.1,0.3l-0.1,0.5l0,0.5l0,0.4l-0.3,0.9l0-0.3l0.1-0.5l0-0.6l-0.1-0.5l-0.1,0.1l-0.1,0.3l-0.1,0.5l-0.1,0.2l-0.1,0.1
	l-0.3,0l0.3-0.2l0.2-0.4l0.2-0.5l0.1-0.4l-0.1-0.1l-0.1,0.1l-0.1,0.2l-0.1,0.1l0-0.1l0-0.1l-0.1-0.5l-0.1-0.2l-0.1-0.1l-0.1,0l0,0.1
	l0,0.2l0,0.2l-0.2,0.3l-0.4,0.5l-0.2,0.3h0l0.1-0.2l0.4-0.7l0,0l0.1-0.3l0.1-0.1l0-0.2l0-0.3v-0.3l0-0.1l-0.1-0.2l-0.1-0.2l-0.1-0.1
	l-0.1,0l-0.2,0.1l-0.4,0.6l0-0.4l0-0.3l-0.1-0.4l-0.2-0.3l-0.2-0.1l-0.2-0.1l-0.8-0.6l-1.3-0.4l-0.2,0.1l0,0.3l-0.1,0.1l-0.3,0
	l-0.1,0.1l-0.1,0.2l-0.1,0.2l-0.1,0.1v0.1l0.2,0.1l0.8,0l0.2,0.1l0.3,0.5l0.2,0.2l-0.7-0.6l-0.5-0.1l-0.7,0.1l-0.3,0.2l0.3,0.4
	l0.5,0.4l0.2,0.3l0.1,0.1l0.2,0l0.4,0.2l0.2,0l0.2,0.1l0.3,0.6l0.1,0.2v0.1l-0.2-0.1l-0.1-0.2l-0.1-0.3l0-0.3l-0.3,0.2l-0.4-0.1
	l-1.4-0.9l-0.4-0.1l-0.3,0.1l-0.1,0.2l-0.1,0.3v0.6l0.1,0.2l0.3,0.5l0.4,0.4l0.2,0.1l0.1,0.2l0.2,0.1l0.4,0.6l0.2,0.1l0.8,0.2
	l0.4,0.3l0.2,0.1l0.7,0.1l0.2,0.3l0.7,0.2l-0.3,0.1l-0.3-0.1l-0.6-0.4h-0.3l-1-0.4l-0.5,0.2l-0.1,0l-0.2-0.1l-0.3-0.3l-0.1-0.1
	l-0.6-0.1l-0.5-0.3l-0.2,0l-0.3,0.4l0,0.6l0.2,0.6l0.3,0.5l0.5,0.5l0.1,0.2l0.1,0.1l0.4-0.1l0.3,0.3l0.4,0.2l2.2,0.1l0.3-0.3
	l0.3-0.1l0.4-0.1l-0.1,0.1l-0.4,0.3v0.1h0.1l0.1,0l0.1,0.1l-0.2,0.1l-0.2,0l-0.3-0.1l-0.2,0l-0.2,0.2l-0.7,0.1l-0.1-0.1l-0.1-0.1
	l-0.5,0.2l-0.1,0.1l0.1,0.2l0.1,0.2L25,229l0.3,0.2l0.4,0.1l1-0.1l-0.1,0.1l-0.1,0l-0.1,0l-0.1,0l-0.4,0.3l-0.1,0l0.1,0.2l0,0l0.1,0
	v0.1l-0.2,0.1l-0.4-0.1l-0.1,0.2l-0.1-0.2l0-0.1l-0.3,0.5l-0.2,0.1l-0.1-0.1l0.1-0.3l0.1-0.2l0-0.2l-0.1-0.3l-0.1-0.1l-0.2-0.2
	l-0.1-0.3l-0.1-0.1l-3.4-1.9l-0.3,0l-0.3,0.3l0.1,0.2l0,0.2l0,0.2l0,0.2l0.3,0.7l0.3,0.4l0.2,0.2l0.4,0.1l0.4,0.3l0.4,0.1l0.2,0.2
	l0.2,0.2l0.2,0.3l-0.3-0.1l-0.8-0.5l-1.2-0.2l0.1,0.3l0.3,0.3l0.2,0.4l0.4,0.4l0.2,0.1l0.1,0.2l0.1,0.2l0.1,0.2L22,232l0.2,0l0.4,0
	l-0.5,0.2l-0.2,0l-0.2-0.1l-0.1-0.2l-0.1-0.2l-0.1-0.2l-0.6-0.2l-0.3-0.2l-0.4-0.6l-0.1-0.1l-0.2,0l-0.8-0.5l-0.2,0l-0.1,0l-0.1,0.2
	l-0.2,0.2l0,0.3v0.3l0,0.3l-0.1,0.2l-0.5,0.3l-0.1,0.1l-0.1,0.2l-0.2,0.2l-0.4,0.2l0.2,0.3l0.3,0l2.3-0.2l1.2,0.5l0.2,0.3l0.1-0.3
	l0.2,0l0.2,0.2l0,0.4l-0.1-0.1l-0.1,0l-0.1,0l0.1,0.1l0.1,0.1l0,0.1l0,0.2v0.1l0.3,0.2l0.4,0.1l1.5-0.4l0.3-0.5l0.1-0.1l0.1,0l0-0.1
	l0-0.2l0.2,0.1l1.1-0.2l0.4-0.3l0.2-0.1l0-0.1l0,0l0,0l0.1-0.1l0,0l0.1,0h0l0.1,0.2l0.1,0.2l0.1,0.1l0.1,0l0.2,0.1L27,233l0.1,0
	l0.1-0.1l0.2-0.3l0.1-0.1v-0.1l-0.1-0.3l0-0.4l0.1-0.4l0.2-0.1v0.1l0,0.3l0.2,0.2l0.4,0.2l0.2-0.1l0.5-0.1l0.2-0.2l0-0.2l0-0.6
	l0-0.1l0.1,0.1l0,0.2l0,0.2l0.1,0.2l0.2,0.1l0.2-0.2l0.2-0.4l0-0.4l0.3,0.2l0.1,0.1l0.1,0.2l-0.2,0.1l-0.4,0.5l-0.2,0.2v0.2l0.2,0
	l0.1,0v0.2l0.1,0l0.3-0.1l0.1,0l0.1,0.1l0,0.1l0,0.2v0.1l0.1,0l0.1,0.1l0.1,0l0.1-0.1l-0.2-1.5l-0.1-0.2l-0.1-0.4l0-0.1l0-0.1l0,0
	h0.1l0.2,0.1l0.1,0l0-0.1l0,0l0.1,0.1l-0.2,0.4l-0.1,0.3l0,0.3l0.2,0.6l0.1,0.1l0.1,0.1l0.1,0l0.1-0.1l0.1-0.2l0.1-0.5l0.1,0
	l0.1,0.4l0.1,0.2l0.1,0l0.1-0.1l0.2-0.3l0-0.2v-0.2l-0.1-0.4l0-0.2l0-0.2l0-0.1l0.1-0.2l0.1,0.2l0.2,0.7l0.1,0.3v0.2l0,0.2v0.3
	l0.1,0.3l0.1,0.1l0.4-0.2l0.1-0.2l0-0.2l-0.1-0.1v-0.2l0.2,0l0.1,0.1L34,232l0.2-0.1l0.2-0.3l0.1-0.1l0.2,0v0.1l-0.1,0.1l-0.3,0.2
	v0.1l0.6,0L35,232l0.3-0.2l0.6-0.9l0.2-0.1l-0.2,0.1l-0.1,0.1l-0.1,0.1l0,0.2v0.2l0,0.2l-0.1,0.1l-0.2,0.1l-0.4,0.3l-0.9,0.2
	l-0.2,0.1l-0.2,0.3l0.1,0.2l0.3,0.2l0.5,0.4l0.2,0.3l0.1,0.1l0.3,0l0.1-0.1l0.1-0.2l0-0.2l0-0.1l0.1,0l0.1-0.1l0.1-0.2L36,233
	l0.1-0.2l0-0.3l0-0.3l0.1,0.1l0.1,0.5l0.1,0.2l0.1,0.1l0.1,0l0.1-0.1l0-0.3l0.1,0l0.1,0l0.1,0l0.1-0.1l0,0.3l0.1,0.2l0.3,0.3
	l-0.2,0.2l-0.2,0.3l0.2,0l0.5-0.2l0.6,0.1h0.3l0.8-0.3l-0.5,0.3l-1,0.3l-0.5,0.3l0,0.1l0.1,0.3l-0.1,0l-0.2-0.2l-0.1,0v0.1l0,0h0
	l0,0l-0.2,0.2l-0.5,0.3l-0.3,0.4l-0.8,0.6l-0.9,0.3l-0.2,0.2l-0.2,0.5l-0.1,0.1l-0.3,0l-0.1,0l0,0.3l-0.1,0.2l-0.4,0.2l-0.3,0.3
	l-0.1,0.3l-0.1,0.3l0.4-0.2l0.2,0l0.2,0.1v0.2h-0.2l-0.1,0l-0.1-0.1l-0.2,0.2l-0.2,0.1l-0.1,0.1l0.2,0.2l0.2,0.1l0.7-0.1l0.1-0.1
	l0,0l0.1,0l0.6,0.5l2.3,0.5l0.4-0.2l1.2-1v-0.1h-0.1v-0.1l0.2-0.3l0.4,0l0.3,0.3l0,0.7l-0.3,1l-0.1,0.2l-0.1,0.1l-0.1,0l-0.1,0.1
	l-0.1,0.3l0.2,0l0.2,0.2l0,0.2l-0.2,0.2l-0.9,0.1l-0.2-0.1l-0.2,0.1l-0.2-0.1l-0.2-0.1l-0.2-0.1H36l-0.1,0.1l-0.1,0.2l-0.1,0.1
	l-0.7-0.4l-1.1-0.2l-0.7,0.2l-0.7,0l-0.1,0.1l0,0.3h-0.2l-0.1,0.1L32,242l0.2,0.4l0.1,0.1l0.1,0.1v0.1l-0.1-0.1l-0.4-0.3l-0.3-0.1
	l-0.1-0.1l-0.1-0.4l-0.1,0.1l-0.1,0.1l-0.1,0l-0.1,0l0.1-0.1l0.2-0.1l0.1-0.2l0-0.1v0l0-0.1l-0.1-0.1l-0.1,0l0.1-0.1l0-0.1l-0.3,0.1
	l-0.6,0.6l-0.3,0.1v0.1l0.6-0.1l0.1,0.1l-0.5,0.3l-0.5,0.1l-0.2,0.1l-0.1,0.2l-0.2-0.3l-0.2-0.2l-0.2,0l-0.2,0.3l0,0.1l0,0.2
	l-0.1,0.1l-0.1,0l-0.1,0l-0.1,0l-0.1,0.2l0,0.2l0,0.2l0,0.3l-0.4-0.7l0.1-0.2l0.1-0.1l0.1-0.1l0.1,0l0-0.2l0-0.1l0.2-0.2l0.1-0.1
	l0.1-0.2l-0.7-0.1l-0.3,0.1l-0.2,0.3l0,0.3l0,0.3l0.1,0.2l0,0.2l0,0.2l-0.1,0.2l-0.1,0.1l-0.1-0.1l-0.2,0.2l0-0.1v-0.3l0-0.2l-0.1,0
	l-0.1,0.1l-0.1,0.1l-0.1-0.1l0.1-0.3l-0.1-0.1l-0.3,0l0,0.1l0,0.1l0,0.1l0,0.1v0.1l-0.7-0.1l-0.3,0.1l-0.3,0.5l-0.1,0.1l-0.3,0
	l-0.1,0.1l-0.1,0.2l-0.1,0.1L23,244l-0.6-0.4l-0.2,0l-0.9,0.2l-0.1,0.1l-0.3,0.4l-0.2,0.1l-0.2-0.2l0,0.1l0.2,0.8l0.1,0.3l0.1,0.3
	l0.3,0.5l0,0.2l0,0.3l0.1,0.1l0.1,0l0.1,0.2l0.6,0.3l0.2,0l0.3-0.2l0.2,0l0.6,0l0.2-0.2l0.2-0.4l0-0.4l0.2-0.3l0.3-0.2l0.1,0.1
	l-0.1,0l-0.1,0.1l-0.1,0.1l0.9,0.3l0.1,0l0.1-0.1l0.1-0.1l0.1-0.1l0.1-0.2v-0.1l0.8-0.2l0.4,0l0.5,0.5l1.1,0.1h0.9l1,0.1h0l0.2,0
	l0.4,0.3l0.2,0v-0.1l-0.4-0.3l-0.1-0.1h0.8l0.1,0.1l0.1,0.1l0.1,0.1l0,0.1l-0.1,0.1l-0.1,0l-0.2,0l0.2,0.1l0.7-0.1l-0.2-0.1l-0.1,0
	v-0.1l0.1-0.1l0.2-0.3l0.1-0.1l0.4,0.1v-0.1l0.1-0.1l0.1,0l0.1,0.1l0,0.2l0.1-0.2l0.1-0.1l0.1-0.1l0.1,0l-0.1,0.2l-0.1,0.4l-0.1,0.2
	h0.2l-0.1,0.3l0.5,0l0.2,0.1l0.2,0.2l-0.1,0.2l0,0l-0.1,0l0.1,0.1l-0.1,0.2l-0.1,0.1l-0.2,0.2l-0.2,0.3l-0.1,0.1l0.2,0.2l0.2-0.2
	l0.2-0.3l0.2-0.1l0.3-0.1l0.3-0.1l0.5-0.4v0.1l-0.2,0.3l-0.9,0.5v0.1l0,0l0.1,0.1l-0.1,0.1l-0.1,0.1l-0.1,0.1l-0.1,0.2h0.2l-0.2,0.2
	l-0.2-0.1l-0.2-0.2l-0.2-0.1l0.1,0.2l0.1,0.2l0.1,0.1l0.1,0.1l0,0.1l0.1,0.2l0.1,0.1l0.1,0v0.1l-0.1,0.2l0,0.3l0.1,0.3l0.1,0.2
	l0.2,0l0.2-0.1l0.4-0.3v0.1l-0.1,0.2l0,0.1H35l0.1,0l0.1,0l0.1,0.1l-0.1,0.1l0,0l0.1,0.2l0,0.3l-0.1,0.3l-0.1,0.2l0.1,0l0.1,0
	l0.1-0.1l0.1-0.1l0.1,0.3l0.1,0.2l0.1,0.2l0.1,0.1l0.1,0l0.1,0l0.1-0.1l0-0.1l0-0.1h0.3l0.1-0.1l0-0.1v-0.1l0-0.2l0.2-0.3l0-0.1
	v-0.3l0-0.3l0.1-0.2l0.2-0.1l-0.1,0.4l0,0.2l0.1,0.2l0.1,0L37,251l0.2-0.2l0.5-0.4l0.2-0.1l0.2,0.1l-0.1-0.2l0.1-0.1l0.4-0.2
	l0.3-0.3l0.1,0l0.1-0.1l0.1-0.4l0.1-0.1l0.1,0l0.3-0.4l-0.1,0.2l-0.1,0.1l-0.2,0.2v0.1l0.2,0l0.5-0.5l0.2,0l0.6,0.1v0.1l-0.6-0.1
	l-0.1,0l-0.2,0.2l-0.5,0.3v0.1h0.8v0.1l-0.3,0.1l0.1,0.1l0.2,0.3l0.1,0.1l0.1,0l0.3,0l0.1,0.1l-0.7,0l-0.1-0.1l-0.1-0.2l-0.2,0
	l-0.2-0.1l0-0.3l-0.3,0l-0.1,0l-0.1,0.1l-0.1,0.2l-0.3,0.1l-0.3,0.4l-0.2,0.1v0.1l0.1,0l0.1,0l0.1,0.1l0,0.2l-0.5,0l-0.9,0.5
	l-0.2,0.2l0,0.2L37,252l0,0.2l0,0.3l0,0l-0.1,0l-0.1,0l-0.1,0.3v0.3l0,0.2l-0.1,0.2l0.1,0.3l0.1,0.1l0.1,0l0.1-0.1l0.2-0.1l0.7,0.1
	l-0.1,0.1l-0.4,0.1l-0.1,0.2l-0.2-0.1l-0.2,0.1l-0.3,0.4l-0.3,0.3l-0.3,0.2v0.1l0.7,0.3l0.4,0.1l0.3-0.3l0.1-0.1l0.4-0.3l0.1,0h0.1
	l0.2,0l0.1-0.1l0.1-0.1l0-0.1l0-0.1l0-0.1l0.6-0.6l0.7-0.2l1.5,0.1h0l0,0h0l0,0v0.1l-0.1,0.1l-0.1,0h-0.1v0.1l0.2,0.1l0.4-0.2
	l-0.2,0.4l-0.2,0l-1.1-0.3l-0.2,0l-0.2,0.1l-0.3,0.3h0.1l0.1,0.1l0.2,0.1h-0.1l-0.4,0l-0.2,0l-0.1,0.1l-0.1,0.1l-0.1,0.4l-0.2,0.3
	l-0.2,0.3l-0.5,0.4l0,0.3l-0.1,0.2l-0.2,0.2l0.3,0.1l0.1-0.1l0.1,0l0.1,0l0.2,0l0.2,0l0.1,0.1l-0.1,0.3l0.2-0.1l0.2,0l0.2,0l0.2,0.1
	L39,257l-0.1,0.1l0,0.2l0.1,0.1l0.2,0l0.3-0.2l-0.2,0.4l-0.3,0l-0.3-0.1l-0.2,0.1l0.2,0.1l-0.1,0.1l-0.1,0.1l-0.1,0.1l0.1,0.1l0.1,0
	l0.1,0l0.1,0l-0.1,0.1l-0.1,0l-0.3-0.1l0-0.1l0-0.1l-0.1-0.1l-1.2-0.2l-0.2,0.2l0.3,0l0.3,0.1l0.5,0.5l-0.1,0l-0.1,0.1h0.1v0.1
	l-0.1,0.1l-0.2,0l-0.2,0l-0.1-0.1l0.2-0.1l0.1,0l-0.2-0.1l-0.2,0l-0.2,0.2l-0.1,0.3l0.1-0.1l0.2,0.1l0.2,0.1l0.1,0.1v0.1l0,0.1
	l-0.1,0l-0.1,0l-0.1-0.1l-0.2,0.3l-0.2,0.2l-0.7,0.1l-0.4,0.3l-0.2,0.1l-0.1,0l-0.2-0.2l-0.1,0l-0.1,0l-0.3,0.2l-0.4,0.1l-0.1,0.1
	l-0.1,0.1l-0.1,0.1l0,0.2l0.1,0.1l-0.1,0.1l-0.2,0l-0.8,0l-0.2-0.1l-0.1-0.2h0.1l-0.1-0.5l-0.2-0.4l-0.2-0.3l-0.3-0.2l-0.2-0.3
	l-0.1,0l-0.1,0.1l-0.1,0.1l-0.1,0.1l0,0.1v0.2l0,0.4l0,0.2l0,0.1l-0.1,0.4l0.1,0.3l0.1,0.2l0.2,0.1l0.2,0l0.2-0.1h0.1l0,0.2l0,0.1
	h-0.4l-0.1,0.1l-0.2,0.7l-0.1,0.2l0.1,0.2l0.1,0.1l0.1,0.1l0,0.2l0,0.2l0,0.1l-0.1,0.1l-0.1,0.2l0.1,0.1l0.1,0.2l0.1,0l0.1,0l0-0.1
	l0-0.1l0,0l0.2-0.1l0.8,0.1l0.1,0l0.1-0.1l0.1-0.1l0.2-0.1l0.3-0.2h0.2l-0.1,0.1l0.2,0.1l0.2-0.2l0.1-0.2l0.2-0.1l2.2,0.5l0.4-0.1
	l0.1,0l0.3,0l1.3-0.5l0.3,0l0.2,0.2l0.3,0.3l0.3,0.2l2.3-0.3l0,0l0,0l0,0h0L42,263l0.1-0.2l0.2-0.1l0.4,0l0.4,0l0.2,0.1l-0.1-0.3
	l-0.2-0.2l-0.4-0.2v-0.1l0.1-0.1l0.2-0.3l0.1-0.1l0.1-0.1l0.4-0.1l0.1,0l0.4,0.2h0.6l-0.2,0.2L44,262l-0.6,0l0.1,0.4l0,0.2l0,0.1
	l0.2,0.3l0.2,0.2l0.2,0.1l0.4,0.2l1,0.4l0.7,0.5l0.3,0.3l0-0.1l-0.1-0.3l0.2,0.1l0.2,0l0.2-0.2l0.3-0.4l0.2-0.3l0-0.2l-0.2-0.1v-0.1
	l0.3,0.1l0.1,0.5l-0.1,0.5l-0.3,0.4v0.1l0.2,0l0.6-0.1v0.1h0l-0.1,0h0v0.1h0.2v0.1l-0.3,0l-0.1,0l0,0.1l-0.1,0l-0.2-0.2l-0.1,0h-0.5
	l0.6,0.4l0.3,0.1l0.4,0.3l0.4,0.2l0.1,0l0.1-0.2l0-0.2l0-0.2l0-0.2l0.1-0.1l0.2-0.1l0.2-0.2l0.2-0.3l0.3-0.5l0.1-0.2v-0.1l0-0.1
	l0.1-0.1l0.1,0.1l0,0.3l0,0.2l-0.2,0.5l0.6,0.4l0.1,0.1l0.2,0.3l0.1,0.2l-0.3,0l-0.4-0.5l-0.3-0.1l-0.5,0.1l-0.2,0.1l-0.2,0.3
	l0.1,0.3l0.1,0.1l-0.1,0.1l0,0l0.2,0.4l0.2,0.3l0.5,0.5l-0.1-0.3l-0.2-0.3l-0.3-0.4v-0.1l0.2,0l0.1,0.1l0.1,0.2l0.1,0.3l0.1,0.2
	l0.2,0.1l0.1,0.2l0.1,0.3l-0.3-0.1v0.1l0.2,0.1l0.1,0l0.1-0.1l0.1-0.2l0,0.1l0,0.3l0.1,0l0.2,0.1l0.1,0l-0.1,0.1l-0.1,0l-0.1,0
	l-0.1-0.1l0.1,0.2l1.2,1l0.3,0.1l0.6,0l0-0.2l0,0l0,0l0,0.1l0,0l0,0l0,0l0,0l0.1,0.2l2.1,0.1l-0.8-0.2l0-0.1l0.8,0.1l0.1,0l0.1-0.1
	l0.1,0l0.1,0.1l0,0.1l-0.1,0.1l-0.1,0l0.3,0.2l1.3,0.4l0.9,0.6l0.7,0.1l0.4,0.3l0.1,0l1.1,0.2l0.2-0.2l0.1,0.1l0.1,0.1l0.3,0.1
	l0,0.1l0,0l-0.1,0l0.2,0.1l0.6-0.2l1.5,0.5l0.4,0l1.7-0.5l1-0.5l1.7-0.3l-0.1,0H67l-0.3,0l0-0.1l0-0.3l0-0.3l-0.1-0.1l0-0.1
	l-0.2-0.3l-0.1-0.1l0-0.1l0,0l0.1,0l-0.1-0.1l0.2,0l0.5,0.3l0.2,0l0.4-0.1l0.2,0v0.1l-0.3,0l-0.1,0.1l-0.1,0.2l-0.1,0.1l-0.2,0.1
	l-0.1,0.1l0.3,0.4l0.5-0.1l0.5-0.4l0.8-0.4l0.4-0.4l0.3-0.6l0.2-0.6l-0.1,0.1l-0.6,0l0-0.2l0-0.1l-0.1-0.1l-0.1,0l0.1-0.1l0.2,0
	l0-0.2h0.3l0,0.1v0h0l0,0l0.2,0.1l0.2-0.2l0.3-0.7l-0.2,0.1l-0.6-0.1l-0.1,0l-0.2,0.2l-0.1,0l-0.1-0.1l0-0.1l0-0.2l0.1-0.2l0.1,0.2
	l0.1-0.1l0.1-0.2l0-0.3l0-0.2l0.1-0.2l0.2-0.1l0.1,0.1l0.1-0.1l0.1,0h0.2v-0.1l-0.2-0.1l0.2,0l0.2,0.1l0.2,0l0.2-0.1l0-0.1l0-0.1
	l0-0.2l0.2,0.2l0.5,0.3v0.1l-0.2,0l-0.3,0.1l-0.2,0.2L71,266l1-0.7v-0.1l0-0.1V265l0-0.1l0.1,0.1l0.1,0l0.1-0.2l0.1-0.3l0.1,0.2v0.2
	l-0.1,0.2l-0.1,0.1l0.7-0.2l1.1-0.4l1-0.6l0,0.3l0.1,0l0.1-0.1l0.1-0.1l0.3,0.2l0.1,0l0.6,0l0.3-0.1l0.2-0.2l-0.1-0.1l0-0.2l0-0.2
	l-0.1-0.2l0.1-0.2l0.1,0h0.1l0.1-0.1l-0.1-0.2l0-0.2l0-0.5l0-0.1l0.1,0.1l0.1,0.1l0,0.1l0,0.1l0,0.3l0,0.5h0l0,0.1v0.1l-0.1,0.1l0,0
	l0,0.1l0,0.2l0,0.2l0,0.2l-0.1,0.4l0.2,0l0.1-0.1l0-0.1l-0.1-0.2l0-0.2l0-0.2v-0.5l0-0.1l0.1,0.1l0.1,0.2l0,0.2l0,0.5l0,0.2l0.1,0.1
	l0-0.1V264l0-0.3v-0.3l0-0.2l0.1-0.1l0.1,0.1l0.1,0.1l0.3,0.4l0.1,0.1l0,0.1v0.3l0,0.1l0,0.1l0.1-0.1l0-0.2v-0.2l0-0.2l0.1,0
	l0.1-0.1l-0.1,0l-0.1,0l-0.1-0.1l-0.1-0.1l0.1,0.1l0.2,0.1l1.1-0.3l1.2-1l0,0.2l-0.1,0.1l-0.1,0.1l-0.1,0.1l0.2-0.1l0.4-0.6l0.6-0.5
	l0.1-0.1l0.2-0.4l-0.1,0.1l-0.1,0.1l-0.1,0l0.1-0.3l0.2-0.3l0.4-0.3l-0.1,0.3l0.2-0.1l0.5-0.3v-0.1h-0.1v-0.1l0.1-0.1l0.1-0.1l0.1,0
	l0.1,0.2l0.1-0.2l0.1-0.1l0.2-0.2l0.3-0.3l0.1,0l0.2-0.1l0.5-0.4v-0.1h-0.4l0.3-0.3l2.1-0.6l0.3-0.2l-0.2-0.1l-0.7,0.2l0.7-0.6
	l0.2-0.3l0,0.1l0.1,0.1l0,0.1l0.2-0.2l0.5-0.2l0.5,0l0.5-0.2l0.2-0.2H89l-0.1,0l-0.1-0.1l0.2-0.1l0.4,0.1l0.2-0.1l0.1-0.3l0.1-0.3
	l0-0.3l-0.2-0.1v-0.1l0.1,0.1l0.1,0l0.1,0l0.1-0.1l-0.1-0.2l-0.2-0.5l-0.1-0.2l-0.2-0.1l-0.3-0.1l-0.1-0.1l0.2,0.1l0.3,0.1l0.2,0.2
	l0.2,0.2l0.2,0.4l0.1,0.4L90,255v0.1l0.1,0.1l0.2,0.1l0.1,0.1l0-0.2l0-0.1l-0.1-0.1l-0.1-0.1v-0.1l0.1-0.1l0.1,0.1l0.1,0.2l0,0.3
	l0,0.1l0.1,0l0.3-0.1v0.1l-0.2,0.5l0.2,0l0.1,0l0.1-0.1l-0.1-0.1l0.1-0.1l0.1,0l0.1,0.1l0.1,0l0.1-0.1l0.2-0.2l0.1-0.1l0.2,0.1
	l0.2,0.1l0.2,0.3l0.2,0.1l0.2,0.1l0.4,0l0.2-0.1l0.2-0.3h0.2l-0.1-0.2l0-0.3l-0.1,0.1l-0.1,0l-0.2,0l-0.1-0.1l-0.1-0.1l0-0.1l0-0.1
	l0.1,0l0.1-0.1l0.1-0.2l0-0.2h0.1v0.1l0,0.1l0,0.1l0,0.2l0.1-0.2l0.2-0.2l0.2-0.2l0.4-0.3l0.1-0.1l0.2-0.3l0,0l0.1,0l0.2-0.2l0.1,0
	l0-0.1l0-0.2l0-0.1l0.1,0L96,253l0.2,0.1l-0.4,0.2l-0.7,0.2l-0.3,0.3l0.2-0.1l0.6-0.2l0.8-0.1l0-0.1l0.1-0.3l0-0.1l0-0.1l0,0l0,0
	l0-0.1l0-0.1l0-0.2v-0.1l0-0.2l0.3-0.5l0-0.1l0-0.4l0-0.2l0.1-0.2l0.7-0.9l0.1-0.2l0-0.1l-0.2,0.2l-0.5,0.7l-0.3,0.1l0,0.1h-0.2
	l-0.2-0.1l-0.1-0.2h-0.1l-0.2-0.2l-0.1-0.2l0.1-0.1h1.1l0.1-0.1l0.1-0.1l0-0.2l-0.1-0.2l-0.1-0.2l-0.3-0.2l-0.1-0.2l0.4-0.3l1.3,0.5
	l-0.1-0.1l0.1-0.2l-0.2-0.2l-0.4-0.1l-0.1-0.1l-0.2-0.3l-0.1-0.3l0-0.2v-0.1l-0.1,0l-0.4-0.2l-0.1-0.2l0-0.1l0.1-0.2l0-0.2l-0.1-0.1
	l-0.2,0l-0.1,0l-0.1-0.1l0.6,0.1l0.1,0.1l0.2,0.4l0.2,0.2l0.2,0.7l0.1,0.1l0.2,0.1l0.3,0.1l1.8-0.4l0.4-0.3l0.1,0l-0.1-0.3l-0.1-0.2
	l-0.2-0.3v-0.1l0.2-0.1l0.1-0.1l0-0.1l0.3,0.1l0.9,0l0.2-0.1l0-0.2l-0.1-0.1l-0.9-0.4l0.2-0.2l0.8,0.3l0.1-0.1l0.2-0.3l0.1,0
	l0.1-0.1l0-0.2l-0.1-0.2l-0.1-0.1l-0.5-0.4l-1.1-0.3l-0.5-0.3l0.1-0.1l0.5,0.2l0.8-0.1l0.7,0.3l0.4,0.1l0.3-0.3l-0.2-0.3l-0.8-0.4
	l-0.4-0.3l-0.1-0.1l0-0.2l-0.1-0.2l-0.1-0.1l-0.1-0.1l-2.5-0.2v-0.1l1.6-0.1l0.3-0.3l-0.1-0.1l-0.1-0.1l-0.1-0.2l-0.1-0.2l0.2,0.1
	l0.4,0.4l0.4,0.1l0.3,0.2l0.1,0.1l0.1,0.1l0.1,0.2l0.1,0.3l0.1,0.2l0.2,0.1l0.5-0.1l0.6,0.2l0.1-0.1l0.2-0.3l0.1-0.1l0-0.1l-0.1-0.2
	l-0.1-0.2l0.2-0.1l0.3-0.1l0.2-0.2l0.1-0.3l0.1-0.2L104.6,240.5z M70.1,220L70.1,220l0-0.1L70.1,220l0-0.1l0.1,0l0-0.2l-0.1,0
	l-0.2,0.1l-0.1,0.1v0.2h0.1L70.1,220z M27.8,233.4L27.8,233.4L27.8,233.4L27.8,233.4L27.8,233.4l-0.1,0.1l0,0L27.8,233.4L27.8,233.4
	z M36.2,233.6L36.2,233.6l0.1-0.1l0,0l0,0l-0.1,0.1L36.2,233.6L36.2,233.6L36.2,233.6z M31.9,233.9l0.1-0.2L31.9,233.9l-0.1-0.1l0,0
	l-0.1,0.1l0,0.1L31.9,233.9z M30.6,235L30.6,235l-0.1,0.1v0.2l0.1-0.1l0-0.1L30.6,235z M29.7,235.1L29.7,235.1l-0.1,0.1L29.7,235.1
	L29.7,235.1L29.7,235.1z M31.4,239.9L31.4,239.9L31.4,239.9L31.4,239.9l-0.1-0.1l0,0.1L31.4,239.9L31.4,239.9z M33.5,247.1l0.1,0.2
	l0.1,0.1l0.1,0l0.1,0v-0.1l0,0l-0.1,0.1L33.5,247.1l-0.1-0.2l-0.2-0.3l0,0.2l0.1,0.1L33.5,247.1z M34.1,251.3l0.1-0.1l0.1,0l0-0.1
	l0,0l0,0l0-0.1h-0.1l-0.1,0.1l0,0.1l0,0l0,0L34.1,251.3L34.1,251.3z M38.1,257.8L38.1,257.8l0.1,0.1l0.1-0.1l-0.1-0.1l-0.1-0.1
	l0-0.1l-0.1-0.1l-0.1,0.1l0.1,0.1L38.1,257.8L38.1,257.8z M48,273.1l0,0.1l0,0.1l0,0.1l0.1,0h0l0.1-0.1l0-0.2H48z M31.6,239.4
	L31.6,239.4L31.6,239.4L31.6,239.4l-0.1,0.1l0.1,0.1l0,0l0,0l0.1-0.1l0.1,0h0v-0.1L31.6,239.4L31.6,239.4z"/>
<path class="st11" d="M186.7,191.7l0.1,0.1l-0.1-0.5l-0.3-0.3l0,0.6L186.7,191.7z M243.7,196.7L243.7,196.7L243.7,196.7L243.7,196.7
	z M247.2,190l0.1,0.2l0,0l0,0h0v0l0,0l0,0L247.2,190L247.2,190l0-0.1l0-0.1l0.2,0.5l-0.2-0.5l0.3-1.1l0,0l0,0l0,0l0-0.1l0,0l0,0l0,0
	v0h0l0,0l0,0l0,0l0,0l0,0.1l0,0.1l0,0.1l0,0.1l0,0l0,0.1l0,0.1l0,0.1l0,0.1l0,0.1l0,0.1l0,0.1l0,0.1l0,0.1l0,0.1l0,0.1l0,0.1
	L247.2,190z M247.2,189.5L247.2,189.5l0-0.2l0-0.1l0-0.1l0-0.1l-0.1,0.6L247.2,189.5z M246.8,192.7L246.8,192.7l0.1,0.1l0,0h0v0l0,0
	v0l0,0l0,0L246.8,192.7L246.8,192.7l0-0.3l0.2-0.4l0.2-0.1l0,0v0l0.1-0.1l0.2,0l0,0l0.1,0l0,0l0,0l0,0v0h0l0,0l0,0l-0.1,0l-0.1,0
	l-0.1,0l-0.1,0h-0.1l-0.1,0l-0.1,0l-0.1,0l-0.1,0l-0.1,0.1l-0.1,0l0,0.1l-0.1,0.1l0,0.1l0,0.1l0,0.1l0,0.1L246.8,192.7L246.8,192.7z
	 M247.4,193L247.4,193L247.4,193L247.4,193L247.4,193l-0.5-0.1h0l0,0l0,0l0,0v0l0.1,0l0,0l0,0l0.1,0l0.1,0h0.1L247.4,193L247.4,193
	L247.4,193L247.4,193L247.4,193L247.4,193L247.4,193L247.4,193L247.4,193L247.4,193L247.4,193z M247.5,193L247.5,193L247.5,193
	L247.5,193z M248.9,189.8L248.9,189.8L248.9,189.8L248.9,189.8l0-0.2l0.1-0.1l0,0l0,0l0.1-0.1l0,0l0,0l0,0l0,0l0,0l0,0l0,0v0h0l0,0
	l0,0l-0.1,0.2l0,0l-0.1,0.1l0,0L248.9,189.8L248.9,189.8L248.9,189.8L248.9,189.8L248.9,189.8L248.9,189.8L248.9,189.8L248.9,189.8
	L248.9,189.8L248.9,189.8L248.9,189.8L248.9,189.8z M248.9,189.6L248.9,189.6L248.9,189.6L248.9,189.6z M249.2,189.1L249.2,189.1
	L249.2,189.1L249.2,189.1L249.2,189.1L249.2,189.1L249.2,189.1L249.2,189.1L249.2,189.1L249.2,189.1L249.2,189.1L249.2,189.1
	L249.2,189.1L249.2,189.1L249,189l0,0l0,0h0l0,0l0,0v0h0l0,0l0,0l0,0h0l0,0l0,0h0l0,0l0.1,0l0,0l0,0l0,0h0v0.1l0,0v0h0l0,0h0l0,0v0
	l0,0v-0.1l0,0L249.2,189.1L249.2,189.1L249.2,189.1L249.2,189.1L249.2,189.1L249.2,189.1z M248.9,188.9L248.9,188.9L248.9,188.9
	L248.9,188.9L248.9,188.9L248.9,188.9L248.9,188.9L248.9,188.9L248.9,188.9L248.9,188.9L248.9,188.9L248.9,188.9L248.9,188.9
	L248.9,188.9L248.9,188.9l0.1,0l0.1,0h0l0,0l0,0l0,0l0,0v0l0,0l0,0l0,0l0,0h0l0,0l0,0l0,0L248.9,188.9L248.9,188.9L248.9,188.9
	L248.9,188.9L248.9,188.9L248.9,188.9L248.9,188.9z M248.2,190.5L248.2,190.5L248.2,190.5L248.2,190.5L248.2,190.5l0.1-0.1v0l0,0
	l0,0v0h0v0.1L248.2,190.5l-0.1,0l0,0l-0.2,0h0l-0.1,0l0.1,0l0,0h0l-0.4-0.3l0.3,0.2l0,0l-0.1-0.1l0,0l0,0l-0.1-0.1l0-0.1l0,0l0,0
	l0,0l0,0.1l0,0.1l0,0l0,0l0.1,0.1l0,0l0.1,0h0.1l0,0l0.2,0H248.2L248.2,190.5z M248.1,190.5L248.1,190.5L248.1,190.5L248.1,190.5z
	 M248.4,190.4L248.4,190.4L248.4,190.4l0.1,0l0.1,0l0.1,0l0.1,0l0,0l0.1,0l0,0l0,0l0,0l0,0h0l0,0l0,0l0,0l0,0l0,0l0,0l0,0l-0.1,0.1
	L248.4,190.4L248.4,190.4L248.4,190.4L248.4,190.4L248.4,190.4L248.4,190.4z M248,192.5L248,192.5L248,192.5L248,192.5L248,192.5
	L248,192.5L248,192.5L248,192.5L248,192.5L248,192.5L248,192.5L248,192.5L248,192.5L248,192.5l-0.1,0.1l0,0h0l0,0L248,192.5
	L248,192.5L248,192.5L248,192.5L248,192.5L248,192.5L248,192.5L248,192.5L248,192.5L248,192.5L248,192.5L248,192.5L248,192.5z
	 M247.7,192.9L247.7,192.9L247.7,192.9L247.7,192.9l-0.1,0.1l0,0v0l0,0l0,0l0,0v0h0v0l0,0L247.7,192.9L247.7,192.9L247.7,192.9
	L247.7,192.9L247.7,192.9L247.7,192.9L247.7,192.9L247.7,192.9z M248.1,189.1L248.1,189.1L248.1,189.1L248.1,189.1L248.1,189.1
	L248.1,189.1L248.1,189.1L248.1,189.1L248.1,189.1L248.1,189.1L248.1,189.1L248.1,189.1L248.1,189.1L248.1,189.1L248.1,189.1
	L248.1,189.1L248.1,189.1L248.1,189.1L248.1,189.1L248.1,189.1z M248.2,188.9L248.2,188.9L248.2,188.9L248.2,188.9L248.2,188.9
	L248.2,188.9L248.2,188.9L248.2,188.9L248.2,188.9L248.2,188.9L248.2,188.9L248.2,188.9z M249,189.1L249,189.1L249,189.1L249,189.1
	L249,189.1L249,189.1L249,189.1L249,189.1L249,189.1L249,189.1L249,189.1L249,189.1L249,189.1L249,189.1L249,189.1L249,189.1
	L249,189.1L249,189.1L249,189.1z M247.8,189.2L247.8,189.2L247.8,189.2L247.8,189.2L247.8,189.2l-0.1,0L247.8,189.2L247.8,189.2
	L247.8,189.2L247.8,189.2L247.8,189.2L247.8,189.2L247.8,189.2L247.8,189.2z M247.7,189.1L247.7,189.1L247.7,189.1L247.7,189.1
	L247.7,189.1l-0.1,0.1L247.7,189.1L247.7,189.1L247.7,189.1L247.7,189.1L247.7,189.1L247.7,189.1L247.7,189.1L247.7,189.1
	L247.7,189.1L247.7,189.1L247.7,189.1z M249,189.5L249,189.5L249,189.5L249,189.5L249,189.5L249,189.5L249,189.5L249,189.5
	L249,189.5L249,189.5L249,189.5L249,189.5L249,189.5z M248.6,189.6L248.6,189.6L248.6,189.6L248.6,189.6L248.6,189.6L248.6,189.6
	L248.6,189.6L248.6,189.6L248.6,189.6L248.6,189.6L248.6,189.6L248.6,189.6L248.6,189.6L248.6,189.6z M248.7,189.2L248.7,189.2
	L248.7,189.2L248.7,189.2L248.7,189.2L248.7,189.2L248.7,189.2l-0.1-0.1h0l0,0L248.7,189.2L248.7,189.2L248.7,189.2L248.7,189.2
	L248.7,189.2L248.7,189.2L248.7,189.2z M248.3,189.5L248.3,189.5L248.3,189.5L248.3,189.5L248.3,189.5L248.3,189.5L248.3,189.5
	L248.3,189.5L248.3,189.5L248.3,189.5L248.3,189.5L248.3,189.5L248.3,189.5z M248.7,189.7L248.7,189.7L248.7,189.7L248.7,189.7
	L248.7,189.7L248.7,189.7L248.7,189.7L248.7,189.7L248.7,189.7L248.7,189.7L248.7,189.7L248.7,189.7L248.7,189.7L248.7,189.7z
	 M248.1,189.9L248.1,189.9L248.1,189.9L248.1,189.9L248.1,189.9L248.1,189.9L248.1,189.9L248.1,189.9L248.1,189.9z M247.8,189.3
	L247.8,189.3L247.8,189.3L247.8,189.3L247.8,189.3L247.8,189.3L247.8,189.3L247.8,189.3L247.8,189.3z M248.3,189.3L248.3,189.3
	L248.3,189.3L248.3,189.3L248.3,189.3L248.3,189.3L248.3,189.3L248.3,189.3L248.3,189.3L248.3,189.3L248.3,189.3L248.3,189.3
	L248.3,189.3z M247.8,190L247.8,190L247.8,190L247.8,190L247.8,190L247.8,190L247.8,190L247.8,190L247.8,190L247.8,190L247.8,190
	L247.8,190z M248.6,189L248.6,189L248.6,189L248.6,189L248.6,189L248.6,189L248.6,189L248.6,189z M247.8,189.8L247.8,189.8
	L247.8,189.8L247.8,189.8L247.8,189.8L247.8,189.8L247.8,189.8L247.8,189.8L247.8,189.8L247.8,189.8L247.8,189.8L247.8,189.8
	L247.8,189.8z M248,189.1L248,189.1L248,189.1L248,189.1L248,189.1L248,189.1L248,189.1L248,189.1L248,189.1L248,189.1z
	 M247.6,189.5L247.6,189.5L247.6,189.5L247.6,189.5L247.6,189.5L247.6,189.5L247.6,189.5L247.6,189.5L247.6,189.5L247.6,189.5z
	 M248.3,189.1L248.3,189.1L248.3,189.1L248.3,189.1L248.3,189.1L248.3,189.1L248.3,189.1L248.3,189.1L248.3,189.1z M248.4,189.1
	L248.4,189.1L248.4,189.1L248.4,189.1L248.4,189.1L248.4,189.1L248.4,189.1L248.4,189.1L248.4,189.1L248.4,189.1z M248.3,189.9
	L248.3,189.9L248.3,189.9L248.3,189.9L248.3,189.9L248.3,189.9L248.3,189.9L248.3,189.9L248.3,189.9L248.3,189.9z M248.8,189.5
	L248.8,189.5L248.8,189.5L248.8,189.5L248.8,189.5L248.8,189.5L248.8,189.5L248.8,189.5z M248.2,189.3L248.2,189.3L248.2,189.3
	L248.2,189.3L248.2,189.3L248.2,189.3L248.2,189.3L248.2,189.3z M248,189.3L248,189.3L248,189.3L248,189.3L248,189.3L248,189.3
	L248,189.3L248,189.3z M248.2,189.4L248.2,189.4L248.2,189.4L248.2,189.4L248.2,189.4L248.2,189.4L248.2,189.4z M248.3,189.9
	L248.3,189.9L248.3,189.9L248.3,189.9L248.3,189.9L248.3,189.9L248.3,189.9L248.3,189.9L248.3,189.9L248.3,189.9z M248.1,190
	L248.1,190L248.1,190L248.1,190L248.1,190L248.1,190L248.1,190L248.1,190L248.1,190L248.1,190z M247.7,189.6L247.7,189.6
	L247.7,189.6L247.7,189.6L247.7,189.6L247.7,189.6L247.7,189.6L247.7,189.6L247.7,189.6L247.7,189.6L247.7,189.6L247.7,189.6z
	 M247.9,189.8L247.9,189.8L247.9,189.8L247.9,189.8L247.9,189.8L247.9,189.8L247.9,189.8L247.9,189.8L247.9,189.8L247.9,189.8
	L247.9,189.8L247.9,189.8L247.9,189.8L247.9,189.8L247.9,189.8L247.9,189.8L247.9,189.8z M248.5,189.1L248.5,189.1L248.5,189.1
	L248.5,189.1L248.5,189.1L248.5,189.1L248.5,189.1L248.5,189.1z M247.9,189.4L247.9,189.4L247.9,189.4L247.9,189.4L247.9,189.4
	L247.9,189.4L247.9,189.4L247.9,189.4L247.9,189.4z M247.6,189.8L247.6,189.8L247.6,189.8L247.6,189.8L247.6,189.8L247.6,189.8
	L247.6,189.8L247.6,189.8L247.6,189.8z M248.6,189L248.6,189L248.6,189L248.6,189L248.6,189L248.6,189L248.6,189L248.6,189
	L248.6,189L248.6,189z M248.3,189.5L248.3,189.5L248.3,189.5L248.3,189.5L248.3,189.5L248.3,189.5L248.3,189.5L248.3,189.5
	L248.3,189.5z M248.3,189L248.3,189L248.3,189L248.3,189L248.3,189L248.3,189L248.3,189L248.3,189z M248.6,189.5L248.6,189.5
	L248.6,189.5L248.6,189.5L248.6,189.5L248.6,189.5L248.6,189.5L248.6,189.5L248.6,189.5z M248.2,189.1L248.2,189.1L248.2,189.1
	L248.2,189.1L248.2,189.1L248.2,189.1L248.2,189.1L248.2,189.1L248.2,189.1L248.2,189.1z M247.8,189.8L247.8,189.8L247.8,189.8
	L247.8,189.8L247.8,189.8L247.8,189.8L247.8,189.8L247.8,189.8z M247.5,189.1L247.5,189.1L247.5,189.1L247.5,189.1L247.5,189.1
	L247.5,189.1L247.5,189.1L247.5,189.1L247.5,189.1L247.5,189.1L247.5,189.1L247.5,189.1L247.5,189.1z M248.7,188.9L248.7,188.9
	L248.7,188.9L248.7,188.9L248.7,188.9L248.7,188.9L248.7,188.9L248.7,188.9L248.7,188.9z M247.5,189.4L247.5,189.4L247.5,189.4
	L247.5,189.4L247.5,189.4L247.5,189.4L247.5,189.4L247.5,189.4L247.5,189.4z M247.6,189.4L247.6,189.4L247.6,189.4L247.6,189.4
	L247.6,189.4L247.6,189.4L247.6,189.4L247.6,189.4z M248.2,189.6L248.2,189.6L248.2,189.6L248.2,189.6L248.2,189.6L248.2,189.6
	L248.2,189.6L248.2,189.6L248.2,189.6L248.2,189.6z M248.3,189.8L248.3,189.8L248.3,189.8L248.3,189.8L248.3,189.8L248.3,189.8
	L248.3,189.8L248.3,189.8z M247.6,189.7L247.6,189.7L247.6,189.7L247.6,189.7L247.6,189.7L247.6,189.7L247.6,189.7L247.6,189.7
	L247.6,189.7z M248.4,188.9L248.4,188.9L248.4,188.9L248.4,188.9L248.4,188.9L248.4,188.9L248.4,188.9L248.4,188.9L248.4,188.9
	L248.4,188.9L248.4,188.9L248.4,188.9z M247.7,190L247.7,190L247.7,190L247.7,190L247.7,190L247.7,190L247.7,190L247.7,190
	L247.7,190z M248.3,189.8L248.3,189.8L248.3,189.8L248.3,189.8L248.3,189.8L248.3,189.8L248.3,189.8L248.3,189.8L248.3,189.8z
	 M248.2,189.8L248.2,189.8L248.2,189.8L248.2,189.8L248.2,189.8L248.2,189.8L248.2,189.8L248.2,189.8L248.2,189.8z M248.4,188.9
	L248.4,188.9L248.4,188.9L248.4,188.9L248.4,188.9L248.4,188.9L248.4,188.9L248.4,188.9L248.4,188.9L248.4,188.9z M248.2,189
	L248.2,189L248.2,189L248.2,189L248.2,189L248.2,189L248.2,189L248.2,189L248.2,189z M248.4,190L248.4,190L248.4,190L248.4,190
	L248.4,190L248.4,190L248.4,190L248.4,190L248.4,190L248.4,190z M248.2,189.2L248.2,189.2L248.2,189.2L248.2,189.2L248.2,189.2
	L248.2,189.2L248.2,189.2L248.2,189.2L248.2,189.2z M248.2,190L248.2,190L248.2,190L248.2,190L248.2,190L248.2,190L248.2,190
	L248.2,190L248.2,190z M248.6,189.4L248.6,189.4L248.6,189.4L248.6,189.4L248.6,189.4L248.6,189.4L248.6,189.4L248.6,189.4z
	 M248.6,189.5L248.6,189.5L248.6,189.5L248.6,189.5L248.6,189.5L248.6,189.5L248.6,189.5L248.6,189.5z M247.8,189.7L247.8,189.7
	L247.8,189.7L247.8,189.7L247.8,189.7L247.8,189.7L247.8,189.7L247.8,189.7L247.8,189.7z M247.9,189.9L247.9,189.9L247.9,189.9
	L247.9,189.9L247.9,189.9L247.9,189.9L247.9,189.9L247.9,189.9L247.9,189.9z M247.6,189.7L247.6,189.7L247.6,189.7L247.6,189.7
	L247.6,189.7L247.6,189.7L247.6,189.7L247.6,189.7L247.6,189.7L247.6,189.7z M248.3,188.8L248.3,188.8L248.3,188.8L248.3,188.8
	L248.3,188.8L248.3,188.8L248.3,188.8L248.3,188.8z M248.6,189.1L248.6,189.1L248.6,189.1L248.6,189.1L248.6,189.1L248.6,189.1
	L248.6,189.1L248.6,189.1L248.6,189.1L248.6,189.1z M247.8,189.4L247.8,189.4L247.8,189.4L247.8,189.4L247.8,189.4L247.8,189.4
	L247.8,189.4L247.8,189.4L247.8,189.4z M248.5,189.5L248.5,189.5L248.5,189.5L248.5,189.5L248.5,189.5L248.5,189.5L248.5,189.5
	L248.5,189.5L248.5,189.5z M248.5,189.5L248.5,189.5L248.5,189.5L248.5,189.5L248.5,189.5L248.5,189.5L248.5,189.5L248.5,189.5
	L248.5,189.5z M247.9,189.4L247.9,189.4L247.9,189.4L247.9,189.4L247.9,189.4L247.9,189.4L247.9,189.4L247.9,189.4z M248.3,189.6
	L248.3,189.6L248.3,189.6L248.3,189.6L248.3,189.6L248.3,189.6L248.3,189.6z M248.3,190L248.3,190L248.3,190L248.3,190L248.3,190
	L248.3,190L248.3,190L248.3,190L248.3,190z M248.4,189.1L248.4,189.1L248.4,189.1L248.4,189.1L248.4,189.1L248.4,189.1L248.4,189.1
	L248.4,189.1L248.4,189.1z M248.2,188.9L248.2,188.9L248.2,188.9L248.2,188.9L248.2,188.9L248.2,188.9L248.2,188.9L248.2,188.9z
	 M248.7,189.5L248.7,189.5L248.7,189.5L248.7,189.5L248.7,189.5L248.7,189.5L248.7,189.5L248.7,189.5L248.7,189.5z M248.6,189
	L248.6,189L248.6,189L248.6,189L248.6,189L248.6,189L248.6,189L248.6,189L248.6,189z M248.5,189.4L248.5,189.4L248.5,189.4
	L248.5,189.4L248.5,189.4L248.5,189.4L248.5,189.4L248.5,189.4z M247.8,189.9L247.8,189.9L247.8,189.9L247.8,189.9L247.8,189.9
	L247.8,189.9L247.8,189.9L247.8,189.9L247.8,189.9L247.8,189.9L247.8,189.9L247.8,189.9L247.8,189.9z M247.9,190L247.9,190
	L247.9,190L247.9,190L247.9,190L247.9,190L247.9,190L247.9,190L247.9,190L247.9,190z M248.7,189.6L248.7,189.6L248.7,189.6
	L248.7,189.6L248.7,189.6L248.7,189.6L248.7,189.6L248.7,189.6L248.7,189.6z M247.7,189.1L247.7,189.1L247.7,189.1L247.7,189.1
	L247.7,189.1L247.7,189.1L247.7,189.1L247.7,189.1z M248.4,189.9L248.4,189.9L248.4,189.9L248.4,189.9L248.4,189.9L248.4,189.9
	L248.4,189.9L248.4,189.9L248.4,189.9z M248.5,188.9L248.5,188.9L248.5,188.9L248.5,188.9L248.5,188.9L248.5,188.9L248.5,188.9
	L248.5,188.9L248.5,188.9z M248.3,189L248.3,189L248.3,189L248.3,189L248.3,189L248.3,189L248.3,189L248.3,189L248.3,189L248.3,189
	L248.3,189L248.3,189L248.3,189z M248.7,189.3L248.7,189.3L248.7,189.3L248.7,189.3L248.7,189.3L248.7,189.3L248.7,189.3z
	 M247.5,189.2L247.5,189.2L247.5,189.2L247.5,189.2L247.5,189.2L247.5,189.2L247.5,189.2z M248.4,189L248.4,189L248.4,189L248.4,189
	L248.4,189L248.4,189L248.4,189L248.4,189z M248.1,189.3L248.1,189.3L248.1,189.3L248.1,189.3L248.1,189.3L248.1,189.3L248.1,189.3
	L248.1,189.3z M247.6,189.3L247.6,189.3L247.6,189.3L247.6,189.3L247.6,189.3L247.6,189.3L247.6,189.3L247.6,189.3z M247.8,189.6
	L247.8,189.6L247.8,189.6L247.8,189.6L247.8,189.6L247.8,189.6L247.8,189.6L247.8,189.6L247.8,189.6L247.8,189.6z M247.7,189.8
	L247.7,189.8L247.7,189.8L247.7,189.8L247.7,189.8L247.7,189.8L247.7,189.8L247.7,189.8L247.7,189.8L247.7,189.8z M248.8,189.1
	L248.8,189.1L248.8,189.1L248.8,189.1L248.8,189.1L248.8,189.1L248.8,189.1L248.8,189.1z M247.6,189.2L247.6,189.2L247.6,189.2
	L247.6,189.2L247.6,189.2L247.6,189.2L247.6,189.2L247.6,189.2z M248.4,189.6L248.4,189.6L248.4,189.6L248.4,189.6L248.4,189.6
	L248.4,189.6L248.4,189.6L248.4,189.6z M248.3,189.1L248.3,189.1L248.3,189.1L248.3,189.1L248.3,189.1L248.3,189.1L248.3,189.1
	L248.3,189.1z M248.4,189.6L248.4,189.6L248.4,189.6L248.4,189.6L248.4,189.6L248.4,189.6L248.4,189.6L248.4,189.6z M248.5,190.1
	L248.5,190.1L248.5,190.1L248.5,190.1L248.5,190.1L248.5,190.1L248.5,190.1L248.5,190.1z M247.6,189.9L247.6,189.9L247.6,189.9
	L247.6,189.9L247.6,189.9L247.6,189.9L247.6,189.9L247.6,189.9z M247.6,189.1L247.6,189.1L247.6,189.1L247.6,189.1L247.6,189.1
	L247.6,189.1L247.6,189.1L247.6,189.1z M248.5,189.6L248.5,189.6L248.5,189.6L248.5,189.6L248.5,189.6L248.5,189.6z M248.1,189.4
	L248.1,189.4L248.1,189.4L248.1,189.4L248.1,189.4L248.1,189.4L248.1,189.4z M248.4,189.2L248.4,189.2L248.4,189.2L248.4,189.2
	L248.4,189.2L248.4,189.2L248.4,189.2L248.4,189.2z M247.6,189.6L247.6,189.6L247.6,189.6L247.6,189.6L247.6,189.6L247.6,189.6
	L247.6,189.6L247.6,189.6z M248,189L248,189L248,189L248,189L248,189L248,189L248,189z M248.4,189L248.4,189L248.4,189L248.4,189
	L248.4,189L248.4,189L248.4,189z M248.8,189.1L248.8,189.1L248.8,189.1L248.8,189.1L248.8,189.1L248.8,189.1L248.8,189.1z
	 M248.7,188.9L248.7,188.9L248.7,188.9L248.7,188.9L248.7,188.9L248.7,188.9z M247.7,189.8L247.7,189.8L247.7,189.8L247.7,189.8
	L247.7,189.8L247.7,189.8L247.7,189.8L247.7,189.8L247.7,189.8z M248.6,189.3L248.6,189.3L248.6,189.3L248.6,189.3L248.6,189.3
	L248.6,189.3L248.6,189.3L248.6,189.3z M248.5,189.2L248.5,189.2L248.5,189.2L248.5,189.2L248.5,189.2L248.5,189.2L248.5,189.2
	L248.5,189.2L248.5,189.2z M248.4,189.4L248.4,189.4L248.4,189.4L248.4,189.4L248.4,189.4L248.4,189.4L248.4,189.4L248.4,189.4z
	 M247.8,189.4L247.8,189.4L247.8,189.4L247.8,189.4L247.8,189.4L247.8,189.4L247.8,189.4L247.8,189.4L247.8,189.4z M248.6,189.3
	L248.6,189.3L248.6,189.3L248.6,189.3L248.6,189.3L248.6,189.3L248.6,189.3L248.6,189.3L248.6,189.3L248.6,189.3z M247.7,189.6
	L247.7,189.6L247.7,189.6L247.7,189.6L247.7,189.6L247.7,189.6L247.7,189.6L247.7,189.6L247.7,189.6L247.7,189.6z M248.7,189.1
	L248.7,189.1L248.7,189.1L248.7,189.1L248.7,189.1L248.7,189.1L248.7,189.1L248.7,189.1z M247.6,189.5L247.6,189.5L247.6,189.5
	L247.6,189.5L247.6,189.5L247.6,189.5L247.6,189.5L247.6,189.5z M247.9,189.7L247.9,189.7L247.9,189.7L247.9,189.7L247.9,189.7
	L247.9,189.7L247.9,189.7z M247.9,189.7L247.9,189.7L247.9,189.7L247.9,189.7L247.9,189.7L247.9,189.7L247.9,189.7L247.9,189.7
	L247.9,189.7L247.9,189.7z M248.2,189.3L248.2,189.3L248.2,189.3L248.2,189.3L248.2,189.3L248.2,189.3L248.2,189.3z M248.3,189.9
	L248.3,189.9L248.3,189.9L248.3,189.9L248.3,189.9L248.3,189.9L248.3,189.9L248.3,189.9z M247.7,189.3L247.7,189.3L247.7,189.3
	L247.7,189.3L247.7,189.3L247.7,189.3L247.7,189.3L247.7,189.3L247.7,189.3z M248.2,189.3L248.2,189.3L248.2,189.3L248.2,189.3
	L248.2,189.3L248.2,189.3L248.2,189.3L248.2,189.3z M248.7,189.5L248.7,189.5L248.7,189.5L248.7,189.5L248.7,189.5L248.7,189.5
	L248.7,189.5z M247.6,189.8L247.6,189.8L247.6,189.8L247.6,189.8L247.6,189.8L247.6,189.8L247.6,189.8L247.6,189.8z M248,190
	L248,190L248,190L248,190L248,190L248,190z M248.5,189L248.5,189L248.5,189L248.5,189L248.5,189L248.5,189L248.5,189z M248.4,189.2
	L248.4,189.2L248.4,189.2L248.4,189.2L248.4,189.2L248.4,189.2L248.4,189.2L248.4,189.2L248.4,189.2z M248.4,190.1L248.4,190.1
	L248.4,190.1L248.4,190.1L248.4,190.1L248.4,190.1L248.4,190.1L248.4,190.1z M248.8,189.3L248.8,189.3L248.8,189.3L248.8,189.3
	L248.8,189.3L248.8,189.3L248.8,189.3L248.8,189.3z M248.5,190.1L248.5,190.1L248.5,190.1L248.5,190.1L248.5,190.1L248.5,190.1
	L248.5,190.1z M248.4,189.3L248.4,189.3L248.4,189.3L248.4,189.3L248.4,189.3L248.4,189.3L248.4,189.3L248.4,189.3L248.4,189.3z
	 M248.5,189.4L248.5,189.4L248.5,189.4L248.5,189.4L248.5,189.4L248.5,189.4L248.5,189.4L248.5,189.4z M248.5,189L248.5,189
	L248.5,189L248.5,189L248.5,189L248.5,189L248.5,189z M248.4,190.1L248.4,190.1L248.4,190.1L248.4,190.1L248.4,190.1L248.4,190.1
	L248.4,190.1L248.4,190.1L248.4,190.1z M247.6,189.2L247.6,189.2L247.6,189.2L247.6,189.2L247.6,189.2L247.6,189.2L247.6,189.2
	L247.6,189.2z M248.4,190.1L248.4,190.1L248.4,190.1L248.4,190.1L248.4,190.1L248.4,190.1L248.4,190.1L248.4,190.1z M248.6,189.4
	L248.6,189.4L248.6,189.4L248.6,189.4L248.6,189.4L248.6,189.4L248.6,189.4L248.6,189.4z M247.7,189.4L247.7,189.4L247.7,189.4
	L247.7,189.4L247.7,189.4L247.7,189.4L247.7,189.4L247.7,189.4z M248.4,189.4L248.4,189.4L248.4,189.4L248.4,189.4L248.4,189.4
	L248.4,189.4L248.4,189.4z M247.6,189.4L247.6,189.4L247.6,189.4L247.6,189.4L247.6,189.4L247.6,189.4L247.6,189.4z M247.9,189.6
	L247.9,189.6L247.9,189.6L247.9,189.6L247.9,189.6L247.9,189.6L247.9,189.6L247.9,189.6z M247.8,189.8L247.8,189.8L247.8,189.8
	L247.8,189.8L247.8,189.8L247.8,189.8L247.8,189.8z M248.2,189.3L248.2,189.3L248.2,189.3L248.2,189.3L248.2,189.3L248.2,189.3
	L248.2,189.3z M247.7,189.5L247.7,189.5L247.7,189.5L247.7,189.5L247.7,189.5L247.7,189.5L247.7,189.5L247.7,189.5z M247.7,189.2
	L247.7,189.2L247.7,189.2L247.7,189.2L247.7,189.2L247.7,189.2L247.7,189.2L247.7,189.2L247.7,189.2z M248.4,189.3L248.4,189.3
	L248.4,189.3L248.4,189.3L248.4,189.3L248.4,189.3L248.4,189.3z M248.5,188.9L248.5,188.9L248.5,188.9L248.5,188.9L248.5,188.9
	L248.5,188.9L248.5,188.9L248.5,188.9L248.5,188.9z M248.1,188.9L248.1,188.9L248.1,188.9L248.1,188.9L248.1,188.9L248.1,188.9
	L248.1,188.9z M248.6,189.4L248.6,189.4L248.6,189.4L248.6,189.4L248.6,189.4L248.6,189.4L248.6,189.4L248.6,189.4z M248.8,188.9
	L248.8,188.9L248.8,188.9L248.8,188.9L248.8,188.9L248.8,188.9L248.8,188.9L248.8,188.9z M247.8,189.3L247.8,189.3L247.8,189.3
	L247.8,189.3L247.8,189.3L247.8,189.3L247.8,189.3L247.8,189.3z M248.7,189L248.7,189L248.7,189L248.7,189L248.7,189L248.7,189
	L248.7,189z M248.4,190L248.4,190L248.4,190L248.4,190L248.4,190L248.4,190L248.4,190z M248.7,188.9L248.7,188.9L248.7,188.9
	L248.7,188.9L248.7,188.9L248.7,188.9L248.7,188.9z M247.8,189.7L247.8,189.7L247.8,189.7L247.8,189.7L247.8,189.7L247.8,189.7
	L247.8,189.7L247.8,189.7L247.8,189.7z M248,189.8L248,189.8L248,189.8L248,189.8L248,189.8L248,189.8L248,189.8L248,189.8z
	 M248.5,189.3L248.5,189.3L248.5,189.3L248.5,189.3L248.5,189.3L248.5,189.3L248.5,189.3z M248.3,189.3L248.3,189.3L248.3,189.3
	L248.3,189.3L248.3,189.3L248.3,189.3L248.3,189.3z M248.7,188.9L248.7,188.9L248.7,188.9L248.7,188.9L248.7,188.9L248.7,188.9z
	 M247.6,189.2L247.6,189.2L247.6,189.2L247.6,189.2L247.6,189.2L247.6,189.2L247.6,189.2z M247.8,189.3L247.8,189.3L247.8,189.3
	L247.8,189.3L247.8,189.3L247.8,189.3L247.8,189.3L247.8,189.3L247.8,189.3z M248.5,190.1L248.5,190.1L248.5,190.1L248.5,190.1
	L248.5,190.1L248.5,190.1L248.5,190.1z M248.4,189.3L248.4,189.3L248.4,189.3L248.4,189.3L248.4,189.3L248.4,189.3L248.4,189.3z
	 M248.1,189.1L248.1,189.1L248.1,189.1L248.1,189.1L248.1,189.1L248.1,189.1z M248.3,189.3L248.3,189.3L248.3,189.3L248.3,189.3
	L248.3,189.3L248.3,189.3L248.3,189.3z M248.7,189.3L248.7,189.3L248.7,189.3L248.7,189.3L248.7,189.3L248.7,189.3L248.7,189.3z
	 M248.1,189.8L248.1,189.8L248.1,189.8L248.1,189.8L248.1,189.8L248.1,189.8L248.1,189.8z M247.7,189.9L247.7,189.9L247.7,189.9
	L247.7,189.9L247.7,189.9L247.7,189.9L247.7,189.9z M248.1,188.8L248.1,188.8L248.1,188.8L248.1,188.8l0,0.1h0V188.8L248.1,188.8
	L248.1,188.8L248.1,188.8L248.1,188.8z M248.2,188.9L248.2,188.9L248.2,188.9L248.2,188.9L248.2,188.9L248.2,188.9l0-0.1
	L248.2,188.9L248.2,188.9z M248.3,188.8L248.3,188.8L248.3,188.8L248.3,188.8L248.3,188.8L248.3,188.8l0.1,0.1h0l0,0l0,0v0l0,0l0,0
	l0,0v0l0,0h0L248.3,188.8L248.3,188.8l0.2,0L248.3,188.8L248.3,188.8L248.3,188.8L248.3,188.8L248.3,188.8L248.3,188.8L248.3,188.8z
	 M248.6,188.8L248.6,188.8L248.6,188.8L248.6,188.8L248.6,188.8L248.6,188.8L248.6,188.8L248.6,188.8L248.6,188.8L248.6,188.8z
	 M248.8,188.8L248.8,188.8L248.8,188.8L248.8,188.8L248.8,188.8L248.8,188.8L248.8,188.8L248.8,188.8z M249.2,188.8L249.2,188.8
	L249.2,188.8l-0.1,0l0,0l0,0l0,0l0,0L249.2,188.8l0,0.1l0,0h0l0,0l0,0L249.2,188.8L249.2,188.8L249.2,188.8L249.2,188.8z M249,188.8
	L249,188.8L249,188.8L249,188.8l0.1,0L249,188.8z M249,188.4L249,188.4L249,188.4L249,188.4L249,188.4L249,188.4L249,188.4
	L249,188.4L249,188.4l0.1,0.2l0,0l0,0.1l0,0l0.1,0.4l0,0.1l0,0h0v0l0,0l0,0l0,0l0,0l0-0.1l0-0.1l0-0.1l0,0l0-0.1l0,0l0-0.1l0,0l0,0
	L249,188.4L249,188.4L249,188.4z M249.3,188.8L249.3,188.8l0,0.2l0,0.1l0,0L249.3,188.8L249.3,188.8z M247.7,188.6L247.7,188.6
	l0.7-0.4l0.5,0.1l-0.4-0.1h0l0.1,0l0.1,0l0.1,0l0.1,0l0.1,0.1l0,0l-0.1,0l0.1,0l0,0l0,0l0,0l0,0v0l0,0l-0.1,0l-0.1,0l-0.1,0l-0.1,0
	l-0.1,0l-0.1,0l-0.1,0h-0.1l-0.1,0l-0.1,0l-0.1,0l-0.1,0l-0.1,0l-0.1,0l-0.1,0.1L247.7,188.6L247.7,188.6L247.7,188.6L247.7,188.6
	L247.7,188.6L247.7,188.6L247.7,188.6L247.7,188.6z M248.2,188.2L248.2,188.2L248.2,188.2L248.2,188.2z M247.9,188.4L247.9,188.4
	L247.9,188.4L247.9,188.4z M248.7,188.4L248.7,188.4L248.7,188.4l-0.1,0l-0.1,0l0,0l0,0l0,0l0,0l0,0h0.1l0,0h0L248.7,188.4
	L248.7,188.4L248.7,188.4L248.7,188.4z M248.5,188.5L248.5,188.5L248.5,188.5L248.5,188.5L248.5,188.5L248.5,188.5L248.5,188.5z
	 M248.4,188.3L248.4,188.3L248.4,188.3L248.4,188.3l-0.1,0.1l0,0l0,0l0,0h0L248.4,188.3L248.4,188.3L248.4,188.3L248.4,188.3
	L248.4,188.3z M248.4,188.4L248.4,188.4L248.4,188.4L248.4,188.4L248.4,188.4z M249,188.6L249,188.6L249,188.6L249,188.6L249,188.6
	L249,188.6l0,0.1h0L249,188.6L249,188.6L249,188.6L249,188.6L249,188.6L249,188.6L249,188.6L249,188.6L249,188.6L249,188.6
	L249,188.6L249,188.6z M248.3,188.6L248.3,188.6L248.3,188.6L248.3,188.6L248.3,188.6l-0.1,0.1h0L248.3,188.6L248.3,188.6
	L248.3,188.6l0,0.1L248.3,188.6L248.3,188.6L248.3,188.6L248.3,188.6L248.3,188.6L248.3,188.6L248.3,188.6L248.3,188.6z
	 M248.1,188.6L248.1,188.6L248.1,188.6L248.1,188.6L248.1,188.6L248.1,188.6L248.1,188.6L248.1,188.6L248.1,188.6L248.1,188.6z
	 M248.4,188.6L248.4,188.6L248.4,188.6L248.4,188.6L248.4,188.6L248.4,188.6L248.4,188.6l0-0.1l0,0h0l0,0L248.4,188.6L248.4,188.6
	L248.4,188.6L248.4,188.6z M248.5,188.7L248.5,188.7L248.5,188.7L248.5,188.7L248.5,188.7L248.5,188.7L248.5,188.7L248.5,188.7
	l0.1,0h0v0l0,0L248.5,188.7L248.5,188.7L248.5,188.7L248.5,188.7L248.5,188.7L248.5,188.7z M248.7,188.6L248.7,188.6L248.7,188.6
	L248.7,188.6L248.7,188.6L248.7,188.6L248.7,188.6L248.7,188.6L248.7,188.6L248.7,188.6L248.7,188.6L248.7,188.6L248.7,188.6z
	 M248.3,188.7L248.3,188.7L248.3,188.7L248.3,188.7L248.3,188.7L248.3,188.7L248.3,188.7L248.3,188.7L248.3,188.7L248.3,188.7
	L248.3,188.7z M248.2,188.6L248.2,188.6L248.2,188.6L248.2,188.6L248.2,188.6L248.2,188.6L248.2,188.6L248.2,188.6L248.2,188.6z
	 M248.6,188.6L248.6,188.6L248.6,188.6L248.6,188.6L248.6,188.6L248.6,188.6L248.6,188.6L248.6,188.6L248.6,188.6z M248.4,188.7
	L248.4,188.7L248.4,188.7L248.4,188.7L248.4,188.7L248.4,188.7L248.4,188.7L248.4,188.7L248.4,188.7z M248.5,188.5L248.5,188.5
	L248.5,188.5L248.5,188.5L248.5,188.5L248.5,188.5L248.5,188.5L248.5,188.5z M248.4,188.6L248.4,188.6L248.4,188.6L248.4,188.6
	L248.4,188.6L248.4,188.6L248.4,188.6L248.4,188.6L248.4,188.6z M248.7,188.6L248.7,188.6L248.7,188.6L248.7,188.6L248.7,188.6
	L248.7,188.6L248.7,188.6L248.7,188.6L248.7,188.6z M248.5,188.8L248.5,188.8L248.5,188.8L248.5,188.8L248.5,188.8L248.5,188.8
	L248.5,188.8L248.5,188.8z M248.6,188.8L248.6,188.8L248.6,188.8L248.6,188.8L248.6,188.8L248.6,188.8L248.6,188.8L248.6,188.8z
	 M248.5,188.8L248.5,188.8L248.5,188.8L248.5,188.8L248.5,188.8L248.5,188.8L248.5,188.8L248.5,188.8L248.5,188.8z M248.7,188.8
	L248.7,188.8L248.7,188.8L248.7,188.8L248.7,188.8L248.7,188.8L248.7,188.8L248.7,188.8z M248.6,188.6L248.6,188.6L248.6,188.6
	L248.6,188.6L248.6,188.6L248.6,188.6L248.6,188.6L248.6,188.6L248.6,188.6L248.6,188.6z M248.4,188.7L248.4,188.7L248.4,188.7
	L248.4,188.7L248.4,188.7L248.4,188.7L248.4,188.7L248.4,188.7z M248.4,188.7L248.4,188.7L248.4,188.7L248.4,188.7L248.4,188.7
	L248.4,188.7L248.4,188.7L248.4,188.7z M248.2,188.7L248.2,188.7L248.2,188.7L248.2,188.7L248.2,188.7L248.2,188.7L248.2,188.7
	L248.2,188.7z M248.5,188.6L248.5,188.6L248.5,188.6L248.5,188.6L248.5,188.6L248.5,188.6L248.5,188.6L248.5,188.6z M248.5,188.7
	L248.5,188.7L248.5,188.7L248.5,188.7L248.5,188.7L248.5,188.7L248.5,188.7L248.5,188.7z M248.3,188.5L248.3,188.5L248.3,188.5
	L248.3,188.5L248.3,188.5L248.3,188.5L248.3,188.5z M248.7,188.6L248.7,188.6L248.7,188.6L248.7,188.6L248.7,188.6L248.7,188.6
	L248.7,188.6L248.7,188.6z M248.5,188.6L248.5,188.6L248.5,188.6L248.5,188.6L248.5,188.6L248.5,188.6L248.5,188.6L248.5,188.6
	L248.5,188.6z M245.4,194.5L245.4,194.5l-0.4,0.4l-0.1-0.1l0.2-0.2l-0.2,0.2l0.1,0.2l0.5-0.3L245.4,194.5l-0.3,0.2L245.4,194.5z
	 M247.4,190L247.4,190L247.4,190L247.4,190L247.4,190l0.1,0.1l0,0v0l0,0l0,0h0l0,0l0,0v0h0l0,0l0,0l0,0h0l-0.1,0l0,0h0l0,0l0,0l0,0
	l0.1-0.1l0,0h0l0,0l0,0l-0.1-0.1l0.1-0.2l-0.1-0.2l0,0l0,0l0,0l0,0l0,0l0,0l0,0h0v0l0,0l0,0l0,0l0,0l0,0l0,0l0,0v0l0,0l0,0l0,0.1
	l0,0v0l0,0v0l0,0h0l0.1,0l0,0l0,0l0,0h0l0,0L247.4,190L247.4,190L247.4,190L247.4,190L247.4,190L247.4,190L247.4,190L247.4,190
	L247.4,190L247.4,190z M247.5,188.7L247.5,188.7l0.1-0.2L247.5,188.7z M247.9,192L247.9,192l-0.1-0.1l0,0h0l0,0l0,0l0,0L247.9,192
	L247.9,192l0,0.2v0l0,0.1l0,0l0,0l0,0l0,0h0l0,0l0,0l0,0l0,0h0l0,0l0,0v0l0,0l0-0.1l0-0.1l0-0.1L247.9,192L247.9,192z M248.7,190.1
	L248.7,190.1L248.7,190.1L248.7,190.1L248.7,190.1L248.7,190.1L248.7,190.1L248.7,190.1l-0.1,0l0,0l0,0l0,0l0,0l0,0l0,0l0,0
	L248.7,190.1L248.7,190.1L248.7,190.1l-0.1,0.1L248.7,190.1L248.7,190.1L248.7,190.1L248.7,190.1L248.7,190.1L248.7,190.1
	L248.7,190.1L248.7,190.1L248.7,190.1z M249,190L249,190l0.1-0.1l0-0.1l0.1-0.1l0.1-0.3h0l0,0l0-0.1l0-0.1l0,0.1l0,0v0h0v0l0,0.1
	l0,0l0,0l-0.1,0.1l0,0l0,0v0l0,0l-0.1,0.1l-0.1,0.1l0,0L249,190L249,190L249,190L249,190L249,190z M249.2,189.7L249.2,189.7l0-0.1
	l0-0.1l0.1-0.1L249.2,189.7L249.2,189.7L249.2,189.7z M248.5,189.2L248.5,189.2L248.5,189.2L248.5,189.2L248.5,189.2L248.5,189.2
	L248.5,189.2L248.5,189.2L248.5,189.2L248.5,189.2L248.5,189.2L248.5,189.2L248.5,189.2L248.5,189.2L248.5,189.2L248.5,189.2
	L248.5,189.2L248.5,189.2L248.5,189.2L248.5,189.2z M248.5,189.2L248.5,189.2L248.5,189.2L248.5,189.2z M222.9,189.4l0.3,0.2l-0.2-1
	l-0.5-0.2l-0.3,0.5l0.4,0.5H222.9z M191.8,199.8l0,0.1l0.2,0.2l0.1-0.6L192,199l-0.5-0.1l-0.1,0.2l0.1,0.4L191.8,199.8z
	 M155.5,207.9l0-0.1h0l0-0.1l0,0l0,0l0,0L155.5,207.9l0.1,0l0.1,0l-0.1,0.2l0,0.4l0.1,0.1l0.1-0.2l0.1-0.3l0-0.1l0.1-0.2l-0.1-0.3
	l-0.3-0.2l-0.1,0l-0.2,0.2l0,0.3L155.5,207.9z M163.2,218.9L163.2,218.9l0.4-0.2l0.2-0.4l0-0.1l0-0.1l0-0.1l-0.2-0.4l-0.3,0.1
	l-0.2,0.5v0.3l-0.1,0.2l0.1,0.1L163.2,218.9z M225.1,215.9l0.4-0.2l0.3-0.8l0-0.4l-0.3-0.3l-0.6-0.4l-0.3,0l0.1,0.3l0.4,0.3l0.1,0.2
	l0,0.1l-0.1-0.1l-0.3-0.2l-0.3-0.1l-0.2,0l0.1,0.2L225.1,215.9z M220.4,217.5l0.7,0.2l0.6,0.3l0.3,0.5l0.2-0.8l-0.3-0.7l-1-1.1
	l-0.4-0.3l-0.6,0.2l-0.4,0.6l0.3,0.8L220.4,217.5z M222,216l0.3,0.2l0.5,0.5l0.2,0.1h0.3l0.2-0.1l0.3-0.1l0.2-0.2l0.2-0.2l-0.6-0.7
	l-0.3-0.4l-0.2-0.5l-0.4,0l-0.4,0.1L222,215l-0.2,0.3l-0.1,0.5l0.1,0.2L222,216z M228.4,212.7l0.7,0.1l0.4-0.1l0-0.3l-0.5-0.5
	l-1-0.5l-0.5-0.4l-0.2-0.5l0.2-0.6h-0.2l-0.4,0.6l-1.1,1v0.5l1.3,0.4L228.4,212.7z M244.2,170.1l0,0.2l0.1-0.1l0.3,0.2l0.1-0.1
	l0.2,0l0.2-0.2l-0.1-0.3l0-0.3l-0.1-0.2l-0.5,0.1l-0.4,0.2l0.1,0.3L244.2,170.1z M170.8,210.7l0.1,0.1l0.1,0.2l0.2,0.3l0.3-0.2
	l0.3-0.6l0-0.7l-0.4-0.5l-0.2-0.2l-0.2,0.2l-0.3,0.5l-0.1,0.4l0.1,0.3L170.8,210.7z M207.1,220.4l0.5,0.1l0.7,0l0.3,0.1l0.5,0.3
	l0.8,0.3l0.9,0.1l0.9-0.2l0.7-0.5l-0.2-0.2l0.3-0.6l0.3,0.1l0.2,0.4l-0.1,0.3l0.8,0.3l1,0l0.8-0.3l0.4-0.7l-0.3-0.8l-0.8-0.3
	l-0.9-0.2l-0.8-0.5l-0.1-0.1l-0.3-0.5l0.1-0.1l0-0.1l-0.2-0.4l-0.2,0.3l-0.3,0.2l-0.7,0.3l-0.6,0.5l-0.2,0.1l-0.2,0l-0.4-0.2l-0.2,0
	l-0.4,0.1l-0.3,0.2l-0.5,0.5l-0.3,0.1l-0.7,0.2l-0.3,0.2l-0.4,0.4l0,0.2L207.1,220.4z M179.1,216.8l0.3,0.5l0.5-0.5l0.6-0.8l0.3-0.9
	l-0.3-0.8l-0.4-0.4l-0.7,0.1l-0.6,0.4l-0.3,0.5l0,0.8l0.3,0.5L179.1,216.8z M195,217L195,217l0.2,0l0.5,0.3l1.5,0.5l0.3-0.6l0.4,0.1
	l0.5,0.4l0.4,0.1l0.2-0.2l0-0.3l0-0.3l0.1-0.2l0.3-0.1l0.2,0l0.2,0.1l0.3,0l0.8-0.6l0.7-1.2l0.2-1.1l-0.6-0.4l-0.1-0.2l-0.1-0.3
	l0-0.2l-0.5,0.3l-1,1.5l0.2,0.3l0,0.3l-0.1,0.3l-0.1,0.3h-0.2l0-0.8l-0.3,0l-0.8,0.6l-1,0l-0.1,0.1l-0.1,0.1l-0.7,0.3l-0.3,0.1
	l-1-0.2l-0.1,0.1l-0.1,0.2l-0.1,0.2l0,0.2L195,217L195,217z M280.4,189.6l0.2-1.3l0.1-0.9l0.1-0.6l0-0.3l0-0.4l-0.1-0.2l-0.1-0.2
	l-0.1-0.3l-0.3-0.5l0-0.3l0.2-0.4l0-0.2l-0.1-1.1l0.2-2.7l-0.6-2l-0.2-0.3l-0.4-0.1l-0.6-0.3l-0.6-0.3l-1.1,0.3l-0.4,0.1l-0.4-0.1
	l-0.2-0.2l-0.3-0.6l-0.2-0.2l-0.6-0.1l-0.1-0.1l-0.2-0.4l-0.1-1.3l0-0.5l0.3-0.3l0.3-0.3l0.2-0.4l-0.1-0.4l-0.6-0.8l-0.1-0.5
	l0.1-0.4l0.5-0.7l0.2-0.4l0.1-2.7l0.2-0.9l0.1-0.5l-0.1-0.6l-0.4-1.1l-0.3,0l-1.4,0.4l-0.6,0l-0.1,0.3l-0.5,1.9l-0.6,1.3l-0.7,1.2
	l0.2-0.1l0.2-0.2l0.2-0.2l0.1-0.3h0.2l-0.1,0.6l-0.2,0.4l-0.2,0.3l-0.2,0.3l-1.1,1.1l-0.2,0.3l-0.1,0.6l-0.3,0.8l-0.1,0.4l-0.1,0.1
	l-0.2,0l-0.1-0.2l0.3-0.5l0.2-0.6l0.2-0.3l-0.7,0.6l-1.5,1.9l-1,0.8l-0.8,0.2l-0.1,0.1l-0.1,0.2l-0.3,0.2l-0.3,0.1l-0.2,0l-0.3,0.2
	l-0.7,1l-0.9,0.4l-0.4,0.3l-0.7,0.8l-0.2,0.4l-0.4,1.2l-0.2,0.2l-0.6,0.1l-0.6,0.2l-0.5,0.1l-0.4-0.2l-0.2-0.4l0.2-0.4l0.3-0.4
	l0.2-0.5l-0.5,0.2l-0.4,0.5l-0.3,0.6l-0.1,0.5l-0.2,0.5l-0.3,0.5l-0.2,0.4l0.3,0.2L257,182l-0.3,0.5l-0.4,1.1l-0.2-0.2l-0.1,0.4
	l-0.2,0.2l-0.2,0l-0.1-0.4h-0.2l-0.9,1.2l-0.5,0.5l-0.3-0.2l-0.3,0.2l-0.2,0.3l0,0.4l0.1,0.4l-0.4,0l-0.2,0.1l-0.8,0.9l-0.1,0.3
	l0.1,0.2l0.5,1l0.2,0.7l-0.1,0.5l-0.7,0.2l0.3-0.5l0.1-0.4l-0.1-0.4l-0.4-0.6l-0.4-0.1l-0.5,0.5l-2.8,4.3v0l0,0l-0.1-0.1l0,0l0,0
	l0.1-0.1l0,0l0,0h0v0l-0.1,0l0,0l0,0l0,0l0,0v0l-0.1,0l0,0h0l-0.1,0l0.2-0.1h0.1l0,0v0l0,0h-0.2l0,0h0l0.1-0.1l0,0h0l0,0v0l0,0v0h0
	l0,0l-0.1,0l-0.1,0l0.2-0.1l0,0l0,0v0l0,0h0l0,0l-0.1,0l-0.1,0l-0.1,0l-0.1,0.1l0,0.1l0,0l0.3-0.3l0,0l0,0l0,0l0,0v0h0l0,0l-0.1,0
	l-0.1,0.1l-0.1,0.1l0.1-0.2l0,0v0l0,0l0,0v0l0,0l0,0l0,0l-0.1,0.1l0,0.1l0,0.1l0,0l0-0.2l0,0l0,0l0,0l0,0h0l0,0l0,0.1l0,0.1l0,0.1
	l0,0l0-0.2v0l0,0l0,0l0,0l0,0.1v0.1l0-0.1l0,0v0h0l0,0v0l0,0h0l0,0v0l0,0.1l0,0v0l0,0h0.1l0.1,0h-0.1l-0.1,0l-0.1,0l0,0v0l0,0l0,0
	l0.2,0l0,0l-0.1,0l-0.1,0l-0.1,0.1l0,0v0l0,0l0,0l0,0l0.2-0.1l-0.1,0.1l-0.1,0.1l-0.1,0.1l0,0.1l0,0v0l0,0l0,0l0,0l0,0l0.2-0.1l0,0
	l0,0.1l0,0.1l0,0.1v0.1l0,0l0,0l0,0l0,0l0.1-0.2l0,0.1l0,0.1l0,0.1v0.1l0,0l0,0l0,0h0l0,0v0l0.1-0.3l0,0.1l0,0.1v0.1l0,0h0l0,0v0
	l0,0l0.1-0.2l0-0.1l0,0l0,0v0l0,0.1l0,0.1l0,0.1h0l0,0v0l0-0.1l0-0.2l0,0l0,0.1h0v0l0,0h0l0.3,0.2l0,0l0,0l0,0h0l0,0l0,0l-0.1,0.2
	l-2.9,2.5l-0.7,0.8l0,0l0,0l0,0l0,0v-0.1l0-0.1l0-0.1h0l0,0h0l0.1-0.1l0-0.1h0l0,0v0l-0.1,0.1h0l0,0v0h0v0l0.1-0.2l0-0.1l0-0.1v-0.1
	l0-0.2v0l0,0v0h0l0,0v0l0,0l0,0.2v0.1l0,0.1l0,0.1l0,0l0,0l0,0l0-0.1v-0.2l0-0.1l0-0.1l0-0.1l0,0h0l0.1,0.1l0.1,0l0,0l0,0v0
	l-0.1-0.1l-0.1,0l-0.1-0.1h0l-0.1,0l0-0.1l0,0l0,0l-0.1-0.1l-0.1-0.1l-0.1,0l-0.1-0.1l-0.1,0l-0.1,0l-0.1,0l0,0.1l0,0l0,0h0.3l0.1,0
	l0.1,0l0,0l0.1,0l0.1,0.1l0.1,0.1v0l0,0l0,0.1l0,0v0l0,0.1l0,0.1l0,0.1l0,0.1l0,0.1l0,0.1l0,0.1l0,0l0,0l0.1,0l-0.1,0.1l0,0l0,0l0,0
	v0.1l0,0.1l0,0l0,0l0,0v0l-0.3,0.1l0,0l0,0l0,0l0,0l0,0v0l0,0l0,0l-0.2-0.4l0-0.1h0l0,0h0l0,0l0,0l0,0h0.1l0.1,0l0,0l0.1,0l0.1,0.1
	l0,0l0,0l0,0l0,0l0,0l-0.1,0l-0.1,0l-0.1,0h-0.1l0,0v0l0,0l0.1,0h0.1l0.1,0l0.1,0l0.1,0h0l0,0v0l0,0l-0.1-0.1l-0.1,0l-0.1,0l-0.1,0
	l-0.1,0l0,0l0,0l0,0l0,0l0.1,0l0.1,0h0l0.1,0l0.1,0l0.1,0l0,0l0,0l0,0l0,0l0,0l-0.1,0h-0.2l-0.1,0l-0.1,0l-0.1,0l0,0l0,0l0,0
	l0.1-0.1l0.1,0l0.1,0h0.1l0.1,0l0.1,0l0,0h0l0,0l0,0l0,0l-0.1,0h-0.1l-0.1,0l-0.1,0l-0.1,0l-0.1,0.1h0l0,0l0,0l0.1-0.1l0.1-0.1
	l0.1,0l0.1,0h0.1l0,0v0l0,0h-0.1l-0.1,0l-0.1,0l-0.1,0.1l-0.1,0.1h0l0,0l0,0l0.1-0.1l0.1-0.1l0.1,0l0.1,0l0.1,0l0,0v0l0,0l-0.1,0
	l-0.1,0l-0.1,0.1l-0.1,0.1l-0.1,0.1h0l0,0l0,0l0-0.1l0-0.1l0-0.1l0.1-0.1l0,0l0,0l0,0l0,0l0,0l-0.1,0l-0.1,0.1l0,0.1l-0.1,0.1l0,0
	v-0.1l0-0.1l0-0.1l0,0v0l0,0l0,0l-0.1,0.1l0,0.1l0,0.1l0,0l0,0l0,0v0l0-0.2l0,0l0,0l0,0.2h0l-0.1,0l-0.1-0.1l0,0l0,0l0,0l0.1,0
	l0.1,0v0l0,0h0l0,0l-0.1,0l-0.1,0H243l0,0l0,0l0.1,0l0.1,0l0.1,0l0.1,0l0,0v0h0l-0.1,0h-0.1l-0.1,0l-0.1,0l0,0l0,0h0l0,0l0.1,0
	l0.1,0h0.1l0.1,0l0,0l0,0v0h-0.1l-0.1,0l-0.1,0l-0.1,0.1l-0.1,0.1l0,0v0l0,0h0l0,0l0.1-0.1l0.1,0l0.1,0l0.1,0l0.1,0h0.1l0,0l0,0v0h0
	l0,0l-0.1,0l-0.1,0l-0.1,0.1l-0.1,0.1l-0.1,0.1l0,0.1v0l0,0l0,0l0,0l0.1-0.1l0.1-0.1l0,0l0.1,0l0.1-0.1l0.1,0h0l0,0v0l0,0l-0.1,0
	l0,0l-0.1,0l-0.1,0.1L243,196l0,0.1l0,0l0,0h0l0,0l0-0.1l0-0.1l0.1-0.1l0.1-0.1l0.1,0l0.1,0l0,0l0,0l0,0l0,0l-0.1,0l-0.1,0.1
	l-0.1,0.1l0,0.1l0,0.1l0,0h0l0,0l0-0.1l0-0.1l0.1-0.1l0.1-0.1l0.1-0.1l0,0l0,0l0,0l0,0l0,0l-0.1,0.1l-0.1,0.1l-0.1,0.1l0,0.1l0,0h0
	l0,0l0-0.1l0-0.1l0-0.1l0.1-0.1l0.1-0.1h0l0,0v0l0,0l-0.1,0.1l0,0.1l0,0.1l0,0.1l0,0h0l0,0l0-0.1v-0.1l0-0.1l0-0.1l0-0.1l0,0l0,0
	l0,0v0l0.2,0.4l0.1,0.1v0h0l0,0l0,0v0l0,0l-0.2,0.1h0l0,0l0,0l0,0h0l0,0l0,0h0l0,0l0,0l0,0l0,0l0,0l0,0h0l0,0l-0.1,0h0l0,0v-0.1l0,0
	v0h-0.1l-0.1,0l-0.1,0l-0.1,0l-0.1-0.1l0,0l-0.1-0.1l0-0.1l0,0v0h0l0,0l0,0l0,0v0l0,0l0,0l0,0l0,0l0,0l0,0l0-0.1l0-0.1l0,0l0-0.1
	l0-0.1l0-0.1l0.1-0.1l0,0l0,0l0,0v0l0,0l0.1-0.1l0.1,0l0,0l0.1,0l0,0l0,0l0.1,0l0.1,0l0,0l0,0l0,0l0,0l0.1,0l0,0l0-0.1h0l-0.1,0
	l-0.1,0l-0.1,0l-0.1,0l-0.1,0l-0.1,0.1l-0.1,0.1l0,0.1l0,0l-0.1,0.1l-0.1,0.1l-0.1,0.1l0,0.1l0,0.1l0,0.1v0.1l0,0.1l0,0.1l0,0.1l0,0
	l0,0h0l0,0v0l0,0l-0.1,0l0,0l0,0.2l0,0h0v-0.3l0,0l0,0l0,0l0,0l0,0l0,0v0h0l0,0l0.1,0.1l0.1,0.1l0.1,0l0.1,0l0.1,0l0,0l0,0l0,0v0h0
	l-0.1,0l-0.1,0l-0.1-0.1l0,0l0,0v0l0,0v0h0l0.1,0l0.1,0.1l0.1,0l0.1,0l0.1,0l0.1,0h0.1v0l0,0v0l0,0v0h0l0,0l-0.1,0l-0.1,0l0,0v0l0,0
	l0,0l0.1,0l0.1,0h0.1l0.1,0l0,0l0,0l0,0l0,0l0,0l-0.9,0.3l-0.5,0.1l-0.5,0.2l-1.5,1.4l-3,2l0.4,0.5l-0.1,0.4l-0.4,0.3l-0.4,0.1
	l-0.1,0l-0.8-0.4l-0.2,0.2l-0.1,0.3l-0.1,0.2l-1.1,0.7l-0.2,0.3l-0.1,0.5l0.2,0.2l0.2,0.1l-0.1,0.2l0.1,0.4l0.1,0.4l0.1,0.3l0.2,0.2
	v0.2l-0.5,0.2l-0.1,0.4l-0.1,0.4l-0.3,0.2l-0.5,0.1l-0.1,0.2l0.2,0.3l0.4,0.2l-1,2l-0.1,0.1l-0.2,0.4l-0.1,0.1l-0.2,0l-0.6-0.2
	l-0.3,0l0.4,0.3l0.2,0.1l-0.6,0.1l-0.7-0.5l-0.5-0.8l-0.2-0.8h-0.2l-0.3,0.5l-0.1,0.3l0.1,0.3l-0.2-0.2L229,209l0-0.2l-0.3,0.3
	l-0.3,0.2l-0.3,0.1v0.2l0.6,0.1l1.6,1.1l0.7,0.2l0.7,0l0.5,0.2l0.1,0.8h-0.2l-0.3-0.3l-0.4-0.2l-0.4-0.1l-0.4-0.2l0.1,0.4l0.5,0.5
	l0.2,0.4l-0.4-0.1l-0.7-0.3l-0.4,0v0.2l0.1,0l0.2,0.2l-0.4,0.2l-0.1,0.3l0.2,0.7l-1.1,2.1l-0.5,0.7l-1,0.8l-0.2,0.3l-1.1-0.4l-0.5,0
	l-0.2,0.4l-0.2,0l-1.4,1.1l-1.8,0.5l-0.3,0.2l-0.2,0.4l-0.4,0.5l-0.5,0.4l-0.4,0.2l-0.3,0.1l-0.8,0.1l-0.7,0.3l-0.6,0.1l-0.5,0.3
	l-1.7,0.3l-1.6,0.9l-0.3,0.2l-0.7,0.1l-3.3,0l-0.3-0.1l-0.3-0.1l-0.3,0l-0.2,0.1l-0.2,0.1l-0.8,0.4l-0.2,0l-0.3-0.1l-0.3-0.1
	l-0.5,0.2l-0.3,0.1h-0.3l-0.2,0l-0.2-0.2L205,223l-0.1-0.1l-0.2-0.1l-0.3-0.2l-0.5-0.4l-0.3,0.2l-0.4,0l-0.4-0.1l-0.3-0.2l-0.4-0.4
	l-0.2-0.2h-0.2l-3.4,0.7l-1.5-0.1l-0.2-0.2l-0.4-0.6l-0.4-0.5l-0.7-0.5l-0.7-0.3l-0.6,0.1l0.1,0.4l0,0.3l0.1,0.3l0.4,0.2l-0.5,0.1
	l-0.5-0.3l-0.6-0.2l-1.1,0.5l-0.5-0.2l-0.8-0.7l-0.1-0.1l-0.1-0.1l-0.1-0.1l-0.1-0.1h-0.2l0,0.1l0,0.2l-0.1,0.1l-1,0.4l-0.3,0
	l-2.3-0.2l-0.2-0.1l-0.2-0.1l-0.2-0.1l-0.3,0l-0.3,0.1l-0.6,0.3l-0.3,0.1l-0.6-0.1l-1.1-0.3l-0.6,0l-0.2,0.1l-0.1,0.1l-0.1,0.1
	l-0.3-0.1l-1-1.3l-0.4-0.4l-0.5-0.2l-0.5,0.3l-0.1,0.3l0,0.5l-0.1,0.5l-0.3,0.2l-0.4,0.1l-0.5,0.3l-0.5,0.4l-0.4,0.4l-0.4,0.3
	l-0.8,0.4l-0.1,0.3l-0.2,0.3l-0.4,0.3l-0.5,0.2l-0.4,0.1l-0.4,0.1l-0.4,0.3l-0.3,0.3l-0.3,0.3l-0.4,0.1H171l-0.5,0.1l-1,0.6
	l-0.4,0.2l-0.5,0l-0.5,0l-0.5,0l-0.4,0.2l-0.3-0.2l-0.3,0.2l-0.5-0.1l-1.1,0.2l-0.2,0l-0.8-0.4l-0.3-0.3l-0.2-0.1l-0.2,0l-1.5-0.1
	l-0.6,0.1l0,0.3l0.1,0.2l-0.1,0.1h-0.2l-0.2-0.2l-0.5-0.5l-0.2-0.1l-0.3-0.1l-1.3,0l-0.6-0.2l-0.3-0.5l-0.1-0.3l-0.3-0.6l-0.1-0.3
	l0-1l0-0.3l-0.3-1.5l0-0.7l0.3-1.9l-0.1-0.6l-0.6-0.8l-0.5,0.4l-0.5,1.3l0.1,0.1l0,0.1l-0.1,0.1l-0.2,0.1l-0.2,0l-0.1-0.1l-0.2-0.3
	l-0.3-0.9l-0.2-0.4l-0.3,1.3l-0.4,0.4l-0.4-0.2l-0.2-1v-1.7l-0.1-0.6l-0.6-0.8l-0.2-0.5l-0.5,0.6l0.5,1l0,1.3l-0.6,0.8l0,0l0.2,1.1
	l0,0.7l-0.1,1.9l0.2,0.8l0.4,0.7l1.5,2l1.4,1.8l1.4,1.8l1.4,1.8l1.4,1.8l1.4,1.8l1.4,1.8l1.4,1.8l1.4,1.8l1.4,1.8l1.4,1.8l1.4,1.8
	l1.4,1.8l1.4,1.8l1.4,1.8l1.4,1.8l1.4,1.8l1.4,1.8l0.5,0.5l0.7,0.2l4.3,0.6l3.7,0.5l3.7,0.5l3.7,0.5l3.7,0.5l3.7,0.5l3.7,0.5
	l3.7,0.5l3.7,0.5l3.7,0.5l3.7,0.5l3.7,0.5l3.7,0.5l3.7,0.5l3.7,0.5l3.7,0.5l3.7,0.5l3.7,0.5l0.4-0.1l1.8-2.3l0.3-4.2l-0.2-4.2v0
	l0.1-0.9l0.8-2.8l2.6-4.5l0.6-1.8l0.6-2.9l0.3-1l0.5-0.8l0,0l1-1.1l0.4-0.6l0.9-3.6l0.2-0.5l1.3-1.8l0.1-0.4l-0.1-2.2l-0.1-0.8
	l-0.4-0.6l-1-0.6l-0.4-0.4l-0.2-0.5l0.1-0.4l1.2-0.2l1.1-0.4l0.5-0.3l0.8-0.4l0.7-0.3l0.8-0.1l0.9,0l0.9,0.1l0.4,0l0.4-0.2l0.5-0.1
	l0.7,0.5l0.5,0.1l3.1-1.3l1.7-0.4l0.3-0.5l-1-1.8l-0.3-1.2l-0.4-1l-0.8-0.3l-1.5,0.6l-0.4,0l-1.7-0.4l-0.3-0.2l0-0.4l0.2-0.5l1-1.9
	l0.2-0.4l0.1-1.4l-0.1-0.2l-0.2-0.3l-0.5-0.4l-0.2-0.2l-0.1-0.4l0.1-1.6l-0.3-1.2l0-0.6l0.3-0.4l0.4-0.4l0.2-1l0.7-0.7l-0.1-0.6
	l-0.5-1.2l-0.1-0.5l0.1-1.1v-0.6l-0.2-2.3l0.3-0.9l0.8-1l0.9-0.8l0.9-0.6l1-0.3l1.2,0.2l0.7,0.5l0.3,0.9l0.3,1.9l-0.6-0.5l-0.3-0.2
	l-0.4-0.1l-0.5,0.1l-0.1,0.4l0.2,0.4l1,0.9l0.8,2l0.8,0.7l0.4,0.1l0.6,0l0.5-0.1l0.2-0.3l0.2-0.5l0.6-0.7l0.4-1.1l0.4-0.2l1-0.1
	l0.5-0.2l1-1l0.8-0.5l0.1-0.3l0.1-1.7l0.3-0.3l1.5-0.2l-0.6-2.3L280.4,189.6z M247.6,192.4L247.6,192.4L247.6,192.4L247.6,192.4z
	 M247,192.5L247,192.5l0.1-0.1h0L247,192.5z M247.5,192.2L247.5,192.2l0.2-0.1l0,0l-0.3,0.2L247.5,192.2L247.5,192.2z M247.4,192.2
	L247.4,192.2l0.1-0.2l0.1-0.1l0,0L247.4,192.2L247.4,192.2z M247.3,192.2L247.3,192.2L247.3,192.2L247.3,192.2L247.3,192.2z
	 M247,192.7L247,192.7L247,192.7l0.1-0.1l0.1-0.1l0.1-0.1L247,192.7z M247.1,192.8L247.1,192.8l0-0.1l0-0.1l0.1-0.1l0.1-0.1
	L247.1,192.8z M247.2,192.8L247.2,192.8l0-0.1l0-0.1l0-0.1l0,0L247.2,192.8z M247.3,192.5L247.3,192.5L247.3,192.5L247.3,192.5
	L247.3,192.5L247.3,192.5L247.3,192.5z M247.4,192.5l0,0.2v-0.1L247.4,192.5L247.4,192.5L247.4,192.5L247.4,192.5L247.4,192.5z
	 M247.5,192.5L247.5,192.5L247.5,192.5L247.5,192.5z M247.5,192.3L247.5,192.3l0.1-0.1l0.1,0h0L247.5,192.3z M278.1,188.7l-0.8,0.6
	l-0.4,0.2l-0.4-0.1l-0.2-0.4l0.2-0.5l0.6-0.8l-0.1-0.2l-0.2-0.1l-0.1-0.2l0.3-0.2l0.5-0.2l0.3,0l0.2,0l0.1,0.3l0.1,0.6l0,0.6
	L278.1,188.7z"/>
</svg>
