<?xml version="1.0" encoding="utf-8"?>
<!-- Generator: Adobe Illustrator 23.0.1, SVG Export Plug-In . SVG Version: 6.00 Build 0)  -->
<svg version="1.1" id="Layer_1" xmlns="http://www.w3.org/2000/svg" xmlns:xlink="http://www.w3.org/1999/xlink" x="0px" y="0px"
	 viewBox="0 0 300 300" style="enable-background:new 0 0 300 300;" xml:space="preserve">
<style type="text/css">
	.st0{fill:#757575;}
	.st1{font-family:'GoodlifeBrush';}
	.st2{font-size:18px;}
	.st3{font-size:30px;}
	.st4{font-size:15.6px;}
	.st5{fill:none;}
	.st6{opacity:0.4;fill:#8E7890;enable-background:new    ;}
	.st7{opacity:0.2;fill:#8E7890;}
	.st8{fill:#8E7890;}
	.st9{opacity:0.8;fill:#8E7890;enable-background:new    ;}
	.st10{opacity:0.6;fill:#8E7890;enable-background:new    ;}
</style>
<text transform="matrix(1 0 0 1 62.6938 15.9042)" class="st0 st1 st2">Company Rental Interest</text>
<text transform="matrix(1 0 0 1 2.7295 55.3361)" class="st1 st3">1. </text>
<text transform="matrix(1.2345 0 0 1 31.3491 55.3359)" class="st1 st4">Liberia</text>
<rect x="122.9" y="184.3" class="st5" width="78.5" height="59.4"/>
<rect x="135" y="45.9" class="st5" width="139.5" height="37.3"/>
<g>
	<text transform="matrix(1.2345 0 0 1 183.8364 57.1616)" class="st1 st4"> Singapore</text>
</g>
<rect x="201.1" y="225.7" class="st5" width="96.2" height="44.4"/>
<text transform="matrix(1 0 0 1 113.9155 131.6912)" class="st1 st3">3. </text>
<text transform="matrix(1.2345 0 0 1 142.315 136.5664)" class="st1 st4">Dominica</text>
<g>
	<g>
		<text transform="matrix(1.2345 0 0 1 17.4932 195.3369)" class="st1 st3">4.</text>
	</g>
	<text transform="matrix(1 0 0 1 44.6106 200.8912)" class="st1 st4"> Mauritius</text>
</g>
<g>
	<text transform="matrix(1 0 0 1 212.384 191.6073)" class="st1 st3">5</text>
	<text transform="matrix(1 0 0 1 225.3839 191.6073)" class="st1 st4">.</text>
	<text transform="matrix(1 0 0 1 229.7711 191.7497)" class="st1 st4"> Namibia</text>
</g>
<text transform="matrix(1.2345 0 0 1 155.71 59.4263)" class="st1 st3">2.</text>
<path class="st6" d="M35.2,475.7L35.2,475.7L35.2,475.7L35.2,475.7v0.2l0,0l0,0V475.7L35.2,475.7L35.2,475.7L35.2,475.7L35.2,475.7
	l0.1-0.1l0,0l0,0l0,0l0,0L35.2,475.7L35.2,475.7L35.2,475.7L35.2,475.7L35.2,475.7L35.2,475.7z M35.1,475.9L35.1,475.9l-0.1-0.1
	l-0.1,0.1l0,0l0,0v0.1l0,0v0.1H35v0.1h-0.1l0,0l0,0H35l0.1-0.1l0,0l0,0V475.9L35.1,475.9z M33.1,473.1L33.1,473.1L33.1,473.1V473
	V473.1h-0.2H33.1L33.1,473.1L33.1,473.1z M102.3,485.7L102.3,485.7h-0.2l0,0l0,0l0,0l0,0v0.1l0,0l0,0l0,0l0,0l0.1,0.1l0,0h0.1h0.1
	L102.3,485.7L102.3,485.7L102.3,485.7z M34.5,475.2h0.2l0,0v-0.1l0,0l0.1-0.2v-0.1h0.1l0,0h-0.1l-0.3,0.2V475.2L34.5,475.2z
	 M35.6,476.9l0.1-0.2l0,0l0,0l0.5-0.1v-0.1l-0.2-0.1l-0.4,0.1l0,0h-0.1l0,0v0.1L35.6,476.9L35.6,476.9z M82.8,499.4v0.1l0,0l0.5-0.7
	v-0.1l-0.1,0.1L82.8,499.4z M82.4,500L82.4,500v0.1h0.1l0.2-0.3l0,0L82.4,500z M79.7,500v0.2l0,0V500L79.7,500L79.7,500z
	 M82.2,500.2L82.2,500.2l-0.1,0.1l0.3-0.1h-0.1H82.2z M81.4,500.4L81.4,500.4l0.6-0.1h-0.3L81.4,500.4z M82,500.3L82,500.3L82,500.3
	L82,500.3z M80.7,500.4v0.1l-0.3,0.1l0.8-0.1l0,0l-0.1-0.1H80.7z M78.2,500.5L78.2,500.5l0.3,0.1h0.1h-0.2L78.2,500.5z M77.7,500.5
	l-0.5,0.1l0,0L77.7,500.5L77.7,500.5L77.7,500.5z M78.8,500.5L78.8,500.5h0.8h-0.4H78.8z M99,451.4L99,451.4L99,451.4L99,451.4z
	 M71.6,448.4l0.2-0.1v-0.2l-0.1-0.1l-0.2-0.3l-0.1,0.1v0.3L71.6,448.4z M73.6,501.7L73.6,501.7h-0.2l-0.1,0.1l-0.2,0.2v0.2l0.4-0.1
	h0.1h0.1v0.1v0.1l-0.1,0.1h0.1l0.1-0.2l0.1-0.2v-0.2L73.6,501.7z M68.4,459v0.2l0.1,0.1l0.1,0.1h0.1l0.1-0.1l0,0v-0.2l-0.1-0.3
	l-0.1-0.1l-0.1-0.1l-0.2-0.2l-0.1,0.1l0.1,0.3L68.4,459z M53.6,506.6L53.6,506.6v-0.1h-0.2l-0.2,0.1v0.2l0.1,0.2l0.1,0.1v0.2
	l0.1,0.1l0.1-0.1l0.1-0.2l0.1-0.2L53.6,506.6L53.6,506.6z M107.4,476.4l-0.1-0.1v-0.1V476v-0.4v-0.4v-0.3l-0.3,0.4l-0.2,0.5v0.1
	l-0.1,0.1l-0.1,0.3l-0.1,0.1l0,0v-0.1l-0.1-0.1h-0.1H106l0.1-0.1l0.1-0.1l0.1-0.1h0.1v-0.1l-0.1-0.1l-0.6,0.1v-0.1l0.2-0.1h0.3
	l0.3-0.1v-0.1v-0.1v-0.1v-0.1l0.1-0.2v-0.1l-0.1-0.1h-0.3l-0.6,0.1l-1.2-0.1l-0.9,0.2l-0.2-0.2h0.5l0.5-0.1h1.1l1-0.3l0.2-0.1
	l0.3-0.5l0.2-0.2l-0.3-0.6l-0.2-0.2l-0.4-0.3l-0.2-0.1l-0.8,0.2h-0.4l-1.3,0.5l-0.1-0.2l0.2-0.1l0.7-0.1l0.3-0.2l0.2-0.1h0.4
	l0.3-0.1l0.2-0.2v-0.3l-0.6-0.2l-0.2-0.2l0.3-0.2l0.7,0.1l0.3-0.2v-0.2v-0.2v-0.1l-0.1-0.1l0.3-0.2l0.1-0.1v-0.2l-0.1-0.4v-0.1
	l0.1-0.2l0.1-0.2l0.1-0.3v-0.4l-0.1-0.1l-0.3-0.3l0,0h-0.1h-0.1v-0.1v-0.1v-0.1v-0.1l-0.2-0.1l-0.2,0.2l-0.4,0.6l-0.1-0.1l-0.1-0.1
	l-0.1-0.1v-0.2v-0.2v-0.1l-0.1-0.1h-0.1h-0.2v-0.1h0.1v-0.1v-0.2l-0.1-0.2l-0.1-0.1h-0.2l-0.9,0.2h-0.2l-1.8-1.1l0.1,0.2l0.3,0
	l0.1,0.2l-0.6-0.5h-0.2l-0.2,0.1l-1,1.5l-0.2,0.3l-0.1,0.1l-0.3,0.3h-0.1l-0.1,0.1l-0.2,0.4l-0.1,0.1v-0.3l0.1-0.3l0.1-0.2l0.6-0.7
	l0.2-0.4l0.4-0.5l0.2-0.5l0.2-0.2l0.4-0.1l-0.2-0.2l-0.5-0.3l-0.2-0.1l0,0v-0.1l-0.1-0.2v-0.2l0.2-0.2l0.3-0.8l-0.3-0.3l-0.3,0.1
	l-0.6,0.3l-1.7,0.5l-0.6,0.4l-0.3,0.1l-0.3-0.1l0.1-0.3l0.2-0.4l0.1-0.4l-0.4,0.5l-0.2,0.2H96l0.4-0.4l0.2-0.3v-0.3l0.2-0.2l0.6-0.4
	l0.5-0.7l0.1-0.1v-0.1l0.2-0.5v-0.1v-0.2v-0.1v-0.1l0.1-0.1v-0.1v-0.2l-0.1-0.4v-0.2v-0.1h-0.1l-0.1-0.1v-0.2v-0.4l-0.1-0.3
	l-0.2-0.2l-0.2-0.1h-0.4l-0.7,0.6H96l-0.5-0.2h-0.9l-0.2-0.1l0.1-0.1l0.2-0.2l0.1-0.1v-0.4l-0.1-0.1h-0.5h-0.1l-0.2-0.2l0.1-0.4
	l0.2-0.2h0.5l0.1-0.1l0.8-0.7l0.1-0.1l0.1-0.3v-0.2l-0.1-0.1v-0.1l-0.2-0.3l0,0v-0.2l-0.1-0.1l-0.2-0.1l0.2-0.3l0.3-0.2l0.7-0.2
	L97,453l1.4-0.6l0.4-0.4l-1.5,0.3l-0.2-0.1l-0.3-0.3l-0.2-0.1l-0.7,0.1l-0.2,0.1l-0.3,0.3l-0.1,0.3l-0.1,0.3l-0.1,0.2l-0.6,0.4v0.1
	v0.2v0.2l-0.6,0.2h-1l-0.2,0.1l-0.1,0.2v0.3v0.4v0.4l-0.1,0.3l-0.1,0.2l-0.1,0.1v0.1l0,0h0.1l-0.2,0.2l-0.1-0.2l-0.2-0.3l-0.3-0.2
	l-0.2-0.3l-0.2-0.1l-0.1-0.1v-0.2v-0.2L91,455h-0.1h-0.1l-0.1-0.1v-0.1h-0.1l-0.3,0.1h-0.6l-0.1-0.1l0.1-0.3v-0.2v-0.1l-0.3-0.1
	l-0.1-0.1l-0.1-0.1l-0.1,0.1l-0.1-0.3l0.2-0.2l0.2-0.3l0.3-0.6l-0.2-0.5V452v-0.2l-0.1-0.2l-0.1-0.1l-0.1-0.1h-0.8v-0.1v-0.2V451
	l-0.1,0.1L88,451l-0.3,0.1h-0.1l0.1-0.2v-0.1l-0.1-0.2v-0.1l0.2-0.2v-0.4l0,0h-0.1l0.1-0.3l0.1-0.1l0.1-0.1l0.1-0.2l-0.4-0.2
	l-0.7-0.7l-0.4,0.2l-0.1,0.1l-0.4-0.2h-0.2l-0.2,0.1l-0.1,0.1l-0.1,0.4l-0.1,0.1h-0.1l-0.1-0.2v-0.1l-0.1,0.1l-0.1,0.2l-0.1,0.1v0.1
	l0,0l-0.2,0.1h-0.1l-0.1-0.1l0,0l0.1-0.1h-0.1l-0.1-0.1l0.4-0.2l-0.1-0.1h-0.1l-0.2,0.2l-0.1,0.1v0.1v0.1v0.1v0.1l-0.1-0.1l-0.1-0.1
	v-0.2v-0.2v-0.2H84l-0.2,0.1l-0.1,0.1l-0.1,0.2v0.2v0.1h-0.1v-0.1v-0.1l-0.1-0.1h-0.2l-0.2,0.2l-0.1,0.3l0.2,0.3l0.2,0.6l0.1,0.2
	v0.1h-0.2l0.1,0.3v0.1l0.1,0.1v0.1l-0.1,0.1v0.1h0.1l0,0l-0.1,0.3v0.2l0.2,0.2v0.1v0.2v0.2v0.1l0,0l0,0v0.1l0.1,0.3l0.1,0.1l0.1,0.2
	v0.3v0.2l-0.1,0.2l-0.1,0.2v0.1v0.1l-0.1,0.1l-0.1,0.2l-0.1,0.3v0.3l0.1,0.2l0.2,0.2l0.3,0.3v0.1h-0.2l-0.3-0.5l-0.2-0.2H83
	l-0.7,0.3l0.2-0.2l0.7-0.4H83l-0.3,0.2l-0.5,0.2l-0.4,0.3l0.1,0.2v0.1v0.2l0.1,0.3l0.1,0.1l0.1,0.2l0.6-0.3v0.1l-0.3-0.1l-0.2-0.3
	l-0.2-0.4l-0.2-0.2h-0.1l-0.1,0.2l-0.1,0.4h-0.1l-0.1-0.3l-0.1-0.1l0.1-0.1l0.1-0.1h0.1h0.2l-0.3-0.1l-1,0.3l-0.3,0.2l0.1,0.1h0.1
	l-0.1,0.1h-0.1h-0.1l-0.1-0.1v-0.1h0.1v-0.2v-0.1l-0.3-0.8l-0.2-0.4l-0.2-0.1l-0.8-0.1l-0.2-0.2l-0.1,0.3l-0.5,0.2l-0.2,0.2
	l-0.2,0.3v0.1l0.1,0.1v0.1v0.2v0.2l-0.1,0.1l-0.2,0.1l-0.2,0.2l-0.2,0.3l-0.1,0.3v0.3v0.3v0.1v0.1v0.1l-0.1,0.1v0.3v0.2l-0.1,0.1
	l-0.1,0.1v0.1l0.1,0.1v0.1v0.1v0.1h-0.1l-0.1-0.4l-0.1-0.2l-0.1-0.1h-1.3l0.2,0.2h0.7l-0.1,0.1l-0.2,0.1l-0.2,0.1H75l0.1,0.3
	l0.1,0.3l0.1,0.3v0.4l-0.1-0.3l-0.3-0.8l-0.2-0.4l-0.1-0.2l-0.3-0.2l-0.1-0.3l-0.1-0.6l-0.1-0.2l-0.3-0.5l-0.1-0.1l-0.1-0.1
	l-0.3-0.4l-0.1-0.1l-0.3,0.1l-0.1-0.1l-0.1-0.1l-0.1-0.4l-0.1-0.1l-0.3-0.2l-0.8,0.2l-0.3-0.2l0,0l0,0l0,0v-0.1h-0.1h-0.3h-0.1
	l-0.2-0.2l-0.1-0.1h-0.7h-0.1l-0.2,0.6v0.9l0.1,0.9l0.2,0.6v0.1h-0.1v0.1l0.1,0.2l0.2,0.4l0.2,0.1l0.1,0.2v0.3l-0.1,0.3l0.1,0.1
	l0.2,0.3l0.1,0.1l0,0l0.1-0.2l0,0l0,0l0,0l0,0l0,0l0.1,0.1l0.2,0.4l0,0h0.1h0v0.1v0.3v0.1L71,462v0.3l-0.1,0.4v0.1l-0.1,0.1v0.1v0.2
	v0.1v0.1v0.2v0.1v0.1v0.1v0.2l0.1,0.1l0.2,0.1l0.1,0.1l0.1,0.2l0.1,0.4v0.3l-0.1,0.2l-0.1-0.1l-0.1-0.3v-0.3v-0.3l-0.4-0.4l-0.2-0.3
	l-0.1-0.1v-0.1v-0.8v-0.2l-0.1-0.4V462v-0.5v-0.2l-0.1-0.2V461h-0.1h-0.2h-0.1v-0.1v-0.1l-0.1-0.3v-0.2l-0.1-0.2l-0.2-0.2l-0.1-0.3
	l-0.1-0.1l-0.1-0.1l-0.6-0.1l-0.4-0.2l-0.6-0.1v-0.1l0.1-0.3l0.1-0.6l-0.1-0.3l-0.1-0.4l-0.1-0.3l-0.1-0.2l-0.1-0.1l-0.1-0.1
	l-0.1-0.1l-0.1,0.1l-0.1,0.1l-0.1,0.1h-0.1h-0.1l0.2-0.5l0.1-0.3l-0.1-0.1l-0.1-0.1l-0.2-0.3l-0.2-0.2l-0.2-0.1l-0.6,0.6h-0.1v-0.3
	l0.1-0.4l0.1-0.3l-0.4-0.2h-0.2l-0.1,0.1v0.1v0.2l-0.2,0.4l-0.1,0.2l-0.1,0.1l0.1-0.6l-0.2-0.1l-0.7,0.3l-0.3,0.2l-0.1,0.1l-0.1,0.2
	l-0.1,0.5l-0.1,0.1v0.1l0,0l0.1,0.1l0,0v0.1h-0.1v0.2L63,457l0.1,0.1l0.1,0.1H63l-0.3-0.3l-0.2-0.1v-0.2v-0.1h-0.1h-0.1h-0.1
	l-0.1,0.1v0.3h-0.2l-0.4-0.3l-1.1,0.2l-0.5,0.2l-0.1,0.2l-0.1,0.2l0,0v0.1l0.1,0.4l0.1,0.2l0.1,0.2l0.1,0.1l-0.1,0.2l-0.2,0.2
	l-0.2,0.1h-0.1l-0.1,0.1l-0.1,0.2v0.2v0.1l0.5,0.5v0.1l0.2,0.7l0.1,0.5v0.5v0.5v0.6l-0.1,0.6l-0.1,0.3l-0.1,0.1l-0.2,0.1h-0.1v-0.2
	v-0.1l0.1-0.1h0.1h-0.2h-0.1l-0.1-0.1l-0.1-0.2l0,0H59l-0.1,0.2l-0.1,0.4l-0.2-0.2l-0.4-0.1l-0.2-0.2v-0.2v-0.5v-0.2l-0.1-0.1
	l-0.2-0.4v-0.1v-0.1v-0.1v-0.1l0,0h-0.1v-0.1l-0.1-0.2h-0.1h-0.1l-0.3-0.2l-0.4-0.1l-0.1-0.1v-0.4l-0.2-0.3l-0.2-0.2l-0.1-0.3v-0.1
	v-0.1v-0.1l-0.1-0.1v-0.1v-0.1v-0.2l-0.3-0.6l-0.1-0.3l-0.1-0.3l-0.1-0.1l-0.1-0.1l0.1-0.1l-0.2-0.1l-0.1-0.1l-0.1-0.2v-0.4
	l-0.2,0.2h-0.2l-0.4-0.2l-0.1,0.1l-0.3,0.4l-0.1,0.1h-0.3h-0.1l-0.1,0.1l-0.1,0.2h-0.1h-0.3h-0.2l-0.2,0.1l0.1,0.3v0.3l-0.1,0.3
	l-0.1,0.2l0.1,0.2l0.1,0.2l0.1,0.2l0.1,0.3v0.7l0.1,0.2l0.3,0.7l0.2,0.6l0.1,0.6l-0.2,0.2v0.2l0.2,0.2l0.2,0.4l0.2,0.5l0.1,0.5v0.3
	l-0.1,0.3l-0.1,0.2l-0.1,0.1l-0.1,0.1v0.3l0.1,0.2h0.2h-0.2h-0.1l-0.1,0.1v0.1v0.3v0.1l-0.1,0.2l-0.3,0.4l-0.1,0.3l0.1,0.3l-0.1,0.2
	l-0.1,0.2v0.3l-0.1-0.3v-0.8l-0.1-0.2h-0.1l-0.2,0.2H52h-0.3l-0.3,0.1l0.1,0.1h0.1h0.3l0.1,0.1l0.1,0.3l0.1,0.1l-0.1,0.4v0.3
	l-0.1,0.2l-0.2,0.1h-0.1h-0.1l-0.1-0.1l-0.1-0.1l-0.1-0.1v-0.1v-0.1l-0.1-0.1v-0.1l-0.2-0.1l0,0v-0.3v-0.1v-0.2v-0.2v-0.1v-0.1
	l-0.1-0.1l-0.1-0.2l-0.1,0.1v0.3l0.1,0.4l-0.2,0.1l-0.1-0.2v-0.3l0.1-0.3l-0.1-0.3v-0.4l0.1-0.8v-0.1l0,0l0,0v-0.2l0,0h-0.1l0,0
	l-0.2-0.2l-0.1-0.1h-0.1v0.2l-0.1,0.1h-0.1l-0.2,0.1l-0.5,0.7l-0.9,0.7l-0.2,0.5v0.1l-0.1,0.6v0.1l-0.1,0.2v0.1v0.3v0.3v0.5L48,470
	l0.1,0.6l0.2,0.6l0.2,0.5l-0.1,0.1l-0.1-0.1l-0.3-0.1l-0.1-0.1v-0.1l-0.2-0.5l-0.2-0.8l-0.2-0.3l-0.2-0.1L47,470v0.6l0.2,1.5v0.3
	v0.3l-0.1,0.1l-0.1,0.1v0.1v0.2v0.1l-0.1,0.2l0.1,0.2l0.1,0.3l0.1,0.2v0.1v0.3l0.1,0.5l-0.1,0.3l-0.1,0.1l-0.1-0.1v-0.1l0.1-0.3
	l-0.1-0.4l-0.2-0.3l-0.1-0.2l0,0l0,0l0,0l0,0l-0.1-0.2l-0.3-1v-0.2v-0.4V472v-0.4v-0.2v-0.2v-0.1l-0.1-0.1l0.1-0.3l-0.1-0.2
	l-0.3-0.3l-0.2-0.4l-0.1-0.1h-0.2l-0.2,0.1l-0.3,0.3l-0.8,0.3v-0.1l0.4-0.1l0.3-1.3l0.4-0.7l0.2-0.7l-0.2-0.8l-0.4,0.1l-0.5,0.4
	l-0.4,0.2v-0.1l0.2-0.2l0.4-0.7l0.1-0.2l-0.1-0.3l-0.2-0.1H43l-0.1-0.1v-0.1l-0.1-0.1l-0.1-0.2V465v-0.1l-0.1-0.1l-0.1-0.1l0.1-0.2
	l0.1-0.1v-0.2V464l0,0l-0.2-0.3v-0.1l-0.1-0.1l-0.4-0.3h-0.1l0.2-0.1h0.3l0.2,0.1l0.2,0.3v0.2l0.1,0.3l0.2,0.3l0.1,0.1v0.1l0.1,0.3
	l0.1,0.1h1.1l0.2-0.2l0.6-0.8l-0.1-0.1l-0.4-0.3h-0.1l-0.3,0.1h-0.2v-0.1l0.8-0.3l0.2-0.2l0.1-0.3l0.4-0.9v-0.1l-0.4-0.3l0.2-0.1
	l0.1-0.3v-0.3l-0.1-0.4l-0.2-0.2l-0.9,0.2v-0.1l0.3-0.3l0.1-0.2l-0.2-0.1l-0.8,0.1l-0.5,0.3h-0.2l-0.1-0.3h0.1l0.8-0.2l0.2-0.2
	l1.1-0.1l-0.1-0.4l-0.1-0.2l-0.2-0.1l-0.2-0.1l-0.9,0.2l-0.2-0.2l-0.1-0.3V458l0.1-0.2h0.1l0.2-0.1l0.1-0.1l-0.2-0.1v-0.1v-0.2v-0.1
	l-0.1-0.1h-0.4l-0.3,0.1l-0.1,0.1l0.2,0.4v0.1v0.3v0.1l-0.1,0.1l-0.1,0.1h-0.1l0.1-0.2l0.1-0.2l0.1-0.3v-0.3l-0.1-0.1h-0.1l-0.1,0.1
	h-0.1l-0.1-0.1l-0.1-0.1v-0.4v-0.3l0,0v-0.1l-0.1-0.2V456l0.1-0.1v0l-0.1-0.2l-0.1-0.1v-0.2v-0.1l-0.5-0.3h-0.1l-0.2,0.1h-0.1
	l-0.1-0.1l-0.1-0.1l-0.4-0.3h-0.1l-0.1,0.1l-0.1,0.1l-0.1,0.1l-0.1-0.1l0.5-0.4l0.1-0.1l-0.3-0.5l-0.1-0.1l-0.1-0.1h-0.1l-0.1,0.1
	l-0.1-0.1l-0.6,0.1v-0.3l-0.1-0.1h-0.1l-0.1,0.2l-0.1,0.1h-0.1l-0.1-0.1l-0.1-0.1h-0.1l-0.1,0.1l-0.1,0.1l-0.1,0.1l-0.1-0.1v-0.1
	l0.1-0.1v-0.2l-0.1-0.1V453v-0.2v-0.2l0.1-0.1h0.1v-0.1l-0.3-0.1l-0.1-0.1l-0.2-0.3l-0.2-0.4l-0.7-0.4l-0.1-0.2l-0.1-0.5l-0.2-0.4
	l-0.3-0.2h-0.3L36,450l0.2,0.1l0.1,0.2v0.3h-0.1l-0.5-0.3l-0.3-0.3l-0.3-0.2l-0.3,0.1v0.2v0.1l-0.2,0.1l-0.3,0.4h-0.2l-0.2-0.1
	l-0.3-0.4l-0.4-0.1l-0.3-0.3l-0.1-0.1H32l0.4,0.4l0.1,0.1l0.1,0.1v0.2l-0.1,0.2h-0.2v-0.1l-0.1-0.2v-0.1h-0.1l-0.9,0.1l0.1,0.1v0.1
	l0.1,0.2l-0.2-0.1l-0.3-0.2l-0.3-0.1l-0.2,0.2l0.2,0.3l0.2,0.3l0.2,0.2h0.2L31,452l-0.3,0.1l-0.4-0.2H30l-0.1,0.2v0.1l0.1,0.1
	l0.2,0.3l0.3,0.2l1.3,0.3l0.2-0.2h0.1l0.3-0.6l0.1-0.2l0.1-0.1l0.3-0.1v0.2l-0.1,0.1l-0.1,0.3v0.3l0.1,0.1l0.3-0.1l0.2-0.1l0.6-0.7
	l0.3-0.2l0.3-0.1l-0.4,0.2L34,452v0.1v0.4v0.1l-0.2,0.2l-0.1,0.1v0.2l0.1,0.1l0.4,0.1h0.5l0.4-0.2l0.3-0.3h0.1l0.2,0.1v0.1h-0.1
	l-0.1,0.1l-0.1,0.1l-0.1,0.2l-0.1,0.1h-0.1l0,0l0.2,0.2l0.3,0.2l1.1-0.2l-0.2,0.2h-0.4l-0.4,0.3l-0.2,0.1h-0.4l0.1,0.3v0.1l0.1,0.1
	l-0.1,0.1h-0.1l-0.2-0.2v-0.1v-0.1v-0.1h-0.1h-0.2l-0.8-0.3h-0.2l-1.2,0.3l-0.4,0.2l0.3,0.9l0.6,0.6l1.9,0.8l0.4,0.5l0.7,0.3H36
	l0.2-0.2l0.4-0.2h0.2l-0.1,0.3l-0.1,0.1h-0.2l-0.2,0.1l-0.1,0.2l-0.1,0.2v0.2l-0.1,0.3l0.2,0.1l0.2,0.2l0.2,0.3l0.1,0.3l0.1,0.4
	l0.1,0.4l0.1,0.4l0.2,0.2v0.1l-0.2,0.2l-0.3,1.1l-0.3,0.2v-0.1l0.1-0.2l0.2-0.4l0.1-0.2V461v-0.1h-0.1l-0.1,0.2v0.2v0.1l-0.1-0.1
	v-0.1v-0.1v-0.2l-0.1-0.2h-0.1l-0.1,0.1H36l-0.1-0.3l-0.1-0.3l-0.1-0.2h-0.2v0.1l-0.1,0.4l-0.5,1.4l-0.2,0.8h-0.1l-0.1-0.2l0.1-0.4
	L35,461l0,0v-0.1l0.1-0.1v-0.2v-0.2V460v-0.1v-0.1l-0.3-0.6l-0.3-0.3l-0.1-0.1v-0.2v-0.3l-0.1-0.1h-0.5l0,0l-0.1,0.2l-0.1,0.3
	l-0.1,0.5v0.5v0.4l-0.3,0.9v-0.3l0.1-0.5v-0.6l-0.1-0.5l-0.1,0.1l-0.1,0.3l-0.1,0.5l-0.1,0.2l-0.1,0.1h-0.3l0.3-0.2l0.2-0.4l0.2-0.5
	l0.1-0.4l-0.1-0.1l-0.1,0.1l-0.1,0.2l-0.1,0.1V459v-0.1l-0.1-0.5l-0.1-0.2l-0.1-0.1h-0.1v0.1v0.2v0.2l-0.2,0.3l-0.4,0.5l-0.2,0.3
	l0,0l0.1-0.2l0.4-0.7l0,0l0.1-0.3l0.1-0.1v-0.2v-0.3v-0.3v-0.1l-0.1-0.2l-0.1-0.2L32,457h-0.1l-0.2,0.1l-0.4,0.6v-0.4V457l-0.1-0.4
	l-0.2-0.3l-0.2-0.1l-0.2-0.1l-0.8-0.6l-1.3-0.4l-0.2,0.1v0.3l-0.1,0.1h-0.3l-0.1,0.1l-0.1,0.2l-0.1,0.2l-0.1,0.1v0.1l0.2,0.1h0.8
	l0.2,0.1L29,457l0.2,0.2l-0.7-0.6l-0.5-0.1l-0.7,0.1l-0.3,0.2l0.3,0.4l0.5,0.4l0.2,0.3l0.1,0.1h0.2l0.4,0.2h0.2l0.2,0.1l0.3,0.6
	l0.1,0.2v0.1l-0.2-0.1l-0.1-0.2l-0.1-0.3v-0.3l-0.3,0.2l-0.4-0.1l-1.4-0.9l-0.4-0.1l-0.3,0.1l-0.1,0.2l-0.1,0.3v0.6l0.1,0.2l0.3,0.5
	l0.4,0.4l0.2,0.1l0.1,0.2l0.2,0.1l0.4,0.6l0.2,0.1l0.8,0.2l0.4,0.3l0.2,0.1l0.7,0.1l0.2,0.3L31,462l-0.3,0.1l-0.3-0.1l-0.6-0.4h-0.3
	l-1-0.4l-0.5,0.2h-0.1l-0.2-0.1l-0.3-0.3l-0.1-0.1l-0.6-0.1l-0.5-0.3H26l-0.3,0.4v0.6l0.2,0.6l0.3,0.5l0.5,0.5l0.1,0.2l0.1,0.1
	l0.4-0.1l0.3,0.3l0.4,0.2l2.2,0.1l0.3-0.3l0.3-0.1l0.4-0.1l-0.1,0.1l-0.4,0.3v0.1h0.1h0.1L31,464l-0.2,0.1h-0.2l-0.3-0.1h-0.2
	l-0.2,0.2l-0.7,0.1l-0.1-0.1l-0.1-0.1l-0.5,0.2l-0.1,0.1l0.1,0.2l0.1,0.2l-0.8,0.1l0.3,0.2l0.4,0.1l1-0.1l-0.1,0.1h-0.1h-0.1h-0.1
	l-0.4,0.3h-0.1l0.1,0.2l0,0h0.1v0.1l-0.2,0.1l-0.4-0.1l-0.1,0.2l-0.1-0.2v-0.1l-0.3,0.5l-0.2,0.1l-0.1-0.1l0.1-0.3l0.1-0.2v-0.2
	l-0.1-0.3l-0.1-0.1l-0.2-0.2l-0.1-0.3l-0.1-0.1l-3.4-1.9h-0.3l-0.3,0.3l0.1,0.2v0.2v0.2v0.2l0.3,0.7l0.3,0.4l0.2,0.2l0.4,0.1
	l0.4,0.3l0.4,0.1l0.2,0.2l0.2,0.2l0.2,0.3l-0.3-0.1l-0.8-0.5l-1.2-0.2l0.1,0.3l0.3,0.3l0.2,0.4l0.4,0.4l0.2,0.1l0.1,0.2l0.1,0.2
	l0.1,0.2l-0.1,0.4H25h0.4l-0.5,0.2h-0.2l-0.2-0.1l-0.1-0.2l-0.1-0.2l-0.1-0.2l-0.6-0.2l-0.3-0.2l-0.4-0.6l-0.1-0.1h-0.2l-0.8-0.5
	h-0.2h-0.1l-0.1,0.2l-0.2,0.2v0.3v0.3v0.3l-0.1,0.2l-0.5,0.3l-0.1,0.1l-0.1,0.2l-0.2,0.2l-0.4,0.2l0.2,0.3h0.3l2.3-0.2l1.2,0.5
	l0.2,0.3l0.1-0.3h0.2l0.2,0.2v0.4l-0.1-0.1h-0.1h-0.1l0.1,0.1l0.1,0.1v0.1v0.2v0.1l0.3,0.2l0.4,0.1l1.5-0.4l0.3-0.5l0.1-0.1h0.1
	v-0.1V469l0.2,0.1l1.1-0.2l0.4-0.3l0.2-0.1v-0.1l0,0l0,0l0.1-0.1l0,0h0.1l0,0l0.1,0.2l0.1,0.2l0.1,0.1h0.1l0.2,0.1l0,0h0.1l0.1-0.1
	l0.2-0.3l0.1-0.1v-0.1l-0.1-0.3v-0.4l0.1-0.4l0.2-0.1v0.1v0.3l0.2,0.2l0.4,0.2l0.2-0.1l0.5-0.1l0.2-0.2v-0.2v-0.6v-0.1l0.1,0.1v0.2
	v0.2l0.1,0.2l0.2,0.1l0.2-0.2l0.2-0.4v-0.4l0.3,0.2l0.1,0.1l0.1,0.2l-0.2,0.1l-0.4,0.5l-0.2,0.2v0.2h0.2h0.1v0.2h0.1l0.3-0.1h0.1
	l0.1,0.1v0.1v0.2v0.1h0.1l0.1,0.1h0.1l0.1-0.1l-0.2-1.5l-0.1-0.2l-0.1-0.4v-0.1v-0.1l0,0h0.1l0.2,0.1h0.1v-0.1l0,0l0.1,0.1l-0.2,0.4
	l-0.1,0.3v0.3l0.2,0.6l0.1,0.1l0.1,0.1h0.1l0.1-0.1l0.1-0.2l0.1-0.5h0.1l0.1,0.4l0.1,0.2h0.1l0.1-0.1l0.2-0.3v-0.2v-0.2l-0.1-0.4
	v-0.2v-0.2v-0.1l0.1-0.2l0.1,0.2l0.2,0.7l0.1,0.3v0.2v0.2v0.3l0.1,0.3l0.1,0.1l0.4-0.2l0.1-0.2v-0.2l-0.1-0.1v-0.2h0.2l0.1,0.1
	l0.4,0.4l0.2-0.1l0.2-0.3l0.1-0.1h0.2v0.1l-0.1,0.1l-0.3,0.2v0.1h0.6h0.1l0.3-0.2l0.6-0.9l0.2-0.1l-0.2,0.1l-0.1,0.1l-0.1,0.1v0.2
	v0.2v0.2l-0.1,0.1l-0.2,0.1l-0.4,0.3l-0.9,0.2l-0.2,0.1l-0.2,0.3l0.1,0.2l0.3,0.2l0.5,0.4l0.2,0.3l0.1,0.1H38l0.1-0.1l0.1-0.2v-0.2
	v-0.1h0.1l0.1-0.1l0.1-0.2l0.3-0.1l0.1-0.2v-0.3v-0.3l0.1,0.1l0.1,0.5l0.1,0.2l0.1,0.1h0.1l0.1-0.1v-0.3h0.1h0.1h0.1l0.1-0.1v0.3
	L40,469l0.3,0.3l-0.2,0.2l-0.2,0.3h0.2l0.5-0.2l0.6,0.1h0.3l0.8-0.3l-0.5,0.3l-1,0.3l-0.5,0.3v0.1l0.1,0.3h-0.1l-0.2-0.2H40v0.1l0,0
	l0,0l0,0l-0.2,0.2l-0.5,0.3l-0.3,0.4l-0.8,0.6l-0.9,0.3l-0.2,0.2l-0.2,0.5l-0.1,0.1h-0.3h-0.1v0.3l-0.1,0.2l-0.4,0.2l-0.3,0.3
	l-0.1,0.3l-0.1,0.3l0.4-0.2H36l0.2,0.1v0.2H36h-0.1l-0.1-0.1l-0.2,0.2l-0.2,0.1l-0.1,0.1l0.2,0.2l0.2,0.1l0.7-0.1l0.1-0.1l0,0h0.1
	l0.6,0.5l2.3,0.5l0.4-0.2l1.2-1V475H41v-0.1l0.2-0.3h0.4l0.3,0.3v0.7l-0.3,1l-0.1,0.2l-0.1,0.1h-0.1l-0.1,0.1l-0.1,0.3h0.2l0.2,0.2
	v0.2l-0.2,0.2l-0.9,0.1l-0.2-0.1L40,478l-0.2-0.1l-0.2-0.1l-0.2-0.1h-0.6l-0.1,0.1l-0.1,0.2l-0.1,0.1l-0.7-0.4l-1.1-0.2l-0.7,0.2
	h-0.7l-0.1,0.1v0.3H35l-0.1,0.1l-0.1-0.3l0.2,0.4l0.1,0.1l0.1,0.1v0.1l-0.1-0.1l-0.4-0.3l-0.3-0.1l-0.1-0.1l-0.1-0.4l-0.1,0.1
	l-0.1,0.1h-0.1h-0.1l0.1-0.1l0.2-0.1l0.1-0.2v-0.1l0,0v-0.1l-0.1-0.1H34l0.1-0.1v-0.1l-0.3,0.1l-0.6,0.6l-0.3,0.1v0.1l0.6-0.1
	l0.1,0.1l-0.5,0.3l-0.5,0.1l-0.2,0.1l-0.1,0.2l-0.2-0.3l-0.2-0.2h-0.2l-0.2,0.3v0.1v0.2l-0.1,0.1h-0.1h-0.1h-0.1l-0.1,0.2v0.2v0.2
	v0.3l-0.4-0.7l0.1-0.2l0.1-0.1l0.1-0.1H31v-0.2v-0.1l0.2-0.2l0.1-0.1l0.1-0.2l-0.7-0.1l-0.3,0.1l-0.2,0.3v0.3v0.3l0.1,0.2v0.2v0.2
	l-0.1,0.2l-0.1,0.1l-0.1-0.1l-0.2,0.2v-0.1v-0.3V479h-0.1l-0.1,0.1l-0.1,0.1l-0.1-0.1l0.1-0.3l-0.1-0.1h-0.3v0.1v0.1v0.1v0.1v0.1
	l-0.7-0.1l-0.3,0.1l-0.3,0.5l-0.1,0.1h-0.3l-0.1,0.1l-0.1,0.2l-0.1,0.1l-1.3-0.3l-0.6-0.4H25l-0.9,0.2l-0.1,0.1l-0.3,0.4l-0.2,0.1
	l-0.2-0.2v0.1l0.2,0.8l0.1,0.3l0.1,0.3l0.3,0.5v0.2v0.3l0.1,0.1h0.1l0.1,0.2l0.6,0.3h0.2l0.3-0.2h0.2h0.6l0.2-0.2l0.2-0.4V482
	l0.2-0.3l0.3-0.2l0.1,0.1h-0.1l-0.1,0.1l-0.1,0.1l0.9,0.3h0.1L28,482l0.1-0.1l0.1-0.1l0.1-0.2v-0.1l0.8-0.2h0.4l0.5,0.5l1.1,0.1H32
	l1,0.1l0,0h0.2l0.4,0.3h0.2v-0.1l-0.4-0.3l-0.1-0.1h0.8l0.1,0.1l0.1,0.1l0.1,0.1v0.1l-0.1,0.1h-0.1H34l0.2,0.1l0.7-0.1l-0.2-0.1
	h-0.1v-0.1l0.1-0.1l0.2-0.3l0.1-0.1l0.4,0.1v-0.1l0.1-0.1h0.1l0.1,0.1v0.2l0.1-0.2l0.1-0.1l0.1-0.1h0.1l-0.1,0.2l-0.1,0.4l-0.1,0.2
	H36l-0.1,0.3h0.5l0.2,0.1l0.2,0.2l-0.1,0.2l0,0h-0.1l0.1,0.1l-0.1,0.2l-0.1,0.1l-0.2,0.2l-0.2,0.3L36,484l0.2,0.2l0.2-0.2l0.2-0.3
	l0.2-0.1l0.3-0.1l0.3-0.1l0.5-0.4v0.1l-0.2,0.3l-0.9,0.5v0.1l0,0l0.1,0.1l-0.1,0.1l-0.1,0.1l-0.1,0.1l-0.1,0.2h0.2l-0.2,0.2
	l-0.2-0.1l-0.2-0.2l-0.2-0.1l0.1,0.2l0.1,0.2l0.1,0.1l0.1,0.1v0.1l0.1,0.2l0.1,0.1h0.1v0.1l-0.1,0.2v0.3l0.1,0.3l0.1,0.2h0.2
	l0.2-0.1l0.4-0.3v0.1l-0.1,0.2v0.1h0.4h0.1H38l0.1,0.1l-0.1,0.1l0,0l0.1,0.2v0.3l-0.1,0.3l-0.1,0.2H38h0.1l0.1-0.1l0.1-0.1l0.1,0.3
	l0.1,0.2l0.1,0.2l0.1,0.1h0.1h0.1l0.1-0.1v-0.1V488h0.3l0.1-0.1v-0.1v-0.1v-0.2l0.2-0.3v-0.1v-0.3v-0.3l0.1-0.2l0.2-0.1l-0.1,0.4
	v0.2l0.1,0.2H40l-0.2-0.1l0.2-0.2l0.5-0.4l0.2-0.1l0.2,0.1l-0.1-0.2l0.1-0.1l0.4-0.2l0.3-0.3h0.1l0.1-0.1l0.1-0.4l0.1-0.1h0.1
	l0.3-0.4l-0.1,0.2l-0.1,0.1L42,485v0.1h0.2l0.5-0.5h0.2l0.6,0.1v0.1l-0.6-0.1h-0.1l-0.2,0.2l-0.5,0.3v0.1h0.8v0.1l-0.3,0.1l0.1,0.1
	l0.2,0.3L43,486h0.1h0.3l0.1,0.1h-0.7l-0.1-0.1l-0.1-0.2h-0.2l-0.2-0.1v-0.3h-0.3h-0.1l-0.1,0.1l-0.1,0.2l-0.3,0.1l-0.3,0.4
	l-0.2,0.1v0.1h0.1H41l0.1,0.1v0.2h-0.5l-0.9,0.5l-0.2,0.2v0.2l0.3,0.3v0.2v0.3l0,0h-0.1h-0.1l-0.1,0.3v0.3v0.2l-0.1,0.2l0.1,0.3
	l0.1,0.1h0.1l0.1-0.1l0.2-0.1l0.7,0.1l-0.1,0.1l-0.4,0.1l-0.1,0.2l-0.2-0.1l-0.2,0.1l-0.3,0.4l-0.3,0.3l-0.3,0.2v0.1l0.7,0.3
	l0.4,0.1l0.3-0.3l0.1-0.1l0.4-0.3h0.1h0.1h0.2l0.1-0.1l0.1-0.1v-0.1v-0.1v-0.1l0.6-0.6l0.7-0.2l1.5,0.1l0,0l0,0l0,0l0,0v0.1
	l-0.1,0.1h-0.1h-0.1v0.1L44,490l0.4-0.2l-0.2,0.4H44l-1.1-0.3h-0.2l-0.2,0.1l-0.3,0.3h0.1l0.1,0.1l0.2,0.1h-0.1h-0.4h-0.2l-0.1,0.1
	l-0.1,0.1l-0.1,0.4l-0.2,0.3l-0.2,0.3l-0.5,0.4v0.3l-0.1,0.2l-0.2,0.2l0.3,0.1l0.1-0.1h0.1H41h0.2h0.2l0.1,0.1l-0.1,0.3l0.2-0.1h0.2
	H42l0.2,0.1l-0.4-0.3l-0.1,0.1v0.2l0.1,0.1H42l0.3-0.2l-0.2,0.4h-0.3l-0.3-0.1l-0.2,0.1l0.2,0.1l-0.1,0.1l-0.1,0.1l-0.1,0.1l0.1,0.1
	h0.1h0.1h0.1l-0.1,0.1h-0.1l-0.3-0.1v-0.1v-0.1l-0.1-0.1l-1.2-0.2l-0.2,0.2h0.3l0.3,0.1l0.5,0.5h-0.1l-0.1,0.1h0.1v0.1l-0.1,0.1
	h-0.2h-0.2l-0.1-0.1l0.2-0.1h0.1l-0.2-0.1h-0.2l-0.2,0.2l-0.1,0.3l0.1-0.1l0.2,0.1l0.2,0.1l0.1,0.1v0.1v0.1h-0.1H40l-0.1-0.1
	l-0.2,0.3l-0.2,0.2l-0.7,0.1l-0.4,0.3l-0.2,0.1h-0.1l-0.2-0.2h-0.1h-0.1l-0.3,0.2l-0.4,0.1l-0.1,0.1l-0.1,0.1l-0.1,0.1v0.2l0.1,0.1
	l-0.1,0.1h-0.2h-0.8l-0.2-0.1l-0.1-0.2h0.1l-0.1-0.5l-0.2-0.4l-0.2-0.3l-0.3-0.2l-0.2-0.3h-0.1l-0.1,0.1l-0.1,0.1l-0.1,0.1v0.1v0.2
	v0.4v0.2v0.1l-0.1,0.4l0.1,0.3l0.1,0.2l0.2,0.1h0.2l0.2-0.1h0.1v0.2v0.1h-0.4l-0.1,0.1l-0.2,0.7l-0.1,0.2l0.1,0.2l0.1,0.1l0.1,0.1
	v0.2v0.2v0.1l-0.1,0.1l-0.1,0.2l0.1,0.1l0.1,0.2h0.1h0.1v-0.1v-0.1l0,0l0.2-0.1l0.8,0.1h0.1l0.1-0.1l0.1-0.1l0.2-0.1l0.3-0.2h0.2
	l-0.1,0.1l0.2,0.1l0.2-0.2L37,499l0.2-0.1l2.2,0.5l0.4-0.1h0.1h0.3l1.3-0.5h0.3L42,499l0.3,0.3l0.3,0.2l2.3-0.3l0,0l0,0l0,0l0,0
	l-0.1-0.3l0.1-0.2l0.2-0.1h0.4h0.4l0.2,0.1l-0.1-0.3l-0.2-0.2l-0.4-0.2v-0.1l0.1-0.1l0.2-0.3l0.1-0.1l0.1-0.1l0.4-0.1h0.1l0.4,0.2
	h0.6l-0.2,0.2l-0.4,0.3h-0.6l0.1,0.4v0.2v0.1l0.2,0.3l0.2,0.2l0.2,0.1l0.4,0.2l1,0.4l0.7,0.5l0.3,0.3v-0.1l-0.1-0.3l0.2,0.1h0.2
	l0.2-0.2l0.3-0.4l0.2-0.3v-0.2l-0.2-0.1V499l0.3,0.1l0.1,0.5l-0.1,0.5l-0.3,0.4v0.1h0.2l0.6-0.1v0.1l0,0h-0.1l0,0v0.1H51v0.1h-0.3
	h-0.1v0.1h-0.1l-0.2-0.2h-0.1h-0.5l0.6,0.4l0.3,0.1l0.4,0.3l0.4,0.2h0.1l0.1-0.2v-0.2v-0.2v-0.2l0.1-0.1l0.2-0.1l0.2-0.2l0.2-0.3
	l0.3-0.5l0.1-0.2v-0.1v-0.1l0.1-0.1l0.1,0.1v0.3v0.2l-0.2,0.5l0.6,0.4l0.1,0.1l0.2,0.3l0.1,0.2h-0.3l-0.4-0.5l-0.3-0.1l-0.5,0.1
	l-0.2,0.1l-0.2,0.3l0.1,0.3l0.1,0.1l-0.1,0.1l0,0l0.2,0.4l0.2,0.3l0.5,0.5l-0.1-0.3l-0.2-0.3l-0.3-0.4v-0.1h0.2l0.1,0.1l0.1,0.2
	l0.1,0.3l0.1,0.2l0.2,0.1l0.1,0.2l0.1,0.3l-0.3-0.1v0.1l0.2,0.1h0.1l0.1-0.1l0.1-0.2v0.1v0.3h0.1l0.2,0.1h0.1l-0.1,0.1h-0.1h-0.1
	l-0.1-0.1l0.1,0.2l1.2,1l0.3,0.1h0.6v-0.2l0,0l0,0v0.1l0,0l0,0l0,0l0,0l0.1,0.2l2.1,0.1l-0.8-0.2v-0.1l0.8,0.1h0.1l0.1-0.1h0.1
	l0.1,0.1v0.1l-0.1,0.1H58l0.3,0.2l1.3,0.4l0.9,0.6l0.7,0.1l0.4,0.3h0.1l1.1,0.2l0.2-0.2l0.1,0.1l0.1,0.1l0.3,0.1v0.1l0,0h-0.1
	l0.2,0.1l0.6-0.2l1.5,0.5h0.4l1.7-0.5l1-0.5l1.7-0.3h-0.1h-0.6h-0.3V506v-0.3v-0.3l-0.1-0.1v-0.1l-0.2-0.3l-0.1-0.1v-0.1l0,0h0.1
	l-0.1-0.1h0.2l0.5,0.3H70l0.4-0.1h0.2v0.1h-0.3l-0.1,0.1l-0.1,0.2l-0.1,0.1l-0.2,0.1l-0.1,0.1l0.3,0.4l0.5-0.1l0.5-0.4l0.8-0.4
	l0.4-0.4l0.3-0.6l0.2-0.6l-0.1,0.1H72v-0.2v-0.1l-0.1-0.1h-0.1l0.1-0.1h0.2v-0.2h0.3v0.1l0,0l0,0l0,0l0.2,0.1l0.2-0.2l0.3-0.7
	l-0.2,0.1l-0.6-0.1h-0.1l-0.2,0.2h-0.1l-0.1-0.1v-0.1v-0.2l0.1-0.2l0.1,0.2l0.1-0.1l0.1-0.2v-0.3v-0.2l0.1-0.2l0.2-0.1l0.1,0.1
	l0.1-0.1h0.1H73v-0.1l-0.2-0.1H73l0.2,0.1h0.2l0.2-0.1v-0.1v-0.1v-0.2l0.2,0.2l0.5,0.3v0.1h-0.2l-0.3,0.1l-0.2,0.2l0.2,0.8l1-0.7
	v-0.1V501v-0.1v-0.1l0.1,0.1H75l0.1-0.2l0.1-0.3l0.1,0.2v0.2l-0.1,0.2l-0.1,0.1l0.7-0.2l1.1-0.4l1-0.6v0.3H78l0.1-0.1l0.1-0.1
	l0.3,0.2h0.1h0.6l0.3-0.1l0.2-0.2l-0.1-0.1v-0.2v-0.2l-0.1-0.2l0.1-0.2h0.1h0.1l0.1-0.1l-0.1-0.2v-0.2V498v-0.1l0.1,0.1l0.1,0.1v0.1
	v0.1v0.3v0.5l0,0v0.1v0.1l-0.1,0.1l0,0v0.1v0.2v0.2v0.2l-0.1,0.4H80l0.1-0.1v-0.1l-0.1-0.2v-0.2v-0.2v-0.5v-0.1l0.1,0.1l0.1,0.2v0.2
	v0.5v0.2l0.1,0.1v-0.1v-0.4v-0.3v-0.3v-0.2l0.1-0.1l0.1,0.1l0.1,0.1l0.3,0.4l0.1,0.1v0.1v0.3v0.1v0.1l0.1-0.1V500v-0.2v-0.2h0.1
	l0.1-0.1h-0.1h-0.1l-0.1-0.1l-0.1-0.1l0.1,0.1l0.2,0.1l1.1-0.3l1.2-1v0.2l-0.1,0.1l-0.1,0.1l-0.1,0.1l0.2-0.1l0.4-0.6l0.6-0.5
	l0.1-0.1l0.2-0.4l-0.1,0.1l-0.1,0.1h-0.1l0.1-0.3l0.2-0.3l0.4-0.3l-0.1,0.3l0.2-0.1l0.5-0.3v-0.1h-0.1V496l0.1-0.1l0.1-0.1h0.1
	L86,496l0.1-0.2l0.1-0.1l0.2-0.2l0.3-0.3h0.1l0.2-0.1l0.5-0.4v-0.1h-0.4l0.3-0.3l2.1-0.6l0.3-0.2l-0.2-0.1l-0.7,0.2l0.7-0.6l0.2-0.3
	v0.1l0.1,0.1v0.1l0.2-0.2l0.5-0.2h0.5l0.5-0.2l0.2-0.2h0h-0.1l-0.1-0.1l0.2-0.1l0.4,0.1l0.2-0.1l0.1-0.3l0.1-0.3v-0.3l-0.2-0.1v-0.1
	l0.1,0.1h0.1h0.1l0.1-0.1l-0.1-0.2l-0.2-0.5l-0.1-0.2l-0.2-0.1l-0.3-0.1l-0.1-0.1l0.2,0.1l0.3,0.1l0.2,0.2l0.2,0.2l0.2,0.4l0.1,0.4
	l-0.2-0.2v0.1l0.1,0.1l0.2,0.1l0.1,0.1v-0.2V491l-0.1-0.1l-0.1-0.1v-0.1l0.1-0.1l0.1,0.1l0.1,0.2v0.3v0.1h0.1l0.3-0.1v0.1l-0.2,0.5
	h0.2h0.1l0.1-0.1l-0.1-0.1l0.1-0.1H94l0.1,0.1h0.1l0.1-0.1l0.2-0.2l0.1-0.1l0.2,0.1l0.2,0.1l0.2,0.3l0.2,0.1l0.2,0.1H96l0.2-0.1
	l0.2-0.3h0.2l-0.1-0.2V491l-0.1,0.1h-0.1h-0.2L96,491l-0.1-0.1v-0.1v-0.1H96l0.1-0.1l0.1-0.2v-0.2h0.1v0.1v0.1v0.1v0.2l0.1-0.2
	l0.2-0.2l0.2-0.2l0.4-0.3l0.1-0.1l0.2-0.3l0,0h0.1l0.2-0.2h0.1v-0.1v-0.2v-0.1H98l0.8,0.1L99,489l-0.4,0.2l-0.7,0.2l-0.3,0.3
	l0.2-0.1l0.6-0.2l0.8-0.1v-0.1l0.1-0.3v-0.1v-0.1l0,0l0,0v-0.1v-0.1v-0.2v-0.1V488l0.3-0.5v-0.1V487v-0.2l0.1-0.2l0.7-0.9l0.1-0.2
	v-0.1l-0.2,0.2l-0.5,0.7l-0.3,0.1v0.1h-0.2l-0.2-0.1l-0.1-0.2h-0.1l-0.2-0.2l-0.1-0.2l0.1-0.1h1.1l0.1-0.1l0.1-0.1v-0.2l-0.1-0.2
	l-0.1-0.2l-0.3-0.2l-0.1-0.2l0.4-0.3l1.3,0.5l-0.1-0.1l0.1-0.2l-0.2-0.2l-0.4-0.1l-0.1-0.1l-0.2-0.3l-0.1-0.3v-0.2v-0.1H100
	l-0.4-0.2l-0.1-0.2v-0.1l0.1-0.2v-0.2l-0.1-0.1h-0.2h-0.1l-0.1-0.1l0.6,0.1l0.1,0.1l0.2,0.4l0.2,0.2l0.2,0.7l0.1,0.1l0.2,0.1
	l0.3,0.1l1.8-0.4l0.4-0.3h0.1l-0.1-0.3l-0.1-0.2l-0.2-0.3v-0.1l0.2-0.1l0.1-0.1v-0.1l0.3,0.1h0.9l0.2-0.1v-0.2l-0.1-0.1l-0.9-0.4
	l0.2-0.2l0.8,0.3l0.1-0.1l0.2-0.3h0.1l0.1-0.1v-0.2l-0.1-0.2l-0.1-0.1l-0.5-0.4l-1.1-0.3l-0.5-0.3l0.1-0.1l0.5,0.2l0.8-0.1l0.7,0.3
	l0.4,0.1l0.3-0.3l-0.2-0.3l-0.8-0.4l-0.4-0.3l-0.1-0.1v-0.2l-0.1-0.2l-0.1-0.1l-0.1-0.1l-2.5-0.2v-0.1l1.6-0.1l0.3-0.3l-0.1-0.1
	l-0.1-0.1l-0.1-0.2l-0.1-0.2l0.2,0.1l0.4,0.4l0.4,0.1l0.3,0.2l0.1,0.1l0.1,0.1l0.1,0.2l0.1,0.3l0.1,0.2l0.2,0.1l0.5-0.1l0.6,0.2
	l0.1-0.1l0.2-0.3l0.1-0.1v-0.1l-0.1-0.2l-0.1-0.2l0.2-0.1l0.3-0.1l0.2-0.2l0.1-0.3l0.1-0.2L107.4,476.4z M72.9,455.9L72.9,455.9
	v-0.1V455.9v-0.1H73v-0.2h-0.1l-0.2,0.1l-0.1,0.1v0.2h0.1L72.9,455.9z M30.6,469.3L30.6,469.3L30.6,469.3L30.6,469.3L30.6,469.3
	l-0.1,0.1l0,0L30.6,469.3L30.6,469.3z M39,469.5L39,469.5l0.1-0.1l0,0l0,0L39,469.5L39,469.5L39,469.5L39,469.5z M34.7,469.8
	l0.1-0.2L34.7,469.8l-0.1-0.1l0,0l-0.1,0.1v0.1L34.7,469.8z M33.4,470.9L33.4,470.9l-0.1,0.1v0.2l0.1-0.1V471V470.9z M32.5,471
	L32.5,471l-0.1,0.1L32.5,471L32.5,471L32.5,471z M34.2,475.8L34.2,475.8L34.2,475.8L34.2,475.8l-0.1-0.1v0.1H34.2L34.2,475.8z
	 M36.3,483l0.1,0.2l0.1,0.1h0.1h0.1v-0.1l0,0l-0.1,0.1L36.3,483l-0.1-0.2l-0.2-0.3v0.2l0.1,0.1L36.3,483z M36.9,487.2l0.1-0.1h0.1
	V487l0,0l0,0v-0.1H37l-0.1,0.1v0.1l0,0l0,0V487.2L36.9,487.2z M40.9,493.7L40.9,493.7l0.1,0.1l0.1-0.1l-0.1-0.1l-0.1-0.1v-0.1
	l-0.1-0.1l-0.1,0.1l0.1,0.1L40.9,493.7L40.9,493.7z M50.8,509v0.1v0.1v0.1h0.1l0,0l0.1-0.1V509H50.8z M34.4,475.3L34.4,475.3
	L34.4,475.3L34.4,475.3l-0.1,0.1l0.1,0.1l0,0l0,0l0.1-0.1h0.1l0,0v-0.1H34.4L34.4,475.3z"/>
<path vector-effect="none" class="st7" d="M288.6,210.5l0.3-0.1l0.2,0l0.1,0l0.2,0l0.3-0.1l0.3-0.1l0.3-0.1l0.3-0.1l0.3-0.1l0.3-0.1
	l0.3-0.1l0.3-0.1l0.3-0.1l0.3-0.1l0.3-0.1l0.3-0.1l0.3-0.1l0.3-0.1l0.3-0.1l0.3-0.1l0.2,0l0.1,0l0.1,0l0.3,0l0.1,0l0.1,0l0.3-0.1
	l0.1,0l0.1,0l0.3,0.1l0.2,0l0.1,0.1l0.2,0l0.1,0l0,0l0.1,0l0.1,0l0.1,0l0.1,0l0.1,0l0.1-0.1l0.1,0l0,0l0,0l0.1,0h0.3l0.6,0.1l0,0
	l0,0l0,0l0.1,0l0.2,0l0.5,0.1l0.2,0.1l0.1,0.1l0.1-0.1l0.1,0.1l0.1,0.1l0.1,0.1l0.1,0l0.1,0l0.1,0l0,0l0,0.1v0l0,0.1l0,0l0,0h0.1
	l0,0l0.1,0.1l0,0l0.1,0.2l0,0l0.1,0l0,0l0,0l0,0l0.1-0.1l0,0l0.1,0.1l0,0l0,0.1l0,0l0,0l0.1,0l0,0l0.1,0.1l0,0l0.1,0l0.1,0l0.1,0.1
	l0.1,0.1l0,0.1l-0.4-0.1l-0.3,0l-0.2,0.2l-0.2,0.1l-0.2,0l-0.1-0.1l-0.2,0.1l-0.1,0l-0.1-0.1l-0.1,0l-0.1,0l0-0.1l-0.1,0l0-0.1
	l-0.1,0l0,0l0,0l-0.1,0.1l0,0l-0.5,0.2l-0.1,0l-0.1,0l-0.2,0.1l-0.1,0l0,0l0,0.1l-0.1,0l-0.1,0l-0.1,0l0,0l0,0l-0.2,0.2l-0.2,0.1
	l-0.1,0.1l-0.3,0.4l0,0l0,0l-0.1,0.1l0,0l-0.1,0l-0.3,0l-0.1,0l-0.2-0.2l0-0.1l0,0l0,0l0,0l-0.1-0.2l-0.1-0.1l-0.1,0l-0.2,0l-0.1,0
	l-0.1,0.1l-0.2,0.3l-0.1,0l-0.1,0l-0.1-0.1l-0.1,0l-0.1,0l-0.1,0l-0.2,0.1l-0.3,0.4l-0.2,0.2l-0.2,0l-0.1,0l-0.2,0.2l-0.1,0
	l-0.2,0.1l-0.1,0.1l0,0l0,0l0,0l0,0l0,0l0,0l-0.2,0.2l0,0.2l-0.1,0.1l-0.2,0.1l-0.1,0.1l-0.1,0.2l-0.1,0.1l-0.1,0l-0.6,0.7l-0.1,0.1
	l-0.1,0l-0.2,0.2l0,0l0,0l-0.2,0.1l-0.1,0l-0.1-0.1l-0.1-0.3l-0.1-0.3l-0.1-0.1l0.1-0.1l-0.1-0.1l-0.2-0.2l0.1-0.1l0-0.1l-0.1-0.1
	l0-0.1l0-0.1l-0.1,0l-0.1,0l-0.1,0l0-0.1l-0.1-0.1l-0.1-0.1l-0.1,0.1l-0.1,0l-0.1,0l0,0l0,0l0-0.1l0,0l0-0.1l-0.2-0.2l-0.1-0.2
	l-0.1-0.1l0,0l0,0l0-0.2l0,0l0,0l0,0l0,0v-0.1l0,0l0,0l-0.1,0l-0.2,0l-0.5,0l-0.6,0l-0.8,0.1l-0.6,0.1l-0.6,0.1l-0.6,0.1l-0.6,0.1
	l-0.6,0.1l-0.6,0.1l-0.6,0.1l-0.6,0.1l-0.6,0.1l-0.6,0.1l-0.6,0.1l-0.6,0.1l-0.6,0.1l-0.6,0.1l-0.6,0.1l-0.6,0.1l-0.6,0.1l-0.1,0
	l-0.1,0l-0.1,0l-0.1,0l-0.1,0l-0.1,0l-0.3,0l-0.3,0l-0.3,0l-0.3,0l-0.4,0l-0.4,0l-0.4,0l-0.4,0l-0.3,0v0.2v0.3v0.3v0.3v0.3v0.3v0.3
	v0.3v0.3v0.3v0.3v0.3v0.3v0.3v0.3v0.3v0.3l0,0.9l0,0.9l0,0.9l0,0.9l0,0.9l0,0.9l0,0.9l0,0.9l0,0.9l0,0.9l0,0.9l0,0.9l0,0.9l0,0.9
	l0,0.9l0,0.9l0,0.4l0,0.4v0.4v0.4l0,0.4l0,0.4v0.4l0,0.4v0.4l0,0.4l0,0.4v0.4l0,0.4v0.4l0,0.4l0,0.4v0.3l-0.1,0.3h-0.4h-1.5h-1.5
	h-1.5h-1.5v0.6l0,1.1l0,1.1v1.1v1.1l0,1.2l0,1.2v1.2v1.2l0,1.2l0,1.2v1.2l0,1.2v1.2l0,1.2l0,1.2v1.2l0,0.1v0.4v0.4v0.4v0.4v0.4v0.4
	v0.4v0.4v0.4v0.4v0.4l0,0.4v0.4v0.4v0.4v0.4v0.4v0.4v0.4v0.4v0.4v0.4v0.4v0.4v0.4v0.4v0.4v0.4v0.4v0.4v0.4l0,0.4v0.4v0.4v0.4v0.4
	v0.4v0.4v0.4v0.4v0.4v0.4v0.4l0,0.4v0.4v0.4v0.4v0.4v0.4v0.4v0.4v0.4v0.4v0.4v0.4v0.4v0.4v0.4v0.4l0,0.4v0.4v0.4v0.4v0.4v0.3l0,0.2
	l-0.2,0.1l-0.1,0l-0.2,0l-0.1,0l-0.2,0.1l-0.3,0.3l-0.2,0.1l-0.3,0l-0.2,0.1l-0.1,0.1l-0.1,0.1l-0.7,0l-0.1,0l-0.1,0l0,0l0,0.1
	l-0.1,0.1l0,0.1l-0.1,0.1l0,0l-0.1,0l0,0.1l-0.2,0.6l-0.1,0.1l-0.1,0.1l-0.1,0.1l-0.5,0.1l-0.1,0l-0.1,0l-0.2-0.1l-0.1,0l-0.1,0.1
	l-0.1,0.1l-0.1,0.2l0,0.2l0,0.2l0.2,0.4l0,0.1l-0.1,0l-0.2,0l0,0l-0.1,0.1l-0.1,0.1l-0.4,0.2l-0.3,0.1l-0.3,0l-0.1-0.1l0,0l-0.1,0
	l-0.2,0l0,0l-0.1-0.1l-0.2-0.3l-0.1-0.1l-1.4-0.2l-1.3,0.2l-0.2,0.1l-0.1,0l0,0l-0.1-0.1l0,0l0,0l-0.1,0l0,0l-0.1,0l-0.1,0l-0.1,0
	l-0.1,0.1l-0.2,0l-0.3-0.1l-0.1,0l-0.6,0.1l-0.2,0.1l-0.1,0l-0.6-0.2l-0.3-0.1l-0.4-0.3l-0.2-0.1l-0.2-0.1l-1.1-0.2l-0.2,0l-0.1,0
	l-0.1,0.1l-0.1,0l-0.1,0l-0.2-0.1l-0.1-0.1l0-0.2l0-0.2l0-0.2l-0.1-0.1l-0.1,0l-0.1,0.1l-0.1,0l-0.3,0l-0.3,0.1l-0.2,0l0-0.2
	l0.1-0.3l0-0.3l-0.1-0.2l-0.2-0.1l-0.1-0.1l0-0.2l-0.2-0.2l-0.1-0.1l0-0.1l0.1-0.1l0.1-0.1l0.1,0l0.1-0.1l0.1-0.2l0-0.2l0-0.2l0-0.1
	l-0.1-0.1l0-0.1l0-0.1l0-0.1l0-0.1L249,286l0-0.1l0-0.1l0-0.1l-0.1,0l-0.2,0l-0.4,0.1l-0.2,0l-0.1-0.2l0-0.3l0-0.2l0-0.2l-0.1-0.1
	l-0.2-0.1l-0.1-0.1l-0.1-0.1l-0.1-0.1l-0.1-0.1l-0.1,0h-0.1l-0.1,0l-0.1,0l-0.2,0.2l-0.2,0l-0.1,0l-0.1,0.1l-0.1,0l-0.1,0l-0.1-0.1
	l-0.1,0l0,0l-0.1,0.1l0,0l0,0.6l0,0.1l0,0l0,0l-0.1,0l0,0l0,0l0,0l0,0l0,0l0.1,0.1l0,0.1l-0.1,0l-0.1,0l0,0l0,0.1l0,0.1l0,0.1l0,0.1
	l0,0.1l-0.1,0l-0.1,0l-0.1,0l-0.1,0l-0.1,0.1l0,0.1l0,0.2l0,0.1l0.1,0.2l0,0.1l-0.1,0.1l-0.1,0.1l0,0.1l0,0.2l0,0.1l-0.1,0.1
	l-0.1,0.2l-0.1,0.1l-0.1,0l0-0.1l0-0.1l0-0.1l-0.1,0l-0.1,0L244,288l-0.3,0.1l-0.2,0.1l-0.2,0.1l-0.1,0.1l-0.1,0.1l-0.1,0.1
	l-0.1,0.1l-0.2,0l-0.1,0l-0.4-0.3l-0.2-0.2l-0.1-0.1l-0.7-0.7l-0.1,0l-0.1,0l-0.4-0.5l-0.4-0.5l-0.9-0.6l-0.2-0.2l-0.3-0.4l-0.5-0.4
	l-0.1-0.1l-0.2-0.3l-0.2-0.2l0-0.1l0-0.1l0-0.2l0-0.1l-0.1-0.2l-0.2-0.2l-0.7-0.7l-0.1-0.1l0-0.2l0-0.4l0-0.1l0-0.1l-0.6-1l-0.1-0.2
	l-0.1-0.1l-0.1-0.1l-0.1-0.1l-0.2-0.4l-0.3-0.3l0-0.1l-0.1-0.6l0-0.1l0-0.1l0-0.1l0-0.1l0-0.3l-0.1-0.5l0-0.1l-0.1-0.3l0-0.1l0-0.2
	l0-0.3l0-0.1l-0.1-0.1l0,0l-0.1,0l-0.1,0l0,0l0-0.1l0-0.1l0,0l0-0.2l0-0.1l-0.2-0.4l0-0.1l0-0.2l-0.1-0.1l-0.1-0.1l-0.1-0.1l0-0.2
	l0-0.1l0.1-0.1l0.1,0l0.1,0l0.1,0l0.1,0l0,0.1v0.3h0l0-0.1l0.1-0.4l0-0.1l0-0.1l-0.1-0.4l-0.1-0.4l-0.2-0.3l-0.2-0.2l-0.3-0.2
	l-0.4-0.2l-0.1-0.1l0-0.6l0-0.5l-0.1-0.2l0,0l0-0.1l0,0l0.1,0l0.1,0l0.1-0.2l0-0.3l-0.1-0.3l-0.1-0.2l-0.3-0.5l0-0.2l0.1-0.3h0
	l-0.3-0.4l-0.1-0.2l0-0.1v-0.1l0-0.1v-0.6l0-0.1l0.2-0.4l0-0.1l0-0.2l0-0.1l-0.1-0.1l0-0.2l0-0.3l-0.2-0.4l0-0.3l-0.1-0.3l0-0.1
	l0.2-0.5l0-0.1l0.1-0.5l0-0.3l-0.1-0.3l-0.2-0.5l-0.1-0.3l0-0.6l-0.1-0.3l-0.4-0.7l-0.2-0.2l-0.3-0.3l-0.1-0.2l-0.2-0.3l0-0.2l0-0.1
	l0.1-0.1l0,0v-0.3l0-0.1l-0.1-0.3l-0.1-0.4l-0.4-0.7l-0.1-0.5l-0.1-0.2l0-0.3l0-0.1l0-0.1l0-0.2l0-0.2l-0.1-0.2l0.1-0.1l0-0.2l0-0.1
	l0,0l0.1,0l0.1,0l0-0.1l0.1-0.2l-0.1-0.1l0-0.4l-0.1-0.3l0-0.1l0.1-1l0-0.3l-0.3-0.8l-0.1-0.3l0-0.1l0.1-0.1l0.2-0.3l0.1-0.1l0,0.1
	l0,0.1l0,0l0-0.2l0-0.3l-0.1-0.8L230,249l-0.1-0.2l-0.1-0.2l-0.1-0.2l0-0.2l0-0.5l0-0.1l0-0.1l0.1-0.1l0-0.1V247l0,0h0l0,0l0,0.1
	l0,0l0,0.1l0,0l0,0.1l0,0.1l0,0.1l0.1-0.1l0,0.1l-0.1,0.2l0.1-0.1l0.1-0.3l0.1-0.1l0.1-0.1l0-0.2l0-0.3l0-1.2l-0.1-0.9l-0.2-0.3
	l-0.1-0.3l-0.2-0.5l-0.1-0.4l-0.2-0.4l0-0.1l-0.4-0.5l-0.1-0.2l0-0.2l0-0.1l-1-1.3l-0.5-0.5l-0.1-0.1l-0.5-0.5l-0.1-0.1l0-0.1l0-0.1
	l0,0l0-0.2l0,0l0-0.1l0-0.1l-0.5-0.8l-0.1-0.5l-0.2-0.5l-0.7-0.9l-0.4-0.7l-0.4-0.5l-0.6-1.1l-0.3-0.4l-0.1-0.3l-0.1-0.1l-0.2-0.1
	l-0.1-0.2l-0.1-0.2l-0.1-0.6l-0.2-0.6l-0.6-1.1l-0.2-0.6l0-0.3l-0.1-0.6l-0.2-0.6l-0.2-0.2l-0.2-0.2l-0.4-0.4l-0.1-0.2l-0.3-0.8
	l-0.5-1l-0.1-0.2l-0.3-0.4l-0.5-0.9l-0.1-0.2l-0.1-0.1l-0.2-0.3l-0.1-0.1l-0.3-0.5l-0.1-0.2l0-0.1l0-0.3l-0.1-0.1l-0.2-0.3l-0.1-0.2
	l-0.3-0.8l-0.1-0.2l-0.2-0.2l-0.2-0.2l-0.1-0.1l-0.1-0.5l-0.1-0.1l-1.1-1.4l-1-0.8l-0.1,0l0,0l-0.1-0.2l-0.1,0l-0.1,0l-0.4-0.5
	l-0.1-0.1l0-0.1l-0.1-0.2l0-0.1l0-0.1l0-0.1l0-0.1l-0.2-0.2l-0.3-0.7l0,0l-0.6-0.7l-0.2-0.1l-0.1-0.1l0-0.1l0-0.2l-0.2-0.4l0-0.1
	l0-0.6l-0.1-0.4l0-0.9l-0.1-0.3l0.1-0.2l0-0.2l-0.1-0.4l0-0.5l0.2-1.4l0.1-0.1l0.1,0l0.1,0.1l0.1,0l0.1,0l0,0l0,0l0-0.1l0.1-0.1
	l0.3-0.1l0.3-0.2l0.3-0.1l0.3-0.1l0.3,0l0,0l0,0l0,0l0.1,0l0.2,0.1l0.1,0l0,0l0,0l0.1,0l0,0l0,0l0,0.1l0,0.1l0,0l0.1,0l0.1,0l0.1,0
	l0.1,0l0,0.1l0,0.1l0,0l0.5,0l0.4,0l0.1,0l0.1-0.1l0.1,0l0.2,0.1l0.1,0l0.4,0l0.2,0.1l0.1,0l0.2-0.1l0.3-0.3l0.2-0.1l0.2,0l0.1-0.1
	l0.2-0.2l0.3-0.1l0.2-0.1l0-0.1l0.1-0.1l0.1-0.1l0.1,0l0.1,0l0.1,0l0-0.1l0-0.1l0-0.1l0.2,0l0.1-0.1l0.2,0l0.3-0.2l0.7-0.1l0.1-0.1
	l0.1,0l0.1,0.1l0.1,0l0,0l0,0.1l0.1,0l0.1,0l0.1,0l0.1,0v0.1l0.2-0.1l0.1,0l0,0l0,0l0.3-0.1l0.1,0l0.2,0.2l0.1,0l0.2,0l0.1,0.1
	l0.1,0.1l0.1,0.3l0.1,0.1l0.1,0.1l-0.1,0.2l0.6,0.3l0.6,0.5l0.6,0.4l0.6,0.3l0.1,0.1l0.3,0.4l0.1,0.1l0.2,0l0.1,0l0.1-0.1l0.1,0
	l0.1,0l0.1,0l0.1,0l0.1,0h0.1l0.1,0l0.1-0.1l0,0l0.3,0l0.1,0l0.1-0.1l0,0h0.1h0.5h1.7l1.7,0h1.7h1.7h1.7l1.7,0h1.7h1.7h1.7h1.7h1.7
	h1.7h1.7l1.7,0h1.7h1.7h0.3l0.1,0l0,0l0,0.1l0,0l0,0l0.1,0.3l0,0.1l0,0l0.2,0l0.2,0.4l0,0.1l0.1,0l0.3,0.3l0,0.1l0,0.1l0,0.1
	l0.1,0.1l0.1,0.1l0.1,0l0.4,0.4l0.1,0.2l0.1,0.1l0.3,0.1l0.6,0.3l0.9,0.2l0.6,0l0.2-0.1l0.1,0l0.1,0l0.2,0l0.3,0l0.1,0.1l1,0.3
	l1.1,0l0.4-0.1l0.2,0l0.1,0l0.1,0.1l0.1,0l0.1,0.1l0.2,0l0.1,0l0,0l0.1-0.1l0,0h1l0.2,0.1l0.2,0.1l0.1,0l0.4,0l0.2,0l0.1,0l0.1,0
	l0,0.1l0.1-0.1l0.2,0l0.2,0l0.2,0.1l0.2-0.2l0.1,0l0.1,0l0.2,0l0.1,0l0.3,0.2l0.2,0l0.2,0.1l0.1,0.1l0.1,0.1l0.1,0.1l0.2,0.1
	l0.2,0.1l0.1,0l0.2,0l0.3,0l0.2,0l0.1,0.1l0,0.1l0.1,0l0.1,0l0,0l0-0.1l0.1,0l0.2,0.1l0.1,0.1l0.2,0l0.2-0.1l0.2,0l0.1-0.2l0.6-0.2
	l0.6-0.2l0.1,0l0.1,0l0.1-0.1l0.1,0l0.1,0l0.3,0l0.1,0l0.3,0.2l0.4,0.1l0.2,0.1l0.1,0.1l0,0l0.1,0l0.5-0.1l1.6-0.3l1.6-0.3l1.6-0.3
	l1.6-0.3l1.3-0.3l1.3-0.3l1.3-0.3l1.3-0.3L288.6,210.5"/>
<path vector-effect="non-scaling-stroke" class="st8" d="M59,79l2.3,9.1l-0.5,4.9l-3.4,5.5l3.8,3.6l4.3,0.6l2.4,5.8l4.3,2.6l0,0
	l0.9,6.2l-1.5,7.5l-1,0.6l0,13l0.5,0.6l-9.6-4.5l-11.5-8.8l-3.3-3.6l-11.9-15.5l-5.7-3.2l-1.9-3.9l-5.7-4.2L18.7,91l4.4-7.4l7.2-8.4
	l1.5-6.8l2.4-1l1-5.8l2.9,1.3l3.8-1.9l3.3,3.2l1.8,10.3l-1,7.4l1.4-0.3l2.9,3.9l3.4-1l2.9-8.1L59,79z"/>
<path class="st9" d="M192.8,113.1L192.8,113.1L192.8,113.1l-0.1-0.1v0.1l0,0H192.8L192.8,113.1l-0.1,0.1l0.1,0.1h0.1v-0.1
	L192.8,113.1L192.8,113.1z M189.5,108.3l-0.1-0.1l-0.1-0.1v-0.1v-0.1v-0.1v-0.1v-0.1v-0.1v-0.1l0.1-0.1l0.1-0.1v-0.1v-0.1v-0.1
	l-0.1-0.1l-0.1-0.3l-0.1-0.1l-0.1-0.1v-0.1l-0.1-0.1l0,0l-0.1,0.1l-0.2,0.3l-0.2,0.4l-0.2,0.5l-0.2,0.4l-0.1,0.1l-0.1,0.2v0.1v0.1
	v0.1v0.1L188,109l-0.1,0.1l-0.1,0.1l-0.1,0.1l-0.1,0.1l0,0v-0.1l-0.1-0.1l-0.1-0.1l0,0l-0.1,0.1l0,0l0,0v0.1l0,0l0,0l0,0l0,0l0,0
	l0,0l0,0l0,0l0,0l0,0v0.1v0.1v0.1l0,0v0.1l0.1,0.1v0.1v0.1l0.1,0.1v0.1v0.1l0,0v0.1l0.1,0.2l0.1,0.2l0.1,0.3l0,0l-0.1,0.1l-0.1,0.2
	l-0.1,0.3l-0.1,0.1l-0.1,0.1l-0.3,0.5l-0.3,0.3l-0.1,0.1h-0.1l-0.1-0.1V112V112h-0.1v0.1l-0.1,0.1l0.1,0.2l0.1,0.1h0.1l0.1-0.1
	l1.3-1.3l0,0l0.4-0.4l0,0l0.1-0.1l0.3-0.3l0.2-0.2l0.1-0.1V110l-0.1-0.1l0,0l0,0l0,0h-0.1L189,110v0.1l-0.1,0.1l-0.1,0.1l-0.1,0.1
	l-0.1,0.1l-0.1,0.1l0,0v0.1h-0.1h-0.1h-0.1h-0.1h-0.1h-0.1h-0.1h-0.1l0,0l-0.1-0.1v-0.1v-0.1v-0.4v-0.1v-0.1v-0.1v-0.1v-0.1l0.1-0.1
	l0.2-0.1l0.1-0.1l0.2-0.1l0.1-0.1l0.2-0.1l0.1-0.1l0.1-0.1l0.1-0.1v-0.1L189.5,108.3z M195,115.8L195,115.8h0.1l0,0h0.1h0.1h0.1h0.1
	h0.1h0.1l0.1-0.1h0.2h0.1h0.1l0.1,0.1h0.1l0.1,0.1l0.1,0.1h0.1l0.3-0.1h0.1h0.1h0.3l0.1-0.1l0.1-0.1h0.1h0.1l0.1,0.1l0.1,0.1
	l0.1-0.1l-0.1-0.1l-0.1-0.1v-0.1l-0.1-0.1l-0.1-0.1h-0.1l-0.1-0.1l-0.1-0.1l-0.1-0.1l-0.1-0.1l-0.1-0.1l-0.1-0.1l-0.1-0.1h-0.1
	l-0.1-0.1v-0.1v-0.1l0.1-0.2l0.1-0.1v-0.1V114l-0.1-0.1l-0.1,0.1l-0.1,0.1l0,0h-0.1h-0.1h-0.1h-0.1h-0.1h-0.1l-0.1-0.1L196,114
	l-0.1-0.1l-0.1-0.1h-0.1h-0.1h-0.1h-0.1h-0.1l0,0h-0.1h-0.1l-0.1,0.1h-0.1h-0.1l0,0h-0.1l-0.1,0.1H195h-0.1l-0.1-0.1l-0.1,0.1h-0.1
	l-0.1,0.1h-0.1h-0.1h-0.1h-0.1h-0.1h-0.1L194,114l0,0H194v0.1l-0.1,0.1l-0.1,0.1v0.1l-0.1,0.1l-0.1,0.1l-0.1,0.1l-0.1,0.1l-0.1,0.1
	l-0.1,0.1h-0.1l-0.1,0.1l-0.1,0.1H193l-0.1,0.1l-0.1,0.1v0.1v0.1l0.1,0.1h0.1h0.1h0.1h0.1h0.1h0.2h0.1h0.1h0.1h0.1h0.1h0.1l0.2,0.1
	h0.1v0.1h0.2h0.1h0.1L195,115.8z M186.2,110.1l0.1-0.1v-0.2c0-0.1,0.1-0.6,0.1-0.6s-0.1,0-0.1,0.1c0,0-0.1,0.1-0.1,0.2
	s-0.1,0.2-0.1,0.3c0,0.1,0,0.3,0,0.4c0,0.1,0.1,0.1,0.1,0.1C186.2,110.1,186.2,110.1,186.2,110.1L186.2,110.1z M183.3,98.2
	L183.3,98.2l-0.1,0.1l-0.1,0.1l-0.1,0.1l-0.1,0.1v0.1l0.1-0.1l0.1-0.1l0.1-0.1L183.3,98.2L183.3,98.2L183.3,98.2L183.3,98.2z
	 M196.9,118.5L196.9,118.5l0.1,0.1h0.1h0.1h0.1h0.1l0.1-0.1v-0.1v-0.1v-0.1v-0.1v-0.1v-0.1h-0.1h-0.1h-0.1h-0.1v0.1l-0.1,0.1
	l-0.1,0.1l0,0l0,0v-0.1l-0.1-0.1h-0.1h-0.1h-0.1h-0.1l-0.1-0.1h-0.1h-0.1l-0.1,0.1H196l-0.1,0.1v0.3v0.1v0.1l-0.1,0.1l-0.1,0.1h-0.1
	h-0.1h-0.1h-0.1h-0.1h-0.1v0.1h-0.1l0,0l0,0h-0.1l-0.1-0.1h-0.2l0,0v0.1l0,0h0.1h0.1l0.1,0.1v0.1v0.1l0.1,0.1v0.1v0.1v0.1v0.1
	l0.1,0.1v0.1l0,0v0.1l0,0l0.1,0.1h0.1l0,0v-0.1l0,0v-0.1l0.1-0.1l0.1-0.1h0.1h0.1h0.1l0.1-0.1l0.1-0.1l0.1-0.1h0.2v-0.1v-0.1
	l0.1-0.1h0.1h0.1l0.1,0.1h0.1h0.1h0.1h0.1h0.1h0.1v-0.1l-0.1-0.1l-0.1-0.1v-0.1l0,0l0.1-0.1v-0.1v-0.1v-0.1l0,0h0.1L196.9,118.5
	L196.9,118.5L196.9,118.5z M200.6,111.5h-0.1l-0.1-0.1l-0.1-0.1l0,0l0,0v0.1v0.1h0.1l0.1,0.1l0.1,0.1l-0.1,0.1l-0.1,0.1l0.1,0.1
	l0.1,0.1h0.1v-0.1v-0.1L200.6,111.5L200.6,111.5L200.6,111.5z M201,109.9L201,109.9l-0.1-0.1l-0.1-0.1l-0.1-0.1l-0.1-0.1l-0.1-0.1
	h-0.1h-0.1h-0.1h-0.1h-0.1h-0.2h-0.1l0,0h-0.1l-0.1,0.1h-0.1h-0.1l-0.1,0.1h-0.1l-0.1,0.1l-0.1,0.1l-0.1,0.1l-0.1,0.1h-0.1l0,0H199
	h-0.1v0.1v0.1v0.1v0.1v0.1l0.1,0.1l0.1,0.1l0.1,0.1l0.1,0.1h0.1l0.1,0.1h0.1h0.3h0.1h0.1h0.1l0.1-0.1h0.1l0.1-0.1l0.1-0.1l0.1-0.1
	h0.1h0.1l0.1-0.1h0.1h0.1h0.1h0.1h0.1v-0.1v-0.1l0.1-0.1L201,109.9z M199.2,120.8L199.2,120.8L199.2,120.8h-0.1l0,0H199h-0.1h-0.1
	l0,0h-0.1l0,0h-0.1l0,0l0,0l0,0l0,0l0,0h-0.1h-0.1h-0.1l0,0l0,0h-0.1h-0.1l0,0h-0.1h-0.1l0,0h-0.1h-0.3h-0.1l-0.1-0.1l-0.1-0.1
	l-0.1-0.1h-0.1h-0.1h-0.1h-0.1h-0.1v0.1l-0.1,0.1h-0.1h-0.1H197l-0.1,0.1v0.1v0.1v0.1h-0.1h-0.1l0,0v0.1h0.1h0.1h0.1h0.1h0.1v0.1
	v0.1v0.1l0,0v0.1v0.1l0.1,0.1v0.1v0.1v0.1v0.1l0.1,0.1v0.1l0.1,0.1v0.1v0.1l0.1,0.1h0.1l0,0v0.1l0.1,0.1l0.1,0.1h0.1h0.1h0.1l0,0
	l0,0h0.1l0,0h0.1l0.1,0.1h0.1l0.1,0.1h0.1h0.1h0.1h0.1l0,0l0,0h0.1l0.1-0.1v-0.1v-0.1v-0.1v-0.1v-0.1V122V122v-0.1v-0.1v-0.1v-0.1
	l0,0v-0.1v-0.1v-0.1v-0.1l0,0l0,0l0,0l0,0h0.1l0,0l0,0h0.1l0,0l0,0l0,0l0,0l0.1-0.1v-0.1l0,0L199.2,120.8L199.2,120.8z M201,111.3
	L201,111.3L201,111.3L201,111.3z M222.7,75.2l0.2,0.1l0.3,0.2l0.4,0.3l0.3,0.3l0.3,0.2l0.3,0.2l0.3,0.1l0.4,0.1l0.1-0.3l0.4-0.5
	l0.5-0.7v-0.1l-0.3-0.2l-0.3-0.2l-0.5-0.3l-0.5-0.3l-0.4-0.1l-0.5,0.1l-0.3,0.2l-0.1,0.1l-0.4,0.2l-0.2,0.1V75L222.7,75.2
	L222.7,75.2z M238.1,79.8L238.1,79.8l-0.1-0.2l-0.1-0.1l-0.1-0.1h-0.1l-0.1-0.1h-0.1l-0.1-0.1h-0.1l-0.1-0.1l-0.1-0.1l-0.1-0.1
	l-0.1-0.1v-0.1v-0.1l-0.1-0.1v-0.1H237l-0.1-0.1h-0.1l-0.1-0.1h-0.1v0.1l-0.1,0.1v0.1l0.1,0.1l0.1,0.1l0.1,0.1l0.1,0.1l0.1,0.1
	l0.1,0.1l0.1,0.1l0.1,0.1l0.1,0.1l0.1,0.1l0.1,0.1l0.1,0.1l0.1,0.1l0.1,0.1l0.1,0.1l0.1,0.1l0.1,0.1h0.1v-0.1l-0.1-0.1L238.1,79.8z
	 M231.1,77.1L231.1,77.1l0.1,0.1h0.1l0.1,0.1l0.1,0.1h0.1l0.1,0.1l0.1,0.1l0.1,0.1l0.1,0.1l0.1,0.1l0.1,0.1l0.1,0.1l0.1,0.1l0.1,0.1
	l0.1,0.1l0.1,0.1l0.1,0.1l0.1,0.1v0.1l-0.1,0.1l-0.1,0.1V79h0.1h0.1v-0.1l0.1-0.1l0.1-0.1h0.1l0.1,0.1l0.1,0.1l0.1,0.1l0.1,0.1
	l0.2,0.2l0.1,0.1h0.1h0.1v-0.1l-0.1-0.1l-0.1-0.2l-0.1-0.1l-0.1-0.1l-0.1-0.1l-0.1-0.1l-0.1-0.1l-0.1-0.1l-0.1-0.1l-0.1-0.1
	l-0.1-0.1l-0.1-0.1l-0.1-0.1l-0.1-0.1l-0.1-0.1l-0.1-0.1l-0.2-0.1l-0.3-0.1l-0.1-0.1l-0.1-0.1l-0.1-0.2l-0.1-0.1l-0.1-0.1L231,77
	h-0.1v0.2L231.1,77.1z M244.2,79.1L244.2,79.1L244.2,79.1h0.2l0.1-0.1l0.1-0.1l-0.1-0.1h-0.1h-0.1h-0.1h-0.1l0,0l0,0V79V79.1
	L244.2,79.1z M233.2,76l0.1,0.1v0.1l0.1,0.1l0.1,0.1l0.1,0.2l0.1,0.1l0.1,0.1l0.1-0.1l0.2-0.1l0.2,0.1v0.1l0.1,0.2l0.1,0.1l0.1,0.1
	h0.1l0.1,0.1l0.1,0.1h0.1l0.1-0.1l0.1,0.1l0.1,0.1h0.1l0.1,0.1l0.1,0.1l0.1,0.1l0.1,0.1l0.2,0.1l0.2,0.1l0.3,0.1l0.1,0.1l0.1,0.1
	l0.1-0.1l0.1,0.1h0.1l0.1,0.1l0.1,0.1h0.1v0.1l0.1,0.1l0.1,0.1l0.1,0.2l0.1,0.2h0.3l0.1-0.1v-0.1l-0.1-0.1v-0.1v-0.1l0.1-0.1h0.1
	l0.1,0.1l0.1,0.1h-0.1l-0.1-0.1l-0.1-0.1l-0.1,0.1v0.1l0.1,0.1v0.1v0.2l0.1,0.1l0.1,0.1V79l0.1,0.1l0.1,0.2l0.1,0.1h0.1v-0.1
	l0.1-0.1l0.1,0.1v0.1v0.1h0.1l0.1-0.1l0.1-0.1l0.1-0.1l0.1-0.1l0.1-0.1h0.1h0.1v-0.1v-0.1l0.1-0.1h0.1v0.1V79l-0.1,0.1l-0.1,0.1
	h-0.1l-0.1-0.1l0,0l-0.1,0.1l-0.1,0.1v0.1l0.1,0.2l-0.1,0.1l-0.1-0.1l-0.1-0.1h-0.1l-0.1,0.1l-0.1,0.2l0.1,0.1h0.1h0.1l0.3,0.1h0.2
	l0.2-0.1l0.2-0.1h0.1l0.1-0.1l0.1-0.1h0.3l0.2,0.1l0.1-0.1l0.1-0.1h0.2l0.1,0.1l0.2-0.1l0.1-0.1l0.1-0.1l0.1-0.1V79l-0.1-0.1
	l-0.1-0.1v-0.1l0.1-0.1h0.1l0.1,0.1h0.3l0.1-0.1l0.1-0.1v-0.1v-0.1l0.1-0.1l0.1,0.1l0.1,0.1l0.1,0.1l0.1-0.1l0.1-0.1v-0.1v-0.1v-0.1
	h0.1v0.1l0.1,0.1h0.1l0,0l0,0l0.1,0.1l0.3,0.1l0.1-0.1h0.1v0.1l0.1,0.1l0.2-0.1l0.1-0.1l0.1-0.1h0.1h0.2l0.1-0.1l0.1-0.1h0.2h0.3
	v-0.1l-0.1-0.1h-0.1h-0.1l-0.1-0.1v-0.3l0.2-0.2v-0.1l-0.1-0.1l0.1-0.1V77l-0.1-0.1l-0.2-0.1l-0.1-0.1l-0.1-0.1h-0.1H244l-0.1,0.1
	l-0.2-0.1h-0.1l-0.1,0.1l0,0l-0.1-0.1l-0.3,0.1l-0.1-0.1l-0.2,0.1l-0.1,0.1l-0.2,0.1l-0.2-0.1l-0.1-0.1l-0.1-0.1h-0.2l-0.1,0.2
	l-0.1-0.1l-0.1-0.1l-0.2-0.1l-0.2-0.1l-0.2-0.1l-0.1,0.1l-0.4,0.1l-0.2,0.1l-0.1,0.1l-0.1,0.1l-0.1-0.1l-0.2,0.1l-0.1,0.1l-0.2,0.1
	l-0.1-0.1l-0.1,0.1l-0.2,0.1h-0.1h-0.1l-0.1-0.1l-0.2,0.1h-0.1l-0.1-0.1l-0.1-0.1h-0.1l-0.1,0.1l-0.1-0.1h-0.1l-0.3-0.1l-0.2-0.1
	l-0.1-0.2l-0.1-0.1l-0.1-0.1l-0.2-0.2l-0.2-0.1h-0.2h-0.3l-0.2-0.1l-0.2-0.1h-0.3l-0.1-0.2l-0.3-0.1l-0.5-0.1l-0.1-0.1l-0.2,0.1
	l-0.1,0.3h-0.3l-0.1,0.2l-0.1,0.1l-0.4,0.1l-0.1,0.1v0.2l0.1,0.1V76z M249.4,77.5l0.1,0.1l0.2,0.1h0.3l0.1,0.1l0.1,0.1l0.2-0.1h0.2
	l0.1-0.1l0.1-0.1l0.1-0.2l0.1-0.1h0.2h0.2l0.2-0.1v-0.1l-0.1-0.1l-0.1-0.2l-0.1-0.2l-0.2-0.3l-0.2-0.1l-0.2-0.1l-0.1-0.1h-0.2
	l-0.1-0.2l-0.1-0.1l-0.1-0.1l-0.1,0.1V76l-0.1,0.2l-0.1,0.1l-0.1,0.1l-0.1,0.1l-0.1,0.2v0.2l-0.1,0.1l-0.1,0.1l-0.1,0.1l-0.1,0.1
	L249.4,77.5L249.4,77.5z M201.1,111.5l-0.1-0.1l0,0l0,0v0.1H201.1l-0.1,0.1l0.1,0.1l0.1,0.1v0.2v0.1l0,0h0.1v-0.2l0.1-0.1l-0.1-0.1
	L201.1,111.5z M220.5,70.9l0.1,0.1l0.1,0.1l0.1,0.1v0.1l0.1,0.1v0.1v0.1v0.1v0.1l0.1,0.2l0.1,0.1h0.1v0.1v0.1l0.1,0.1l0.1,0.1
	l0.1,0.1l0.1,0.1l0.1,0.1l0.1,0.1h0.1l0.1-0.1v-0.1l-0.1-0.1l-0.1-0.1v-0.1l-0.1-0.1v-0.1h-0.1l-0.1-0.1l-0.1-0.1l-0.1-0.1l-0.1-0.1
	h-0.1l-0.1-0.1v-0.1v-0.1l-0.1-0.1l-0.1-0.1l-0.1-0.1l-0.1-0.1l-0.1-0.1l-0.1-0.1L220.5,70.9l-0.1-0.1v0.1L220.5,70.9z M195.8,70.9
	L195.8,70.9L195.8,70.9L195.8,70.9z M225.2,76.7l0.2,0.1h0.1h0.1h0.1L226,77h0.1l0.3,0.1l0.7,0.1l0.3,0.1l0.2-0.2l0.1-0.3l0.1-0.1
	l-0.1-0.2l-0.1-0.2l-0.5-0.3l-0.3-0.2l-0.4-0.2l-0.3-0.2L225.2,76.7L225.2,76.7z M195.9,71L195.9,71l0.1,0.1l0.2-0.1l0.2-0.1
	l0.1-0.1l0.1-0.1v-0.1l-0.1-0.1h-0.1h-0.2h-0.1l-0.1,0.1l-0.1,0.1L195.9,71L195.9,71L195.9,71z M221.3,112.1L221.3,112.1l-0.1-0.2
	l-0.1-0.1H221h-0.1l-0.1-0.1h-0.1l-0.1,0.1v0.1l0.1,0.1l0.1,0.1l0.1,0.1l0.1,0.1l0.1,0.1l0.1,0.1l0.1,0.1h0.1v0.1l0.1,0.1l0.1-0.1
	v-0.1L221.3,112.1z M197.4,90.9L197.4,90.9l-0.1-0.1l-0.1-0.1l-0.1-0.1h-0.1H197l0,0h-0.1h-0.1l-0.1,0.1l-0.1,0.1h-0.1v0.1V91V91
	l0,0l0.1,0.1l0.1,0.1h0.1v-0.1l-0.1-0.1V91h0.1L197,91h0.1l0.1-0.1v-0.1h0.1H197.4L197.4,90.9L197.4,90.9L197.4,90.9V91l0.3,0.1h0.1
	v-0.1l-0.1-0.1l-0.1-0.1L197.4,90.9L197.4,90.9L197.4,90.9z M197,91.8L197,91.8h0.1h0.1l0.1,0.1l0.1,0.1l0.1,0.1h0.1h0.1V92V92
	l-0.1-0.1l-0.1-0.1l-0.1-0.1l-0.1-0.1l-0.2-0.1h-0.1h-0.1l-0.1,0.1l-0.1,0.1v0.1v0.1v0.1v0.1L197,91.8L197,91.8z M253.5,87.7
	l-0.4-0.3l-0.5-0.3h-0.2l-0.4-0.3l-0.6-0.3l-0.5-0.2l-0.3-0.1l-0.3-0.1l-0.1,0.1h-0.3l-0.3-0.1l-0.3-0.2l0.1-0.1l0.1-0.1l-0.1-0.1
	h-0.3l-0.1,0.2l-0.1,0.2l-0.5-0.1l-0.5-0.2v-0.1l-0.1-0.1l0.1-0.1l0.1-0.1L248,85h0.3v-0.2h-0.1H248l-0.1-0.1l-0.1-0.2l-0.1-0.3
	l-0.1-0.1l-0.1-0.3l0,0v-0.2v-0.1v-0.1v-0.1l-0.1-0.1l-0.1-0.1l-0.1-0.1l-0.1-0.1l-0.1-0.1l-0.1-0.1h-0.2l-0.1-0.1l-0.1-0.1v-0.1
	l-0.1-0.1l-0.1-0.1l-0.1-0.1l-0.1-0.1l-0.1-0.1l-0.1-0.1h-0.1l0,0l-0.1-0.1h-0.1h-0.1h-0.1l-0.1-0.1h-0.1l-0.1-0.1l-0.2-0.1
	l-0.3-0.1l-0.1-0.1l-0.1-0.1l-0.1-0.1l-0.1-0.1l-0.1-0.1l-0.1-0.1l-0.1-0.1H244l-0.1,0.1v0.1v0.1h0.1h0.1h0.1l0.1,0.1v0.1l0.1,0.1
	v0.1h0.1h0.1h0.1h0.1h0.1v0.1l0,0h0.1l0.1-0.1l0,0l0,0h0.1h0.1l0.1,0.1v0.1v0.1v0.1V82l0.1,0.1h0.1h-0.1l0,0l0,0h-0.1L245,82
	l-0.1-0.1v-0.1v-0.1l-0.1-0.1l-0.1-0.1h-0.1h-0.1l0,0l0,0h-0.1l-0.1-0.1l-0.1-0.1l-0.1-0.1v-0.1l-0.1-0.1v0.1l-0.1-0.1l-0.1-0.1
	l-0.1-0.1l-0.1-0.1h-0.1h-0.1l0,0l0,0h-0.1h-0.1h-0.1h-0.1h-0.1h-0.1l-0.1,0.1l-0.1,0.1h-0.1l0,0l0,0h-0.1l0,0l0,0l0,0h-0.1h-0.1
	h-0.1h-0.1h-0.1h-0.1l0,0l0,0h-0.1h-0.1l-0.1,0.1h-0.1h-0.1l-0.1,0.1l-0.1,0.1l-0.1,0.1l0,0h-0.1h-0.1h-0.1l-0.1,0.1v0.1v0.1v0.1
	l-0.1,0.1h-0.1h-0.1l0,0l0,0h0.1h0.1l0,0l0,0h0.1l0,0h0.1l0,0V82l0.1,0.1l0.1,0.1h0.1h0.1h0.1h0.1v0.1H242h-0.1h-0.1h-0.1l0,0h-0.1
	l0,0v-0.1V82l0,0h-0.1l0,0l0,0h-0.1h-0.1l0,0l0,0l0,0h-0.1l0,0l0,0l-0.1,0.1l0,0l0,0l-0.1-0.1h-0.1l0.1,0.1l-0.1,0.1l0,0l0,0
	l-0.1-0.1l0,0l0.1,0.1l-0.1,0.1l-0.1,0.1l-0.1,0.1l0,0l0,0h-0.1l0,0l0,0h0.1l0,0l-0.1,0.1l-0.1,0.1l0,0l0,0h-0.1l-0.1-0.1l0,0v0.1
	l0.1,0.1v0.1l-0.1,0.1h-0.1l0,0l0,0l-0.1-0.1l-0.1-0.1v-0.1v-0.1v-0.1v-0.1l-0.1-0.1l0,0v0.1v0.1v0.1v0.1h-0.1l-0.1,0.1v0.1h0.1h0.1
	h0.1l0,0l0,0l0,0v0.1l0.1,0.1h0.1l0,0V83l0.1,0.1v0.1v0.1v0.1h-0.1h-0.1l0,0l0,0l0,0l0,0l0,0v0.1l0.1,0.1l-0.1,0.1l-0.1,0.1
	l-0.1,0.1l-0.1,0.1l-0.1,0.1v0.2v0.1l-0.1,0.1l0,0l0,0l0.1-0.1v-0.3v-0.1l0.1-0.1l0.1-0.1v-0.2l-0.1-0.1l-0.1-0.1h-0.1h-0.1h-0.1
	h-0.1H240H240h-0.1h-0.1h-0.1h-0.1h-0.1h-0.1l0,0h-0.1l0,0l0,0h-0.1h-0.1l0,0h-0.1h-0.1l0,0l0,0H239h-0.2h-0.1h-0.1h-0.1h-0.1l0,0
	l0,0h-0.1h-0.1l-0.1,0.1l-0.1,0.1l-0.1,0.1l-0.1,0.1l0,0l0,0h-0.1l0.1-0.2v-0.1h-0.1l-0.1-0.1l-0.2-0.1l-0.2-0.1l-0.1-0.1l-0.1-0.1
	l0,0l0,0l-0.1-0.1l-0.2-0.1l-0.3-0.1l-0.1-0.1l-0.1-0.1v-0.1l0,0l-0.1-0.1l-0.1-0.1l-0.1-0.1l-0.1-0.1l-0.2-0.1l-0.1-0.1l0,0
	l-0.1-0.1l-0.2-0.1l-0.1-0.1v-0.1l-0.1-0.1l-0.1-0.1l-0.1-0.2l-0.1-0.1v-0.1l-0.1-0.2l-0.1-0.1l-0.1-0.3l-0.2-0.1l-0.2-0.1l-0.3-0.1
	h-0.1l-0.3,0.1l-0.5,0.3l-0.1,0.1h-0.1l-0.1,0.1v0.1l-0.3,0.1L232,81l-0.1,0.1l0.1,0.1l0.1,0.1l0.1,0.1v0.1l0,0l0,0l-0.1-0.1
	l-0.1-0.1l-0.1-0.1l-0.1-0.1l-0.2,0.2l-0.2,0.2l-0.2,0.3l-0.1,0.3l-0.2,0.3l-0.2,0.1l-0.3,0.1l0,0l0,0h-0.2h-0.3h-0.3l-0.3,0.1
	l-0.1,0.1l-0.1,0.2v0.3v0.1v0.1H229l-0.1,0.1l-0.1,0.1l-0.1,0.1V84h0.1l0.1-0.1l0,0l0,0h0.3h0.1l0.1,0.1h0.2v0.1v0.1v0.1h-0.1l0,0
	l0,0l-0.1-0.1l-0.1-0.1l-0.1-0.1h-0.1l-0.1,0.1v0.1l-0.1,0.1l-0.1,0.2l-0.1,0.1l-0.1,0.1l-0.1,0.1l-0.1,0.1l-0.2,0.2l-0.1,0.1
	l-0.1,0.2l-0.1,0.3v0.1v0.1l0.1,0.1h-0.1l-0.1,0.1l-0.2,0.2l-0.1,0.1l-0.1,0.1l-0.1,0.1v0.1l-0.1,0.1l0,0l0,0v-0.1v-0.1l0.1-0.2
	l0.1-0.1l0.2-0.2l0.1-0.1l0.1-0.2v-0.2l0.1-0.1l0.1-0.1l0.2-0.3l0.1-0.1l0.1-0.1l0.1-0.1l0.1-0.1l0.1-0.1v-0.1l-0.1-0.1l-0.1-0.1
	h-0.1h-0.1l0,0l0,0h-0.1v-0.1v-0.1l-0.1-0.1l0.1-0.1l0.1-0.1v-0.1h-0.1l-0.4,0.1h-0.3h-0.2l0,0l0,0v-0.1l0.3-0.1l0.8-0.1h0.1
	l0.1-0.1v-0.1l-0.1-0.2l-0.1-0.2l-0.1-0.1v-0.1l0.1-0.1l0.1-0.1l0,0l0,0l0.1,0.1h0.1l0.1-0.1l0.1-0.1h0.1l0.1-0.1l0,0l0,0h0.1
	l0.1,0.1l0.1,0.1l0.1-0.1h0.1l0.2,0.1l0.3,0.1h0.2l0.1-0.1l0.1-0.1l0.1-0.1l0.1-0.3l0.1-0.3l0.1-0.1l0.2-0.2l0.2-0.2l0.1-0.1
	l0.1-0.1l0.1-0.2l0.1-0.1v-0.3v-0.1l0.1-0.1l0.1-0.1h0.1l0.1-0.1v-0.1l0.1-0.1v-0.1H232l-0.1-0.1l-0.1-0.1l-0.1-0.1v-0.1l-0.1-0.1
	h-0.1h0.1l0,0l0,0l0,0l-0.2-0.3l-0.1-0.2l-0.1-0.1l-0.1-0.1l-0.1-0.1l-0.1-0.1v-0.1v-0.1l-0.1-0.1l-0.1-0.2l-0.1-0.2l-0.1-0.3
	l0.1-0.2l0.1-0.1v-0.1l-0.1-0.1v-0.1l0.1-0.1l-0.1-0.1l-0.1-0.1l-0.1-0.1l-0.1-0.1l-0.1-0.1l0.1-0.1v-0.1l0.1-0.1v-0.1l-0.1-0.1
	h-0.1h-0.1H230l-0.1,0.1l-0.1,0.1h-0.1l0,0l0,0l-0.1-0.1h-0.1h-0.1l-0.1,0.1l-0.1,0.1l-0.1,0.1v0.1h-0.3h-0.5l-0.3,0.1l-0.2,0.1
	l-0.1,0.1l-0.1,0.3l-0.1,0.3l-0.2,0.4l-0.1,0.3l-0.1,0.2l-0.1,0.1v0.1l0.1,0.1v0.1l-0.1,0.1l-0.1,0.1l-0.1,0.2l-0.1,0.1l-0.1,0.1
	l-0.1,0.1v0.1l0.1,0.1v0.1h-0.1l0,0l0,0l-0.1-0.1l-0.1-0.1h-0.1l0,0l0,0h-0.1h-0.1h-0.1h-0.1l-0.1,0.1l0,0l0,0H226v0.1v0.1h0.1v0.1
	l0,0H226v0.1h0.1h0.1v0.1l-0.1,0.1l-0.1,0.1v0.5H226v0.1l0,0l-0.1,0.1v0.1l0.1,0.1l0.1,0.1l-0.1,0.1l0,0l0,0h-0.1l-0.1-0.1l0,0
	l0.1,0.1v0.1h-0.1l-0.1,0.1l0,0l0,0h-0.1l-0.1-0.1l-0.1,0.1l-0.1,0.1h-0.1l0,0l-0.2,0.1l-0.1,0.1v0.1v0.1l-0.1,0.1l-0.1,0.1l0,0l0,0
	l-0.1-0.1l0.1-0.1l0.1-0.2v-0.1v-0.1v-0.1l0.1-0.1l0.1-0.1h0.1v-0.1l0.1-0.1l0.1-0.2l0.1-0.3v-0.2l-0.1-0.1v-0.1l0.1-0.1l0.1-0.1
	l0.1-0.1l0.1-0.1v-0.1v-0.1v-0.1l0.1-0.1h0.1l0.1-0.1l0.1-0.1l0.1-0.1l0.1-0.1l0.1-0.1l0.1-0.1l0.1-0.1h0.1l0.2-0.1l0.1-0.1l0.1-0.1
	l0.2-0.3l0.1-0.1l0.1-0.2v-0.2l-0.1-0.1l-0.1-0.1h-0.2l-0.3-0.1h-0.3l-0.3-0.1l-0.2-0.1L226,77l-0.1-0.1l-0.2-0.1l-0.1-0.1h-0.2H225
	l-0.1,0.1h-0.1v0.1v0.1V77h-0.1l0,0l0,0l-0.1-0.1l-0.1-0.1l-0.1-0.1l-0.1-0.1v-0.1l-0.1,0.1l0,0l0,0l-0.1-0.1l-0.1-0.1l-0.3-0.3
	l-0.1-0.1v-0.1v-0.1l-0.1-0.1h-0.1l-0.1,0.3l-0.1,0.1h-0.1l0.1-0.1l0.1-0.2l-0.1-0.2l-0.1-0.1l-0.3-0.1l-0.1-0.1h-0.3h-0.1l-0.1-0.1
	h-0.1l-0.2,0.1l-0.2,0.1l-0.2,0.1l-0.1,0.1l-0.1,0.1v0.1l-1.1-0.5v-0.1l0.1-0.1l0.1-0.1l0.1-0.1l0,0l0.1-0.1h0.1l0,0l0.1-0.1v-0.1
	l0.1-0.1h0.1h0.1v-0.2v-0.1H221v-0.1h0.2v-0.1h0.1V74l0.1-0.1l0.1-0.1v-0.1l0.1-0.3l-0.1-0.1l-0.1-0.1l-0.2-0.3l-0.1-0.1l-0.1-0.1
	v-0.1l-0.1-0.1l-0.1-0.1h-0.1v-0.1l-0.1-0.1l-0.1-0.1l-0.1-0.1l-0.1-0.1h-0.1h-0.1h-0.1h-0.1l-0.1,0.1v0.1h-0.1v0.1l-0.1,0.1
	l-0.1,0.1h-0.1l-0.1,0.1l-0.1,0.1h-0.1l-0.1,0.1h-0.1l-0.1,0.1l0,0l0,0l-0.1-0.1l0,0l0.1-0.1l0.1-0.1l0.1-0.1l0.1-0.1l0.1-0.1
	l0.1-0.1l0.1-0.1l0.1-0.1l0.1-0.1v-0.1l0.1-0.1l0.1-0.1l-0.1-0.2l-0.1-0.2l-0.1-0.3l-0.1-0.2l-0.2-0.1h-0.1l-0.2,0.1l-0.2,0.1
	l-0.1,0.1l0,0l0,0h-0.1h-0.1l0,0l0,0h-0.1h-0.1H219l0,0l0,0l-0.1-0.1h-0.1V71l0.1,0.1l0.1,0.1l-0.1,0.1l0,0l0,0l-0.1-0.1l-0.1-0.1
	h-0.1l-0.1-0.1v-0.1v-0.3l-0.1-0.6v-0.1h0.1l0,0l0,0l0.1,0.6v0.1l0,0l0.1,0.1h0.1h0.1h0.1l0.1-0.1l0.1-0.1l0.1-0.1l0.1-0.1h0.1h0.1
	v-0.1v-0.1l-0.1-0.1v-0.1l-0.1-0.2l-0.2-0.1v-0.1l-0.1-0.1l-0.3-0.1l-0.2-0.1l-0.3-0.1l-0.1-0.1l-0.4-0.3l-0.2-0.1h-0.2l0,0l0,0
	h-0.1v-0.3l-0.2-0.1l-0.1-0.1l-0.2-0.1l-0.5,0.1L216,69l0,0l0,0l-0.1-0.1l-0.1-0.1l0.4-0.8l-1.2-0.7l-0.3,0.5l-0.2,0.4l0,0l0,0
	l-0.2-0.1l0.1-0.3l-0.1-0.1h-0.1h-0.1l0,0l0,0h-0.1l-0.1-0.1h-0.1h-0.1l-0.1,0.1l-0.1,0.1l-0.1,0.1l-0.1,0.1l-0.1,0.1l-0.3,0.1l0,0
	l0,0v-0.1l0.2-0.3l0.1-0.2l0.1-0.1l0.1-0.1l0.1-0.1h0.2l0.1-0.1v-0.1v-0.1v-0.1h-0.1l-0.1-0.1l-0.2-0.1l-0.1-0.1h-0.1h-0.1l-0.1-0.1
	L213,67h-0.1h-0.2l0,0l0,0h-0.2l-0.1,0.1h-0.2H212l0,0l0,0h-0.1h-0.1l0,0l0,0h-0.1l-0.2-0.1h-0.2l-0.1,0.1h-0.1l-0.1,0.1l-0.1,0.1
	h-0.1h-0.1l-0.1,0.1h-0.1h-0.1l-0.1,0.1l-0.1,0.1l-0.1,0.1l-0.1,0.1l0,0l0,0h-0.1h-0.1l-0.1,0.1l-0.1,0.1l-0.1,0.1l-0.1,0.1
	l-0.1,0.1l-0.1,0.1l-0.1,0.1l-0.1,0.1l-0.1,0.1l-0.1,0.1l-0.1,0.1l-0.1,0.1l-0.1,0.1l-0.1,0.1l-0.1,0.1l-0.1,0.1l-0.1,0.1h-0.1
	l-0.1,0.1l-0.1,0.1l-0.1,0.1h-0.1l-0.1,0.1l-0.1,0.1l-0.1,0.1v0.1l-0.1,0.1l-0.1,0.1v0.1l-0.1,0.1v0.1l-0.1,0.1l-0.1,0.1l-0.1,0.1
	l-0.1,0.1l-0.1,0.1l-0.1,0.1v0.1h-0.1v0.1h-0.1l-0.1,0.1h-0.1l-0.1,0.1h-0.1l0,0l0,0h-0.1l-0.1,0.1h-0.1l-0.1,0.1h-0.1l-0.1,0.1
	l-0.1,0.1l-0.1,0.1l-0.1,0.1l-0.1,0.1l-0.1,0.1l-0.1,0.1l-0.1,0.1h-0.1v0.1l0,0l0,0l0,0l0,0v0.1h0.1v0.1l-0.1,0.1v0.1l0,0l0,0
	l-0.1-0.1h-0.1v-0.1l-0.1-0.1h-0.1l-0.1,0.1h-0.1v0.1l0,0l0,0h-0.1l-0.1,0.1l-0.1,0.1V72l0,0v0.1l-0.1,0.1v0.1l-0.1,0.1v0.3
	l-0.1,0.1l-0.1,0.1h-0.1l-0.1,0.1l0,0l0,0v-0.1l-0.1-0.1h-0.1h-0.1l0,0l0,0H203h-0.4h-0.3l-0.1,0.1l-0.2,0.1l-0.1,0.1v0.1V73v0.2
	l0,0l0,0l-0.1-0.1l-0.1-0.1l-0.1-0.1h-0.1l-0.1,0.1h-0.1l0,0l0,0h-0.1h-0.1h-0.1l0,0l0,0l-0.1-0.1l-0.1-0.1l-0.2-0.1l-0.1-0.1
	l-0.1-0.1l-0.2-0.1h-0.3l-0.1,0.2l0.1,0.1l0.1,0.3l0.1,0.1v0.1l0.3,0.3l0.1,0.3l0.1,0.1l0.1,0.3l-0.1,0.2l-0.1,0.1l-0.2,0.1
	l-0.1,0.1l-0.1,0.2l-0.1,0.2l-0.2,0.3l-0.1,0.1l-0.1,0.1l-0.1,0.1v0.2v0.1l-0.1,0.1h-0.1l-0.1,0.1l-0.1,0.1h-0.1l-0.1,0.1l-0.1,0.1
	l0,0l0,0l-0.1-0.1h-0.1l-0.1,0.1v0.1l-0.1,0.1h-0.1v0.1h-0.1l0,0l-0.1,0.1l-0.1,0.1l-0.1,0.1l-0.1,0.1v0.1h-0.1v0.1H198l0,0l0,0
	l-0.1-0.1h-0.1v0.1h-0.1v0.1l0,0v0.1l-0.1,0.1l-0.1,0.1h-0.1v0.2l0.1,0.1h0.1h0.1l0.1,0.1l-0.1,0.1l-0.1,0.1v0.1l0.1,0.1h0.1
	l0.1,0.1h0.1l0.1,0.1l0.1,0.1l0.1,0.1l0.1,0.1h0.1l0.1,0.1l0.1,0.1h0.2l0.1,0.1h0.1V79l-0.1,0.1v0.1v0.1l0.1,0.1l0.1,0.1l0.1,0.1
	l0.1,0.1l0.1,0.1v0.1v0.1l0.1,0.1l0,0v0.1l-0.1,0.1l-0.1,0.1l-0.1,0.1v0.1v0.1l-0.1,0.1v0.1l-0.1,0.1v0.2l-0.1,0.1v0.2l0,0l0,0l0,0
	v-0.1v-0.1V81v-0.1v-0.1v-0.1l0.1-0.1v-0.1l-0.1-0.1v-0.3l0,0v-0.1V80h-0.1l-0.1-0.1v-0.1v-0.1v0.3l-0.1-0.1l-0.1-0.1v-0.1l-0.1-0.1
	v-0.1v-0.1l-0.1-0.1l-0.1-0.1v-0.1l-0.1-0.1h-0.1h-0.1l-0.1-0.1l-0.1-0.1h-0.1l0,0l0,0v-0.1v-0.1l-0.1-0.1h-0.1l-0.1,0.1l-0.1,0.1
	l-0.1,0.1l-0.1,0.1l-0.1,0.1v0.1v0.2V80v0.1v0.1v0.2l-0.1,0.1l-0.1,0.1h-0.1v0.2h-0.1l-0.1,0.1v0.1l-0.1,0.1h-0.1l0,0l-0.1,0.1h-0.1
	l-0.1,0.1l-0.1,0.1l-0.1,0.1l0,0l0,0h-0.1l-0.1,0.1h-0.1l0,0l0,0l-0.1-0.1h-0.1v-0.2h0.1l0.1,0.1h0.1v-0.1h0.1h0.1V81l0.1-0.1
	l0.1-0.1h0.1l0.1-0.1l0.1-0.1l0.1-0.1l0.1-0.3v-0.1l-0.1,0.1l-0.1,0.1h-0.2l0,0l0,0l-0.2-0.1l-0.1-0.1h0.1l0,0h0.1l0.1-0.1l0.1-0.1
	l0.1-0.1l0.1-0.1v-0.1l-0.1-0.1l-0.1-0.1l0,0l0.1-0.1v-0.1l-0.1-0.1v-0.1l0.1-0.1l0.1-0.1v-0.3l-0.1-0.3l-0.1-0.1l-0.1-0.1h-0.1
	l-0.1,0.1v0.1l-0.1,0.1l0,0l0,0l0.1-0.2v-0.2l-0.1-0.1l-0.1,0.1l-0.1,0.1h-0.9l-0.1-0.1H195l-0.1,0.1l-0.1,0.1l0,0l0,0h-0.1h-0.1
	l0,0l0,0l-0.1-0.1v-0.1v-0.1v-0.3l-0.1-0.1v-0.1l0.1-0.1v-0.1l-0.1-0.1l-0.1-0.1h-0.1l-0.1,0.1l-0.1,0.1l-0.1,0.1l-0.1,0.1v0.1h-0.1
	l-0.1,0.1l-0.1,0.1l-0.1,0.1l0,0l0,0v-0.1h-0.1l-0.1-0.1l0,0l0,0h0.1h0.1l0.1-0.1l0.1-0.1l0.1-0.1l0,0l0,0h0.1l0.1-0.1h0.1l0.1-0.1
	l0.1-0.1l0.1-0.1l0.1-0.1l0.1-0.1h0.1h0.1l0.1,0.1l0.1,0.1l0.1,0.2l0.2,0.1l0.1,0.1h0.1l0.1-0.1h0.1l0,0l0,0h0.1h0.1h0.5v-0.1
	l0.1-0.1l0,0l0,0h0.1l0.1,0.1l0.1-0.1v-0.1v-0.1l0.1-0.1l0.1-0.1h0.1l0.1-0.1h0.1l0.1-0.1l0.1-0.1l0.2-0.2h0.1l0.1-0.1l0.2-0.2
	l0.1-0.2l0.1-0.2v-0.2l0.1-0.1v-0.1l0.1-0.1l0,0l0,0l0.1,0.1h0.1l0.1-0.1l0.1-0.1l0,0l0,0h0.1h0.1l0.1-0.1v-0.1l0.1-0.1h0.1l0.1-0.1
	L199,75V75l0.1-0.1l0,0l0,0h0.1l0.1,0.1l0.1-0.3l-0.1-0.1l-0.3-0.1l-0.1,0.1h-0.1l0,0l0,0l-0.1-0.1v-0.2l0.1-0.1l0.1-0.1v-0.1
	l-0.1-0.1l-0.1-0.1v-0.1h0.1l0.2-0.1v-0.1l-0.2-0.1l0.1-0.1v-0.1v-0.1l-0.1-0.1l-0.1-0.1l-0.1-0.1l0.1-0.1v-0.2v-0.3l0.1-0.1
	l0.1-0.1v-0.1l-0.1-0.2l-0.1-0.1l-0.2-0.1l-0.1-0.1l-0.1-0.1l-0.1-0.1l0,0l-0.1-0.1l-0.1-0.1l-0.1-0.1l-0.1-0.1l-0.1-0.1l-0.1-0.1
	l-0.1-0.1l0,0l-0.1-0.1h-0.1l-0.1,0.1l-0.1,0.2l-0.1,0.2l-0.1,0.1v0.1v0.1l0,0v0.3v0.1l-0.1,0.1H197l0,0l0,0v-0.1l0.1-0.1l0.1-0.1
	l-0.1-0.1H197h-0.1l-0.1,0.1l-0.1,0.1l-0.1,0.1l0.1,0.1l-0.1,0.1l-0.1,0.1l-0.1,0.1l-0.1,0.1h-0.1l0,0l0,0l-0.1-0.1H196l-0.1,0.1
	v0.1l0.2,0.1l0.1,0.1l0.1,0.1l-0.1,0.1l-0.1,0.2l-0.1,0.1l0,0l0,0v-0.1l0.1-0.1l0.1-0.2l-0.1-0.1l-0.1-0.1l-0.1-0.1l0.1-0.1h0.1h0.2
	l0.2-0.1l0.1-0.1l0.1-0.1v-0.1l0.1-0.1l0.1-0.1l0.1-0.1h0.1l0.1-0.1v-0.1l0.1-0.1v-0.1l0.1-0.1l0.1-0.1l0.1-0.3l-0.1-0.1l-0.1,0.1
	l-0.1,0.1l-0.2,0.1l-0.2,0.1l-0.2,0.1l0,0l0,0h-0.2H196v-0.1l0.1-0.1v-0.2l-0.1-0.1h-0.2l-0.1,0.1l-0.2,0.1h-0.2l-0.1,0.1h-0.2
	l-0.2,0.1h-0.1l-0.2,0.1l-0.2,0.1l-0.2,0.1l-0.2,0.2l-0.1,0.1l-0.3,0.1h-0.1l-0.5,0.4V72h-0.1l0,0l0,0l0,0l-0.1,0.1l0,0l-0.1,0.1
	l-0.1,0.2l-0.1,0.1l-0.1,0.1l-0.1,0.1l-0.1,0.1l-0.1,0.1l-0.1,0.1l-0.1,0.1l-0.2,0.2l-0.2,0.1l-0.3,0.2l-0.1,0.1l-0.3,0.1l-0.1,0.1
	h-0.1h-0.1l-0.1-0.1H190l-0.1,0.1l-0.2,0.1l-0.2,0.1v0.3h-0.1l0,0l0,0l-0.1-0.1l-0.1-0.1h-0.3l-0.1,0.1l-0.1,0.1l-0.1,0.1l-0.2,0.1
	h-0.2l0,0l0,0l-0.1-0.1l-0.1-0.1H188l-0.1,0.1l-0.1,0.1v0.2V75l-0.1,0.1l0,0h-0.1l-0.1,0.1v0.1l-0.1,0.1l-0.1,0.2v0.1l-0.1,0.1
	l0.1,0.2h0.1v0.2l0,0l0,0l-0.1-0.1h-0.1l-0.2,0.1v0.1h0.1h0.1l-0.1,0.1l-0.1,0.1l-0.1,0.1l-0.1,0.2v0.2l0.1,0.1v0.1l0,0l0.1,0.1
	l-0.1,0.1h-0.1l0,0l0,0h-0.1l-0.1,0.1h-0.1l-0.1,0.1v0.1v0.1l0.1,0.1v0.1v0.1h-0.1l-0.1,0.1l-0.1,0.1l-0.1,0.1v0.1v0.1l-0.1,0.1l0,0
	l0,0l-0.1-0.1l-0.1-0.1v-0.1l-0.1-0.1h-0.1h-0.1l-0.1,0.1l-0.1,0.1l-0.1,0.1v0.1v0.1v0.1l-0.1,0.1l-0.1,0.1l0,0l0,0h-0.1l-0.1,0.1
	v0.2l0.1,0.1v0.1v0.1v0.1v0.1v0.1l-0.1,0.2v0.1l-0.1,0.1v0.1v0.1v0.1v0.1l0.1,0.1v0.1v0.1v0.1v0.1v0.1v0.1l0,0V81l0.1,0.1v0.1
	l-0.1,0.1l-0.1,0.1h-0.1l-0.1,0.1v0.1l-0.1,0.1v0.2l-0.1,0.1V82l-0.1,0.1l-0.1,0.1l-0.1,0.1l-0.1,0.1v0.1l0,0v0.1v0.1l-0.1,0.1
	l-0.1,0.1l-0.1,0.1l0,0l-0.1,0.1l-0.1,0.1V83l0.1,0.1l-0.1,0.3l-0.1,0.3l-0.1,0.1l-0.1,0.1l-0.1,0.1v0.1l-0.1,0.2l-0.1,0.2l-0.1,0.1
	v0.1l0.1,0.1h-0.1l0,0l0,0l-0.1-0.1l-0.1-0.1h-0.1v0.1l0.1,0.1l-0.1,0.1l-0.3,0.1l-0.1,0.1v0.1l0.1,0.1l0,0l-0.1,0.2l-0.6,1.1v0.1
	l-0.1,0.1l-0.1,0.1l-0.1,0.1l-0.1,0.1l-0.1,0.1l-0.1,0.1v0.1l-0.1,0.1l-0.1,0.1l-0.1,0.1l-0.1,0.1l-0.2,0.2l-0.1,0.1v0.1l-0.1,0.2
	v0.1l-0.1,0.2l-0.1,0.2l-0.1,0.2l-0.1,0.2V89l0,0v-0.1v-0.1l-0.1-0.1h-0.1h-0.1l-0.1,0.1l-0.1,0.1l-0.1,0.2l-0.1,0.2v0.2l0.1,0.2
	l0.1,0.1h0.1l0.1-0.1l0,0l0,0l-0.1,0.3l-0.1,0.1l-0.1,0.1l-0.1,0.1v0.1v0.1l0.1,0.1l-0.1,0.2l-0.1,0.2l-0.1,0.1l-0.1,0.2l-0.2,0.2
	l-0.9,2.6l-1.1,3l-0.6,1.5l-0.1,0.2l-0.1,0.3l0.1,0.3l0.3,0.5l0.2,0.3l0.1,0.1v0.1l0.1,0.2v0.1h-0.1l-0.3,0.3l-0.1-0.1l0.3-0.3l0,0
	l-0.3,0.3l-0.1,0.7l-0.3,0.3l-0.1,0.4l-0.1,0.1c0,0,0,0.1-0.1,0.1c0,0-0.1,0-0.1,0c-0.1,0-0.3-0.1-0.3-0.1v-0.1h0.1v-0.1h-0.1v0.1
	h-0.1H176h-0.1h-0.1l-0.1-0.1h-0.1c0,0,0,0,0,0.1l0.1,0.1c0,0,0.1,0,0.1,0h0.1c0,0,0,0.1,0,0.3c0,0.1,0.1,0.1,0.1,0.2l0.1,0.1h0.1
	c0,0,0.1,0.1,0.1,0.1c0,0,0,0.1,0,0.3c0,0.1,0,0.3,0,0.3v0.1l-0.1,0.1h-0.5v-0.1h-0.1v0.1h-0.1v-0.1h-0.4l-0.1-0.1l-0.1,0.1
	l-0.1,0.1l-0.4,1.1v0.1c0,0,0,0.1,0.1,0.1s0.1,0.1,0.1,0.1v-0.1l0,0v-0.1l0.1-0.1v-0.1l0.1-0.1h0.1v-0.1h-0.1v-0.2l0.2-0.2l0.1-0.3
	h0.7l0.2,0.1c0.1,0,0.3,0,0.4,0c0.1,0,0.2,0,0.3,0c0,0,0.2,0.1,0.2,0.2v0.1c0,0.2,0,0.3,0,0.3v0.3c0,0,0,0.1,0,0.1
	c0,0.1-0.1,0.3-0.2,0.3c-0.2,0.1-0.2,0.1-0.2,0.1s-0.1,0-0.1,0.1l-0.1,0.1c0,0.1,0,0.3,0,0.3v0.1h-0.1l-0.2,0.1h-0.3h-0.1l0,0v0.4
	c0,0,0,0.1-0.1,0.1c0,0.1-0.1,0.1-0.1,0.1c-0.1,0-0.1,0-0.1,0.1c0,0-0.1,0.1,0,0.1c0,0,0,0.1,0.1,0.1c0,0,0,0.1,0,0.2
	c0,0.2,0,0.5,0,0.5s0,0.1,0.1,0.1c0,0,0.1,0.1,0.1,0c0.1,0,0.1,0,0.1-0.1l0.1-0.1c0,0,0.1,0,0.1-0.1c0,0,0-0.1,0.1-0.1
	c0,0,0.2-0.1,0.3-0.1c0.1,0.1,0.4,0.3,0.5,0.4h0.1l0.3,0.5c0,0,0,0.1,0,0.2s-0.2,0.3-0.3,0.3c-0.1,0-0.1,0.1-0.1,0.1l-0.1,0.1h-0.1
	h-0.2l-0.2,0.1h-0.1h-0.1c0,0,0-0.1-0.1-0.1l-0.1,0.1c0,0.1-0.1,0.4,0,0.5c0,0.1,0,0.1,0.1,0.1h0.1v-0.1h-0.1v-0.1
	c0,0,0-0.1,0.1-0.1l0.3-0.1l0.1-0.1h0.1h0.1l0.1,0.1v0.1c0,0,0.1,0.1,0.1,0.2s0.3,0.5,0.3,0.5s0,0.2,0,0.2s-0.1,0.2-0.1,0.2
	c-0.1,0.1-1.2,0.5-1.2,0.5s-0.1,0.1-0.2,0.2c-0.1,0.1-0.1,0.1-0.1,0.2c0,0.1,0,0.9,0,0.9s0,0.1-0.1,0.1l0,0c-0.1,0-0.2,0-0.3,0
	c-0.1,0-0.3-0.2-0.3-0.5c0-0.3,0-0.4,0-0.4l0,0v-0.1l-0.1-0.1v0.5c0,0,0,0.3,0.2,0.5c0.2,0.1,0.3,0.2,0.5,0.3c0,0,0,0,0.1,0
	c0.3,0.1,2.7,0.7,2.7,0.7l0.1-0.1v-0.1l-2.4-0.7c-0.1,0-0.1,0-0.1-0.1c0-0.1,0.1-0.3,0.1-0.3l0.1-0.1l0.7,0.1l0.1-0.2l0.1-0.4
	l0.3-0.5l0.3-0.1l0.1-0.2c0-0.1-0.2-0.5-0.2-0.7c0-0.1-0.1-0.2-0.1-0.3s0-0.1-0.1-0.2c0-0.1-0.1-0.1-0.1-0.1c0-0.1,0-0.1,0-0.1
	c0-0.1,0.1-0.1,0.1-0.2c0.1-0.1,0.3-0.1,0.4-0.1c0.1,0,0.2-0.1,0.3-0.1c0.1-0.1,0-0.2,0-0.2s-1.1-2.2-1.1-2.3c0-0.1,0-0.3,0-0.3
	c0-0.1,0.1-0.2,0.1-0.2l2.4-1.1l0.1-0.1l0,0l-0.1,0.1c0,0-1.3,0.6-1.3,0.6c0,0,0,0-0.1,0v-0.1c0,0,0.1-0.5,0.1-0.6l0.1-0.1l3-1.5
	c0,0,0,0,0.1,0s0.1,0,0.1,0l-0.1,0.7l-1,0.5l-0.2,0.1v0.1h0.3l1-0.5l0.1-1.9l-0.1-0.1l-0.1-0.1h-0.1l-0.1-0.1l0.1-0.3h0.3h0.1h0.1
	l0,0v0.1h0.1v-0.1l0,0l0.6,0.1h0.1h0.1h0.2l0.2-0.1l0.1-0.1l0,0l0.3-0.3l0,0v-0.1l0.1-0.1v-0.1v-0.1v-0.1l0,0v-0.3l-0.3-0.6
	l-0.5-0.9l-0.5-0.8l-0.1-0.1l0,0l0,0l0,0v-0.1v-0.1v-0.1l0,0l0,0l0,0v-0.1v-0.1V98V98v-0.1l-0.1-0.1v-0.1v-0.1h-0.1h-0.1v-0.1v-0.1
	v-0.1v-0.1l0,0l-0.1-0.1l0,0l0,0l0,0v-0.1v-0.1l0,0v-0.1l-0.1-0.1l0,0l-0.1-0.1v-0.1l-0.1-0.1H181l0,0l-0.1-0.1l0,0l-0.1-0.1
	l-0.1-0.1l-0.1-0.1l-0.1-0.1l-0.1-0.1l-0.1-0.1l-0.2-0.2l0.2-0.3l0.3-0.5l0.1-0.1l0,0l0,0l0.2,0.3l-0.2,0.3l0.4,0.4l0.3-0.2l0,0l0,0
	l0.1,0.1l0.1,0.1l0.1,0.1h0.1h0.1l0.1-0.1l0.2-0.2l0.1-0.1l0.2-0.2l0.1-0.1l0.1-0.1l0,0l0,0l0,0l0,0l0.1,0.1l0,0l-0.1-0.1l0.1-0.1
	l0,0l0.1-0.1h0.1h0.1l0,0l0,0h0.1l0.1,0.1l0,0l0,0l0,0l0,0l0,0l0,0l0.1-0.1l0,0l0,0l0.1,0.1l-0.1,0.1l0,0h-0.1l0,0v0.1l0,0h0.1h0.1
	l0,0l0,0l0.1,0.1v0.1v0.1l-0.1,0.1l-0.4,0.3v0.1l-0.1,0.1l-0.1,0.1l-0.1,0.1l-0.1,0.1l-0.1,0.1h-0.1l-0.1,0.1l-0.1,0.1l-0.1,0.1V97
	V97l0.1,0.1l0.1,0.1l0.2,0.2l0.1,0.1l0.1,0.1l0.2,0.1l0.2-0.2l0,0l0.1-0.2l0.1-0.1l0.1-0.1l0.1-0.1l0.1-0.1l0.1-0.1l0.1-0.1l0.1-0.1
	l0.1-0.1l0,0l0,0h0.1l0.1-0.1l0.1-0.1v-0.1h0.1l0,0l0,0h0.1v0.1v0.1l0.1,0.1l-0.1,0.1h-0.1l-0.2,0.2h-0.1l-0.7-0.3l-0.1,0.1v0.1l0,0
	l-0.1,0.1h-0.1l0,0l0,0l-0.1-0.1l-0.1,0.1l0.1,0.1l0.1,0.1V97l-0.1,0.1l-0.1,0.1l-0.1,0.1v0.1l-0.2,0.2l-0.2,0.2l0.2,0.2l0.5-0.4
	l0,0l0,0l0.1,0.1l-0.5,0.4l0.1,0.1l0.1,0.1l0.3-0.3l0,0l0,0l0.2,0.2l0.1,0.1l0.1,0.1h0.1l0,0l0,0h0.1l0.1,0.2l-0.5,0.4l0,0l0.2-0.1
	l0,0l0,0l0.1,0.1l0.3-0.3l0,0l0,0l0.2,0.2l-0.1,0.1v0.1V99l0.3,0.2l0.2,0.1l0.2,0.1l0.1,0.1l-0.1,0.1h0.1l0,0l0,0l0,0h0.1v-0.1h-0.1
	l0,0l0,0l0,0l0.1,0.1l0,0h0.1l0,0l0,0l0,0l0,0l0,0l0,0l0.1,0.1v0.1l0,0l-0.3,0.1l-0.1,0.1l0.1,0.1h-0.1h-0.1l0,0l0,0l0,0l0,0l0,0
	l0,0l0,0l0,0h0.1h0.1h0.1l0.1-0.1l0.4-0.2l0,0l0,0v0.1l-0.1,0.1l0.1,0.1l0,0l0,0l0.1,0.1l0.2-0.1l0.1-0.1l0.1-0.1l0.1-0.1l0.2-0.1
	l0.1-0.1l0.1-0.1l0.1-0.1l0.1-0.1l0.1-0.2l0.1-0.1l0.1-0.1v-0.1l-0.1-0.1l-0.1-0.1h-0.1l-0.1-0.1l-0.1-0.1l0,0l0,0l0,0l0,0l0,0l0,0
	l0,0l0,0l-0.1-0.1l0,0l0,0l0,0l0,0l0,0l0,0l0,0l-0.1-0.1l0,0h-0.1l-0.1-0.1l0,0l0,0l0,0l-0.1-0.1L186,98V98H186v-0.1v-0.1l0,0h-0.1
	l0,0l0,0l0,0h0.1h0.1l0,0v-0.1l0,0l0,0v-0.1l0,0l0,0v-0.1l0,0v-0.1l0,0H186l0,0l0,0v-0.1v-0.1v-0.1l0,0h0.1h0.1h0.1l0,0l0,0l0,0l0,0
	v-0.1l0,0l0,0l0,0l0,0l0,0l0,0l0,0l0,0l0,0h0.1v-0.1v-0.1V97V97l0,0h0.1h0.1h0.2h0.1h0.1h0.1h0.1l0,0l0,0v0.2l0,0v0.1l0,0l0,0v0.1
	v0.1v0.1v0.1v0.1v0.1v0.1l0,0v0.1v0.1L187,98L187,98l0.1,0.1l0.1,0.1l0,0h0.1l0,0l0,0l0,0l0,0l0,0l0,0l0,0l0.1,0.1l0.1,0.1l0.1,0.1
	l0,0h0.1l0.1,0.1l0,0l0.1,0.1l0,0l0,0v0.1l0.1,0.1l0.1,0.1l0.1,0.1l0,0l0,0l0,0l0,0l0,0l0,0l0.1-0.1l0,0l0.1-0.1l0.1-0.1l0,0l0,0
	l0,0l0,0l0.1,0.1l0.1,0.1h0.1l0.1-0.1l0,0l0,0l0.1-0.1l0.1-0.1l0,0l0,0v-0.1v-0.1l0,0l0,0v-0.1v-0.1v-0.1V98V98v-0.1v-0.1v-0.1v-0.1
	v-0.1l0,0v-0.1l0,0l0,0v-0.1l0,0l0,0l0,0v-0.1v-0.1v-0.1v-0.1v-0.1V97V97l0,0v-0.1v-0.1l0,0l0,0h-0.1l0,0l0,0l0,0l0,0v-0.1l0,0l0,0
	v-0.1l0,0l0,0l0,0l0,0l0,0l0,0l0,0l-0.1-0.1l0.1-0.1v-0.1h0.1l0,0l0,0l0,0v0.1l0.1,0.1v0.1v0.1l0,0l0,0l0,0l0,0l0,0l0,0l0,0l0,0l0,0
	l0,0l0,0l0,0l0,0l0,0v0.1l0,0l0,0l0,0v0.1l0,0l0,0l0,0V97l0,0l0,0l0,0l0,0l0,0h0.1l0,0l0,0l0,0V97l0,0l0,0v0.1v0.1v0.1v0.1v0.1v0.1
	v0.1v0.1v0.1v0.1v0.1v0.1v0.1l0,0l0,0V98V98v0.1l0,0l0,0v0.1l0,0l0,0l0,0l0,0v0.1l0,0l0,0l0,0l0,0v0.1v0.1h0.1h0.2l0.2-0.1h0.1h0.1
	l0,0l0,0l0,0h0.1h0.1l0,0l0,0l0,0h0.1h0.1l0,0h0.1h0.1h0.1h0.1l0.1-0.1h0.1l0.1-0.1h0.1v-0.1V98v-0.1v-0.1l0,0v-0.1v-0.5l0,0
	l-0.1-0.1h0.1l0,0l-0.1-0.1V97l0,0l0,0h0.1l0.1-0.1l0.1-0.1h0.2l0.1-0.1l0.1-0.1h0.1l0,0l0,0v0.1l-0.1,0.1v0.1h0.1l0,0H191l0,0
	l0.1,0.1l0.1,0.1l0.1,0.1l0.1,0.1h0.1v-0.1h0.1l0,0l0,0v0.1v0.1l0.2,0.1h0.1l0,0l0.1,0.1v0.4h1.1v-1.1h0.2l0.1-0.1h0.1l0.1-0.1l0,0
	l0,0l0.1,0.1l0.1,0.1l0,0v0.7v0.8v0.4l0,0V99l0,0v0.2v0.4v0.2h-0.1h-0.1l-0.1-0.1h-0.1l-0.1-0.1l-0.1-0.1l0,0l0,0l0,0l0,0l0,0l0,0
	l0,0H193h-0.1l0,0l0,0l0,0l0,0l0,0h-0.1l0,0l0,0l0,0l0,0l0,0l0,0h-0.1l0,0l0,0l0,0l0,0l0,0l0,0v0.1v0.1l0,0l0,0l0,0l0,0l0,0h-0.1
	l0,0h-0.1l-0.1,0.1l-0.1,0.1l0,0l0,0v0.1l0,0v0.1l0,0l0,0h0.1l0,0l0,0l0.1,0.1l0.1,0.1h0.1l0,0v0.1l0.1,0.1h0.1h0.1v0.1l0.1,0.1v0.1
	l0,0v0.1l0.1,0.1v0.1l0,0l0,0H193l0,0l0,0l0,0H193l0,0l0,0l0,0l0,0l0,0v0.1l0,0v0.1l0.1,0.1l0.1,0.1v0.1v0.1H193l0,0v0.1v0.1v0.1
	l0.1,0.1l0.1,0.1l0.1,0.1l0.1,0.1l0.1,0.1h0.1h0.1l0,0h0.1l0,0l0,0h0.1l0,0h0.1h0.1l0,0l0,0l0,0l0,0l0.1,0.1l0,0l0,0l0,0l0,0l0,0
	l0,0l0,0l-0.1,0.1v0.1l-0.1,0.1h-0.1l-0.1,0.1l-0.1,0.1l-0.1,0.1l0,0v0.1l0,0l0,0l0,0l0,0h-0.1h-0.1l0,0l0,0l0,0h-0.1v-0.1l0,0l0,0
	h-0.1L193,102v-0.1H193l-0.1-0.1l-0.1-0.1h-0.1l-0.1-0.1l-0.1-0.1v-0.1l-0.1-0.1v-0.1v-0.1v-0.1v-0.1l-0.1-0.1v-0.1l-0.1-0.1
	l-0.1-0.1l-0.1-0.1l-0.1-0.1l-0.1-0.1v-0.1v-0.1l-0.1-0.1h-0.1l-0.1-0.1l0,0h-0.1l-0.1,0.1l0,0l-0.1,0.1v0.1l0,0l-0.1,0.1l-0.1,0.1
	h-0.1h-0.1l-0.1,0.1h-0.1h-0.1h-0.1l-0.1,0.1l0,0v0.1l0.1,0.1v0.1l0.1,0.1l-0.2,0.2v0.1l0.1,0.1l-0.1,0.1l-0.1,0.1l-0.1,0.1
	l-0.1,0.1h-0.1l0.1,0.2l0,0l-0.1,0.1l0,0l0,0l0,0l0,0l-0.1-0.1l-0.1-0.1l-0.1-0.1l0.1-0.1h-0.1l-0.1-0.1h-0.1l-0.1-0.1h-0.1l0,0
	l-0.1,0.1l-0.1,0.1l-0.1,0.1v0.1H190l-0.2,0.3l-0.1,0.1l0,0l0,0l0,0l-0.1-0.1l-0.1-0.1l-0.2-0.1l-0.3-0.3l0.3-0.2l0.1-0.1l0.2-0.2
	l0.3-0.3l0.1-0.1l0.1-0.1l0.3-0.3l0.1-0.1v-0.1l0.1-0.1l0.1-0.1l0.4-0.5l0.3-0.3v-0.1v-0.1L191,99h-0.1h-0.1h-0.1h-0.1h-0.1h-0.1
	l0,0h-0.1h-0.1H190h-0.1h-0.1h-0.1h-0.1h-0.1h-0.1l0,0l0,0h-0.1h-0.1h-0.1h-0.1h-0.1h-0.1h-0.1l-0.1,0.1l-0.1,0.1l-0.1,0.1l-0.1,0.1
	l-0.1,0.1h-0.1l-0.1,0.1l-0.2,0.1l-0.2,0.1l-0.1,0.1l-0.1,0.1l-0.1,0.1l-0.1,0.1l-0.1,0.1l-0.1,0.1l-0.1,0.1l-0.1,0.1l-0.1,0.1
	l-0.1,0.1l-0.1,0.1l-0.1,0.1l-0.1,0.1l-0.1,0.1l-0.3,0.2l-0.1,0.1l-0.1,0.1l-0.1,0.1l-0.1,0.1l-0.1,0.1l-0.1,0.1l-0.1,0.1l-0.1,0.1
	l-0.2,0.1l-0.1,0.1l-0.2,0.1l-0.3,0.2l-0.2,0.1l-0.1,0.1l-0.2,0.1l-0.1,0.1l-0.1,0.1l-0.2,0.1l-0.1,0.1h-0.1h-0.1l0,0l0,0l0,0l0,0
	l0,0v0.1v0.1v0.1v0.1v0.1l-0.1,0.1l-0.1,0.1h-0.1h-0.1l0,0v0.1v0.1v0.1v0.1v0.1v0.1v0.1v0.1v0.1v0.1v0.1v0.1h0.1v0.1l0,0l0,0
	l0.1,0.1v0.1l0.1,0.1l0.1,0.1l0.1,0.1l0.1,0.1l0,0v0.1h0.1h0.1h0.1h0.1h0.1l0.1,0.1l0.1,0.1v0.1v0.1v0.1v0.1v0.1v0.1l0,0v0.1h-0.1
	l0,0l0,0h-0.1v0.1l0,0l0,0l0,0l0,0h0.1l0,0l0,0h0.1l0,0l0.1,0.1l0.1,0.1l0.1,0.1l0.1,0.1l0.1,0.1l0.1,0.1l0.1,0.1l0,0v0.1v0.1v0.1
	v0.1l0.1,0.1l0,0l0,0l0.1,0.1l0.1,0.1l0.1,0.1v0.1v0.1v0.1l0.1,0.1v0.1h0.1v0.1v0.1v0.1v0.1l0.1,0.1l0.1,0.1l0.1,0.1l0.1,0.1
	l0.1,0.1v0.1v0.1v0.1l0.1,0.1l0.1,0.1h0.1l0,0h0.1l0.1,0.1h0.1l0.1,0.1l0.1,0.1l0.1,0.1l0.1,0.1l0.1,0.1l0.1,0.1l0.1,0.1l0.1,0.1
	h0.1l0.1,0.1h0.1h0.1h0.1h0.1h0.1h0.1h0.1h0.1h0.1l0,0l0,0h0.1h0.1l0.1-0.1l0,0l0,0l0,0l0.1,0.1l0,0l-0.1-0.1l0,0V108l0,0l0,0l0,0
	v0.1l0.1,0.1l0,0h0.1l-0.1-0.1l0,0l0,0l0,0l0,0v0.1l0,0l0,0V108l0,0V108v-0.1v-0.1l0,0v-0.1l0.1-0.1v-0.1l0,0l0.1-0.1l0.1-0.1l0,0
	l0.1-0.1v-0.1v-0.1v-0.1v-0.1l0.1-0.1V107v-0.1v-0.1v-0.1l0.1-0.1v-0.1v-0.1v-0.1v-0.1l0.1-0.1l0.1-0.1l0,0l0,0l0,0l0,0l0.1-0.1
	v-0.1v-0.1V106V106v-0.1v-0.1l0.1-0.1l0.1-0.1v-0.1v-0.1v-0.1l0.1-0.1l0.1-0.1l0.1-0.1v-0.1l0.1-0.1l0.1-0.1l0.1-0.1l0,0v-0.1v-0.1
	v-0.1l-0.1-0.1l-0.1-0.1l-0.1-0.1l-0.3-0.3l-0.1-0.1l0.5-0.5l0.3-0.4l0.1-0.1l0,0l0,0l0.1,0.1l0.1,0.1l0.1,0.1l0,0l0.1,0.1l0,0l0,0
	l0,0l0,0l0,0h0.1l0.1,0.1l0.1,0.1l0.1,0.1l0.1,0.1l0,0l0.1-0.1l0,0l0,0h0.1h0.1h0.1v0.1l-0.1,0.1l0,0h0.1h0.1h0.1h0.1h0.1v-0.1v-0.1
	l0,0l0,0h0.1l0,0l0,0l0,0h0.1v0.1v0.1v0.2v0.2v0.1v0.1v0.1l0,0l0,0l0,0h0.1l0,0l0.1,0.1l0.1,0.1v0.1l0.1,0.2l0.1,0.4l0.1,0.2
	l0.1,0.3l0.1,0.2l0.1,0.3l0.1,0.1l0,0l0.2-0.1l0.2-0.1l0.1-0.1l0.1-0.1l0.1-0.1l0.2-0.1l0.2-0.1l0.1-0.1l0.2-0.1l0.1-0.1l0.1-0.1
	h0.1h0.1l0.1-0.1l0.1-0.1h0.1l0.1-0.1l0.1-0.1l0.1-0.1l0.1-0.1l0.1-0.1l0.1-0.1l0.1-0.1l0.1-0.1l0.1-0.1l0.2-0.1l0,0l0.1-0.1v-0.1
	v-0.1v-0.1v-0.1h-0.1l-0.1-0.1h-0.1l-0.4,0.9l-0.1-0.1l-0.1-0.1l-0.3-0.1l-0.2-0.1l-0.3-0.2l-0.2-0.1l-0.3-0.1l0.1-0.1l0.1-0.1v-0.1
	v-0.1h0.1v-0.1V104l0.1-0.1l0.1-0.1l0,0l0,0h0.1l0.1,0.1h0.1l0.1,0.1l0.1,0.1h0.1l0,0l0,0l0.1-0.1l0.1-0.1l0.1-0.1l0,0l0,0l0.1,0.1
	v0.1v0.1v0.1v0.1v0.1v0.1v0.1v0.1l0.1,0.1h0.1l0.1,0.1l0.1,0.1l0.1,0.1l0.1,0.1l0.1,0.1l0.1,0.1l0.1,0.1l0.1,0.1l0.1,0.1l0.1,0.1
	l0.1,0.1h0.1l0.1,0.1h0.1l0.1,0.1l0.1,0.1l0.1,0.1l0.1,0.1l0.1,0.1l0.1,0.1h0.1h0.1h0.1l0,0l0,0h0.1h0.1h0.1h0.1h0.1h0.1h0.1
	l0.1-0.1l0.1-0.1l0.1-0.1l0.1-0.1l0.1-0.1l0.1-0.1l0.1-0.1l0.1-0.1h0.1l0,0l0,0v-0.1v-0.1v-0.1v-0.1l0,0l0,0l0.1-0.1l0,0l0,0l0,0
	h0.1l0,0l0,0v-0.1l0,0v-0.1v-0.1l0,0v-0.1l-0.1-0.1h-0.1h-0.1h-0.1h-0.1l0,0h0h-0.1h-0.1h-0.1l0,0l0,0h-0.1h-0.1h-0.1l0,0v-0.1l0,0
	h-0.1H196l0,0l0,0h-0.1h-0.1h-0.1l-0.1-0.1l-0.1-0.1l-0.1-0.1l-0.1-0.1l-0.1-0.1l-0.1-0.1l-0.1-0.1l-0.1-0.1l-0.1-0.1l-0.1-0.1
	l-0.1-0.1v-0.1l-0.1-0.1l-0.1-0.1v-0.1l0,0l0,0l0,0v0.1l0.1,0.1v0.1l0,0l0.1,0.1l0.1,0.1l0.2,0.1l0.1,0.1l0.2,0.1l0.1,0.1l0.1,0.1
	l0.2,0.1l0.1,0.1l0.1,0.1h0.1h0.1h0.1h0.1h0.1v-0.1l0,0l0.1-0.1l0.1-0.1l0,0l0.1-0.1l0.1-0.1l0,0l0,0l0.1-0.1h0.1l0,0l0,0l0,0l0,0
	l0,0l0,0l0,0l0,0h0.1h0.1h0.1h0.1l0,0l0,0l0,0h0.1h0.1h0.1h0.1h0.1h0.1h0.1l0,0h0.1h0.1h0.1h0.1h0.1l0,0l0,0l0,0l0,0l0.1,0.1
	l0.1,0.1l0.1,0.1l0,0l0,0h0.1l0.1-0.1h0.1h0.1h0.1h0.1h0.1h0.1h0.1h0.1h0.1h0.1h0.1h0.1h0.1h0.1h0.1h0.1l0.1-0.1h0.1l0,0h0.1
	l0.1-0.1l0.1-0.1l0,0v-0.1l0.1-0.1v-0.1l-0.1-0.1l-0.1-0.1l-0.1-0.1l-0.1-0.1l-0.1-0.1l-0.1-0.1l-0.1-0.1l-0.1-0.1l-0.1-0.1
	l-0.2-0.1h-0.1h-0.1h-0.1l-0.1,0.1l0,0H198l0,0l0,0l-0.1-0.1h-0.1l-0.1-0.1l-0.1-0.1l-0.1-0.1l-0.1-0.1l-0.1-0.1l-0.1-0.1l0,0l0,0
	l0,0l0,0l0,0l-0.1-0.1l-0.1-0.1l-0.1-0.1l-0.1-0.1l-0.1-0.1l-0.1-0.1l-0.1-0.1l-0.1-0.1l-0.1-0.1l-0.1-0.1l0,0l0,0l0,0l-0.1-0.1
	v-0.1v-0.1v-0.1v-0.1v-0.1v-0.1v-0.1V101l-0.1-0.1l-0.1-0.2l-0.1-0.1L196,100l-0.1-0.1l-0.1-0.1l-0.1-0.1h-0.1l-0.1-0.1l-0.1-0.1
	h-0.1h-0.1l-0.1,0.1l-0.1,0.1h-0.1l0,0l0,0v-0.1l0.2-0.2v-0.1h-0.1h-0.1h-0.1H195H195l0,0v0.1v0.1l-0.1,0.1l0,0l0,0h-0.1h-0.1
	l-0.1-0.1l-0.2-0.1l-0.1-0.1h-0.1l0,0H194l0,0v-0.1l-0.1-0.1v-0.1v-0.1v-0.3v-0.3v-0.1l0,0v-0.1l0,0v-0.3V98h0.1h0.1l0,0l0,0l0,0
	l0,0l0,0l0,0l0,0l0,0h0.1h0.1l0,0l0,0h0.1h0.1l0,0l0,0h0.4h0.4h0.2h0.1h0.2V98h-0.3l0,0l0.1-0.1l0,0l0,0l0,0l0,0l0.1-0.1l-0.1-0.1
	l-0.1-0.1l-0.1-0.1l-0.3-0.2l-0.2-0.2l-0.2-0.1l-0.1-0.1l-0.1,0.1l0,0l0,0l0,0l0,0h-0.1l0,0h-0.1h-0.1h-0.1h-0.1h-0.1l0,0l0,0H194
	l-0.1-0.1l-0.1-0.1v-0.1l0,0v-0.1l-0.1-0.2l0.1-0.1h0.3l0.1,0.1l0.3,0.1h0.1l0,0l0.1,0.1l0.1,0.1l0.2,0.2l0.1,0.1l0,0l0.1,0.1h0.1
	l0.3,0.2l0.3,0.2l0.1,0.1l0.3,0.1l0.4,0.2l0.1-0.1l0.1-0.1l0,0l-0.1-0.3l-0.1-0.4h-0.1h-0.1h-0.1h-0.1h-0.1h-0.1l-0.1,0.2l-0.1,0.1
	l0,0l0,0l0,0l0.1-0.1l-0.1-0.1l-0.1-0.1l0,0l-0.1-0.1l0.1-0.1l0.1-0.3l0.1-0.3h0.1l0.1-0.1l0.1-0.1l0,0l0.1-0.2l0.1-0.1v-0.1
	l0.1-0.1l0.1-0.3l0.1-0.2l0.1-0.1v-0.1v-0.1l-0.1-0.1h-0.1l-0.1-0.1h-0.1l-0.1-0.1l-0.1-0.1l-0.1-0.1v-0.1h0.1l0.1,0.1l0.1,0.1
	l0.1,0.1l0.1,0.1l0.1,0.1h0.1l0.1-0.1v-0.1l0.1-0.1l0.1-0.2l0.1-0.1l0.1-0.1v-0.1l0.1-0.1l0.1-0.1v-0.1v-0.1l0.1-0.1v-0.2l-0.1-0.1
	l-0.1-0.1v-0.1l-0.1-0.1h-0.2l-0.2,0.1h-0.1l-0.1-0.1h-0.1h-0.1l-0.1-0.1v-0.1v-0.1l0.1-0.3l0.1-0.2l0.1-0.3v-0.1v-0.1v-0.1
	l-0.1-0.1l-0.1-0.1l-0.1-0.1v-0.1v-0.1v-0.1l0.1-0.1v-0.1l-0.1-0.1l-0.1-0.1l-0.1-0.1l-0.1-0.1v-0.1v-0.1h-0.1h-0.1h-0.1h-0.1
	l-0.1-0.1l-0.1-0.1l-0.1-0.1H196l0,0V90h0.1v-0.1l0.1-0.1v-0.1v-0.1h0.1h0.1h0.1h0.1h0.1h0.1l0.1,0.1l0.1,0.1h0.1h0.1l0.1-0.1v-0.1
	l0,0l0,0l0.1,0.1l0.1,0.1h0.1h0.1l0.1,0.1l0.1,0.1l0.1,0.1l0.1,0.1l0.1,0.1l0.1,0.1v0.2l0.1,0.1l0.1,0.1l0.1,0.1v0.1l0.1,0.1
	l0.1,0.1l0.1,0.1v0.1l-0.1,0.1v0.1l0,0l0,0h-0.1h-0.1h-0.1l-0.1-0.1l-0.1-0.1l-0.1-0.1h-0.1l-0.1-0.1h-0.1l-0.1,0.1l-0.1,0.1
	l-0.1,0.1v0.1l-0.1,0.1l-0.1,0.3v0.1l0.1,0.1h0.1l0.3-0.1l0.2,0.1h0.1l0.1-0.1h0.1l-0.1,0.1l-0.1,0.1v0.1l0.1,0.1l0.1,0.2l0.1,0.1
	l0.1,0.1v0.1l-0.1,0.1v0.1v0.1v0.1v0.1v0.1l-0.1,0.1v0.2l-0.1,0.2v0.1h-0.1l0,0l-0.1,0.1l-0.1,0.1l-0.1,0.2l-0.1,0.1l-0.1,0.1
	l-0.1,0.1l-0.1,0.1l-0.1,0.2v0.1l-0.1,0.1v0.1v0.1v0.1l-0.1,0.1V96l0.1,0.1v0.1l0.1,0.2l0.1,0.1h0.1h0.1l0.2,0.1l0.1,0.1l0.2,0.1
	l-0.1,0.3l-0.3-0.1h-0.3v0.1l0,0l0,0v0.1V97V97v0.1v0.1v0.1v0.1l0.1,0.1v0.1l0,0l0,0h0.1l0.1,0.1h0.1h0.1h0.1l0,0h0.1l0.1,0.1h0.1
	h0.1h0.1h0.1h0.1h0.1h0.1h0.1l0.1,0.1h0.1h0.1h0.1h0.1h0.1l0.1,0.1h0.1h0.1l0,0l0.4-0.4l0,0l0.1,0.1l0.1,0.1l0.1-0.1l0,0l-0.1,0.2
	l0,0l0,0v-0.1l0,0l0,0l0,0l0,0v0.1l0,0v0.1v0.1v0.1v0.1v0.1L200,98L200,98h0.1h0.1h0.1h0.1l0,0l0,0l0,0l0,0h0.1l0,0l0,0l0,0v0.1v0.1
	l0,0l0,0l0.1-0.1l0.1-0.1l0.1,0.1l0,0l0,0h0.1h0.1h0.1h0.1l0,0h0.1h0.1l0,0h0.1h0.1h0.1h0.1h0.1h0.1h0.1h0.1h0.1h0.1h0.1h0.1h0.1
	h0.1l0.1,0.1v0.1l0.1,0.1h0.1l0,0v-0.1l0,0h-0.1l0,0l0,0v-0.1l0,0l0,0l0,0l0,0l0,0l0,0l0,0h0.1l0,0v-0.1h-0.1l0,0h-0.1l0,0V98V98
	l0,0l-0.1-0.1v-0.1l-0.1-0.2v-0.1v-0.1l-0.1-0.3l-0.1-0.1h-0.1l-0.1-0.1v-0.1v-0.1l0.1-0.1v-0.1l-0.1-0.1l-0.1-0.1h-0.1l-0.1-0.1
	l-0.1-0.1l-0.1-0.1h-0.1h-0.1l-0.1,0.1l-0.1,0.1l-0.1,0.1h-0.1h-0.3l-0.1-0.1v-0.1l0.1-0.1h0.1l0.1-0.1l0.1-0.1v-0.1l0.1-0.1v-0.1
	l-0.1-0.1V96v-0.1v-0.1v-0.1v-0.1v-0.1v-0.1v-0.1l0.1-0.2l0.1-0.3l0.1-0.1v-0.1l0.1-0.1v-0.1h0.1l-0.1,0.1l0,0l-0.2,0.3l-0.1,0.3
	v0.1v0.2v0.1v0.1l0.1,0.1l0.1,0.1l0.1,0.1h0.1h0.1h0.1h0.1h0.1h0.1h0.1l0.1,0.1h0.1l0,0l0,0l0.1,0.1l0.1,0.1l0.1,0.1v0.1v0.1
	l0.1,0.1l0.1,0.1v0.1l0.1,0.1l0.1,0.1v0.1l0.1,0.1l0,0V97V97v0.1l0,0l0.1,0.1v0.1v0.1v0.1v0.1v0.1h0.1l0.1,0.1v0.1h-0.1l0,0l0,0
	l0.1,0.1v0.1l0.1,0.1L202,98l0.1,0.1h0.1l0.1,0.1l0.1,0.1l0.1,0.1l0.1,0.1l0.1,0.1l0.1,0.1l0.1,0.1L203,99V99v0.1l-0.1,0.1l-0.1,0.1
	v0.1l-0.1,0.1l0,0l-0.2,0.3l2.1,1.3l-0.6,1l-2.3-1.4l-0.7,0.1l-0.5,0.9l3.8,2.2l1.4-2.4l0.4,0.3l-0.1,0.1l-0.3-0.2l-0.1,0.1l2.8,1.7
	l0.1-0.3l0.1-0.1l0.2,0.1l-0.1,0.3v0.1l0.2-0.3l0,0v0.1l-0.1,0.1l0.1,0.1l0.1,0.1h0.1l0.1-0.1h0.1l0.1,0.1v0.1l-0.1,0.1v0.1l0.1,0.1
	h0.1h0.1l0.1,0.1h0.1l0.1,0.1l0.1,0.1l0.2,0.1l-0.1,0.1l0.1,0.1l0.1,0.1l0.2,0.2l0.3,0.3v0.1h0.1v-0.1v-0.1l0.2-0.2v-0.1l0.1-0.1
	l-0.1-0.1l-0.1-0.1l-0.3-0.3l-0.1-0.1l-0.1-0.1v-0.2l0.1-0.3h0.1v0.2v0.1v0.1l0.1,0.1l0.1,0.1l0.1,0.1l0.1,0.1h0.1v0.1h0.1l0.1,0.1
	l0.1,0.1l0.1,0.1h0.1h0.1h0.1l0.1-0.1l0.1-0.1l0.1-0.1v-0.1h0.1v-0.1h0.1h0.1l0.1,0.1h0.1h0.1h0.1l0.1-0.1v0.1l-0.1,0.1l0,0l0.1-0.1
	l0,0l-0.1,0.1l0,0l0.1-0.1l0,0v0.1l0.3,0.3h0.1v-0.1h0.1l0.1,0.1l0.3,0.1v-0.1l0,0h0.1v0.1l0,0v0.1h-0.3v0.1h0.3v-0.2h0.7v0.5
	l0.1-0.1l0.1,0.1l0.1,0.1l0.1,0.1l0.1,0.1l0.1,0.1h0.1l0.1,0.1l0.1,0.1h0.3l0.1-0.3h0.1v0.1l0.1,0.1v0.1h-0.1v0.1l0.9,0.2v-0.1
	l0.6-0.3v0.1l0.5-0.3l-1.1-0.9l-0.1-0.1h-1.1l-0.9,0.8l-0.1-0.1v-0.4l1.5-0.8h1.3l1.2,1.1l0.2-0.1l-0.5-0.6l0.3-0.2l1,1.1l0.1-0.1
	l-0.3-0.3l0.1-0.1h0.1v-0.1v-0.1v-1.6h0.1v-0.1l-0.3-0.1v-0.1l0.1-0.1l0.3,0.1l0.2,0.1l0.2,0.1l0.3,0.1l-0.1,0.2l0.1,0.1l0.1,0.1
	l0.1,0.1l0.2,0.1l0.2,0.1h0.2l0.1-0.1l0.2-0.1l0.4-0.3l0.6-0.5l0.5-0.4l0.1-0.1v-0.1v-0.1l-0.1-0.2l-0.1-0.2l-0.1-0.2l-0.1-0.1
	l-0.1-0.1l-0.1-0.1l-0.3-0.2l-0.2-0.1l-0.3-0.1l-0.3-0.1l-0.3-0.1l-0.1-0.1h-0.1l-0.1,0.1v0.1l0.1,0.1l0.1,0.1l-0.6,0.9l-0.3-0.1
	l0,0v-0.1V101v-0.1h-0.2l-0.1,0.1l-0.1-0.1v-0.1h0.1v-0.1h-0.1v0.1h-0.1v-0.1h0.1v-0.1h0.1v-0.1h-0.1h-0.1v-0.1l0.1-0.1v0.2v-0.1
	l-0.1-0.1h-0.1l-0.1,0.1l-0.1,0.1l-0.1,0.1l-0.1-0.1l-0.1-0.1l-0.1-0.1v-0.1v-0.1l-0.1-0.1l-0.1-0.1l-0.1-0.1h-0.1l-0.1,0.1L218,100
	V100l0.1-0.1l0.3-0.1h0.1l0.1,0.1l0.1,0.1l0.1,0.1l0.1,0.1l0.1,0.2l0.1,0.1h0.1l0.1-0.1l0.1-0.3h0.1h0.6l0,0L220,100v-0.1l0.3,0.3
	v0.1l0.4,0.1h0.6l0.1-0.1l0.1-0.2l-0.1-0.3v-0.1l-0.1-0.3l-0.1-0.4l-0.1-0.2v-0.2l0.1-0.3l0.3-0.2l0.2-0.1l0.1-0.1l0,0l-0.1-0.1
	v-0.1v-0.1l0.1-0.1h0.1v-0.1v-0.1l-0.1,0.1l-0.1-0.1l-0.1-0.1v-0.1l-0.1-0.1l-0.1-0.1l-0.1-0.1v-0.1v-0.1h-0.1l0.1-0.1l0.1,0.1v0.2
	l0.1,0.1h0.1l0.1,0.1l0.1-0.1l0.1-0.1l0.1-0.1v-0.1h0.1l0.1-0.1l0.1-0.1v-0.2v-0.1v-0.2l-0.1-0.2l-0.1-0.1l-0.1-0.1v-0.1l0.1-0.2
	l0.1-0.2v-0.1l0.1,0.1l0.1-0.1l0.1,0.1l-0.1,0.1v0.2l-0.1,0.1v0.2l0.2,0.1l0.1,0.2v0.1v0.1l0.1,0.1v0.2l-0.1,0.1l-0.1,0.1h-0.1
	l-0.1,0.1l0.1,0.3h0.3l0.1,0.1l0.1,0.3l-0.1,0.1l-0.1,0.1v0.1l0.1,0.1l0.1,0.1l0.1,0.1l0.2,0.1h0.1h0.1h0.1l0.3-0.1l0.3-0.3l0.2-0.3
	l0.1,0.1l0.1,0.1l-0.2,0.3L224,98l-0.2,0.2l-0.3,0.1h-0.3l-0.3-0.1h-0.2l-0.1-0.1h-0.1v0.1h0.1v0.1l-0.2,0.1l-0.5,0.1l-0.1-0.1h-0.1
	h-0.1l-0.1,0.1v0.2l0.1,0.2l0.1,0.1l0.1,0.1l0.1,0.5l0.1,0.3l0.2,0.3l0.2,0.3l0.2,0.3l0.3,0.3l0.3,0.3l0.1,0.1h0.1l0.1-0.1l0.2-0.2
	l0.2-0.2l0.3-0.1h0.1l0.2-0.2l0.5-0.4h0.2l0.3-0.3l0.4-0.3h0.2l0.1-0.1l0.4-0.3l0.1-0.1h0.2l0.2-0.1l0.2-0.1h0.1l0.1-0.1l0.1-0.1
	h0.1l0.4-0.1l0.4-0.1l0.5-0.2l0.7-0.2l0.5-0.1l0.2-0.1l0.2-0.1l0.1,0.1l0.1-0.1l0.2-0.1h0.1l0.1-0.1l0.4-0.1l0.1-0.1h0.2l0.2-0.1
	l0.1-0.1h0.1l0.1-0.1l0.2-0.1l0.1,0.1l0.1-0.1h0.1l0.1,0.1l0.1-0.1l0.3-0.1h0.1h0.1l0.1-0.1l0.2-0.1v-0.1h-0.1v-0.1l0.1-0.1l0.1-0.1
	h0.2l0.1,0.1v0.1l-0.1,0.1h-0.1v0.1h0.1L234,97h0.1l0.3-0.1l0.2-0.1h0.1l0.1-0.1l0.3-0.1h0.1l0.2-0.1l0.1-0.1l0.1-0.1h0.2h0.1
	l0.3-0.1l0.2-0.1h0.3l0.2-0.1h0.1l0.1-0.1h0.2h0.1l0.1-0.1l0.1,0.1h0.1v-0.1l0.1-0.1l0.2-0.1l0.1,0.1h0.1l0.2-0.2h0.1l0.1,0.1
	l0.3-0.1l0.1-0.1h0.1l0.1-0.1v-0.1l0.1-0.1h0.1h0.1v-0.1l-0.5-1.2l-1.2-1l-0.3-0.5h0.1l0.3,0.5l1.1,1l0.6,1.2h0.1l0.4-0.2l0.3,0.1
	l0.3-0.1h0.5l0.1,0.1h0.1h0.1l0.1-0.1l0.1,0.1l0.1-0.1v-1.5l0.1-0.1l0.1,1.7l0,0l0.1,0.1l0.1,0.1l0.5-0.1l0.5-0.1h0.3l0.2,0.1
	l0.1,0.3v0.1v0.2l-0.1,0.2l1.3-0.3l1.4,0.5l0.3,0.2h0.3l0.5-0.1l0.3-0.2l0.5-0.3l0.2-0.2l0.5-0.1l1.7-0.1l0.1,0.1v0.9h0.8V96h-0.7
	l-0.1-1.6h0.2h0.5h0.4v0.8l0.7-0.1l0.1-0.3l-0.1-0.1v-1.3h-1.1l-1.6,0.1l0.6-1.3l0.3-0.7l0.1,0.1l0.3,0.1l0.4,0.2l0.3,0.1l0.1,0.1
	l0.1-0.1l-0.1-0.1l-0.2-0.1l-0.2-0.1l-0.2-0.1l-0.3-0.1l-0.2-0.1V91h0.1l0.3-0.4l0.3-0.5l0.1-0.5l0.1-0.2l0.2,0.1l0.2,0.1l0.1,0.1
	h0.1v-0.1l-0.1-0.1l-0.2-0.1l-0.2-0.1l0.3-0.3l0.1,0.1l0.4,0.2l0.2,0.1l0.1,0.1l0.1,0.1l0.1-0.1l0.1-0.2l0.1-0.2l-0.1-0.1l-0.2-0.1
	l-0.2-0.1l-0.3-0.1l-0.2-0.1l-0.1-0.1l0.1-0.3l0.2-0.3l0.2-0.3l0.1-0.1l0.1,0.1l0.2,0.1l0.3,0.2l0.3,0.1l0.5,0.3l0.2,0.1v-0.1
	l-0.3-0.2L253.5,87.7z M191,98.2h0.1h0.5l0.1-0.1v-0.2l0.1-0.1v-0.1v-0.2h-0.1h-0.1h-0.1l-0.2-0.1l-0.1-0.1l-0.1-0.1l-0.1-0.1
	l-0.1-0.1H191h-0.1l-0.1-0.1l-0.1-0.1h-0.1h-0.1h-0.1h-0.1h-0.1V97v0.1v0.1v0.1h0.1h0.1l0,0v0.1h-0.1h-0.1h-0.1v0.1v0.2v0.3V98
	l0.1,0.1v0.1H191z M202.2,110.8L202.2,110.8l0.1-0.1l0.1-0.1v-0.2l-0.1-0.1v-0.1l-0.1-0.3l-0.1-0.1l-0.1-0.1H202l-0.1,0.1l-0.1,0.1
	v0.1h-0.1v-0.1v-0.1l-0.1,0.1v0.1v0.1l-0.1,0.1v0.1v0.1l-0.1,0.1l-0.1,0.1l0.1,0.1h0.1l0.1,0.1l0.1,0.1l0.1,0.1l0.1,0.1l0.1,0.1v0.1
	l0.1,0.1h0.1h0.1L202.2,110.8L202.2,110.8L202.2,110.8z M220.8,112.5L220.8,112.5l-0.1-0.1l-0.1-0.1l-0.1-0.1l-0.2-0.2l-0.1-0.1
	v-0.1l0,0h-0.1h-0.1l-0.1-0.1l-0.1-0.1l-0.1-0.1v-0.1h-0.1h-0.1h-0.1h-0.1h-0.1h-0.1v0.1l0.1,0.1l0.1,0.1v0.1v0.1l0.1,0.1v0.1v0.1
	v0.1l0.1,0.1l0.1,0.1h0.1l0.1,0.1l0.1,0.1l0.2,0.1l0.1,0.1v0.1l0.1,0.1l0.1,0.1l0.1,0.1v0.1v0.1h0.1l0.1-0.1V113h-0.1h-0.1l-0.1-0.1
	v-0.1l0.1-0.1l0.1-0.1h0.1l0.1,0.1h0.1L220.8,112.5L220.8,112.5z M181.4,96.6L181.4,96.6l-0.1,0.1v0.1l0.1-0.1V96.6h0.1l0.1-0.1
	l0.1-0.1h-0.1v-0.1l-0.1-0.1h-0.1l-0.1,0.1v0.1l0,0V96.6z M182.4,97.2L182.4,97.2L182.4,97.2l-0.1,0.1l-0.1,0.1l0,0l0,0h0.1
	L182.4,97.2L182.4,97.2L182.4,97.2L182.4,97.2L182.4,97.2z M261.9,77.4l-0.2-0.3V77l-0.2-0.2l-0.1-0.2l-0.1-0.1l-0.3-0.3h-0.1
	l-0.2-0.2l-0.2-0.2l-0.4-0.3h-0.1l-0.1-0.1l-0.2-0.1l-0.3-0.1h-0.1l-0.1-0.1l-0.3-0.1l-0.5-0.2l-0.3-0.1l-0.3-0.2h-0.1h-0.2
	l-0.3-0.2H257l-0.3,0.1l-0.1,0.3l-0.1,0.1l-0.5,0.1H256h-0.3l-0.2-0.2h-0.6l-0.1-0.2v-0.1l-0.4-0.1l-0.1,0.1l0.1,0.3l-0.1,0.1
	L254,75l-0.3,0.3l-0.1,0.1l-0.2,0.1l-0.2,0.1l-0.1-0.1l-0.5,0.1h-0.1h-0.1l-0.1-0.2h-0.2l-0.3,0.3v0.1l0.1,0.1v0.2l0.1,0.3l0.1,0.3
	L252,77l0.1,0.3v0.2l-0.1,0.1l-0.1,0.3l-0.2,0.3l-0.2,0.3l-0.1,0.3l0.1,0.2v0.1l0.2,0.1l0.3,0.3l0.3,0.1l0.2,0.1l0.1,0.1l0.1,0.1
	l0.3,0.2l0.1,0.3l0.1,0.5l0.3,0.1h0.2l0.1,0.1l0.1,0.1h0.1h0.1l0.1,0.1h0.1l0.1,0.1h0.2h0.1l0.1-0.1h0.1l0.1-0.1l0,0l0.1-0.1
	l0.1-0.1h0.1l0.1-0.1h0.1l0.1-0.1l0.1-0.1l0.1-0.1h0.2h0.2l0.2,0.1h0.1l0.2-0.1l0.1-0.1l0.1-0.1h0.1v0.1l-0.1,0.1l-0.1,0.1l-0.1,0.1
	l-0.2,0.1h-0.1l-0.2-0.1h-0.2l-0.2-0.1l-0.1,0.1l-0.1,0.1l-0.1,0.1h-0.1l-0.1,0.1h-0.1l-0.1,0.1l-0.1,0.1l-0.1,0.1h-0.1l-0.1,0.1
	H255h-0.2l-0.1-0.1h-0.1l-0.1-0.1h-0.1l-0.1-0.1L254,81l-0.1-0.1h-0.3l0.2,0.1l0.1,0.1l0.1,0.1l0.1,0.2l0.2,0.2l0.1,0.3l0.1,0.1
	l0.1,0.1l0.1,0.1l0.1,0.2l0.2,0.3h0.1l0.1,0.2V83l0.1,0.1v0.1v0.1V84l0.2,0.1h0.1l0.1,0.1h0.1l0.2-0.1l0.2-0.1l0.2-0.1l0.2-0.1
	l0.2-0.1l0.3-0.1l0.7-0.3l0.5-0.1l0.3-0.2l0.3-0.1l0.2-0.1l0.3-0.1l0.3-0.1l0.4-0.1l0.7-0.3l0.1-0.1l0.1-0.5l0.1-0.3v-0.2l0.2-0.1
	v-0.1l0.1-0.1v-0.1v-0.2l0.1-0.2v-0.1l0.1-0.1l0.1-0.2l-0.1-0.1l0.1-0.1v-0.1l0.1-0.3v-0.1l0.1-0.1l-0.1-0.1l-0.1-0.1l0,0l-0.1,0.1
	l-0.1,0.1l-0.1,0.1h-0.1h-0.2h-0.1l-0.1,0.1l-0.1,0.1h-0.1h-0.1l-0.1,0.1h-0.1l-0.1,0.1h-0.1l-0.1,0.1H260l-0.1,0.1h-0.1l-0.1,0.1
	l-0.1,0.2l-0.1,0.1l-0.1,0.1h-0.1v0.1h-0.1h-0.3h-0.1l-0.1,0.1l-0.1-0.1l0,0v-0.1l0.1-0.1h0.1h0.3h0.1v-0.1h0.1l0.1-0.1l0.1-0.1
	l0.1-0.2l0.1-0.1h0.1l0.1-0.1h0.1l0.1-0.1h0.1l0.1-0.1h0.1l0.1-0.1h0.1h0.1l0.1-0.1l0.1-0.1h0.1h0.2h0.1l0.1-0.1l0.1-0.1l0.1-0.1
	h0.1h0.1l0.1-0.1l0.3-0.3v-0.3L261.9,77.4z M182,97L182,97L182,97l0.1-0.1v-0.1l0,0H182h-0.1h-0.1l-0.1-0.1h-0.1h-0.1l-0.1,0.1v0.1
	l0.1,0.1V97l-0.1,0.1v0.1h0.1l0.1,0.1l0.1,0.1h0.1l0.1-0.1v-0.1L182,97L182,97z M219.3,111.1h0.1v-0.1l0.1-0.1l0.1-0.1l0.1-0.1h0.1
	h0.1l0.1,0.1l0.1,0.1h0.1h0.1l0.1-0.1l0.1-0.1v-0.1l-0.1-0.1h-0.1h-0.1v0.1l-0.1,0.1l-0.1,0.1l-0.1,0.1h-0.1l-0.1-0.1h-0.1l-0.1,0.1
	l-0.1,0.1l-0.1,0.1h-0.1H219v0.1v0.1l0,0l0.1,0.1L219.3,111.1z M206.5,114.9v-0.1v-0.2l-0.1-0.2l-0.2-0.2h-0.5l-0.3,0.1h-0.1
	l-0.1,0.1l-0.1,0.1l-0.2,0.1l-0.1,0.1l-0.1,0.1h-0.1h-0.1l-0.1-0.1h-0.1l0,0l0,0l-0.1-0.1h-0.1l-0.3-0.1l-0.2-0.1l-0.3,0.1v0.1H203
	l-0.1-0.1v-0.6l-0.2-0.1l-0.2-0.5l-0.1-0.2l-0.1,0.1v0.5v0.1l0.1,0.3l-0.1,0.4l-0.1,0.2l-0.1,0.6l0.1,0.2v0.4l0.1,0.2h0.2l0.1-0.1
	l0.3-0.1v-0.1l0.1-0.1l0.1,0.1l0.1,0.3l-0.1,0.3l-0.1,0.2l-0.3,0.4l-0.1,0.1v0.1v0.1l0.1,0.1l0.1,0.1l0.1,0.1l0.1,0.1l0.1,0.1
	l0.1,0.1l0.1,0.1l0.3,0.3l0.1,0.1l0.1,0.1l0.1,0.1h0.2h0.1l0.1-0.1l0.1-0.1l0.1-0.1l0.1-0.1l0.1-0.1l0.1-0.1l0.1-0.1l0.1-0.1
	l0.1-0.1v-0.1v-0.3v-0.1v-0.1l0.2-0.1l0.2-0.1l0.2-0.1l0.1-0.1l0.1-0.1l0.1-0.1l0.1-0.1l0.1-0.1v-0.1v-0.1v-0.2v-0.2v-0.3
	L206.5,114.9z M210.2,115.9l-0.1-0.1l-0.1-0.1l-0.1-0.1l-0.1-0.1l-0.1-0.1l-0.1-0.1l-0.1-0.1v-0.1l-0.1-0.1l-0.1-0.1l-0.1-0.1
	l-0.1-0.1l-0.1-0.1l-0.1-0.1H209l-0.1-0.1l-0.1-0.1v-0.1v-0.1l-0.1-0.1l-0.1-0.1l-0.1-0.1l-0.1-0.1l-0.1-0.1v0.1v0.1v0.1v0.1v0.1
	v0.1v0.1v0.1v0.1v0.1v0.1v0.1v0.1l0.1,0.1l0.1,0.1l0.1,0.1l0.1,0.1v0.1h0.1l0.1,0.1h0.1l0.1,0.1l0.1,0.1h0.1l0.1,0.1h0.1h0.1l0,0
	l0.1,0.1l0.1,0.1l0.1,0.1h0.1l0.1,0.1h0.1h0.1h0.1h0.1L210.2,115.9L210.2,115.9L210.2,115.9L210.2,115.9l0.1-0.1L210.2,115.9z
	 M207.4,113.2l-0.1,0.1v0.1v0.1l0.1,0.1h0.2l0.1-0.1v-0.1l-0.1-0.1L207.4,113.2z M219.3,113.6L219.3,113.6l-0.1-0.1v-0.1l0.1-0.1
	l0.1-0.1v-0.1l-0.1-0.1h-0.1l-0.1-0.1l-0.1-0.2v-0.1h0.1h0.1h0.1v-0.1l-0.1-0.1l-0.1-0.1v0.1l-0.1,0.1H219l-0.1-0.1h-0.1v-0.1v-0.1
	l-0.1-0.1h-0.1v0.1l0,0h-0.1l-0.1-0.1h-0.1l-0.1-0.1v-0.1h0.1v-0.1h-0.1h-0.1l-0.1,0.1H218l-0.1,0.1h-0.1l-0.1,0.1v0.1v0.1l0.1,0.1
	l0.1,0.1l0.1,0.1l0.1,0.1l0.1,0.1l0.1,0.1l0.1,0.1l0.1,0.1l0.1,0.1l0.2,0.1l0.1,0.1l0.1,0.1l0.1,0.1l0.1,0.1h0.1l0.1,0.1l0.1,0.1
	v0.1h0.1l0.1-0.1V114L219.3,113.6z M202.6,109.5L202.6,109.5v0.1v0.1v0.1v0.1v0.1v0.1v0.1l0.1,0.1l0,0h0.1h0.1l0.1,0.1h0.1h0.1
	l0.1,0.1v0.1h0.1h0.1h0.1h0.1h0.1h0.1h0.1h0.1h0.1h0.1h0.1h0.1h0.1h0.1h0.1l0.1,0.1h0.1l0.1,0.1l0.1,0.1l0,0l0.1,0.1l0,0l0.1,0.1
	l0.1,0.1h0.1v0.1v0.1v0.1v0.1l0.1,0.1v0.1v0.1v0.1h0.1h0.1h0.1h0.1h0.1h0.1h0.1h0.2h0.1h0.1h0.1h0.1h0.1h0.1v-0.1v-0.1l-0.1-0.1
	v-0.1l-0.1-0.1l-0.1-0.1l-0.1-0.1l-0.1-0.1h-0.1h-0.1l0.1-0.1l0,0l0,0v-0.1v-0.1l0,0v-0.1l-0.1-0.1l-0.1-0.1l0,0h-0.1l-0.1-0.1
	l-0.1-0.1l-0.1-0.1v-0.1h-0.1l0,0l-0.1-0.1v-0.1l0,0l-0.1-0.1h-0.1h-0.1l-0.1-0.1l-0.1-0.1l-0.1,0.1l-0.2-0.1v-0.1l-0.1-0.1
	l-0.1-0.1h-0.1l-0.1-0.1l-0.1-0.1l-0.1-0.1l-0.1-0.1l-0.1-0.1l-0.1-0.1l-0.1-0.1h-0.1l-0.1-0.1l-0.1-0.1l0,0l-0.1-0.1l-0.1-0.1h-0.1
	h-0.1l-0.1-0.1l-0.1-0.1H203h-0.1l-0.3,0.1h-0.2v0.1l-0.1,0.1v0.1v0.1v0.1L202.6,109.5z M202.4,111.2v0.1l0.1,0.1v0.1l0.1,0.1
	l0.1,0.1h0.1h0.3h0.1h0.2h0.1l0.1,0.1h0.1h0.1h0.1h0.1h0.1h0.1h0.1h0.1l0.1-0.1l0.1-0.1l0.1-0.1l0.1-0.1v-0.1l0.1-0.1l0.1-0.1
	l-0.1-0.1l-0.1-0.1l-0.1-0.1l-0.1-0.1l-0.2-0.1l-0.1-0.1h-0.1h-0.2l-0.1,0.1h-0.1h-0.3l-0.1-0.1l-0.1-0.1h-0.1l-0.2-0.1l0,0
	l-0.1,0.1l-0.1,0.1v0.1l-0.1,0.1L202.4,111.2z M217.1,110.8L217.1,110.8l-0.2-0.1l-0.1-0.1l-0.1-0.1v-0.1l-0.1-0.1l-0.1-0.1
	l-0.1-0.1h-0.1l0,0v0.1l0,0l0.1,0.1v0.1v0.1l0.1,0.1h0.1l0.1,0.1v0.1v0.1v0.1v0.1l0.1,0.1l0.1,0.1l0.1,0.1h0.1v-0.1L217.1,110.8
	L217.1,110.8z M218,108l0.1-0.1l0.1-0.1l0.1-0.3l0.1-0.1l0.1-0.2l0.1-0.1l0.1-0.1l0.1-0.1l-0.1-0.1l-0.2-0.1l-0.1-0.1h-0.1l-0.1,0.1
	l-0.1,0.1h-0.3l-0.1,0.1v0.2l-0.1,0.1l-0.1,0.1h-0.1v-0.1h0.1V107l0.1-0.1l0.1-0.2v-0.1v-0.1h-0.1h-0.2l-0.2-0.1h-0.2l-0.1,0.1h-0.1
	h-0.3l-0.1-0.1l-0.2-0.1l-0.1-0.1h-0.3h-0.4h-0.2h-0.2l-0.2-0.1l-0.2-0.1l-0.1-0.1l-0.1-0.1h-0.1l-0.1-0.1l-0.1-0.1h-0.1l-0.1-0.1
	l-0.1-0.1l-0.1-0.1l-0.1-0.1l-0.1-0.1l-0.1-0.1l-0.1,0.1l-0.1,0.1l-0.1,0.1h-0.1h-0.1l-0.1-0.1h-0.1h-0.2H212l-0.3-0.1l-0.2-0.1
	h-0.2l-0.1,0.1v0.1l0.1,0.1l0.1,0.1l0.1,0.1v0.1l0.1,0.1l0.1,0.1h0.1V106l0.1-0.1h0.1h0.1l0.1,0.1l0.1,0.1l0.1,0.1l0.1,0.1l0.1,0.1
	l0.1,0.1l0.1,0.1l0.1,0.1l0.1,0.1l0.1,0.1l0.1,0.1v0.1v0.1h-0.1l0,0v0.1l0.1,0.1l0.1,0.1l0.1,0.1l0.1,0.1l0.1,0.1h0.1l0,0v-0.1h-0.1
	l-0.1-0.1v-0.1v-0.1h0.1h0.1l0.1,0.1l0.1,0.1l0.1,0.1l0.1,0.1l0.1,0.1h0.1l0.1,0.1l0.1,0.1l0.1,0.1v0.1L214,108h-0.1l-0.1-0.1h-0.1
	l0.1,0.1l0.1,0.1l0.1,0.1l0.1,0.1l0.1,0.1l0.1,0.1h0.1l0,0l-0.1-0.1v-0.1v-0.1h0.1h0.1l0.1,0.1l0.1,0.1l0.1,0.1l0.1,0.1l0.1,0.1v0.1
	l-0.1,0.1l0,0h0.1l0,0l0.1,0.1l0.1,0.1h0.1l0.1,0.1l0.1,0.1l0.1,0.1h0.1l0.1-0.1l0.1-0.1l0.1-0.1h0.1h0.1l0.1-0.1h0.1v0.1v0.1l0,0
	l0.1-0.1l0.1-0.1l0.1-0.1l0.1-0.1l0.1-0.1l0.1-0.1v-0.1h-0.1h-0.1h-0.1l-0.1-0.1v-0.1v-0.1V108l-0.1-0.3v-0.1l0.1-0.1l0.1-0.1h0.1
	l0.1,0.1v0.1l-0.1,0.1v0.1l0.1,0.1v0.1v0.1v0.2v0.1l0.1-0.1l0.1-0.1l0.1-0.1L218,108z M216.4,113.4L216.4,113.4L216.4,113.4
	l-0.1,0.1h0.1h0.1v0.1l-0.1,0.1v0.1v0.1h-0.1l0,0v0.1v0.1h0.1v-0.1l0.1-0.1v-0.1l0.1-0.1l0.1-0.1v-0.1l-0.1-0.1H216.4z M216,113.4
	L216,113.4L216,113.4l-0.1-0.1v-0.1l0.1-0.1h0.1l0,0l-0.1-0.1h-0.1l0,0l0,0l0,0l-0.1,0.1h-0.1v0.1v0.1h0.1l0.1,0.1H216L216,113.4
	L216,113.4L216,113.4L216,113.4L216,113.4z"/>
<polygon class="st10" points="173.4,186.2 172.7,185.6 172.1,185.4 173.1,181 172.9,175.3 171.4,169.8 168.9,166.1 168,164.6 
	166.5,162.1 165.5,159.7 165.3,158.6 157.7,155.6 155.9,156 153.6,157.2 151.7,155.9 149.2,152.3 147.3,150.9 145.6,150.3 
	140.8,150.1 139.1,156.8 137.8,158.6 139,158.7 140.8,159.4 141.8,159.6 141.1,161.1 138.6,162.9 137.8,164 137.8,165.4 
	138.4,166.3 139.3,167 139.9,168.2 140,172 140.4,173.9 141.4,174.7 142.2,175.2 143.1,176.5 143.7,178.1 144,179.6 144.6,180.9 
	148.1,184.3 148.6,185.7 148.9,188.6 149.2,189.7 151.3,194.3 152,197.1 152.3,201 152.7,202.8 154.6,205.1 155.4,206.8 
	155.3,207.5 155.4,212.1 154.9,215.9 155.2,217.1 156.9,217.6 158.8,217.1 159.5,215.9 160,214.8 162.1,213.9 162.9,211.8 
	163.7,211.1 164.6,210.9 165.9,211.2 167.5,211 168.1,211.1 168.8,210.9 169.9,210 173,204.6 173.5,198.4 173.2,192.2 174.1,186.5 
	"/>
<path vector-effect="non-scaling-stroke" class="st6" d="M70.4,279.8l-27.9,2.3l3.9-36.9l30.8-30l11,27.7L70.4,279.8z"/>
</svg>
