<?xml version="1.0" encoding="utf-8"?>
<!-- Generator: Adobe Illustrator 23.0.1, SVG Export Plug-In . SVG Version: 6.00 Build 0)  -->
<svg version="1.1" id="Layer_1" xmlns="http://www.w3.org/2000/svg" xmlns:xlink="http://www.w3.org/1999/xlink" x="0px" y="0px"
	 viewBox="0 0 300 300" style="enable-background:new 0 0 300 300;" xml:space="preserve">
<style type="text/css">
	
		.st0{fill-rule:evenodd;clip-rule:evenodd;fill:#FCD4C7;stroke:#999999;stroke-width:0.25;stroke-linecap:round;stroke-linejoin:round;}
	
		.st1{fill-rule:evenodd;clip-rule:evenodd;fill:#FFE3CA;stroke:#999999;stroke-width:0.25;stroke-linecap:round;stroke-linejoin:round;}
	.st2{font-family:'GoodlifeBrush';}
	.st3{font-size:12px;}
	.st4{fill:none;}
	.st5{opacity:0.8;}
	.st6{fill:#C77885;}
	.st7{opacity:0.8;fill:#C77885;}
	.st8{opacity:0.6;fill:#C77885;}
	.st9{opacity:0.4;fill:#C77885;}
	.st10{opacity:0.2;fill:#C77885;}
</style>
<path class="st0" d="M368.8-35.9l-0.3,0.2l-0.6,0.2l-0.2,0.2l0.2,0l0.9,0.5l0.2,0l0.3-0.1l0.1-0.1l0.1-0.2l0.4-0.2l-0.3-0.3
	L368.8-35.9z M356.3-49.2l0.4-0.2l0.4-0.3l0.5-0.3l0.2-0.2l-0.5,0l-0.2-0.1l-0.5-0.5l-0.6,0l-0.5,0.2l0,0.7l0.3,0.5l0.2,0
	L356.3-49.2z M349.6-54.3l0.4-0.2l0.3-0.4l0.1-0.2l0.1-0.2l0.5-0.1l0.5-0.1l0.3-0.5l-0.3,0l-0.1-0.1l0.1-0.5l-0.1-0.4l0.2,0.1
	l0.2,0.1l0.2,0.3l0.2,0.1l0.1-0.3l-0.1-0.3l-0.1-0.4l-0.2-0.2l-0.7-0.1l-0.3,0.1l-0.3,0.1l0-0.2l0.5-0.2l0.3-0.2l0-0.3l-0.6-0.5
	l-0.4-0.6l-0.1-0.6l-0.4-0.4l-0.5,0l-0.6-0.1l-0.4,0l-1,0.3l-0.6,0.1l-0.3,0l-0.3,0l-0.4,0.6l-0.3,0.2l-0.3,0l-0.1-0.2l-0.7,0.4
	l-0.1,0.1L344-59l0,0.2l-0.3,0.3l-0.2,0.3l-0.3,0.1l-0.4,0.1l-0.2,0.1l-0.3,0l-0.3,0l-0.2,0.1l0,0.1l0.1,0.1l0.3,0.1l0.3,0.1l0,0.1
	l-0.2,0.1l-1.1,0.3l-0.3,0.2l-0.1,0.1l0.1,0.2l0.8,0.7l0.1,0.1l0.1,0.4l0.7,0.2l0.3,0.2l0.3,0.1l0.6,0l0.2,0.1l0.1-0.1l0.1-0.1
	l0.5-0.3l0.2-0.1l-0.1-0.2l-0.1-0.1l0.3-0.3l0.4-0.3l0.2,0l0.3,0.2l0.2,0.3l0,0.2l0,0.1l0.2,0.3l0.1,0.1l0.4,0.1l0.1,0.1l-0.1,0.4
	l0,0.1l0.4,0l0.5,0l0.2,0l0.2-0.1l0.3-0.1l0.4,0l0.4,0.2L349.6-54.3z M353.9-62l0.5,0l0.1-0.3l0-0.4l-0.2-0.5l-0.1-0.1l-0.3-0.1
	l-0.3,0l-0.1,0.1l-0.1,0.1l-0.1,0.3l0.2,0.8l0.2,0.1L353.9-62z M349.3-62.9l0.2,0l0.7-0.3l0.2-0.2l0-0.1l-0.1-0.4l-0.1-0.7l-0.4,0.1
	l-0.4,0.3l-0.1-0.1l-0.1,0l-0.2,0.1l-0.2,0.1l-0.1,0.1l0,0.2l-0.2,0.3l0,0.1l0.2,0l0.6-0.4l0.1,0l0.1,0l-0.1,0.2l0.1,0.3L349.3-62.9
	L349.3-62.9z M350.5-64.5l0,0.3l0,0.1l0.1,0.1l0.2,0l0.1-0.1l0.9-1.1l0.4-0.6l-0.2,0l-0.2,0.1l-0.6,0.3l-0.2,0.2l0,0.1l0.2,0.1
	l-0.6,0.3L350.5-64.5z M351.9-68l-0.5-0.1l-0.3-0.4l-0.3-0.2l-0.1,0l-0.2,0l-0.5,0.2l-0.1,0.1l-0.1,0.2l0,0.1l0.7,0.3l-0.3,0.7
	l-0.5,0.1l-0.1,0.1l0,0.1l0.6,0l1.7-0.3l0.2-0.8L351.9-68z M349.3-68.7L349.3-68.7l-0.4,0l-0.5,0.4l0,0.1l0.2,0l0.4-0.2L349.3-68.7z
	 M345.1-70.3l0.4-0.1l0.1-0.1l0-0.1l-0.2-0.1l-0.3,0.1l-0.1,0.2l0,0.1L345.1-70.3z M350-70.3l0.2,0l0.1-0.1l0.1-0.1l0-0.1l-0.1-0.1
	l-0.2-0.1l-0.5,0.2l0.2,0.3L350-70.3z M345.8-72.7l0,0.5l-0.1,0.4l0,0.2l0.1,0.3l0.1,0.1l0.2,0l0.2,0l0-0.1l0.1-1.3l-0.1-0.1
	L345.8-72.7z M351.6-70.8l0.2,0l0.2-0.1l0.6-0.5l0.5-0.3l0.1-0.2V-72l-0.1-0.1l-0.7,0l-0.8-0.1l-0.1-0.1l-0.2-0.1l0-0.2l-0.1-0.3
	l0.1-0.3l0-0.2l0-0.4l-0.3-0.4l-0.2-0.1l-0.2,0l-0.1,0.3l-1,0.2l0,0.1l0.1,0.2l0,0.1l-0.1,0.1l-0.2,0l-0.2-0.1l-0.2,0.2l0,0.1
	l0.1,0.2l0.2,0.3l1,0.2l0.3,0.5l0.1,0.2l0.2,0.1l0.4,0l0.6-0.1l0,0.8L351.6-70.8z M346.9-73.5l0.4-0.5l-0.4-0.3l-0.3,0.1l-0.2,0
	l-0.3,0.1l-0.2-0.1l-0.1,0l-0.1,0.1l-0.1,0.1l0,0.1l0.8,0.4L346.9-73.5z M348-75.3l-0.6,0.3l0.3,0.3l0.1,0.1l0.1,0l0.2-0.1l0.3-0.3
	l0.2,0l0.5-0.5l0.5-0.2l0.7-0.4l0.1-0.1l0-0.2l-0.1-0.1l-0.5,0l0.6-0.3l0.2-0.2l0.2,0l0.6-0.9l0.1-0.4l-0.1-0.3l-0.1-0.1l-0.3,0.1
	l-1.1,0.6l-0.9,0.3l-0.2,0.1l-0.1,0.1l0.2,0.5l0,0l-0.4,0l-0.3,0.1l-0.2-0.2l-0.3-0.1l-0.1,0l-0.1,0.1l-0.2,0.1l-0.1,0.2l0,0.2
	l0,0.1l0.2,0l0.1,0.1l0.1,0l-0.3,0.2l0,0.1l0.2,0.2l0.6,0.2l0,0.1l-0.4,0.2L348-75.3z M382.9-46.6l-0.2-0.4l-1.2-0.8L381-48
	l-0.9-0.2l-0.5,0l-0.5-0.1l-0.5,0l-0.6,0.1l-0.2,0.2l-0.4,0.4l-0.2,0.2l-0.2,0.1l-0.2,0l-1-0.5l0.4-0.4l0.4-0.3l0.4-0.3l0.3-0.4
	l-0.3-1l-0.6-0.7l-1.8-1.2l-0.8,0l-0.8-0.2l0.4,0l0.5,0.1l0.8-0.1l0.4,0.3l0.4,0.2l0.2,0l0.2,0L376-52l0.2,0.1l-0.4-0.7l-0.5-0.7
	l-0.2-0.4l-0.1-0.4l0.2-0.3l0.3-0.2l-0.6-0.4l-0.6-0.5l-0.6-0.6l-0.6-0.6l-0.4-0.2l-1.7-0.6l-0.3-0.3l-0.2-0.4l-0.5-1.4l-0.3-1.3
	l-0.3-1.3l-0.2-0.4L369-63l-0.4-0.3l-0.7-0.8l-0.5-0.5l-1.9-0.7l-1,0l-0.8,0.4l-0.1,0l-2.4-0.4l-0.4-0.1l-0.3-0.3l0.4,0.2l0.9,0.2
	l0.5,0l0.4-0.1l0.4-0.2l0.9-0.6l0.9,0l0.4-0.3l0.1-0.4l-1-0.4l-0.9,0l-0.5,0.1l-0.5,0l0.4-0.1l0.4-0.2l0.3-0.1l1.2-0.2l0.4-0.2
	l0.4-0.3l0.4-0.4l0.4-0.5l0.8-0.7l0.8-1.3l0.1-0.3l0.1-0.3l0.1-0.3l0.4-0.5l0.5-0.4l0.3-0.3l0-0.1l-0.3-0.6l-0.4-0.4l-0.5-0.1
	l-0.7,0.1l-2.6-0.1l-0.4,0l-0.4,0.1l-0.2,0l-0.9-0.2l-0.5,0l-1,0.3l-1,0.3l-0.5,0.1l-0.6,0l0.3-0.5l0.9-0.6l0.1-0.2l-0.2-0.1
	l-0.5-0.1l0.1-0.3l0.2-0.2l1-0.5l1.6-1l0.9-0.4l0.3-0.3l0.1-0.2l0.1-0.1l0-0.4l0.3-0.4l0.1-0.1l0-0.1l-0.9-0.1l-0.8,0.2l-0.9,0.1
	l-0.8,0.2l-1.4,0.1l-1.1,0.2l-0.2-0.3l-0.2,0l-0.6,0.3l-0.2,0l-0.2-0.2l-0.2-0.1l-0.5-0.1l-0.2,0l-0.2,0.1l-0.2,0.3l-0.1,0.2
	l-0.1,0.4l-0.1,0.2l0,0.2l0.2,0.3l0.1,0.2l-0.2,0.1l-0.9,0l-0.3,0.1l-0.1,0.1l0,0.2l0,0.2l-0.3,0.4l0.1,0.1l0.8,0.7l0.1,0.1
	l-0.5-0.1l-0.1,0l-0.1,0.1l-1.1,0l-0.3,0.3l-0.2,0.2l-0.3,0.6l0,0.1l0.1,0.2l0.1,0.2l0.4,0.1l-0.5,0.1l-0.3,0.1l-0.2,0.2l-0.1,0.2
	l0.1,0.3l0.6,0.2l0.1,0.2l0.3,0.3l-0.2,0.7l-0.7,0.8l-0.5,0.2l-0.1,0.1l0.5,0.3l-0.7,0.4l-0.7,0.1l-0.4,0.3l0,0.1l0.3,0.1l0.4,0
	l0.1,0.5l0.3,0.2l0.4,0.1l0.5,0l0.4-0.2l1.6-1l0.1,0l-0.3,0.4l-0.3,0.4l-0.1,0.3l-0.3,0.2l-0.2,0.5l-0.3,0.4l-0.3,0.5l-0.2,0.6
	l-0.3,0.4l-0.2,1.3l0.1,0.1l0.1,0l0.3-0.1l0,0l-0.5,0.4l-0.2,0.3L352-63l-0.4,1l-0.1,0.3l0,0.2l0.1,0.2l0.4,0l0.1,0l0.1-0.1l0.2-0.2
	l1-2.1l0.1-0.3l-0.1-0.7l0-0.1l0-0.1l0.1-0.1l0.5-0.4l0.9-0.6l0.4-0.2l-0.8,0.6l-0.2,0.3l-0.1,0.4l0,0.4l0,0.2l0.1,0l0.1-0.2l0.3,0
	l0.1-0.1l0.1-0.2l0.5-0.1l0.2-0.1l0.4-0.5l0.2-0.2l0.1,0l-0.2,0.4l0,0.2l0.7,0.5l0.4,0.2l-1,0l-0.1,0.1l-0.2,0.3l-0.1,0.5l-0.1,0.5
	l0.7,0.6l0.1,0.2l0,0.3l-0.2,0.4l-0.3,0.3l-0.9,1.2l-0.5,0.9l-0.2-0.1l-0.3,0.1l0,0.4l0.1,0.3l0.4,0.5l0.5,0.4l0.1-0.5l0.2-0.3
	l0.2-0.1l0.7,0.3l0.5,0.2l0.5-0.2l0.5-0.3l0.2-0.1l0.2,0.1l0.1,0.2l0.2,0.1l0.3,0l0.5,0l0.3-0.1l0.3-0.2l0.3-0.2l0.3,0l0.3-0.1
	l0.5-0.3l0.5-0.1l1.5,0l0.2,0l-1,0.3l-0.9,0.7l-0.7,1.2l0,0.5l0.6,0.9l0.3,0.4l0.6,0.6l0.2,0l0.3-0.2l0.3-0.1l0.6,0l0.1,0.2
	l-0.1,0.5l-0.2,0.5l-0.6,0.3l-0.1,0.3l0,0.4l0.2,0.1l0.3,0.1l-0.3,0.4l-0.3,0.4l-0.1,0.4l0.4,0.7l0.2,0.2l0.3,0.1l0.2,0l0.2,0.1
	l-0.5,0.1l-0.2-0.1l-0.6-0.7l-0.5,0.2l0.2,0.7l-1-0.5l-0.4,0l-0.5,0.2l-0.5,0.1l-0.5-0.1l-0.2,0l-1.4,0.5l-0.7,0.4l-0.3,0.2
	l-0.2,0.3l-0.2,0.2l-0.6,0.3l-0.5,0.4l-0.2,0.3l0,0.2l0.4,0l0.5-0.3l0.5-0.2l0.6-0.1l0.6,0l-0.1,0.3l0,0.3l0.2,0.3l0.1,0.3l-0.2,0.3
	l-0.1,0.3l0.1,0.3l0.3,0.1l-0.3,0.4l-0.3,0.5l-0.3,0.4l-0.3,0.3l-0.8,0.4l-0.8,0.3l-1.5,0.6l-1,0.3l-0.4,0.3l-0.4,0.4l0.3,0.1
	l0.1,0.3l0,0.4l0.2,0.2l0.9,0.4l0.9-0.3l0.5-0.3l0.3-0.1l0.6,0l0.2,0.2L356-41l0.8,0.1l-0.4,0.2l-0.3,0.3l0.5,0l0.5-0.1l0.3-0.1
	l0.2,0l0.5,0.3l0.8,0.7l1.2,0.1l0.2,0l0.8-0.5l0.5-0.2l1.1-0.2l0.4-0.2l0.6-0.4l0.5-0.3l-0.8,0.7l-0.5,0.4l-0.5,0.4l-0.4,0.4
	l-0.8,0.9l-0.4,0.2l-0.5,0.1l-0.5,0l-1-0.2l-1,0l-1.4,0.2l-0.1,0.1l-0.6,0.9l-1,0.3l-0.1,0.4l-0.1,0.5l-0.1,0.3l-1.3,1.1l-0.2,0.3
	l-0.3,0.1l-0.2,0.2l-0.2,0.2l-0.5,0.4l-1,0.7l-1.1,0.3l-0.4,0.4l0,0.3l0.1,0.2l0.3-0.2l0.5-0.1l0.5,0.1l0.4,0.4l0.5-0.1l0.4-0.5
	l0.2-0.1l0.9-0.5l0.4-0.2l1-0.3l0.6-0.1l0.4,0l0.4-0.1l0.1-0.1l0.1,0l0.3,0.2l0.9,0.4l0.5,0.3l0.5-0.1l0.5-0.5l0.3-0.6l0.2-0.7
	l0.4-0.5l1.9-0.5l0.4,0l0.5,0.1l0.5,0.2l0.5,0.3l0.5,0.1l0.2-0.2l0.2,0l1.4,0.2l0.2,0l0.2-0.1l-0.2-0.3l-0.1-0.3l0.7,0.1l0.8-0.1
	l0.4,0l0.4-0.1l0.8-0.4l-0.3-0.4l0.6,0.2l0.7,0.1l0.6,0.2l0.6,0.2l0.4,0l1.5-0.3l1.1,0l1.8,0.3l0.4-0.1l0.5-0.2l0.5-0.2l0.7-0.2
	l0.4-0.3l0.8,0l0.1-0.3l0.3-0.4l1.5-0.6l0.2-0.1l0.1-0.7l0-0.3l-0.2-0.1l-0.5,0l-1.1,0.1l-0.6,0l-0.9-0.2l-0.2-0.1l-0.2-0.4
	l-0.3-0.1l-0.5,0.1l0.4-0.2l0.4-0.1l0.5,0l0.5-0.1l0.4-0.2l0.2-0.4l-0.1-0.2l-0.6-0.2l0.9-0.4l0.6,0.1l0.4-0.1l0.4-0.2l0-0.3
	l-0.2-0.3l0-0.1l0.2,0l0.2,0.1l0.4-0.2l0.7-0.5l0.2-0.2l0.1-0.2l0.2-0.7l0.3-0.5l0.2-0.6l0-0.6L382.9-46.6z M365.3-80.1l0.1,0.1l0,0
	l0.1-0.3l0.1-0.2l-0.2,0l-0.4,0.1L365.3-80.1z M364.1-80.3l0.2,0l0.2-0.1l0,0l-0.2-0.1l0-0.1l0-0.2l-0.2-0.3l-0.3-0.1l-0.2,0.1
	l0,0.2l0.1,0.2L364.1-80.3z M363.9-81.3l0.1,0l0.3-0.2l0,0.1l0,0.2l0,0.1l0.1,0.1l0.1,0l0.7-0.1l0.5,0.3l0.2,0l0.1-0.1l0.2-0.3
	l-0.2-0.1l-0.3,0l-0.4-0.1l-0.3,0l0.1-0.1l0.2-0.2l0-0.1l-0.1-0.1l-0.4-0.2l-0.4,0l-0.3,0.1l-0.2,0.4l-0.1,0.3L363.9-81.3
	L363.9-81.3z M367.9-82.9l0.1-0.1l-0.5,0l-0.3,0.1l-0.3,0.3l0.5,0L367.9-82.9z M365.6-82.9l0.4,0.1l0,0.3l0.1,0.1l0.4-0.1l0.1-0.2
	l0,0l-0.3-0.1l-0.2-0.3l-0.4-0.3l-0.3,0.1l0,0.1l0.1,0.2L365.6-82.9z M371.6-88.1l0.1,0l0.4,0l0.1,0l0,0.1l0.1,0.1l0.3-0.1l0.4,0
	l0.1,0.2l0,0.2l-0.1,0.4l-0.3,0.7l0.2,0.2l0.1,0l0.2-0.5l0.2-0.2l0.1-0.6l0.1-0.1l0.1-0.3l0.1-0.2l0.4-0.9l0.1-0.3l-0.3,0.1l-0.2,0
	l-0.3-0.4l-0.2,0.1l-0.1-0.4l0.1-0.4l-0.3,0l-0.2,0.1l-0.4,0.4l-0.2,0.1l-0.1,0.1l0.1,0.1l0.4,0.1l0.2,0.7l-0.5,0.2l-0.3,0l-0.4,0.1
	l0,0.1L371.6-88.1z M374.2-89.6L374.2-89.6l0.1-0.4l0-0.3l0,0l0.2,0l0-0.1l0-0.2l-0.4,0l-0.4,0.6l0.4,0.5L374.2-89.6z M374.9-90.5
	l0.3,0l0-0.2l0.3-0.5l0-0.1l-0.1-0.1l-0.1,0l-0.2,0.1l-0.1-0.1l-0.1,0l-0.1,0.1l-0.1,0.3L374.9-90.5L374.9-90.5z"/>
<path class="st0" d="M503.5,283.4l-0.2,0.3l0,0.1l0.2,0.2l-0.4,0l-0.2-0.2l0.1-0.2l-0.1-0.2l-0.1-0.8l-0.2-0.3l-0.3-0.1l0.1,0.3
	l-0.1,0.3l-0.2,0.2l-0.2,0.1l0.1,0.4l0.5,0.6l0.3,0.2l0.5-0.1l0.2,0.2l0,0.1l0.1,0.1l0.2,0.1l0-0.2l0-0.7L503.5,283.4z M474.3,232.1
	l-0.8-0.4l-0.2-0.1l-0.1-0.3l-0.1,0.3l0.1,0.3l1,0.4l0.2,0.2l0.2,0.3l0.4,0.4h0.1l0.3-0.2l-0.2-0.1L474.3,232.1z M473.4,231.2l0-0.1
	l-0.1-0.4l0-0.4l-0.2,0.3l0,0.5L473.4,231.2L473.4,231.2z M570.6,252.4l-0.5-0.8l-0.5-0.8l-0.5-0.8l-0.3-0.6l-0.4-0.7l-0.3,0.5
	l-0.1,0l-0.4-0.1l-0.1,0l-0.4-0.1l-0.6-0.1l-0.8-0.1l-0.9-0.1l-1-0.1l-1.1-0.2l-1.1-0.2l-1.1-0.2l-1.1-0.2l-1-0.1l-0.9-0.1l-0.8-0.1
	l-0.6-0.1l-0.4-0.1l-0.1,0l-0.4-0.1l-0.3-0.3l-0.3-0.4l-0.3-0.4l-0.3-0.4l-0.6-0.8l-0.3-0.4l-0.3-0.4l-0.3-0.4l-0.3-0.4l-0.3-0.4
	l-0.3-0.4l-0.3-0.4l-0.3-0.4l-0.3-0.4l-0.3-0.4l-0.3-0.4l-0.2-0.3l-0.1-0.3l-0.1-0.8l0-0.2l-0.2,0l-0.3-0.1l-0.4-0.1l-0.4-0.1
	l0.2-0.8l0.2-0.3l-0.1-0.2l-0.4,0l-0.4-0.3l-0.4,0.1l-0.4,0.1l-0.4,0l-0.3-0.1l-0.2-0.1l-0.4-0.5l-0.3-0.6l-0.4-0.5l-0.3-0.6
	l-0.6-0.7l-0.3-1.3l-0.3-0.7l-0.9-0.8l-0.2-0.3l-0.3-0.8l-0.3-0.5l-0.3-0.7l-0.3-0.9l0.1-0.1l0.2,0l0.2,0.1l0.1,0l0.2-1.2l-0.2-0.6
	l-0.4-0.3l-0.5-0.4l-0.1-0.5l-0.1-0.4l0.1-0.1l0.3,0.1l0.2,0.1l0.1,0l-0.9-1l-1.4-0.7l-1-1.1l-0.7-0.2l-0.7-0.8l-0.6-0.7l0.3-0.3
	l-0.4-0.2l-0.4-0.1l-0.9-0.5l-0.6-0.6l0-0.2l0.1-0.2l-0.2-0.6l-0.2-0.4l-0.8-1l-0.6-1.3l-0.2-0.6l-0.3-0.6l-0.9,0l-1.1,0l-0.9,0
	l-1,0l-0.5-0.6l-0.2-0.6l-0.2-0.6l-0.5-0.9l-1.5-0.2l-0.8-0.1l-1.3-0.2l-1-0.1l-0.9,0.2l-2-0.2l-2.3-0.2l-2.3-0.2l-1.7-0.2l-0.1-0.1
	l-1.8-1.4l-1.4-1.1l-1.7-1.3l-1.8-1.4l-1.8-1.4l-1.3-1l-1.6-1.3l-1.5-1.2l-1.1-0.9l-1.4-0.8l-1.1-0.6l-1.6-0.9l-1.3-0.7L492,196
	l-1.7-1l-0.6-0.3l-1.7-0.3l-1.6-0.3l-1.7-0.3l-1.1-0.2l-0.7,0.7l-0.2,0.1l-0.9,0.3l-1.9,0.6l-1.3,0.4l-1.6,0.5l-1.4,0.4l-1.3,0.4
	l-1.2,0.4l0.8,0.8l1.2,1.2l0.8,0.8l1,1l0.9,0.9l0.9,1l-0.6,0.3l-0.9,0.6l-0.1,0.1l-0.1,0.1l-0.3,1l-0.3,0.8l-0.1,0.1l-1.3,0.3
	l-1.3,0.3l-0.8,0.2l-0.2,0.2l-0.5,1l-0.5,1l-0.9,0.8l-1,0.9l-0.3,0.1l-0.8-0.1l-1.3-0.2l-1.3-0.2l-0.9-0.2l-1.1-0.2l-0.5,3.7l0,1.2
	l-0.4,1.4l-0.3,0.7l0.1,0.5l0.5-0.4l0.5,0.1l1.3,0.1l0.5,0.3l1.3,1.8l0.9,1.8l1,1l0.5,1.1l1,1.1l0.3,0.7l0.8,1l1.5,2.9l0.8,0.4
	l0.2,0.8l0.3,0.9l0.5,0.3l0.3,0.3l1.3,2.1l0.4,0.8l0.1,0.5l0.1,0.7l-0.2,0.5l-0.2,0.3l0.9,1.2l0.5,0.9l0.6,1l0.5,0.1l0.4,0l0.6,0.5
	l0.5,0l0.3,0.4l0.6,0.4l1,0.9l0.9,1.2l0.4,0.9l0.9,1.5l0.3,0.7l0.2,0.9l0.2,0.3l0.6,0.6l-0.3,0l0.3,0.5l0.4,0.2l0,0.4l0.3,0.6
	l0.2,1.2l-0.1,0.6l-0.2,0.5l0,1l-0.1,0.9l0.2,0.6l0.3,0.7l0.3,0.9l0,0.5l-0.3,0.7l1,2l1.2,1.4l0.7,1.3l0.6,0.7l0.8,0.6l1,0.2
	l2.1,1.6l0.7,1l0.7,0.4l0.1,0.2l0.1,0.4l0.3,0.5l0.3,0.4l1.1,2.4l0.2,0.5l0.3,0.7l0.2,0.6l0.1,0.5l1.1,1.3l0.4,1.2l0.8,1.5l0.5,0.7
	l1.6,1.3l1.3,1.4l0.2,1l0.3,0.8l0.5,0.4l0.4,0.5l0.1,0.5l0.5,0.4l0.3,0.4l0.2,0.5l0,0.5l0.3,0.7l0.1,0.5l0.9-0.8l0.2-0.2l0.1-0.2
	l0.2-0.5l0.3-0.1l0.1-0.5l0-0.2l-0.2-0.2l-0.2-0.6l0-0.7l0-0.3l0.1-0.5l0.3-0.2l0.1-0.2l-0.3-0.3l0-0.2l0.5-0.6l0.2-0.2l0.4-0.2
	l0.3,0l0.3,0.1l0.3,0.2l0.3,0.3l0.3,0.3l0.5,0.1l0.3,0l0.3,0.1l0.2-0.1l0.2-0.2l0.4,0l0.3-0.2l1-0.1l1,0.1l1-0.2l1,0l1,0l0.2,0
	l0.2,0.1l0.9,0.5l0.7,0.1l1.3,0.1l1.4,0.1l1.2,0.1l1-0.1l0.9-0.1l0.2,0l0.3,0.3l0.6,0.8l0.5,0.7l0.9,0l0.5-0.3l0.6-0.4l0.4-0.3
	l0.4-1.2l0.2-0.8l0.6-0.9l0.5-0.7l0.7-1l0.4-0.5l0.7-1.1l0.7-0.4l1.4-0.8l1.3-0.8l0.9-0.5l0.8-0.2l1.3-0.2l1.5-0.2l1.5-0.2l1.6-0.2
	l1.8-0.3l1.2-0.2l1.6-0.2l1.3-0.2l1.2-0.2l1.2-0.2l0.7-0.3l0.9-0.3l0.9-0.3l0.9-0.3l0.9-0.3l0.9-0.3l0.9-0.3l0.9-0.3l0.9-0.3
	l0.9-0.3l0.9-0.3l0.9-0.3l0.9-0.3l0.9-0.3l0.9-0.3l0.9-0.3l0.9-0.3l0.5-0.2l0.2-0.8l0.1-0.6l0.1-0.6l0.1-0.6l0.1-0.6l0.1-0.6
	l0.1-0.6l0.1-0.6l0.1-0.6l0.1-0.6l0.1-0.6l0.1-0.6l0.3-1.3l0.1-0.6l0.1-0.6l0.1-0.6l0.1-0.6L570.6,252.4z"/>
<polygon class="st0" points="685.5,131.3 685.4,128.4 685.3,125.5 685.3,122.5 685.3,121.2 685.2,119.9 685.2,118.6 685.2,117.3 
	685.1,116 685.1,114.6 685.1,113.3 685,112 685,110.7 685,109.4 684.9,108.1 684.9,106.7 684.9,105.4 684.8,104.1 684.8,102.8 
	684.8,101.5 684.7,100.1 684.7,98.8 684.7,97.5 684.6,96.2 684.6,94.9 684.5,93.6 684.5,92.2 684.5,90.9 684.4,89.6 684.4,88.3 
	684.3,87 684.3,85.6 684.2,84.3 684.2,83 684.1,81.7 684.1,80.4 684,80.1 683.7,79.2 683.4,78.1 683.1,76.7 683.1,76.3 682.6,74.8 
	682.5,74.4 682.6,74.1 683.3,72.9 683.5,72.3 683.7,71.6 683.7,71.1 683.5,70.2 683.2,69.4 683.1,68.6 683,67.8 683.3,67.3 
	683.8,66.8 683.9,66.4 684.2,66.1 684.4,65.9 684.2,65.6 683.7,64.6 683.3,64.2 683,64 682,63.8 681,63.9 679.2,63.9 678.8,63.7 
	678.1,63.2 677.6,63 675,62.7 674.1,62 674.1,61.6 674.2,61.3 674,60.3 673.1,59.9 672.3,59.6 671.2,59.3 670.2,58.8 669.5,58.5 
	667.8,58.6 667.2,58.4 666.8,58.4 665.7,59.2 665.2,59.4 664,59.4 661.8,60.5 660.6,61.4 659.4,62.6 659,63.3 658.7,63.9 658.5,65 
	658.7,66.5 659,67.4 659.5,68 659.7,68.6 659.7,69.3 659.6,70 659.1,70.9 657.7,72.7 657.1,73.2 655.6,73.9 654.8,74 653.8,73.9 
	652.5,73.2 650.1,71.1 648.9,70.6 648.3,70.2 645.9,69.3 643,68.5 641.4,68.4 639.8,68.2 638.3,67.7 637.7,67.3 637.1,66.7 
	636.6,65.9 636.2,64.9 635.9,64.1 635.9,63 635.4,62.1 635,61.6 631.7,60.9 631.3,60.7 630.3,59.9 629.9,59.8 628.4,59.3 
	627.4,59.2 626.9,59.1 625.6,58.6 624.9,58.7 623,59.2 621.4,59.1 620.7,58.9 618.4,57.5 617.6,57.4 616.9,57 616.9,57.2 
	616.7,58.3 616.6,58.7 616.6,59.3 616.6,60.2 617,60.9 617,61.2 616.9,61.5 616.2,61.9 615.2,62.4 614.4,62.9 613.5,63.4 
	613.3,63.8 612.8,64.1 612.5,64.3 612.4,64.6 612.1,65.1 611.8,65.5 611,65.6 610.8,65.8 610.4,66.3 610.2,66.6 610,67.1 
	610.3,68.3 610.6,69.6 610.7,70.1 610.7,70.5 610.5,71 610,71.7 609.7,72.2 609.1,73.1 608.9,73.3 608.5,73.6 607.6,74 607,74.3 
	606.5,74.6 606,74.9 606.4,75.6 607.2,76.8 607.6,77.7 607.8,78.1 608.1,79.3 608.4,80.4 608.5,80.8 608.6,81.6 608.5,84 
	608.7,87.1 609,88.6 608.5,89.9 608.1,91.2 608.1,91.9 608.3,92.9 608.6,93.7 608.8,94.1 608.8,95.3 608.7,95.8 607.8,96.5 
	606.8,97.1 606.5,97.6 606.5,98.2 606.6,98.7 607.2,99.7 608.3,101.3 609.4,103 609.4,103.4 609.5,104.6 609.9,106.1 610.4,106.8 
	610.6,107.3 611,107.7 611.3,107.9 611.6,108 612.8,107.5 614.9,108.2 617,108.9 617.1,109.1 617.5,110 618.3,111.4 618.8,112.6 
	619.3,113.6 621.9,114.3 624.4,114.9 626.9,115.6 627.5,115.9 628.9,117.2 630.6,118.9 630.7,118.9 630.8,118.9 632.4,117.9 
	634.5,116.7 634.5,116.7 636.4,115.7 637.8,115 639.6,114 641.3,115 643.7,116.4 646.2,117.8 648.6,119.2 651,120.5 653.5,121.9 
	655.9,123.3 658.4,124.7 660.8,126.1 663.3,127.5 665.7,128.9 668.2,130.3 670.6,131.6 673.1,133 675.6,134.4 678,135.8 
	680.5,137.2 680.5,136.5 680.5,135.7 680.5,135 680.4,134.3 681.7,134.3 683,134.3 684.2,134.3 685.5,134.3 685.5,134.3 
	685.5,134.2 685.5,134.2 685.5,134.2 "/>
<path class="st1" d="M663.9,19.3l-0.4-0.1l-0.1,0.1l0,0.3l0.3,0.2l0.2-0.1l0-0.1L663.9,19.3z M680.6,10.5l-0.8,0.4l-0.3-0.1
	l-0.3,0.1l-0.2,0.3l-0.3,0.1l-0.7-0.1l-0.7,0l-0.3,0l-0.3,0.1l-0.5,0.4l-0.6,0.2l-0.4,0l-0.6,0.2l-1.1-0.1l-0.5,0.1l-0.7,0.3l-0.3,0
	l-0.3-0.1l-0.9-0.6l-0.3,0l-0.2-0.1l-0.2-0.3l-0.3-0.1l-0.6,0l-0.5,0.4l0,0.3l-0.4,0.3l-0.3,0l-0.3-0.2l-0.6-0.7l-0.2,0.2l-0.2,0.2
	l-0.3,0.1l-0.3,0.2l-0.3,0.7l-0.2,0.7l0.1,0.3l0.4,0.6l0.6,0.4l0.3,0.1l0.3,0l0.5,0l0.3,0l0.6,0.4l0.6,0.2l0.2,0.2l0.2,0.2l0.5,0.4
	l1.1,0.6l1,0.7l0.5,0.2l0.6,0l0.6,0l0.6,0.3l0.5,0.4l0.7,1l0.3,0.1l0.3,0.1l0.8,0.3l0.6-0.1l0.5,0.2l0.5,0l0-0.3l-0.1-0.3l0.1-0.3
	l0.1-0.3l0.2-0.3l0.5-0.5l0-0.3l0-0.2l-0.3-0.2l-0.3-0.4l0.3-0.2l-0.2-0.2l-0.2-0.1l-0.1-0.2l-0.1-0.2l0-0.5l0.1-0.4l0.2-0.3
	l0.1-0.4l0.1-0.4l0.1-0.4l1.1-1.7l0.2-0.3L681,11l0.3-0.3l-0.3-0.2L680.6,10.5z M646.3,5.6l0,0.1l0,0.4l0.3,0.4l0.3-0.6l-0.2-0.1
	L646.3,5.6z M672.9-3.2l0.1-0.1l0-0.1l-0.4-0.1l-0.1,0.2l0.1,0.1l0.1,0.1L672.9-3.2z M646.1-5.1l0.2-0.1l0.1-0.2l-0.1-0.1L646-5.4
	L645.8-5l-0.1,0.2l0.2,0L646.1-5.1z M652.7-3.8l-0.2-0.4l-0.3-0.2l-0.1-0.1l0.2-0.3l0.1-0.1l0-0.1L652.2-5L652-5.2l-0.2-0.3
	l-0.2-0.3L651.1-6l-0.3,0l-0.3-0.3l-0.2,0.1l-0.1,0.3L650-5.7l-0.5,0.2l-0.8,0.9L648-4.2L647.4-4l-0.5,0.1L646.4-4L646.2-4l-0.3-0.3
	l-0.1,0l-0.1,0.2l-0.1,0.6l0,0.7l0.2,0.3l0.3,0.3l0.3,0.3l0.1,0.3l0.1,0.5l0.3,0.3l0,0.9l-0.1,0.3l-0.2,0.2l0-0.1l0,0.4l0.4,0.1
	l0.2,0.3l0,0.4l0,0.2l-0.1,0.1l-0.2-0.2l-0.1,0.2l0,0.4L646.7,3l-0.1,0.2l-0.1,0.2l0,1.1l0,0.5l0.3,0.6l0.3,0.5l0.2,0.4l0.3,0.2
	l0.3,0l0.4,0.1l0.4,0l0.4-0.3l0.3-0.5l0.2-1.2l0.2,0.2l0.2,0.1l0.3-0.1l0.3,0l0.6,0.3l0.5,0.2l0.4-0.2l0.1-0.5l0.2-0.6l0.3-3.3
	l0.1-0.1l0-0.4L652.6,0l-0.1-0.6l0.5-0.8l0.1-0.2l0.1-0.3l-0.1-0.3L652.7-3.8z M656.3-15.2l-0.2-0.2l-0.2,0.2l-0.3,0l-0.2,0.1
	l-0.6,0l-0.1,0.1l0.1,0.2l0.4,0l0.6-0.1l0.4,0.3l0-0.3l0.1-0.1L656.3-15.2z M694.5-0.3l-0.7-0.9l-1.4-1.1l-0.4-0.5l-2.3-1.1l-1-0.8
	l-0.8-0.5l-2.6-1l-2.6-1.2l-0.5-0.4l0-0.6l0.6-0.5l0.5-0.3l0.2-0.3l-0.1-0.5l-0.5-0.2l-0.5-0.1l-2.6,0.1l-1.1-0.1l-1.4-0.7l-1.6-1.1
	l-1.7-1.5l-0.8-1l-0.4-0.9l-0.6-1.9l-0.5-1.2l-0.6-1l-0.3-0.2l-1-0.4l-1.8-1.3l-1-0.4l-1-0.8l-0.4-0.5l-0.4-1.2l-0.3-1.7l0.1-0.6
	l0.2,0l0.3,0.2l0.4-0.3l0.2-0.3l0.1-0.4l-0.6-0.9l-0.5-1l-0.3-0.2l0.1-0.7l0.1-0.4l0.4-0.3l0.6-0.3l0.2,0l-0.5,0.4l0.3,0l0.5-0.2
	l0.7-0.3l0.7-0.4l0.6-0.2l0.4-0.3l0.2-0.3l0.2-0.1l1.2,0.4l0.4-0.3l0.3,0l0.7,0.8l-0.3,0.2l0.3,0l0.3-0.1l0.1-0.1l-0.2-0.4l-0.5-0.5
	l-0.3-0.2l-0.4-0.1l-0.1-0.1l0.2-0.7l-0.1-0.1l-0.4,0l-0.1-0.1l0-0.1l0-0.2l0.3-0.3l0.3-0.3l0.1-0.1l0-0.1l-0.4-0.1l-0.2-0.1l-0.2,0
	l-0.1,0.1L670-35l-0.1-0.2l0.1-0.3l0.4-0.3l0.4-0.3l0.3-0.2l0.2-0.1l0.1-0.3l-1-0.2l-0.6,0l-0.8-0.1l-1.7-0.3l-0.5-0.1l-0.5,0
	l-0.5-0.1l-0.4-0.2l-0.3-0.3l-0.3-0.4l-0.5-0.6l-0.1-0.3l0.2-0.2l0.2-0.2l0-0.1l-0.1,0l-0.9,0.2l-0.9,0.3l-0.3,0l-0.3-0.1l-0.4,0
	l-0.4,0.1l-0.9,0l-0.5,0.2l-0.3,0.4l-0.2,0.4l-0.1,0.1l-0.3,0l-0.5,0l-0.3-0.1l-0.3-0.3l-0.5,0l-0.5,0l-0.1-0.1l-0.2,0.7l0,0.4
	l0.2,0.3l0,0.2l-0.1,0.2l-0.3,0l-0.4-0.1l-0.4-0.3l-0.3,0l-0.2,0.1l-0.1,0.3l-0.1,0.4l0,0.2l0.2,0.2l0.1,0.3l0.1,0.4l0.1,0.2
	l-0.1,0.1l-0.2,0.1l-0.2-0.1l-0.3-0.5l-0.1-0.2l-0.3,0l-0.4,0.1l-0.7,0.3l-0.3,0l-0.2-0.1l-0.2-0.2l-0.2-0.5l-0.1-0.3l-0.1,0
	l-0.4-0.1l-0.2,0.1l0,0.5l0,0.6l-0.2,0.4l-0.6,0.7l-0.2,0.3l-0.1,0.2l0,0.2l0.1,0.3l0.1,0.3l-0.1,0.2l-0.3,0.1l-0.2-0.2l-0.1-0.3
	l-0.5-0.4l0.2-0.4l0-0.1l-0.8-0.2l-0.3-0.3l-0.5-0.5l-0.1-0.2l0-0.7l0-0.2l-0.1-0.1l-0.2,0l-0.3,0.2l-0.3,0.4l-0.6,0.4l-0.1,0.1
	l0.2,0.4l0,0.2l-0.5,0.6l-0.1,0.2l-0.7,0.4l-0.3,0.1l-0.9-0.3l-0.2,0l-0.4,0.2l-0.6,0.2l-0.9,0.2l-0.3-0.1l-0.2-0.1l-0.4,0.3
	l-0.6,0.3l-0.1,0.2l0,0.2l0.1,0.2l0.3,0.2l0.4,0.5l0.2,0.5l0.5,0.4l0.1,0.1l0,0.1L641-30l-0.2,0.6l-0.2,0.1l-0.2,0l-0.7,0.5
	l-0.3-0.1l-0.4,0l-0.3,0.1l0,0.3l0.3,0.3l0.1,0.8l0.1,0.3l0.3,0.2l0.4,0.1l0.2,0l0.2,0.1l0.1,0.1l0.2,0.6l-0.1,0.2l-0.2,0.1
	l-0.1,0.3l-0.3,0.4l-0.2,0.3l0.2,0.3l0.1,0.2l-0.1,0.2l0.1,0.3l0.3,0.3L641-23l0.8,0.4l0.2,0.1l1.1-0.2l0.2,0l0.1,0.3l0.1,0.2
	l-0.1,0.3l-0.3,0.4l-0.3,0.3l-0.2,0.3l0,0.2l0,0.3l1.1-0.2l1.3-0.4l0.4-0.2l1-1.2l1.2-1.2l1-0.4l0.8,0.1l1.2,0.5l0.4,0l2.1,1.2
	l1.5,0.5l0.7,0.4l0.3,0.5l0.3,1.9l0.6,0.8l0.3,0.9l0.1,0.4l-0.1,0.4l0,0.6L657-16l0.3,0l0.3,0.1l0.1,0.2l0.1,0.3l0.2,0.2l0.6,0.4
	l1.1,1.2l0.1,0.4l-0.2,0.1l-0.2,0.2l0.2,0.2l0.2,0l0.3-0.1l0.2,0l1,0.3l0.7,0.4l0.8,1.2l1.3,0.8l0.6,0.7l2,2l1,0.3l0.8,0.6l0.1,0.2
	l0.2,0.1l0.4-0.2l0.3-0.1l0.5,0.1l0.9,0.3l0.5-0.1l0.3,0.1l0.6,0.6l0.9,1.5l0,0.3l0.2,0.1l0.1-0.2l0.2,0l0.8,0l0.6,0.3l0.2,0.2
	l-0.6,0.7l0.2,0l0.4-0.2l0.5,0l0.3-0.1l0.7-0.1l0.4,0.2l0.3,0.4l0.2,0.5l0.2,0.5l-0.3,0.4l0,0.3l0.1,0.1l1.7,1l0.5,0.1l0.9,0
	l0.5-0.1l0.4,0.7l0.5,1.4l0.8,1.6l0.3,1.3l0.2,0.7l0.5,0.5l0,1.1l-0.6,0.1L682.9,8l-0.2,0.2l-0.2,0.3l0.1,0.8l-0.4,1.1l-0.6,0.2
	l-0.3,0.5l0,0.8l0.4,0.6l1.6,0l0.2-0.5l0.2-0.4l0.6-1l1.2-0.9l0.1-0.5L685.7,8l0.3-0.5l0.7-0.5l0.9-0.3l0.7,0.1l0.4-0.5l-0.3-0.8
	l-0.1-1.4l-0.6-0.6l-0.9-0.6l-1.1-0.4l-0.4-0.6l0-0.7l0.6-1.1l0.6-1.1l0.6-0.8l0.5-0.3l0.7,0.1l0.2,0.1l0.2,0.3l0,0.2l0.7,0.3
	l0.4,0.1l1.9,0.2l1.1,1.5l0.7,0.5l0.6,0.2l0.2-0.5l0.1-0.5l0.3-0.2L694.5-0.3z M665.9-21.3l-0.3,0l-0.1-0.2l0.2-0.3l0.3,0l0.1,0.2
	L665.9-21.3z"/>
<polygon class="st0" points="533.5,109.6 533.2,109.4 532.7,108.9 532.3,108.7 531.6,108.8 531.2,108.7 530.7,108.6 530.3,108.6 
	530.1,108.9 530,109.1 529.6,109.2 529,109.4 528.1,109.7 527.6,109.6 527.5,109.5 527.5,109.3 527.8,109.1 527.8,108.8 
	527.7,108.6 527.4,108.5 527.2,108.5 527.1,108.4 526.5,108.3 526,108.3 525.2,108.6 523.9,109.5 523.4,110 523.1,110.9 
	521.7,111.2 520.8,111.7 520,112.5 519.4,112.9 519,113 518.7,112.9 518.3,112.7 517.9,112 517.4,111 517,110.3 516.9,109.5 
	516.8,108.5 516.7,107.5 516.7,106.3 516.8,105.9 516.7,105.6 516.5,105.5 516.2,105.5 515.8,105.7 515.5,105.7 515.2,105.6 
	515.1,105.1 515.2,104.1 514.6,103.3 513.5,102.6 512.6,102.4 511.9,102.6 511.5,103.1 511.2,104 510.9,104.7 510.5,105.2 
	510.2,105.5 510.1,105.6 510.1,105.8 510.5,106.5 510.6,107.1 510.4,107.6 510.1,107.8 509.8,107.8 509.4,107.7 509.2,107.5 
	508.6,107.4 507.7,107.5 507.1,107.8 506.8,108.2 506.8,108.7 507.1,109.3 507.1,109.8 506.9,110.2 506.7,110.4 506.5,110.4 
	506.1,110.1 505.3,109.5 504.8,109.1 504.6,109.1 504.4,109.1 504.3,109.2 504.2,109.3 504.2,109.5 504,109.5 503.7,109.5 
	503.5,109.5 503.4,109.7 503,110 502.3,110.3 501.9,110.6 501.9,110.9 501.8,111 501.6,111 500.9,111.4 500.4,111.2 499.7,110.7 
	499.3,110.2 499.2,110.1 499.1,109.9 498.8,109.7 498.4,109.7 498.1,109.7 497.9,109.5 497.5,109.5 497,109.8 496.4,109.7 
	495.6,109.1 494.4,108.9 493,109 492.7,109 492.1,108.9 490.9,108.6 489.8,108 489.1,107.7 489,107.7 488.7,108 488.6,108.3 
	488.5,108.9 488.4,109.6 487.2,109.6 486.2,109.7 485.6,109.9 485,110.3 484.9,110.7 484.9,111.3 484.7,112.6 484.6,113.7 
	484.6,114.5 484.4,115 483.8,115.7 483,116.2 482.6,116.4 482.5,116.7 482.5,116.9 482.3,117 482,116.9 481.6,117 480.9,117.2 
	480,117.6 479.1,117.9 478.5,117.9 478.2,118 478.2,118.1 478.3,118.4 478.5,118.7 478.6,119 478.4,119.2 478.3,119.6 478.3,120.4 
	478,120.6 477.4,120.9 476.8,121.4 476.7,121.5 476.3,121.6 476,121.6 475.6,121.5 475.2,121.6 474.9,122 474.7,121.9 474.6,121.5 
	474.3,121.3 473.6,120.8 473.1,120.4 472.8,120.3 472.4,120.4 471.8,120.5 471.3,120.4 470.9,120.3 470.2,119.8 470,119.5 
	469.8,119.3 469.4,119.3 469.5,119.7 469.6,120 469.4,120.2 469.4,120.5 469.3,120.9 469.3,121.2 469.1,121.3 468.9,121.4 
	469,121.8 469.2,122.1 469.4,122.5 469.3,122.7 469.2,123 469.1,123.5 469.2,123.9 469.1,124.2 468.9,124.5 468.8,124.7 
	468.8,125.1 468.7,125.2 468.4,125.5 468.2,125.6 467.9,125.7 467.8,125.9 467.9,126 468.1,126.1 468.3,126.5 468.8,127 
	467.6,127.1 467.4,127.6 467.1,128.4 467.5,129.9 467.4,130.6 467.6,131 468,131.3 468.4,131.5 469.2,131.5 469.7,131.6 
	469.7,131.8 469.5,132.1 469.1,132.7 468.9,132.9 468.3,134 468.4,134.5 468.5,134.8 469.1,136 469.6,137.1 470.5,139.2 
	470.5,139.7 470.5,140.7 470.6,141.4 470.8,142.2 470.8,142.6 471.1,143.6 471.3,143.7 472.5,143.9 473.7,144 475.3,144.3 
	475.9,144.8 476.4,146.1 476.5,147 476.4,147.5 475.5,148.8 474.6,150.2 473.6,151.6 472.5,153.2 474.5,153.8 476.1,154.3 
	478.5,155.1 480.5,155.7 481,155.8 486.4,155.3 488.4,155.7 489.1,155.9 489.2,155.8 489.4,155.5 489.8,155.2 490.5,155 
	491.1,154.9 492,154.9 492.6,154.9 493.1,154.9 493.9,154.9 494.3,154.8 495.7,154.4 496.7,154.1 498.1,153.6 499.1,153.3 
	499.3,153.1 499.6,152.8 499.6,152.5 499.3,152.1 499.2,151.7 499.3,151.2 499.3,150.4 499.1,149.4 498.9,148.8 499.1,147.6 
	499.2,147 499.7,146.7 500,146.5 500.1,146.4 500.2,146.2 500.6,145.4 501,144.9 501.5,144.7 502,144.7 502.5,145.1 503.3,145.2 
	504.1,145.1 504.8,144.9 505.1,144.7 505.5,144.5 505.4,144.3 504.9,144.1 504.7,143.8 504.5,143.5 504.7,143.3 505.3,143.3 
	506.5,142.5 507,142 507.1,141.8 507.4,141.8 507.9,142 508.5,142.1 508.9,141.8 509.3,141.8 509.7,142.1 509.9,142.4 510.3,142.7 
	510.8,142.8 511.3,142.6 511.7,142.2 512.1,141.6 512.5,141 512.1,139.2 511.8,138.1 511.9,137.5 512.2,137.2 512.3,136.7 
	512.2,136.2 512.4,135.8 512.5,134.7 512.7,134.4 513.4,134.2 514.4,134.1 515.2,133.6 515.9,133.1 515.9,132.6 515.5,132.1 
	514.9,131.2 514.4,130.6 513.3,129.5 513.3,128.9 513.7,128.6 515.1,129.1 515.5,129.1 515.9,129.2 517.1,129.2 518,129 
	518.9,128.6 519,128.2 518.9,127.7 518.9,127.3 518.8,126.7 518.3,126.4 518.1,126.1 517.9,125.8 518.2,125.6 518.3,125.4 
	518.5,124.9 518.9,124.3 519.1,123.8 519.4,123.5 519.8,123.2 520,122.7 520.1,122.4 520.3,122.1 520.4,121.9 520.3,121.8 
	520.1,121.5 519.9,121.3 519.8,121.1 519.9,120.8 520,120.6 519.9,120.3 519.7,119.8 519.4,119.5 519,118.8 518.6,118 518.4,117.8 
	518.1,117.4 517.4,117.1 517.2,116.8 517.3,116.3 517.7,116 518.2,115.3 518.5,114.8 518.8,114.4 519.3,114.5 519.6,114.5 
	519.7,114.2 520.1,113.9 520.9,113.3 521.1,112.9 521.5,112.7 521.8,112.6 522.3,112.5 522.8,112.3 523.2,112.1 523.9,112.1 
	524.9,112 525.5,111.9 526.9,111.8 528.5,111.8 528.6,111.7 529.4,112 529.9,112.1 530,112.1 530.7,111.7 531.7,111.2 532.2,110.9 
	532.1,110.9 531.9,110.7 531.3,110.3 531.2,110.1 532,109.7 532.5,109.5 532.7,109.3 532.8,109.4 533,109.6 533.4,109.7 
	533.6,109.7 "/>
<rect x="340.3" y="42.4" style="fill-rule:evenodd;clip-rule:evenodd;fill:none;" width="140.7" height="120.4"/>
<text transform="matrix(1 0 0 1 340.2793 50.9595)" style="opacity:0.4;"><tspan x="0" y="0" class="st3" style="font-family:'MyriadPro-Regular';">American Samoa</tspan><tspan x="0" y="14.4" class="st3" style="font-family:'MyriadPro-Regular';">Turks and Caicos Islands</tspan><tspan x="0" y="28.8" class="st3" style="font-family:'MyriadPro-Regular';">Sint Maarten</tspan><tspan x="0" y="43.2" class="st3" style="font-family:'MyriadPro-Regular';">Saint Lucia</tspan><tspan x="0" y="57.6" class="st3" style="font-family:'MyriadPro-Regular';">British Virgin Islands</tspan></text>
<text transform="matrix(1 0 0 1 22 37)" class="st2 st3">American Samoa</text>
<rect x="171.4" y="133.1" class="st4" width="78.5" height="59.4"/>
<text transform="matrix(1 0 0 1 171.4375 140.6826)" class="st2 st3">Saint Lucia</text>
<rect x="153.5" y="21.7" class="st4" width="206.5" height="37.3"/>
<text transform="matrix(1 0 0 1 153.5322 29.2407)" class="st2 st3">Turks and Caicos Islands</text>
<rect x="177.6" y="187.5" class="st4" width="96.2" height="44.4"/>
<text transform="matrix(1 0 0 1 177.6045 195.0469)"><tspan x="0" y="0" class="st2 st3">British Virgin </tspan><tspan x="0" y="14.4" class="st2 st3">Islands</tspan></text>
<rect x="18.2" y="197.6" class="st4" width="127.8" height="30.3"/>
<text transform="matrix(1 0 0 1 18.2339 205.1934)" class="st5 st2 st3">Sint Maarten</text>
<image style="overflow:visible;" width="1732" height="404" xlink:href="../Screen Shot 2018-12-03 at 9.00.49 PM.png"  transform="matrix(0.5 0 0 0.5 -236 330)">
</image>
<path class="st6" d="M37.9,105.9L37.9,105.9l0.3,0.1l0.1-0.1l0-0.1l-0.1-0.1h-0.1L37.9,105.9z M26.7,112.9l-0.2,0.2l0,0.3l0.1,0.1
	h0.2l0.2-0.2l0-0.3l-0.1-0.1H26.7z M30.4,108l0.2-0.2l-0.2-0.2h-0.1l-0.2,0.2l0.2,0.2H30.4z M25.9,111.8l-0.2,0.2l0,0.3l0.2,0.2h0.2
	l0.2-0.2l0-0.3l-0.2-0.2H25.9z M35.9,106.5L35.9,106.5l0.1-0.2l-0.1-0.1h-0.2l-0.1,0.1l0,0.1l0.1,0.1L35.9,106.5z M59.5,99.9
	l0.2-0.2l-0.1-0.1h-0.2l-0.2,0.2l0.1,0.1H59.5z M67.5,99.1L67.5,99.1l0-0.1h-0.1L67.3,99l0,0.1H67.5z M52.4,97.6l0.3,0.2l0.2-0.5
	l-0.1-0.6l-0.2-0.2h-0.2l-0.2,0.3l0.2,0.4L52.4,97.6z M98.1,89.4h-0.2l-0.8-0.8l-0.5,0l-0.1,0.1l-0.6,0l-0.1,0.1l-1.6,0L94,88.7
	l-1.2-0.1l-0.1,0.1l-0.4,0l-0.1,0.1l-0.5,0l-0.6,0.4l-0.5,0l-0.1-0.1l-0.4,0L90,89.2h-0.2l-0.1-0.1h-0.5l-0.1,0.1l-0.2,0l-0.1-0.1
	L88.1,89l-0.4,0.3l-0.6,0L87,89.4l-0.5,0l-0.3-0.3h-0.2l-0.3-0.5h-0.1l-0.1,0.3l-0.3,0.2l-0.4,0.7l-0.4,0.1l-0.1-0.3l-0.1,0
	l-0.5,0.3l-0.1,0.4l0.3,0.5l0.1,1.1l0.3,0.5l0,0.3l0.4,0.8l0.3,0.1l0.4,0.5l0.2,0.1l0,0.4l0.3,0.7l0.1,0.7l0.1,0.1l0.1,0.6l-0.1,0.1
	l0.4,1l0.5,0.6h0.4l0.3-0.1l0.1,0.1l0.2,0l0.2-0.2l0-0.4l0.2-0.2l0.5-0.1l0.3-0.3l0.4-0.8l0.1-0.3l0.6-0.6l0.2-0.1l0.4,0l0.5-0.4
	l0.3,0l0.1-0.1h0.4l0.1,0.1l0.3-0.1l0.6,0l0.1,0.1l0.6,0.1l0.7,0.4l0.3,0.4l0.3-0.1l0.6,0.1l0.1,0.1l0.4,0l0.1,0.1l0.6,0l0.5-0.5
	l0.1-1.5l0.1-0.1l0-1.1l0.1-0.1l0-0.4l0.3-0.6l-0.2-0.6l0.3-0.4l-0.1-0.3l0.1-0.1l0-0.4l0.1-0.1l-0.1-0.3L98.1,89.4z M412.8,147.3
	L412.8,147.3l0.2,0.1l0.1-0.1l0-0.1l-0.1-0.1L412.8,147.3z M109.2,78.5l0.1-0.1l0.1-0.7l-0.1-0.1l0-0.3l0.1-0.1l0.1-0.6l-0.1-0.3
	l-0.3-0.2l-0.4,0l-0.4,0.3l-0.4,1l-0.3,0.3h-0.2l-0.5,0.4l-0.5,0l-0.3,0.2l0.1,0.3l0.3,0.3l0,0.1l0.4,0.5l0,0.3l0.5,0.4l0.1,0.3
	l0,0.1l0.5,0.7L108,82l0.5,0.5l0.6-1.7l0.4-0.6l0-0.4l-0.4-0.8L109.2,78.5z M413.8,148.6l-0.2,0l-0.1,0.1l0,0.3l0.2,0.2h0.1l0.2-0.2
	l0-0.1L413.8,148.6z M105,77.8l-0.5,0.3l-0.8,0l-0.1-0.1l-0.6,0l-0.1-0.1l-0.7,0l-0.3-0.3l-0.8-0.1l0-0.2l-0.5-0.3h-1l-0.2-0.3
	l-0.3,0.3l0,0.4l0.1,0.1l0,0.4l-0.2,0.3l0.2,0.3l0,0.3l0.2,0.3L99,79.3l0.1,0.1l0,0.3l0.1,0.1l0.1,0.6l0.4,0.6l0.5,0.3l0.5,0L101,81
	h0.4l0.8-0.4l1.1-1.1l0.9-0.6l0.3-0.3l0.2,0l0.1,0.1l0.5,0l0.4-0.3l0.3-0.1l0-0.1l-0.5-0.5L105,77.8z M196.2,86.8L196.2,86.8
	l-0.1,0.2l0.1,0.1h0.1l0.1-0.1l0-0.1l-0.1-0.1L196.2,86.8z M69.4,104.9l-0.1-0.1h-0.6l-0.3,0.1l-0.1,0.2l-0.3,0.3l0,0.6l0.3,0.3
	l0.5,0l0.1,0.1h0.4l0.1,0.1l0.5-0.1L70,106l0.1-0.1l0-0.9l-0.2-0.1L69.4,104.9z M196,85.6l0,0.3l0.2,0.3l-0.2,0.4l0.2,0.1l0.2-0.2
	l0.2-0.4l-0.4-0.5L196,85.6z M68.3,101.2l0-0.1l-0.4-0.5l-0.1-0.6l0.7-0.8l-0.4-0.1l-0.4,0.3h-0.8l-0.1-0.1l-1-0.1l-0.1,0.1l0.2,0.6
	l-0.4,0.3l-0.2,0.4H65l-0.1,0.2l-0.3,0.3l0.1,0.8l-0.2,0.2h-0.2l-0.3-0.2l0.1-0.1l0-0.3l-0.2,0l-0.3-0.3h-0.4l-0.1-0.1l-0.5,0.1
	l-0.3-0.3l-0.2,0l-0.2,0.5l-0.2,0.1l0-0.2l-0.3-0.2h-0.4l-0.3-0.4h-0.1l-0.9,0.7l-1.1,0.1l-0.3-0.4l0.2-0.3h0.2l0.2-0.2l0-0.3
	l-0.3-0.3L58,99.8l-0.3,0.3l-0.3-0.4L57,99.5l-0.1-0.1l-0.3,0.2l-0.2,0.3l0-0.3l-0.2-0.1l-0.3,0.3l0.1,0.7l-0.4,0.1l-0.5,0.4
	l-0.3-0.2l0-0.3l0.3-0.4l0.2-0.7l-0.3-0.1l-0.5,0.4l-0.4-0.7l-0.4,0.3l-0.2-0.1h-0.4L52,100h-0.2l-0.2-0.2l0-0.3l0.3-0.2l0.6-0.8
	l0-0.3l-0.2-0.2L52,98.2l-0.8,0.7l-0.5,0l-0.4,0.6l-0.2-0.1h-0.4l-0.2,0.2l0.1,0.4l-0.3,0.3h-0.1l-0.1-0.1h-0.4l-0.5,0.4h-0.4
	l-0.4,0.7l-0.2,0.1l-0.1,0.2l-0.3,0.1l-0.2-0.3h-0.2l-0.3,0.4l0,0.6l-0.1,0.1l-0.2-0.1l-0.2,0.2l-0.3,0.7l-0.7,0.5l-0.1,0.7l0.1,0.1
	l-0.1,0.6l0.1,0.1l0,0.6l-0.2,0.2h-0.2l-0.3-0.2l-0.2-0.3l-0.3-0.1l0-0.3l-0.2-0.1l-0.7,0.7l-0.6,0.3l-0.4,0.7h-0.7l-0.3,0.4
	l-0.5,0.3h-0.1l-0.3-0.5h-0.4l-0.1,0.1l-0.2-0.2l0-0.1l0.3-0.3l-0.2-0.2h-0.5l-0.1,0.1l-0.5,0.1l-0.7,0.7l-0.2-0.1h-0.3l-0.1,0.1
	l-0.1-0.1h-0.2l-0.1,0.2l-0.3,0.2l-0.3-0.3l0-0.3l-0.4-0.6l-0.4,0.7l-0.2-0.1l0-0.2h-0.1l-0.3,0.3l-0.2-0.1l-0.4,0.1l-0.2-0.3h-0.1
	l-0.1,0.3l-0.2,0.2l-0.1-0.1h-1.1l-0.5,0.3l0.1,0.4l-0.2,0.2l-0.4,0l-0.2,0.2l-0.1,0.5l-0.3-0.4h-0.1l-0.1,0.3l-0.2,0.2l-0.1-0.1
	h-0.5l-0.2,0.2l0,0.4l-0.5,0.6h-0.2l-0.2,0.2l-0.3,1l-0.3,0.4H27l-0.3,0.3l0,0.1l0.3,0.4l0.7,0.3l0.3,0.3l0,0.3l-0.1,0.1l0,0.2h0.2
	l0.4-0.4l0.5,0.3h0.2l0.1,0.1h0.2l0.3,0.3l0.5-0.1l0.7-0.8l0.3-0.1h0.4l0,0.3l-0.3,0.3l0.4,0.4l1.1,0.1l0.5-0.3l0.3,0.6l0.2-0.1
	l0.2,0.1l-0.2,0.6l0.2,0.1l0.3-0.1l0,0.3l-0.1,0.1l-0.1,1.5l0.2,0.4l0,0.4l0.3,0.5h0.2l0.8,0.7l0.4,0.1l0.4,0.4l0.4-0.3l0.8,0
	l0.2,0.3l-0.3,0.3l-0.1,0l-0.2,0.4l0.5,0.5l0.5-0.1l0.5-0.5l0-1l0.2-0.2H39l0.1-0.1h0.7l0.6,0.6h0.2l0.7-0.8h0.1l0.3-0.6l0.2-0.1
	l0.9-1l0.6-0.3l0.2-0.2l0-0.4l0.1-0.3l0.6-0.8h0.1L45,114l0.3-0.7l0.1-0.1l0.2,0.3h0.1l0.1-0.3l-0.3-0.4l0.1-0.1l0.3-0.1h0.8
	l0.1-0.2l-1.4-0.1l-0.2-0.1l-0.3-0.3l0-0.1l-0.1-0.1l0.1-0.2h0.7l0.6-0.6l0.5-0.1l0,0.2l-0.3,0.3l0,0.3l-0.4,0.4l0.3,0.2h0.2
	l0.7-0.8l0.7-1.4l0.3-0.7l0.3-0.3l0.6-0.3l0.3-0.3H50l0.6-0.3l0.5-0.5l0-0.2l-0.9-0.5l0.2-0.3h0.2l0.5-0.3L51,106l0-0.4l-0.1-0.3
	l-0.2-0.2h-0.2l-0.4-0.8H49l-0.1,0.1l-0.3-0.4l-0.3-0.1l-0.3-0.3l-0.3-0.1l0.2-0.2h0.8l0.1,0.1h0.6l0.1-0.1h0.6l0.1-0.1h0.6l0.1-0.1
	l0.7,0l0.5,0.3h0.2l0.1,0.1h0.2l0.1,0.1l0.3,0.2l0,0.3l-0.3,0.4l-0.1,1.1l0.1,0.1l0,0.1l0.4,0.5h0.2l0.1,0.1l0.6-0.1l0.4-0.3
	l0.1,0.1h0.3l0.1-0.1l0.1,0.1l0.2,0l0.3-0.1l0.7-0.6l0.2-0.5h0.1l0.1-0.1h1.1l0.5-0.3l0.3-0.3l0.1,0l0.3-0.4l-0.1-0.3l0.3-0.3
	l0.3-0.1l1-0.1l0.2,0.4h0.4l0.3,0.3l0.2,0.6l0,0.4l-0.1,0.1l0.5,0.6h0.4l1-0.6l1-0.9l0.1-0.3l0.3-0.1h0.4l0.1,0.1l0.6,0l0.5-0.4
	l0.1,0.1H67l0.1-0.1l0.4-0.2l0.3-1l0.5-0.7L68.3,101.2z"/>
<path class="st6" d="M43.6,73.1l1.7,1.8l0.5,0.3l1,0l1-0.5l1-1.1h0.5l1.2-1.2l0.2-0.3l0.1-0.3l0.1-0.8l-0.2-0.6L49.3,69h-2.5l-1,0.6
	h-0.7l-0.2,0.3l-1,0.3l-0.7,1l-0.1,1.1l0.5,0.5L43.6,73.1z M267.3,413.2L267.3,413.2l0.1,0l0,0l0-0.1l0,0L267.3,413.2z M267.9,413.9
	l-0.1,0l0,0l0,0.2l0.1,0.1h0.1l0.1-0.1l0-0.1L267.9,413.9z"/>
<path class="st7" d="M202.7,45l-0.2-0.2l0-0.1l-0.1-0.1h-0.8l-0.1-0.1l-0.2,0.1l-0.1,0.2l-0.1,0.1l-0.2,0.1l-0.1,0.2l0.5,0.1
	l0.1,0.1l0.4-0.1l0.1,0.2l0.1,0.1l0.2-0.1l0.5,0l0.2-0.2l0-0.3l-0.1-0.1H202.7z M203.8,43.5l-0.3-0.6l0.1-0.4l-0.1-0.3l0.3-0.4
	l0-0.1l0.1-0.1l0-0.2l-0.2,0l-0.2,0.2l-0.6,0.2l-0.3,0.1l-0.1,0l-0.1,0.1l-0.1,0.6l-0.1,0.1l0,0.1l0.1,0.1l0,0.1l-0.1,0.1l0,0.4
	l0.1,0.1l-0.1,0.3l-0.2,0.2v0.1l0.9,0l0.1,0.2l0.4,0l0.1,0.1l0.2-0.2l0.1-0.3l0.2,0l0.2-0.2l-0.2-0.3L203.8,43.5z M216.2,53.6
	L216.2,53.6l0,0.2l0.2-0.1l0-0.1l0-0.1l-0.1,0L216.2,53.6z M198.9,48.1h-0.3l-0.4,0.4l-0.2,0.1l-0.4,0.4l-0.1,0l-0.2,0.1l-0.1,0
	l-0.5,0.3l0,0.1l0.5,0.2l0.1,0l0.3-0.2l0.1,0.1l-0.1,0.1l0,0l0.2,0l0.2-0.1h0.2l0.1-0.1l0.8,0l0.1-0.1V49l-0.1-0.1l0-0.1l0.1-0.3
	v-0.1l-0.2-0.2L198.9,48.1z M215.1,44L215.1,44l0,0.3l0.1,0l0.1-0.1l-0.1-0.2L215.1,44z M214.9,53.8h0.3l0.1-0.1l0.1,0.1l0.1,0
	l0.1-0.1l0.1-0.2l0.2-0.1l0,0.1l0.1,0l0.3-0.2l0.4-0.1l0.2,0l0.3-0.1l0.2-0.2l0.2-0.1l0.2-0.3l0.1-0.1l0.2,0.1l0.4,0l0.1-0.1l0-0.1
	l0.1-0.1l0-0.1l0.2,0.1l0.2,0l0.3-0.2l0.2-0.2l0.2,0l0.2-0.2l-0.1-0.5l-0.3-0.1l-0.1-0.2l0.1-0.1l0-0.2l0.1-0.1l0.2,0l0.1-0.1l0-0.4
	l-0.2-0.3l-0.2,0l-0.3-0.1l-0.3-0.1l-0.1,0.1l0.2,0.5l0.1,0l0,0.1l-0.1,0.1l-0.3,0.1l-0.1,0.2l-0.1-0.1l-0.5,0l0-0.1l0.2-0.1l0.3,0
	l0.2-0.1l-0.2-0.5l-0.2-0.3l-0.3-0.2l-0.1,0.1l0.1,0.2l0,0.1l-0.1,0l-0.2-0.1l-0.1,0l-0.2-0.1l-0.8-0.7l0-0.1l-0.1,0l0-0.1l-0.3-0.2
	l0-0.1l-0.4-0.5l-0.4-1.1l-0.3-1.1l-0.1-0.4v-0.2l0.1-0.2l-0.1-0.2l0-1.1l0.3-0.4l0-0.3l0.1-0.1l0.2-0.1l0.2-0.1l0.2-0.5l-0.1-0.3
	l-0.2-0.2l-0.2-0.1l-0.2,0l-0.1,0.1l0.1,0.3l-0.1,0.3l-0.1,0.2l-0.1,0l0.1-0.1l0-0.5l-0.1-0.2l-0.3-0.2l0.5,0.2l0.3,0l0.1-0.1
	l-0.2-0.2l-0.2-0.1l-0.2-0.1l-0.3,0l-0.2-0.1l-0.4-0.1l-0.1-0.1h-0.2l-0.1-0.1l-0.8-0.1l-0.6-0.3l-0.5,0l-0.1,0.1l-0.1,0l-0.1-0.1
	l-0.3,0l-0.5-0.2l-0.6-0.1l-0.6-0.2l-0.5,0l-0.2,0.1l-0.5,0l-0.1,0.2l-0.1-0.1l-1.4,0l-0.1-0.1L206,40l-0.3,0.1l-0.1,0.1l-0.4,0
	l-0.1,0.1l-0.3,0.5l-0.1,0.3l-0.5,0.4V42l-0.2,0.2l-0.1,0.1l0,0.4l0.1,0l0.1-0.1l0.1,0l0,0.2l0.1,0.3v0.2l0.1,0.1l0,0.5l0.1,0.1
	l0,0.1l0.2,0.2l0.4,0.1l0.1-0.1l0.1,0l0.1-0.1l0.2,0l-0.2,0l-0.1,0.1l0,0.1l0.5,0.8l0,0.1l0.1,0.1l0,0.1l-0.1-0.1l-0.2-0.1l-0.2,0.2
	l0,0.2l-0.4,0l0,0.2l0.1,0.2l0,0.4l0.1,0.1h0.2l0.2,0.2v0.2l-0.1,0.1l0,0.1h0.5l0.1-0.1l0.1-0.1l0.2,0l0.1-0.1l0.1,0.1l0.1,0
	l0.1,0.1h0.4l0.1,0.1l0.1,0l0,0l-0.2,0l-0.1-0.1l-0.5,0l-0.1-0.1l0,0.1l-0.1,0l-0.2,0.3h-0.2l-0.2,0.1v0.3l-0.3,0.4h-0.2l-0.4-0.3
	h-0.3l-0.4,0.3l0.1,0.2h0.2l0.1,0.1l0,0.5l0.3,0l0.3-0.2l0.2,0l0.1-0.1l0.3,0l0.2,0.1l0.1,0l0.1-0.1h0.3l0.5,0.2l0.2,0l0.1,0.1
	l0.1,0l0.2,0.2l0,0.3l0.2,0.1h0.2l0.2,0.2l0.4,0.4l0.5,0.2l0.2,0l0.4,0.1l0.2,0l0.3,0.1l0.1,0.2l0.2,0.1l0.2-0.2l0.4-0.1l0.1-0.1
	l0,0.2l-0.2,0.1h-0.2l-0.2,0.1l0,0.1l0.2,0.2l0.4,0.1l0.6,0.4l0.5,0.3l0.3,0l0.1-0.1l0.2,0.1l0,0.1l-0.5,0.1l-0.1,0l-0.2-0.2l-0.4,0
	l-0.2-0.1l-0.2,0l0,0.1l0.3,0.3l-0.1,0.1l-0.1,0.1l0.1,0.2l0.7,0l0.1,0.1l0.3,0l0.2,0.2l0.3,0l0.1,0.1l0.2,0l0.2,0.1l0.5,0.1
	l0.2,0.1l0.1,0.2l0.3,0L214.9,53.8z M201.2,48.7l-0.2-0.2l-0.1,0l-0.1,0.1l0.1,0.5l-0.1,0.1l0.2,0.2l0.1,0l0.1,0.1l0.2-0.1V49
	l-0.1-0.2L201.2,48.7z M201.7,46L201.7,46l-0.3-0.1l0,0.2l0.1,0.1l-0.3,0.1l-0.1,0.2l0.2,0l0.1,0.1h0.4l0.3-0.4l0-0.2L201.7,46z
	 M200.8,48.1l-0.2,0l-0.2,0.1l0,0.1l-0.1,0v0.1l0.2,0l0.5-0.3L200.8,48.1z M200.8,46.5l-0.1-0.6l-0.1-0.1h-0.4l-0.3,0.3h-0.1
	l-0.1,0.2v0.3l0.1,0.1l-0.1,0.2l-0.2,0.4L199,48V48l0.4,0.2l0.1,0l0.3-0.2l0.3-0.1l0.3-0.3l0.1-0.1h0.2l0.1-0.1h0.1l0.4-0.4l0.1-0.4
	l-0.5-0.1L200.8,46.5z M202.9,45.7l-0.1,0l0,0l0,0.1l0.1,0.1l0.1,0l0,0l0-0.1L202.9,45.7z M235.3,62.4l0,0.2l0.1,0.1l0.2-0.1l0-0.2
	l-0.1-0.1l-0.2,0L235.3,62.4z M215.1,54.4l-0.3,0l-0.2,0.1l0,0.1l0.4,0.2l0.2,0l0.1-0.1l-0.1-0.2L215.1,54.4z M236.3,61.9
	L236.3,61.9l-0.3-0.1l-0.1,0.3l-0.1,0l-0.1,0.1l0.1,0.1l0.5-0.1l0.5,0l0.1-0.2l-0.1-0.1L236.3,61.9z M231.4,107l-0.2,0l-0.2,0.2
	l0,0.2l0.2,0.2l0.1,0l0.2-0.2l0-0.1L231.4,107z M239.3,60.3l-0.1,0.2l0,0.2l0.1,0.1l0.2,0l0.2-0.3l-0.2-0.6l-0.1,0.1L239.3,60.3z
	 M231.7,95.8l-0.4,0.1l0,0.2l0.4,0.2l0.5,0l0-0.4l-0.2-0.1L231.7,95.8z M226.8,106.1l-0.1-0.1l-0.1,0.1l0,0.2l0.2,0l0.1-0.1
	L226.8,106.1L226.8,106.1z M224.8,106.1l-0.2,0.3l0,0.1l0.1,0.1l0.2,0l0.2-0.2l0-0.1l-0.1-0.1L224.8,106.1z M221.5,60.5l-0.2,0.1
	l-0.1,0.3l0.1,0.1l0.1,0l0.1-0.1l0.1-0.2L221.5,60.5L221.5,60.5z M225.9,105.7l-0.2,0.3l0.1,0.2l0.3,0l0.1-0.1l-0.2-0.3L225.9,105.7
	z M232.4,61.6l0.3,0.2l0.1-0.1l0.5,0l0.1-0.1l0-0.3l-0.1-0.2l0-0.1l0.1,0.2l0.1,0.3l0.2,0.1l0.1,0l0.2,0.3l0.2,0.1l0.1,0l0.3-0.1
	l0.1-0.2l0.2,0l0.2-0.2l0.2-0.1l0.7,0.1l0.1-0.1h0.3l0.1,0.1l0.4-0.1l0.2-0.1l0.2-0.2l0.2-0.1h0.3l0.4-0.1l0.3,0l0.3-0.2l0.1-0.1
	v-0.3l0.1-0.2l0.2-0.2l0-0.4l-0.2-0.3l0.1-0.2l-0.2-0.3l-0.1,0l0.1-0.1l0-0.3l-0.1-0.2l0.1-0.2l0.4,0.4l0,0.2l0.1,0.1h0.1l0.1-0.1
	l0-0.3l0.1,0l0.1-0.1l-0.1-0.3l-0.3-0.1l-0.3-0.3l-0.4,0.1l-0.1-0.1l-0.2,0l-0.2-0.2l-0.4-0.5l-0.2-0.3l0-0.2l0-0.1l0.1-0.2
	l-0.1-0.3l0.2-0.1l-0.2-0.5l0.1,0l0.2,0.5l0.1,0.1l-0.1,0.4l0.1,0.1l0.1,0.2l0,0.4l0.3,0.5l0.4,0l0.1-0.1l0-0.4l0.2-0.4l0-0.6
	l-0.4-0.3l-0.1,0l0-0.1l-0.1-0.1l-0.3-0.3l-0.1-0.3l-0.2-0.3l-0.2-0.5l-0.1-0.6l-0.1-0.1l0-0.4L237,52l0-0.1l0.1-0.1l-0.1-0.2
	l-0.2-0.1l-0.5-0.5L236,51l-0.1-0.2l-0.1-0.3l-0.1,0l-0.4,0.1l-0.2-0.1l-0.1,0.1l-0.3,0.1l-0.7-0.2l-0.3-0.3l-0.2-0.1l-0.2,0
	l-0.1,0.1l0,0.2l-0.1,0.2l-0.2,0.1l-0.3,0l-0.1,0.1l-0.1,0.1l-0.6,0l-0.1-0.1l-0.2,0l-0.3,0.1l-0.1-0.1h-0.6l-0.6-0.2l-0.2-0.1
	l-0.5-0.3l-0.3-0.1l-1.1-0.1l-0.6,0.2l-0.4,0.2l-0.3,0l-0.1,0.1l-0.8,0l-0.9-0.1l-0.2,0l-0.1-0.1l-0.2,0l-0.3-0.3l-0.3,0l-0.4-0.2
	l-0.1,0l-0.4-0.3l-0.1,0l-0.1-0.2l-0.3-0.1l-0.3-0.6l-0.3-0.3l-0.1,0l-0.1,0.1l-0.1,0.2l0,0.2l-0.2,0.1l-0.5,0l-0.3,0.1l-0.1,0.3
	l0.1,0.1l0.2,0l0,0.2l0,0.1l-0.1,0.1l0,0.3l0.1,0.1l-0.1,0.1l0,0.4l0.1,0.2l-0.1,0.1l0.2,0.1l0,0.2l-0.1,0.1l-0.2-0.1l-0.1,0.1
	l0,0.2l0.1,0.2l-0.1,0.1l-0.1,0.1l0.1,0.3l-0.2,0l-0.2,0.3l-0.1-0.1l-0.2,0l-0.2,0.2l-0.2,0.1l-1.1,0.3l-0.2-0.1l-0.3,0.1l-0.1,0.1
	l-0.1,0.3l-0.4,0l-0.1,0.1l-0.2,0l-0.2,0.2l-0.2,0.2l-0.3,0.2l-0.2,0.1l-0.3,0.3l-0.4,0.2l0,0.4l0.2,0l0.2-0.2l0-0.2l0.1-0.1
	l0.3-0.3l0.4-0.3l0.1,0.1l-0.1,0l-0.7,0.6l-0.1,0.2l0.1,0.1l0.1,0l0.2-0.2l0.1,0L216,55l0.1,0.1l0.3-0.1l0.2-0.1l0.4-0.5l0.1,0
	l-0.2,0.3l0,0.1l0.2,0l-0.1,0.1l-0.1,0l-0.3,0.3l-0.2,0.1l-0.1,0.2l0.1,0.1l-0.2,0.1l0,0.1l0.1,0.1l0.2,0l0.2-0.1l0.2-0.3l0.2-0.1
	l0.5,0l0,0.1l0.1,0.1l0.3-0.3l0,0.2l-0.2,0.3l-0.1-0.1l-0.1,0l-0.6,0.5l0.1,0.1l0.2,0l0.1-0.1l0.2,0l0,0.1l0.1,0.1l0.4,0l0.1,0
	l0-0.1l-0.1-0.1l0.1-0.1l0.1,0.2l-0.3,0.3l0.2,0.2l0.5-0.2l0.2-0.3l0.3-0.2l0,0.1l-0.3,0.3l-0.3,0.4l0,0.1l0.2,0l0.4-0.4l0,0.1
	l-0.1,0.1l0,0.1l0.1,0.1l0.1,0l0.2-0.1l0.9,0l-0.1,0.1l-0.2,0l-0.2,0.1l-0.2,0l-0.2,0.1l-0.3,0l-0.3,0.3l0.3,0.3l0.1,0l0.2,0.1
	l0,0.1l-0.4,0.1l-0.4,0l-0.2,0.2l0,0.3l0.6,0.3l0.1,0.1l1,0l0.3,0.2l0,0.1l0.1,0.1l0.2,0l0.2-0.3l0.3,0l0.2,0.1l-0.3,0.3l0.1,0.3
	l-0.2,0.2l0,0.1l0.3,0.2l0,0.2l0.2,0.1l0.1,0l0.2-0.1l0.3-0.6l0.2-0.6l0-0.2l0.1-0.2l0.1-0.3l0.1-0.1h0.3l0.3-0.1l0.1-0.1l0-0.3
	l0.1-0.2l0-0.2l0.1-0.1l0.5-0.2l0.4-0.4l0,0l-0.1,0.2l-0.5,0.4l-0.1,0.2l-0.1,0l-0.1-0.1l-0.2,0l0,0.1l-0.1,0.1l0,0.3l-0.1,0.2
	l0,0.3l0.2,0.1l0.2,0l0.5,0.1l0.2-0.1l0.2-0.2h0.1l-0.2,0.5l0,0.1l0.2,0l0.3,0.1l0.3,0l0.3-0.2l0.2,0.1l0.1,0.1l0.3,0l0.1-0.1l0-0.2
	l0.1-0.2l0.2-0.3l0-0.1l0.3,0.3l0.2,0.5l0.3,0.1l0,0.1l-0.1,0l-0.1,0.1l0.1,0.2l0.2,0.1l0.1,0l0,0.2l0.2,0l0.1-0.1l0-0.1l0.2-0.1
	l0-0.1l0.2,0l0.1-0.2l0.2,0.2l0.3,0.3l0,0.2l0.1,0.1l0.4-0.1l0.2-0.1l-0.2,0.3l0,0.2l0.1,0.1l0,0.2l0.1,0.2l0,0.2l-0.1,0.1l0,0.3
	l0.1,0.1l0.2,0l0.1-0.2l0.5-0.4l0.1-0.2l0.1-0.1l0.2-0.1l0.1,0.1l0.1,0l0.2-0.2l0-0.1l0.1-0.1l0,0.1l-0.1,0l0,0.1l0.2,0.1l0,0.2
	l-0.2,0.2l-0.3,0.4l-0.4,0.1l-0.2,0.2l0.1,0.2l0.6,0.1l0,0.1l0.2,0l0.1,0.1l0.1,0l0.3-0.3l0.1,0L232.4,61.6z M218.7,46.2l-0.1-0.2
	l-0.1-0.5l-0.1-0.1l0-0.1l-0.2-0.4l-0.1-1l-0.1-0.1l-0.2,0l0,0.7l0.2,0.5l0,0.2l0,0.3l-0.3,0.9l0.1,0.2l-0.5,0.3l0,0.1l0.2,0.2
	l0,0.2l0,0.1l0.2,0l0.2-0.1l0-0.1l-0.2-0.2l0-0.1l0.3,0.3l0,0.1l0.1,0.2l0.1,0.1l0.4,0.1l0.1,0.2l0.2,0.2l0.3-0.1l0.2-0.1l0.1-0.2
	l0-0.2l-0.4-0.6l-0.3-0.3L218.7,46.2z M220.2,51.5L220.2,51.5l-0.1,0.1l0,0.2l0.1,0.1l0.2-0.2l0-0.1L220.2,51.5z M200.1,45.8l0.1,0
	l0.1-0.1l0.5,0l0.1,0.1l0.2,0l0-0.2h-0.3l-0.6-0.3l-0.1,0l-0.1,0.2l0.1,0.1L200.1,45.8z M219.6,48.7l0.2,0l0,0.2l0.1,0.1l0,0.2
	l0.2,0.1l0.1-0.1l0-0.2l0.2-0.2l0.2-0.1l0.1-0.3l0-0.2l-0.2-0.1l-0.1,0.1l-0.1-0.1l-0.5,0.1l-0.2,0.3L219.6,48.7z M215.9,42.4
	l0.3,0.2l-0.3,0.1l0,0.3l-0.1,0.1l0,0.2l0.1,0.1l0.2,0l0.1,0.1l0,0.1l-0.1,0.1l0.1,0.1l-0.1,0.3l0.2,0.1l0.1,0l-0.2,0.3l0,0.1
	l0.1,0.3l-0.3,0.1l-0.1,0.1l0,0.2l0.1,0.1l0,0.2l-0.2,0.2l0,0.1l0.2,0.2l0.1,0.3l0.2,0.2l0.3-0.1l0.1-0.1l0-0.3l-0.2-0.3l0-0.1
	l0.2,0.2l0.3,0l0,0.2l0.3,0.2l0.2,0l0.2-0.5l0-0.6l-0.2-0.5l0-0.6l-0.2-0.2l0.2-0.2l0.1,0.1l0.2,0l0.7,0l0.1,0.1l0.2-0.1l0-0.1
	l0-0.1l-0.1-0.1l-0.1,0l-0.1-0.2l-0.3,0l-0.2-0.6l-0.4-0.2l-0.3-0.1l-0.3-0.2l-0.8-0.7l-0.1,0l-0.1-0.1l-0.2,0l-0.1,0.1l0.2,0.5
	L215.9,42.4z M285.3,89.8l0.1-0.2l0-0.1l0.1-0.1l-0.1-0.1l-0.3,0l-0.1,0.3l0.1,0.2L285.3,89.8z M220.8,48.1h0.3l0.2-0.3l0.1,0l0-0.1
	l-0.3-0.4l-0.1-0.1l-0.4,0.8l0.1,0.1L220.8,48.1z M201.1,46.4l0.2-0.2l0-0.1l0,0l-0.1,0l-0.1,0.1L201.1,46.4L201.1,46.4z M242,56.8
	l0.3-0.1l0-0.1l0-0.1l-0.1-0.1l-0.2,0l-0.1,0.1l0,0.1L242,56.8L242,56.8z M239,57.2l0.1,0l0.2-0.2l0.1-0.4l0.1-0.1l0-0.2l-0.2-0.2
	l-0.3,0l-0.1-0.1l0,0l-0.1,0.1l-0.1,0.5L239,57.2z M186.6,58.7L186.6,58.7l-0.1,0h-0.1l0,0.2l0,0h0.3l0.1-0.1L186.6,58.7L186.6,58.7
	z M188.9,79.2l-0.1,0.1l0,0.2l0.4,0l0.1-0.1v-0.1l-0.2-0.2L188.9,79.2z M186.6,58.3L186.6,58.3l0-0.1l-0.1,0l-0.1-0.1l-0.1,0l0,0.1
	l0.2,0.1L186.6,58.3z M195.4,89.3l-0.2,0l-0.1,0.2l0.2,0.3l0.1,0l0.2-0.2l-0.1-0.1L195.4,89.3z M179.5,55.3L179.5,55.3l0-0.2l0,0
	l-0.1,0l-0.1,0.1l0,0.1l0,0L179.5,55.3z M195.3,50.7l0.3-0.3l0.1,0l0.5-0.5l0-0.1l-0.3,0l-0.3,0.1l-0.1,0.1l-0.3,0.2l-0.1,0.2
	l0.1,0.2L195.3,50.7z M196.6,52.4l-0.1-0.1l-0.1-0.1l-0.1,0l-0.1-0.1h-0.3l-0.4-0.4v-0.2l-0.1-0.2l0-0.1l-0.2-0.1l-0.5,0.4v0.2
	l-0.4,0.5l0,0.1l-0.2,0.3l-0.1,0.4l-0.1,0.3l-0.2,0.2l-0.3,0.1h-0.3l-0.1,0.1l-0.1-0.1l-0.1,0l-0.1,0.1l-0.3,0l-0.3,0.3l-0.4,0.2
	l-1,0.7l-0.1,0l-0.1,0.1h-0.2l-0.1-0.1l-0.4,0l-0.4-0.2l-0.3-0.2h-0.3l-0.4,0.3l-0.1-0.1l-0.5-0.1l-0.1-0.1l-0.6-0.1l-0.1-0.1
	l-0.4,0l-0.1-0.1l-0.2,0l-0.1-0.1l-0.3-0.3l-0.5-0.3l-0.1-0.1h-0.1l-0.7-0.8l-0.1-0.2l-0.4-0.4v-0.1l-0.2-0.2l-0.2-0.4l-0.2-0.2
	l0-0.1l-0.1-0.1v-0.1l-0.3-0.2l0-0.1l-0.8-0.8l-0.3-0.1l-0.3-0.1l-0.1,0l-0.2-0.1l-0.1,0l-0.2-0.2l-0.1-0.4l-0.3-0.2v-0.1l-0.2-0.2
	h-0.1L180,48l-0.1-0.1l-0.1,0l-0.3,0.5v0.2l0.1,0.1l0,0.3l-0.1,0.1l0,0.2l0.2,0.2v0.3l-0.1,0.1l0.1,0.3l-0.1,0.1l-0.4,0.7l0,0.2
	l-0.1,0.1v0.3l-0.1,0.1l-0.1,0.3l-0.1,0.4l-0.1,0.1l0.1,0.2l-0.1,0.1l-0.5,0.5l0,0.1l-0.2,0.1l0,0.1l0.1,0.2l0,0.5l0.1,0.1l0,0.5
	l0.1,0.2v0.3l-0.1,0.1l0.2,0l0.3-0.3l0.4,0l0.1-0.1l0-0.7l0.1,0.1l-0.1,0.1l0,0.2l0.1,0.1l0,0.1l0.1,0.1v0.3l-0.2,0.1l0,0.2l-0.2,0
	l-0.2-0.2l-0.2,0l-0.5,0.5l0,0.1l-0.1,0.3l0,0.2l0.1,0l0.1-0.3l0.2-0.2l0.2,0.1l0,0.1l-0.1,0.2l0,0.1l-0.3,0.4l0,0.1l0,0l-0.1-0.1
	l-0.1,0l0,0.1l-0.1,0.1l-0.1,0l0,0l0,0.1l0.1,0l0.3,0.3l0.1,0.1l-0.1,0.1l0.2,0.1l0.5-0.4l0.3-0.1l0.5-0.1l0.4-0.1l0.5-0.1l0.1-0.1
	h0.8l0.1-0.2l0,0.2l0.1,0l0.1-0.1l0.3,0l0.2,0.2l0,0.1l0.2,0.1l0,0l-0.2-0.1l-0.1-0.1l-0.1,0l-0.1-0.1H182l0,0.1l0.5,0.5h0.6
	l0.1,0.1l0,0.2l0.1,0.1h0.2l0.1-0.1l0.1,0l0.1,0.1l0.1,0.3l0,0.1l0.1,0.1l0.5,0l0.1-0.1l0.1-0.1l0.6,0.1l0.1-0.1l0.1,0.1l0.2-0.7
	l0.1-0.2l-0.2-0.1l0-0.2l0.2,0l0.1,0.1l0,0l-0.1-0.4l0.1-0.2l0.4-0.4l0.4-0.1l0.2,0l0-0.2l0.1,0l0.1-0.1l0,0.1l-0.1,0.1l0.6,0.4
	l-0.1,0.4l0.2,0.2l0.1,0l0.5-0.4l0.1,0l0.1-0.1l0.1,0l0,0.2l0.1,0.1l0.2,0l0.1-0.1h0.1l0.4-0.4l0.2,0l0.1-0.1l0.3,0l0.1-0.1l0.3,0
	l0.1,0.2l0.2,0l0.3-0.1l0.1,0.1l0.1-0.1l0.3,0.2l0.1,0l0,0.1l0.1,0.1l-0.1,0.1l0.1,0.1l0.6,0l0.4-0.3l0.4-0.1l0.2-0.1l0.3-0.4
	l0.1-0.3l0.3-0.4l0-0.1l0.1-0.1l0-0.1l0.3-0.4v-0.1l0.1-0.1l0.1-0.3l0.1-0.1l0.1-0.4l0.1-0.2l0.1,0l0.1,0.1h0.3l0.4-0.4l0.1,0
	l0.3-0.3l0.1,0.1l0.1-0.1l0.1-0.1v-0.2l-0.1-0.1L196.6,52.4z M196.5,51l-0.3-0.1l-0.1-0.1l-0.2,0.2l0,0.1l-0.2,0.3l0,0.2l0.2,0.3
	l0.1,0l0.1,0.1l0.5-0.2l0-0.3l0.1-0.2L196.5,51z M172.1,61L172.1,61l-0.4,0.1l-0.1,0.1l-0.1-0.1l-0.1,0.1l-0.2,0l-0.1,0.1l-0.1-0.1
	h-0.3l-0.1-0.1l-0.3,0.1l-0.2,0.2l-0.1,0.2l-0.1,0.1l-0.4,0.1l-0.1,0.1l-0.4,0l-0.3,0.2l0,0.2l-0.3,0.7l0,0.4l0.1,0.1v0.3l-0.1,0.1
	l0,0.8l-0.1,0.1l-0.1,0.8l-0.1,0.3l-0.1,0.6l-0.2,0.4l-0.1,0.3l-0.4,0.6l0,0.2l-0.1,0.1l0,0.2l-0.1,0.1v0.1l0.1,0.1h0.2l0.2-0.1
	l0.3,0l0.3-0.1l0.1-0.1l0.2,0l0.1-0.1l0.2-0.2l0.1,0l0.1-0.2l0.1,0l1-1l0.2-1.1l0.1-0.1V65l0.1-0.1l0-0.6l0.1-0.1V64l0.1-0.1l0-0.2
	l0.1-0.1l0.1-0.5l0.3-0.6l0.1-0.6l0.2-0.5l0.2-0.2l0.2-0.1l0.1,0.1l0.3-0.2l0.1,0.1l0.2-0.1l0-0.1H172.1z M185.6,58.7L185.6,58.7
	l0,0.1l0.1,0.1h0.1l0,0l0-0.1L185.6,58.7L185.6,58.7z M196.2,50.6l0.5,0.4l0.2,0l0.2-0.3l0-0.1l-0.8,0L196.2,50.6z M283.5,83.4
	l-0.2,0l-0.1,0.1l-0.1,0.2l0.1,0.1l0.1-0.1l0.2-0.3L283.5,83.4z M247.8,71.4l0-0.1l-0.2-0.2l-0.1,0l-0.1,0.1l0,0.2l0.1,0.3
	L247.8,71.4z M248.6,71.2l0-0.2l-0.2-0.3l-0.5,0.1l-0.1,0.3l0.1,0.2l0.1,0.1l0,0.2l0.1,0.1l0,0.4l0,0.1l0.1,0.3l0.2,0l0-0.2l0.2,0.1
	l0.1-0.1l0-0.1l0-0.2l0-0.1l0.1-0.4L248.6,71.2z M251.2,70L251,70l-0.2-0.1l-0.1,0.1l0,0.1l-0.1,0.1l0.2,0.4l0,0.4l0.2,0.2l0.1-0.1
	l0.1-0.9l0.1-0.1l0-0.1L251.2,70z M250.4,72.7l0.2-0.1l-0.1-0.1l-0.2,0l-0.1,0.1l0.1,0.1L250.4,72.7z M242,96.7L242,96.7L242,97
	l0.2,0.2l0.2,0l0.1-0.1l0-0.2L242,96.7z M251,78.2l0-0.4l0-0.5l-0.2-0.6l0.1-0.1l0.1-0.4l-0.1-0.1l0-0.4l-0.1-0.2l0-0.7l0.1-0.4
	l0.2-0.3l-0.1-0.2v-0.6l0-0.4l-0.1-0.1l0-0.4l-0.3,0l-0.5,0.4l0.1,0.1l0.4-0.2l-0.4,0.5l-0.1,0.2l-0.1,0.1l0.1,0.1l0,0.1l-0.1,0.1
	l-0.2,0l-0.1,0.1l0,0.3l-0.2,0.2l0,0.1l0.2,0.1l-0.1,0.2l0,0.2l0.2,0.1l0.4,0.1l0.1,0.2l-0.2,0.3l0.1,0.7l0,0.5l-0.1,0.3l-0.3,0
	l-0.2-0.2l0-0.5l-0.1-0.2l-0.2-0.1l-0.1,0l-0.2,0.3l-0.2,0l-0.1,0.1l-0.2-0.1l-0.3,0l-0.3-0.3l-0.4-0.2l-0.1,0l0,0.3l-0.2,0.3
	l-0.4,0.2l0,0.1l-0.3,0.3l-0.1,0.5l0.1,0.1l0,0.2l0.1,0.1l0.1,0.2l0.3,0.2l0.1,0.1l0,0.2l0.5,0.6l0.2,0.2l0.4,0.1l0.2-0.3l0.3-0.1
	l0.2-0.1l0.3,0l0,0.2l0.2,0l0.1,0.1l0.2-0.1l0.1-0.1l0.1,0l0.1-0.1l0.1,0.1l0.1-0.1l0.2,0l0.4-0.8l0.1-0.2l0-0.1l0-0.2L251,78.2z
	 M247.8,80.1L247.8,80.1l0,0.2l0.1,0l0-0.1l-0.1-0.1L247.8,80.1z M243.2,68.1l-0.3-0.1l-0.2,0.1l0.2,0.2l0.2,0.1l0.2-0.1L243.2,68.1
	z M243.5,79.9l-0.3,0.2l0.2,0.2l0.2-0.2l0-0.1L243.5,79.9z M247.2,80.1L247.2,80.1l-0.6,0.1l-0.8,0.8l-0.4,0.2l-0.2,0.2l-0.2,0
	l-0.1,0.1l0.1,0.1l0,0.2l-0.2,0.3l-0.4,0.3l0,0.2l0.1,0.1l0.2,0l0.4-0.2l0.5-0.6l0.3-0.4l0-0.1l0.4-0.4l0-0.1l0.5-0.4l0.6-0.1
	l0.1-0.1l-0.1-0.1H247.2z M251.1,72.3l0-0.3l0-0.4l-0.1-0.1l-0.1,0l-0.2,0.5l-0.2,0.1l0,0.2L251.1,72.3L251.1,72.3z M283.8,84
	l-0.1,0l0-0.1l-0.1,0.2l0.1,0.1h0.2l0.1,0L283.8,84z M282.6,89.1L282.6,89.1l-0.2-0.1l-0.1,0.1l0,0.2l0.1,0.2l0.1,0.1l0.2,0l0-0.1
	l-0.1-0.2L282.6,89.1z M285,86.2l-0.8-0.5l-0.2-0.2l-0.2-0.1l-0.1,0.1l0,0.1l0.3,0.4l0.5,0.2l0.2,0.2l0.3,0L285,86.2z M282,83.5
	l0-0.3l0.1-0.1l-0.1-0.3l0-0.2l0.1-0.1l-0.1-0.1l-0.1-0.4l0-0.3l-0.1-0.3l0.1-0.8l-0.1-0.1l0-0.5l0.1-0.1l0-0.2l0.1-0.1V79l-0.1-0.1
	l0-0.6l0-0.6l-0.1-0.1l-0.1,0l-0.2,0.1l-0.4,0.4l-0.3,0.1l-0.4,0.4l-0.2,0.5l0,0.3l-0.1,0.1l0,0.8l0.1,0.2l-0.1,0.3l0.1,0.5l0.1,0.1
	l0,0.6l-0.2,0.4l-0.4,0.9l0.1,0.3l0.3,0.7l0.2,0.3l0.3,0.8l0.2,0.1l0.1-0.2l0.1-0.2l0.7-0.3l0.4-0.4l0.1-0.2l0-0.4l-0.4-0.2l0.2,0
	L282,83.5z M285.8,91.4l-0.1-0.2l-0.1-0.2l0.1-0.2l-0.1-0.2l-0.1,0.1h-0.4l-0.1,0.3l0.2,0.3l0.5,0.5l0.1,0l0-0.1L285.8,91.4z
	 M271.9,103.9l-0.1,0.1l0.1,0.2l0.1,0l0.1-0.1l0-0.1l0-0.1L271.9,103.9z M271.9,105.4l0-0.9l0.1-0.2l-0.1-0.1l-0.1-0.3l0-0.2
	l-0.1-0.1l-0.1,0l-0.1,0.1l0,0.3l0.1,0.1l0,0.5l-0.1,0.1l0,0.5l0.4,0.4l0.1-0.1l0-0.1L271.9,105.4z M253.8,61.9l-0.1-0.4l-0.5-0.7
	l-0.3-1.1l-0.2,0.1l-0.2,0.4l-0.5,0l-0.3-0.1l-0.1,0.1l-0.3,0l-0.2-0.1l-0.3,0l-0.2,0.1l-0.1-0.1l-0.5-0.1l-0.6-0.2l-0.1-0.1
	l-0.2-0.1l-0.1,0.1l0,0.3l-0.6,0l-0.1-0.1l-0.2,0l-0.1-0.1l-0.3-0.3l-0.3-0.1l-0.3-0.1l-0.4-0.3l-0.3-0.1l-0.1-0.1l-0.5-0.3
	l-0.4-0.3l-0.1-0.1H245l-0.4-0.3l-0.3-0.1l-0.4-0.5l-0.2-0.4l-0.2-0.1l-0.1,0.1l-0.1,0.2l-0.2,0l-0.1,0.1l-0.2,0l-0.2,0.1l-0.1,0.1
	l-0.1,0l-0.1,0.3l0,0.3l0.1,0.1l0.2-0.2l0,0.1l-0.4,0.2l-0.1,0l0,0.2l-0.2,0.2l-0.2-0.1l-0.4,0l-0.1-0.2l0,0l0.4,0.1l0.1-0.2l0.3,0
	L242,58l0-0.2l-0.1-0.3l-0.3-0.3l-0.1-0.3l-0.1-0.1l-0.1-0.2l0.1-0.3l-0.2-0.4l0-0.1l-0.2-0.1l-0.3,0.1l0.1,0.2l0,0.1l-0.1,0.1
	l0.1,0.1l-0.1,0.1l-0.2,0l-0.3,0l-0.1-0.1l-0.4,0l0.1,0.2l-0.1,0.1l0.1,0.2l-0.2,0.1l0,0.4l0.1,0.1l0.2-0.1l0.1,0.1l0.2-0.1l0.3,0.1
	l-0.1,0.1l-0.6,0l-0.1,0.1l0.1,0.1l0.4,0l-0.1,0.1l-0.1,0.2l0.1,0.2l0.1,0.1l0,0.3l-0.2,0.5l0.1,0.3l0,0.4l0.1,0.1l0,0.6l0.3,0.2
	l-0.3,0l-0.1,0.1l0.1,0.2l0.2,0.1l-0.1,0.2l0,0.2l-0.2-0.3l-0.2-0.1l-0.2-0.1l-0.2,0l-0.3,0.1l-0.2,0l-0.1,0.1l0.1,0.2l0,0.1h-0.3
	l-0.1-0.1l-0.1,0l-0.1,0.1l-0.2,0.2l0,0.1l0.4,0.1l0.1,0.1l0.3,0l-0.1,0l-0.4,0l-0.1,0.1l0.1,0.2l-0.4,0.1l-0.1-0.1l-0.1,0l-0.3,0.2
	l-0.4,0.1l-0.2,0.2l-0.1,0.1l0.1,0.1l0.3,0.2l0.3,0l-0.1,0.1l-0.1,0l-0.2,0.1l0,0.1l0.6,0.4l0.2,0.5l0.3,0l0.4-0.2l0.2-0.3l0.3,0
	l0.1,0.1l0.2,0l0.3-0.2L240,64l0.1,0l0.2-0.1l0.1-0.1l0-0.2l0.1-0.2v-0.2l0.2-0.3l0.3-0.1l0.2,0.1l0.1,0.3l0.3,0.3l0,0.2l0.2,0.1
	l0.2,0.2l0.3,0.3l0.1,0.4l0.1,0.1l-0.1,0.3l0.1,0.2l0.5,0l0.2-0.1l0.4,0.1l0.2-0.1l0.2,0.2l0.8,0l-0.1,0.2l0.2,0.1l-0.2,0.2
	l-0.1,0.3l0,0.1l0.1,0.1l0.5,0l0.1,0.1l0.7,0.2l0.3,0.3l0,0.1l-0.2-0.1l-0.1,0l-0.3-0.2l-0.7,0l-0.5,0.4l0,0l0.1,0.1l0.2,0l0.2,0.1
	l0.1-0.1l0.2,0l0,0.1l-0.2,0l-0.2,0.1l-0.2,0l-0.1,0.4l0.1,0.1l0.2,0l0.5-0.4l0.2-0.1l0.1,0l-0.1,0.1l-0.2,0l-0.2,0.2l-0.5,0.5
	l0.1,0.1l0.2,0l-0.1,0l-0.4,0l-0.1-0.1l-0.1,0l-0.1,0.1l-0.3,0.1l-0.2,0.2l0,0.3l0.1,0.1l-0.2,0.2l0,0.1l0.1,0.1l0,0.3l0.2,0.1
	l0.4,0l0.3-0.1l0,0.1l-0.2,0.1l-0.3,0l0,0.1l0.1,0.1l-0.2,0.2l0.1,0.1l0.5,0l0.2,0.1l0,0.1l-0.1,0.1l0.2,0.2l0.2,0l0.1-0.1h1
	l0.2-0.1l0.1,0.1l0.1,0l0,0.3l0.2,0.2l0.2,0l0.2-0.1l0.2-0.1l0.2-0.1l0.2,0l0.5-0.2l0.7-0.1l0.2-0.2l0.2-0.2l0.3-0.6l0.2-0.1l0-0.4
	l0.1-0.1v-0.2l0.2-0.2l-0.1-0.3l0.2,0l0.1,0.1l0.2,0l0.1-0.1l0.1-0.2l0.1-0.1l0.2-0.2l0.2-0.2l0.4-0.7l0,0.7l0.2,0.5l-0.2-0.1
	l-0.1-0.2l-0.1,0l-0.2,0.3l-0.3,0.2l-0.2,0.3l0.1,0.2l-0.3,0l-0.3,0.2l-0.1,0.4l0.1,0.1l0.2,0l0.6-0.2l0.2-0.2l0-0.3l0,0.4l-0.2,0.2
	l0,0.1l0,0.2l0.4,0.3l0.4,0.2l0.2-0.2l0-0.5l0.1-0.1l0-1.3l0.1-0.1l-0.1-0.3l0.1-0.2l0-0.2l0.3-0.7l-0.2-0.3l0.2,0.2l0.1,0l0.3-0.3
	l0.6-0.1l0.2-0.2l0-0.2l0.1-0.2l0-0.3l0.1-0.1l0-0.5l-0.1-0.7l-0.1-0.1v-0.3l-0.1-0.1l0-0.4l0.1-0.6L253.8,61.9z M276.6,92.1
	l-0.1,0.1H276l-0.5,0.1l-0.1,0.1l-0.2,0l-0.2-0.1l-0.2,0l-0.1,0.1l-0.1,0.8l-0.1,0.1l0,0.1l-0.1,0.1l-0.1,0.2l0,0.1l0.1,0.1
	l-0.1,0.2l-0.1,0.5l-0.1,0.4l-0.1,0.6l0,0.1l0.2,0l0.2-0.4l0.4-0.2l0-0.3l0.3-0.2l0-0.2l-0.1,0l-0.1,0.1l0,0l0.1-0.1l0.1-0.1l0.3,0
	l0.2-0.1l0.2-0.2l0-0.2l0.3-0.3l0.1-0.3l0.4-0.1l0.1-0.2l0.2,0l0.1-0.1l0-0.1l0.5-0.5l-0.1-0.1L276.6,92.1z M280.4,89.8l-0.3,0.2
	h-0.4l-0.4,0.1l-0.4,0.5l0,0.2l0.1,0.1l0.6,0l0.1-0.1l0.1,0l0.2-0.2l0.3-0.1l0.3-0.3l0.1,0l0.1-0.2l-0.1-0.2L280.4,89.8z
	 M241.2,101.8l-0.1,0l-0.1,0.1l0,0l0.2,0.1h0.1l0.1-0.1L241.2,101.8L241.2,101.8z M234.6,105.9l-0.2,0.2l0,0.1l0.1,0.1l0.3,0
	l0.1-0.1l0-0.2l-0.2-0.1L234.6,105.9z M233.7,107.6l-0.1,0.4l0.1,0.1l0.2,0l0-0.1l0.1-0.4l-0.2-0.1L233.7,107.6z M235.5,106.2
	l-0.2,0l-0.1,0.1l0,0.2l0.1,0.1l0.2,0l0-0.1L235.5,106.2L235.5,106.2z M236,106l-0.2,0l-0.1,0.1l0,0.2l0.1,0.1l0.1,0.1l0.2-0.1
	L236,106L236,106z M236.8,106.1l-0.2,0.3l0.2,0.3l0.3,0l0.2-0.5l-0.2-0.2L236.8,106.1z M236.3,95.1h-0.6l-0.1,0.1l-0.6,0l-0.2,0.1
	l0,0.2l0.2,0l0.1,0.2l0.2,0l0.2-0.1l0.3,0l-0.7,0.3l-0.3,0.3l-0.2,0l-0.1,0.1l-0.4,0l-0.1,0.1l-0.1,0l-0.2-0.1l-0.2,0l0,0.1l0.1,0.2
	l-0.2-0.1l-0.2,0l0,0.3l0,0.1l0.1,0.1l0.3,0l0.3,0.1l0.1,0l0.2-0.2l0.2-0.3l0.6-0.2l0.7-0.4l0.2,0l0.3-0.3l0.1,0l0.3-0.1l0-0.1
	l-0.1-0.2L236.3,95.1z M234.6,96.1l0.1-0.2l0.1,0l0.1-0.1l-0.1-0.1l-0.2,0l-0.2,0.3l-0.1,0l-0.2,0.2l0.2,0L234.6,96.1z M233.5,95.7
	l0-0.1l-0.2-0.1l-0.1,0.1l-0.3,0l-0.1,0.1l-0.1,0.1l-0.3,0.1l-0.2,0.1l0.1,0.3l0.5,0.2l0.3-0.2l-0.1-0.1l0.1-0.2l0.2-0.1l0.2-0.3
	L233.5,95.7z M233.5,95.8l0,0.3l0.1,0l0.2,0l0.1-0.1l0.1-0.2l0-0.1l-0.2,0L233.5,95.8z M233,96.6l-0.1,0.1l0,0.1l0,0.1l0.2,0
	l0.1-0.1l-0.1-0.1L233,96.6z M239.3,82.3l0.2-0.2l-0.1-0.1l-0.4,0l-0.4,0.2l-0.1,0.1l0,0.1l0.6,0L239.3,82.3z M240.5,95.7l-0.1,0.2
	l0.1,0.1l0.2,0l0.1-0.1l-0.2-0.2L240.5,95.7z M239.8,81.8l-0.2,0.1l-0.1,0.1l0.1,0.1l0.1-0.1l0.3,0l0.2-0.1l0-0.1l-0.1-0.1
	L239.8,81.8z M240.6,90.4l0.2-0.5l0-0.1l-0.1-0.1l-0.2,0.2l-0.1,0.3l0,0.1l0.1,0.1L240.6,90.4z M234.6,95.3l-0.2-0.2l-0.4,0
	l-0.1,0.1l-0.4,0.1l-0.1,0.1l0.3,0.1l0.5-0.1L234.6,95.3z M241.1,90.7l-0.2-0.2l-0.1,0.1l0,0.1l0.2,0.1l0.1-0.1L241.1,90.7z
	 M241.4,100l-0.2,0l-0.1,0.2l0,0.1l0.1,0.1l0.2,0l0.1-0.1L241.4,100L241.4,100z M239.1,105.1l-0.2-0.1l-0.3,0.3l-0.1,0.4l0.1,0.2
	l0.2,0l0.3-0.2l0.1-0.2l0-0.1L239.1,105.1z M237.2,64.5l-0.1,0.1l-0.1,0.1l-0.5,0.1l0,0.3l0.2,0.2l0.2,0l0.2,0.1l0.2-0.1l0.2-0.2
	l0.1-0.3l0-0.3L237.2,64.5z M239.6,103.8l-0.2,0.2l0,0.1l0.1,0.1l0.2,0.1l0.2-0.1l0-0.2l-0.1-0.2L239.6,103.8z M240,94.1L240,94.1
	l-0.1-0.3l-0.3-0.1l-0.3-0.4l-0.2,0.1l0.1,0.3l0.1,0.1l-0.1,0.1l0,0.2l0.1,0.2l-0.2,0.4V95l-0.1,0.2l-0.2,0.2l-0.4,0.2l-0.1,0.1
	l0.1,0.3l0.1,0.1l0.4-0.2l0,0.4l-0.1,0.1l0,0.6l0.1,0.2l0.1,0.1l0.2,0l0.1-0.3l0.4-0.9L240,96l0-0.2l-0.1-0.1l0-0.1l-0.2-0.4l0-0.8
	l0.1-0.2L240,94.1z"/>
<polygon class="st8" points="114.6,237 114,237.2 113.7,237.3 113.3,237.8 113.1,238.2 112.7,238.2 112.1,238.1 110.8,236.3 
	110.2,235.5 110.3,235.2 110.5,234.9 110.5,234.8 109,234.6 106.6,233.8 103.3,236.2 102.3,236.5 101.1,236.2 95.5,233.6 
	92.8,235.5 89.4,232.9 88.5,231.6 85.6,229.2 81.2,228 79.6,229 76.6,229 74,228.4 73,228.3 72.3,230.1 72.2,230.6 71.3,232.1 
	70.6,233.6 69.7,234.2 65.8,234.7 64,236.2 63.2,238.4 62.9,239.8 62.1,240.9 60.7,241.4 59.8,241.9 57,242.1 52.6,243.5 
	47.2,243.7 45.7,243.4 44.2,242.7 32.5,237.2 15.2,236.6 13.6,236.7 11.6,237.6 11.2,238 11.2,238.5 20.2,243.4 27.8,255.2 
	32.4,249.7 40.7,248.9 47.3,255.1 45.2,258.8 48,262.5 57.4,262.8 58.8,267.2 73.4,267.2 76.2,272.4 78.3,263.6 87.3,263.6 
	87.7,277.8 92.9,278.2 109.2,256.7 106.9,251.7 106.5,250.8 110.5,246.1 111.1,245.9 112,245.7 112.6,245.3 113.3,244.4 
	113.2,243.5 113,243.2 113,243.1 112.8,243 112.5,242.5 112.5,241.3 112.6,240.7 112.6,240.4 112.9,239.8 113,239.2 113.4,238.8 
	113.6,238.9 114.5,237.7 114.9,237.4 115,237.1 "/>
<path class="st9" d="M148.8,118.9l0.1,0l0.1-0.1l0-0.1l-0.1-0.1l-0.1,0l-0.2,0.2L148.8,118.9L148.8,118.9z M147.8,119.7l0-0.3
	l-0.5-0.2l-0.3,0l-0.2,0.4l0,0.2l0.4,0.3L147.8,119.7z M156,123.1l0,0.2l0.2,0.1l0.2-0.2l0-0.1l-0.1-0.1l-0.1,0l-0.1,0L156,123.1z
	 M160.1,148.6H160l-0.3,0.1l0,0.1l0.1,0.2l0.3,0.1l0.2-0.1l0.1-0.1l-0.1-0.2L160.1,148.6z M156.5,121.6l0.3,0l0.1-0.2l-0.1-0.2
	l-0.1,0l-0.1,0l-0.2,0.2l0,0.1L156.5,121.6z M161.4,141.8l-0.2-0.2l0-0.2l0.3-0.3l-0.4-0.5l0-0.2l0.2-0.2l0.2-0.6l0.2-0.2l0.1-0.5
	l0.3-0.3l-0.8-1l0.1-0.1l0.4-0.6l0-0.5l-0.7-0.6l-0.4,0l-0.2-0.4l0-0.2l-0.4-1l0-0.4l-0.1-0.1l-0.2-0.3l0.2-0.3l0.3-0.7l-0.2-0.4
	l0-0.3l-0.2-0.1l-0.5,0l0-0.2l0.3-0.3v-1.1l-0.4-0.2l-0.7,0l-0.1-0.2l0.1-0.1l0.3,0l0.2-0.3l-0.5-0.7l0.8,0l0.2-0.1l0.1-0.3l0-0.6
	l0.2-0.4l0.5-0.4l0.1-0.3l-0.7-0.5l-0.4-0.2l-0.3-0.8l-0.5-0.2l-0.3-0.5h-0.4l-0.1-0.1l-0.4,0l-0.2,0.2l-0.5,0l-0.3,0.1l-0.5,0.5
	l-0.1-0.1l0.3-0.5l0-0.6l-0.3-0.5l0.1-0.1l0.3,0l0.1-0.2l-0.5-0.3l0.2-0.4l-0.2-0.2l-0.2-0.1l-0.5,0.4l-0.3,0l-0.3-0.3l0-0.4
	l-0.5-0.7l-0.7-0.1l0-0.3l0.9-0.1l0.1-0.1l0.5,0l0.1-0.2l0-0.4l-0.3-0.4l0-0.3l0.2-0.4l-0.2-0.1l-0.2-0.3l-0.7-0.3l-0.5,0l-0.3,0.2
	l-0.2,0l0-0.2l-0.3-0.3l-1.5,0l-0.5-0.3l-0.3,0.2l-0.2,0.3l0,0.4l-0.5,0.6l0,0.3l-0.2,0.1l-0.3,0.5l0,1.4l0.1,0.1l-0.1,1.2l-0.3,0.8
	l-0.2,0.1l-0.8-0.2l-0.4,0.4l-0.1,0.5l-0.2-0.2l-0.4,0l-0.2,0.1l-0.3-0.1l-0.4,0.2l0,0.3l0.2,0.5l-0.4,0.2l0,0.2l0.4,0.3l-0.1,0.7
	l0.1,0.3l0.3,0.3l0,1l0.1,0.2l-0.1,0.2l-0.2,0.7l-0.3,0.3l-0.5,0.2l-0.6,0.8l-0.3,0.1l-0.4,0.4l-0.7,0.3l-0.6,0l-0.4-0.5l-0.8,0
	l-0.4,0.4l0,0.2l0.4,0.4l0.2,0l0.7,0.5l0.4,0.1l0.3,0.3l0.4-0.1l0.1,0.3l-0.9,0.4l-0.3-0.3l-0.1-0.2l-0.4,0l0-0.3l-0.4-0.3l-0.3,0
	l-0.3,0.3l-0.3,0.6l-0.7,0l-0.3,0.3l-0.1,0.3l0.1,0.8l0.2,0.4l0,0.9l-0.1,0.1l0.1,0.7l0.2,0.2l0.3,0.1v0.4l-0.1,0.3l-0.3,0.2
	l-0.1,0.1l-0.4,0l-0.5-0.3l-0.3-0.3l-0.4,0l-0.2,0.3l0,0.5l-0.1,0.1l0,0.5L137,139l0,0.3l0.3,0.3l0.3,0l0.5,0.3v0.1l-1.2-0.1
	l-0.2,0.2l0,0.3l-0.1,0.1v0.4l-0.6,0.5h-0.1l-0.3,0.3l-0.1,0.8l-0.8,0.8l0,0.5l0.1,0.1l-0.9,0.7l-0.3,0.1l-0.7,0l-0.3,0.2l-0.1,0.8
	l0.1,0.1l0,0.3l-0.4,0.5l0,0.4l-0.3,0.5l-0.3,0.2l-0.3,0l-0.3,0.3l0,0.4l0.3,0.3l0,0.3l-0.4,0.4l-0.3,0.5l0,0.3l-0.3,0.4v0.3l-1.2,2
	l0,2.9l-0.1,0.1l0,0.3l1,0.5l0.1,0l0.5,0.5l0.8,0.1l0.1-0.1h0.3l0.2,0.3v0.3l-0.1,0.1l0,0.4l-0.3,0.4l0,0.7l-0.1,0.1v0.3l-0.8,1.1
	v0.3l0.3,0.5l0.3,0.1l0.1,0.1l0.2,0.1v0.7l-0.1,0.3l-1.1,1.1h-0.1l-1,1l0.1,0.4l0.3,0.3l0.1,0l0.9,0.6l0.1,0.3l0,1.2l0.4,0.6
	l0.5,0.3l0.7,0.7l0.1,0.2h0.1l0.7,0.7l0.4,0.9l0.2,0.2h0.1l0.1,0.3h0.1l0.3,0.3l0.5,0.1l0.8,0.9l0.4,0.1l0.4,0.4h0.4l0.5,0.3
	l0.3,0.1l0.9,0l0.1,0.1l0.8,0l0.1,0.1h0.9l0.1-0.1l0.8,0.2l0.3,0.1l-0.1,0.3l0.2,0.3l0.2,0.1l0.3,1l0.3,0.1l0.1,0.2l0.3,0.1l0.3,0.3
	l0.9,0.1l0.4,0.3l0.1,0.2l0.3,0.2l1.8,0l0.1-0.1l1,0.3l0.3,0.5l0.6,0.5l0,0.4l-0.1,0.2l-0.4,0.5l-0.6,0.3l0,0.5l0.6,0.1l0.2-0.1
	l0.3,0l0.7,0.4l0.3,0l0.3-0.1l1-0.2l0.1-0.1l0-0.6l-0.7-0.4l-0.3-0.4l-0.1-0.2l0.1-0.9l0.5-0.5l0.5-0.2l0-0.4l-0.1-0.1l0-0.8
	l0.5-0.9l0.4-0.3l0.3-0.5l0.1-0.6l0.7-0.8l-0.3-0.3l-0.4,0l-0.2-0.1l0-0.2l0.9-0.6l0.1-0.1l-0.1-0.2l0.1-0.1l0.4,0.1l0.1,0.3
	l0.2,0.1l0.3-0.1l0.2,0.1l0.3,0.6l0.4,0l0.2-0.7l0.1-0.1l0.1,0.1l0.5,0l0.2-0.1l0-0.5l-0.2-0.3l0.1-0.4l0.3,0l0.4-0.5l0-0.2
	l-0.2-0.3l0-0.1l0.8,0.1l0.1-0.3l-0.3-0.3l0.6-0.4l-0.2-0.3l-0.4-0.1l-0.1-0.1l0-0.9l0.1-0.4l0.3,0l0.1-0.1l0.3-1.6l-0.1-0.4
	l0.2-0.8h1.2l0.2-0.1l0.1-0.2l-0.3-0.3l-0.6-0.2l-0.2,0.1l-0.2-0.1l-0.1-0.2l-0.3-0.1l0.3-0.3l-0.1-0.2l-0.5-0.2l0-0.1l0.2,0
	l0.2,0.1l1.1,0l0.2-0.2l0-0.3l-0.4-0.2l-0.3,0l-0.2-0.2l0-0.2l0.2-0.2l0.3,0.2l0.3-0.3h0.3l0.3-0.1l0-0.2l-0.3-0.4l0.2-0.3l0-0.4
	l-0.1-0.2l0.1-0.4l0-0.5l-0.1-0.1l0.4,0l0.2-0.4l-0.2-0.2l-0.3,0.1l-0.5-0.5l0.6-0.1l0.2,0.2h0.2l0.5-0.4l0.1-0.5l-0.1-0.1l-0.6-0.1
	l-0.3,0.3l-0.3,0l0-0.1l-0.2-0.3l0.2-0.5l0.7-0.1l0.1-0.2l-0.1-0.1l-0.9,0l-0.7,0.1l-0.2,0.1l-0.6,0l-0.4-0.3l0.1-0.2l0.5-0.2
	l0.2-0.2l-0.1-0.2l-0.3-0.1l0-0.2l0.5-0.3l0.2,0l0.3,0.1l0.2,0.3l0.2,0l0.1-0.1l-0.1-0.2l0-0.3l0.3-0.2l-0.1-0.4l0.5-0.2l0-0.1
	l-0.4-0.3l0.3-0.2l0.3,0l0-1l-0.3-0.3l-0.4,0l-0.2-0.4l-0.2,0l-0.4-0.5l-0.1-0.1l0.1-0.3l0.9-0.6l0-0.2l-0.8-0.4l-0.3-0.4l0-0.5
	l0.2-0.5l0.4-0.3l0.6,0l0.3-0.4l0.2-0.1l0.1-0.2l0-0.5l0.3-0.3l-0.1-0.9l0.4-0.4l0-0.9l0.3-0.3l-0.1-0.2L161.4,141.8z M153.9,171.5
	l-0.1,0.1l0,0.1l0.1,0.1l0.1,0l0.1-0.1l0-0.1l-0.2-0.1L153.9,171.5z M152.5,177.8l-0.2,0.2l0,0.4l0.2,0.2l0.2-0.1l0.3-0.5l-0.1-0.1
	L152.5,177.8z M152.9,177.3l-0.2,0.1l-0.1,0.2l0,0.1l0,0.1l0.3,0l0.1-0.3L152.9,177.3L152.9,177.3z"/>
<path class="st10" d="M190.9,271.9l-0.1,0.2h-1l-0.1,0.3l0.2,0.3l0.5,0.2l0.2-0.2l0.8,0l0.3-0.4l-0.2-0.3L190.9,271.9z M193.8,271.2
	l-0.3,0.3h-0.3l-0.2,0.2l-0.5,0l-0.2,0.3v0.2l0.4,0.2l1.6,0l0.2-0.2l0.3,0l0.6-0.4l-0.1-0.4L193.8,271.2z M189.5,259.7l-0.4-0.3
	l-0.5,0l-0.2-0.3l0.2-0.3l0.2,0l0.1-0.3l-0.6-0.1l-0.4-0.4l0.2-0.5l-0.2-0.4l-1,0l-0.2-0.2l-0.8,0l-0.2-0.2l-0.2,0.2l-2.1-0.2
	l-0.2-0.2l-0.6,0l-0.3,0.3h-0.2l-0.1,0.8l-0.2,0.3l-0.3,0l-0.1,0.3l-0.4,0.2l-0.8,0l-0.2,0.2h-0.5l-0.2,0.5l-0.5,0l-0.2,0.2l-0.8,0
	l-0.3,0.2l-0.1,0.3l0.7,0.6l0.3,0l0.2,0.2l1.3,0l0.1-0.3l0.4-0.2h1.3l0.3,0.8l0.7-0.1v-1.2l0.2-0.3l0.3,0l0.2,0.2l0,0.3l0.3,0.2
	l0.2,0.6l0.5,0.2l0.2,0.2h0.8l0.7,0.3l0.5,0l0.1-0.2l0.5,0l0.2-0.3l-0.5-0.5l0.1-0.1l0.5,0l0.1,0.2l0.3,0l0.5,0.3h0.5l0.2,0.2
	l0.1-0.3l0.2-0.2L189.5,259.7z M206.4,268.5h-0.3l-0.1,0.1l0,0.5l0.1,0.1l0.2,0l0.2-0.3L206.4,268.5L206.4,268.5z M188,270.2
	l-0.6,0.3l-1.8,0l-0.2,0.2l-0.5,0l-0.3,0.3l-0.6,0.2l-0.7,0.6l0.2,0.4l1.4-0.2l0.2-0.2l0.6,0l0.3,0.3l0.5,0l0.1-0.4l0.4-0.6l1-0.2
	l0.2-0.2l0.8,0l0.3-0.2l0.1-0.1l-0.4-0.4H188z M170,259.3v-0.2l-0.3-0.2l-0.2-0.7l-0.4-0.2l-0.6,0.8l-0.2,0.7l0.3,0.2l-0.3,0.3
	l0,0.7l0.6,0.1l0.2,0.2l0.5,0l0.1-0.2l0.3,0l0.4-0.4l0-0.5L170,259.3z M165.4,262.5l-0.6,0l-0.4,0.4l0.4,0.4l0.5,0l0.6-0.6l0-0.3
	l-0.2-0.1L165.4,262.5z M214,280L214,280v-0.2h-0.2l-0.1,0.1l0.1,0.1L214,280z M219.8,280.4l-0.2-0.2l-0.5-2l0.5-0.7l0.1-0.2
	l-0.4-0.4h-0.2l-0.3,0.5l-0.3,0L218,277l0.2-0.2l-0.4-0.3l-0.2,0.3l-0.3-0.2h-0.2l-0.1-0.3l-0.2,0l-0.1-0.3l-0.6-0.4h-0.3l-0.1,0.3
	l0.3,0.3v0.2l0.6,0.5l-0.1,0.3l-1.6,0.2l-0.3-0.7l-0.3,0l-0.6,0.3h-1.1l-0.1,0.1l0.5,0.3l-0.2,0.4h-1.1l-0.2-0.2l-0.5,0l-0.4,0.2
	v0.3l0.6,0.1l0.8,0.7h0.3l0.2-0.2l0.8,0l0.5,0.5h0.2l0.5-0.7l0.6-0.3l0.8,0l0.3-0.2l0.1,0.2h1l0.2,0.3l0.6,0.1l-0.2,0.2l0,0.5
	l0.5,0.5l0,0.5l0.2,0.2l-0.3,0.7l0.1,0.9l0.5,0l1,0.5l0.3,0l0.1-0.4l-0.3-0.7V280.4z M214.8,284.3l-0.4-0.3l-0.5,0l-0.2,0.2
	l-1.3-0.2l-0.2-0.2l-0.3,0l-0.2,0.5h-0.3l-0.2,0.2l-0.5-0.3l-0.3,0.2l-1,0l-0.8-0.7l-0.2,0.4l0.5,0.5l0,0.2l0.2,0.3h0.8l0.2,0.4
	l-0.2,0.1l-0.5,0.5l-0.6,0l-0.1-0.3l-0.4-0.3l-0.2,0.3l0.2,0.2l0,0.5l-0.6,0.5v0.3l0.4,0.3l0.3-0.2l0.3,0.3l0.2,0l0.3-0.5l0.8,0.2
	l0.2-0.3l1,0.2l0.2-0.2l0-0.3l-0.3-0.5l0.8-0.7l0.1-0.4l0.6,0l0.1-0.2l0.5,0l0.2,0.5l0.6,0l0.6,0.3l0.2-0.4l-0.2-0.3L214.8,284.3z
	 M210.5,264.4L210.5,264.4l-0.2-0.1l-0.1,0.1l0.1,0.1L210.5,264.4L210.5,264.4z M208,282.7l0.2,0l0.1-0.1l0-0.3L208,282l-0.3,0
	l-0.1,0.1l0,0.3l0.1,0.1h0.2L208,282.7z M244.5,246.9L244.5,246.9l0.1-0.4l-0.1-0.1h-0.2l-0.2,0.3l0.2,0.3H244.5z M227.2,255.5
	L227.2,255.5l-0.1,0.4l0.1,0.1h0.3l0.1-0.1l0-0.3l-0.1-0.1H227.2z M240,250l0.5,0l0.4-0.4v-0.2l-0.9-0.4h-0.3l-0.1,0.6l0.3,0.2
	L240,250z M227.5,254.4l0.3,0.2l-0.2,0.2l0.4,0.3l0.2-0.2l0.5,0l0.2-0.2l0.6,0l0.2,0.2h1.6l0.5-0.5h0.2l0.2-0.4l-0.1-0.4l-0.5,0
	l-0.2,0.2l-1.8-0.2l-0.5,0.5l-0.6,0l-0.2,0.2l-0.3-0.5l-0.5,0L227.5,254.4z M237.7,251.5l0.4-0.4l-0.4-0.4l-0.5,0.2l-0.1,0.3
	l0.2,0.4L237.7,251.5z M219.7,275.1l-0.2,0.3l0,0.3l0.1,0.1l0.6,0l0.4-0.6L219.7,275.1z M245.2,246.7L245.2,246.7l-0.2-0.3h-0.1
	l-0.1,0.1v0.2l0.1,0.1L245.2,246.7z M191.7,261.3l0.5,0l0.1-0.1l-0.1-0.2l-0.6,0l-0.1,0.1L191.7,261.3z M189.1,258.6L189.1,258.6
	l0.2,0.1l0.1-0.1l-0.1-0.1L189.1,258.6L189.1,258.6z M188.6,257.8l0.4,0.1l0.2,0.2l0.6,0l0.2,0.2l0.6-0.5l0.8,0l0.1-0.4l-0.6-0.4
	h-1.1l-0.1-0.6l-0.4-0.1l-0.5,0.5l-0.5,0.2l-0.1,0.3l0.3,0.3V257.8z M224.8,250.2l0.2,0.2l-0.3,0.5l0,1.2l0.6,0.5L225,253l-0.2,0.1
	v0.2l0.4,0.4l0.4,0.1l0,0.3l-0.4,0.6l-0.5-0.2l-0.2,0.4l0.3,0.7l-0.2,0.3l0,0.5l0.2,0.3l0.6,0l0.6-1l0.5,0l0.3-0.4l0.3-0.3l0.2-0.8
	l-0.6-0.4l-0.4-0.1l0.2-0.3v-0.3l-0.1-0.2l0.2-0.2l0.2-0.5l0.2-0.1l0.2-0.4l-0.2-0.3l0.6-0.7l-0.1-0.3l-0.5,0l-0.3,0.2l-0.2-0.2
	l0.2-0.3l-0.5-0.3l0.3-0.3l0.1-0.4l-1,0l-0.5,0.3l-0.6,0l-0.1,0.2l0.3,0.3L224.8,250.2z M192.1,257.6v-0.3l-0.1-0.1l-0.3,0l-0.1,0.1
	l0,0.3l0.2,0.2L192.1,257.6z M223.8,256.6l0.1,0.3l0.6-0.1l0-0.7l-0.3-0.3l-0.1-0.4l-0.6,0.2l0,0.8L223.8,256.6z M216.8,251.2
	l0.2,0.2l0,0.5l-0.8,0.5l0,0.5l0.6,0.1l0.2,0.2l0.6-0.2l0.2,0.3l0.3,1.2l0.6,0.3l-0.3,0.3l0.2,0.3l0.6-0.2l0.2-0.3l0.1-0.5l0.9-0.9
	l0.5,0l0.2-0.3l-0.2-1.2l-0.4-0.2l-0.2-0.2l-0.3,0.2l-0.5,0l-0.3-0.5l-0.3,0l-0.6,0.7l-0.3-0.2l-0.2-0.1l0.2-0.3l-0.2-0.2v-0.3
	l-0.9-1.1l-0.5-0.2l-0.6,0.9l0.7,0.2L216.8,251.2z M218.9,283L218.9,283l-0.1,0.4l0.1,0.1l0.2,0l0.2-0.2v-0.2l-0.1-0.1L218.9,283z
	 M260.1,242.4v-0.2l-0.4-0.3l-0.5,0l-0.7,0.6l0,0.3l0.4,0.4l0.3,0l0.6-0.8L260.1,242.4z M258.5,246.2l0.2,0.3l0.3,0l0.6-0.4v-0.2
	l-0.1-0.1l-0.6,0L258.5,246.2z M240.9,266L240.9,266l-0.1,0.2l0.1,0.1h0.2l0.1-0.1v-0.2L241,266H240.9z M265.8,247.3l-0.8,0
	l-0.3,0.5l-0.6,0l-0.2-0.2l-0.5,0l-0.2-0.2l-0.5,0.3h-0.3l-0.9,0.8l-0.6,0.2l-0.2,0.2l-0.1-0.1v-0.2l0.6-0.8l-0.2-0.4l-1.4,0.2
	l-0.4,0.2v1L259,249l0.1,0.2l0.4,0.1l-0.2,0.3l-0.3-0.2l-1,0l-0.2,0.2h-0.3l-0.3,0.5l-0.5-0.3l-1.1,0l-0.2,0.2l-0.5,0l-0.2,0.2
	l-0.3,0l-0.1-0.1l0.3-0.3l0-0.3l0.3-0.3v-0.3l-0.2-0.3l-0.2,0.2l-0.3-0.3h-0.5l-0.2,0.2l-0.8,0l-0.4-0.4v-0.2l-0.6-0.4l-0.3-0.5
	l-0.3,0.2l-0.8,0l-0.1,0.2l-0.8,0l-0.2,0.2l-1.4,0.1l0.2,0.4l0.5,0.2l0.2,0.3l0,1l-0.6,0.7l0,0.7l0.2,0.2l-0.2,0.2l-0.3,1.2l0.3,0.3
	l0.2,0.8l-0.3,0.3l0.2,0.5l-0.7,0.8l-0.3,0.2l-0.5,0l-0.2,0.2l-0.3-0.3l-0.5,0l-0.4,0.4l-0.2,0.5l-0.4,0.2l-0.3,0l-0.2-0.5l-0.6,0
	l-0.9,0.6v0.3l0.4,0.3l0.6,0.8l0,0.5l-0.2,0.2l-0.3,0.8l-0.6,0.8l0,1l-0.2,0.2v0.3l0.2,0.2l-0.5,0.7l-0.2,0.7l0.4,0.1l0.2,0.2h0.5
	l1.3-1l1,0l0.5,0.3l0.8-0.3l0.1-0.6l-0.2-0.3l-0.8-0.7v-1.2l0.2-0.2l0-0.7l0.2-0.2l0-0.8l0.2-0.2l0.2-0.8l0.2-0.3l0.3,0l0.3-0.3
	l0.8-0.2l0.2-0.2l0.3,0l0.5-0.7l0.3-0.2l0.6,0l0.2-0.2l0.2,0.2l0.5,0l0.2-0.2h2.1l0.2,0.2l0.5,0l0.2-0.3v-1l-0.4-0.3l-0.2,0.3
	l-0.2-0.3l0-0.3l0.3-0.7l0-0.7l0.2-0.4l0.8,0l0.6,0.3l0.3,0l0.3,0.3l0.6,0l0.1-0.3l0.6-0.6l0.5,0.3l0.8,0l0.1-0.2l0.6,0l0.2-0.2h0.3
	l0.1-0.8l0.6-0.6l0.6-0.3h1.4l0.2,0.2l0.2-0.2l0.6,0l0.2-0.2l1.3-0.2l1.1-0.8l0.3-0.5l0.4-0.1v-0.3l-0.4-0.2L265.8,247.3z
	 M258,246.6l-0.3-0.2l-0.4-0.4l-0.1-0.6l-0.3,0.2l-0.2-0.2l-0.7,0l-0.1,0.1l0,0.3l0.2,0.4l0.2,0.1l0,0.2l0.6,0.5l0,0.3l0.2,0.3
	l0.3-0.2l0.8,0l0.2-0.2h0.3l0.1-0.3l-0.6-0.4H258z M241.2,264.1l-0.2,0.3l-0.2,0.8l0.2,0.4l0.6-0.4l0.2-0.3l-0.1-0.8L241.2,264.1z
	 M252.1,246.6h0.3l0.7-0.9l0.2-0.5l-0.4-0.3l-0.5,0l-0.5,0.7h-0.5l-0.4,0.6l0.9,0.6L252.1,246.6z M275.8,207.3l-1.8-2.7l-0.2-0.1
	l-1.2-1.4l-0.3-0.7l-0.4-0.4h-0.2l-0.6-0.7l-1-0.2l-1-1.2l-0.3-0.2l-0.6,0l-0.5-0.8l-0.6,0l-0.5-0.5l-0.5,0l-0.3-0.3h-0.3l-0.2-0.2
	l-0.8,0l-0.2-0.2l-0.8,0l-0.2-0.2l-0.6,0.2l-0.4,0.2l-0.6,0.9l-1.1,0.2l-0.2-0.2l-0.5,0l-0.8-0.3l-0.2-0.2l-0.3,0l-1.1,0.5h-0.3
	l-0.2-0.2l-0.2,0.2h-0.3l-0.8-0.7l-1.1-0.5l-1,0l-0.1-0.2h-0.5l-0.8,0.8l-1.9,0l-0.2,0.2l-0.6,0l-0.5-0.3l-0.5,0l-0.7,0.6l-0.2,0.5
	l0.2,0.4l0.1,0l1.1,1.2l0.8,0.3l0.4,0.4l0.2,1l0.4,0.4l0.5,0l0.6-0.5h0.3l0.2-0.2l0.6,0l0.2,0.2l0.3,0l0.8,0.5l0.3-0.2l1.9-0.2
	l0.5,0.5l2.1,0.3l0.5,0.3l1,0.2l0.1,0.2h4.8l1.1,0.5l0.6-0.2l0.1,0.1l-0.2,0.2l0.1,0.1l0.6,0.2l0.2,0.2h0.3l0.3,0.5h0.2l0.5,0.5
	l0.3,0l0.3-0.3l0.6,0.2l1.3,1.2l0.5,0.2l0.7,0.8l-0.1,0.2l-0.5-0.5l-0.3,0l-0.1,0.3l0.3,0.3l0,0.2l0.4,0.4l0.3,0l0.8,0.7h1.1
	l0.2-0.3l0.2-0.3l0-0.9l0.2-0.2L275.8,207.3z M271.6,207.1l-0.2,0.3l0.1,0.1l0.2,0l0.1-0.1L271.6,207.1L271.6,207.1z M272.7,207.9
	L272.7,207.9v-0.2h-0.1l-0.1,0.1l0.1,0.1H272.7z M267.3,205.2L267.3,205.2v0.2l0.2,0l0.1-0.1l-0.1-0.1L267.3,205.2z M271.1,206.7
	L271.1,206.7L271,207l0.1,0.1l0.2-0.2l-0.1-0.1H271.1z M220.7,275.6l-0.2,0.3l0.1,0.1h0.3l0.1-0.1l0-0.2l-0.1-0.1H220.7z
	 M270.6,206.4L270.6,206.4l0.2,0.3l0.2-0.3l-0.1-0.1H270.6z M237.8,269.5l-0.2,0.2l-0.3-0.2l-0.2,0.2l-0.6,0l-0.6,0.7h-0.5l-0.8,0.3
	l-0.1,0.4l0.4,0.1l0.2-0.2l0.6,0l0.1-0.2l0.3,0l0.1,0.3l0.7,0.6l0.8,0l0.1-0.3l-0.6-0.5v-0.3l0.2-0.1l0.2,0.2l0.5,0l0.4-0.6v-0.3
	l-0.4-0.3H237.8z M231.4,273.2l-0.2-0.3l0-0.5l0.1-0.2l-0.1-0.2l0.2-0.3l0.1,0.2l0.1-0.1l0-0.3l-0.9-0.8h-0.2l-0.2-0.3l0-0.2
	l-0.6-0.4l-0.2,0.1l0,0.5l0.3,0.3l-0.3,0.5l0,0.5l0.5,0.3l0,0.3l0.5,0.5l0.1,1.2l0.2,0.3l0.3-0.2l0.6,0l0.3,0.3l0.3,0l0.2-0.2v-0.8
	l-0.4-0.4L231.4,273.2z M228.8,273.2l-0.1-0.3l-0.5,0l-0.2,0.2l-0.8-0.2l-1,0.8l-0.3-0.2l-0.1,0.1l0,0.3l0.1,0.2l-0.1,0.2l0,0.3
	l0.2,0.1l0.3-0.3h0.3l0.6,0.4l0,0.5l0.4,0.4l0.3,0l0.2-0.6v-0.3l-0.3-0.2l0-0.5l0.2-0.3L228.8,273.2z M229.6,260.8l-0.3-0.7v-0.3
	l-2-1.9l-0.4,0.1l0,0.5l-0.2,0.3l-0.9,0.1l-0.2-0.3l0.2-0.3l-0.1-0.3h-0.2l-0.5,0.5l-0.5-0.3l-0.5,0l-0.4,0.2l-0.1,0.3h-0.2
	l-0.4-0.3l0-0.3l0.2-0.2l-0.2-0.2l-0.5,0l-0.3,0.2l-0.2,0.3l0,0.3l0.3,0.3l-0.2,0.3l0.2,0.3l0.5-0.5l0.2,0.3l0,0.3l0.2,0.4l0.3,0
	l0.3,0.5l0.5,0l0.5-0.7l0.3,0.3l1,0l0.2,0.2l0.6,0.2l0.9,1.6l0.1,0.8h0.3l0.5-0.7h0.2l0.7-0.8L229.6,260.8z M220.8,262.5l-0.4,0.1
	l0,0.5l0.3,0.2l0.1,0.6l0.3,0.2l0.6-0.1l0.2-0.4l-0.4-0.2L220.8,262.5z M221.9,259.2l-0.8-1l0.2-0.3l0.2-0.5l-0.3-0.3L221,256
	l-0.5,0l-0.1-0.2h-0.8l-0.5,0.3l-0.5,0l-0.3,0.5l-0.6,0l-0.3,0.5h-0.2l-0.5,0.5h-0.8l-0.2,0.2l-0.5-0.2L215,258l0.2,0.3l-0.1,0.1
	l-0.2,0l-0.3,0.3l-0.3,0l-0.2-0.2l-0.8,0l-0.5-0.5l-0.5,0l-0.1-0.6l0.2-0.2L212,257l-0.2,0.3v0.3l-0.4,0.4l-0.8,0.2l-0.1,0.2
	l-0.5-0.3l-0.3,0l-0.3,0.3l-0.5,0l-0.3-0.3l-0.6,0l-0.6,0.3l-0.5-0.2l-0.2-0.2l-0.6,0l-0.2-0.5l-0.3,0l-0.5-0.3l-0.6,0l-0.1,0.6
	l-0.2,0.4l-0.6,0l-0.1,0.2l-0.9,0.1l0.1,0.3l0.6,0l0.6,0.4l-0.3,0.8l-0.3,0l-0.2,0.2l-1-0.5l-0.8-0.2l-0.2,0.3v0.3l0.2,0.2l-0.8,0.5
	l0,1.4l0.4,0.4l0.5,0l0.3-0.2l0.1,0.9l-0.7,0.8l-0.5,0l-0.5,0.3l-0.5,0l-0.2,0.4v1.4l-0.2,0.3l-0.3,0.2v0.3l-0.5,0.5l0,0.2l-0.6,0.7
	v0.2l-0.4,0.3l-2.4,0l-0.2-0.2l-0.6-0.2l-0.4,0.4l-0.1,0.8l-0.8,0l-0.3,0.3l-0.5,0l-0.3,0.3l-0.3,0l-0.2,0.2l-0.5,0l-0.2,0.4
	l0.9,0.1l0.3-0.2l0.5,0.3l1.1,0l0.2-0.2l0.5,0l0.2,0.2l1.9-0.2l0.6-0.3l1,0l0.3-0.2l0.6,0.4l0,0.3l0.3,0.7l0.4,0.1l0.2,0.2l1.3,0
	l0.8-0.7h0.3l0.5-0.3l0.3,0l0.2-0.4l0.4-0.2l0.6,0l0.2,0.2h0.3l0.2-0.2l0.6-0.2l0.6-0.6l0.3-0.7l0-0.5l0.6-0.5l0.2-0.3l-0.3-0.3
	l0-0.5l0.4-0.1l0.2,0.3l-0.2,0.3l0.1,0.1h2.2l0.3-0.2l0.4-0.6l0.2-0.7l-0.8-1l0-0.5l0.3-0.3v-0.2l-0.2-0.4H209l-0.2,0.3l-0.2-0.2
	l0.4-0.6l1.1-0.2l0.2-0.2l0.6,0l0.2,0.3l0,0.3l0.2,0.3l0.4,0.1l0.2,0.7l0.4,0.6l0.6-0.2l0.2,0.2v0.3l0.4,0.6l0.3,0l0.2,0.2l1,0
	l0.3-0.8h0.3l0.3,0.5l1,0l0.4-0.3l0-0.2l0.3-0.3l-0.1-0.3h-0.3l-0.2,0.2l-0.4-0.1l0.3-0.2l0.4-0.1l0.1-0.4l0.6,0l0.3,0.5l0.2-0.2
	l0.4-0.1l0.1-0.9l0.5,0l0.6-0.4l0-0.3l-0.2-0.2l0-0.7l-0.7-0.1l-0.1-0.4l0.2-0.3l0.7-0.4l1.1-0.2l0.1,0.2l0.3,0l0.2-0.3l0.2-0.5
	l-0.1-0.2L221.9,259.2z M240.9,266.5L240.9,266.5l-0.1,0.2l0.1,0.1l0.2-0.2l-0.1-0.1H240.9z M240.4,266.5L240.4,266.5l-0.1,0.3
	l0.1,0.1h0.2l0.1-0.1v-0.2l-0.1-0.1H240.4z M241.6,251.4l-1-0.1l-0.2-0.2l-0.6,0l-0.2,0.3l0,0.5l1,0.1l0.2,0.2l0.8,0L241.6,251.4z
	 M240.4,267.8L240.4,267.8l0.1-0.4l-0.1-0.1l-0.3,0l-0.1,0.1l0,0.3l0.1,0.1H240.4z M239.3,248.9l-0.2,0.2l0.1,0.1h0.2l0.1-0.1
	L239.3,248.9L239.3,248.9z M239.2,248.7L239.2,248.7l-0.2-0.1l-0.1,0.1l0.1,0.1L239.2,248.7L239.2,248.7z M240.1,268.4l-0.2,0.2
	h-0.2l-0.1,0.1l0,0.3l0.2,0.3l0.5-0.2l0.1-0.1l0-0.5l-0.1-0.1H240.1z"/>
</svg>
