<?xml version="1.0" encoding="utf-8"?>
<!-- Generator: Adobe Illustrator 23.0.1, SVG Export Plug-In . SVG Version: 6.00 Build 0)  -->
<svg version="1.1" id="Layer_1" xmlns="http://www.w3.org/2000/svg" xmlns:xlink="http://www.w3.org/1999/xlink" x="0px" y="0px"
	 viewBox="0 0 300 300" style="enable-background:new 0 0 300 300;" xml:space="preserve">
<style type="text/css">
	
		.st0{fill-rule:evenodd;clip-rule:evenodd;fill:#FCD4C7;stroke:#999999;stroke-width:0.25;stroke-linecap:round;stroke-linejoin:round;}
	
		.st1{fill-rule:evenodd;clip-rule:evenodd;fill:#FFE3CA;stroke:#999999;stroke-width:0.25;stroke-linecap:round;stroke-linejoin:round;}
	.st2{fill:none;}
	.st3{font-family:'GoodlifeBrush';}
	.st4{font-size:12px;}
	.st5{opacity:0.8;enable-background:new    ;}
	.st6{fill:#C77885;}
	.st7{opacity:0.8;fill:#C77885;enable-background:new    ;}
	.st8{opacity:0.4;}
	.st9{opacity:0.6;fill:#C77885;enable-background:new    ;}
	.st10{opacity:0.2;fill:#C77885;enable-background:new    ;}
</style>
<path class="st0" d="M368.8-35.9l-0.3,0.2l-0.6,0.2l-0.2,0.2h0.2l0.9,0.5h0.2l0.3-0.1l0.1-0.1l0.1-0.2l0.4-0.2l-0.3-0.3L368.8-35.9z
	 M356.3-49.2l0.4-0.2l0.4-0.3l0.5-0.3l0.2-0.2h-0.5l-0.2-0.1l-0.5-0.5H356l-0.5,0.2v0.7l0.3,0.5h0.2L356.3-49.2z M349.6-54.3
	l0.4-0.2l0.3-0.4l0.1-0.2l0.1-0.2l0.5-0.1l0.5-0.1l0.3-0.5h-0.3l-0.1-0.1l0.1-0.5l-0.1-0.4l0.2,0.1l0.2,0.1l0.2,0.3l0.2,0.1l0.1-0.3
	l-0.1-0.3l-0.1-0.4l-0.2-0.2l-0.7-0.1l-0.3,0.1l-0.3,0.1v-0.2l0.5-0.2l0.3-0.2v-0.3l-0.6-0.5l-0.4-0.6l-0.1-0.6l-0.4-0.4h-0.5
	l-0.6-0.1h-0.4l-1,0.3l-0.6,0.1h-0.3h-0.3l-0.4,0.6l-0.3,0.2h-0.3l-0.1-0.2l-0.7,0.4l-0.1,0.1L344-59v0.2l-0.3,0.3l-0.2,0.3
	l-0.3,0.1l-0.4,0.1l-0.2,0.1h-0.3H342l-0.2,0.1v0.1l0.1,0.1l0.3,0.1l0.3,0.1v0.1l-0.2,0.1l-1.1,0.3l-0.3,0.2l-0.1,0.1l0.1,0.2
	l0.8,0.7l0.1,0.1l0.1,0.4l0.7,0.2l0.3,0.2l0.3,0.1h0.6l0.2,0.1l0.1-0.1l0.1-0.1l0.5-0.3l0.2-0.1l-0.1-0.2l-0.1-0.1l0.3-0.3l0.4-0.3
	h0.2l0.3,0.2l0.2,0.3v0.2v0.1l0.2,0.3l0.1,0.1l0.4,0.1l0.1,0.1l-0.1,0.4v0.1h0.4h0.5h0.2l0.2-0.1l0.3-0.1h0.4l0.4,0.2L349.6-54.3z
	 M353.9-62h0.5l0.1-0.3v-0.4l-0.2-0.5l-0.1-0.1l-0.3-0.1h-0.3l-0.1,0.1l-0.1,0.1l-0.1,0.3l0.2,0.8l0.2,0.1L353.9-62z M349.3-62.9
	h0.2l0.7-0.3l0.2-0.2v-0.1l-0.1-0.4l-0.1-0.7l-0.4,0.1l-0.4,0.3l-0.1-0.1h-0.1l-0.2,0.1l-0.2,0.1l-0.1,0.1v0.2l-0.2,0.3v0.1h0.2
	l0.6-0.4h0.1h0.1l-0.1,0.2l0.1,0.3L349.3-62.9L349.3-62.9z M350.5-64.5v0.3v0.1l0.1,0.1h0.2l0.1-0.1l0.9-1.1l0.4-0.6H352l-0.2,0.1
	l-0.6,0.3l-0.2,0.2v0.1l0.2,0.1l-0.6,0.3L350.5-64.5z M351.9-68l-0.5-0.1l-0.3-0.4l-0.3-0.2h-0.1h-0.2l-0.5,0.2l-0.1,0.1l-0.1,0.2
	v0.1l0.7,0.3l-0.3,0.7l-0.5,0.1l-0.1,0.1v0.1h0.6l1.7-0.3l0.2-0.8L351.9-68z M349.3-68.7L349.3-68.7h-0.4l-0.5,0.4v0.1h0.2l0.4-0.2
	L349.3-68.7z M345.1-70.3l0.4-0.1l0.1-0.1v-0.1l-0.2-0.1l-0.3,0.1l-0.1,0.2v0.1H345.1z M350-70.3h0.2l0.1-0.1l0.1-0.1v-0.1l-0.1-0.1
	l-0.2-0.1l-0.5,0.2l0.2,0.3L350-70.3z M345.8-72.7v0.5l-0.1,0.4v0.2l0.1,0.3l0.1,0.1h0.2h0.2v-0.1l0.1-1.3l-0.1-0.1H345.8z
	 M351.6-70.8h0.2l0.2-0.1l0.6-0.5l0.5-0.3l0.1-0.2V-72l-0.1-0.1h-0.7l-0.8-0.1l-0.1-0.1l-0.2-0.1v-0.2l-0.1-0.3l0.1-0.3v-0.2v-0.4
	l-0.3-0.4l-0.2-0.1h-0.2l-0.1,0.3l-1,0.2v0.1l0.1,0.2v0.1l-0.1,0.1h-0.2l-0.2-0.1l-0.2,0.2v0.1l0.1,0.2l0.2,0.3l1,0.2l0.3,0.5
	l0.1,0.2l0.2,0.1h0.4l0.6-0.1v0.8L351.6-70.8z M346.9-73.5l0.4-0.5l-0.4-0.3l-0.3,0.1h-0.2l-0.3,0.1l-0.2-0.1h-0.1l-0.1,0.1
	l-0.1,0.1v0.1l0.8,0.4L346.9-73.5z M348-75.3l-0.6,0.3l0.3,0.3l0.1,0.1h0.1l0.2-0.1l0.3-0.3h0.2l0.5-0.5l0.5-0.2l0.7-0.4l0.1-0.1
	v-0.2l-0.1-0.1h-0.5l0.6-0.3l0.2-0.2h0.2l0.6-0.9l0.1-0.4l-0.1-0.3l-0.1-0.1l-0.3,0.1l-1.1,0.6l-0.9,0.3l-0.2,0.1l-0.1,0.1l0.2,0.5
	l0,0h-0.4l-0.3,0.1l-0.2-0.2l-0.3-0.1h-0.1l-0.1,0.1l-0.2,0.1l-0.1,0.2v0.2v0.1h0.2l0.1,0.1h0.1l-0.3,0.2v0.1l0.2,0.2l0.6,0.2v0.1
	l-0.4,0.2L348-75.3z M382.9-46.6l-0.2-0.4l-1.2-0.8L381-48l-0.9-0.2h-0.5l-0.5-0.1h-0.5l-0.6,0.1l-0.2,0.2l-0.4,0.4l-0.2,0.2
	l-0.2,0.1h-0.2l-1-0.5l0.4-0.4l0.4-0.3l0.4-0.3l0.3-0.4l-0.3-1l-0.6-0.7l-1.8-1.2h-0.8l-0.8-0.2h0.4l0.5,0.1l0.8-0.1l0.4,0.3
	l0.4,0.2h0.2h0.2L376-52l0.2,0.1l-0.4-0.7l-0.5-0.7l-0.2-0.4l-0.1-0.4l0.2-0.3l0.3-0.2l-0.6-0.4l-0.6-0.5l-0.6-0.6l-0.6-0.6
	l-0.4-0.2l-1.7-0.6l-0.3-0.3l-0.2-0.4l-0.5-1.4l-0.3-1.3l-0.3-1.3l-0.2-0.4L369-63l-0.4-0.3l-0.7-0.8l-0.5-0.5l-1.9-0.7h-1l-0.8,0.4
	h-0.1l-2.4-0.4l-0.4-0.1l-0.3-0.3l0.4,0.2l0.9,0.2h0.5l0.4-0.1l0.4-0.2l0.9-0.6h0.9l0.4-0.3l0.1-0.4l-1-0.4h-0.9l-0.5,0.1h-0.5
	l0.4-0.1l0.4-0.2l0.3-0.1l1.2-0.2l0.4-0.2l0.4-0.3l0.4-0.4l0.4-0.5l0.8-0.7l0.8-1.3l0.1-0.3l0.1-0.3l0.1-0.3l0.4-0.5l0.5-0.4
	l0.3-0.3v-0.1l-0.3-0.6l-0.4-0.4l-0.5-0.1l-0.7,0.1l-2.6-0.1h-0.4l-0.4,0.1H364l-0.9-0.2h-0.5l-1,0.3l-1,0.3l-0.5,0.1h-0.6l0.3-0.5
	l0.9-0.6l0.1-0.2l-0.2-0.1l-0.5-0.1l0.1-0.3l0.2-0.2l1-0.5l1.6-1l0.9-0.4l0.3-0.3l0.1-0.2l0.1-0.1v-0.4l0.3-0.4l0.1-0.1v-0.1
	l-0.9-0.1l-0.8,0.2l-0.9,0.1l-0.8,0.2l-1.4,0.1l-1.1,0.2l-0.2-0.3h-0.2l-0.6,0.3h-0.2l-0.2-0.2l-0.2-0.1l-0.5-0.1h-0.2l-0.2,0.1
	l-0.2,0.3l-0.1,0.2l-0.1,0.4l-0.1,0.2v0.2l0.2,0.3l0.1,0.2l-0.2,0.1h-0.9l-0.3,0.1l-0.1,0.1v0.2v0.2l-0.3,0.4l0.1,0.1l0.8,0.7
	l0.1,0.1l-0.5-0.1h-0.1l-0.1,0.1h-1.1l-0.3,0.3l-0.2,0.2l-0.3,0.6v0.1l0.1,0.2l0.1,0.2l0.4,0.1l-0.5,0.1l-0.3,0.1l-0.2,0.2l-0.1,0.2
	l0.1,0.3l0.6,0.2l0.1,0.2l0.3,0.3l-0.2,0.7l-0.7,0.8l-0.5,0.2l-0.1,0.1l0.5,0.3l-0.7,0.4l-0.7,0.1l-0.4,0.3v0.1l0.3,0.1h0.4l0.1,0.5
	l0.3,0.2l0.4,0.1h0.5l0.4-0.2l1.6-1h0.1l-0.3,0.4l-0.3,0.4l-0.1,0.3l-0.3,0.2l-0.2,0.5l-0.3,0.4l-0.3,0.5l-0.2,0.6l-0.3,0.4
	l-0.2,1.3l0.1,0.1h0.1l0.3-0.1l0,0l-0.5,0.4l-0.2,0.3l0,0.5l-0.4,1l-0.1,0.3v0.2l0.1,0.2h0.4h0.1l0.1-0.1l0.2-0.2l1-2.1l0.1-0.3
	l-0.1-0.7v-0.1v-0.1l0.1-0.1l0.5-0.4l0.9-0.6l0.4-0.2l-0.8,0.6l-0.2,0.3l-0.1,0.4v0.4v0.2h0.1l0.1-0.2h0.3l0.1-0.1l0.1-0.2l0.5-0.1
	l0.2-0.1l0.4-0.5l0.2-0.2h0.1l-0.2,0.4v0.2l0.7,0.5l0.4,0.2h-1l-0.1,0.1l-0.2,0.3l-0.1,0.5l-0.1,0.5l0.7,0.6l0.1,0.2v0.3l-0.2,0.4
	l-0.3,0.3l-0.9,1.2l-0.5,0.9l-0.2-0.1l-0.3,0.1v0.4l0.1,0.3l0.4,0.5l0.5,0.4l0.1-0.5l0.2-0.3l0.2-0.1l0.7,0.3l0.5,0.2l0.5-0.2
	l0.5-0.3l0.2-0.1l0.2,0.1l0.1,0.2l0.2,0.1h0.3h0.5l0.3-0.1l0.3-0.2l0.3-0.2h0.3l0.3-0.1l0.5-0.3l0.5-0.1h1.5h0.2l-1,0.3l-0.9,0.7
	l-0.7,1.2v0.5l0.6,0.9l0.3,0.4l0.6,0.6h0.2l0.3-0.2l0.3-0.1h0.6l0.1,0.2l-0.1,0.5l-0.2,0.5l-0.6,0.3l-0.1,0.3v0.4l0.2,0.1l0.3,0.1
	l-0.3,0.4l-0.3,0.4l-0.1,0.4l0.4,0.7l0.2,0.2l0.3,0.1h0.2l0.2,0.1l-0.5,0.1l-0.2-0.1l-0.6-0.7l-0.5,0.2l0.2,0.7l-1-0.5H361l-0.5,0.2
	l-0.5,0.1l-0.5-0.1h-0.2l-1.4,0.5l-0.7,0.4l-0.3,0.2l-0.2,0.3l-0.2,0.2l-0.6,0.3l-0.5,0.4l-0.2,0.3v0.2h0.4l0.5-0.3l0.5-0.2l0.6-0.1
	h0.6l-0.1,0.3v0.3l0.2,0.3l0.1,0.3l-0.2,0.3l-0.1,0.3l0.1,0.3l0.3,0.1l-0.3,0.4l-0.3,0.5l-0.3,0.4l-0.3,0.3l-0.8,0.4l-0.8,0.3
	l-1.5,0.6l-1,0.3l-0.4,0.3l-0.4,0.4l0.3,0.1l0.1,0.3v0.4l0.2,0.2l0.9,0.4l0.9-0.3l0.5-0.3l0.3-0.1h0.6L356-41l0,0l0.8,0.1l-0.4,0.2
	l-0.3,0.3h0.5l0.5-0.1l0.3-0.1h0.2l0.5,0.3l0.8,0.7l1.2,0.1h0.2l0.8-0.5l0.5-0.2l1.1-0.2l0.4-0.2l0.6-0.4l0.5-0.3l-0.8,0.7l-0.5,0.4
	l-0.5,0.4l-0.4,0.4l-0.8,0.9l-0.4,0.2l-0.5,0.1h-0.5l-1-0.2h-1l-1.4,0.2l-0.1,0.1l-0.6,0.9l-1,0.3l-0.1,0.4l-0.1,0.5l-0.1,0.3
	l-1.3,1.1l-0.2,0.3l-0.3,0.1l-0.2,0.2l-0.2,0.2l-0.5,0.4l-1,0.7l-1.1,0.3l-0.4,0.4v0.3l0.1,0.2l0.3-0.2l0.5-0.1l0.5,0.1l0.4,0.4
	l0.5-0.1l0.4-0.5l0.2-0.1l0.9-0.5l0.4-0.2l1-0.3l0.6-0.1h0.4l0.4-0.1l0.1-0.1h0.1l0.3,0.2l0.9,0.4l0.5,0.3l0.5-0.1l0.5-0.5l0.3-0.6
	l0.2-0.7l0.4-0.5l1.9-0.5h0.4l0.5,0.1l0.5,0.2l0.5,0.3l0.5,0.1l0.2-0.2h0.2l1.4,0.2h0.2l0.2-0.1l-0.2-0.3l-0.1-0.3l0.7,0.1l0.8-0.1
	h0.4l0.4-0.1l0.8-0.4l-0.3-0.4l0.6,0.2l0.7,0.1l0.6,0.2l0.6,0.2h0.4l1.5-0.3h1.1l1.8,0.3l0.4-0.1l0.5-0.2l0.5-0.2l0.7-0.2l0.4-0.3
	h0.8l0.1-0.3l0.3-0.4l1.5-0.6l0.2-0.1l0.1-0.7v-0.3l-0.2-0.1h-0.5l-1.1,0.1H379l-0.9-0.2l-0.2-0.1l-0.2-0.4l-0.3-0.1l-0.5,0.1
	l0.4-0.2l0.4-0.1h0.5l0.5-0.1l0.4-0.2l0.2-0.4l-0.1-0.2l-0.6-0.2l0.9-0.4l0.6,0.1l0.4-0.1l0.4-0.2v-0.3l-0.2-0.3v-0.1h0.2l0.2,0.1
	l0.4-0.2l0.7-0.5l0.2-0.2l0.1-0.2l0.2-0.7l0.3-0.5l0.2-0.6v-0.6L382.9-46.6z M365.3-80.1l0.1,0.1l0,0l0.1-0.3l0.1-0.2h-0.2l-0.4,0.1
	L365.3-80.1z M364.1-80.3h0.2l0.2-0.1l0,0l-0.2-0.1v-0.1v-0.2l-0.2-0.3l-0.3-0.1l-0.2,0.1v0.2l0.1,0.2L364.1-80.3z M363.9-81.3h0.1
	l0.3-0.2v0.1v0.2v0.1l0.1,0.1h0.1l0.7-0.1l0.5,0.3h0.2l0.1-0.1l0.2-0.3l-0.2-0.1h-0.3l-0.4-0.1H365l0.1-0.1l0.2-0.2v-0.1l-0.1-0.1
	l-0.4-0.2h-0.4l-0.3,0.1l-0.2,0.4L363.9-81.3L363.9-81.3L363.9-81.3z M367.9-82.9L368-83h-0.5l-0.3,0.1l-0.3,0.3h0.5L367.9-82.9z
	 M365.6-82.9l0.4,0.1v0.3l0.1,0.1l0.4-0.1l0.1-0.2l0,0l-0.3-0.1l-0.2-0.3l-0.4-0.3l-0.3,0.1v0.1l0.1,0.2L365.6-82.9z M371.6-88.1
	h0.1h0.4h0.1v0.1l0.1,0.1l0.3-0.1h0.4l0.1,0.2v0.2l-0.1,0.4l-0.3,0.7l0.2,0.2h0.1l0.2-0.5l0.2-0.2l0.1-0.6l0.1-0.1l0.1-0.3l0.1-0.2
	l0.4-0.9l0.1-0.3l-0.3,0.1h-0.2l-0.3-0.4l-0.2,0.1l-0.1-0.4l0.1-0.4H373l-0.2,0.1l-0.4,0.4l-0.2,0.1l-0.1,0.1l0.1,0.1l0.4,0.1
	l0.2,0.7l-0.5,0.2H372l-0.4,0.1v0.1L371.6-88.1z M374.2-89.6L374.2-89.6l0.1-0.4v-0.3l0,0h0.2v-0.1v-0.2h-0.4l-0.4,0.6L374.2-89.6
	L374.2-89.6z M374.9-90.5h0.3v-0.2l0.3-0.5v-0.1l-0.1-0.1h-0.1l-0.2,0.1l-0.1-0.1h-0.1l-0.1,0.1l-0.1,0.3L374.9-90.5L374.9-90.5z"/>
<path class="st0" d="M503.5,283.4l-0.2,0.3v0.1l0.2,0.2h-0.4l-0.2-0.2l0.1-0.2l-0.1-0.2l-0.1-0.8l-0.2-0.3l-0.3-0.1l0.1,0.3
	l-0.1,0.3l-0.2,0.2l-0.2,0.1l0.1,0.4l0.5,0.6l0.3,0.2l0.5-0.1l0.2,0.2v0.1l0.1,0.1l0.2,0.1v-0.2v-0.7L503.5,283.4z M474.3,232.1
	l-0.8-0.4l-0.2-0.1l-0.1-0.3l-0.1,0.3l0.1,0.3l1,0.4l0.2,0.2l0.2,0.3l0.4,0.4h0.1l0.3-0.2l-0.2-0.1L474.3,232.1z M473.4,231.2v-0.1
	l-0.1-0.4v-0.4l-0.2,0.3v0.5L473.4,231.2L473.4,231.2z M570.6,252.4l-0.5-0.8l-0.5-0.8l-0.5-0.8l-0.3-0.6l-0.4-0.7l-0.3,0.5H568
	l-0.4-0.1h-0.1l-0.4-0.1l-0.6-0.1l-0.8-0.1l-0.9-0.1l-1-0.1l-1.1-0.2l-1.1-0.2l-1.1-0.2l-1.1-0.2l-1-0.1l-0.9-0.1l-0.8-0.1l-0.6-0.1
	l-0.4-0.1h-0.1l-0.4-0.1l-0.3-0.3l-0.3-0.4l-0.3-0.4l-0.3-0.4l-0.6-0.8l-0.3-0.4l-0.3-0.4l-0.3-0.4l-0.3-0.4l-0.3-0.4l-0.3-0.4
	l-0.3-0.4l-0.3-0.4l-0.3-0.4l-0.3-0.4l-0.3-0.4l-0.2-0.3l-0.1-0.3l-0.1-0.8v-0.2h-0.2l-0.3-0.1l-0.4-0.1l-0.4-0.1l0.2-0.8l0.2-0.3
	l-0.1-0.2h-0.4l-0.4-0.3l-0.4,0.1l-0.4,0.1h-0.4l-0.3-0.1l-0.2-0.1l-0.4-0.5l-0.3-0.6l-0.4-0.5l-0.3-0.6l-0.6-0.7l-0.3-1.3l-0.3-0.7
	l-0.9-0.8l-0.2-0.3l-0.3-0.8l-0.3-0.5l-0.3-0.7l-0.3-0.9l0.1-0.1h0.2l0.2,0.1h0.1l0.2-1.2l-0.2-0.6l-0.4-0.3l-0.5-0.4l-0.1-0.5
	l-0.1-0.4l0.1-0.1l0.3,0.1l0.2,0.1h0.1l-0.9-1l-1.4-0.7l-1-1.1l-0.7-0.2l-0.7-0.8l-0.6-0.7l0.3-0.3l-0.4-0.2l-0.4-0.1l-0.9-0.5
	l-0.6-0.6v-0.2l0.1-0.2l-0.2-0.6l-0.2-0.4l-0.8-1l-0.6-1.3l-0.2-0.6l-0.3-0.6h-0.9H530h-0.9h-1l-0.5-0.6l-0.2-0.6l-0.2-0.6l-0.5-0.9
	l-1.5-0.2l-0.8-0.1l-1.3-0.2l-1-0.1l-0.9,0.2l-2-0.2l-2.3-0.2l-2.3-0.2l-1.7-0.2l-0.1-0.1l-1.8-1.4l-1.4-1.1l-1.7-1.3l-1.8-1.4
	l-1.8-1.4l-1.3-1l-1.6-1.3l-1.5-1.2l-1.1-0.9l-1.4-0.8l-1.1-0.6l-1.6-0.9l-1.3-0.7L492,196l-1.7-1l-0.6-0.3l-1.7-0.3l-1.6-0.3
	l-1.7-0.3l-1.1-0.2l-0.7,0.7l-0.2,0.1l-0.9,0.3l-1.9,0.6l-1.3,0.4l-1.6,0.5l-1.4,0.4l-1.3,0.4l-1.2,0.4l0.8,0.8l1.2,1.2l0.8,0.8l1,1
	l0.9,0.9l0.9,1l-0.6,0.3l-0.9,0.6l-0.1,0.1l-0.1,0.1l-0.3,1l-0.3,0.8l-0.1,0.1l-1.3,0.3l-1.3,0.3l-0.8,0.2l-0.2,0.2l-0.5,1l-0.5,1
	l-0.9,0.8l-1,0.9l-0.3,0.1l-0.8-0.1l-1.3-0.2l-1.3-0.2l-0.9-0.2l-1.1-0.2l-0.5,3.7v1.2l-0.4,1.4l-0.3,0.7l0.1,0.5l0.5-0.4l0.5,0.1
	l1.3,0.1l0.5,0.3l1.3,1.8l0.9,1.8l1,1l0.5,1.1l1,1.1l0.3,0.7l0.8,1l1.5,2.9l0.8,0.4l0.2,0.8l0.3,0.9l0.5,0.3l0.3,0.3l1.3,2.1
	l0.4,0.8l0.1,0.5l0.1,0.7l-0.2,0.5l-0.2,0.3l0.9,1.2l0.5,0.9l0.6,1l0.5,0.1h0.4l0.6,0.5h0.5l0.3,0.4l0.6,0.4l1,0.9l0.9,1.2l0.4,0.9
	l0.9,1.5l0.3,0.7l0.2,0.9l0.2,0.3l0.6,0.6h-0.3l0.3,0.5l0.4,0.2v0.4l0.3,0.6l0.2,1.2l-0.1,0.6l-0.2,0.5v1l-0.1,0.9l0.2,0.6l0.3,0.7
	l0.3,0.9v0.5l-0.3,0.7l1,2l1.2,1.4l0.7,1.3l0.6,0.7l0.8,0.6l1,0.2l2.1,1.6l0.7,1l0.7,0.4l0.1,0.2l0.1,0.4l0.3,0.5l0.3,0.4l1.1,2.4
	l0.2,0.5l0.3,0.7l0.2,0.6l0.1,0.5l1.1,1.3l0.4,1.2l0.8,1.5l0.5,0.7l1.6,1.3l1.3,1.4l0.2,1l0.3,0.8l0.5,0.4l0.4,0.5l0.1,0.5l0.5,0.4
	l0.3,0.4l0.2,0.5v0.5l0.3,0.7l0.1,0.5l0.9-0.8l0.2-0.2l0.1-0.2l0.2-0.5l0.3-0.1l0.1-0.5v-0.2l-0.2-0.2l-0.2-0.6v-0.7v-0.3l0.1-0.5
	l0.3-0.2l0.1-0.2l-0.3-0.3v-0.2l0.5-0.6l0.2-0.2l0.4-0.2h0.3l0.3,0.1l0.3,0.2l0.3,0.3l0.3,0.3l0.5,0.1h0.3l0.3,0.1l0.2-0.1l0.2-0.2
	h0.4l0.3-0.2l1-0.1l1,0.1l1-0.2h1h1h0.2l0.2,0.1l0.9,0.5l0.7,0.1l1.3,0.1l1.4,0.1l1.2,0.1l1-0.1l0.9-0.1h0.2l0.3,0.3l0.6,0.8
	l0.5,0.7h0.9l0.5-0.3l0.6-0.4l0.4-0.3l0.4-1.2l0.2-0.8l0.6-0.9l0.5-0.7l0.7-1l0.4-0.5l0.7-1.1l0.7-0.4l1.4-0.8l1.3-0.8l0.9-0.5
	l0.8-0.2l1.3-0.2l1.5-0.2l1.5-0.2l1.6-0.2l1.8-0.3l1.2-0.2l1.6-0.2l1.3-0.2l1.2-0.2l1.2-0.2l0.7-0.3l0.9-0.3l0.9-0.3l0.9-0.3
	l0.9-0.3l0.9-0.3l0.9-0.3l0.9-0.3l0.9-0.3l0.9-0.3l0.9-0.3l0.9-0.3l0.9-0.3l0.9-0.3l0.9-0.3l0.9-0.3l0.9-0.3l0.5-0.2l0.2-0.8
	l0.1-0.6l0.1-0.6l0.1-0.6l0.1-0.6l0.1-0.6l0.1-0.6l0.1-0.6l0.1-0.6l0.1-0.6l0.1-0.6l0.1-0.6l0.3-1.3l0.1-0.6l0.1-0.6l0.1-0.6
	l0.1-0.6L570.6,252.4z"/>
<polygon class="st0" points="685.5,131.3 685.4,128.4 685.3,125.5 685.3,122.5 685.3,121.2 685.2,119.9 685.2,118.6 685.2,117.3 
	685.1,116 685.1,114.6 685.1,113.3 685,112 685,110.7 685,109.4 684.9,108.1 684.9,106.7 684.9,105.4 684.8,104.1 684.8,102.8 
	684.8,101.5 684.7,100.1 684.7,98.8 684.7,97.5 684.6,96.2 684.6,94.9 684.5,93.6 684.5,92.2 684.5,90.9 684.4,89.6 684.4,88.3 
	684.3,87 684.3,85.6 684.2,84.3 684.2,83 684.1,81.7 684.1,80.4 684,80.1 683.7,79.2 683.4,78.1 683.1,76.7 683.1,76.3 682.6,74.8 
	682.5,74.4 682.6,74.1 683.3,72.9 683.5,72.3 683.7,71.6 683.7,71.1 683.5,70.2 683.2,69.4 683.1,68.6 683,67.8 683.3,67.3 
	683.8,66.8 683.9,66.4 684.2,66.1 684.4,65.9 684.2,65.6 683.7,64.6 683.3,64.2 683,64 682,63.8 681,63.9 679.2,63.9 678.8,63.7 
	678.1,63.2 677.6,63 675,62.7 674.1,62 674.1,61.6 674.2,61.3 674,60.3 673.1,59.9 672.3,59.6 671.2,59.3 670.2,58.8 669.5,58.5 
	667.8,58.6 667.2,58.4 666.8,58.4 665.7,59.2 665.2,59.4 664,59.4 661.8,60.5 660.6,61.4 659.4,62.6 659,63.3 658.7,63.9 658.5,65 
	658.7,66.5 659,67.4 659.5,68 659.7,68.6 659.7,69.3 659.6,70 659.1,70.9 657.7,72.7 657.1,73.2 655.6,73.9 654.8,74 653.8,73.9 
	652.5,73.2 650.1,71.1 648.9,70.6 648.3,70.2 645.9,69.3 643,68.5 641.4,68.4 639.8,68.2 638.3,67.7 637.7,67.3 637.1,66.7 
	636.6,65.9 636.2,64.9 635.9,64.1 635.9,63 635.4,62.1 635,61.6 631.7,60.9 631.3,60.7 630.3,59.9 629.9,59.8 628.4,59.3 
	627.4,59.2 626.9,59.1 625.6,58.6 624.9,58.7 623,59.2 621.4,59.1 620.7,58.9 618.4,57.5 617.6,57.4 616.9,57 616.9,57.2 
	616.7,58.3 616.6,58.7 616.6,59.3 616.6,60.2 617,60.9 617,61.2 616.9,61.5 616.2,61.9 615.2,62.4 614.4,62.9 613.5,63.4 
	613.3,63.8 612.8,64.1 612.5,64.3 612.4,64.6 612.1,65.1 611.8,65.5 611,65.6 610.8,65.8 610.4,66.3 610.2,66.6 610,67.1 
	610.3,68.3 610.6,69.6 610.7,70.1 610.7,70.5 610.5,71 610,71.7 609.7,72.2 609.1,73.1 608.9,73.3 608.5,73.6 607.6,74 607,74.3 
	606.5,74.6 606,74.9 606.4,75.6 607.2,76.8 607.6,77.7 607.8,78.1 608.1,79.3 608.4,80.4 608.5,80.8 608.6,81.6 608.5,84 
	608.7,87.1 609,88.6 608.5,89.9 608.1,91.2 608.1,91.9 608.3,92.9 608.6,93.7 608.8,94.1 608.8,95.3 608.7,95.8 607.8,96.5 
	606.8,97.1 606.5,97.6 606.5,98.2 606.6,98.7 607.2,99.7 608.3,101.3 609.4,103 609.4,103.4 609.5,104.6 609.9,106.1 610.4,106.8 
	610.6,107.3 611,107.7 611.3,107.9 611.6,108 612.8,107.5 614.9,108.2 617,108.9 617.1,109.1 617.5,110 618.3,111.4 618.8,112.6 
	619.3,113.6 621.9,114.3 624.4,114.9 626.9,115.6 627.5,115.9 628.9,117.2 630.6,118.9 630.7,118.9 630.8,118.9 632.4,117.9 
	634.5,116.7 634.5,116.7 636.4,115.7 637.8,115 639.6,114 641.3,115 643.7,116.4 646.2,117.8 648.6,119.2 651,120.5 653.5,121.9 
	655.9,123.3 658.4,124.7 660.8,126.1 663.3,127.5 665.7,128.9 668.2,130.3 670.6,131.6 673.1,133 675.6,134.4 678,135.8 
	680.5,137.2 680.5,136.5 680.5,135.7 680.5,135 680.4,134.3 681.7,134.3 683,134.3 684.2,134.3 685.5,134.3 685.5,134.3 
	685.5,134.2 685.5,134.2 685.5,134.2 "/>
<path class="st1" d="M663.9,19.3l-0.4-0.1l-0.1,0.1v0.3l0.3,0.2l0.2-0.1v-0.1V19.3z M680.6,10.5l-0.8,0.4l-0.3-0.1l-0.3,0.1
	l-0.2,0.3l-0.3,0.1l-0.7-0.1h-0.7H677l-0.3,0.1l-0.5,0.4l-0.6,0.2h-0.4l-0.6,0.2l-1.1-0.1l-0.5,0.1l-0.7,0.3H672l-0.3-0.1l-0.9-0.6
	h-0.3l-0.2-0.1l-0.2-0.3l-0.3-0.1h-0.6l-0.5,0.4v0.3l-0.4,0.3H668l-0.3-0.2l-0.6-0.7l-0.2,0.2l-0.2,0.2l-0.3,0.1l-0.3,0.2l-0.3,0.7
	l-0.2,0.7l0.1,0.3l0.4,0.6l0.6,0.4l0.3,0.1h0.3h0.5h0.3l0.6,0.4l0.6,0.2l0.2,0.2l0.2,0.2l0.5,0.4l1.1,0.6l1,0.7l0.5,0.2h0.6h0.6
	l0.6,0.3l0.5,0.4l0.7,1l0.3,0.1l0.3,0.1l0.8,0.3l0.6-0.1l0.5,0.2h0.5v-0.3l-0.1-0.3l0.1-0.3l0.1-0.3l0.2-0.3l0.5-0.5v-0.3v-0.2
	l-0.3-0.2l-0.3-0.4l0.3-0.2l-0.2-0.2l-0.2-0.1l-0.1-0.2l-0.1-0.2v-0.5l0.1-0.4l0.2-0.3l0.1-0.4l0.1-0.4l0.1-0.4l1.1-1.7l0.2-0.3
	L681,11l0.3-0.3l-0.3-0.2H680.6z M646.3,5.6L646.3,5.6v0.5l0.3,0.4l0.3-0.6l-0.2-0.1L646.3,5.6z M672.9-3.2L672.9-3.2l0.1-0.2
	l-0.4-0.1l-0.1,0.2l0.1,0.1l0.1,0.1L672.9-3.2z M646.1-5.1l0.2-0.1l0.1-0.2l-0.1-0.1L646-5.4L645.8-5l-0.1,0.2h0.2L646.1-5.1z
	 M652.7-3.8l-0.2-0.4l-0.3-0.2l-0.1-0.1l0.2-0.3l0.1-0.1V-5l-0.2,0L652-5.2l-0.2-0.3l-0.2-0.3L651.1-6h-0.3l-0.3-0.3l-0.2,0.1
	l-0.1,0.3L650-5.7l-0.5,0.2l-0.8,0.9L648-4.2L647.4-4l-0.5,0.1L646.4-4h-0.2l-0.3-0.3h-0.1l-0.1,0.2l-0.1,0.6v0.7l0.2,0.3l0.3,0.3
	l0.3,0.3l0.1,0.3l0.1,0.5l0.3,0.3v0.9l-0.1,0.3l-0.2,0.2V0.5v0.4L647,1l0.2,0.3v0.4v0.2L647.1,2l-0.2-0.2L646.8,2v0.4L646.7,3
	l-0.1,0.2l-0.1,0.2v1.1V5l0.3,0.6l0.3,0.5l0.2,0.4l0.3,0.2h0.3l0.4,0.1h0.4l0.4-0.3l0.3-0.5l0.2-1.2l0.2,0.2l0.2,0.1l0.3-0.1h0.3
	l0.6,0.3l0.5,0.2l0.4-0.2l0.1-0.5l0.2-0.6l0.3-3.3l0.1-0.1V0.4L652.6,0l-0.1-0.6l0.5-0.8l0.1-0.2l0.1-0.3l-0.1-0.3L652.7-3.8z
	 M656.3-15.2l-0.2-0.2l-0.2,0.2h-0.3l-0.2,0.1h-0.6l-0.1,0.1l0.1,0.2h0.4l0.6-0.1l0.4,0.3v-0.3l0.1-0.1V-15.2z M694.5-0.3l-0.7-0.9
	l-1.4-1.1L692-2.8l-2.3-1.1l-1-0.8l-0.8-0.5l-2.6-1l-2.6-1.2l-0.5-0.4v-0.6l0.6-0.5l0.5-0.3l0.2-0.3l-0.1-0.5l-0.5-0.2l-0.5-0.1
	l-2.6,0.1l-1.1-0.1l-1.4-0.7l-1.6-1.1l-1.7-1.5l-0.8-1l-0.4-0.9l-0.6-1.9l-0.5-1.2l-0.6-1l-0.3-0.2l-1-0.4l-1.8-1.3l-1-0.4l-1-0.8
	l-0.4-0.5l-0.4-1.2l-0.3-1.7l0.1-0.6h0.2l0.3,0.2l0.4-0.3l0.2-0.3l0.1-0.4l-0.6-0.9l-0.5-1l-0.3-0.2l0.1-0.7l0.1-0.4l0.4-0.3
	l0.6-0.3h0.2l-0.5,0.4h0.3l0.5-0.2l0.7-0.3l0.7-0.4l0.6-0.2l0.4-0.3l0.2-0.3l0.2-0.1l1.2,0.4l0.4-0.3h0.3l0.7,0.8l-0.3,0.2h0.3
	l0.3-0.1l0.1-0.1l-0.2-0.4l-0.5-0.5l-0.3-0.2l-0.4-0.1l-0.1-0.1l0.2-0.7l-0.1-0.1h-0.4l-0.1-0.1v-0.1v-0.2l0.3-0.3l0.3-0.3l0.1-0.1
	v-0.1l-0.4-0.1l-0.2-0.1h-0.2l-0.1,0.1L670-35l-0.1-0.2l0.1-0.3l0.4-0.3l0.4-0.3l0.3-0.2l0.2-0.1l0.1-0.3l-1-0.2h-0.6L669-37
	l-1.7-0.3l-0.5-0.1h-0.5l-0.5-0.1l-0.4-0.2l-0.3-0.3l-0.3-0.4l-0.5-0.6l-0.1-0.3l0.2-0.2l0.2-0.2v-0.1h-0.1l-0.9,0.2l-0.9,0.3h-0.3
	l-0.3-0.1h-0.4l-0.4,0.1h-0.9l-0.5,0.2l-0.3,0.4l-0.2,0.4l-0.1,0.1H659h-0.5l-0.3-0.1l-0.3-0.3h-0.5h-0.5l-0.1-0.1l-0.2,0.7v0.4
	l0.2,0.3v0.2l-0.1,0.2h-0.3L656-37l-0.4-0.3h-0.3l-0.2,0.1l-0.1,0.3l-0.1,0.4v0.2l0.2,0.2l0.1,0.3l0.1,0.4l0.1,0.2l-0.1,0.1
	l-0.2,0.1l-0.2-0.1l-0.3-0.5l-0.1-0.2h-0.3l-0.4,0.1l-0.7,0.3h-0.3l-0.2-0.1l-0.2-0.2l-0.2-0.5l-0.1-0.3H652l-0.4-0.1l-0.2,0.1v0.5
	v0.6l-0.2,0.4l-0.6,0.7l-0.2,0.3l-0.1,0.2v0.2l0.1,0.3l0.1,0.3l-0.1,0.2l-0.3,0.1l-0.2-0.2l-0.1-0.3l-0.5-0.4l0.2-0.4v-0.1l-0.8-0.2
	l-0.3-0.3l-0.5-0.5l-0.1-0.2V-36v-0.2l-0.1-0.1h-0.2l-0.3,0.2l-0.3,0.4l-0.6,0.4l-0.1,0.1l0.2,0.4v0.2l-0.5,0.6l-0.1,0.2l-0.7,0.4
	l-0.3,0.1l-0.9-0.3h-0.2l-0.4,0.2l-0.6,0.2l-0.9,0.2l-0.3-0.1l-0.2-0.1l-0.4,0.3l-0.6,0.3l-0.1,0.2v0.2l0.1,0.2l0.3,0.2l0.4,0.5
	l0.2,0.5l0.5,0.4l0.1,0.1v0.1L641-30l-0.2,0.6l-0.2,0.1h-0.2l-0.7,0.5l-0.3-0.1H639l-0.3,0.1v0.3l0.3,0.3l0.1,0.8l0.1,0.3l0.3,0.2
	l0.4,0.1h0.2l0.2,0.1l0.1,0.1l0.2,0.6l-0.1,0.2l-0.2,0.1l-0.1,0.3l-0.3,0.4l-0.2,0.3l0.2,0.3l0.1,0.2l-0.1,0.2l0.1,0.3l0.3,0.3
	L641-23l0.8,0.4l0.2,0.1l1.1-0.2h0.2l0.1,0.3l0.1,0.2l-0.1,0.3l-0.3,0.4l-0.3,0.3l-0.2,0.3v0.2v0.3l1.1-0.2L645-21l0.4-0.2l1-1.2
	l1.2-1.2l1-0.4l0.8,0.1l1.2,0.5h0.4l2.1,1.2l1.5,0.5l0.7,0.4l0.3,0.5l0.3,1.9l0.6,0.8l0.3,0.9l0.1,0.4l-0.1,0.4v0.6L657-16h0.3
	l0.3,0.1l0.1,0.2l0.1,0.3l0.2,0.2l0.6,0.4l1.1,1.2l0.1,0.4l-0.2,0.1l-0.2,0.2l0.2,0.2h0.2l0.3-0.1h0.2l1,0.3l0.7,0.4l0.8,1.2
	l1.3,0.8l0.6,0.7l2,2l1,0.3l0.8,0.6l0.1,0.2l0.2,0.1l0.4-0.2l0.3-0.1l0.5,0.1l0.9,0.3l0.5-0.1l0.3,0.1l0.6,0.6l0.9,1.5v0.3l0.2,0.1
	l0.1-0.2h0.2h0.8l0.6,0.3l0.2,0.2l-0.6,0.7h0.2l0.4-0.2h0.5l0.3-0.1l0.7-0.1l0.4,0.2l0.3,0.4l0.2,0.5l0.2,0.5L677.6-1v0.3l0.1,0.1
	l1.7,1l0.5,0.1h0.9l0.5-0.1l0.4,0.7l0.5,1.4l0.8,1.6l0.3,1.3l0.2,0.7l0.5,0.5v1.1l-0.6,0.1L682.9,8l-0.2,0.2l-0.2,0.3l0.1,0.8
	l-0.4,1.1l-0.6,0.2l-0.3,0.5v0.8l0.4,0.6h1.6l0.2-0.5l0.2-0.4l0.6-1l1.2-0.9l0.1-0.5l0.1-1.2l0.3-0.5l0.7-0.5l0.9-0.3l0.7,0.1
	l0.4-0.5l-0.3-0.8l-0.1-1.4l-0.6-0.6l-0.9-0.6l-1.1-0.4l-0.4-0.6V1.2l0.6-1.1l0.6-1.1l0.6-0.8l0.5-0.3l0.7,0.1l0.2,0.1l0.2,0.3v0.2
	l0.7,0.3l0.4,0.1l1.9,0.2l1.1,1.5l0.7,0.5l0.6,0.2l0.2-0.5l0.1-0.5l0.3-0.2L694.5-0.3z M665.9-21.3h-0.3l-0.1-0.2l0.2-0.3h0.3
	l0.1,0.2L665.9-21.3z"/>
<polygon class="st0" points="533.5,109.6 533.2,109.4 532.7,108.9 532.3,108.7 531.6,108.8 531.2,108.7 530.7,108.6 530.3,108.6 
	530.1,108.9 530,109.1 529.6,109.2 529,109.4 528.1,109.7 527.6,109.6 527.5,109.5 527.5,109.3 527.8,109.1 527.8,108.8 
	527.7,108.6 527.4,108.5 527.2,108.5 527.1,108.4 526.5,108.3 526,108.3 525.2,108.6 523.9,109.5 523.4,110 523.1,110.9 
	521.7,111.2 520.8,111.7 520,112.5 519.4,112.9 519,113 518.7,112.9 518.3,112.7 517.9,112 517.4,111 517,110.3 516.9,109.5 
	516.8,108.5 516.7,107.5 516.7,106.3 516.8,105.9 516.7,105.6 516.5,105.5 516.2,105.5 515.8,105.7 515.5,105.7 515.2,105.6 
	515.1,105.1 515.2,104.1 514.6,103.3 513.5,102.6 512.6,102.4 511.9,102.6 511.5,103.1 511.2,104 510.9,104.7 510.5,105.2 
	510.2,105.5 510.1,105.6 510.1,105.8 510.5,106.5 510.6,107.1 510.4,107.6 510.1,107.8 509.8,107.8 509.4,107.7 509.2,107.5 
	508.6,107.4 507.7,107.5 507.1,107.8 506.8,108.2 506.8,108.7 507.1,109.3 507.1,109.8 506.9,110.2 506.7,110.4 506.5,110.4 
	506.1,110.1 505.3,109.5 504.8,109.1 504.6,109.1 504.4,109.1 504.3,109.2 504.2,109.3 504.2,109.5 504,109.5 503.7,109.5 
	503.5,109.5 503.4,109.7 503,110 502.3,110.3 501.9,110.6 501.9,110.9 501.8,111 501.6,111 500.9,111.4 500.4,111.2 499.7,110.7 
	499.3,110.2 499.2,110.1 499.1,109.9 498.8,109.7 498.4,109.7 498.1,109.7 497.9,109.5 497.5,109.5 497,109.8 496.4,109.7 
	495.6,109.1 494.4,108.9 493,109 492.7,109 492.1,108.9 490.9,108.6 489.8,108 489.1,107.7 489,107.7 488.7,108 488.6,108.3 
	488.5,108.9 488.4,109.6 487.2,109.6 486.2,109.7 485.6,109.9 485,110.3 484.9,110.7 484.9,111.3 484.7,112.6 484.6,113.7 
	484.6,114.5 484.4,115 483.8,115.7 483,116.2 482.6,116.4 482.5,116.7 482.5,116.9 482.3,117 482,116.9 481.6,117 480.9,117.2 
	480,117.6 479.1,117.9 478.5,117.9 478.2,118 478.2,118.1 478.3,118.4 478.5,118.7 478.6,119 478.4,119.2 478.3,119.6 478.3,120.4 
	478,120.6 477.4,120.9 476.8,121.4 476.7,121.5 476.3,121.6 476,121.6 475.6,121.5 475.2,121.6 474.9,122 474.7,121.9 474.6,121.5 
	474.3,121.3 473.6,120.8 473.1,120.4 472.8,120.3 472.4,120.4 471.8,120.5 471.3,120.4 470.9,120.3 470.2,119.8 470,119.5 
	469.8,119.3 469.4,119.3 469.5,119.7 469.6,120 469.4,120.2 469.4,120.5 469.3,120.9 469.3,121.2 469.1,121.3 468.9,121.4 
	469,121.8 469.2,122.1 469.4,122.5 469.3,122.7 469.2,123 469.1,123.5 469.2,123.9 469.1,124.2 468.9,124.5 468.8,124.7 
	468.8,125.1 468.7,125.2 468.4,125.5 468.2,125.6 467.9,125.7 467.8,125.9 467.9,126 468.1,126.1 468.3,126.5 468.8,127 
	467.6,127.1 467.4,127.6 467.1,128.4 467.5,129.9 467.4,130.6 467.6,131 468,131.3 468.4,131.5 469.2,131.5 469.7,131.6 
	469.7,131.8 469.5,132.1 469.1,132.7 468.9,132.9 468.3,134 468.4,134.5 468.5,134.8 469.1,136 469.6,137.1 470.5,139.2 
	470.5,139.7 470.5,140.7 470.6,141.4 470.8,142.2 470.8,142.6 471.1,143.6 471.3,143.7 472.5,143.9 473.7,144 475.3,144.3 
	475.9,144.8 476.4,146.1 476.5,147 476.4,147.5 475.5,148.8 474.6,150.2 473.6,151.6 472.5,153.2 474.5,153.8 476.1,154.3 
	478.5,155.1 480.5,155.7 481,155.8 486.4,155.3 488.4,155.7 489.1,155.9 489.2,155.8 489.4,155.5 489.8,155.2 490.5,155 
	491.1,154.9 492,154.9 492.6,154.9 493.1,154.9 493.9,154.9 494.3,154.8 495.7,154.4 496.7,154.1 498.1,153.6 499.1,153.3 
	499.3,153.1 499.6,152.8 499.6,152.5 499.3,152.1 499.2,151.7 499.3,151.2 499.3,150.4 499.1,149.4 498.9,148.8 499.1,147.6 
	499.2,147 499.7,146.7 500,146.5 500.1,146.4 500.2,146.2 500.6,145.4 501,144.9 501.5,144.7 502,144.7 502.5,145.1 503.3,145.2 
	504.1,145.1 504.8,144.9 505.1,144.7 505.5,144.5 505.4,144.3 504.9,144.1 504.7,143.8 504.5,143.5 504.7,143.3 505.3,143.3 
	506.5,142.5 507,142 507.1,141.8 507.4,141.8 507.9,142 508.5,142.1 508.9,141.8 509.3,141.8 509.7,142.1 509.9,142.4 510.3,142.7 
	510.8,142.8 511.3,142.6 511.7,142.2 512.1,141.6 512.5,141 512.1,139.2 511.8,138.1 511.9,137.5 512.2,137.2 512.3,136.7 
	512.2,136.2 512.4,135.8 512.5,134.7 512.7,134.4 513.4,134.2 514.4,134.1 515.2,133.6 515.9,133.1 515.9,132.6 515.5,132.1 
	514.9,131.2 514.4,130.6 513.3,129.5 513.3,128.9 513.7,128.6 515.1,129.1 515.5,129.1 515.9,129.2 517.1,129.2 518,129 
	518.9,128.6 519,128.2 518.9,127.7 518.9,127.3 518.8,126.7 518.3,126.4 518.1,126.1 517.9,125.8 518.2,125.6 518.3,125.4 
	518.5,124.9 518.9,124.3 519.1,123.8 519.4,123.5 519.8,123.2 520,122.7 520.1,122.4 520.3,122.1 520.4,121.9 520.3,121.8 
	520.1,121.5 519.9,121.3 519.8,121.1 519.9,120.8 520,120.6 519.9,120.3 519.7,119.8 519.4,119.5 519,118.8 518.6,118 518.4,117.8 
	518.1,117.4 517.4,117.1 517.2,116.8 517.3,116.3 517.7,116 518.2,115.3 518.5,114.8 518.8,114.4 519.3,114.5 519.6,114.5 
	519.7,114.2 520.1,113.9 520.9,113.3 521.1,112.9 521.5,112.7 521.8,112.6 522.3,112.5 522.8,112.3 523.2,112.1 523.9,112.1 
	524.9,112 525.5,111.9 526.9,111.8 528.5,111.8 528.6,111.7 529.4,112 529.9,112.1 530,112.1 530.7,111.7 531.7,111.2 532.2,110.9 
	532.1,110.9 531.9,110.7 531.3,110.3 531.2,110.1 532,109.7 532.5,109.5 532.7,109.3 532.8,109.4 533,109.6 533.4,109.7 
	533.6,109.7 "/>
<rect x="340.3" y="42.4" class="st2" width="140.7" height="120.4"/>
<text transform="matrix(1 0 0 1 340.2793 50.9595)" class="st4" style="font-family:'MyriadPro-Semibold';">American Samoa</text>
<text transform="matrix(1 0 0 1 340.2793 65.3595)" class="st4" style="font-family:'MyriadPro-Semibold';">Cayman Islands</text>
<text transform="matrix(1 0 0 1 340.2793 79.7595)" class="st4" style="font-family:'MyriadPro-Semibold';">Turks and Caicos Islands</text>
<text transform="matrix(1 0 0 1 340.2793 94.1595)" class="st4" style="font-family:'MyriadPro-Semibold';">United States</text>
<text transform="matrix(1 0 0 1 340.2793 108.5595)" class="st4" style="font-family:'MyriadPro-Semibold';">U.S. Virgin Islands</text>
<text transform="matrix(1 0 0 1 22 37)" class="st3 st4">1. American Samoa</text>
<rect x="171.4" y="120.1" class="st2" width="78.5" height="59.4"/>
<text transform="matrix(1 0 0 1 171.4375 127.6826)" class="st3 st4">4. United States</text>
<rect x="153.5" y="21.7" class="st2" width="206.5" height="37.3"/>
<text transform="matrix(1 0 0 1 153.5322 29.2407)" class="st3 st4">3. Turks and Caicos Islands</text>
<rect x="173.6" y="214.5" class="st2" width="96.2" height="44.4"/>
<text transform="matrix(1 0 0 1 173.6045 222.0469)" class="st3 st4">5. U.S. Virgin Islands</text>
<rect x="18.2" y="197.6" class="st2" width="127.8" height="30.3"/>
<text transform="matrix(1 0 0 1 18.2339 205.1934)" class="st5 st3 st4">2. Cayman Islands</text>
<path class="st6" d="M37.9,105.9L37.9,105.9l0.3,0.1l0.1-0.1v-0.1l-0.1-0.1h-0.1L37.9,105.9z M26.7,112.9l-0.2,0.2v0.3l0.1,0.1h0.2
	l0.2-0.2V113l-0.1-0.1H26.7z M30.4,108l0.2-0.2l-0.2-0.2h-0.1l-0.2,0.2l0.2,0.2H30.4z M25.9,111.8l-0.2,0.2v0.3l0.2,0.2h0.2l0.2-0.2
	V112l-0.2-0.2H25.9z M35.9,106.5L35.9,106.5l0.1-0.2l-0.1-0.1h-0.2l-0.1,0.1v0.1l0.1,0.1H35.9z M59.5,99.9l0.2-0.2l-0.1-0.1h-0.2
	l-0.2,0.2l0.1,0.1H59.5z M67.5,99.1L67.5,99.1L67.5,99.1L67.5,99.1L67.3,99v0.1H67.5z M52.4,97.6l0.3,0.2l0.2-0.5l-0.1-0.6l-0.2-0.2
	h-0.2l-0.2,0.3l0.2,0.4V97.6z M98.1,89.4h-0.2l-0.8-0.8h-0.5l-0.1,0.1h-0.6l-0.1,0.1h-1.6L94,88.7l-1.2-0.1l-0.1,0.1h-0.4l-0.1,0.1
	h-0.5l-0.6,0.4h-0.5l-0.1-0.1h-0.4L90,89.2h-0.2l-0.1-0.1h-0.5l-0.1,0.1h-0.2l-0.1-0.1L88.1,89l-0.4,0.3h-0.6L87,89.4h-0.5l-0.3-0.3
	H86l-0.3-0.5h-0.1l-0.1,0.3l-0.3,0.2l-0.4,0.7l-0.4,0.1l-0.1-0.3h-0.1l-0.5,0.3l-0.1,0.4l0.3,0.5l0.1,1.1l0.3,0.5v0.3l0.4,0.8
	l0.3,0.1l0.4,0.5l0.2,0.1v0.4l0.3,0.7L86,96l0.1,0.1l0.1,0.6l-0.1,0.1l0.4,1l0.5,0.6h0.4l0.3-0.1l0.1,0.1H88l0.2-0.2v-0.4l0.2-0.2
	l0.5-0.1l0.3-0.3l0.4-0.8l0.1-0.3l0.6-0.6l0.2-0.1h0.4l0.5-0.4h0.3l0.1-0.1h0.4l0.1,0.1l0.3-0.1h0.6l0.1,0.1l0.6,0.1l0.7,0.4
	l0.3,0.4l0.3-0.1l0.6,0.1l0.1,0.1h0.4l0.1,0.1H97l0.5-0.5l0.1-1.5l0.1-0.1v-1.1l0.1-0.1v-0.4l0.3-0.6l-0.2-0.6l0.3-0.4l-0.1-0.3
	l0.1-0.1V90l0.1-0.1l-0.1-0.3L98.1,89.4z M412.8,147.3L412.8,147.3l0.2,0.1l0.1-0.1v-0.1l-0.1-0.1L412.8,147.3z M109.2,78.5
	L109.2,78.5l0.2-0.8l-0.1-0.1v-0.3l0.1-0.1l0.1-0.6l-0.1-0.3l-0.3-0.2h-0.4l-0.4,0.3l-0.4,1l-0.3,0.3h-0.2l-0.5,0.4h-0.5l-0.3,0.2
	l0.1,0.3l0.3,0.3V79l0.4,0.5v0.3l0.5,0.4l0.1,0.3v0.1l0.5,0.7l0,0.7l0.5,0.5l0.6-1.7l0.4-0.6v-0.4l-0.4-0.8L109.2,78.5z
	 M413.8,148.6h-0.2l-0.1,0.1v0.3l0.2,0.2h0.1l0.2-0.2v-0.1L413.8,148.6z M105,77.8l-0.5,0.3h-0.8l-0.1-0.1H103l-0.1-0.1h-0.7
	l-0.3-0.3l-0.8-0.1v-0.2l-0.5-0.3h-1l-0.2-0.3L99.1,77v0.4l0.1,0.1v0.4L99,78.2l0.2,0.3v0.3l0.2,0.3L99,79.3l0.1,0.1v0.3l0.1,0.1
	l0.1,0.6l0.4,0.6l0.5,0.3h0.5L101,81h0.4l0.8-0.4l1.1-1.1l0.9-0.6l0.3-0.3h0.2l0.1,0.1h0.5l0.4-0.3l0.3-0.1v-0.1l-0.5-0.5L105,77.8z
	 M196.2,86.8L196.2,86.8l-0.1,0.2l0.1,0.1h0.1l0.1-0.1v-0.1l-0.1-0.1H196.2z M69.4,104.9L69.4,104.9l-0.7-0.1l-0.3,0.1l-0.1,0.2
	l-0.3,0.3v0.6l0.3,0.3h0.5l0.1,0.1h0.4l0.1,0.1l0.5-0.1L70,106l0.1-0.1V105l-0.2-0.1H69.4z M196,85.6v0.3l0.2,0.3l-0.2,0.4l0.2,0.1
	l0.2-0.2l0.2-0.4l-0.4-0.5L196,85.6z M68.3,101.2L68.3,101.2l-0.4-0.6l-0.1-0.6l0.7-0.8l-0.4-0.1l-0.4,0.3h-0.8l-0.1-0.1l-1-0.1
	l-0.1,0.1l0.2,0.6l-0.4,0.3l-0.2,0.4H65l-0.1,0.2l-0.3,0.3l0.1,0.8l-0.2,0.2h-0.2l-0.3-0.2l0.1-0.1v-0.3h-0.2l-0.3-0.3h-0.4
	l-0.1-0.1l-0.5,0.1l-0.3-0.3h-0.2l-0.2,0.5l-0.2,0.1v-0.2l-0.3-0.2H61l-0.3-0.4h-0.1l-0.9,0.7l-1.1,0.1l-0.3-0.4l0.2-0.3h0.2
	l0.2-0.2v-0.3l-0.3-0.3L58,99.8l-0.3,0.3l-0.3-0.4L57,99.5l-0.1-0.1l-0.3,0.2l-0.2,0.3v-0.3l-0.2-0.1l-0.3,0.3l0.1,0.7l-0.4,0.1
	l-0.5,0.4l-0.3-0.2v-0.3l0.3-0.4l0.2-0.7L55,99.3l-0.5,0.4L54.1,99l-0.4,0.3l-0.2-0.1h-0.4L52,100h-0.2l-0.2-0.2v-0.3l0.3-0.2
	l0.6-0.8v-0.3L52.3,98L52,98.2l-0.8,0.7h-0.5l-0.4,0.6l-0.2-0.1h-0.4l-0.2,0.2l0.1,0.4l-0.3,0.3h-0.1l-0.1-0.1h-0.4l-0.5,0.4h-0.4
	l-0.4,0.7l-0.2,0.1l-0.1,0.2l-0.3,0.1l-0.2-0.3h-0.2l-0.3,0.4v0.6l-0.1,0.1l-0.2-0.1l-0.2,0.2l-0.3,0.7l-0.7,0.5l-0.1,0.7l0.1,0.1
	l-0.1,0.6l0.1,0.1v0.6l-0.2,0.2h-0.2l-0.3-0.2l-0.2-0.3l-0.3-0.1v-0.3l-0.2-0.1l-0.7,0.7l-0.6,0.3l-0.4,0.7h-0.7l-0.3,0.4l-0.5,0.3
	h-0.1l-0.3-0.5h-0.4l-0.1,0.1l-0.2-0.2v-0.1l0.3-0.3l-0.2-0.2h-0.5l-0.1,0.1l-0.5,0.1l-0.7,0.7l-0.2-0.1h-0.3l-0.1,0.1l-0.1-0.1
	h-0.2l-0.1,0.2l-0.3,0.2l-0.3-0.3v-0.3l-0.4-0.6l-0.4,0.7l-0.2-0.1v-0.2h-0.1l-0.3,0.3l-0.2-0.1l-0.4,0.1l-0.2-0.3h-0.1l-0.1,0.3
	l-0.2,0.2l-0.1-0.1h-1.1l-0.5,0.3l0.1,0.4l-0.2,0.2h-0.4l-0.2,0.2l-0.1,0.5l-0.3-0.4h-0.1l-0.1,0.3l-0.2,0.2l-0.1-0.1h-0.5l-0.2,0.2
	v0.4l-0.5,0.6h-0.2l-0.2,0.2l-0.3,1l-0.3,0.4H27l-0.3,0.3v0.1l0.3,0.4l0.7,0.3l0.3,0.3v0.3l-0.1,0.1v0.2h0.2l0.4-0.4l0.5,0.3h0.2
	l0.1,0.1h0.2l0.3,0.3l0.5-0.1l0.7-0.8l0.3-0.1h0.4v0.3l-0.3,0.3l0.4,0.4l1.1,0.1l0.5-0.3l0.3,0.6l0.2-0.1l0.2,0.1l-0.2,0.6l0.2,0.1
	l0.3-0.1v0.3l-0.1,0.1l-0.1,1.5l0.2,0.4v0.4l0.3,0.5h0.2l0.8,0.7l0.4,0.1l0.4,0.4l0.4-0.3h0.8l0.2,0.3l-0.3,0.3h-0.1l-0.2,0.4
	l0.5,0.5l0.5-0.1l0.5-0.5v-1l0.2-0.2h0l0.1-0.1h0.7l0.6,0.6h0.2l0.7-0.8h0.1l0.3-0.6l0.2-0.1l0.9-1l0.6-0.3l0.2-0.2v-0.4l0.1-0.3
	l0.6-0.8h0.1L45,114l0.3-0.7l0.1-0.1l0.2,0.3h0.1l0.1-0.3l-0.3-0.4l0.1-0.1l0.3-0.1h0.8l0.1-0.2l-1.4-0.1l-0.2-0.1l-0.3-0.3v-0.1
	l-0.1-0.1l0.1-0.2h0.7l0.6-0.6l0.5-0.1v0.2l-0.3,0.3v0.3L46,112l0.3,0.2h0.2l0.7-0.8l0.7-1.4l0.3-0.7l0.3-0.3l0.6-0.3l0.3-0.3H50
	l0.6-0.3l0.5-0.5v-0.2l-0.9-0.5l0.2-0.3h0.2l0.5-0.3L51,106v-0.4l-0.1-0.3l-0.2-0.2h-0.2l-0.4-0.8H49l-0.1,0.1l-0.3-0.4l-0.3-0.1
	l-0.3-0.3l-0.3-0.1l0.2-0.2h0.8l0.1,0.1h0.6l0.1-0.1h0.6l0.1-0.1h0.6l0.1-0.1h0.7l0.5,0.3h0.2l0.1,0.1h0.2l0.1,0.1l0.3,0.2v0.3
	l-0.3,0.4l-0.1,1.1l0.1,0.1v0.1l0.4,0.5h0.2l0.1,0.1l0.6-0.1l0.4-0.3l0.1,0.1h0.3l0.1-0.1l0.1,0.1h0.2l0.3-0.1l0.7-0.6l0.2-0.5h0.1
	l0.1-0.1h1.1l0.5-0.3l0.3-0.3h0.1l0.3-0.4l-0.1-0.3l0.3-0.3l0.3-0.1l1-0.1l0.2,0.4H61l0.3,0.3l0.2,0.6v0.4l-0.1,0.1l0.5,0.6h0.4
	l1-0.6l1-0.9l0.1-0.3l0.3-0.1h0.4l0.1,0.1h0.6l0.5-0.4l0.1,0.1H67l0.1-0.1l0.4-0.2l0.3-1L68.3,101.2L68.3,101.2z"/>
<path class="st6" d="M43.6,73.1l1.7,1.8l0.5,0.3h1l1-0.5l1-1.1h0.5l1.2-1.2l0.2-0.3l0.1-0.3l0.1-0.8l-0.2-0.6L49.3,69h-2.5l-1,0.6
	h-0.7l-0.2,0.3l-1,0.3l-0.7,1l-0.1,1.1l0.5,0.5V73.1z M267.3,413.2L267.3,413.2h0.1l0,0v-0.1l0,0L267.3,413.2z M267.9,413.9h-0.1
	l0,0v0.2l0.1,0.1h0.1l0.1-0.1V414L267.9,413.9z"/>
<path class="st7" d="M39.4,260.2l-0.1-0.1h-0.1l0,0v0.1l0,0H39.4L39.4,260.2z M34.4,252.8l0.1-0.1l0,0h-0.2l0,0v0.1l0,0H34.4z
	 M58.2,257.3L58,257v-0.4l-0.3-0.4h-0.1l-0.3-0.1l-0.2-0.2l-0.4-0.2h-0.3l-0.1,0.1h-1.4l-0.1-0.1h-0.3l-0.1-0.1H54l-0.1-0.1h-0.4
	l-0.3,0.2h-1.3l-0.1-0.1l-0.1,0.1h-0.4l-0.1,0.1H51l-0.5,0.2h-0.3l-0.3,0.2h-0.7l-0.1,0.1h-1.2l-0.1-0.1h-0.1l-0.1-0.1H48l-0.3-0.2
	h-0.2l-0.1-0.1h-0.3l-0.1-0.1h-0.2l-0.1-0.1l-0.1,0.1h-0.3l-0.1,0.1h-0.1l-0.2,0.2h-0.1l-0.3,0.2h-0.7l-0.1-0.1h-0.1l-0.4-0.3H44
	l-0.4-0.4h-0.1l-0.1-0.2h-0.2l-0.7-0.6h-0.1v-0.1h-0.1l-0.2-0.2h-0.2l-0.3-0.3h-0.1l-0.1,0.1l-0.1,0.5l0.1,0.1l0.1-0.2h0.1l-0.2,0.4
	l-0.2,0.2v0.1l-0.3,0.2v0.2h0.4l0.1-0.1l0.1-0.4l0.2-0.2h0.1l-0.1,0.2l0.1,0.2l0.1,0.1v0.5l-0.4,0.4v0.2h0.1l0.3-0.2l0.2,0.4h0.2
	l0.1-0.4h0.2v0.3l-0.1,0.2l0.1,0.8l-0.1,0.1v0.2l0.2,0.2v0.2h-0.1l-0.1,0.2h-0.1l-0.2-0.2h-0.6V258l-0.2-0.1v0.3l-0.3,0.4l-0.2,0.2
	h-0.2l-0.1-0.1l-0.1,0.1h-0.2l-0.3-0.2l0.2-0.4V258l0.1-0.1v-0.2h-0.1l-0.2,0.2l-0.2-0.1h-0.2l-0.2,0.1v0.2l0.1,0.1v1.3l-0.2,0.1
	l-0.1,0.3L39,260v0.2h0.3l0.2-0.3h0.1l0.1,0.1v0.2l-0.1,0.2l-0.2,0.1l-0.1,0.1H39l-0.4,0.2h-0.1l-0.2-0.2h-0.2l-0.4,0.5l-0.3,0.1
	l-0.3,0.2l-0.2,0.1l-0.1-0.1h-0.2l-0.1-0.1H36l-0.1,0.1h-0.1l-0.1-0.2l-0.2-0.1l-0.2,0.3l-0.3,0.1l-0.2,0.2v-0.2l-0.2-0.3h-0.1
	l-0.4-0.5l-0.4-0.1l0.1-0.2V260l-0.2-0.2v-0.1l-0.1-0.1h-0.2l-0.2-0.2v-0.1l0.2-0.2v-0.2l-0.2-0.3l-0.1,0.1h-0.1l0.1-0.6l0.2-0.1
	v-0.2l0.3-0.1l0.1-0.5l0.1-0.1v-0.6l-0.2-0.3l-0.2-0.4l-0.4-0.5l-0.2-0.4l-0.1-0.1h-0.2l-0.1,0.2h-0.1l0.2-0.2v-0.2l-0.2-0.3
	l-0.1-0.3v-0.2l-0.2-0.2v-0.2L32,253l0.2-0.1h0.5l0.1,0.1l0.5,0.1l0.1,0.1h0.3l-0.1-0.3h-0.1l-0.1-0.2h-0.1l-0.3-0.3h-0.2l-0.4-0.2
	l-0.4-0.3h-0.2l-0.1-0.1h-0.3l-0.1-0.1l-0.5,0.2l-0.4,0.2h-0.2l-0.4,0.2h-0.1l-0.1,0.1h-0.2l-0.2,0.2l-0.3,0.2h-0.1l-0.3,0.3
	l-0.2,0.3v0.2l-0.1,0.2v0.4l0.3,0.2h0.4l0.1,0.1h0.1l0.2-0.1l0.3,0.2h0.2l0.1,0.1l0.3,0.2h0.1l0.6,0.6l0.1,0.2v0.2l0.2,0.3v0.2
	l0.2,0.4v0.2l0.1,0.1l0.1,0.6l-0.1,0.1v0.5l-0.1,0.1v0.2l-0.2,0.2v0.6l0.1,0.1l-0.1,0.2l-0.1,0.1v0.6l0.2,0.2l0.1,0.4l0.1,0.1v0.3
	l-0.1,0.1v0.2l-0.4,0.5v0.1l-0.4,0.8v0.2l0.1,0.3v0.2l0.1,0.1l-0.1,0.1v0.3l0.2,0.2l0.3,0.1l0.2,0.2h0.4l0.4-0.3h0.1l0.4-0.2h0.2
	l0.4-0.2l0.1-0.2h0.2l0.2-0.2H34l0.1-0.1h0.2l0.1-0.1H35v0.3l0.1,0.2v0.1l0.2,0.2h0.1l0.2-0.2l0.4,0.1l0.1,0.1l0.1-0.1h1.3l0.1,0.1
	h0.2l0.3,0.2h0.1l0.4,0.4l0.7-0.1l0.2,0.2l0.3,0.2h0.7l0.1-0.1h0.7l0.1-0.1h0.4l0.6-0.3h0.1l0.3-0.3H43v-0.1h0.1l1-1h0.1v-0.1
	l0.3-0.2l0.3-0.1v-0.1l0.2-0.1l0.3-0.2l0.6-0.2l0.1-0.1h0.2l0.3-0.2l0.9,0.1l0.2,0.2H48l0.1,0.1l0.5-0.2l0.9-0.5h0.3l0.1-0.1h1
	l0.4,0.2l0.3,0.3l0.3,0.1l0.1,0.1l0.6-0.1l0.1,0.1h0.4l0.2,0.2h0.6l0.1-0.1h1.6l0.1-0.1H56l0.7-0.4l0.3-0.1v-0.1l0.2-0.1v-0.1
	l0.7-0.7l0.4-0.9v-0.2l0.2-0.3v-0.3l-0.1-0.2l0.1-0.1v-0.2l0.1-0.1l-0.1-0.1v-1.1H58.2z M42.2,258.1L42.2,258.1v0.1h0.2l0,0V258l0,0
	h-0.2V258.1L42.2,258.1z M42.4,257.3L42.4,257.3v-0.1l0,0h-0.1l0,0L42.4,257.3L42.4,257.3L42.4,257.3z"/>
<path class="st7" d="M-45.6,269.2l-0.1-0.1h-0.1l0,0v0.1l0,0H-45.6L-45.6,269.2z M-50.6,261.8l0.1-0.1l0,0h-0.2l0,0v0.1l0,0H-50.6z
	 M-42.8,267.1L-42.8,267.1v0.1h0.2l0,0V267l0,0h-0.2V267.1L-42.8,267.1z M93.8,227h-0.2l-0.1-0.1h-0.4l-0.1-0.1h-0.2l-0.2-0.2h-0.7
	l-0.1,0.1h-0.2l-0.1,0.1l-0.7,0.1l-0.2,0.2h-0.2l-0.7,0.6h-0.1l-0.4,0.4l-0.2,0.1l-0.3,0.2h-0.1l-0.1,0.2l-0.5,0.2l-0.1,0.1h-0.2
	l-0.1,0.1h-0.3l-0.1,0.1h-0.3l-0.1,0.1h-0.4l-0.1,0.1h-0.2l-0.3,0.2l-0.5,0.1l-0.2,0.2l-0.4,0.2l-0.1,0.2h-0.1l-0.7,0.6l-1,0.7
	l-0.3,0.2h-0.2l-0.1,0.1l-0.7,0.1l-0.1,0.1h-0.2l-0.3,0.2l-0.4,0.1l-0.4,0.2l-0.1,0.2l-0.2,0.1l-0.2,0.2l-0.1,0.2h-0.1l-0.4,0.3
	h-0.1l-0.2,0.2H79l-0.2,0.2h-0.1v0.3l0.1,0.1l0.9-0.1l0.1-0.1h0.3l0.1-0.1h0.4l0.1-0.1h0.7l0.1-0.1h0.2l0.1-0.1l0.1,0.1l0.1-0.1h0.2
	l0.1-0.1l0.3-0.1l0.4-0.3l0.4-0.1l0.3-0.2l0.7-0.1l0.1-0.2h0.2l0.4-0.2h0.2l0.2-0.2l0.3-0.1l0.3-0.2l0.1-0.2l0.4-0.1l0.2-0.2H87
	l0.1-0.1l0.5-0.1l0.1-0.1L88,231l0.3-0.2l0.8-0.2l0.1-0.1l0.6-0.1l0.3-0.2h0.2l0.4-0.2h0.2l0.1-0.1h0.2l0.3-0.2l0.2-0.1l0.4-0.4h0.1
	l0.2-0.2h0.1v-0.1h0.1l0.7-0.6h0.1l0.4-0.4l0.1-0.2l0.2-0.2l0.1-0.5H93.8z M72.7,231.3L72.7,231.3l-0.4-0.3l-0.4-0.1l-0.1-0.1h-0.3
	l-0.1-0.1h-0.2l-0.1,0.1h-0.2l-0.3,0.2h-0.3l-0.2,0.1l-0.4,0.1l-0.4,0.2l-0.4,0.1l-0.1,0.1h-0.4l-0.1,0.1h-0.2l-0.1,0.1h-0.3
	l-0.1,0.1l-0.7,0.1l-0.1,0.1h-0.3l-0.1-0.1h-0.8l-0.1,0.1h-0.3l-0.1,0.1h-0.4l-0.1,0.1h-0.1l-0.2,0.2H64l-0.1,0.1h-0.2l-0.3,0.2
	h-0.1l-0.2,0.2l-0.2,0.4l-0.3,0.3l-0.4,0.2l-0.4,0.1l-0.1,0.1l-0.5,0.2l-0.2,0.2h-0.1l-0.1,0.2l-0.2,0.1l-0.4,0.2l-0.3,0.3l-0.1,0.3
	l-0.3,0.2l-0.2,0.3v0.3l0.2,0.2h0.7l0.1-0.1h0.8l0.3,0.2h0.4l0.1-0.1H62l0.6-0.4l0.3-0.2l0.4-0.1l0.1-0.1v-0.2l0.1-0.2l0.3-0.4
	l0.1-0.1l0.4-0.1l0.2,0.2h0.1l0.2,0.2h0.5l0.2-0.2l0.2-0.1l0.4-0.4l0.3-0.2h0.1l0.3-0.2l0.3-0.1l0.1-0.1h0.2l0.1-0.1h0.1l0.4-0.2
	h0.1l0.2-0.2l0.4-0.1l0.4-0.2l0.2-0.2l0.5-0.1l0.1-0.1h0.4l0.1-0.1H71l0.1,0.1h1l0.5-0.4v-0.2l0.1-0.1v-0.5L72.7,231.3z
	 M-42.6,266.3L-42.6,266.3v-0.1l0,0h-0.1l0,0L-42.6,266.3L-42.6,266.3L-42.6,266.3z"/>
<g class="st8">
	<g>
		<g>
			<path vector-effect="non-scaling-stroke" class="st6" d="M226.1,167.4L226.1,167.4l4.1-0.4l1.1,4l0.4,0.7v0.4l0.2,0.1l-0.2,0.3
				l-0.1,0.5l0.2,0.5v0.8l0.2,0.3l-4.3,0.4v0.3l0.4,0.3v0.2l0,0l-0.1,0.6h-0.4l-0.3-0.2l-0.2-0.5l-0.1,0.7l-0.4-0.1l-0.4-2.9l0.1-3
				l0.1-3L226.1,167.4z"/>
			<path vector-effect="non-scaling-stroke" class="st6" d="M186.3,182.1L186.3,182.1l0.1,0.1h0.2l0.2,0.2v0.1l-0.1-0.2h-0.1
				l0.1,0.1l0.1,0.1l0.1,0.2h-0.1l-0.1,0.2l0,0l-0.1-0.1l0.1-0.1l-0.1-0.1l-0.1-0.2l-0.1-0.2L186.3,182.1z M186.2,182.8v-0.2
				l0.2,0.1h0.1l0.1,0.2l0.2,0.3l0.1,0.3l-0.1-0.1l-0.2-0.2l-0.1-0.1l-0.1-0.3H186.2L186.2,182.8z M186.2,182.9L186.2,182.9
				L186.2,182.9h0.2v0.1h-0.1L186.2,182.9L186.2,182.9z M185.8,182.5l0.1-0.2l0.1-0.1l0.3,0.1v0.1l0.1,0.3h-0.1l-0.2-0.1l0,0
				l0.1,0.1l-0.1,0.1l-0.1-0.1l-0.1-0.2L185.8,182.5L185.8,182.5z M182.2,181.5L182.2,181.5l0.2-0.1L182.2,181.5L182.2,181.5z
				 M182.1,181.6L182.1,181.6l0.2-0.1l0,0L182.1,181.6L182.1,181.6z M181.7,182L181.7,182l0.2-0.3v-0.1h0.1l-0.1,0.2v0.1L181.7,182z
				 M181.7,181.7v-0.1l0.1-0.1L181.7,181.7L181.7,181.7z M181.6,181.9l0.1-0.1L181.6,181.9L181.6,181.9z M168.8,185.2l0.1,0.1
				L168.8,185.2L168.8,185.2z M167.9,184.9h0.1H167.9L167.9,184.9z M166.6,183.8h0.1v0.1L166.6,183.8z M166.5,183.4L166.5,183.4
				l0.3,0.1l0.1,0.2l-0.2-0.1L166.5,183.4L166.5,183.4z M188.2,183.9L188.2,183.9h0.1H188.2z M188.1,183.9v-0.2h0.1v0.1L188.1,183.9
				z M187.7,184.1L187.7,184.1L187.7,184.1L187.7,184.1z M187.3,183.2L187.3,183.2l0.1-0.1v0.1H187.3L187.3,183.2z M187.3,184
				L187.3,184l0.1-0.1L187.3,184z M187.2,183.6l0.1-0.2l-0.1-0.1h0.2l0.1,0.1v0.1h0.1l0.2,0.1l0.1,0.1l0,0l0.2,0.1l0.1,0.3v0.1h-0.1
				v-0.1l-0.2-0.1h-0.1v-0.1h-0.1l0.1,0.2h0.1v0.1l-0.2-0.1l-0.1-0.2h-0.1v-0.1l0.1-0.1l-0.1-0.1h-0.1H187.2h0.2l-0.1-0.1
				L187.2,183.6z M187,183.6L187,183.6L187,183.6L187,183.6z M186.8,183.1l0.1-0.1l0.1,0.1V183l-0.2-0.1v-0.1h0.3l0.2,0.2l-0.1,0.1
				h-0.1v0.1l-0.2,0.1v-0.1L186.8,183.1l0.1,0.3v0.2l0,0l-0.1-0.1v-0.2V183.1z M170.1,186L170.1,186l0.2-0.2h0.1l-0.1,0.1h0.1v0.1
				L170.1,186z M169.8,185.8h0.2l0.1-0.1l0,0l-0.1,0.1H169.8z M169.7,185.6h0.1v0.2h-0.1V185.6z M179.8,183.3l0.1-0.2h0.1l0.1-0.2
				h0.1l-0.1,0.2h0.2v0.1h-0.2l-0.1,0.1L179.8,183.3z M179.5,184.3L179.5,184.3h0.2H179.5z M179.3,184.4l0.1-0.1l0,0L179.3,184.4z
				 M179.3,183.8l0.1-0.1l0.1-0.1h0.1v-0.2h0.1l0.1,0.1l-0.1-0.1l0.1,0.1l-0.1-0.1l0.2,0.1v0.1l0.1-0.1v0.2h0.1l-0.1,0.1h-0.2
				l0.1,0.1v0.1h-0.2h0.1l-0.2,0.1V184l-0.1,0.1l-0.1,0.2h-0.1l0.1-0.1l0,0l0.1-0.1l-0.2,0.2l-0.1-0.1v-0.1L179.3,183.8z M179,184.8
				L179,184.8L179,184.8L179,184.8z M177.2,185.3l0.1-0.2l0,0L177.2,185.3z M177.1,185L177.1,185L177.1,185L177.1,185z M177,185h0.1
				v0.2L177,185L177,185z M177.2,182.8L177.2,182.8l0.2-0.1L177.2,182.8L177.2,182.8z M176.6,185.1h0.1H176.6L176.6,185.1z
				 M176.4,185.2L176.4,185.2L176.4,185.2L176.4,185.2z M177,179.4L177,179.4h0.1H177z M176.2,185.5L176.2,185.5h0.1H176.2z
				 M175.4,185.3L175.4,185.3l0.2-0.2l0,0l0.2-0.1h0.1l0.1,0.2l-0.1,0.1h-0.1h-0.2v0.1h-0.2V185.3z M175,185.5L175,185.5L175,185.5
				L175,185.5z M174.9,185.5L174.9,185.5h0.2H174.9L174.9,185.5z M174.7,185.7L174.7,185.7L174.7,185.7L174.7,185.7z M175.2,181.4
				h0.2l0.1-0.1h0.1v0.1h0.1v0.3h-0.2l-0.1,0.1l-0.1-0.1h-0.1l-0.2-0.2L175.2,181.4z M174.1,185.9L174.1,185.9l0.3-0.1l0.1-0.1h0.1
				l-0.2-0.1l0.1-0.1h0.2v0.1l0.1-0.1l-0.2,0.2h0.1v0.1h-0.1l-0.1,0.1h-0.1L174.1,185.9L174.1,185.9z M175.7,177.7l0.5-0.2l0.3-0.1
				h0.2h0.2h0.2v0.1l-0.1,0.2v0.1h0.2h0.1l0,0h0.1h0.1l0.1-0.1h0.1v-0.1l-0.1-0.1h-0.1v-0.1l-0.1-0.1h-0.1v-0.1v-0.1l0,0l0.1,0.1
				v0.1l0.1,0.2h0.1l-0.1-0.2v-0.1l0.1-0.1l-0.1-0.1h-0.2l-0.1-0.1h-0.1l-0.2-0.1v-0.2v-0.1l-0.1-0.1l-0.2-0.2l-0.1-0.1V176
				l-0.2-0.1h0.1v-0.1v-0.2h0.2h0.3h0.1l0.1-0.1l0.1-0.1v-0.1v-0.1v-0.1l0.2-0.2l0.1-0.1h0.1h0.1l0.1-0.1l0.2-0.2h0.1v0.1h0.3h0.1
				l0.1-0.1l0.1-0.2h0.1l0.1,0.1h0.1v0.1l-0.1,0.1h-0.1v0.1h0.1v-0.1l0.1-0.1v-0.1l0.1,0.1v0.1h0.1l0.1-0.1h0.2l0.2,0.1l-0.1,0.1
				v0.1h0.2v0.1h0.1h0.1v-0.1h0.2l0.1-0.1h0.2h0.1l0.1,0.1l0,0h0.1l0,0h0.2h0.1h0.2l0.1,0.1h0.1l0.2-0.1h0.1l0.2,0.1l0.1,0.1h0.1
				l0.1,0.1h0.1l1.2,6.2h0.2v-0.1l0.2,0.1l0.1-0.1l0.2-0.1v0.2l0.2,0.1v0.1l0.4,0.3l0.1,0.2l0.2-0.2h0.1v-0.1v-0.1l0.1-0.1h-0.1
				l0.1-0.1l0.1-0.1l0.2,0.1v0.1l0.1,0.1h0.1l0.1,0.1l0.1,0.2h0.2l0.2,0.1l0,0l0.1,0.1l0.3,0.3l0.2,0.1v0.1h0.1v0.1h0.1l0.1,0.1h0.1
				l0.2,0.1h0.1h0.1v0.1h0.1l0.1,0.1v0.1l0.2,0.3v0.3l-0.1,0.2h-0.1l-0.1-0.2l-0.1-0.1l0.1-0.1l-0.1-0.2l-0.2-0.1l0.2,0.2l0.1,0.2
				v0.2l-0.1-0.1h-0.2v0.1l-0.1-0.1v-0.2l0,0v-0.2l-0.1,0.1h0.1v0.2h-0.1v-0.1v-0.1l-0.1-0.1l-0.1,0.1l0.1,0.1l-0.1,0.1l-0.1-0.1
				l0,0l-0.1-0.1l0.1-0.1v-0.2h-0.1v-0.1H187l-0.1-0.1h0.1h-0.3v-0.1l0.1-0.1h-0.1l-0.1-0.2h0.2l-0.2-0.1v-0.1v0.1l-0.2-0.1
				l-0.1-0.1h-0.2l-0.1-0.2l-0.2-0.2l-0.1-0.1v0.1l0.2,0.2l0.1,0.2v0.1h-0.1l-0.1-0.1l-0.2,0.1l-0.1-0.1l0,0l-0.1-0.1l0,0l-0.3-0.1
				v0.1h0.2l0.2,0.2v0.1l-0.1,0.1h-0.1v0.1l-0.1-0.1h-0.1l-0.2-0.1l-0.1-0.1v-0.1l-0.1-0.1h-0.2L184,182l0.1-0.1l-0.1-0.1v0.1
				l-0.1,0.1h-0.2l-0.2-0.1l0,0l-0.1-0.1l0,0l0.1,0.1l-0.1,0.1h-0.3H183l-0.2,0.1l-0.1,0.1l-0.1-0.1h-0.2V182v-0.1l-0.1,0.1
				l-0.1-0.1h-0.1l0.1-0.1H182v-0.1l-0.2,0.1v-0.1h0.1h-0.1v-0.1v-0.1l-0.1,0.1v-0.1v0.1h-0.1v-0.2v0.2l-0.2,0.1v-0.1l0.1-0.2v-0.1
				l-0.1,0.2v-0.1l-0.1,0.3l0.1-0.1l0.1,0.2l-0.1,0.1l0.1,0.1v0.1l-0.1-0.1v0.1V182v0.1l-0.2-0.1v0.1V182l-0.1,0.2H181l-0.2,0.2
				l0.1-0.2l-0.1,0.2h-0.1l-0.1,0.1h-0.1l-0.1,0.1l-0.1-0.1v-0.1l0.2-0.1v-0.1l-0.1,0.1l-0.1-0.1V182l0.1-0.1v-0.2l-0.1-0.1h0.1
				l0.2-0.2l0.1,0.1h0.1v-0.1h0.2l-0.2-0.1l-0.1-0.1l0.1-0.2l0.1-0.1h-0.1l0.2,0.1v0.1h-0.2l0,0l-0.1,0.1v0.1h-0.1l-0.1,0.1v0.1
				l-0.1,0.1l-0.1,0.1v0.1l-0.1,0.1h-0.1l0.1,0.1l-0.2,0h-0.1h0.1v0.1h-0.1l-0.1,0.1v0.1l-0.1,0.1v0.2h0.2l0.1,0.1v0.1l-0.1,0.1
				h-0.1l-0.1,0.2v0.1l-0.1,0.1h-0.1l-0.1,0.1l-0.1,0.1v0.1h-0.1l-0.1,0.2H179v0.1h-0.1l-0.1,0.1h0.1v0.1l-0.1,0.1h-0.1l-0.1,0.1
				l-0.1-0.1l-0.1,0.1l-0.2,0.1h0.1v0.1h-0.1l-0.1,0.1l0.1,0.1h-0.1v0.2l-0.1-0.1v0.1h-0.1v0.1h-0.2l-0.1,0.2V185h-0.1l-0.2,0.1
				l-0.1,0.1h-0.1l-0.1,0.1h-0.1l0.1-0.2h-0.1v0.1l-0.2,0.2h-0.1v-0.2h-0.1v0.2h-0.1l-0.1-0.1h-0.1l0.1,0.1l-0.1,0.1l0.1-0.2h0.2
				v-0.1h0.1v-0.1l0.1-0.1l0.2-0.1h0.2h0.1l0.1,0.2V185h0.1v0.1h0.1l-0.1-0.1l0.1-0.2l0.2-0.2l0.2-0.1l0.1-0.1h0.1v-0.2l0.1-0.1
				l0.3-0.2l0.1-0.4h0.1v-0.1v-0.1l0.2-0.2V183h-0.1l-0.3,0.1h-0.1l-0.1-0.1v-0.1l-0.1,0.1v0.1v0.2h-0.1l-0.1-0.2l-0.1-0.1l-0.1,0.1
				l-0.1-0.1v-0.1l-0.1,0.1l-0.2,0.1l-0.1,0.1l-0.1-0.1V183v-0.1l-0.1-0.2l0.1-0.1l-0.2-0.5v0.1l-0.2,0.1h-0.2h-0.1v-0.1l-0.1-0.2
				h-0.1l-0.1-0.1l-0.1-0.1l0.2-0.1v-0.1L176,181h0.1l-0.1-0.1h-0.1v-0.1h-0.1l0.1-0.1h-0.1v-0.1h0.1l-0.1-0.1h0.2v-0.2l0.2-0.2
				l0.1-0.1v-0.1v-0.1l0.1-0.1v-0.1l0.1-0.1h0.1h0.1l0.1,0.1h0.1l0.1-0.1l0.1-0.2l0,0h0.2h0.1l0.1-0.1v-0.1v-0.2v-0.1l-0.1-0.1h-0.1
				l0.1-0.1h0.1l0.1-0.1v-0.1l-0.1-0.1l-0.1,0.1h-0.1l-0.1,0.1l-0.1,0.1l-0.1,0.1v-0.1l-0.1-0.1l0,0l0.1,0.1v0.1l-0.1-0.1h-0.2
				l-0.2,0.1l-0.4-0.2l-0.1-0.1v-0.1l-0.1-0.2h0.1l0.1-0.1l-0.1,0h-0.1L175.7,177.7z M173.5,186.1l0.1-0.1l0.1-0.1l0.2-0.1l0.1-0.1
				h0.2v0.1l-0.2,0.1l-0.1,0.1L173.5,186.1z M173.8,183.6h0.1H173.8L173.8,183.6z M173.1,186h0.1H173.1L173.1,186z M172.8,186.1
				L172.8,186.1h0.1H172.8z M174.3,178.9l0.1-0.2v0.1l0.2,0.1h0.1h0.1v0.1l0.1,0.1l0.2,0.1l-0.1,0.1h-0.2l-0.1,0.1v-0.1l-0.1-0.1
				v-0.1l-0.1-0.1h-0.1h-0.1L174.3,178.9L174.3,178.9z M172,186.1L172,186.1h0.1H172z M173.4,180.7L173.4,180.7l0.2,0.2h-0.1
				L173.4,180.7z M171.4,186h0.2l0,0l0.2,0.1h-0.2L171.4,186L171.4,186z M170.9,185.9h0.2h0.2l0.1-0.1l0.1,0.1h-0.1v0.1h-0.1h-0.2
				L170.9,185.9z"/>
			<path vector-effect="non-scaling-stroke" class="st6" d="M183.8,169.4h0.3l0.1-0.5l-0.2-0.1l0.1-0.7l0.4-0.2l0.2-0.8l0.2-0.3
				l0.5-0.3l-0.3-0.3l-0.1-0.5l-0.2-0.3v-0.3l0.2-0.3v-1.1l0.1-0.3L185,163h0.6l0.3,0.3l0.2-0.3l0.3-1.5l7.6,1.2l-1.5,10.9l-3.3-0.5
				l-1.4-0.8l-4.2-2.5L183.8,169.4z"/>
			<path vector-effect="non-scaling-stroke" class="st6" d="M216,165l6.9-0.3v0.1l0,0l0.1,0.3l-0.4,0.6l1-0.1l0.1,0.2l-0.4,0.3
				l0.2,0.2l-0.5,0.4l0.2,0.5l-0.4,0.3l-0.3,1.1l-0.3,0.2l-0.2,0.6l-0.3,0.1l0.2,0.4l-0.4,0.4l0.2,0.3v0.8l-4.6,0.1v-1h-0.6
				l-0.2-0.2v-3.4L216,165z"/>
			<path vector-effect="non-scaling-stroke" class="st6" d="M178,166.6l0.3,0.2l-0.2,0.1L178,166.6z M177.8,167.4l0.3,0.5l-0.2-0.1
				L177.8,167.4z M176.2,165l0.5,0.3l-0.5-0.1V165z M175.7,165h0.3l-0.2,0.2L175.7,165z M174.2,148.3l2.5,0.7l3.3,0.9l-1.5,5.7
				l1.2,1.8l2,3l1.7,2.5l1.5,2.2v0.3l0.2,0.3l0.1,0.5l0.3,0.3l-0.5,0.3l-0.2,0.3l-0.2,0.8l-0.4,0.2l-0.1,0.7l0.2,0.1l-0.1,0.5h-0.3
				l-3.9-0.5l-0.1-0.3l0.1-0.7l-0.2-0.7l-0.9-1.1l-0.2,0.1l-0.3-0.7H178l-0.6-0.4v-0.2l-0.4-0.4l-0.6-0.2l-0.7-0.2l-0.2-0.3l0.3-1.1
				l-0.3-0.3l0.1-0.3l-0.5-0.7l-0.4-1.2l-0.2-0.3v-0.5l0.4-0.4l-0.1-0.4l-0.3-0.1l-0.3-0.4v-0.8l0.1-0.5h0.2l-0.1,0.4l0.3,0.3v-0.4
				l-0.2-0.3v-0.4l0.3-0.1l-0.3-0.2l-0.2,0.5l-0.3-0.4l-0.3-0.1l0.2-0.3l-0.1-0.6l-0.2-0.3l-0.4-0.8l0.1-0.2v-0.5l0.2-0.5v-0.6
				l-0.2-0.6l-0.3-0.4v-0.4l0.6-0.7l0.1-0.5l0.3-0.6v-0.5l-0.1-0.2L174.2,148.3z"/>
			<path vector-effect="non-scaling-stroke" class="st6" d="M195,154.9l7.2,0.8l2.9,0.2l-0.1,1.9l-0.4,5.9l-1.5-0.1l-2-0.2l-7.2-0.8
				l0.3-2.3v-0.2L195,154.9z"/>
			<path vector-effect="non-scaling-stroke" class="st6" d="M245.7,150.4l2.3-0.5l0,0l0.3,1.1v0.2l-0.7,0.3l-0.7,0.2l-0.9,0.7l0,0
				l0,0l-0.2-0.2l0.3-0.3l-0.1-0.1L245.7,150.4z"/>
			<path vector-effect="non-scaling-stroke" class="st6" d="M243.4,155.5l0.2-0.3h0.3l-0.2,0.4l0.1,0.3l0.4,0.4l0.1,0.4l0.4,0.4h0.2
				l0.2,0.6l-1,0.2L243.4,155.5z"/>
			<path vector-effect="non-scaling-stroke" class="st6" d="M241.8,157.5h0.3l-0.2,0.2L241.8,157.5z"/>
			<path vector-effect="non-scaling-stroke" class="st6" d="M230.2,167.1l2-0.2l1.9-0.3l-0.3,0.6l0.5,0.4h0.3l0.7,1l0.5,0.3l0.1,0.2
				l0.5,0.3v0.2l0.4,0.4l0.4,0.2l0.2,0.6l0,0l0.2,0.2l0,0l0,0l0,0l0.2,0.1l0.3,0.7l0.4,0.1l-0.3,0.7l-0.1,1l-0.3,0.5l0.2,0.1v0.4
				l-0.9-0.1l-0.1,0.3l0.1,0.6h-0.3l-0.1-0.3l-2.4,0.2l-2,0.1l-0.3-0.5l-0.2-0.3v-0.8l-0.2-0.5l0.1-0.5l0.2-0.3l-0.2-0.1V172
				l-0.4-0.7L230.2,167.1z"/>
			<path vector-effect="non-scaling-stroke" class="st6" d="M197.4,184.5l0.4-0.6l-0.1-0.5l1.1,0.5l0.4,0.3v0.2l0.5,0.4l-0.3,0.3
				l-0.6,0.2l-0.7,0.6l-0.4-0.2v-0.6L197.4,184.5z M196.3,182.3l0.2-0.2l0.2,0.3l0.3-0.1l0.6,0.3l-0.1,0.2l-0.7,0.1v-0.3
				L196.3,182.3z M195.6,182.3l0.5,0.2l-0.3,0.1L195.6,182.3z M195.2,181.9l0.1-0.2l0.9,0.1L196,182L195.2,181.9z M193.4,181
				l0.6-0.3l0.2,0.5l0.4,0.3h-0.8L193.4,181z M190.7,180.1l0.4-0.4h0.4l0.2,0.2l-0.3,0.5L190.7,180.1z"/>
			<path vector-effect="non-scaling-stroke" class="st6" d="M185.9,143.4v-0.8l1.1-4.9l1.2,0.3l-0.4,1.9l0.3,0.6L188,141l0.5,0.5
				l0.3,0.8l0.3,0.3v0.2l0.4,0.1l-0.2,0.2l-0.3,0.8l0.1,0.4l-0.2,0.1l-0.1,0.4l0.3,0.2l0.5-0.4l0.2,0.2v0.4l0.2,0.6l0.1,0.1
				l-0.1,0.4l0.4,0.3l0.2,0.8l0.2-0.1l0.5,0.2l0.2-0.2l0.2,0.1l0.8,0.1l0.1-0.3h0.2l0.3,0.6l-0.8,4.7l-4.2-0.7l-4.2-0.9l0.8-3.4
				l0.3-0.6l-0.3-0.3v-0.3l0.4-0.6h0.2l0.2-0.4l0.7-1l-0.1-0.3l-0.2-0.1L185.9,143.4z"/>
			<path vector-effect="non-scaling-stroke" class="st6" d="M220.5,157.3l0.1-0.5l0.3-0.1l0.2-0.5v-0.3l-0.3-0.3l0.1-0.4l0.5-0.1
				l0.4-0.3l0.2-0.4v-0.6l-0.3-0.2l-0.4-0.5l4-0.3v0.4l0.2,0.4l0.3,0.7l0.4,4.6l-0.1,0.5l0.2,0.3l0.1,0.4l-0.8,1.8l0.1,0.2l-0.2,0.3
				l0.2,0.4l-0.6,0.2l0.1,0.6l-0.7-0.2l-0.3,0.3l0.1,0.2h-0.2l-0.4-0.5l0.1-0.2l-0.2-0.6l-0.5-0.4l-0.1,0.1l-0.7-0.6v-0.2l0.3-0.6
				l0.1-0.5l-0.5-0.2l-0.3,0.1l-0.1-0.6l-0.5-0.4l-0.5-0.5l-0.2-0.6L220.5,157.3z"/>
			<path vector-effect="non-scaling-stroke" class="st6" d="M226,154.3l0.5,0.1l0.5-0.3l2.9-0.3v0.1l0.3,2.9l0.2,2.2l-0.1,0.1
				l0.2,0.5l-0.5,0.3h-0.4l0.1,0.4l-0.5,0.5l-0.1,0.5l-0.2,0.2l-0.5-0.3l-0.3,0.3v0.2l-0.3,0.1l-0.1-0.2l-0.5,0.4l-0.4-0.3l-0.3,0.2
				H226l-0.1,0.2l-0.1-0.2l0.8-1.8l-0.1-0.4l-0.2-0.3l0.1-0.5L226,154.3z"/>
			<path vector-effect="non-scaling-stroke" class="st6" d="M213.2,151.3l7.3-0.2v0.3l0.2,0.2l-0.2,0.2l0.2,0.8l0.5,0.2l0.1,0.2
				l0.4,0.5l0.3,0.2v0.6l-0.2,0.4l-0.4,0.3l-0.5,0.1l-0.1,0.4l0.3,0.3v0.3l-0.2,0.5l-0.3,0.1l-0.1,0.5l-0.5-0.4l-2.3,0.2l-2,0.1
				h-1.6l-0.2-0.3l0.1-0.4l-0.2-0.9l0.1-0.2l-0.2-0.2v-0.5l-0.3-0.4l-0.3-1l-0.3-0.4l0.1-0.3l0.1-0.7l-0.2-0.5L213.2,151.3z"/>
			<path vector-effect="non-scaling-stroke" class="st6" d="M205,157.9l9.9,0.3l0.6,0.3l-0.3,0.6l0.5,0.7h0.2v4.2l-9.1-0.2l-2.3-0.1
				L205,157.9z"/>
			<path vector-effect="non-scaling-stroke" class="st6" d="M238.1,156.6l5.3-1l0.7,2.4l1-0.2l-0.1,0.9l-0.6,0.2L244,159l-0.3-0.6
				l-0.4-0.1l-0.2-0.2v-0.3h0.4l-0.5-0.2l-0.1-0.2l0.1-1l0.2-0.3v-0.2l-0.5,0.8l0.2,0.3l-0.1,0.6l0.1,0.4l0.3,0.2l0.2,0.6l-0.5-0.2
				h-0.5l-0.2-0.3l-0.3,0.2l-0.1-0.2l0.2-0.3l0.1-0.3l0.2-0.2H242l-0.7-0.2l0.1-0.2L241,157l-0.3-0.4l-0.5-0.2l-0.3,0.4h-0.3
				l-0.2-0.2l0,0l-0.2,0.4H239l-0.5,0.6L238.1,156.6z"/>
			<path vector-effect="non-scaling-stroke" class="st6" d="M212.3,140.7h2.7V140l0.4,0.2l0.2,1l0.2,0.1l0.9,0.1l0.1,0.2l0.4-0.1
				l0.1-0.2h0.5l0.6,0.3l0.2,0.4l0.1-0.2h0.3l0.1,0.2l0.4,0.1l0.2,0.3l0.4-0.1l0.5-0.3l0.2,0.3l0.8-0.1l0.4,0.2h0.3l-0.5,0.4
				L221,143l-0.7,0.5l-0.5,0.7l-0.8,0.7l0.1,0.2l-0.4,0.1v1.1l-0.5,0.3l-0.3,0.4v0.3l0.3,0.2l-0.1,0.3v0.7l-0.1,0.4l0.4,0.3h0.3
				l0.1,0.2l0.4,0.2l0.1,0.3l0.6,0.4l0.3,0.4l0.1,0.5l-7.3,0.2v-3.5l-0.3-0.2l-0.2-0.4l0.3-0.3l0.1-0.4v-0.5l0,0l0,0l0,0l-0.2-0.6
				l-0.1-1l0,0v-1.1l-0.4-1.1v-0.8l0.1-0.2L212.3,140.7z"/>
			<path vector-effect="non-scaling-stroke" class="st6" d="M221.6,171.6v-0.8l-0.2-0.3l0.4-0.4l-0.2-0.4l0.3-0.1l0.2-0.6l0.3-0.2
				l0.3-1.1l3.3-0.2l0.2,0.2l-0.1,3l-0.1,3l0.4,2.9l-0.1,0.1l-0.9-0.1l-0.5,0.2l-0.3,0.3l-0.5-0.7l0,0v-0.5l0,0v-0.4l-3.1,0.2
				l0.1-0.1L221,175h0.2v-0.5l0.2-0.1l0.1-0.6l0.5-0.6h-0.3l0.4-0.4l-0.3-0.3l-0.1-0.6l0.1-0.3L221.6,171.6z"/>
			<path vector-effect="non-scaling-stroke" class="st6" d="M188.3,138l3,0.6l5.6,0.9l6.7,0.8l-0.5,5.8l-0.2,1.8l-9.5-1.2l-0.2,1
				l-0.3-0.6h-0.2l-0.1,0.3l-0.8-0.1l-0.2-0.1l-0.2,0.2l-0.5-0.2l-0.2,0.1l-0.2-0.8l-0.4-0.3l0.1-0.4L190,146l-0.2-0.6V145l-0.2-0.2
				l-0.5,0.4l-0.3-0.2l0.1-0.4l0.2-0.1l-0.1-0.4l0.3-0.8l0.2-0.2l-0.4-0.1v-0.2l-0.3-0.3l-0.3-0.8L188,141l0.1-0.5l-0.3-0.6
				L188.3,138z"/>
			<path vector-effect="non-scaling-stroke" class="st6" d="M180,150l4.1,1l4.2,0.9l-1.9,9.6l-0.3,1.5l-0.2,0.3l-0.3-0.3H185
				l0.1,0.4l-0.1,0.3v1.1l-0.2,0.3l-1.5-2.2l-1.7-2.5l-2-3l-1.2-1.8L180,150z"/>
			<path vector-effect="non-scaling-stroke" class="st6" d="M243.8,155.6l0.1-0.4l0.8-0.9l-0.6-0.4l-0.3-0.5l0.1-0.4l-0.2-0.2
				l0.5-0.9l1.3,0.4l-0.1,0.6l-0.2,0.2l0,0l-0.1,0.4h0.4l0.1,0.2l0.1,1l-0.2,0.7l-0.3,0.5l-0.2,0.6l-0.2,0.2v-0.4h-0.4l-0.7-0.4
				L243.8,155.6L243.8,155.6z"/>
			<path vector-effect="non-scaling-stroke" class="st6" d="M194,162.6l7.2,0.8l2,0.2l-0.1,1H203l-0.4,5.1l-0.2,1.7l-0.1,1.9
				l-5.8-0.5l0.1,0.4l-2.7-0.3l-0.1,0.9l-1.4-0.2L194,162.6z"/>
			<path vector-effect="non-scaling-stroke" class="st6" d="M203.5,140.3l8.8,0.4l0.2,0.7l-0.1,0.2v0.8l0.4,1.1v1.1l0,0l0.1,1
				l0.2,0.6l0,0l0,0l0,0v0.5l-5.2-0.2l-4.9-0.3L203.5,140.3z"/>
			<path vector-effect="non-scaling-stroke" class="st6" d="M203.2,163.6l1.5,0.1l2.3,0.1l9.1,0.2v1l0.3,2.2v3.4l-0.6-0.2l-0.5-0.4
				l-0.1,0.2l-0.5-0.1l-0.4,0.2h-0.5l-0.3,0.3l-0.9-0.5l-0.4,0.4v-0.3l-0.4,0.2l-0.4-0.3l-0.3,0.3l-0.1-0.3l-0.7-0.3l-0.2,0.2
				l-0.8-0.3H209l-0.1-0.4h-0.7l-0.5-0.4l0.2-3.8h-0.5l0,0l-4.1-0.2L203.2,163.6z"/>
			<path vector-effect="non-scaling-stroke" class="st6" d="M235.9,152.5l1-0.7l0.1,0.5l6.2-1.2l0.5,0.3l0.1,0.4l0.6,0.4l-0.5,0.9
				l0.2,0.2l-0.1,0.4l0.3,0.5l0.6,0.4l-0.8,0.9l0,0h-0.3l-0.2,0.3l-5.3,1l-1.5,0.3l-0.3-1.8L235.9,152.5z"/>
			<path vector-effect="non-scaling-stroke" class="st6" d="M234,166.5l0.8-0.4l0,0l0.4-0.1l1.9-0.2l0.5,0.3v0.2l1.7-0.3l2.1,1.5
				l-0.4,0.3l-0.3,0.6l-0.1,0.6l-0.2,0.4h-0.3v0.3l-0.6,0.7l-0.7,0.4l0.1,0.3l-0.3,0.2l-0.3,0.5l-0.4-0.1l-0.3-0.7l-0.2-0.1l0,0l0,0
				l0,0l-0.2-0.2l0,0l-0.2-0.6l-0.4-0.2l-0.4-0.4v-0.2l-0.5-0.3l-0.1-0.2l-0.5-0.3l-0.7-1h-0.3l-0.5-0.4L234,166.5z"/>
			<path vector-effect="non-scaling-stroke" class="st6" d="M202.9,148l0.2-1.8l4.9,0.3l5.2,0.2L213,147l-0.3,0.3l0.2,0.4l0.3,0.2
				v3.5H213l0.2,0.5l-0.1,0.7l-0.1,0.3l0.3,0.4H213l-0.1-0.3l-0.9-0.4h-0.7l-0.2,0.2l-0.7-0.4v-0.1l-7.8-0.4L202.9,148z"/>
			<path vector-effect="non-scaling-stroke" class="st6" d="M188.3,151.8l4.2,0.7l-0.3,1.9l2.9,0.4l-0.7,5.3v0.2l-0.3,2.3l-7.6-1.2
				L188.3,151.8z"/>
			<path vector-effect="non-scaling-stroke" class="st6" d="M244.5,144.7l2.4-0.6v0.4l0,0l0.1,0.6l-0.2,0.4l-0.3,0.1l0.1,0.4
				l-0.1,0.7l-0.1,0.4l0.1,1v0.4l0.2,0.2l-1.1,0.2l-0.3-1.5l-0.3-0.1V147l-0.2-0.5v-0.8l-0.2-0.3L244.5,144.7z"/>
			<path vector-effect="non-scaling-stroke" class="st6" d="M233.9,159.8l0.4-0.1l0.2-0.3l-0.1-0.4l0.2-0.5l0.3,0.3l0.2-0.8l0.3-0.3
				h0.3l0.5-0.7v-0.7l0.1-0.5l-0.2-0.5l0.2-0.1l0.3,1.8l1.5-0.3l0.2,1l0.5-0.6h0.2l0.2-0.4l0,0l0.2,0.2h0.3l0.3-0.4l0.5,0.2l0.3,0.4
				l-0.1,0.4l-0.9-0.5v0.6l-0.5,0.6l-0.1,0.3l-0.2-0.1l-0.2,0.8l-0.3,0.1l-0.3-0.2l-0.1,0.5l-0.3,0.8l-0.3,0.5l0,0v0.5l-0.3,0.1
				l-0.5,0.4l-0.5,0.2l-0.3-0.1l0,0l-0.1,0.1l0,0l-0.3,0.2l-0.5-0.4l0,0v-0.1l0,0v-0.1l-0.5-0.2l-0.7-0.8L233.9,159.8z"/>
			<path vector-effect="non-scaling-stroke" class="st6" d="M202.9,148l-0.3,3.9l-0.3,3.9l-7.2-0.8l-2.9-0.4l0.3-1.9l0.8-4.7l0.2-1
				L202.9,148z"/>
			<path vector-effect="non-scaling-stroke" class="st6" d="M239.1,186.2l0.6-0.6l0.3,0.3L239.1,186.2z M232,174.7l0.3,0.5l2-0.1
				l2.4-0.2l0.1,0.3h0.3l-0.1-0.6l0.1-0.3l0.9,0.1l0.2,0.8l0.4,0.9l0.7,1.2l0.8,0.9l0.1,0.8l0.5,0.8l0.9,1.7l0.2,1.9l-0.3,0.6
				l0.1,0.3l-0.1,0.4l-0.5,0.2l-0.7,0.2l-0.1-0.5l-0.4-0.5l-0.5-0.3l-0.3,0.1l-0.5-1l-0.4-0.2V182l-0.3,0.3l-0.9-1.2l0.4-0.8
				l-0.5-0.3l0.2,0.4l-0.2,0.3l-0.2-0.3l0.1-1.4l-0.1-0.6l-0.3-0.5l-0.4,0.1l-0.4-0.5l-0.3-0.1l-0.1-0.3l-0.5-0.4l-0.6-0.3l-0.4,0.1
				l-0.1,0.4h-0.3l-0.5,0.4l-0.7,0.2l-0.2-0.5l-1.1-0.5l-0.5-0.1h-0.5l-1.5,0.4l0.1-0.6l0,0V176l-0.4-0.3v-0.3L232,174.7z"/>
			<path vector-effect="non-scaling-stroke" class="st6" d="M224.4,163.7l-0.1-0.2l0.3-0.3l0.7,0.2l-0.1-0.6l0.6-0.2l-0.2-0.4
				l0.2-0.3l0.1-0.2h0.5l0.3-0.2l0.4,0.3l0.5-0.4l0.1,0.2l0.3-0.1v-0.2l0.3-0.3l0.5,0.3l0.2-0.2l0.1-0.5l0.5-0.5l-0.1-0.4h0.4
				l0.5-0.3l-0.2-0.5l0.1-0.1l0.5-0.1l0.2,0.1l0.2,0.4h0.5l0.3,0.2l0.2-0.2l0.3,0.2l0.6-0.4l0.1,0.3l0.4,0.3v0.6l0.7,0.8l0.5,0.2
				l-0.5,0.6l-0.5,0.4l-0.2,0.5l-0.3,0.3l0,0l-0.8,0.4l0,0l-2,0.2l-1.2,0.1l-1.2,0.1l-1.9,0.2l-0.3-0.1l0.1,0.3l-2.1,0.2l0.2-0.1
				l0.2-0.4L224.4,163.7z"/>
			<path vector-effect="non-scaling-stroke" class="st6" d="M220.5,178.3l0.2-0.1l0.4,0.1l-0.1,0.1L220.5,178.3z M217,171.7l4.6-0.1
				l0.2,0.2l-0.1,0.3l0.1,0.6l0.3,0.3l-0.4,0.4h0.3l-0.5,0.6l-0.1,0.6l-0.2,0.1v0.5H221l0.1,0.4l-0.1,0.1l3.1-0.2v0.4l0,0v0.5l0,0
				l0.5,0.7l-0.5,0.5l0.4,0.1l0.2-0.2l0.4,0.2l-0.3,0.4l-0.4,0.1l0.3,0.5h0.3l0.5,0.5l-0.3,0.1l-0.3,0.3l0.2-0.5L225,179l-0.7-0.5
				l-0.3-0.1l-0.1,0.5l-0.3,0.2l-0.4-0.5l-0.6,0.6l-0.3-0.2l-0.5-0.1l-0.2-0.5l-0.2,0.1l-0.3-0.5l-0.4,0.1v-0.2l-0.5,0.2l0.1,0.2
				l-0.4,0.2l-0.6-0.1l-0.9-0.3h-0.5l-0.6,0.2l-0.2-0.2l0.4-0.5l-0.1-0.9l0.3-0.6l0.1-0.4l-0.3-0.7l-0.3-0.4l0.1-0.2l-0.4-0.5
				L217,171.7z"/>
			<path vector-effect="non-scaling-stroke" class="st6" d="M252,143.6v0.3l-0.2-0.1v0.3l-0.4,0.2l-0.1-0.3l-0.1,0.3l0.1,0.3h-0.5
				l-0.1-0.4l-0.1,0.4l-0.1,0.6l-0.1,0.4l-0.2-0.1v0.3l-0.4,0.4l-0.4-0.1l-0.1,0.6v0.4l-0.2,0.1l-0.1,0.5l-0.5-0.5l-0.6-2l-0.5-1.6
				l0.3,0.1l0.1-0.6l0.4-0.9l-0.2-0.5l0.2-0.5l-0.1-0.5l0.6-1.7h0.2l0.1,0.3l0.2,0.1l0.7-0.6l0.8,0.4l0.7,2.1l0.1,0.5h0.5l0.1,0.6
				l0.3,0.2l0.2-0.1l0.4,0.6l-0.1,0.3l-0.5,0.4L252,143.6z"/>
			<path vector-effect="non-scaling-stroke" class="st6" d="M250.6,150.6l0.3-0.2l0.1,0.2H250.6z M249.7,150.8l0.3-0.3l0.3,0.2
				L249.7,150.8z M245.7,149l1.1-0.2l1.6-0.4l0.3-0.4l0.3-0.1l0.1,0.3h0.3l-0.3,0.3L249,149l0.2-0.1l0.4,0.3l0.4,0.6l0.6-0.2
				l-0.1-0.4l0.3,0.5l-0.5,0.3l-0.4,0.3V150l-0.5,0.5l-0.2-0.3l-0.1-0.1l-0.2-0.1l-0.2-0.4l-0.6,0.2l0,0l-2.3,0.5v-0.1L245.7,149z"
				/>
			<path vector-effect="non-scaling-stroke" class="st6" d="M227.9,146.5l0.1-0.3l0.1,0.3H227.9z M227,154.1l0.3-0.4l0.4-1.1v-0.8
				l-0.1-0.4l-0.4-0.8l0.1-0.4l-0.2-0.5l0.3-0.6l-0.1-0.6l0.2-0.2V148l0.3-0.1l0.2-0.5l0.1,0.2L228,148l0.2,0.2l0.1-0.5v-0.6
				l0.6-0.3l-0.3-0.3l0.2-0.4l0.3-0.1l0.4,0.2h0.3l0.2,0.2l0.9,0.2l0.3,0.5l-0.2,0.1l0.3,0.6v0.7l-0.2,0.2v0.4l-0.3,0.2l-0.1,0.5
				l0.4,0.3l0.5-0.8l0.4-0.2l0.3,0.1l0.2,0.4l0.3,1l0.2,0.4v0.8h-0.4l-0.1,0.6l-0.2,0.1l-0.1,0.6l-0.3,0.6L230,154v-0.1L227,154.1z
				 M222.7,142.6l0.1-0.1l0.8-0.5h0.2l-0.3,0.3l-0.6,0.4L222.7,142.6z M221.3,145.2l0.5-0.2l0.3-0.3l0.5-0.1l0.6-0.4l0.1-0.2
				l0.8-0.7l0.6-0.1l0.1,0.1l-0.7,0.5l-0.2,0.4l0.1,0.3l0.2-0.3h0.5l0.5,0.4l0.3,0.4l0.5-0.1l0.5,0.2l0.6-0.6l0.9-0.1l0.7-0.3v0.6
				l0.5-0.1l0.1,0.1l0.2-0.2l0.4-0.1l0.1,0.5l-0.2,0.1l0.3,0.1l0.2,0.3l-0.8,0.1l-0.2-0.1l-0.2,0.4l-0.3-0.2l-0.7-0.1l-0.2,0.3
				L227,146v0.3l-0.5,0.3l0.2-0.4h-0.3l-0.2,0.4l-0.1-0.3l-0.7,1.5l-0.2-0.1l0.1-0.3H225l0.1-0.6l-0.5-0.2v-0.2l-0.6-0.1l-0.2,0.1
				l0,0h-0.1l0,0l-0.5-0.2l-1.4-0.3l-0.3-0.3l0,0v-0.1l0,0L221.3,145.2z M230.3,145.4l0.2-0.1l0.1,0.3h-0.5L230.3,145.4z"/>
			<path vector-effect="non-scaling-stroke" class="st6" d="M214.2,157h1.6l2-0.1l2.3-0.2l0.5,0.4l-0.1,0.7l0.2,0.6l0.5,0.5l0.5,0.4
				l0.1,0.6l0.3-0.1l0.5,0.2l-0.1,0.5l-0.3,0.6v0.2l0.7,0.6l0.1-0.1l0.5,0.4l0.2,0.6l-0.1,0.2l0.4,0.5h0.2l0.1,0.4l-0.2,0.4
				l-0.2,0.1h-0.1h-0.1v0.5h-0.3l0.2,0.2l-0.2,0.3l-1,0.1l0.4-0.6l-0.1-0.3l0,0v-0.1L216,165v-1v-4.2h-0.2l-0.5-0.7l0.3-0.6
				l-0.6-0.3l-0.2-0.5l-0.2-0.2L214.2,157z"/>
			<path vector-effect="non-scaling-stroke" class="st6" d="M202.5,151.8l7.8,0.4v0.1l0.7,0.4l0.2-0.2h0.7l0.9,0.4l0.1,0.3h0.3
				l0.3,1l0.3,0.4v0.5l0.2,0.2l-0.1,0.2l0.2,0.9l-0.1,0.4l0.2,0.3l0.2,0.5l0.2,0.2l0.2,0.5l-9.9-0.3l0.1-1.9l-2.9-0.2L202.5,151.8z"
				/>
			<path vector-effect="non-scaling-stroke" class="st6" d="M247,144.5L247,144.5v-0.4l0.1-0.5l0.3-0.2l0.5,1.6l0.6,2l0.5,0.5
				l-0.1,0.4l-0.3,0.1l-0.3,0.4l-1.6,0.4l-0.2-0.2v-0.4l-0.1-1l0.1-0.4l0.1-0.7l-0.1-0.4l0.3-0.1l0.2-0.4V144.5z"/>
			<path vector-effect="non-scaling-stroke" class="st6" d="M236.8,151.8l0.6-0.6l0.5-0.6l-0.4-0.5l-0.1-0.4l0.8-0.4l1-0.1l0.4,0.1
				l0.8-0.2l0.6-0.6l0.2-0.1l-0.2-0.6l0.2-0.1l-0.4-0.5l0.4-0.4l0.7-1.1l0.4-0.4l2.2-0.6l0.1,0.8l0.2,0.3v0.8l0.2,0.5v0.3l0.3,0.1
				l0.3,1.5v1.3v0.1l0.3,1.5l0.1,0.1l-0.3,0.3l0.2,0.2l0,0l-0.1,0.4l0.5-0.4l1.1-0.3l0.3-0.4l0.4,0.2l-0.4,0.3l-0.9,0.6l-1.2,0.5
				l-0.2-0.3l0.1-0.6l-1.3-0.4l-0.6-0.4l-0.1-0.4L243,151l-6.2,1.2L236.8,151.8z"/>
			<path vector-effect="non-scaling-stroke" class="st6" d="M232.4,166.3L232.4,166.3l0.1-0.3l0.3-0.4l0.4-0.1l0.3-0.4l0.4-0.1
				l0.3-0.5h0.3l0.6-0.5h0.3l0.4-0.6V163l2.1-0.3l2.7-0.5l4-0.8l-0.1,0.3l0.1,0.4l-0.2,0.2l-0.9,0.6l0.5-0.1l0.3-0.2l0.3,0.1
				l0.1-0.2l0.4,0.5l-0.5,0.8h-1.3l0.8,0.2v0.4l-0.2,0.4l0.4-0.4l0.3,0.1l-0.3,0.6l-0.9,0.3l-0.6,0.7l-0.3,0.6l-0.1,0.7l-0.2-0.1
				l-0.7,0.2l-2.1-1.5l-1.7,0.3v-0.2l-0.5-0.3l-1.9,0.2l-0.4,0.1l0,0l-0.8,0.4l-1.9,0.3v-0.5H232.4z"/>
			<path vector-effect="non-scaling-stroke" class="st6" d="M229.9,153.9l1.9-0.3l0.7,0.3l0.2-0.1l0.6,0.3l0.6-0.4h0.4l0.6-0.6
				l1-0.6l0.4,2.6l-0.2,0.1l0.2,0.5l-0.1,0.5v0.7l-0.5,0.7h-0.3l-0.3,0.3l-0.2,0.8l-0.3-0.3l-0.2,0.5l0.1,0.4l-0.2,0.3l-0.4,0.1
				l-0.4-0.3l-0.1-0.3l-0.6,0.4l-0.3-0.2l-0.2,0.2l-0.3-0.2h-0.5l-0.2-0.4l-0.2-0.1l-0.5,0.1l-0.2-2.2L229.9,153.9z"/>
			<path vector-effect="non-scaling-stroke" class="st6" d="M177.4,140.7l0.3,0.3h0.2l0.3,0.5l-0.1,0.6l0.6,0.4l0.6-0.1l0.4,0.1
				l0.4,0.3l0.8-0.1l0.5,0.2l0.4-0.1h0.6l0.5,0.1l0.2-0.1l2.7,0.6l0.1,0.4l0.2,0.1l0.1,0.3l-0.7,1l-0.2,0.4h-0.2l-0.4,0.6v0.3
				l0.3,0.3l-0.3,0.6l-0.8,3.4l-4.1-1l-3.3-0.9l-2.5-0.7l-0.1-0.2l0.1-0.7l0.2-0.4l-0.1-0.4l0.8-1.1l0.3-0.6l1.3-3.3l0.2-1l0.4,0.2
				L177.4,140.7z"/>
			<path vector-effect="non-scaling-stroke" class="st6" d="M249,150.3l0.2,0.3l-0.3,0.1L249,150.3z M248.3,151.2V151l-0.3-1.1
				l0.6-0.2l0.2,0.4l0.2,0.1h-0.2v0.7L248.3,151.2z"/>
			<path vector-effect="non-scaling-stroke" class="st6" d="M223.6,165.6l0.2-0.3l-0.2-0.2h0.3v-0.5h0.1h0.1l2.1-0.2l-0.1-0.3
				l0.3,0.1l1.9-0.2l1.2-0.1l1.2-0.1l2-0.2l0,0l3-0.4v0.4l-0.4,0.6H235l-0.6,0.5h-0.3L234,165l-0.4,0.1l-0.3,0.4l-0.4,0.1l-0.3,0.4
				l-0.1,0.3l0,0l-0.3,0.1v0.5l-2,0.2l-4.1,0.3l0,0l-3.3,0.2l0.4-0.3l-0.2-0.5l0.5-0.4l-0.2-0.2l0.4-0.3L223.6,165.6z"/>
			<path vector-effect="non-scaling-stroke" class="st6" d="M211.4,183.7l0.1-0.9l0.2-0.5l-0.2,1L211.4,183.7z M203.1,164.6l4.1,0.2
				l0,0h0.5l-0.2,3.8l0.5,0.4h0.7l0.1,0.4h0.3l0.8,0.3l0.2-0.2l0.7,0.3l0.1,0.3l0.3-0.3l0.4,0.3l0.4-0.2v0.3l0.4-0.4l0.9,0.5
				l0.3-0.3h0.5l0.4-0.2l0.5,0.1l0.1-0.2l0.5,0.4l0.6,0.2l0.2,0.2h0.6v1v2l0.4,0.5l-0.1,0.2l0.3,0.4l0.3,0.7l-0.1,0.4l-0.3,0.6
				l0.1,0.9l-0.4,0.5l0.2,0.2L217,178l-1.1,0.5l0.4-0.3l-0.4,0.1l0.1-0.5l-0.5,0.4l0.2,0.1v0.4l-0.8,0.8l-1.4,0.7l-0.8,0.6l-0.7,0.7
				l0.2-0.5l0.8-0.5h-0.6v0.3L212,181l-0.2,0.4l-0.4,0.1l0.2,0.3l-0.3,0.7l-0.1,1l0.1,0.6l0.2,0.4v0.3l0.3,0.3l-0.7,0.1l-0.5-0.3
				h-0.8l-0.4-0.3H209l-0.2-0.3l-0.5-0.1l-0.3-0.9l-0.3-0.4V182l-0.2-0.3l-0.5-0.3l-0.3-0.7l-0.2-0.1l-0.3-0.8l-0.4-0.6v-0.3
				l-0.6-0.8l-0.3-0.1l-0.2-0.5l-1.1-0.1l-0.4-0.2l-0.1,0.2h-0.5l-0.9,1.4l-0.5-0.1l-0.6-0.5l-0.4-0.1L200,178l-0.5-0.4l-0.2-0.5
				v-0.6l-0.2-0.3l-0.2-0.6l-0.6-0.4l-0.8-1l-0.4-0.2l-0.2-0.5l-0.2-0.1l-0.1-0.4l5.8,0.5l0.1-1.9l0.2-1.7L203.1,164.6L203.1,164.6z
				"/>
			<path vector-effect="non-scaling-stroke" class="st6" d="M244.4,158.8l0.6-0.2l-0.4,0.7v0.3l-0.2,0.8l-0.2,0.2l-0.1-0.3v-0.8
				l0.2-0.5L244.4,158.8z M232.8,163.6l0.8-0.4l0,0l0.3-0.3l0.2-0.5l0.5-0.4l0.5-0.6v0.1l0,0v0.1l0,0l0.5,0.4l0.3-0.2l0,0l0.1-0.1
				l0,0l0.3,0.1l0.5-0.2l0.5-0.4l0.3-0.1v-0.5l0,0l0.3-0.5l0.3-0.8l0.1-0.5l0.3,0.2l0.3-0.1l0.2-0.8l0.2,0.1l0.1-0.3l0.5-0.6v-0.6
				l0.9,0.5l0.1-0.4l0.4,0.1l-0.1,0.2l0.7,0.2l0.2,0.2l-0.1,0.3l-0.2,0.4l0.2,0.2l0.3-0.2l0.2,0.3h0.4l0.8,0.4v0.5l0.2,0.6l-0.2,0.1
				l0.3,0.4l-0.3,0.3l0.8-0.1l0.3,0.6l-4,0.8l-2.7,0.5l-2.1,0.3L232.8,163.6z"/>
			<path vector-effect="non-scaling-stroke" class="st6" d="M179.3,139l0.1-0.3l0.1,0.3H179.3z M179.5,137.3l0.2-0.2l0.2,0.2
				l-0.2,0.1v0.4h0.2l-0.1,0.2l-0.2-0.3L179.5,137.3z M179.4,136.5l0.2-0.1l0.2,0.2L179.4,136.5z M187,137.8l-1.1,4.9v0.8l-2.7-0.6
				L183,143l-0.5-0.1h-0.6l-0.4,0.1l-0.5-0.2l-0.8,0.1l-0.4-0.3l-0.4-0.1l-0.6,0.1l-0.6-0.4l0.1-0.6L178,141h-0.2l-0.3-0.3l-0.4-0.1
				l-0.1-0.3l0.5-0.5l-0.3-0.2l0.1-0.2l0.4-0.1l-0.4-0.3v-0.8l0.1-0.7l-0.2-0.3l0.1-0.6l0.2-0.3l0.6,0.6l1.5,0.6l0.1,0.5l-0.3,0.1
				l-0.1,0.3h0.2l0.4-0.4l-0.1,0.5l-0.3,0.7l-0.2-0.1v0.4l0.3-0.3h0.3v-0.6l0.5-0.6l-0.1-0.4l0.1-1l-0.3-0.5l0.1-0.1L187,137.8z"/>
			<path vector-effect="non-scaling-stroke" class="st6" d="M219.2,145h0.3l0.9-0.4l0.3-0.2l0.2,0.1l-0.2,0.6l0.3-0.2l0.4,0.2h0.1
				l0,0v0.1l0,0l0.3,0.3l1.4,0.3l0.5,0.2l0,0h0.1l0,0l0.2-0.1l0.6,0.1v0.2l0.5,0.2L225,147h0.3l-0.1,0.3l0.2,0.1l-0.5,0.8v0.3
				l0.4-0.2l0.2-0.4l0.3-0.2l0.4-0.8l0.1,0.4l-0.3,0.6l-0.2,0.5v0.7l-0.2,0.2l-0.1,0.5l0.1,0.4l-0.2,0.9l0.2,0.7l0.1,0.2v0.6l-4,0.3
				l-0.1-0.2l-0.5-0.2l-0.2-0.8l0.2-0.2l-0.2-0.2V151l-0.1-0.5l-0.3-0.4l-0.6-0.4l-0.1-0.3l-0.4-0.2l-0.1-0.2H219l-0.4-0.3l0.1-0.4
				v-0.7l0.1-0.3l-0.3-0.2v-0.3l0.3-0.4l0.5-0.3L219.2,145L219.2,145z"/>
		</g>
	</g>
	<g pointer-events="none">
	</g>
</g>
<path class="st9" d="M202.7,45l-0.2-0.2v-0.1l-0.1-0.1h-0.8l-0.1-0.1l-0.2,0.1l-0.1,0.2l-0.1,0.1l-0.2,0.1l-0.1,0.2l0.5,0.1l0.1,0.1
	l0.4-0.1l0.1,0.2l0.1,0.1l0.2-0.1h0.5l0.2-0.2V45H202.7L202.7,45L202.7,45z M203.8,43.5l-0.3-0.6l0.1-0.4l-0.1-0.3l0.3-0.4v-0.1
	l0.1-0.1v-0.2h-0.2l-0.2,0.2l-0.6,0.2l-0.3,0.1h-0.1l-0.1,0.1l-0.1,0.6l-0.1,0.1v0.1l0.1,0.1V43l-0.1,0.1v0.4l0.1,0.1l-0.1,0.3
	l-0.2,0.2v0.1h0.9l0.1,0.2h0.4l0.1,0.1l0.2-0.2l0.1-0.3h0.2l0.2-0.2l-0.2-0.3L203.8,43.5z M216.2,53.6L216.2,53.6v0.2l0.2-0.1v-0.1
	v-0.1L216.2,53.6L216.2,53.6z M198.9,48.1h-0.3l-0.4,0.4l-0.2,0.1l-0.4,0.4h-0.1l-0.2,0.1h-0.1l-0.5,0.3v0.1l0.5,0.2h0.1l0.3-0.2
	l0.1,0.1l-0.1,0.1l0,0h0.2l0.2-0.1h0.2l0.1-0.1h0.8l0.1-0.1V49l-0.1-0.1v-0.1l0.1-0.3v-0.1l-0.2-0.2L198.9,48.1z M215.1,44L215.1,44
	v0.3h0.1l0.1-0.1l-0.1-0.2H215.1z M214.9,53.8h0.3l0.1-0.1l0.1,0.1h0.1l0.1-0.1l0.1-0.2l0.2-0.1v0.1h0.1l0.3-0.2l0.4-0.1h0.2
	l0.3-0.1l0.2-0.2l0.2-0.1l0.2-0.3l0.1-0.1l0.2,0.1h0.4l0.1-0.1v-0.1l0.1-0.1v-0.1l0.2,0.1h0.2l0.3-0.2l0.2-0.2h0.2l0.2-0.2l-0.1-0.5
	l-0.3-0.1l-0.1-0.2l0.1-0.1v-0.2l0.1-0.1h0.2l0.1-0.1v-0.4l-0.2-0.3h-0.2l-0.3-0.1l-0.3-0.1l-0.1,0.1l0.2,0.5h0.1v0.1l-0.1,0.1
	l-0.3,0.1l-0.1,0.2l-0.1-0.1h-0.5v-0.1l0.2-0.1h0.3l0.2-0.1l-0.2-0.5l-0.2-0.3l-0.3-0.2l-0.1,0.1l0.1,0.2v0.1H218l-0.2-0.1h-0.1
	l-0.2-0.1l-0.8-0.7v-0.1h-0.1v-0.1l-0.3-0.2v-0.1l-0.4-0.5l-0.4-1.1l-0.3-1.1l-0.1-0.4v-0.2l0.1-0.2l-0.1-0.2v-1.1l0.3-0.4v-0.3
	l0.1-0.1l0.2-0.1l0.2-0.1l0.2-0.5l-0.1-0.3l-0.2-0.2l-0.2-0.1h-0.2l-0.1,0.1l0.1,0.3l-0.1,0.3l-0.1,0.2h-0.1l0.1-0.1v-0.5l-0.1-0.2
	l-0.3-0.2l0.5,0.2h0.3l0.1-0.1l-0.2-0.2l-0.2-0.1l-0.2-0.1h-0.3l-0.2-0.1l-0.4-0.1l-0.1-0.1h-0.2l-0.1-0.1l-0.8-0.1l-0.6-0.3h-0.5
	l-0.1,0.1h-0.1l-0.1-0.1h-0.3l-0.5-0.2l-0.6-0.1l-0.6-0.2h-0.5l-0.2,0.1h-0.5l-0.1,0.2l-0.1-0.1h-1.4l-0.1-0.1L206,40l-0.3,0.1
	l-0.1,0.1h-0.4l-0.1,0.1l-0.3,0.5l-0.1,0.3l-0.5,0.4V42l-0.2,0.2l-0.1,0.1v0.4h0.1l0.1-0.1h0.1v0.2l0.1,0.3v0.2l0.1,0.1v0.5l0.1,0.1
	v0.1l0.2,0.2l0.4,0.1l0.1-0.1h0.1l0.1-0.1h0.2h-0.2l-0.1,0.1v0.1l0.5,0.8v0.1l0.1,0.1v0.1l-0.1-0.1l-0.2-0.1l-0.2,0.2v0.2H205v0.2
	l0.1,0.2v0.4l0.1,0.1h0.2l0.2,0.2V47l-0.1,0.1v0.1h0.5l0.1-0.1l0.1-0.1h0.2l0.1-0.1l0.1,0.1h0.1l0.1,0.1h0.4l0.1,0.1h0.1l0,0h-0.2
	l-0.1-0.1h-0.5l-0.1-0.1v0.1h-0.1l-0.2,0.3H206l-0.2,0.1v0.3l-0.3,0.4h-0.2l-0.4-0.3h-0.3l-0.4,0.3l0.1,0.2h0.2l0.1,0.1V49h0.3
	l0.3-0.2h0.2l0.1-0.1h0.3l0.2,0.1h0.1l0.1-0.1h0.3l0.5,0.2h0.2l0.1,0.1h0.1l0.2,0.2v0.3l0.2,0.1h0.2l0.2,0.2l0.4,0.4l0.5,0.2h0.2
	l0.4,0.1h0.2l0.3,0.1l0.1,0.2l0.2,0.1l0.2-0.2l0.4-0.1l0.1-0.1v0.2l-0.2,0.1h-0.2l-0.2,0.1V51l0.2,0.2l0.4,0.1l0.6,0.4l0.5,0.3h0.3
	l0.1-0.1l0.2,0.1v0.1l-0.5,0.1h-0.1l-0.2-0.2h-0.4l-0.2-0.1h-0.2V52l0.3,0.3l-0.1,0.1l-0.1,0.1l0.1,0.2h0.7l0.1,0.1h0.3l0.2,0.2h0.3
	l0.1,0.1h0.2l0.2,0.1l0.5,0.1l0.2,0.1l0.1,0.2h0.3L214.9,53.8z M201.2,48.7l-0.2-0.2h-0.1l-0.1,0.1l0.1,0.5l-0.1,0.1l0.2,0.2h0.1
	l0.1,0.1l0.2-0.1V49L201.2,48.7L201.2,48.7z M201.7,46L201.7,46l-0.3-0.1v0.2l0.1,0.1l-0.3,0.1l-0.1,0.2h0.2l0.1,0.1h0.4l0.3-0.4V46
	L201.7,46z M200.8,48.1h-0.2l-0.2,0.1v0.1h-0.1v0.1h0.2l0.5-0.3L200.8,48.1z M200.8,46.5l-0.1-0.6l-0.1-0.1h-0.4l-0.3,0.3h-0.1
	l-0.1,0.2v0.3l0.1,0.1l-0.1,0.2l-0.2,0.4L199,48l0,0l0.4,0.2h0.1l0.3-0.2l0.3-0.1l0.3-0.3l0.1-0.1h0.2l0.1-0.1h0.1l0.4-0.4l0.1-0.4
	l-0.5-0.1L200.8,46.5z M202.9,45.7h-0.1l0,0v0.1l0.1,0.1h0.1l0,0v-0.1L202.9,45.7z M235.3,62.4v0.2l0.1,0.1l0.2-0.1v-0.2l-0.1-0.1
	L235.3,62.4L235.3,62.4z M215.1,54.4h-0.3l-0.2,0.1v0.1l0.4,0.2h0.2l0.1-0.1L215.1,54.4L215.1,54.4z M236.3,61.9L236.3,61.9
	l-0.3-0.1l-0.1,0.3h-0.1l-0.1,0.1l0.1,0.1l0.5-0.1h0.5l0.1-0.2l-0.1-0.1H236.3z M231.4,107h-0.2l-0.2,0.2v0.2l0.2,0.2h0.1l0.2-0.2
	v-0.1L231.4,107z M239.3,60.3l-0.1,0.2v0.2l0.1,0.1h0.2l0.2-0.3l-0.2-0.6l-0.1,0.1L239.3,60.3z M231.7,95.8l-0.4,0.1v0.2l0.4,0.2
	h0.5v-0.4l-0.2-0.1L231.7,95.8z M226.8,106.1l-0.1-0.1l-0.1,0.1v0.2h0.2L226.8,106.1L226.8,106.1L226.8,106.1z M224.8,106.1
	l-0.2,0.3v0.1l0.1,0.1h0.2l0.2-0.2v-0.1l-0.1-0.1L224.8,106.1z M221.5,60.5l-0.2,0.1l-0.1,0.3l0.1,0.1h0.1l0.1-0.1l0.1-0.2
	L221.5,60.5L221.5,60.5z M225.9,105.7l-0.2,0.3l0.1,0.2h0.3l0.1-0.1l-0.2-0.3L225.9,105.7z M232.4,61.6l0.3,0.2l0.1-0.1h0.5l0.1-0.1
	v-0.3l-0.1-0.2V61l0.1,0.2l0.1,0.3l0.2,0.1h0.1l0.2,0.3l0.2,0.1h0.1l0.3-0.1l0.1-0.2h0.2l0.2-0.2l0.2-0.1l0.7,0.1l0.1-0.1h0.3
	l0.1,0.1l0.4-0.1l0.2-0.1l0.2-0.2l0.2-0.1h0.3l0.4-0.1h0.3l0.3-0.2l0.1-0.1v-0.3l0.1-0.2l0.2-0.2v-0.4l-0.2-0.3l0.1-0.2l-0.2-0.3
	h-0.1l0.1-0.1v-0.3l-0.1-0.2l0.1-0.2l0.4,0.4v0.2l0.1,0.1h0.1l0.1-0.1v-0.3h0.1l0.1-0.1l-0.1-0.3l-0.3-0.1l-0.3-0.3l-0.4,0.1
	l-0.1-0.1h-0.2l-0.2-0.2l-0.4-0.5l-0.2-0.3v-0.2v-0.1l0.1-0.2l-0.1-0.3l0.2-0.1l-0.2-0.5h0.1l0.2,0.5l0.1,0.1l-0.1,0.4l0.1,0.1
	l0.1,0.2v0.4l0.3,0.5h0.4l0.1-0.1v-0.4l0.2-0.4v-0.6l-0.4-0.3h-0.1v-0.1l-0.1-0.1l-0.3-0.3l-0.1-0.3l-0.2-0.3l-0.2-0.5l-0.1-0.6
	l-0.1-0.1v-0.4L237,52v-0.1l0.1-0.1l-0.1-0.2l-0.2-0.1l-0.5-0.5l-0.3,0l-0.1-0.2l-0.1-0.3h-0.1l-0.4,0.1l-0.2-0.1l-0.1,0.1l-0.3,0.1
	l-0.7-0.2l-0.3-0.3l-0.2-0.1h-0.2l-0.1,0.1v0.2l-0.1,0.2l-0.2,0.1h-0.3l-0.1,0.1l-0.1,0.1h-0.6l-0.1-0.1h-0.2l-0.3,0.1l-0.1-0.1
	h-0.6l-0.6-0.2l-0.2-0.1l-0.5-0.3l-0.3-0.1l-1.1-0.1l-0.6,0.2l-0.4,0.2h-0.3l-0.1,0.1h-0.8l-0.9-0.1h-0.2l-0.1-0.1h-0.2l-0.3-0.3
	h-0.3l-0.4-0.2h-0.1l-0.4-0.3h-0.1l-0.1-0.2l-0.3-0.1l-0.3-0.6l-0.3-0.3h-0.1l-0.1,0.1l-0.1,0.2v0.2l-0.2,0.1h-0.5l-0.3,0.1
	l-0.1,0.3l0.1,0.1h0.2v0.2v0.1l-0.1,0.1v0.3l0.1,0.1l-0.1,0.1v0.4l0.1,0.2l-0.1,0.1l0.2,0.1v0.2l-0.1,0.1l-0.2-0.1l-0.1,0.1v0.2
	l0.1,0.2l-0.1,0.1l-0.1,0.1l0.1,0.3H220l-0.2,0.3l-0.1-0.1h-0.2l-0.2,0.2l-0.2,0.1l-1.1,0.3l-0.2-0.1l-0.3,0.1l-0.1,0.1l-0.1,0.3
	h-0.4l-0.1,0.1h-0.2l-0.2,0.2l-0.2,0.2l-0.3,0.2l-0.2,0.1l-0.3,0.3l-0.4,0.2v0.4h0.2l0.2-0.2v-0.2l0.1-0.1l0.3-0.3l0.4-0.3l0.1,0.1
	h-0.1l-0.7,0.6l-0.1,0.2l0.1,0.1h0.1l0.2-0.2h0.1L216,55l0.1,0.1l0.3-0.1l0.2-0.1l0.4-0.5h0.1l-0.2,0.3v0.1h0.2l-0.1,0.1h-0.1
	l-0.3,0.3l-0.2,0.1l-0.1,0.2l0.1,0.1l-0.2,0.1v0.1l0.1,0.1h0.2l0.2-0.1l0.2-0.3l0.2-0.1h0.5v0.1l0.1,0.1l0.3-0.3v0.2l-0.2,0.3
	l-0.1-0.1h-0.1l-0.6,0.5l0.1,0.1h0.2l0.1-0.1h0.2v0.1l0.1,0.1h0.4h0.1v-0.1l-0.1-0.1l0.1-0.1l0.1,0.2l-0.3,0.3l0.2,0.2l0.5-0.2
	l0.2-0.3l0.3-0.2v0.1l-0.3,0.3l-0.3,0.4V57h0.2l0.4-0.4v0.1l-0.1,0.1v0.1l0.1,0.1h0.1l0.2-0.1h0.9l-0.1,0.1h-0.2l-0.2,0.1h-0.2
	l-0.2,0.1h-0.3l-0.3,0.3l0.3,0.3h0.1l0.2,0.1V58l-0.4,0.1h-0.4l-0.2,0.2v0.3l0.6,0.3l0.1,0.1h1l0.3,0.2v0.1l0.1,0.1h0.2l0.2-0.3h0.3
	l0.2,0.1l-0.3,0.3l0.1,0.3l-0.2,0.2v0.1l0.3,0.2v0.2l0.2,0.1h0.1l0.2-0.1l0.3-0.6l0.2-0.6v-0.2l0.1-0.2l0.1-0.3l0.1-0.1h0.3l0.3-0.1
	l0.1-0.1V58l0.1-0.2v-0.2l0.1-0.1l0.5-0.2l0.4-0.4l0,0l-0.1,0.2l-0.5,0.4l-0.1,0.2h-0.1l-0.1-0.1h-0.2v0.1l-0.1,0.1v0.3l-0.1,0.2
	v0.3l0.2,0.1h0.2l0.5,0.1l0.2-0.1l0.2-0.2h0.1l-0.2,0.5v0.1h0.2l0.3,0.1h0.3l0.3-0.2l0.2,0.1l0.1,0.1h0.3l0.1-0.1v-0.2l0.1-0.2
	l0.2-0.3v-0.1l0.3,0.3l0.2,0.5l0.3,0.1v0.1h-0.1l-0.1,0.1l0.1,0.2l0.2,0.1h0.1v0.2h0.2l0.1-0.1v-0.1l0.2-0.1v-0.1h0.2l0.1-0.2
	l0.2,0.2l0.3,0.3V60l0.1,0.1l0.4-0.1l0.2-0.1l-0.2,0.3v0.2l0.1,0.1v0.2l0.1,0.2v0.2l-0.1,0.1v0.3l0.1,0.1h0.2l0.1-0.2l0.5-0.4
	l0.1-0.2l0.1-0.1l0.2-0.1l0.1,0.1h0.1l0.2-0.2v-0.1l0.1-0.1v0.1h-0.1v0.1l0.2,0.1v0.2l-0.2,0.2l-0.3,0.4l-0.4,0.1l-0.2,0.2l0.1,0.2
	l0.6,0.1v0.1h0.2l0.1,0.1h0.1l0.3-0.3h0.1L232.4,61.6z M218.7,46.2l-0.1-0.2l-0.1-0.5l-0.1-0.1v-0.1l-0.2-0.4l-0.1-1l-0.1-0.1h-0.2
	v0.7L218,45v0.2v0.3l-0.3,0.9l0.1,0.2l-0.5,0.3V47l0.2,0.2v0.2v0.1h0.2l0.2-0.1v-0.1l-0.2-0.2V47l0.3,0.3v0.1l0.1,0.2l0.1,0.1
	l0.4,0.1l0.1,0.2l0.2,0.2l0.3-0.1l0.2-0.1l0.1-0.2v-0.2l-0.4-0.6l-0.3-0.3L218.7,46.2z M220.2,51.5L220.2,51.5l-0.1,0.1v0.2l0.1,0.1
	l0.2-0.2v-0.1L220.2,51.5z M200.1,45.8h0.1l0.1-0.1h0.5l0.1,0.1h0.2v-0.2h-0.3l-0.6-0.3h-0.1l-0.1,0.2l0.1,0.1V45.8z M219.6,48.7
	h0.2v0.2l0.1,0.1v0.2l0.2,0.1l0.1-0.1V49l0.2-0.2l0.2-0.1l0.1-0.3v-0.2l-0.2-0.1l-0.1,0.1l-0.1-0.1l-0.5,0.1l-0.2,0.3V48.7z
	 M215.9,42.4l0.3,0.2l-0.3,0.1V43l-0.1,0.1v0.2l0.1,0.1h0.2l0.1,0.1v0.1l-0.1,0.1l0.1,0.1l-0.1,0.3l0.2,0.1h0.1l-0.2,0.3v0.1
	l0.1,0.3L216,45l-0.1,0.1v0.2l0.1,0.1v0.2l-0.2,0.2v0.1l0.2,0.2l0.1,0.3l0.2,0.2l0.3-0.1l0.1-0.1v-0.3l-0.2-0.3v-0.1l0.2,0.2h0.3
	v0.2l0.3,0.2h0.2l0.2-0.5v-0.6l-0.2-0.5v-0.6l-0.2-0.2l0.2-0.2l0.1,0.1h0.2h0.7l0.1,0.1l0.2-0.1v-0.1v-0.1l-0.1-0.1h-0.1l-0.1-0.2
	h-0.3l-0.2-0.6l-0.4-0.2l-0.3-0.1l-0.3-0.2l-0.8-0.7h-0.1l-0.1-0.1h-0.2l-0.1,0.1l0.2,0.5L215.9,42.4z M285.3,89.8l0.1-0.2v-0.1
	l0.1-0.1l-0.1-0.1h-0.3l-0.1,0.3l0.1,0.2L285.3,89.8z M220.8,48.1h0.3l0.2-0.3h0.1v-0.1l-0.3-0.4l-0.1-0.1l-0.4,0.8L220.8,48.1
	L220.8,48.1z M201.1,46.4l0.2-0.2v-0.1l0,0h-0.1l-0.1,0.1L201.1,46.4L201.1,46.4z M242,56.8l0.3-0.1v-0.1v-0.1l-0.1-0.1H242
	l-0.1,0.1v0.1L242,56.8L242,56.8z M239,57.2h0.1l0.2-0.2l0.1-0.4l0.1-0.1v-0.2l-0.2-0.2H239l-0.1-0.1l0,0l-0.1,0.1l-0.1,0.5
	L239,57.2z M186.6,58.7L186.6,58.7h-0.1h-0.1v0.2l0,0h0.3l0.1-0.1L186.6,58.7L186.6,58.7z M188.9,79.2l-0.1,0.1v0.2h0.4l0.1-0.1
	v-0.1l-0.2-0.2L188.9,79.2z M186.6,58.3L186.6,58.3L186.6,58.3l-0.1-0.1l-0.1-0.1h-0.1v0.1l0.2,0.1H186.6z M195.4,89.3h-0.2
	l-0.1,0.2l0.2,0.3h0.1l0.2-0.2l-0.1-0.1L195.4,89.3z M179.5,55.3L179.5,55.3v-0.2l0,0h-0.1l-0.1,0.1v0.1l0,0L179.5,55.3z
	 M195.3,50.7l0.3-0.3h0.1l0.5-0.5v-0.1h-0.3l-0.3,0.1l-0.1,0.1l-0.3,0.2l-0.1,0.2l0.1,0.2L195.3,50.7z M196.6,52.4l-0.1-0.1
	l-0.1-0.1h-0.1l-0.1-0.1h-0.3l-0.4-0.4v-0.2l-0.1-0.2v-0.1l-0.2-0.1l-0.5,0.4v0.2l-0.4,0.5v0.1l-0.2,0.3L194,53l-0.1,0.3l-0.2,0.2
	l-0.3,0.1h-0.3l-0.1,0.1l-0.1-0.1h-0.1l-0.1,0.1h-0.3l-0.3,0.3l-0.4,0.2l-1,0.7h-0.1l-0.1,0.1h-0.2l-0.1-0.1h-0.4l-0.4-0.2l-0.3-0.2
	h-0.3l-0.4,0.3l-0.1-0.1l-0.5-0.1l-0.1-0.1l-0.6-0.1l-0.1-0.1h-0.4l-0.1-0.1h-0.2l-0.1-0.1l-0.3-0.3l-0.5-0.3l-0.1-0.1h-0.1
	l-0.7-0.8l-0.1-0.2L184,52v-0.1l-0.2-0.2l-0.2-0.4l-0.2-0.2V51l-0.1-0.1v-0.1l-0.3-0.2v-0.1l-0.8-0.8l-0.3-0.1l-0.3-0.1h-0.1
	l-0.2-0.1h-0.1l-0.2-0.2l-0.1-0.4l-0.3-0.2v-0.1l-0.2-0.2h-0.1L180,48l-0.1-0.1h-0.1l-0.3,0.5v0.2l0.1,0.1V49l-0.1,0.1v0.2l0.2,0.2
	v0.3l-0.1,0.1l0.1,0.3l-0.1,0.1l-0.4,0.7v0.2l-0.1,0.1v0.3l-0.1,0.1l-0.1,0.3l-0.1,0.4l-0.1,0.1l0.1,0.2l-0.1,0.1l-0.5,0.5v0.1
	l-0.2,0.1v0.1l0.1,0.2v0.5l0.1,0.1v0.5l0.1,0.2v0.3l-0.1,0.1h0.2l0.3-0.3h0.4l0.1-0.1v-0.7l0.1,0.1l-0.1,0.1v0.2l0.1,0.1V55l0.1,0.1
	v0.3l-0.2,0.1v0.2H179l-0.2-0.2h-0.2l-0.5,0.5v0.1l-0.1,0.3v0.2h0.1l0.1-0.3l0.2-0.2l0.2,0.1v0.1l-0.1,0.2v0.1l-0.3,0.4v0.1l0,0
	l-0.1-0.1H178v0.1l-0.1,0.1h-0.1l0,0v0.1h0.1l0.3,0.3l0.1,0.1l-0.1,0.1l0.2,0.1l0.5-0.4l0.3-0.1l0.5-0.1l0.4-0.1l0.5-0.1l0.1-0.1
	h0.8l0.1-0.2V57h0.1l0.1-0.1h0.3l0.2,0.2v0.1l0.2,0.1l0,0l-0.2-0.1l-0.1-0.1h-0.1L182,57h0v0.1l0.5,0.5h0.6l0.1,0.1v0.2l0.1,0.1h0.2
	l0.1-0.1h0.1l0.1,0.1l0.1,0.3v0.1l0.1,0.1h0.5l0.1-0.1l0.1-0.1l0.6,0.1l0.1-0.1l0.1,0.1l0.2-0.7l0.1-0.2l-0.2-0.1v-0.2h0.2l0.1,0.1
	l0,0l-0.1-0.4l0.1-0.2l0.4-0.4l0.4-0.1h0.2V56h0.1l0.1-0.1V56l-0.1,0.1l0.6,0.4l-0.1,0.4l0.2,0.2h0.1l0.5-0.4h0.1l0.1-0.1h0.1v0.2
	l0.1,0.1h0.2l0.1-0.1h0.1l0.4-0.4h0.2l0.1-0.1h0.3l0.1-0.1h0.3l0.1,0.2h0.2l0.3-0.1l0.1,0.1l0.1-0.1l0.3,0.2h0.1v0.1l0.1,0.1
	l-0.1,0.1l0.1,0.1h0.6l0.4-0.3l0.4-0.1l0.2-0.1l0.3-0.4l0.1-0.3l0.3-0.4v-0.1l0.1-0.1V55l0.3-0.4v-0.1l0.1-0.1l0.1-0.3l0.1-0.1
	l0.1-0.4l0.1-0.2h0.1l0.1,0.1h0.3l0.4-0.4h0.1l0.3-0.3l0.1,0.1l0.1-0.1l0.1-0.1L196.6,52.4L196.6,52.4L196.6,52.4z M196.5,51
	l-0.3-0.1l-0.1-0.1l-0.2,0.2v0.1l-0.2,0.3v0.2l0.2,0.3h0.1l0.1,0.1l0.5-0.2v-0.3l0.1-0.2L196.5,51z M172.1,61L172.1,61l-0.4,0.1
	l-0.1,0.1l-0.1-0.1l-0.1,0.1h-0.2l-0.1,0.1l-0.1-0.1h-0.3l-0.1-0.1l-0.3,0.1l-0.2,0.2l-0.1,0.2l-0.1,0.1l-0.4,0.1l-0.1,0.1H169
	l-0.3,0.2v0.2l-0.3,0.7v0.4l0.1,0.1v0.3l-0.1,0.1v0.8l-0.1,0.1l-0.1,0.8l-0.1,0.3l-0.1,0.6l-0.2,0.4l-0.1,0.3l-0.4,0.6V68l-0.1,0.1
	v0.2l-0.1,0.1v0.1l0.1,0.1h0.2l0.2-0.1h0.3l0.3-0.1l0.1-0.1h0.2l0.1-0.1l0.2-0.2h0.1l0.1-0.2h0.1l1-1l0.2-1.1l0.1-0.1V65l0.1-0.1
	v-0.6l0.1-0.1V64l0.1-0.1v-0.2l0.1-0.1l0.1-0.5l0.3-0.6l0.1-0.6l0.2-0.5l0.2-0.2l0.2-0.1l0.1,0.1l0.3-0.2l0.1,0.1l0.2-0.1v-0.1
	L172.1,61L172.1,61z M185.6,58.7L185.6,58.7L185.6,58.7l0.1,0.2h0.1l0,0v-0.1L185.6,58.7L185.6,58.7z M196.2,50.6l0.5,0.4h0.2
	l0.2-0.3v-0.1L196.2,50.6L196.2,50.6z M283.5,83.4h-0.2l-0.1,0.1l-0.1,0.2l0.1,0.1l0.1-0.1L283.5,83.4L283.5,83.4z M247.8,71.4
	L247.8,71.4l-0.2-0.3h-0.1l-0.1,0.1v0.2l0.1,0.3L247.8,71.4z M248.6,71.2V71l-0.2-0.3l-0.5,0.1l-0.1,0.3l0.1,0.2l0.1,0.1v0.2
	l0.1,0.1v0.4v0.1l0.1,0.3h0.2v-0.2l0.2,0.1l0.1-0.1v-0.1V72v-0.1l0.1-0.4L248.6,71.2z M251.2,70H251l-0.2-0.1l-0.1,0.1v0.1l-0.1,0.1
	l0.2,0.4V71l0.2,0.2l0.1-0.1l0.1-0.9l0.1-0.1V70H251.2z M250.4,72.7l0.2-0.1l-0.1-0.1h-0.2l-0.1,0.1l0.1,0.1H250.4z M242,96.7
	L242,96.7V97l0.2,0.2h0.2l0.1-0.1v-0.2L242,96.7z M251,78.2v-0.4v-0.5l-0.2-0.6l0.1-0.1l0.1-0.4l-0.1-0.1v-0.4l-0.1-0.2v-0.7
	l0.1-0.4l0.2-0.3l-0.1-0.2v-0.6v-0.4l-0.1-0.1v-0.4h-0.3l-0.5,0.4l0.1,0.1l0.4-0.2l-0.4,0.5l-0.1,0.2l-0.1,0.1l0.1,0.1v0.1l-0.1,0.1
	h-0.2l-0.1,0.1v0.3l-0.2,0.2v0.1l0.2,0.1l-0.1,0.2V75l0.2,0.1l0.4,0.1l0.1,0.2l-0.2,0.3l0.1,0.7v0.5l-0.1,0.3h-0.3l-0.2-0.2v-0.5
	l-0.1-0.2l-0.2-0.1h-0.1l-0.2,0.3h-0.2l-0.1,0.1l-0.2-0.1h-0.3l-0.3-0.3l-0.4-0.2h-0.1v0.3l-0.2,0.3l-0.4,0.2v0.1l-0.3,0.3l-0.1,0.5
	l0.1,0.1V78l0.1,0.1l0.1,0.2l0.3,0.2l0.1,0.1v0.2l0.5,0.6l0.2,0.2l0.4,0.1l0.2-0.3l0.3-0.1l0.2-0.1h0.3v0.2h0.2l0.1,0.1l0.2-0.1
	l0.1-0.1h0.1l0.1-0.1l0.1,0.1l0.1-0.1h0.2l0.4-0.8L251,78.2l-0.1-0.1v-0.2L251,78.2z M247.8,80.1L247.8,80.1v0.2h0.1v-0.1
	L247.8,80.1L247.8,80.1z M243.2,68.1l-0.3-0.1l-0.2,0.1l0.2,0.2l0.2,0.1l0.2-0.1L243.2,68.1z M243.5,79.9l-0.3,0.2l0.2,0.2l0.2-0.2
	L243.5,79.9L243.5,79.9z M247.2,80.1L247.2,80.1l-0.6,0.1l-0.8,0.8l-0.4,0.2l-0.2,0.2H245l-0.1,0.1l0.1,0.1v0.2l-0.2,0.3l-0.4,0.3
	v0.2l0.1,0.1h0.2l0.4-0.2l0.5-0.6l0.3-0.4v-0.1l0.4-0.4v-0.1l0.5-0.4l0.6-0.1l0.1-0.1l-0.1-0.1L247.2,80.1L247.2,80.1z M251.1,72.3
	V72v-0.4l-0.1-0.1h-0.1l-0.2,0.5l-0.2,0.1v0.2L251.1,72.3L251.1,72.3z M283.8,84h-0.1v-0.1l-0.1,0.2l0.1,0.1h0.2h0.1L283.8,84z
	 M282.6,89.1L282.6,89.1l-0.2-0.1l-0.1,0.1v0.2l0.1,0.2l0.1,0.1h0.2v-0.1l-0.1-0.2V89.1z M285,86.2l-0.8-0.5l-0.2-0.2l-0.2-0.1
	l-0.1,0.1v0.1L284,86l0.5,0.2l0.2,0.2h0.3L285,86.2z M282,83.5v-0.3l0.1-0.1l-0.1-0.3v-0.2l0.1-0.1l-0.1-0.1l-0.1-0.4v-0.3l-0.1-0.3
	l0.1-0.8l-0.1-0.1V80l0.1-0.1v-0.2l0.1-0.1V79l-0.1-0.1v-0.6v-0.6l-0.1-0.1h-0.1l-0.2,0.1l-0.4,0.4l-0.3,0.1l-0.4,0.4l-0.2,0.5v0.3
	l-0.1,0.1v0.8l0.1,0.2l-0.1,0.3l0.1,0.5l0.1,0.1V82l-0.2,0.4l-0.4,0.9l0.1,0.3l0.3,0.7l0.2,0.3l0.3,0.8l0.2,0.1l0.1-0.2l0.1-0.2
	l0.7-0.3l0.4-0.4l0.1-0.2v-0.4l-0.4-0.2h0.2L282,83.5z M285.8,91.4l-0.1-0.2l-0.1-0.2l0.1-0.2l-0.1-0.2l-0.1,0.1h-0.4L285,91
	l0.2,0.3l0.5,0.5h0.1v-0.1V91.4z M271.9,103.9l-0.1,0.1l0.1,0.2h0.1l0.1-0.1V104v-0.1H271.9z M271.9,105.4v-0.9l0.1-0.2l-0.1-0.1
	l-0.1-0.3v-0.2l-0.1-0.1h-0.1l-0.1,0.1v0.3l0.1,0.1v0.5l-0.1,0.1v0.5l0.4,0.4l0.1-0.1L271.9,105.4L271.9,105.4z M253.8,61.9
	l-0.1-0.4l-0.5-0.7l-0.3-1.1l-0.2,0.1l-0.2,0.4H252l-0.3-0.1l-0.1,0.1h-0.3l-0.2-0.1h-0.3l-0.2,0.1l-0.1-0.1L250,60l-0.6-0.2
	l-0.1-0.1l-0.2-0.1l-0.1,0.1V60h-0.6l-0.1-0.1h-0.2l-0.1-0.1l-0.3-0.3l-0.3-0.1l-0.3-0.1l-0.4-0.3l-0.3-0.1l-0.1-0.1l-0.5-0.3
	l-0.4-0.3l-0.1-0.1H245l-0.4-0.3l-0.3-0.1l-0.4-0.5l-0.2-0.4l-0.2-0.1l-0.1,0.1l-0.1,0.2h-0.2l-0.1,0.1h-0.2l-0.2,0.1l-0.1,0.1h-0.1
	l-0.1,0.3v0.3l0.1,0.1l0.2-0.2v0.1l-0.4,0.2h-0.1v0.2l-0.2,0.2l-0.2-0.1h-0.4l-0.1-0.2l0,0l0.4,0.1l0.1-0.2h0.3V58v-0.2l-0.1-0.3
	l-0.3-0.3l-0.1-0.3l-0.1-0.1l-0.1-0.2l0.1-0.3l-0.2-0.4v-0.1l-0.2-0.1l-0.3,0.1l0.1,0.2v0.1l-0.1,0.1l0.1,0.1l-0.1,0.1h-0.2h-0.3
	l-0.1-0.1h-0.4l0.1,0.2l-0.1,0.1l0.1,0.2l-0.2,0.1v0.4l0.1,0.1l0.2-0.1l0.1,0.1l0.2-0.1l0.3,0.1l-0.1,0.1h-0.6l-0.1,0.1l0.1,0.1h0.4
	l-0.1,0.1L240,58l0.1,0.2l0.1,0.1v0.3l-0.2,0.5l0.1,0.3v0.4l0.1,0.1v0.6l0.3,0.2h-0.3l-0.1,0.1l0.1,0.2l0.2,0.1l-0.1,0.2v0.2
	l-0.2-0.3l-0.2-0.1l-0.2-0.1h-0.2l-0.3,0.1H239l-0.1,0.1l0.1,0.2v0.1h-0.3l-0.1-0.1h-0.1l-0.1,0.1l-0.2,0.2v0.1l0.4,0.1l0.1,0.1h0.3
	h-0.1h-0.4l-0.1,0.1l0.1,0.2l-0.4,0.1l-0.1-0.1h-0.1l-0.3,0.2l-0.4,0.1l-0.2,0.2l-0.1,0.1L237,63l0.3,0.2h0.3l-0.1,0.1h-0.1
	l-0.2,0.1v0.1l0.6,0.4l0.2,0.5h0.3l0.4-0.2l0.2-0.3h0.3l0.1,0.1h0.2l0.3-0.2L240,64h0.1l0.2-0.1l0.1-0.1v-0.2l0.1-0.2v-0.2l0.2-0.3
	l0.3-0.1l0.2,0.1l0.1,0.3l0.3,0.3v0.2l0.2,0.1L242,64l0.3,0.3l0.1,0.4l0.1,0.1l-0.1,0.3l0.1,0.2h0.5l0.2-0.1l0.4,0.1l0.2-0.1
	l0.2,0.2h0.8l-0.1,0.2l0.2,0.1l-0.2,0.2l-0.1,0.3v0.1l0.1,0.1h0.5l0.1,0.1l0.7,0.2l0.3,0.3v0.1l-0.2-0.1H246l-0.3-0.2H245l-0.5,0.4
	l0,0l0.1,0.1h0.2l0.2,0.1l0.1-0.1h0.2v0.1h-0.2l-0.2,0.1h-0.2l-0.1,0.4l0.1,0.1h0.2l0.5-0.4l0.2-0.1h0.1l-0.1,0.1h-0.2l-0.2,0.2
	l-0.5,0.5l0.1,0.1h0.2h-0.1h-0.4l-0.1-0.1h-0.1l-0.1,0.1l-0.3,0.1l-0.2,0.2V69l0.1,0.1l-0.2,0.2v0.1l0.1,0.1v0.3l0.2,0.1h0.4
	l0.3-0.1v0.1l-0.2,0.1h-0.3v0.1l0.1,0.1l-0.2,0.2l0.1,0.1h0.5l0.2,0.1v0.1l-0.1,0.1l0.2,0.2h0.2l0.1-0.1h1l0.2-0.1l0.1,0.1h0.1v0.3
	l0.2,0.2h0.2l0.2-0.1l0.2-0.1l0.2-0.1h0.2l0.5-0.2l0.7-0.1l0.2-0.2l0.2-0.2l0.3-0.6l0.2-0.1v-0.4l0.1-0.1V69l0.2-0.2l-0.1-0.3h0.2
	l0.1,0.1h0.2l0.1-0.1l0.1-0.2l0.1-0.1l0.2-0.2l0.2-0.2l0.4-0.7v0.7l0.2,0.5l-0.2-0.1l-0.1-0.2h-0.1l-0.2,0.3l-0.3,0.2l-0.2,0.3
	l0.1,0.2h-0.3l-0.3,0.2l-0.1,0.4l0.1,0.1h0.2l0.6-0.2l0.2-0.2V69v0.4l-0.2,0.2v0.1v0.2l0.4,0.3l0.4,0.2l0.2-0.2v-0.5l0.1-0.1v-1.3
	l0.1-0.1l-0.1-0.3l0.1-0.2v-0.2l0.3-0.7l-0.2-0.3l0.2,0.2h0.1l0.3-0.3l0.6-0.1l0.2-0.2v-0.2l0.1-0.2v-0.3l0.1-0.1v-0.5l-0.1-0.7
	l-0.1-0.1v-0.3l-0.1-0.1v-0.4l0.1-0.6L253.8,61.9z M276.6,92.1l-0.1,0.1H276l-0.5,0.1l-0.1,0.1h-0.2l-0.2-0.1h-0.2l-0.1,0.1
	l-0.1,0.8l-0.1,0.1v0.1l-0.1,0.1l-0.1,0.2v0.1l0.1,0.1l-0.1,0.2l-0.1,0.5l-0.1,0.4l-0.1,0.6v0.1h0.2l0.2-0.4l0.4-0.2v-0.3l0.3-0.2
	v-0.2H275l-0.1,0.1l0,0l0.1-0.1l0.1-0.1h0.3l0.2-0.1l0.2-0.2v-0.2l0.3-0.3l0.1-0.3l0.4-0.1l0.1-0.2h0.2l0.1-0.1v-0.1l0.5-0.5
	l-0.1-0.1H276.6z M280.4,89.8l-0.3,0.2h-0.4l-0.4,0.1l-0.4,0.5v0.2l0.1,0.1h0.6l0.1-0.1h0.1l0.2-0.2l0.3-0.1l0.3-0.3h0.1l0.1-0.2
	l-0.1-0.2H280.4z M241.2,101.8h-0.1l-0.1,0.1l0,0l0.2,0.1h0.1l0.1-0.1L241.2,101.8L241.2,101.8z M234.6,105.9l-0.2,0.2v0.1l0.1,0.1
	h0.3l0.1-0.1V106l-0.2-0.1H234.6z M233.7,107.6l-0.1,0.4l0.1,0.1h0.2V108l0.1-0.4l-0.2-0.1L233.7,107.6z M235.5,106.2h-0.2l-0.1,0.1
	v0.2l0.1,0.1h0.2v-0.1V106.2L235.5,106.2z M236,106h-0.2l-0.1,0.1v0.2l0.1,0.1l0.1,0.1l0.2-0.1L236,106L236,106z M236.8,106.1
	l-0.2,0.3l0.2,0.3h0.3l0.2-0.5l-0.2-0.2L236.8,106.1z M236.3,95.1h-0.6l-0.1,0.1H235l-0.2,0.1v0.2h0.2l0.1,0.2h0.2l0.2-0.1h0.3
	l-0.7,0.3l-0.3,0.3h-0.2l-0.1,0.1h-0.4l-0.1,0.1h-0.1l-0.2-0.1h-0.2v0.1l0.1,0.2l-0.2-0.1h-0.2v0.3v0.1l0.1,0.1h0.3l0.3,0.1h0.1
	l0.2-0.2l0.2-0.3l0.6-0.2l0.7-0.4h0.2l0.3-0.3h0.1l0.3-0.1v-0.1l-0.1-0.2L236.3,95.1z M234.6,96.1l0.1-0.2h0.1l0.1-0.1l-0.1-0.1
	h-0.2l-0.2,0.3h-0.1l-0.2,0.2h0.2L234.6,96.1z M233.5,95.7L233.5,95.7l-0.2-0.2l-0.1,0.1h-0.3l-0.1,0.1l-0.1,0.1l-0.3,0.1l-0.2,0.1
	l0.1,0.3l0.5,0.2l0.3-0.2l-0.1-0.1l0.1-0.2l0.2-0.1L233.5,95.7L233.5,95.7z M233.5,95.8v0.3h0.1h0.2l0.1-0.1l0.1-0.2v-0.1h-0.2
	L233.5,95.8z M233,96.6l-0.1,0.1v0.1v0.1h0.2l0.1-0.1L233,96.6L233,96.6z M239.3,82.3l0.2-0.2l-0.1-0.1H239l-0.4,0.2l-0.1,0.1v0.1
	h0.6L239.3,82.3z M240.5,95.7l-0.1,0.2l0.1,0.1h0.2l0.1-0.1l-0.2-0.2H240.5z M239.8,81.8l-0.2,0.1l-0.1,0.1l0.1,0.1l0.1-0.1h0.3
	l0.2-0.1v-0.1l-0.1-0.1L239.8,81.8z M240.6,90.4l0.2-0.5v-0.1l-0.1-0.1l-0.2,0.2l-0.1,0.3v0.1l0.1,0.1H240.6z M234.6,95.3l-0.2-0.2
	H234l-0.1,0.1l-0.4,0.1l-0.1,0.1l0.3,0.1l0.5-0.1L234.6,95.3z M241.1,90.7l-0.2-0.2l-0.1,0.1v0.1l0.2,0.1L241.1,90.7L241.1,90.7z
	 M241.4,100h-0.2l-0.1,0.2v0.1l0.1,0.1h0.2l0.1-0.1L241.4,100L241.4,100z M239.1,105.1l-0.2-0.1l-0.3,0.3l-0.1,0.4l0.1,0.2h0.2
	l0.3-0.2l0.1-0.2v-0.1L239.1,105.1z M237.2,64.5l-0.1,0.1l-0.1,0.1l-0.5,0.1v0.3l0.2,0.2h0.2l0.2,0.1l0.2-0.1l0.2-0.2l0.1-0.3v-0.3
	L237.2,64.5z M239.6,103.8l-0.2,0.2v0.1l0.1,0.1l0.2,0.1l0.2-0.1V104l-0.1-0.2H239.6z M240,94.1L240,94.1l-0.1-0.3l-0.3-0.1
	l-0.3-0.4l-0.2,0.1l0.1,0.3l0.1,0.1l-0.1,0.1v0.2l0.1,0.2l-0.2,0.4V95l-0.1,0.2l-0.2,0.2l-0.4,0.2l-0.1,0.1l0.1,0.3l0.1,0.1l0.4-0.2
	v0.4l-0.1,0.1V97l0.1,0.2l0.1,0.1h0.2l0.1-0.3l0.4-0.9L240,96v-0.2l-0.1-0.1v-0.1l-0.2-0.4v-0.8l0.1-0.2L240,94.1z"/>
<path class="st10" d="M221.8,270.2v0.1h0.1h0.1v-0.1v-0.1l-0.1-0.1L221.8,270.2L221.8,270.2z M221.9,276.5h-0.4l-0.4,0.2v0.2
	l0.4,0.1l0.1-0.1h0.6l0.1-0.1h0.3l0.2-0.3l-0.8-0.1L221.9,276.5z M249,282.8l-0.2,0.2v0.1v0.1h0.2v-0.1v-0.2V282.8L249,282.8z
	 M226.2,276.6l-0.3-0.2h-0.2l-0.1-0.1H225l-0.1,0.1h-0.2l-0.3-0.3l-0.1,0.1l-0.4,0.1l-0.2,0.2l0.1,0.1v0.2l0.7,0.5l0.3-0.2v-0.2h0.7
	l0.1,0.1h0.4l0.4,0.2h0.2l0.2-0.3h0.4l0.2-0.2l-0.2-0.2L226.2,276.6z M231.3,283.7l-0.1,0.2l0.1,0.1h0.3h0.1v-0.1l-0.1-0.1
	L231.3,283.7z M220.2,276.6l-0.1-0.1h-0.4l-0.2,0.2l0.1,0.2h0.3l0.1,0.1l0.2-0.1l0.1,0.1h0.5v-0.2l-0.5-0.3L220.2,276.6z
	 M221.2,271.2l0.2-0.2l0.4-0.1v-0.2l-0.2-0.4l0.2-0.3l0.3-0.1l0.2-0.2v-0.1l-0.3-0.2h-0.2l-0.1,0.1h-0.6l-0.1,0.2l0.2,0.1v0.3
	l-0.6,0.2l-0.2,0.2l0.3,0.3h0.2l0.1-0.1l0.1,0.3l-0.1,0.2L221.2,271.2z M219.9,268.8L219.9,268.8l0.1-0.5l-0.1-0.1h-0.3l-0.1,0.2
	l-0.1,0.1l0.1,0.1h0.2L219.9,268.8z M220.8,269.5l0.1-0.2h0.3l0.2-0.3v-0.3l-1-0.2l-0.1,0.4l0.2,0.1v0.4L220.8,269.5z M247.1,276.6
	L247.1,276.6v0.1h0.1l0.1-0.1l0,0H247.1z M230.9,282.6l-0.3,0.4v0.3l0.4,0.3h0.6l0.1-0.5l-0.6-0.5L230.9,282.6z M241.4,279.7h-0.1
	l-0.1,0.1v0.2l0.1,0.1h0.1l0.1-0.1L241.4,279.7L241.4,279.7z M247.5,276.2h-0.1l-0.1,0.1l0.2,0.2l0,0L247.5,276.2L247.5,276.2z
	 M247.8,276.4L247.8,276.4l-0.1,0.2h0.1l0.2-0.2l-0.1-0.1L247.8,276.4z M219.2,268.3L219.2,268.3l-0.3-0.1l-0.1,0.1v0.1l0.1,0.1h0.1
	L219.2,268.3z M232.4,282.1l-0.3-0.2v-0.4l-0.3-0.5v-0.2h-0.2l-0.4-0.5l-0.4,0.3v0.2l-0.2,0.2h-0.3l-0.2,0.2v0.3l0.4,0.5l0.4,0.6
	l0.4,0.1l0.3,0.2h0.7l0.2-0.3l-0.2-0.2L232.4,282.1z M239.5,279.4h-0.1l-0.5-0.5l-0.2-0.1l-0.2,0.1l-0.1,0.4l0.3,0.4l-0.1,0.1v0.3
	h0.5l0.2,0.2h0.4V280l-0.3-0.3L239.5,279.4z M238.1,278.3L238.1,278.3l-0.1,0.2l0.1,0.1h0.2l0.1-0.1l-0.2-0.2H238.1z M239.7,281.3
	l0.1-0.1l-0.4-0.4h-0.3l-0.1,0.1l-0.4,0.1v0.2l0.4,0.3v0.2l0.2,0.1v0.2l0.3,0.2l0.3-0.1v-0.4l-0.1-0.1V281.3z M223.4,273.7
	L223.4,273.7l-0.3,0.2l0.2,0.2l0.2-0.2L223.4,273.7L223.4,273.7z M217.7,273.5l-0.2-0.2h-0.3l-0.2-0.2l0.3-0.2h0.4v-0.6l-0.3-0.1
	l-0.3-0.7h-0.2l-0.4,0.3h-0.2v-0.3l0.5-0.2V271l-0.2-0.2h-0.2l-0.1-0.1h-0.2v0.2l-0.2,0.2l-0.1-0.1l0.1-0.1v-0.2l-0.2-0.1l-0.2-0.3
	h-0.4l-0.1,0.4l0.1,0.2l-0.6,0.2l-0.2,0.4l-0.1-0.1h-0.4l-0.2-0.2V271l-0.1-0.1l0.1-0.1v-0.4l-0.2-0.2l-0.2,0.1v0.2l-0.1,0.1v0.6
	l0.1,0.1v0.3h-0.3l-0.1-0.2l0.1-0.1l-0.1-0.3H212l-0.6,0.4l-0.4,0.4h0l-0.7-0.6l-0.4-0.2l-0.4-0.2l-0.2-0.2H209l-0.1,0.4l-0.2,0.2
	l-0.2-0.1l-0.2,0.2l-0.1-0.3l0.1-0.1H208l-0.2,0.4h-0.2v-0.4l0.1-0.1l-0.1-0.8h-0.3v0.2l-0.3,0.2l-0.1-0.2h-0.3l-0.1-0.2h-0.3
	l-0.2,0.2h-0.2h-0.1l0.1-0.1v-0.2l-0.4-0.3v-0.4l-0.1-0.2h-0.1l-0.3,0.4v0.4l0.2,0.3v0.5h-0.3l-0.1,0.3l0.2,0.2l0.1,0.3l-0.5,0.2
	v0.4l0.2,0.1v0.4l0.1,0.1l-0.1,0.1l0.1,0.2l0.5,0.1l0.5,0.6l0.5,0.2l0.1,0.4l0.3,0.4v0.2l-0.2,0.2h-0.2l-0.1-0.2l-0.2-0.1l-0.1-0.4
	l-0.4-0.2l-0.5,0.3v0.5l0.3,0.3l-0.1,0.2l-0.1,0.1v0.3l-0.2,0.2l-0.3-0.1v-0.5l-0.4,0.2l-0.3,0.3h-0.1v0.1l0.2-0.1v-0.2l-0.3-0.1
	l0.3-0.3l-0.2-0.2l-0.2,0.1l-0.1-0.1v-0.2l0.3-0.1l0.2-0.2v-0.1l-0.2-0.2l0.1-0.1V274l0.1,0l-0.4,0.6l-0.4,0.4l-0.1-0.1l-0.1-0.2
	h-0.2l-0.1,0.1l-0.3-0.3l-0.5-0.1l0.1-0.2v-0.3l-0.1-0.1l0.5-0.6V273H202l-0.2-0.2l-0.3-0.1L201,273v0.5l-0.2,0.3l-0.4-0.5l-0.2,0.1
	l0.1,0.8l-0.2,0.1v0.5l0.3,0.3h0.4l0.1-0.1h0.3l-0.1,0.3h0.3l0.1,0.2h0.4l0.1-0.3h0.3l0.3,0.5l0.5,0.1l0.3,0.3l0.1,0.4l0.6,0.5
	l0.9,0.1l0.1-0.1h0.3l0.1,0.1l0.2-0.2l0.2,0.2v0.3l0.7,0.4l0.8-0.1l0.1,0.1h0.2l0.2-0.2v-0.4h0.3l0.3,0.2l0.1-0.1h1.1l0.2,0.2
	l-0.5,0.2l-0.2,0.2v0.2l0.4,0.3h0.4l0.1,0.1l0.6,0.1l0.1-0.1h0.7l0.2-0.3l-0.3-0.4l-0.2-0.1h-0.4l-0.2-0.2l0.1-0.6l-0.1-0.2l0.2-0.2
	l0.4,0.2l0.8-0.8h0.7l0.1,0.2h0.2l0.1,0.1h0.5v-0.3l0.2-0.2l0.4-0.1l0.1,0.1h0.4v-0.4l-0.1-0.2l0.2-0.2h0.4l0.3,0.2v0.6l0.3,0.1
	l0.4-0.5L216,275l0.2-0.2v-0.2l-0.2-0.1l0.2-0.2l0.5-0.2l0.3-0.3h0.2l0.3-0.2v-0.1H217.7z M218.8,273.1v-0.4l-0.2-0.1v0.1v0.3
	L218.8,273.1L218.8,273.1z M217,275.6h-0.2l-0.1,0.1v0.3l0.1,0.1h0.3h0.1v-0.2L217,275.6z M212.4,276.2L212.4,276.2l-0.3-0.1
	l-0.2,0.2l0.1,0.1h0.2L212.4,276.2z M216.3,276L216.3,276l-0.1,0.2h0.1h0.2l0.1-0.1V276v-0.1h-0.3V276z M181.6,239v-0.1l-0.3-0.2
	H181l-0.1-0.1l-0.2,0.1v0.2l0.2,0.1h0.3l0.1,0.1L181.6,239z M250.6,236.1V236l0.3-0.3v-0.4l-0.1-0.1v-0.3l-0.2-0.3v-0.5l-0.3,0.1
	v0.2l-0.1,0.1v0.6l-0.1,0.1v0.8l0.2,0.2h0.2L250.6,236.1z M212.2,277.8l-0.3,0.3l0.2,0.2l0.3,0.1l0.2-0.1l0.2-0.3l-0.5-0.1
	L212.2,277.8z M181.1,239.2L181.1,239.2l-0.2-0.1h-0.1v0.2l0.1,0.1h0.1L181.1,239.2L181.1,239.2z M214.1,276.1L214.1,276.1l-0.1,0.2
	l0,0L214.1,276.1l0.1-0.1h-0.1V276.1z M212.8,271l-0.2-0.2h-0.1l-0.2,0.2v0.1L212.8,271L212.8,271z M218,277.7h-0.3l-0.2,0.1
	l-0.1,0.2h0.2l0.1-0.1h0.6l0.1-0.1h0.3l0.1-0.2l-0.7-0.1L218,277.7z M218.7,276.6l-0.3,0.2h-0.3l-0.1-0.1l-0.2,0.2l-0.4,0.2v0.2
	l0.2,0.2h0.4l0.3-0.2l0.1,0.1l0.3-0.2h0.6l0.1-0.3l-0.3-0.3L218.7,276.6z M211.2,277L211.2,277v-0.1h-0.1L211,277h0.1H211.2z
	 M255.1,245.6L255.1,245.6h0.3h0.1v-0.2l-0.1-0.1h-0.3v0.1l0.1,0.1L255.1,245.6z M210.9,276.7L210.9,276.7v0.1h0.1v-0.1v-0.1h-0.1
	V276.7z M253.2,241v-0.1H253l-0.2-0.2h-0.1h-0.1v0.3v0.1h0.2l0.1,0.1L253.2,241z M203.5,271.6v0.1v0.1h0.2l0.1-0.1v-0.1l-0.1-0.1
	L203.5,271.6L203.5,271.6z M204.1,271.2l-0.4-0.3h-0.1l-0.2,0.2v0.1l0.2,0.2h0.3L204.1,271.2z M239.6,278.6L239.6,278.6l-0.1-0.2
	h-0.1l-0.1,0.1v0.1v0.1L239.6,278.6z M235,277.6L235,277.6h0.1v-0.1H235h-0.1L235,277.6z M242.1,271.3h0.2v-0.1V271l-0.1-0.1h-0.1
	l-0.2,0.2L242.1,271.3L242.1,271.3z M234.5,277.3L234.5,277.3h0.2l0.1-0.1l-0.1-0.1L234.5,277.3L234.5,277.3z M234.3,273.3v0.1
	l0.1,0.1h0.1l0.1-0.1L234.3,273.3L234.3,273.3z M235.6,271.1L235.6,271.1v-0.2l-0.1-0.1h-0.1l0,0v0.1l0.1,0.1L235.6,271.1z
	 M230.2,270.3H230l-0.1,0.2l-0.2,0.2l-0.1-0.1h-0.2l-0.1,0.1h-0.4l-0.2-0.2v-0.3h-0.3l-0.1-0.1l-0.4-0.1l-0.3-0.3l-0.1-0.4l-0.6,0.2
	v0.2l0.1,0.1v0.5l0.2,0.1v0.2l0.2,0.2h0.3l0.1,0.2l0.1,0.1l-0.1,0.1h-0.6l-0.5,0.3h-0.4l-0.3,0.2l-0.1-0.1l0.1-0.2l-0.3-0.3h-0.2
	l-0.3,0.2h-0.3l-0.1,0.1h-0.3l-0.3-0.4l-0.4-0.1l-0.4-0.4h-0.1l-0.2,0.2v0.2l0.1,0.1v0.3h-0.4l-0.2-0.2l-0.5,0.1l0.3,0.5l0.6,0.4
	l-0.3,0.2h-0.8l-0.2,0.2l0.2,0.3h0.9l0.5-0.3l0.4,0.1l0.4-0.2h0.2l-0.6,0.3l-0.5,0.4v0.3l0.3,0.3v0.1l0.5,0.2l0,0l0.1,0.3l0.7-0.1
	v0.2l0.8,0.6h0.2l0.3,0.2l-0.4,0.3h-0.2v0.2h0.5l0.1,0.1h0.3l0.1,0.1h0.3l0.2,0.1l0.1-0.1l0.5,0.1l0.1,0.3h0.2l0.1,0.1h0.8l0.1,0.8
	l0.3,0.2h0.2l0.2-0.2h0.1l0.1-0.1l0.2,0.3l0.5,0.2h0.3l0.1,0.1h0.6l0.1,0.1h0.3l0.6,0.5h0.2l0.5,0.6h0.3l0.3,0.2h0.2l0.8,0.8
	l0.4-0.1l-0.1-0.2l-1.2-1.2l-0.3-0.1l-0.7-0.6v-0.3l0.5-0.5h0.5l0.6,0.4l0.5,0.2l0.2,0.2v0.4l0.7,0.3l0.3,0.4l0.3,0.3h0.2v-0.9h0.6
	l0.3,0.2l0.1-0.2h0.1l0.1,0.1h0.3l0.1-0.1h0.4l0.4,0.2h0.9l0.1,0.1h0.3l0.1-0.1h0.7l0.2,0.1l0.2-0.4l0.1-0.7l0.1-0.2l0.2-0.1
	l0.5,0.5l0.1,0.1h0.3l0.3,0.2l0.2-0.2l-0.1-0.2v-0.3l0.2-0.1h0.4l0.1-0.1h0.6l0.1-0.1h0.2l0.5,0.2l0.1-0.1h0.3l0.1-0.1h0.5v-0.4
	l0.2-0.2V276l0.5-0.2l0.1,0.1l-0.1,0.2l0.4,0.1l0.2-0.2v-0.2l-0.7-0.7l-0.6-0.2l-0.3-0.3v-0.1l-0.2-0.2h-0.4l-0.2-0.1l-0.3,0.2
	l-0.1,0.2h-0.3l-0.1,0.1l-1.1-0.1l-0.3,0.2h-0.2l-0.3,0.2h-0.2l-0.7,0.5h-0.5l-0.2-0.2h-0.1l-0.4-0.4l-0.5-0.1l-0.3-0.3l-0.2-0.6
	l-0.2-0.1l-0.3-0.5l-0.1-0.6l-0.3,0.1l-0.3,0.5v0.3h-0.2l-0.3-0.3l0.1-0.2v-0.3l0.1-0.1v-0.3l-0.2-0.3l-0.3,0.1l-0.1,1v-0.3
	l-0.3-0.4h-0.4l-0.2,0.2v0.3l0.1,0.1l-0.2,0.2h-0.1l-0.4,0.5h-0.4l-0.3-0.4h-0.4l-0.1,0.6l-0.3,0.2h-0.5l-0.2,0.1l-0.2-0.2l-0.3,0.1
	l-0.4-0.2h-0.3l-0.2-0.3l0.2-0.4l0.2-0.1l0.2-0.3l-0.2-0.6l-0.1-0.1v-0.4l0.1-0.1h-0.1h-0.4l-0.6-0.3l-0.2-0.2l-0.3-0.1l-0.4-0.2
	l-0.1-0.3h-0.2l-0.1-0.1l-0.2,0.1L230.2,270.3z M235.4,271.9l0.2,0.2l-0.1,0.1v0.2l0.5,0.5h0.1l0.2-0.3l0.6-0.4l0.1-0.2h0.1l0.6-0.5
	l0.1-0.2l-0.2-0.1v-0.1l0.4-0.1l0.2-0.4l-0.3-0.1l-0.2-0.2l0.2-0.1V270l0.1-0.1l-0.3-0.3h-0.4L237,270v0.4l-0.1,0.1v0.3l-0.1,0.1
	v0.3l-0.1,0.1v0.3h-0.6l-0.1,0.1l-0.2-0.2l-0.1-0.3h-0.3l-0.1,0.4l0.1,0.1L235.4,271.9z M234.6,273.9L234.6,273.9l0.1-0.2v-0.1h-0.1
	v0.1v0.1l0.1,0.1H234.6z M234.4,271.9L234.4,271.9v-0.1h-0.2h-0.1l0.1,0.1H234.4z M234.6,273v0.5l0.3,0.2l0.1,0.1l0.3-0.2v-0.4
	L235,273v-0.4l-0.5-0.6h-0.2l-0.3,0.3l-0.1,0.2l0.4,0.5H234.6z M234.8,277.5L234.8,277.5h0.1v-0.1l-0.1-0.1l-0.1,0.1v0.1H234.8z
	 M229.5,266.5l0.3-0.2h0.3V266l-0.2-0.1v-0.2h-0.3l-0.2,0.2l-0.3,0.1v0.3l0.2,0.2H229.5z M229,266.1v-0.3l-0.2-0.2h-0.2l-0.3,0.3
	v0.1l0.1,0.1H229z M250.1,282.2L250.1,282.2l-0.1-0.1l-0.1,0.1v0.1v0.1h0.1l0.1-0.1V282.2z M226.9,270l0.1,0.1l0.1-0.2l-0.2-0.2
	h-0.1l-0.1-0.1h-0.1l-0.1,0.1v0.1l0.2,0.2H226.9z M226.3,271.1L226.3,271.1l0.1-0.2l-0.1-0.1h-0.1L226,271l0.1,0.1H226.3z
	 M225.5,269.9v0.1l0.6,0.1l0.2,0.1l0.1-0.3l-0.6-0.2L225.5,269.9z M226,270.7h-0.2l0,0v0.1l0.1,0.1h0.2l0.1-0.1L226,270.7L226,270.7
	z M226.4,271.3l0.3,0.1l0.4-0.2l0.1-0.2l-0.2-0.2v-0.5l-0.4-0.2l-0.1,0.3l0.1,0.1v0.5L226.4,271.3z M225.3,270.9L225.3,270.9h0.3
	l0,0v-0.1v-0.1h-0.1L225.3,270.9z M190.9,244.2h0.4l0.3,0.3h0.2l0.1-0.1h0.4l0.3,0.2h0.2l0.2-0.2l0.5-0.1l0.3-0.2h0.7l0.2,0.1
	l0.3-0.2l0.1-0.2h0.6l0.6,0.5l0.1,0.3h0.6l0.3-0.2l1.3,0.1l0.1,0.1l0.3-0.2h0.3l0.1,0.1l0.2-0.1h0.7l0.3,0.3h0.8l0.2,0.3h0.1
	l0.5-0.4l0.1-0.2h0.3l0.1,0.1h1.3l0.2-0.2h0.2l0.1,0.1h0.5l0.3-0.2l0.2-0.3v-0.2l0.3-0.2l0.1,0.1h0.4l0.2,0.1l0.1-0.1h0.2l0.2-0.4
	l0.2-0.1v-0.6h0.2l0.1,0.1h0.6l0.1,0.1l0.3-0.1l0.2,0.1l0.5,0.5h0.1l0.5,0.4h0.1l0.6,0.7h0.2l0.2,0.2h0.2l0.5,0.5l0.3,0.6l0.2,0.1
	l-0.1,0.1l0.1,0.2h0.4l0.5,0.8l0.4,0.3l0.4-0.1l0.2-0.2l-0.1-1l0.2-0.1l0.1,0.2h0.2l0.3-0.3l0.1-0.3l0.2,0.2v0.2l0.1,0.1l-0.3,0.1
	l0.1,0.3l-0.1,0.2l0.4,0.3h0.8l0.1,0.1h0.3l0.8,0.3h0.2l0.1-0.1h0.5l0.5-0.3h0.2l0.1-0.1h0.3l0.4-0.2h1.1l0.5-0.4v-0.2l0.4-0.4
	l0.3-0.1l0.4-0.3h0.2l0.3-0.2h0.2l0.3-0.2h0.2l0.6-0.3h0.9l0.1,0.1h0.4l0.1,0.1h0.9l0.1,0.1h0.4l0.1,0.1h0.3l0.5,0.2l0.6,0.4
	l0.9-0.1l0.1-0.1h0.2l0.5-0.6h0.2l0.5-0.5l0.2-0.4l0.2-1l0.2-0.3v-0.4l-0.1-0.1l-0.1-0.6l-0.3-0.4l-0.1-0.5l-0.2-0.4l-0.1-0.6
	l-0.1-0.1v-0.4l-0.1-0.1l-0.1-0.7l-0.1-0.1l0.1-0.2v-0.4l0.3-0.5h0.1v-0.2l0.4-0.4l0.2-0.5l0.3-0.3v-0.1l0.2-0.1v-0.1l0.9-0.8v-0.2
	l-0.4-0.8H232l-0.6,0.6L231,234l-0.5,0.5l-0.3,0.1l-0.2,0.1l-0.1-0.1H229l0,0.4l-1.7-0.1l-0.1,0.1h-0.4l-0.1,0.1h-0.6L226,235h-0.6
	l-0.3-0.3v-0.3l-0.2-0.3l-0.5,0.3h-0.3l-0.2,0.1l-0.5,0.4l-0.6,0.1l-0.3,0.2h-0.7l-0.4,0.2l-0.2,0.2h-0.3l-0.3,0.2h-0.3L220,236
	h-0.6l-0.1,0.1h-1.1l-0.1,0.1h-0.7l-0.3,0.3H217l-0.4,0.5h-0.2l-0.1-0.2h-0.2l-0.4-0.2l-0.1-0.3l-0.2-0.1l-0.2,0.2l-0.6,0.2
	l-0.2,0.2h-0.2v0.2l-0.5,0.5h-0.6l-0.3-0.3l-0.3-0.2l-0.6,0.1l-0.1,0.1l-0.1-0.1h-0.5l-0.1-0.1h-0.2l-0.3-0.3l-0.7-0.3l-0.3,0.3
	l-0.4,0.1l-0.5,0.5h-0.4l-0.1-0.3H208l-0.5,0.3h-0.7l-0.1,0.1l-0.6,0.1l-0.4,0.5h-0.5l-0.4,0.3h-0.7l-0.2-0.1l-0.1,0.1h-0.2
	l-0.3,0.3v0.3l-0.2,0.2l-0.4,0.1l-0.1,0.1h-0.2l-0.3,0.2h-0.2l-0.1,0.1h-0.7l-0.4-0.2h-0.4l-0.1,0.1H200l-0.3,0.3v0.1l-0.4,0.3
	l-0.1,0.2h-0.4l-0.2,0.2h-0.4l-0.3,0.3l-0.5,0.2l-0.4-0.2h-0.4v0.3l-0.1,0.2l-0.3,0.3l-0.4,0.6h-0.5l-0.3,0.2h-0.6l-0.1-0.1
	l-0.6-0.1l-0.4,0.2l-0.3-0.2h-0.3l-0.5,0.5h-0.1l-0.2,0.2h-0.3l-0.4,0.5v0.2L190.9,244.2z M251.8,274.5L251.8,274.5v-0.2l-0.1-0.1
	h-0.2l-0.1,0.1l0.1,0.2H251.8z M252.1,274.9l0.3,0.1l0.2-0.1l0.5-0.5v-0.1l0.5-0.4v-0.2l-0.3-0.2l-0.4,0.2l-0.3-0.1l-0.1,0.3
	l-0.2,0.2l-0.3,0.1l-0.1,0.4l0.1,0.1L252.1,274.9z M255,267.2h0.2l0.2-0.3l-0.2-0.2H255l-0.2,0.2v0.1L255,267.2z M252.2,275.4
	L252.2,275.4l0.1-0.2v-0.1h-0.1l-0.2,0.2v0.1H252.2z M253.6,273.5L253.6,273.5l0.1-0.3l-0.1-0.1l-0.1,0.1h-0.1l-0.1,0.1L253.6,273.5
	L253.6,273.5z M250.1,282.6v0.1l0.3,0.1l0.4-0.3v-0.1l-0.5-0.1L250.1,282.6z M252.6,275L252.6,275l-0.1,0.2l0.1,0.1h0.1h0.1v-0.1
	l-0.1-0.1L252.6,275z M253.1,274.6l-0.2,0.2v0.1h0.1l0.1-0.1L253.1,274.6L253.1,274.6z M252.9,274.9L252.9,274.9l-0.1,0.2l0.1,0.1
	l0.2-0.2H253h-0.1V274.9z M250.2,275.6L250.2,275.6l0.1-0.3l-0.1-0.1H250l-0.1,0.1v0.1l0.2,0.2L250.2,275.6L250.2,275.6z M242.9,270
	h0.2l0.2-0.2v-0.1l-0.2-0.2h-0.2h-0.2l-0.1,0.1v0.2l0.2,0.2H242.9z M250.2,279.6h0.4l0.2-0.2h0.1v-0.2l-0.3-0.2h-0.2l-0.3,0.3
	L250.2,279.6z M242.9,270.1L242.9,270.1v0.2v0.1h0.2h0.1v-0.1h-0.1L242.9,270.1z M241.6,271.3h0.1V271l-0.3-0.3l-0.2,0.2v0.2
	l0.2,0.1L241.6,271.3z M242.4,269.7L242.4,269.7l0.1-0.2l-0.1-0.1h-0.2l-0.1,0.1v0.1l0.1,0.1H242.4z M249,277.2l0.2,0.2l0.4-0.1
	l0.1,0.1h0.2l0.2-0.3l-0.2-0.1l-0.4-0.4h-0.2l-0.2,0.2L249,277.2z M236.1,271.5l0.2-0.2l-0.2-0.2h-0.2l-0.1,0.1v0.1l0.2,0.2H236.1z
	 M249.1,274.9L249.1,274.9l0.1-0.3l-0.1-0.1H249l-0.2,0.2l0.2,0.2L249.1,274.9z M248.9,276.9v-0.3l-0.2-0.1v-0.1l-0.3-0.3l-0.3,0.1
	l0.1,0.7L248.9,276.9L248.9,276.9z"/>
</svg>
