<?xml version="1.0" encoding="utf-8"?>
<!-- Generator: Adobe Illustrator 23.0.1, SVG Export Plug-In . SVG Version: 6.00 Build 0)  -->
<svg version="1.1" id="Layer_1" xmlns="http://www.w3.org/2000/svg" xmlns:xlink="http://www.w3.org/1999/xlink" x="0px" y="0px"
	 viewBox="0 0 300 300" style="enable-background:new 0 0 300 300;" xml:space="preserve">
<style type="text/css">
	.st0{opacity:0.8;fill:#C77885;}
	.st1{fill:#C77885;}
	.st2{fill:none;}
	.st3{fill:#2D2D2D;}
	.st4{font-family:'GoodlifeBrush';}
	.st5{font-size:15.4569px;}
	.st6{opacity:0.6;fill:#C77885;}
	.st7{opacity:0.4;fill:#C77885;}
	.st8{opacity:0.2;fill:#C77885;}
</style>
<path class="st0" d="M43.6,40.8l35.3,3.5L78,73c0,0,0.4,0.1,0.9,0.3c0.7,0.2,1.7,0.4,2.7,0.4c0.9,0,2.2,0.2,3.4,0.5
	c0.6,0,1.2,0.3,1.6,0.6c0.6,0.3,1.1,0.7,1.4,1.1c1.1,1.6,1.4,2.6,3.3,3.3c0.8,0.1,1.5,0.5,2,0.9c0.5,0.3,0.6,0.4,0.6,0.4s0,0,0.1,0
	c0.3,0,0.6,0,1,0c1.1,0.1,2.8,0.5,3.7,1.7c0,0.1,0.1,0.1,0.1,0.2l0.1,0.1c0.1,0.2,0.3,0.3,0.3,0.4c0.1,0.1,0.1,0.1,0.2,0.1
	c-0.1-0.3-0.2-0.9,0.1-1.5c0-0.1,0-0.2,0-0.3c0.1-0.4,2-2.1,2.8-0.5c0,0.1,0.1,0.1,0.1,0.2c0.4,0.6,0.7,1.3,0.9,2
	c0.7,1.5,1.7,2.9,2.8,2.9c0.8,0,1.7-0.6,2.5-0.9c0.4-0.2,0.7-0.3,1.2-0.1c0.8,0.2,1.7,0.7,2.5,0.7c0.3,0,0.4-0.1,0.6-0.2
	c0.1-0.1,0.1-0.1,0.1-0.2c0.3-0.8,1.5-1.1,1.8-0.1c0.2,0.6,0.6,0.9,1,0.9c0.2-0.1,0.5-0.4,0.5-0.7c0-0.1,0-0.1,0-0.2
	c-0.1-0.6,0.2-1.6,0.7-1.9c0.1,0,0.1-0.1,0.2-0.1c0.3-0.2,0.6-0.1,1,0.2c0.7,0.7,1.9,1,2.7,1.1c0.1,0,0.2,0,0.3,0
	c0.1,0,0.2,0,0.4,0.1h0.1c0.5,0,1.2,0.8,1.3,1.4c0.2,0.6,0.7,1.3,1.4,1.3c0.4-0.1,0.9-0.4,1.4-0.7c0.6-0.4,1.3-0.8,1.8-0.9
	c1-0.1,3.9,0,3.9,0l1.7-0.3c0,0,0.3,0,0.7,0l0,0c1-0.1,2.4-0.2,3.2-0.2c0.3,0,0.6-0.1,0.8-0.1h0.1c0,0,1-0.4,2.4,0.9
	c0,0,0.1,0.1,0.2,0.1c0.6,0.4,1.3,1,2.3,1.8l0,0c1.1,0.8,2.3,1.4,3,1.3c0.3-0.2,0.4-0.6,0.5-0.9l0,0l-2-42.5l-0.1-7.9l-88.4-3.5
	L56,35c-2.7-0.2-5.6-0.5-8.7-0.8l-3.2-0.3L43.6,40.8z"/>
<g>
	<path class="st1" d="M185.9,245.8l3.5-59c0,0-2.5-2.3-4.2-2.3c0,0,1.4-1.7,1-2s-2,0.3-2.7,0.9c-0.7,0.6-0.8,1.1-2,0.4
		c-1.1-0.7-4.2-1-5.5-1l-0.6-1.1l-0.9,0.4c0,0-0.6-1.6-1.6-2.4c-1-0.9-1.8-0.9-2.8,0.1s-1.4-0.1-1.4-0.1s-0.4-0.7-2-0.6
		c-1.6,0.1,1-2.7-1.3-2.7s-4.1,0.1-3.7-1.3c0.4-1.4,0.8-2.5,1-2.5s-2.1-0.2-3,0.4c0,0,1-1.1,0.1-1.4c-0.8-0.4-0.1-1.7-1-1.6
		c-0.9,0.1-0.7,0.9-1.6,1c-0.8,0.1-2.3,1.5-3.5,1.5s-0.3-0.3-0.8-1.1c-0.6-0.8-0.8-0.6-2,0.1c-1.2,0.7-0.6,0.6-2.6,0.8
		s-6.2,1.2-7.5,2.8s-0.5,2.3-1.1,2.3s-1.1,0.8-1.6,0.9c-0.6,0.1-1.6,1.6-2,0.6s-1.2-1.1-1.6-1.1c-0.4,0.1-0.8-0.8-1.8-0.8
		s-0.8,1.6-1.5,2.5s-1.4,1-0.8,2.1c0.6,1.1,4,2.9,3.6,4.9s-0.8,2.9-0.8,2.9l1.7,1.7l0.4-0.6c0,0,0.5-0.2,1,0.6
		c0.5,0.9,2.5,1.1,1.9,1.6c-0.6,0.6-2.6-1.2-2.8,0s-0.2,3.5,1.3,3.5c1.6,0,1.9,1.1,1.2,2.5c-0.7,1.3-0.8,1.1-0.8-0.2
		s-0.5-1.4-1.1-0.8c-0.6,0.6-1.8,1-1.8,0.1c-0.1-0.9,0.6-0.6-1.1-1.4c-1.8-0.8-2.8-1.3-2-2.4c0.9-1.1,1.1-2.4,1.1-2.4l-7.2-0.1
		c0,0-1.4,0.4-1.8,0.6c-0.4,0.1-3.4,0.4-3.9,0.4c-0.5,0.1-1.2,1.6,0.7,2.8c1.9,1.2,2.9,2.4,2.9,2.4s-2.3-0.5-2.7-0.5c-0.4,0,0,4,0,4
		s1.2,2.8,3,2.8s2.8,0.8,2.8,0.8s1.1,2.5,1.8,1.9c0.6-0.6,0.6-0.6,0.6-0.6s0.6,1.6,0.7,1.2c0.1-0.4,0.8-1.4,0.8-1.4s0.8-0.8,1-0.8
		s0.9-0.4,0.9-0.4l1.9-1.3c0,0,0.8-0.1,0.8,1s-1.1,1.1-1.1,1.1s-0.3,1.1-1.4,1.3c-1.1,0.2-1.3,1.6-0.1,1s1.6,0.1,1.3,1
		c-0.4,0.9-1.5,1.6-0.8,2.2c0.6,0.6,0.4,1.7-1.1,2.2c-1.4,0.5-3,1.2-4,0.4c-1-0.9-1.5-1.1-2.5-0.4c-1,0.8-1.7,0.6-1.7,0.6l-0.5,6.8
		c0,0-0.9-3.8-1.9-5.1s-1.7-1.6-1.7-0.9c0,0.7-0.4,0.8-0.5,1.3s-1,1-1,0.2s0.4-1.2-0.3-1.2s-1.1,1.3-1.1,1.3s-0.4,1.1-0.7,0.2
		c-0.4-0.9-0.9-1.6-1.3-0.8c-0.4,0.9-1.1,1.1-1.6,0.9c-0.5-0.1-1.1-0.4-1.1,0.4c0,0.7,0.4,1.3-0.3,1.4c-0.6,0.1,0.3,1.3,0.8,1.4
		c0.5,0.1-0.1,0.9-0.1,0.9s0,0.3,0.4,0.9c0.4,0.6,0.6,1.2,1.4,2.2s1.3,1.7,0.7,2c-0.6,0.3-1.3,0.1-1.3,0.1s0.5,0.7-0.4,0.6
		c-0.9-0.1-2.1-0.8-2,0.1c0.1,0.9,0.6,2,1.4,2.1s1.3-0.5,1.8-0.5s1.3,0.9,1.3,1.3c0,0.5-0.8,0.7-1.2,0.7c-0.4,0,0,0.8-0.4,1.3
		s-0.8,0.9-0.2,1.1c0.6,0.2,1.4,0.6,1.9,1.1s1.1,1.1,1.9,0.5s2.3-0.7,2.3-0.9s0,1.1,0,1.1s-2.6,3-1.2,4.6c0,0-1,0.2-1.1,1.1
		c-0.1,0.8-1,1.3-1,1.3s-0.8-0.2-1.3-0.2s-1.1,0.8,0,0.8c1.1,0.1,1.1,0.1,1.1,0.1s1.1,0.3,1.6,0.3s1,0.3,1,0.3s-0.1-1.6,0.8-1.6
		s1.3,0.1,1.8-0.4c0.4-0.4,0.8-0.4,0.8-0.4s0,1.8,1.1,2.1c1.1,0.2,2.8,2.1,2.6,3.6c-0.2,1.6,1,2.8,1.1,0.9c0.1-1.9,0-2.6,0.9-3
		s0.3,0.1,0.3,0.1s-0.7,2.8,0.4,2.8c1.1,0,1.6-1.1,2-1.1s0.6-0.1,1.3-0.7c0.7-0.6,2.5-1.1,2.9-1.1s-2.1,0.4-2.4,2
		c-0.3,1.6-1.3,2-2.1,2.1c-0.7,0.1,0.1,0.9-0.2,1.3c-0.3,0.4-1.3-0.1-1.7,0.6c-0.4,0.6-1.3,1.4-1.3,1.4l-0.6,2.1
		c0,0-0.9-0.6-1.1-0.2c-0.2,0.4-1.8,1.5-2.8,1.7s-0.6,1.3-0.2,1.4s-1.7-0.4-3.6,0.4c-1.9,0.7-2.4,2.1-2.9,2.1s-1.1,0-1.1,0
		s-1.3-1.3-2.5-0.9c-1.1,0.4-0.4,1.2-0.4,1.2s-0.4-0.2-2.3,0.1c-1.9,0.4-2.4,0.6-2.1,1.8c0.4,1.1,1,2.1,1.7,0.9s1.8-1.9,2-1.5
		c0.1,0.4-1.1,1.7,0.6,1.7c1.8,0,1.8-0.6,1.8-0.6s0.6,0.2,1.3,0.2c0.6,0,2.3-1.7,2.4-0.8c0.1,0.8-0.6,2.3,0,2.3s1.3-1.8,1.3-1.8
		s0.2-0.5,0.8-0.2c0.6,0.3,2.7-0.3,3.5-0.3s1.8-0.4,1.1-1.1c-0.8-0.6-1.1-1.6-0.2-1.5s1.2,1.1,1.7,0.9s0.8-0.5,0.8-0.5
		s0.7,0.4,0.8,0.1c0.1-0.3,0.1-1.2,0.1-1.2s0.8-0.2,1,0.3c0.2,0.5,0.7,0.6,0.7,0.6s0.4-0.9,0.8-1c0.5-0.1,0.4-0.9,0.4-0.9l1.1-0.1
		l0.7-1l0.3,0.4l2.1-0.7l0.1,0.7c0,0,0.9-2.2-0.1-2.2s-1.6-1-0.1-1s2.2-0.3,1.6,0.5c-0.6,0.8-0.4,1.8,0.3,1.1s1.6-2.3,1.6-2.3
		s0.1,2,1,1.6c0.8-0.4,0.5-1.6,0.5-1.6s0.4-1,1.1-0.9c0.6,0.1,0.9-0.6,1.3-0.6c0.4,0,1.1-0.1,1.1-0.1s0.6,0.2,0.7-0.4
		c0.1-0.6,0.3-1.1,1.1-1.1s0.6-0.8-0.6-0.8c-1.1,0-0.4-0.9-1.1-1.4c-0.7-0.5-0.8-0.9-0.7-1.8c0.1-0.9,1.3-0.5,1.3-1.1s0.7-1.2,1.5-1
		s3.4,0,3.4,0s-0.1-0.6,0.2-1.6c0.4-0.9,1.1-1.4,1.6-2.3c0.5-0.9,0.8-2.1,2-1.7c1.2,0.4,0.7-0.1,1.5-0.7c0.8-0.6,1.6-0.1,2.5-1
		s1.6-1.1,1.6-1.1l-0.1,1.2c0,0,2.4-1.6,2.8-1c0.4,0.6-2.1,2.3-2.1,2.3l1,0.5c0,0,2.5,1.5,1.8,2.4s-1,0.6-1.8-0.7
		c-0.9-1.3-1.6-0.9-1.6-0.9s-1-0.8-1.4-0.8s-0.5,0.6-1.5,0.7c-1,0.1-1.6,0.6-1.6,0.6s0.6,0.6-0.1,1.1c-0.7,0.5-1.9,1.8-2.6,4
		c-0.7,2.2,0.7,1.5,1.2,0.6s1.1-1.5,1.8-0.6c0.6,0.9-0.5,2.1-1.9,2.2c-1.4,0.1-1.9,0.2-1.9,0.2l-0.6,1.5l1.6,0.3l1.4-0.1l0.9,1
		c0,0,0.8-0.3,1.2-1.1s0.6-2.2,0.6-2.2s2-1.3,1.5-0.3s-0.2,1.3-0.2,1.3l1.3-1.6c0,0,0.6,1.6,1.8-0.4l1-0.3c0,0-0.1,0.8,0.5,0.8
		s1.4,0,1.4,0s0.7-0.8,1.3-0.8c0.6-0.1,0.5-0.9,0.1-1.3c-0.4-0.4,0.4-0.7,0.5-0.4s2.3,0.4,0.8-0.8s-2.1-1.8-2.1-1.8l3.1-2.2
		c0,0-1.3,2.2-0.4,2.2c1,0,1.4-0.6,1.4-0.6s0.5,0.5,1,0.5s1.7-2.1,2.2-1.7c0.5,0.4-0.7,1.4-0.4,1.5s2.8-0.4,2.9,0.1
		c0.1,0.6-1,0.6-1.6,0.9s-2.1,0-2.5,1.1c0,0,0.6-0.1,1.5,0s2.3,0.6,2.5,1.1c0.2,0.6,0.1,1.6,1.1,1.7c0.9,0.1,1.6,0.1,1.6,0.9
		c0,0.9,0.2,1.1,1.6,1.1c1.3,0,3.1-0.5,3.8-0.1s0,1.2,1.8,0.9s1.4,0.7,2.8,0.7c1.3,0,1.1,0.7,2.3,0.7s0.4,0.7,1.1,1.5
		c0.7,0.8,1.6,1,1.6,1s-0.2,0.2,1.3,1.1c1.6,0.9,2,0.8,2,0.8s-0.7,0.6,0.3,0.6s2.1-0.4,2.2,1c0.1,1.3,0.9,2.3,0.9,2.3l1.9,1.8
		c0,0,1,0.7,1.1,0.2s1.3-0.3,1.3-0.3s0.4-0.2,1.1-0.1c0.7,0.1,1.2,0.2,2.1,0.7c0.9,0.5,0.8,0.1,0.1-1.4s-0.6-1.3-0.8-2.8
		c-0.1-1.5-0.6-2.5,0.1-2.5c0.8,0,1.1,1.8,1.1,1.8s1.8,4.2,3.3,5.3c1.6,1.1,2.1,3,2.1,3.9s0.5,2.1,0.9,2.1s0.9-0.3,1.1,0
		c0.2,0.3,3.1,0.8,3.1,0.8s-0.8,2,0.4,2.8s1.6,2.6,1.6,2.6s-1.5,2.1-0.7,2.1s1.7-1.7,2.7-1.3c1,0.4,1.2,1.8,1.2,2.5s0.5,1.7,0.5,1.7
		s0.2,0.4,0.4,0.4s1.2,0.3,1.2,0.3s0.6-1.7,1.3-1.7c0,0-1-3-2.4-4.2c-1.4-1.3-1.9-1.3-2-2.8s-0.2-3.6-3-3.6s-2.7-1.7-3.4-3.5
		s-1.4-3.3-3-4.7c-1.6-1.4-2.1-2.3-2.8-3.7c-0.8-1.3-2.3-2.8-4.6-2.8c-2.3,0.1-1.8,0.2-2.5,1.8s-1.3,3.3-2,1.8l-3.2-3
		c0,0,0.3-0.6-0.2-1.6c-0.5-1.1-0.4-0.9-0.4-1.6c0.1-0.7-1.4-0.9-2-0.7c-0.6,0.1-1.9,0-2.8-0.5c-0.9-0.5-1-0.3-1.5,0
		C187.7,246.9,186.3,245.6,185.9,245.8z"/>
	<path class="st1" d="M207.3,270.8c0,0,0.3,1.1-0.4,0.9s-0.9-1.2-1.4-2.1s-0.3-1.3-1.2-1.3c-0.8,0-2.9,0.5-2.2-0.9s0.5-2.1,1.6-2.1
		s1.4-0.5,1.8,0.2c0.4,0.7,0.2,1.4,0.6,1.5c0.4,0.1,1.1,1.3,1.1,2.1c0,0.9,0.2,1.7,0.2,1.7L207.3,270.8z"/>
	<path class="st1" d="M209.6,269.7c0,0-1.5,2-1.5,0.3c0-1.3-0.4-1.8-0.3-2.2c0-0.1,0.1-0.2,0.2-0.4c0.5-0.6,1.4-0.3,1.4-0.3
		s0.7-0.6,1-0.7s2.3,0.1,2.2,0.8c0,0.7-1.1,1.2-1.7,0.4c-0.6-0.8-0.5-1-0.5-1s0.5,1.4,0,1.5s-1.1-0.7-1.1-0.7s0.9,1.2,0.3,1.4
		c-0.6,0.2-1.7-1-1.7-1S209.8,269.3,209.6,269.7z"/>
	<path class="st1" d="M209.9,270.1c0,0,1.4,0.8,1.8-0.3c0.5-1-0.1-1.5-0.8-1.8C210.2,267.7,209.2,268.9,209.9,270.1z"/>
	<path class="st1" d="M210.5,271.7c0,0,0.5,2.1,0.9,3s0.4,1.3,0.4,1.7c0,0.3,1.1,0.7,1.1,0.7l0.3,0.7c0,0-1.4,0.1-1.7,0.6
		c-0.2,0.5,0.1,0.2,0.8,0.8c0.6,0.6,1.5,2.3,2,1.7c0.5-0.5,0.3-0.7-0.1-1.6c-0.4-0.8-0.6-1.1-0.6-1.1s1,0.3,1.5,0.9
		c0.4,0.6,1.4,2.1,1.8,1.8c0.5-0.3,0.4-1.4-0.1-1.9c-0.6-0.5,0.7-0.9,0.3-1.4s-1-0.1-1.2-0.8c-0.1-0.7,2.1-1.1,1.2-1.9
		c-0.9-0.8-2.4,0-1.6,0.8l0.3,0.4c0,0-0.6,0-0.9-0.1c-0.3-0.1-0.7-0.5-0.7-1.2c0-0.8-0.3-1.7-0.3-1.7s0-0.3-0.7-0.3
		C212.6,272.8,211,269.9,210.5,271.7z"/>
	<path class="st1" d="M213.6,271.6c0,0-2.2-0.9-1.3-1.7c0.9-0.8,1.7,0,2.1,0.3c0.5,0.4,1.9,1.7,1.3,2.2
		C215,273.1,213.6,271.6,213.6,271.6z"/>
	<path class="st1" d="M217.7,273.8v4.2c0,0-0.3,0.9,0.9,0.9s1.3-0.4,1-1.4s-0.6-1.5,0-2s-0.8-1.2-0.7-1.6S218,272.9,217.7,273.8z"/>
	<path class="st1" d="M221.7,278.3v1.1c0,0,0.8,0.7,1.1,0s0.1-1.3,0.1-1.3S222,277.9,221.7,278.3z"/>
	<path class="st1" d="M200.6,261.4l1.2,0.9l1.3,2.2c0,0,0.6-0.9,1.2-0.5c0.7,0.4,1.4-0.7,0.9-1.3c-0.5-0.6-1-0.6-1.3-1.2
		c-0.3-0.7-0.7-1.7-0.7-1.9c0-0.2-1.5-0.1-1.4,0.5c0,0.6-1.7,0.4-1.4,1.2C200.6,262,200.6,261.4,200.6,261.4z"/>
	<path class="st1" d="M206.1,259.8l0.7,6c0,0,0.3,0.8,0.6,0.8s0.6-0.8,0.6-0.8l0.1-1.3c0,0,1.7-0.2,1.3-1.7
		C209,261.4,207.3,259.6,206.1,259.8z"/>
	<path class="st1" d="M138.5,259.1c0,0-0.5,2.1-1.5,0.8c-0.9-1.3,0.1-1.6,0.9-1.3c0.8,0.3,0.4,0.1,0.4,0.1l-1.4-1.2
		c0,0-0.9,0,0.1-0.6s1.2-1,1.7-1.2c0.4-0.2,1.7-0.8,1.7,0.1s-0.4,1.5,0.7,1.2c1-0.3,1.2-0.7,0.7-1.2c-0.5-0.5-1.8-1.2-1.1-1.6
		c0.7-0.4,1.6-0.7,1.5,0.1s0.7,0.7,0.9,0.8c0.2,0,1.2-0.6,1.7,0c0.5,0.5,0.4,1.2,0.4,1.2s1.9-0.5,1.9,0.6s-1.7,0.4-1.7,0.4
		s1.6,0.8,0.8,1.3s-1.7-0.6-1.7-0.6l-0.9,0.5c0,0,0.7,1.1,0.1,1.3c-0.6,0.1-2,1.4-2.3,0.9c-0.2-0.5,0.7-0.9,0-1.2
		c-0.7-0.3-0.7,0.2-1.2,0.8c-0.5,0.6-1.7,1.2-2,1c-0.2-0.2,1.2-0.9,0.7-1.7C138.4,258.7,138.5,259.1,138.5,259.1z"/>
	<path class="st1" d="M136.1,261c-0.2,0-2.5,1.3-0.8,1.7c1.6,0.4,2.3-0.8,2.1-1.3C137.2,260.9,136.1,261,136.1,261z"/>
	<path class="st1" d="M132.4,264.3c0,0-0.8,0.5-1.7,0.9s-1.9,1.1-0.6,1.4C131.5,266.9,132.1,267.4,132.4,264.3z"/>
	<path class="st1" d="M144.9,251.4l-1,1.3c0,0-0.8,1.3,0.6,1.1c1.5-0.2,2.1-0.9,2.6-0.6C147.6,253.6,147.9,251,144.9,251.4z"/>
	<path class="st1" d="M106.1,260.3c-0.2,0-0.8,0.5-1.7,0c-0.9-0.5-1.1-0.1-0.8,0.5c0.3,0.6,0.6,0.7,0.5,1.1c-0.1,0.5,0.8,1,1.2,0.8
		c0.5-0.2-0.2-0.9,0.5-0.9s1.3-1.1,0.4-1.6C105.3,259.9,106.1,260.3,106.1,260.3z"/>
	<path class="st1" d="M102.9,260c0,0-1.2,0.2-2.2,0.3c-1,0.1-2.4,0.1-2.4,0.1s-0.7,0.8,0.3,1.1c0.9,0.3,1.1,0.2,1.1,0.2
		s0.6,1.7,2.1,1.7l0.5-0.1c0,0-0.2-1.3,0.4-1.5S102.9,260,102.9,260z"/>
	<path class="st1" d="M98.4,262c0,0-0.7-0.3-1.3-0.9c-0.6-0.7-1.9,0.9-1,1.5c0.9,0.5,0.8,0.8,0.8,1.1c0,0.4-0.1,0.8,1.1,0.4
		C99.2,263.5,99.7,262.1,98.4,262z"/>
	<path class="st1" d="M92.9,262.5c0,0,0.9,0,0.9,0.7s0.2,0.9-0.8,0.9s-1.2-0.2-1-0.7C92.2,262.8,92.9,262.5,92.9,262.5z"/>
	<path class="st1" d="M91.4,262.5c-1.5,0-1.2,0.7-1.2,0.7s-0.4,0.9,0.8,0.9c1.1,0,1.1-0.7,0.7-1.4L91.4,262.5z"/>
	<path class="st1" d="M89.4,264.2c0,0-1,0.6-1.1,1c0,0.4-1.2,0.7-1.6,0.9c-0.4,0.2-0.4,0.5-0.9,0.4c-0.5,0-1.1,0-1.5-0.1
		c-0.4-0.2-1.2-0.6-0.7-0.9s1.5-0.5,1.9-0.2s0.3,0.9,0.3,0.9s0.6-0.5,0.4-0.9c-0.2-0.5-0.8-1.1-0.1-1.2c0.6-0.1,0.7-0.3,0.7-0.3
		s-1.2-0.2-0.2-0.8c0.9-0.6,2-0.8,2-0.1c0,0.6,0,0.9,0,0.9S89.8,263,89.4,264.2z"/>
	<path class="st1" d="M83.3,264.5c0,0-0.4,0.6-1.5,0.7c-1.1,0-1.3,0.5-1.7,0.9c-0.4,0.5-1.5,0.8-2.5,0.7c-1-0.1-2-0.7-0.4-0.8
		c1.6-0.1,1.6-0.7,2.5-1.1s0.8-0.6,1.7-0.6c1,0,0.7-0.7,1.2-0.8C83.4,263.4,84.2,263.6,83.3,264.5z"/>
	<path class="st1" d="M72.6,266.8c0,0,0-0.5,0.8-0.5c0.9,0,0.9,0.2,0.9,0.2v0.8L72.6,266.8z"/>
	<path class="st1" d="M71.5,266.2c0,0-0.4,0.7-1.5,0.7s-0.9-0.4-0.7-0.8C69.6,265.7,70.6,265.6,71.5,266.2z"/>
	<path class="st1" d="M63.4,264.1c0,0-1.4,0.3-0.9,0.8C62.9,265.4,64,265,63.4,264.1z"/>
	<path class="st1" d="M58.7,263.3c0,0,2.7,2.4,1.4,1.6s-2.6-1.8-2.7-1.9C57.2,262.9,58.7,263.3,58.7,263.3z"/>
	<path class="st1" d="M52.2,260.5c0.2,0.3,2.3,1.6,2.3,1.6l1.1-0.3l1.3,0.5l0.7-0.4l0.7-0.1c0,0-0.7-1.8-1.4-1.5
		c-0.8,0.3-0.2,0.7-0.2,0.7h-1.1l-2-1C53.4,259.9,51.7,259.6,52.2,260.5z"/>
	<path class="st1" d="M49.7,257.7v0.9h0.9C50.5,258.6,51.1,257.4,49.7,257.7z"/>
	<path class="st1" d="M48.3,257.6l-0.1,1.6l-2.5-0.3c0,0,1.4-1.2,1.6-1.4C47.3,257.3,48.3,257.2,48.3,257.6z"/>
	<polygon class="st1" points="45.6,256.5 45,256.9 45.6,257.4 46.6,256.8 45.8,256.4 45.6,256.3 	"/>
	<path class="st1" d="M43.8,255.1l-1.5-1.2l0.2,1.4c0,0-0.9,0.2-0.8,0.2c0.1,0,1.7,1.1,1.7,1.1l0.6,0.2l-0.3-1.1L43.8,255.1z"/>
	<path class="st1" d="M35.6,248.9c0.3,0,1.1,0.7,1.1,0.7l0.7-0.9l-1.3-0.8L35.6,248.9z"/>
	<polygon class="st1" points="31.9,247.5 33.5,250.9 32.4,251.1 31.8,247.8 	"/>
	<path class="st1" d="M28.1,243.5c0.2,0,1.3,0.3,1.3,0.3l0.9,0.1l0.6-0.5l0.1-0.7h-3.4L28.1,243.5z"/>
	<path class="st1" d="M87.7,242.7C87.7,242.7,87.6,242.7,87.7,242.7c-0.3-0.2-0.9-0.7-1.2-0.4c-0.4,0.3-0.8,0.6-0.1,1.1
		c0.7,0.5,1.6,0.8,1.7,0.6C88.2,243.8,88.9,243.3,87.7,242.7z"/>
	<path class="st1" d="M85.4,237.2c0,0,0.4,1,1,0.6s1.4-0.8,1.9-1s1-0.9,0.4-1.2c-0.5-0.3-1.1-0.7-1.5-0.3c-0.5,0.4-1.5,0.7-2.4,0.7
		S84.8,236.8,85.4,237.2z"/>
	<path class="st1" d="M109.7,228c-0.1-0.1-0.5-0.5-0.5-1.4c0-1-0.5-1.5-1.3-1.3s-0.6,0.6-1.5,0.6s-2-0.2-2.1,0.2s1,0.8,1.3,0.8
		s0.8,0,0.4,0.5c-0.3,0.4-1.1,0.4-0.4,1.2s0.8,1.4,1.3,1.1c0.5-0.3,0.1-0.8,1.2-0.8C109.1,228.9,110.9,229.3,109.7,228z"/>
	<path class="st1" d="M89.7,211.9c0.5,0.6,0.8,0.8,0.2,1.5c-0.6,0.7-0.7,1.6-0.3,2.2c0.5,0.6,1.7,1,1.4,1.6c-0.4,0.6,0.6,1,1.1,0.3
		s0.6-1.2-0.2-1.9c-0.7-0.7-1.9-1.1-1.4-1.9c0.6-0.8,0.1-1.7-0.3-2.1C89.9,211.2,89.4,211.4,89.7,211.9z"/>
	<path class="st1" d="M105.4,225.8"/>
	<path class="st1" d="M105.3,198.1c0,0-2.2,0.7-2.5,1.9s-0.2,1.7-0.5,1.7s0.1,0.6,0.9,0.5s1-1,1.7-0.1s1.6,1.1,1.8,2.2
		c0.1,1.1,0.1,2.8,0.5,2.4c0.3-0.5,0.5-1.2,0.9-1.1c0.4,0,0,0.3,0.7,0.8s2.4,0.5,1.7-0.2c-0.7-0.7-0.6-1.7-0.6-1.7s-0.2,0.1-0.6-0.3
		s-0.4-0.9-0.5-1.1c-0.1-0.2-0.3-0.2-0.3-0.2s0.2,0,0.3-0.7c0-0.7-0.3-1.3-0.4-1.5c-0.2-0.2-0.6-0.5-1.1-0.2s-1.2,0.8-1.6,0
		s-0.1-1.1,0.1-1.5C105.5,198.7,105.3,198.1,105.3,198.1z"/>
</g>
<rect x="137.3" y="208.1" class="st2" width="113.3" height="46.2"/>
<text transform="matrix(1 0 0 1 137.3017 217.8079)" class="st3 st4 st5">Alaska</text>
<path class="st6" d="M180.3,58.2l-7.2-1.8l2.1,0.7l4.9,1.1c0,0-1.1,2.5-1.2,3.8c0,0.1,0,0.2,0,0.3c0.4-1.7,1.2-4,1.2-4
	s-0.8,2.2-1.2,4c-0.1,0.5-0.2,1.1-0.3,1.6c-0.1,1.2-0.8,2.5-1.1,2.9c-0.1,0.2-0.1,0.3-0.1,0.5c0,0.3,0.2,0.7,0.5,1.3
	c0.4,0.6,1,1.8,1.6,2.9c0.2,0.4,0.4,0.7,0.5,1c0.3,0.5,0.4,0.9,0.4,0.9s0.5,0.8,1,0.8c0,0-0.7,1.5-0.1,1.8c0.5,0.3,1.4,0.1,1.6,0.8
	c0,0.2,0.1,0.3,0.1,0.4s0,0.1,0.1,0.2c0.2,0.5,0.4,0.9,0.2,1.4c-0.1,0.6-0.3,1.7-0.1,2.5l0,0c0.5,1.1,1.3,1.4,1.4,2.2
	c0.1,0.2,0.1,0.5-0.1,0.8l0,0c-0.1,0.8-0.3,1.6,0.3,2.6c0.5,0.6,1.5,1.8,0.8,3.4c-0.1,0.3-0.3,0.7-0.6,1c-1.3,1.4-1.7,0.6-1.8,2.5
	c0,0.8-0.1,1.3-0.1,1.6c0,0.2,0,0.4,0,0.6s-0.1,0.3-0.2,0.5c0,0.1-0.1,0.2-0.1,0.2c-0.4,0.9-0.5,1.3-0.1,1.5s0.7,0.4,1.2-0.1
	c0.3-0.3,0.7-0.7,1.1-0.8c0.3-0.2,0.5-0.2,0.6,0.2c0.1,0.1,0.1,0.4,0,0.7c-0.1,1-0.3,1.4-0.3,1.9c0,0.1,0.1,0.2,0.1,0.3
	c0.5,0.8,1,4.4,1,5.5c0,0,0.1,0.4,0.4,0.9c0.1,0.1,0.2,0.2,0.3,0.2c0.5,0.4,1,1,1.3,1.5c0.2,0.3,0.3,0.6,0.3,0.9c0,0.1,0,0.3,0,0.4
	v0.1c0,0,0,0,0,0.1c0.1,0.5,0.3,1,0.6,1.6c0.4,0.6,0.8,1,0.8,1s0.2,0.3,0.6,0.7c1.2,0.9,2.4,1.6,4,1.5c1.2-0.1,2-0.3,2.5-0.4
	c0-0.2,1.1,0.1,1.1,0.4c0,0.2,0.1,0.4,0.3,0.5c0.1,0,0.1,0,0.2,0c0.8,0.1,2,0.2,2.2,0.6c0,0,1.2-0.8,1.8-0.4c0.2,0,0.4,0.1,0.6,0.3
	c0.3,0.3,0.4,0.7,0.5,0.9c0,0.1,0.1,0.1,0.1,0.2l0,0c0,0.1,0,0.1,0.1,0.2c0,0,0,0,0,0.1c0.1,0.1,0.2,0.2,0.4,0.2h0.1c0,0,0,0,0.1,0
	l0,0h0.1l2.1-0.1l1.4-5.9l54.9,8.4c0,0,0.3,0.2,0.5,0l0,0l0,0c0.1-0.1,0.2-0.3,0.2-0.7c0-0.3,0.6-4.8,1.3-10.7c0,0,0,0-0.1,0
	c0,0,0,0,0.1,0c1.7-13.3,4.3-34.3,4.3-34.3s-2.7,20.9-4.3,34.3l4.4-34.5C270,73.9,209.8,65.7,180.3,58.2z"/>
<path class="st7" d="M107.5,109.7l-54.9-8.4l-1.4,5.9c0.1,0,0.1,0,0.1,0l-6.2,28l-2.2,11.2l17.2,3.3v-0.2v0.2l0.5,0.1l42.4,5.3
	l0.1-0.3c-0.2-1.9,2.3-22.1,2.3-22.1l2.6-22.8C107.8,109.9,107.5,109.7,107.5,109.7z"/>
<path class="st8" d="M236.1,216.7c0-0.7,1.5-0.5,1.4-1.2s-0.7-1.2-0.7-2c0-0.7,0.2-3.4-0.7-3.7l24.8-1.6c0.4-2.1-0.8-4.4-1.2-7.4
	c-0.4-3,0.1-6.3,1.2-7.2s0.3-2.3,0.3-2.3l-3.7-6.5l-4.8-22.6c-10.1,1.4-25.5,1.8-25.5,1.8c0,0.9,0.8,1.4,0.8,1.4l-1.3,35.5l1.2,17.3
	c0.8,0,1.3,0,1.6-0.4s0.5,0,0.9,0s1.1-0.2,1.1-0.6c0-0.4,0.2-0.7-0.1-0.9c-0.3-0.3-0.2-1.5-0.2-1.5s-0.2-0.2,0.1-0.7
	s0.4-1.1-0.1-2.1s-0.7-1.9,0.2-2.9c0,0,0.2-0.2,0.2-0.5c0,0,0.2,0.8,0.4,1.5s0.8,1.4,0.8,1.6c0,0.2-0.6,0.9-0.5,1.6
	c0.1,0.7,1.2,1.5,1.3,2c0,0.5-0.1,1.6,0.3,1.7c0.4,0.1,1.1,0.8-0.2,1.3s-2.3,0.7-2.3,1s0.9,0.2,1.4,0s0.8-0.2,1.5-0.4
	c0.7-0.1,2.6-0.2,2.8-1.3C237,217.7,236.1,217.4,236.1,216.7z"/>
<g>
	<rect x="197.2" y="84.7" class="st2" width="113.3" height="23.3"/>
	<text transform="matrix(1 0 0 1 197.1914 94.416)" class="st3 st4 st5">Montana</text>
	<rect x="48.2" y="124.7" class="st2" width="113.3" height="46.2"/>
	<text transform="matrix(1 0 0 1 48.1914 134.416)" class="st3 st4 st5">Wyoming</text>
	<rect x="80.2" y="53.7" class="st2" width="113.3" height="17.3"/>
	<text transform="matrix(1 0 0 1 80.1914 63.416)" class="st3 st4 st5">Oklahoma</text>
	<rect x="218.2" y="221.7" class="st2" width="113.3" height="17.3"/>
	<text transform="matrix(1 0 0 1 218.1914 231.416)" class="st3 st4 st5">Alabama</text>
</g>
<rect x="365" y="52" class="st2" width="184" height="219"/>
<text transform="matrix(1 0 0 1 365 60.52)"><tspan x="0" y="0" style="font-family:'MyriadPro-Regular'; font-size:12px;">Alaska</tspan><tspan x="0" y="14.4" style="font-family:'MyriadPro-Regular'; font-size:12px;">Oklahoma</tspan><tspan x="0" y="28.8" style="font-family:'MyriadPro-Regular'; font-size:12px;">Montana</tspan><tspan x="0" y="43.2" style="font-family:'MyriadPro-Regular'; font-size:12px;">Wyoming</tspan><tspan x="0" y="57.6" style="font-family:'MyriadPro-Regular'; font-size:12px;">Alabama</tspan></text>
</svg>
