<?xml version="1.0" encoding="utf-8"?>
<!-- Generator: Adobe Illustrator 23.0.1, SVG Export Plug-In . SVG Version: 6.00 Build 0)  -->
<svg version="1.1" id="Layer_1" xmlns="http://www.w3.org/2000/svg" xmlns:xlink="http://www.w3.org/1999/xlink" x="0px" y="0px"
	 viewBox="0 0 300 300" style="enable-background:new 0 0 300 300;" xml:space="preserve">
<style type="text/css">
	.st0{opacity:0.8;fill:#C77885;enable-background:new    ;}
	.st1{fill:#C77885;}
	.st2{fill:none;}
	.st3{fill:#2D2D2D;}
	.st4{font-family:'GoodlifeBrush';}
	.st5{font-size:15.4569px;}
	.st6{opacity:0.6;fill:#C77885;enable-background:new    ;}
	.st7{opacity:0.4;fill:#C77885;enable-background:new    ;}
	.st8{opacity:0.2;fill:#C77885;enable-background:new    ;}
	.st9{font-size:24px;}
	.st10{fill:#757575;}
	.st11{font-size:18px;}
</style>
<path class="st0" d="M179.7,97l35.3,3.5l-0.9,28.7c0,0,0.4,0.1,0.9,0.3c0.7,0.2,1.7,0.4,2.7,0.4c0.9,0,2.2,0.2,3.4,0.5
	c0.6,0,1.2,0.3,1.6,0.6c0.6,0.3,1.1,0.7,1.4,1.1c1.1,1.6,1.4,2.6,3.3,3.3c0.8,0.1,1.5,0.5,2,0.9c0.5,0.3,0.6,0.4,0.6,0.4s0,0,0.1,0
	c0.3,0,0.6,0,1,0c1.1,0.1,2.8,0.5,3.7,1.7c0,0.1,0.1,0.1,0.1,0.2l0.1,0.1c0.1,0.2,0.3,0.3,0.3,0.4c0.1,0.1,0.1,0.1,0.2,0.1
	c-0.1-0.3-0.2-0.9,0.1-1.5c0-0.1,0-0.2,0-0.3c0.1-0.4,2-2.1,2.8-0.5c0,0.1,0.1,0.1,0.1,0.2c0.4,0.6,0.7,1.3,0.9,2
	c0.7,1.5,1.7,2.9,2.8,2.9c0.8,0,1.7-0.6,2.5-0.9c0.4-0.2,0.7-0.3,1.2-0.1c0.8,0.2,1.7,0.7,2.5,0.7c0.3,0,0.4-0.1,0.6-0.2
	c0.1-0.1,0.1-0.1,0.1-0.2c0.3-0.8,1.5-1.1,1.8-0.1c0.2,0.6,0.6,0.9,1,0.9c0.2-0.1,0.5-0.4,0.5-0.7c0-0.1,0-0.1,0-0.2
	c-0.1-0.6,0.2-1.6,0.7-1.9c0.1,0,0.1-0.1,0.2-0.1c0.3-0.2,0.6-0.1,1,0.2c0.7,0.7,1.9,1,2.7,1.1c0.1,0,0.2,0,0.3,0s0.2,0,0.4,0.1h0.1
	c0.5,0,1.2,0.8,1.3,1.4c0.2,0.6,0.7,1.3,1.4,1.3c0.4-0.1,0.9-0.4,1.4-0.7c0.6-0.4,1.3-0.8,1.8-0.9c1-0.1,3.9,0,3.9,0l1.7-0.3
	c0,0,0.3,0,0.7,0l0,0c1-0.1,2.4-0.2,3.2-0.2c0.3,0,0.6-0.1,0.8-0.1h0.1c0,0,1-0.4,2.4,0.9c0,0,0.1,0.1,0.2,0.1
	c0.6,0.4,1.3,1,2.3,1.8l0,0c1.1,0.8,2.3,1.4,3,1.3c0.3-0.2,0.4-0.6,0.5-0.9l0,0l-2-42.5l-0.1-7.9L192,90.4l0.1,0.8
	c-2.7-0.2-5.6-0.5-8.7-0.8l-3.2-0.3L179.7,97z"/>
<g>
	<path class="st1" d="M161.5,123.8l3.5-59c0,0-2.5-2.3-4.2-2.3c0,0,1.4-1.7,1-2s-2,0.3-2.7,0.9c-0.7,0.6-0.8,1.1-2,0.4
		c-1.1-0.7-4.2-1-5.5-1l-0.6-1.1l-0.9,0.4c0,0-0.6-1.6-1.6-2.4c-1-0.9-1.8-0.9-2.8,0.1s-1.4-0.1-1.4-0.1s-0.4-0.7-2-0.6
		c-1.6,0.1,1-2.7-1.3-2.7s-4.1,0.1-3.7-1.3c0.4-1.4,0.8-2.5,1-2.5s-2.1-0.2-3,0.4c0,0,1-1.1,0.1-1.4c-0.8-0.4-0.1-1.7-1-1.6
		c-0.9,0.1-0.7,0.9-1.6,1c-0.8,0.1-2.3,1.5-3.5,1.5s-0.3-0.3-0.8-1.1c-0.6-0.8-0.8-0.6-2,0.1c-1.2,0.7-0.6,0.6-2.6,0.8
		s-6.2,1.2-7.5,2.8s-0.5,2.3-1.1,2.3s-1.1,0.8-1.6,0.9c-0.6,0.1-1.6,1.6-2,0.6s-1.2-1.1-1.6-1.1c-0.4,0.1-0.8-0.8-1.8-0.8
		s-0.8,1.6-1.5,2.5s-1.4,1-0.8,2.1s4,2.9,3.6,4.9c-0.4,2-0.8,2.9-0.8,2.9l1.7,1.7l0.4-0.6c0,0,0.5-0.2,1,0.6
		c0.5,0.9,2.5,1.1,1.9,1.6c-0.6,0.6-2.6-1.2-2.8,0c-0.2,1.2-0.2,3.5,1.3,3.5c1.6,0,1.9,1.1,1.2,2.5c-0.7,1.3-0.8,1.1-0.8-0.2
		s-0.5-1.4-1.1-0.8s-1.8,1-1.8,0.1c-0.1-0.9,0.6-0.6-1.1-1.4c-1.8-0.8-2.8-1.3-2-2.4c0.9-1.1,1.1-2.4,1.1-2.4l-7.2-0.1
		c0,0-1.4,0.4-1.8,0.6c-0.4,0.1-3.4,0.4-3.9,0.4c-0.5,0.1-1.2,1.6,0.7,2.8c1.9,1.2,2.9,2.4,2.9,2.4s-2.3-0.5-2.7-0.5c-0.4,0,0,4,0,4
		s1.2,2.8,3,2.8s2.8,0.8,2.8,0.8s1.1,2.5,1.8,1.9c0.6-0.6,0.6-0.6,0.6-0.6s0.6,1.6,0.7,1.2s0.8-1.4,0.8-1.4s0.8-0.8,1-0.8
		s0.9-0.4,0.9-0.4l1.9-1.3c0,0,0.8-0.1,0.8,1s-1.1,1.1-1.1,1.1s-0.3,1.1-1.4,1.3c-1.1,0.2-1.3,1.6-0.1,1s1.6,0.1,1.3,1
		c-0.4,0.9-1.5,1.6-0.8,2.2c0.6,0.6,0.4,1.7-1.1,2.2c-1.4,0.5-3,1.2-4,0.4c-1-0.9-1.5-1.1-2.5-0.4c-1,0.8-1.7,0.6-1.7,0.6l-0.5,6.8
		c0,0-0.9-3.8-1.9-5.1s-1.7-1.6-1.7-0.9s-0.4,0.8-0.5,1.3s-1,1-1,0.2s0.4-1.2-0.3-1.2s-1.1,1.3-1.1,1.3s-0.4,1.1-0.7,0.2
		c-0.4-0.9-0.9-1.6-1.3-0.8c-0.4,0.9-1.1,1.1-1.6,0.9c-0.5-0.1-1.1-0.4-1.1,0.4c0,0.7,0.4,1.3-0.3,1.4c-0.6,0.1,0.3,1.3,0.8,1.4
		s-0.1,0.9-0.1,0.9s0,0.3,0.4,0.9s0.6,1.2,1.4,2.2s1.3,1.7,0.7,2c-0.6,0.3-1.3,0.1-1.3,0.1s0.5,0.7-0.4,0.6s-2.1-0.8-2,0.1
		s0.6,2,1.4,2.1s1.3-0.5,1.8-0.5s1.3,0.9,1.3,1.3c0,0.5-0.8,0.7-1.2,0.7c-0.4,0,0,0.8-0.4,1.3s-0.8,0.9-0.2,1.1
		c0.6,0.2,1.4,0.6,1.9,1.1s1.1,1.1,1.9,0.5s2.3-0.7,2.3-0.9s0,1.1,0,1.1s-2.6,3-1.2,4.6c0,0-1,0.2-1.1,1.1c-0.1,0.8-1,1.3-1,1.3
		s-0.8-0.2-1.3-0.2s-1.1,0.8,0,0.8c1.1,0.1,1.1,0.1,1.1,0.1s1.1,0.3,1.6,0.3s1,0.3,1,0.3S94,119,94.9,119s1.3,0.1,1.8-0.4
		c0.4-0.4,0.8-0.4,0.8-0.4s0,1.8,1.1,2.1c1.1,0.2,2.8,2.1,2.6,3.6c-0.2,1.6,1,2.8,1.1,0.9s0-2.6,0.9-3s0.3,0.1,0.3,0.1
		s-0.7,2.8,0.4,2.8s1.6-1.1,2-1.1s0.6-0.1,1.3-0.7c0.7-0.6,2.5-1.1,2.9-1.1s-2.1,0.4-2.4,2s-1.3,2-2.1,2.1c-0.7,0.1,0.1,0.9-0.2,1.3
		c-0.3,0.4-1.3-0.1-1.7,0.6c-0.4,0.6-1.3,1.4-1.3,1.4l-0.6,2.1c0,0-0.9-0.6-1.1-0.2s-1.8,1.5-2.8,1.7s-0.6,1.3-0.2,1.4
		c0.4,0.1-1.7-0.4-3.6,0.4c-1.9,0.7-2.4,2.1-2.9,2.1s-1.1,0-1.1,0s-1.3-1.3-2.5-0.9c-1.1,0.4-0.4,1.2-0.4,1.2s-0.4-0.2-2.3,0.1
		c-1.9,0.4-2.4,0.6-2.1,1.8c0.4,1.1,1,2.1,1.7,0.9s1.8-1.9,2-1.5c0.1,0.4-1.1,1.7,0.6,1.7c1.8,0,1.8-0.6,1.8-0.6s0.6,0.2,1.3,0.2
		c0.6,0,2.3-1.7,2.4-0.8c0.1,0.8-0.6,2.3,0,2.3s1.3-1.8,1.3-1.8s0.2-0.5,0.8-0.2c0.6,0.3,2.7-0.3,3.5-0.3s1.8-0.4,1.1-1.1
		c-0.8-0.6-1.1-1.6-0.2-1.5s1.2,1.1,1.7,0.9c0.5-0.2,0.8-0.5,0.8-0.5s0.7,0.4,0.8,0.1c0.1-0.3,0.1-1.2,0.1-1.2s0.8-0.2,1,0.3
		s0.7,0.6,0.7,0.6s0.4-0.9,0.8-1c0.5-0.1,0.4-0.9,0.4-0.9l1.1-0.1l0.7-1l0.3,0.4l2.1-0.7l0.1,0.7c0,0,0.9-2.2-0.1-2.2s-1.6-1-0.1-1
		s2.2-0.3,1.6,0.5s-0.4,1.8,0.3,1.1c0.7-0.7,1.6-2.3,1.6-2.3s0.1,2,1,1.6c0.8-0.4,0.5-1.6,0.5-1.6s0.4-1,1.1-0.9
		c0.6,0.1,0.9-0.6,1.3-0.6s1.1-0.1,1.1-0.1s0.6,0.2,0.7-0.4s0.3-1.1,1.1-1.1s0.6-0.8-0.6-0.8c-1.1,0-0.4-0.9-1.1-1.4
		s-0.8-0.9-0.7-1.8c0.1-0.9,1.3-0.5,1.3-1.1s0.7-1.2,1.5-1s3.4,0,3.4,0s-0.1-0.6,0.2-1.6c0.4-0.9,1.1-1.4,1.6-2.3s0.8-2.1,2-1.7
		c1.2,0.4,0.7-0.1,1.5-0.7c0.8-0.6,1.6-0.1,2.5-1s1.6-1.1,1.6-1.1l-0.1,1.2c0,0,2.4-1.6,2.8-1c0.4,0.6-2.1,2.3-2.1,2.3l1,0.5
		c0,0,2.5,1.5,1.8,2.4s-1,0.6-1.8-0.7c-0.9-1.3-1.6-0.9-1.6-0.9s-1-0.8-1.4-0.8s-0.5,0.6-1.5,0.7s-1.6,0.6-1.6,0.6s0.6,0.6-0.1,1.1
		c-0.7,0.5-1.9,1.8-2.6,4s0.7,1.5,1.2,0.6s1.1-1.5,1.8-0.6c0.6,0.9-0.5,2.1-1.9,2.2s-1.9,0.2-1.9,0.2l-0.6,1.5l1.6,0.3l1.4-0.1
		l0.9,1c0,0,0.8-0.3,1.2-1.1s0.6-2.2,0.6-2.2s2-1.3,1.5-0.3s-0.2,1.3-0.2,1.3l1.3-1.6c0,0,0.6,1.6,1.8-0.4l1-0.3
		c0,0-0.1,0.8,0.5,0.8s1.4,0,1.4,0s0.7-0.8,1.3-0.8c0.6-0.1,0.5-0.9,0.1-1.3s0.4-0.7,0.5-0.4s2.3,0.4,0.8-0.8s-2.1-1.8-2.1-1.8
		l3.1-2.2c0,0-1.3,2.2-0.4,2.2c1,0,1.4-0.6,1.4-0.6s0.5,0.5,1,0.5s1.7-2.1,2.2-1.7s-0.7,1.4-0.4,1.5s2.8-0.4,2.9,0.1
		c0.1,0.6-1,0.6-1.6,0.9s-2.1,0-2.5,1.1c0,0,0.6-0.1,1.5,0s2.3,0.6,2.5,1.1c0.2,0.6,0.1,1.6,1.1,1.7c0.9,0.1,1.6,0.1,1.6,0.9
		c0,0.9,0.2,1.1,1.6,1.1c1.3,0,3.1-0.5,3.8-0.1s0,1.2,1.8,0.9s1.4,0.7,2.8,0.7c1.3,0,1.1,0.7,2.3,0.7s0.4,0.7,1.1,1.5
		c0.7,0.8,1.6,1,1.6,1s-0.2,0.2,1.3,1.1c1.6,0.9,2,0.8,2,0.8s-0.7,0.6,0.3,0.6s2.1-0.4,2.2,1c0.1,1.3,0.9,2.3,0.9,2.3l1.9,1.8
		c0,0,1,0.7,1.1,0.2s1.3-0.3,1.3-0.3s0.4-0.2,1.1-0.1c0.7,0.1,1.2,0.2,2.1,0.7c0.9,0.5,0.8,0.1,0.1-1.4s-0.6-1.3-0.8-2.8
		c-0.1-1.5-0.6-2.5,0.1-2.5c0.8,0,1.1,1.8,1.1,1.8s1.8,4.2,3.3,5.3c1.6,1.1,2.1,3,2.1,3.9s0.5,2.1,0.9,2.1s0.9-0.3,1.1,0
		c0.2,0.3,3.1,0.8,3.1,0.8s-0.8,2,0.4,2.8s1.6,2.6,1.6,2.6s-1.5,2.1-0.7,2.1s1.7-1.7,2.7-1.3s1.2,1.8,1.2,2.5s0.5,1.7,0.5,1.7
		s0.2,0.4,0.4,0.4s1.2,0.3,1.2,0.3s0.6-1.7,1.3-1.7c0,0-1-3-2.4-4.2c-1.4-1.3-1.9-1.3-2-2.8s-0.2-3.6-3-3.6s-2.7-1.7-3.4-3.5
		s-1.4-3.3-3-4.7s-2.1-2.3-2.8-3.7c-0.8-1.3-2.3-2.8-4.6-2.8c-2.3,0.1-1.8,0.2-2.5,1.8s-1.3,3.3-2,1.8l-3.2-3c0,0,0.3-0.6-0.2-1.6
		c-0.5-1.1-0.4-0.9-0.4-1.6c0.1-0.7-1.4-0.9-2-0.7c-0.6,0.1-1.9,0-2.8-0.5c-0.9-0.5-1-0.3-1.5,0
		C163.3,124.9,161.9,123.6,161.5,123.8z"/>
	<path class="st1" d="M182.9,148.8c0,0,0.3,1.1-0.4,0.9s-0.9-1.2-1.4-2.1s-0.3-1.3-1.2-1.3c-0.8,0-2.9,0.5-2.2-0.9s0.5-2.1,1.6-2.1
		s1.4-0.5,1.8,0.2c0.4,0.7,0.2,1.4,0.6,1.5c0.4,0.1,1.1,1.3,1.1,2.1c0,0.9,0.2,1.7,0.2,1.7L182.9,148.8z"/>
	<path class="st1" d="M185.2,147.7c0,0-1.5,2-1.5,0.3c0-1.3-0.4-1.8-0.3-2.2c0-0.1,0.1-0.2,0.2-0.4c0.5-0.6,1.4-0.3,1.4-0.3
		s0.7-0.6,1-0.7s2.3,0.1,2.2,0.8c0,0.7-1.1,1.2-1.7,0.4c-0.6-0.8-0.5-1-0.5-1s0.5,1.4,0,1.5s-1.1-0.7-1.1-0.7s0.9,1.2,0.3,1.4
		c-0.6,0.2-1.7-1-1.7-1S185.4,147.3,185.2,147.7z"/>
	<path class="st1" d="M185.5,148.1c0,0,1.4,0.8,1.8-0.3c0.5-1-0.1-1.5-0.8-1.8S184.8,146.9,185.5,148.1z"/>
	<path class="st1" d="M186.1,149.7c0,0,0.5,2.1,0.9,3s0.4,1.3,0.4,1.7c0,0.3,1.1,0.7,1.1,0.7l0.3,0.7c0,0-1.4,0.1-1.7,0.6
		c-0.2,0.5,0.1,0.2,0.8,0.8c0.6,0.6,1.5,2.3,2,1.7c0.5-0.5,0.3-0.7-0.1-1.6c-0.4-0.8-0.6-1.1-0.6-1.1s1,0.3,1.5,0.9
		c0.4,0.6,1.4,2.1,1.8,1.8c0.5-0.3,0.4-1.4-0.1-1.9c-0.6-0.5,0.7-0.9,0.3-1.4s-1-0.1-1.2-0.8c-0.1-0.7,2.1-1.1,1.2-1.9
		c-0.9-0.8-2.4,0-1.6,0.8l0.3,0.4c0,0-0.6,0-0.9-0.1c-0.3-0.1-0.7-0.5-0.7-1.2c0-0.8-0.3-1.7-0.3-1.7s0-0.3-0.7-0.3
		C188.2,150.8,186.6,147.9,186.1,149.7z"/>
	<path class="st1" d="M189.2,149.6c0,0-2.2-0.9-1.3-1.7s1.7,0,2.1,0.3c0.5,0.4,1.9,1.7,1.3,2.2C190.6,151.1,189.2,149.6,189.2,149.6
		z"/>
	<path class="st1" d="M193.3,151.8v4.2c0,0-0.3,0.9,0.9,0.9s1.3-0.4,1-1.4s-0.6-1.5,0-2s-0.8-1.2-0.7-1.6S193.6,150.9,193.3,151.8z"
		/>
	<path class="st1" d="M197.3,156.3v1.1c0,0,0.8,0.7,1.1,0s0.1-1.3,0.1-1.3S197.6,155.9,197.3,156.3z"/>
	<path class="st1" d="M176.2,139.4l1.2,0.9l1.3,2.2c0,0,0.6-0.9,1.2-0.5c0.7,0.4,1.4-0.7,0.9-1.3s-1-0.6-1.3-1.2
		c-0.3-0.7-0.7-1.7-0.7-1.9s-1.5-0.1-1.4,0.5c0,0.6-1.7,0.4-1.4,1.2C176.2,140,176.2,139.4,176.2,139.4z"/>
	<path class="st1" d="M181.7,137.8l0.7,6c0,0,0.3,0.8,0.6,0.8s0.6-0.8,0.6-0.8l0.1-1.3c0,0,1.7-0.2,1.3-1.7
		C184.6,139.4,182.9,137.6,181.7,137.8z"/>
	<path class="st1" d="M114.1,137.1c0,0-0.5,2.1-1.5,0.8c-0.9-1.3,0.1-1.6,0.9-1.3s0.4,0.1,0.4,0.1l-1.4-1.2c0,0-0.9,0,0.1-0.6
		s1.2-1,1.7-1.2c0.4-0.2,1.7-0.8,1.7,0.1s-0.4,1.5,0.7,1.2c1-0.3,1.2-0.7,0.7-1.2s-1.8-1.2-1.1-1.6c0.7-0.4,1.6-0.7,1.5,0.1
		s0.7,0.7,0.9,0.8c0.2,0,1.2-0.6,1.7,0c0.5,0.5,0.4,1.2,0.4,1.2s1.9-0.5,1.9,0.6s-1.7,0.4-1.7,0.4s1.6,0.8,0.8,1.3s-1.7-0.6-1.7-0.6
		l-0.9,0.5c0,0,0.7,1.1,0.1,1.3c-0.6,0.1-2,1.4-2.3,0.9c-0.2-0.5,0.7-0.9,0-1.2s-0.7,0.2-1.2,0.8s-1.7,1.2-2,1
		c-0.2-0.2,1.2-0.9,0.7-1.7C114,136.7,114.1,137.1,114.1,137.1z"/>
	<path class="st1" d="M111.7,139c-0.2,0-2.5,1.3-0.8,1.7c1.6,0.4,2.3-0.8,2.1-1.3C112.8,138.9,111.7,139,111.7,139z"/>
	<path class="st1" d="M108,142.3c0,0-0.8,0.5-1.7,0.9c-0.9,0.4-1.9,1.1-0.6,1.4C107.1,144.9,107.7,145.4,108,142.3z"/>
	<path class="st1" d="M120.5,129.4l-1,1.3c0,0-0.8,1.3,0.6,1.1c1.5-0.2,2.1-0.9,2.6-0.6C123.2,131.6,123.5,129,120.5,129.4z"/>
	<path class="st1" d="M81.7,138.3c-0.2,0-0.8,0.5-1.7,0c-0.9-0.5-1.1-0.1-0.8,0.5c0.3,0.6,0.6,0.7,0.5,1.1c-0.1,0.5,0.8,1,1.2,0.8
		c0.5-0.2-0.2-0.9,0.5-0.9S82.7,138.7,81.7,138.3C80.9,137.9,81.7,138.3,81.7,138.3z"/>
	<path class="st1" d="M78.5,138c0,0-1.2,0.2-2.2,0.3s-2.4,0.1-2.4,0.1s-0.7,0.8,0.3,1.1c0.9,0.3,1.1,0.2,1.1,0.2s0.6,1.7,2.1,1.7
		l0.5-0.1c0,0-0.2-1.3,0.4-1.5S78.5,138,78.5,138z"/>
	<path class="st1" d="M74,140c0,0-0.7-0.3-1.3-0.9c-0.6-0.7-1.9,0.9-1,1.5c0.9,0.5,0.8,0.8,0.8,1.1c0,0.4-0.1,0.8,1.1,0.4
		C74.8,141.5,75.3,140.1,74,140z"/>
	<path class="st1" d="M68.5,140.5c0,0,0.9,0,0.9,0.7s0.2,0.9-0.8,0.9s-1.2-0.2-1-0.7C67.8,140.8,68.5,140.5,68.5,140.5z"/>
	<path class="st1" d="M67,140.5c-1.5,0-1.2,0.7-1.2,0.7s-0.4,0.9,0.8,0.9c1.1,0,1.1-0.7,0.7-1.4L67,140.5z"/>
	<path class="st1" d="M65,142.2c0,0-1,0.6-1.1,1c0,0.4-1.2,0.7-1.6,0.9c-0.4,0.2-0.4,0.5-0.9,0.4c-0.5,0-1.1,0-1.5-0.1
		c-0.4-0.2-1.2-0.6-0.7-0.9s1.5-0.5,1.9-0.2s0.3,0.9,0.3,0.9s0.6-0.5,0.4-0.9c-0.2-0.5-0.8-1.1-0.1-1.2c0.6-0.1,0.7-0.3,0.7-0.3
		s-1.2-0.2-0.2-0.8c0.9-0.6,2-0.8,2-0.1c0,0.6,0,0.9,0,0.9S65.4,141,65,142.2z"/>
	<path class="st1" d="M58.9,142.5c0,0-0.4,0.6-1.5,0.7c-1.1,0-1.3,0.5-1.7,0.9c-0.4,0.5-1.5,0.8-2.5,0.7s-2-0.7-0.4-0.8
		s1.6-0.7,2.5-1.1s0.8-0.6,1.7-0.6c1,0,0.7-0.7,1.2-0.8C59,141.4,59.8,141.6,58.9,142.5z"/>
	<path class="st1" d="M48.2,144.8c0,0,0-0.5,0.8-0.5c0.9,0,0.9,0.2,0.9,0.2v0.8L48.2,144.8z"/>
	<path class="st1" d="M47.1,144.2c0,0-0.4,0.7-1.5,0.7s-0.9-0.4-0.7-0.8C45.2,143.7,46.2,143.6,47.1,144.2z"/>
	<path class="st1" d="M39,142.1c0,0-1.4,0.3-0.9,0.8C38.5,143.4,39.6,143,39,142.1z"/>
	<path class="st1" d="M34.3,141.3c0,0,2.7,2.4,1.4,1.6c-1.3-0.8-2.6-1.8-2.7-1.9C32.8,140.9,34.3,141.3,34.3,141.3z"/>
	<path class="st1" d="M27.8,138.5c0.2,0.3,2.3,1.6,2.3,1.6l1.1-0.3l1.3,0.5l0.7-0.4l0.7-0.1c0,0-0.7-1.8-1.4-1.5
		c-0.8,0.3-0.2,0.7-0.2,0.7h-1.1l-2-1C29,137.9,27.3,137.6,27.8,138.5z"/>
	<path class="st1" d="M25.3,135.7v0.9h0.9C26.1,136.6,26.7,135.4,25.3,135.7z"/>
	<path class="st1" d="M23.9,135.6l-0.1,1.6l-2.5-0.3c0,0,1.4-1.2,1.6-1.4C22.9,135.3,23.9,135.2,23.9,135.6z"/>
	<polygon class="st1" points="21.2,134.5 20.6,134.9 21.2,135.4 22.2,134.8 21.4,134.4 21.2,134.3 	"/>
	<path class="st1" d="M19.4,133.1l-1.5-1.2l0.2,1.4c0,0-0.9,0.2-0.8,0.2s1.7,1.1,1.7,1.1l0.6,0.2l-0.3-1.1L19.4,133.1z"/>
	<path class="st1" d="M11.2,126.9c0.3,0,1.1,0.7,1.1,0.7l0.7-0.9l-1.3-0.8L11.2,126.9z"/>
	<polygon class="st1" points="7.5,125.5 9.1,128.9 8,129.1 7.4,125.8 	"/>
	<path class="st1" d="M3.7,121.5c0.2,0,1.3,0.3,1.3,0.3l0.9,0.1l0.6-0.5l0.1-0.7H3.2L3.7,121.5z"/>
	<path class="st1" d="M63.3,120.7C63.3,120.7,63.2,120.7,63.3,120.7c-0.3-0.2-0.9-0.7-1.2-0.4c-0.4,0.3-0.8,0.6-0.1,1.1
		s1.6,0.8,1.7,0.6C63.8,121.8,64.5,121.3,63.3,120.7z"/>
	<path class="st1" d="M61,115.2c0,0,0.4,1,1,0.6s1.4-0.8,1.9-1s1-0.9,0.4-1.2c-0.5-0.3-1.1-0.7-1.5-0.3c-0.5,0.4-1.5,0.7-2.4,0.7
		S60.4,114.8,61,115.2z"/>
	<path class="st1" d="M85.3,106c-0.1-0.1-0.5-0.5-0.5-1.4c0-1-0.5-1.5-1.3-1.3s-0.6,0.6-1.5,0.6s-2-0.2-2.1,0.2s1,0.8,1.3,0.8
		s0.8,0,0.4,0.5c-0.3,0.4-1.1,0.4-0.4,1.2s0.8,1.4,1.3,1.1s0.1-0.8,1.2-0.8C84.7,106.9,86.5,107.3,85.3,106z"/>
	<path class="st1" d="M65.3,89.9c0.5,0.6,0.8,0.8,0.2,1.5c-0.6,0.7-0.7,1.6-0.3,2.2c0.5,0.6,1.7,1,1.4,1.6c-0.4,0.6,0.6,1,1.1,0.3
		s0.6-1.2-0.2-1.9c-0.7-0.7-1.9-1.1-1.4-1.9c0.6-0.8,0.1-1.7-0.3-2.1C65.5,89.2,65,89.4,65.3,89.9z"/>
	<path class="st1" d="M81,103.8"/>
	<path class="st1" d="M80.9,76.1c0,0-2.2,0.7-2.5,1.9s-0.2,1.7-0.5,1.7s0.1,0.6,0.9,0.5s1-1,1.7-0.1s1.6,1.1,1.8,2.2
		c0.1,1.1,0.1,2.8,0.5,2.4c0.3-0.5,0.5-1.2,0.9-1.1c0.4,0,0,0.3,0.7,0.8s2.4,0.5,1.7-0.2c-0.7-0.7-0.6-1.7-0.6-1.7s-0.2,0.1-0.6-0.3
		s-0.4-0.9-0.5-1.1s-0.3-0.2-0.3-0.2s0.2,0,0.3-0.7c0-0.7-0.3-1.3-0.4-1.5c-0.2-0.2-0.6-0.5-1.1-0.2s-1.2,0.8-1.6,0
		s-0.1-1.1,0.1-1.5C81.1,76.7,80.9,76.1,80.9,76.1z"/>
</g>
<rect x="109.7" y="83.5" class="st2" width="113.3" height="46.2"/>
<text transform="matrix(1 0 0 1 109.0209 99.5028)" class="st3 st4 st5">Alaska</text>
<path class="st6" d="M24.6,164.9l-7.2-1.8l2.1,0.7l4.9,1.1c0,0-1.1,2.5-1.2,3.8c0,0.1,0,0.2,0,0.3c0.4-1.7,1.2-4,1.2-4
	s-0.8,2.2-1.2,4c-0.1,0.5-0.2,1.1-0.3,1.6c-0.1,1.2-0.8,2.5-1.1,2.9c-0.1,0.2-0.1,0.3-0.1,0.5c0,0.3,0.2,0.7,0.5,1.3
	c0.4,0.6,1,1.8,1.6,2.9c0.2,0.4,0.4,0.7,0.5,1c0.3,0.5,0.4,0.9,0.4,0.9s0.5,0.8,1,0.8c0,0-0.7,1.5-0.1,1.8c0.5,0.3,1.4,0.1,1.6,0.8
	c0,0.2,0.1,0.3,0.1,0.4c0,0.1,0,0.1,0.1,0.2c0.2,0.5,0.4,0.9,0.2,1.4c-0.1,0.6-0.3,1.7-0.1,2.5l0,0c0.5,1.1,1.3,1.4,1.4,2.2
	c0.1,0.2,0.1,0.5-0.1,0.8l0,0c-0.1,0.8-0.3,1.6,0.3,2.6c0.5,0.6,1.5,1.8,0.8,3.4c-0.1,0.3-0.3,0.7-0.6,1c-1.3,1.4-1.7,0.6-1.8,2.5
	c0,0.8-0.1,1.3-0.1,1.6c0,0.2,0,0.4,0,0.6s-0.1,0.3-0.2,0.5c0,0.1-0.1,0.2-0.1,0.2c-0.4,0.9-0.5,1.3-0.1,1.5s0.7,0.4,1.2-0.1
	c0.3-0.3,0.7-0.7,1.1-0.8c0.3-0.2,0.5-0.2,0.6,0.2c0.1,0.1,0.1,0.4,0,0.7c-0.1,1-0.3,1.4-0.3,1.9c0,0.1,0.1,0.2,0.1,0.3
	c0.5,0.8,1,4.4,1,5.5c0,0,0.1,0.4,0.4,0.9c0.1,0.1,0.2,0.2,0.3,0.2c0.5,0.4,1,1,1.3,1.5c0.2,0.3,0.3,0.6,0.3,0.9c0,0.1,0,0.3,0,0.4
	v0.1c0,0,0,0,0,0.1c0.1,0.5,0.3,1,0.6,1.6c0.4,0.6,0.8,1,0.8,1s0.2,0.3,0.6,0.7c1.2,0.9,2.4,1.6,4,1.5c1.2-0.1,2-0.3,2.5-0.4
	c0-0.2,1.1,0.1,1.1,0.4c0,0.2,0.1,0.4,0.3,0.5c0.1,0,0.1,0,0.2,0c0.8,0.1,2,0.2,2.2,0.6c0,0,1.2-0.8,1.8-0.4c0.2,0,0.4,0.1,0.6,0.3
	c0.3,0.3,0.4,0.7,0.5,0.9c0,0.1,0.1,0.1,0.1,0.2l0,0c0,0.1,0,0.1,0.1,0.2c0,0,0,0,0,0.1c0.1,0.1,0.2,0.2,0.4,0.2h0.1c0,0,0,0,0.1,0
	l0,0h0.1l2.1-0.1l1.4-5.9l54.9,8.4c0,0,0.3,0.2,0.5,0l0,0l0,0c0.1-0.1,0.2-0.3,0.2-0.7c0-0.3,0.6-4.8,1.3-10.7c0,0,0,0-0.1,0
	c0,0,0,0,0.1,0c1.7-13.3,4.3-34.3,4.3-34.3s-2.7,20.9-4.3,34.3l4.4-34.5C114.3,180.6,54.1,172.4,24.6,164.9z"/>
<path class="st7" d="M180.1,234l-54.9-8.4l-1.4,5.9c0.1,0,0.1,0,0.1,0l-6.2,28l-2.2,11.2l17.2,3.3v-0.2v0.2l0.5,0.1l42.4,5.3
	l0.1-0.3c-0.2-1.9,2.3-22.1,2.3-22.1l2.6-22.8C180.4,234.2,180.1,234,180.1,234z"/>
<path class="st8" d="M241.9,221.9c0-0.7,1.5-0.5,1.4-1.2s-0.7-1.2-0.7-2c0-0.7,0.2-3.4-0.7-3.7l24.8-1.6c0.4-2.1-0.8-4.4-1.2-7.4
	c-0.4-3,0.1-6.3,1.2-7.2s0.3-2.3,0.3-2.3l-3.7-6.5l-4.8-22.6c-10.1,1.4-25.5,1.8-25.5,1.8c0,0.9,0.8,1.4,0.8,1.4l-1.3,35.5l1.2,17.3
	c0.8,0,1.3,0,1.6-0.4s0.5,0,0.9,0s1.1-0.2,1.1-0.6c0-0.4,0.2-0.7-0.1-0.9c-0.3-0.3-0.2-1.5-0.2-1.5s-0.2-0.2,0.1-0.7
	s0.4-1.1-0.1-2.1s-0.7-1.9,0.2-2.9c0,0,0.2-0.2,0.2-0.5c0,0,0.2,0.8,0.4,1.5s0.8,1.4,0.8,1.6c0,0.2-0.6,0.9-0.5,1.6
	c0.1,0.7,1.2,1.5,1.3,2c0,0.5-0.1,1.6,0.3,1.7c0.4,0.1,1.1,0.8-0.2,1.3s-2.3,0.7-2.3,1s0.9,0.2,1.4,0s0.8-0.2,1.5-0.4
	c0.7-0.1,2.6-0.2,2.8-1.3C242.8,222.9,241.9,222.6,241.9,221.9z"/>
<rect x="41.5" y="216.1" class="st2" width="113.3" height="23.3"/>
<text transform="matrix(1 0 0 1 29.4796 201.0762)" class="st3 st4 st5">Montana</text>
<rect x="120.8" y="249" class="st2" width="113.3" height="46.2"/>
<text transform="matrix(1 0 0 1 120.4117 258.673)" class="st3 st4 st5">Wyoming</text>
<rect x="-75.5" y="160.4" class="st2" width="113.3" height="17.3"/>
<text transform="matrix(1 0 0 1 197.2747 83.7735)" class="st3 st4 st9">2.</text>
<rect x="238.6" y="522.1" class="st2" width="113.3" height="17.3"/>
<text transform="matrix(1 0 0 1 223.4618 240.3902)" class="st3 st4 st5">Alabama</text>
<text transform="matrix(1 0 0 1 48.6009 15.3962)" class="st10 st4 st11">Equipment Rental Interest</text>
<rect x="54.5" y="61.4" class="st2" width="83.5" height="58.7"/>
<text transform="matrix(1 0 0 1 54.5119 76.5513)" class="st4 st9">1. </text>
<rect x="212.3" y="105.8" class="st2" width="69.3" height="33.6"/>
<text transform="matrix(1 0 0 1 212.2687 115.5588)" class="st3 st4 st5"> Oklahoma</text>
<rect x="8.1" y="210.4" class="st2" width="53.3" height="41"/>
<text transform="matrix(1 0 0 1 8.0615 225.5916)" class="st4 st9"> 3.</text>
<rect x="215.7" y="186.6" class="st2" width="74.3" height="50.7"/>
<text transform="matrix(1 0 0 1 215.6958 201.7172)" class="st3 st4 st9">5. </text>
<rect x="93.9" y="241.7" class="st2" width="33.1" height="31.1"/>
<text transform="matrix(1 0 0 1 93.8627 256.8754)" class="st4 st9">4. </text>
</svg>
