<?xml version="1.0" encoding="utf-8"?>
<!-- Generator: Adobe Illustrator 23.0.1, SVG Export Plug-In . SVG Version: 6.00 Build 0)  -->
<svg version="1.1" id="Layer_1" xmlns="http://www.w3.org/2000/svg" xmlns:xlink="http://www.w3.org/1999/xlink" x="0px" y="0px"
	 viewBox="0 0 1920 1080" style="enable-background:new 0 0 1920 1080;" xml:space="preserve">
<style type="text/css">
	.st0{fill:#71A2C3;stroke:#71A2C3;stroke-miterlimit:10;}
	.st1{fill:#FFFFFF;stroke:#FFFFFF;stroke-miterlimit:10;}
	.st2{fill:#FFFFFF;stroke:#71A2C3;stroke-miterlimit:10;}
	.st3{fill:#F7F8F8;stroke:#71A2C3;stroke-miterlimit:10;}
	.st4{fill:none;stroke:#71A2C3;stroke-miterlimit:10;}
	.st5{fill:#C25892;stroke:#C35892;stroke-width:2;stroke-miterlimit:10;}
	.st6{fill:#FFFFFF;stroke:#C25892;stroke-miterlimit:10;}
	.st7{fill:#F8F7F8;stroke:#F7F0F3;stroke-miterlimit:10;}
	.st8{fill:#F8F7F9;stroke:#F8F7F9;stroke-miterlimit:10;}
	.st9{fill:#C25892;}
	.st10{fill:#F9F9FA;stroke:#FFFFFF;stroke-miterlimit:10;}
	.st11{fill:#F8F7F9;stroke:#C25892;stroke-miterlimit:10;}
	.st12{fill:#F8F7F8;stroke:#F8F7F9;stroke-miterlimit:10;}
	.st13{fill:#FFFEFE;stroke:#F8F7F9;stroke-miterlimit:10;}
	.st14{fill:none;stroke:#C25892;stroke-miterlimit:10;}
	.st15{fill:#215977;stroke:#215977;stroke-miterlimit:10;}
	.st16{fill:#FFFFFF;stroke:#215977;stroke-miterlimit:10;}
	.st17{fill:#F4F6F9;stroke:#215977;stroke-miterlimit:10;}
	.st18{fill:none;stroke:#215977;stroke-miterlimit:10;}
	.st19{fill:#B18993;stroke:#B18993;stroke-miterlimit:10;}
	.st20{fill-rule:evenodd;clip-rule:evenodd;fill:#FFFFFF;stroke:#B18993;stroke-miterlimit:10;}
	.st21{fill-rule:evenodd;clip-rule:evenodd;fill:#B18993;}
	.st22{fill:none;stroke:#FFFFFF;stroke-miterlimit:10;}
	.st23{fill:#927894;stroke:#917894;stroke-miterlimit:10;}
	.st24{fill:#F7F8F9;stroke:#927894;stroke-miterlimit:10;}
	.st25{fill:#927894;}
	.st26{fill:#E9AF9B;stroke:#E8B09C;stroke-miterlimit:10;}
	.st27{fill:#F9F9FA;}
	.st28{fill:none;stroke:#F8F7F7;stroke-miterlimit:10;}
	.st29{fill:#D37384;stroke:#D47384;stroke-miterlimit:10;}
	.st30{fill:#FFFFFF;stroke:#D37384;stroke-miterlimit:10;}
	.st31{fill:none;}
	.st32{fill:#F7F6F6;}
	.st33{fill:none;stroke:#D37384;stroke-miterlimit:10;}
	.st34{fill:#FCFAFC;stroke:#D37384;stroke-miterlimit:10;}
	.st35{fill:#D37384;}
	.st36{fill:none;stroke:#E9AF9B;stroke-miterlimit:10;}
	.st37{opacity:0.9;fill:#FFFFFF;enable-background:new    ;}
	.st38{fill:#E9AF9B;}
	.st39{font-family:'GoodlifeBrush';}
	.st40{font-size:100px;}
	.st41{fill:none;stroke:#E8B09C;stroke-miterlimit:10;}
	.st42{fill:#9B9B9B;}
	.st43{font-size:48px;}
	.st44{font-size:72px;}
	.st45{font-family:'MyriadPro-Regular';}
	.st46{font-size:12px;}
</style>
<g>
	<g>
		<g>
			<g>
				
					<ellipse transform="matrix(0.7071 -0.7071 0.7071 0.7071 -310.1119 997.2964)" class="st0" cx="1048.8" cy="873" rx="119.8" ry="119.8"/>
				<polygon class="st1" points="949.7,860.3 966.4,839.6 1050.1,839.6 1050.1,860.3 				"/>
				<polygon class="st1" points="1150.1,860.3 1133.3,839.6 1049.8,839.6 1049.8,860.3 				"/>
				<rect x="953.2" y="860.3" class="st2" width="193.1" height="64.3"/>
				<rect x="1025.2" y="820.6" class="st3" width="51" height="50.6"/>
				<polygon class="st1" points="1076.1,820.6 1025.2,820.6 1050.8,798.6 				"/>
				<rect x="1021.6" y="820.6" class="st0" width="58.1" height="4.2"/>
				<polygon class="st0" points="1095.2,874.8 1050.1,837.3 1004.5,874.8 1010.7,874.8 1050.1,842.5 1089.2,874.8 				"/>
				<path class="st2" d="M1050.1,880.3c-9.9,0-17.7,8.1-17.7,17.7v2.3v23.9h16.4h2.6h16.4v-23.9V898
					C1067.8,888.4,1059.7,880.3,1050.1,880.3z"/>
				<rect x="1048.8" y="898.7" class="st2" width="2.3" height="25.9"/>
				<rect x="1032" y="897.4" class="st2" width="36.1" height="1.6"/>
				<g>
					<rect x="1096.5" y="878.7" class="st2" width="19" height="15.5"/>
					<line class="st4" x1="1106.3" y1="893.8" x2="1106.3" y2="878.3"/>
				</g>
				<g>
					<rect x="1120.8" y="879" class="st2" width="19" height="45.6"/>
					<line class="st4" x1="1130.4" y1="923.6" x2="1130.4" y2="878.3"/>
				</g>
				<g>
					<rect x="1096.5" y="899" class="st2" width="19" height="15.5"/>
					<line class="st4" x1="1106.3" y1="914.2" x2="1106.3" y2="898.7"/>
				</g>
				<g>
					<rect x="960.2" y="879" class="st2" width="19" height="45.6"/>
					<line class="st4" x1="970" y1="923.6" x2="970" y2="878.3"/>
				</g>
				<g>
					<rect x="984.5" y="878.7" class="st2" width="19" height="15.5"/>
					<line class="st4" x1="994.3" y1="893.8" x2="994.3" y2="878.3"/>
				</g>
				<g>
					<rect x="984.5" y="899" class="st2" width="19" height="15.5"/>
					<line class="st4" x1="994.3" y1="914.2" x2="994.3" y2="898.7"/>
				</g>
			</g>
			<g>
				<circle class="st5" cx="580.1" cy="455.9" r="50.6"/>
				<rect x="561.8" y="431.5" class="st6" width="36.2" height="51"/>
				<rect x="559.7" y="430.4" class="st7" width="40.3" height="2.8"/>
				<rect x="561.8" y="476.1" class="st8" width="36.2" height="6.4"/>
				<rect x="575.4" y="472" class="st9" width="8.5" height="10.6"/>
				<rect x="541.9" y="448.4" class="st10" width="19.8" height="34.1"/>
				<rect x="545.3" y="452.4" class="st11" width="13.2" height="3.9"/>
				
					<rect x="550" y="455.4" transform="matrix(5.921128e-03 -1 1 5.921128e-03 86.7266 1011.2198)" class="st11" width="3.9" height="13.2"/>
				<rect x="545.3" y="467.9" class="st11" width="13.2" height="3.9"/>
				<rect x="540.6" y="447.4" class="st12" width="21.2" height="2.5"/>
				<rect x="597.7" y="448.4" class="st13" width="19.8" height="34.1"/>
				<rect x="601.2" y="452.4" class="st11" width="13.2" height="3.9"/>
				<rect x="601.2" y="460.1" class="st11" width="13.2" height="3.9"/>
				<rect x="601.2" y="467.9" class="st11" width="13.2" height="3.9"/>
				<rect x="545.3" y="475.2" class="st11" width="13.2" height="3.9"/>
				<rect x="601.2" y="475.2" class="st11" width="13.2" height="3.9"/>
				<rect x="597.7" y="447.4" class="st7" width="21.2" height="2.5"/>
				<g>
					<rect x="564.6" y="459.6" class="st6" width="5.9" height="8.4"/>
					<line class="st14" x1="567.7" y1="459.6" x2="567.7" y2="467.6"/>
					<line class="st14" x1="564.7" y1="464" x2="570.1" y2="464"/>
				</g>
				<g>
					<rect x="572.9" y="459.6" class="st6" width="5.9" height="8.4"/>
					<line class="st14" x1="575.9" y1="459.6" x2="575.9" y2="467.6"/>
					<line class="st14" x1="573" y1="464" x2="578.4" y2="464"/>
				</g>
				<g>
					<rect x="581" y="459.6" class="st6" width="5.9" height="8.4"/>
					<line class="st14" x1="583.9" y1="459.6" x2="583.9" y2="467.6"/>
					<line class="st14" x1="581.1" y1="464" x2="586.5" y2="464"/>
				</g>
				<g>
					<rect x="589.4" y="459.3" class="st6" width="5.9" height="8.4"/>
					<line class="st14" x1="592.4" y1="459.3" x2="592.4" y2="467.6"/>
					<line class="st14" x1="589.5" y1="463.9" x2="595" y2="463.9"/>
				</g>
				<g>
					<rect x="564.6" y="448.4" class="st6" width="5.9" height="8.4"/>
					<line class="st14" x1="567.7" y1="448.4" x2="567.7" y2="456.6"/>
					<line class="st14" x1="564.7" y1="453.1" x2="570.1" y2="453.1"/>
				</g>
				<g>
					<rect x="572.9" y="448.4" class="st6" width="5.9" height="8.4"/>
					<line class="st14" x1="575.9" y1="448.4" x2="575.9" y2="456.6"/>
					<line class="st14" x1="573" y1="453.1" x2="578.4" y2="453.1"/>
				</g>
				<g>
					<rect x="581" y="448.4" class="st6" width="5.9" height="8.4"/>
					<line class="st14" x1="583.9" y1="448.4" x2="583.9" y2="456.6"/>
					<line class="st14" x1="581.1" y1="453.1" x2="586.5" y2="453.1"/>
				</g>
				<g>
					<rect x="589.4" y="448.4" class="st6" width="5.9" height="8.4"/>
					<line class="st14" x1="592.4" y1="448.4" x2="592.4" y2="456.5"/>
					<line class="st14" x1="589.5" y1="452.9" x2="595" y2="452.9"/>
				</g>
				<g>
					<rect x="564.6" y="437.4" class="st6" width="5.9" height="8.4"/>
					<line class="st14" x1="567.7" y1="437.4" x2="567.7" y2="445.5"/>
					<line class="st14" x1="564.7" y1="442" x2="570.1" y2="442"/>
				</g>
				<g>
					<rect x="572.9" y="437.4" class="st6" width="5.9" height="8.4"/>
					<line class="st14" x1="575.9" y1="437.4" x2="575.9" y2="445.5"/>
					<line class="st14" x1="573" y1="442" x2="578.4" y2="442"/>
				</g>
				<g>
					<rect x="581" y="437.4" class="st6" width="5.9" height="8.4"/>
					<line class="st14" x1="583.9" y1="437.4" x2="583.9" y2="445.5"/>
					<line class="st14" x1="581.1" y1="442" x2="586.5" y2="442"/>
				</g>
				<g>
					<rect x="589.4" y="437.3" class="st6" width="5.9" height="8.4"/>
					<line class="st14" x1="592.4" y1="437.3" x2="592.4" y2="445.4"/>
					<line class="st14" x1="589.5" y1="441.8" x2="595" y2="441.8"/>
				</g>
			</g>
			<g>
				<circle class="st15" cx="791.8" cy="223.4" r="58.1"/>
				<g>
					<path class="st16" d="M741.9,233.3c-0.2-0.8-0.3-1.7-0.3-2.5c0-6.2,4.5-11.2,10.4-12v-0.2c0-9.9,8-17.9,17.9-17.9H799
						c9.9,0,24.8,8,24.8,17.9h7.7c6.7,0,12.2,5.5,12.2,12.2c0,0.8-0.2,1.7-0.3,2.5C843.5,233.3,741.9,233.3,741.9,233.3z"/>
					<path class="st17" d="M768.7,206.2h32c5.7,0,17.2,4.7,17.2,10.4h-59.6C758.3,210.9,762.8,206.2,768.7,206.2z"/>
					<g>
						<path class="st17" d="M745.4,231c0,5,4,9,9,9s9-4,9-9s-4-9-9-9C749.4,221.9,745.4,226,745.4,231z"/>
						<path class="st17" d="M750,231c0,2.5,2,4.5,4.5,4.5s4.5-2,4.5-4.5s-2-4.5-4.5-4.5S750,228.5,750,231z"/>
					</g>
					<g>
						<path class="st17" d="M821.4,231c0,5,4,9,9,9s9-4,9-9s-4-9-9-9C825.4,221.9,821.4,226,821.4,231z"/>
						<path class="st17" d="M825.9,231c0,2.5,2,4.5,4.5,4.5s4.5-2,4.5-4.5s-2-4.5-4.5-4.5C827.9,226.4,825.9,228.5,825.9,231z"/>
					</g>
					<line class="st18" x1="800.6" y1="206.2" x2="800.6" y2="216.6"/>
					<line class="st18" x1="779.1" y1="206.2" x2="779.1" y2="216.6"/>
				</g>
			</g>
			<g>
				<circle class="st19" cx="1565.9" cy="170.8" r="126.3"/>
				<path class="st20" d="M1587.9,93.4c-0.6,2.6-0.6,3.8-1.5,5.6c-1.8,5-3.5,14.9-2.6,18.8c0.9,3.8,7,14.1,7,27.5
					c0,4.4-0.6,10.3-1.5,17c-17,5.9-30.8,3.5-40.4,0.3c-0.6-6.7-0.9-13.2-0.6-17.6c0.6-13.2,6.4-25.2,7-29
					c0.9-3.8-1.8-12.9-2.9-17.3c-0.3-0.9-0.6-2.9-0.9-5c2.9-3.5,6.2-4.4,9.1-3.5c3.8,0.9,5,2.9,8.5,3.5c2.9-0.3,5-2.3,8.8-3.5
					C1581.5,88.4,1585,89.6,1587.9,93.4z"/>
				<path class="st1" d="M1552.2,92.5C1552.2,93.1,1552.2,93.1,1552.2,92.5c-0.3,0.3-0.3,0-0.3,0V76.1c0,0,0-0.3,0.3-0.3
					c0,0,0.3,0,0.3,0.3v16.7h-0.3V92.5z"/>
				<path class="st1" d="M1587.9,93.4L1587.9,93.4c-0.3,0.3-0.3,0-0.3,0v-17c0,0,0-0.3,0.3-0.3c0,0,0.3,0,0.3,0.3v17H1587.9z"/>
				<path class="st20" d="M1590,159.6c-5,1.5-11.1-4.4-14.9-14.9c-0.6,3.8-2.1,13.5-5,18.2c-3.5-4.7-4.4-14.4-5-18.2
					c-3.8,10.5-10,16.4-14.9,14.9c0.9,18.8-16.7,82.3-45.7,96.4c-10.8,7.6,14.1,10.3,33.7,5.9c-3.8,12.9,66.8,15.5,64.8-0.3
					c19.6,4.4,44.5,1.8,33.7-5.9C1606.7,242,1588.8,178.4,1590,159.6z"/>
				<path class="st21" d="M1554.5,159.6c2.9,14.1-5.6,76.8-17,102.8c-1.5,0.3-4.4,0.6-6.2,0.9C1544,236.7,1556.8,172.2,1554.5,159.6
					z"/>
				<path class="st21" d="M1583.5,158.8c-2.9,14.1,5.6,76.5,17.3,102.8c1.5,0.3,4.4,0.6,6.2,0.9
					C1593.8,235.2,1580.9,170.8,1583.5,158.8z"/>
				<path class="st22" d="M1566.8,61.8c0,0-0.3-3.8,3.8-3.5c2.1,0.3,3.8,4.7-0.9,6.2l-0.3,4.4l-27,9.7l27-9.7"/>
				<line class="st22" x1="1597.3" y1="77" x2="1569.7" y2="69.1"/>
			</g>
			<g>
				<circle class="st23" cx="691" cy="610.1" r="56.7"/>
				<polygon class="st24" points="702.6,657.5 681.4,657.5 681.4,561.1 702.6,577.9 				"/>
				<g>
					<g>
						<rect x="684.9" y="584.4" class="st25" width="3.3" height="3.3"/>
						<rect x="689.9" y="584.4" class="st25" width="3.3" height="3.3"/>
						<rect x="695.4" y="584.4" class="st25" width="3.3" height="3.3"/>
					</g>
					<g>
						<rect x="684.9" y="591.2" class="st25" width="3.3" height="3.3"/>
						<rect x="689.9" y="591.2" class="st25" width="3.3" height="3.3"/>
						<rect x="695.4" y="591.2" class="st25" width="3.3" height="3.3"/>
					</g>
					<g>
						<rect x="684.9" y="597.7" class="st25" width="3.3" height="3.3"/>
						<rect x="689.9" y="597.7" class="st25" width="3.3" height="3.3"/>
						<rect x="695.4" y="597.7" class="st25" width="3.3" height="3.3"/>
					</g>
					<g>
						<rect x="684.9" y="604.5" class="st25" width="3.3" height="3.3"/>
						<rect x="689.9" y="604.5" class="st25" width="3.3" height="3.3"/>
						<rect x="695.4" y="604.5" class="st25" width="3.3" height="3.3"/>
					</g>
				</g>
				<g>
					<g>
						<rect x="684.9" y="611.2" class="st25" width="3.3" height="3.3"/>
						<rect x="689.9" y="611.2" class="st25" width="3.3" height="3.3"/>
						<rect x="695.4" y="611.2" class="st25" width="3.3" height="3.3"/>
					</g>
					<g>
						<rect x="684.9" y="618" class="st25" width="3.3" height="3.3"/>
						<rect x="689.9" y="618" class="st25" width="3.3" height="3.3"/>
						<rect x="695.4" y="618" class="st25" width="3.3" height="3.3"/>
					</g>
					<g>
						<rect x="684.9" y="624.5" class="st25" width="3.3" height="3.3"/>
						<rect x="689.9" y="624.5" class="st25" width="3.3" height="3.3"/>
						<rect x="695.4" y="624.5" class="st25" width="3.3" height="3.3"/>
					</g>
					<g>
						<rect x="684.9" y="631.3" class="st25" width="3.3" height="3.3"/>
						<rect x="689.9" y="631.3" class="st25" width="3.3" height="3.3"/>
						<rect x="695.4" y="631.3" class="st25" width="3.3" height="3.3"/>
					</g>
				</g>
				<g>
					<rect x="684.9" y="638" class="st25" width="3.3" height="3.3"/>
					<rect x="689.9" y="638" class="st25" width="3.3" height="3.3"/>
					<rect x="695.4" y="638" class="st25" width="3.3" height="3.3"/>
				</g>
				<g>
					<rect x="684.9" y="645" class="st25" width="3.3" height="3.3"/>
					<rect x="689.9" y="645" class="st25" width="3.3" height="3.3"/>
					<rect x="695.4" y="645" class="st25" width="3.3" height="3.3"/>
				</g>
				<g>
					<rect x="684.9" y="651.3" class="st25" width="3.3" height="3.3"/>
					<rect x="689.9" y="651.3" class="st25" width="3.3" height="3.3"/>
					<rect x="695.4" y="651.3" class="st25" width="3.3" height="3.3"/>
				</g>
			</g>
			<g>
				<circle class="st23" cx="1470.3" cy="474.4" r="117.9"/>
				<polygon class="st24" points="1494.3,572.8 1450.3,572.8 1450.3,372.3 1494.3,407.2 				"/>
				<g>
					<g>
						<rect x="1457.6" y="420.8" class="st25" width="6.8" height="6.8"/>
						<rect x="1468" y="420.8" class="st25" width="6.8" height="6.8"/>
						<rect x="1479.3" y="420.8" class="st25" width="6.8" height="6.8"/>
					</g>
					<g>
						<rect x="1457.6" y="434.9" class="st25" width="6.8" height="6.8"/>
						<rect x="1468" y="434.9" class="st25" width="6.8" height="6.8"/>
						<rect x="1479.3" y="434.9" class="st25" width="6.8" height="6.8"/>
					</g>
					<g>
						<rect x="1457.6" y="448.5" class="st25" width="6.8" height="6.8"/>
						<rect x="1468" y="448.5" class="st25" width="6.8" height="6.8"/>
						<rect x="1479.3" y="448.5" class="st25" width="6.8" height="6.8"/>
					</g>
					<g>
						<rect x="1457.6" y="462.6" class="st25" width="6.8" height="6.8"/>
						<rect x="1468" y="462.6" class="st25" width="6.8" height="6.8"/>
						<rect x="1479.3" y="462.6" class="st25" width="6.8" height="6.8"/>
					</g>
				</g>
				<g>
					<g>
						<rect x="1457.6" y="476.6" class="st25" width="6.8" height="6.8"/>
						<rect x="1468" y="476.6" class="st25" width="6.8" height="6.8"/>
						<rect x="1479.3" y="476.6" class="st25" width="6.8" height="6.8"/>
					</g>
					<g>
						<rect x="1457.6" y="490.7" class="st25" width="6.8" height="6.8"/>
						<rect x="1468" y="490.7" class="st25" width="6.8" height="6.8"/>
						<rect x="1479.3" y="490.7" class="st25" width="6.8" height="6.8"/>
					</g>
					<g>
						<rect x="1457.6" y="504.3" class="st25" width="6.8" height="6.8"/>
						<rect x="1468" y="504.3" class="st25" width="6.8" height="6.8"/>
						<rect x="1479.3" y="504.3" class="st25" width="6.8" height="6.8"/>
					</g>
					<g>
						<rect x="1457.6" y="518.4" class="st25" width="6.8" height="6.8"/>
						<rect x="1468" y="518.4" class="st25" width="6.8" height="6.8"/>
						<rect x="1479.3" y="518.4" class="st25" width="6.8" height="6.8"/>
					</g>
				</g>
				<g>
					<rect x="1457.6" y="532.4" class="st25" width="6.8" height="6.8"/>
					<rect x="1468" y="532.4" class="st25" width="6.8" height="6.8"/>
					<rect x="1479.3" y="532.4" class="st25" width="6.8" height="6.8"/>
				</g>
				<g>
					<rect x="1457.6" y="546.9" class="st25" width="6.8" height="6.8"/>
					<rect x="1468" y="546.9" class="st25" width="6.8" height="6.8"/>
					<rect x="1479.3" y="546.9" class="st25" width="6.8" height="6.8"/>
				</g>
				<g>
					<rect x="1457.6" y="560.1" class="st25" width="6.8" height="6.8"/>
					<rect x="1468" y="560.1" class="st25" width="6.8" height="6.8"/>
					<rect x="1479.3" y="560.1" class="st25" width="6.8" height="6.8"/>
				</g>
			</g>
			<g>
				<circle class="st26" cx="842.1" cy="677.5" r="53.9"/>
				<path class="st27" d="M838.9,713.2c-1-2-0.1-4.4,1.9-5.3c2-1,4.4-0.1,5.3,1.9c1,2,0.1,4.4-1.9,5.3
					C842.1,716.1,839.9,715.2,838.9,713.2z"/>
				<path class="st27" d="M847.5,711.3c-0.9-1.9-0.1-4.1,1.7-5s3.9-0.1,4.8,1.7c0.9,1.9,0.1,4.1-1.7,5
					C850.7,713.8,848.4,712.9,847.5,711.3z"/>
				<path class="st27" d="M854.4,706.5c-0.9-1.7-0.1-3.8,1.7-4.6c1.7-0.9,3.8-0.1,4.6,1.7c0.9,1.7,0.1,3.8-1.7,4.6
					C857.3,708.9,855.3,708.2,854.4,706.5z"/>
				<path class="st27" d="M858.6,699.1c-0.9-1.7-0.1-3.6,1.5-4.4c1.7-0.9,3.6-0.1,4.4,1.5c0.9,1.7,0.1,3.6-1.5,4.4
					C861.3,701.5,859.2,700.9,858.6,699.1z"/>
				<path class="st27" d="M859.7,691.7c-0.6-1.5,0-3.4,1.4-4.1c1.5-0.6,3.4,0,4.1,1.4c0.6,1.5,0,3.4-1.4,4.1
					C862.3,693.8,860.5,693.1,859.7,691.7z"/>
				<path class="st27" d="M858.9,684.2c-0.6-1.5-0.1-3.4,1.4-4.1s3.4-0.1,4.1,1.4c0.6,1.5,0,3.4-1.4,4.1
					C861.5,686.4,859.7,685.7,858.9,684.2z"/>
				<path class="st27" d="M857.3,677.5c-0.6-1.4-0.1-3.1,1.4-3.8s3.1-0.1,3.8,1.4c0.6,1.4,0,3.1-1.4,3.8
					C859.7,679.6,858.1,678.9,857.3,677.5z"/>
				<path class="st27" d="M854.7,671.5c-0.6-1.4-0.1-3.1,1.4-3.8c1.4-0.6,3.1,0,3.8,1.4c0.6,1.4,0,3.1-1.4,3.8
					C857.1,673.4,855.3,672.9,854.7,671.5z"/>
				<path class="st27" d="M851.7,665.9c-0.5-1.1,0-2.8,1.1-3.4s2.8,0,3.4,1.1c0.6,1.1,0,2.8-1.1,3.4
					C853.8,667.8,852.4,667.3,851.7,665.9z"/>
				<path class="st27" d="M848.2,661.5c-0.5-1.1,0-2.5,1.1-3.3c1.1-0.5,2.5,0,3.3,1.1c0.5,1.1,0,2.5-1.1,3.3
					C850.2,663.4,848.7,662.6,848.2,661.5z"/>
				<path class="st27" d="M843.5,658.4c-0.5-1.1,0-2.5,1.1-3.3c1.1-0.5,2.5,0,3.3,1.1c0.5,1.1,0,2.5-1.1,3.3
					C845.4,660.1,844,659.6,843.5,658.4z"/>
				<path class="st27" d="M830.8,711.3c-0.9-1.9-0.1-4.1,1.7-5c1.9-0.9,3.9-0.1,4.8,1.7c0.9,1.8,0.1,4.1-1.7,5
					C833.9,713.8,831.6,712.9,830.8,711.3z"/>
				<path class="st27" d="M824.3,706.5c-0.9-1.7-0.1-3.8,1.7-4.6c1.7-0.9,3.8-0.1,4.6,1.7c0.9,1.7,0.1,3.8-1.7,4.6
					C827.2,708.9,825,708.2,824.3,706.5z"/>
				<path class="st27" d="M820.6,699.1c-0.9-1.7-0.1-3.6,1.5-4.4c1.7-0.9,3.6-0.1,4.4,1.5c0.9,1.7,0.1,3.6-1.5,4.4
					C823.3,701.5,821.4,700.9,820.6,699.1z"/>
				<path class="st27" d="M819.7,691.7c-0.6-1.5,0-3.4,1.4-4.1c1.5-0.6,3.4,0,4.1,1.4c0.6,1.5,0.1,3.4-1.4,4.1
					C822.2,693.8,820.6,693.1,819.7,691.7z"/>
				<path class="st27" d="M820.6,684.2c-0.6-1.5,0-3.4,1.4-4.1c1.5-0.6,3.4-0.1,4.1,1.4c0.6,1.5,0.1,3.4-1.4,4.1
					S821.2,685.7,820.6,684.2z"/>
				<path class="st27" d="M822.6,677.5c-0.6-1.4,0-3.1,1.4-3.8s3.1-0.1,3.8,1.4c0.6,1.4,0,3.1-1.4,3.8
					C824.8,679.6,823.3,678.9,822.6,677.5z"/>
				<path class="st27" d="M825.3,671.5c-0.6-1.4,0-3.1,1.4-3.8c1.4-0.6,3.1,0,3.8,1.4c0.6,1.4,0,3.1-1.4,3.8
					C827.7,673.4,826.1,672.9,825.3,671.5z"/>
				<path class="st27" d="M828.7,665.9c-0.5-1.1,0-2.8,1.1-3.4s2.8,0,3.4,1.1c0.5,1.1,0,2.8-1.1,3.4
					C830.8,667.8,829.2,667.3,828.7,665.9z"/>
				<path class="st27" d="M832.7,661.5c-0.5-1.1,0-2.5,1-3.3c1.1-0.5,2.5,0,3.3,1.1c0.5,1.1,0,2.5-1,3.3
					C834.6,663.1,833.2,662.6,832.7,661.5z"/>
				<path class="st27" d="M837.4,658.4c-0.5-1.1,0-2.5,1-3.3c1.1-0.5,2.5,0,3.3,1.1c0.5,1.1,0,2.5-1.1,3.3
					C839.1,660.1,837.9,659.6,837.4,658.4z"/>
				<ellipse class="st27" cx="832.9" cy="715.5" rx="1.7" ry="1.7"/>
				<ellipse class="st27" cx="853.4" cy="715" rx="1.7" ry="1.7"/>
				<path class="st28" d="M840.9,652.8c0,0-6-15.1,2.3-18.7c8.3-3.6-0.6,19.3-0.6,19.3c-3.6-20.6-15.9-25.2-17.8-16.9
					c-1.9,8.4,16.7,17.8,16.7,17.8"/>
				<path class="st28" d="M854.3,649.8c0,0-7.4-2.9-11.8,3.8"/>
				<path class="st28" d="M856.8,642.3c0,0-10.9-1-13.3,8.8"/>
				<path class="st27" d="M839.5,722.2c0-1.5,1.7-6.9,2.9-6.9c1,0,2.9,5.1,2.9,6.9c0,1.5-1.4,2.9-2.9,2.9S839.5,723.9,839.5,722.2z"
					/>
			</g>
			<g>
				<circle class="st23" cx="1191" cy="253.1" r="56.7"/>
				<polygon class="st24" points="1202.6,300.5 1181.4,300.5 1181.4,204.1 1202.6,220.9 				"/>
				<g>
					<g>
						<rect x="1184.9" y="227.4" class="st25" width="3.3" height="3.3"/>
						<rect x="1189.9" y="227.4" class="st25" width="3.3" height="3.3"/>
						<rect x="1195.4" y="227.4" class="st25" width="3.3" height="3.3"/>
					</g>
					<g>
						<rect x="1184.9" y="234.2" class="st25" width="3.3" height="3.3"/>
						<rect x="1189.9" y="234.2" class="st25" width="3.3" height="3.3"/>
						<rect x="1195.4" y="234.2" class="st25" width="3.3" height="3.3"/>
					</g>
					<g>
						<rect x="1184.9" y="240.7" class="st25" width="3.3" height="3.3"/>
						<rect x="1189.9" y="240.7" class="st25" width="3.3" height="3.3"/>
						<rect x="1195.4" y="240.7" class="st25" width="3.3" height="3.3"/>
					</g>
					<g>
						<rect x="1184.9" y="247.5" class="st25" width="3.3" height="3.3"/>
						<rect x="1189.9" y="247.5" class="st25" width="3.3" height="3.3"/>
						<rect x="1195.4" y="247.5" class="st25" width="3.3" height="3.3"/>
					</g>
				</g>
				<g>
					<g>
						<rect x="1184.9" y="254.2" class="st25" width="3.3" height="3.3"/>
						<rect x="1189.9" y="254.2" class="st25" width="3.3" height="3.3"/>
						<rect x="1195.4" y="254.2" class="st25" width="3.3" height="3.3"/>
					</g>
					<g>
						<rect x="1184.9" y="261" class="st25" width="3.3" height="3.3"/>
						<rect x="1189.9" y="261" class="st25" width="3.3" height="3.3"/>
						<rect x="1195.4" y="261" class="st25" width="3.3" height="3.3"/>
					</g>
					<g>
						<rect x="1184.9" y="267.5" class="st25" width="3.3" height="3.3"/>
						<rect x="1189.9" y="267.5" class="st25" width="3.3" height="3.3"/>
						<rect x="1195.4" y="267.5" class="st25" width="3.3" height="3.3"/>
					</g>
					<g>
						<rect x="1184.9" y="274.3" class="st25" width="3.3" height="3.3"/>
						<rect x="1189.9" y="274.3" class="st25" width="3.3" height="3.3"/>
						<rect x="1195.4" y="274.3" class="st25" width="3.3" height="3.3"/>
					</g>
				</g>
				<g>
					<rect x="1184.9" y="281" class="st25" width="3.3" height="3.3"/>
					<rect x="1189.9" y="281" class="st25" width="3.3" height="3.3"/>
					<rect x="1195.4" y="281" class="st25" width="3.3" height="3.3"/>
				</g>
				<g>
					<rect x="1184.9" y="288" class="st25" width="3.3" height="3.3"/>
					<rect x="1189.9" y="288" class="st25" width="3.3" height="3.3"/>
					<rect x="1195.4" y="288" class="st25" width="3.3" height="3.3"/>
				</g>
				<g>
					<rect x="1184.9" y="294.3" class="st25" width="3.3" height="3.3"/>
					<rect x="1189.9" y="294.3" class="st25" width="3.3" height="3.3"/>
					<rect x="1195.4" y="294.3" class="st25" width="3.3" height="3.3"/>
				</g>
			</g>
			<circle class="st26" cx="1342.1" cy="320.5" r="53.9"/>
			<path class="st27" d="M1338.9,356.2c-1-2-0.1-4.4,1.9-5.3c2-1,4.4-0.1,5.3,1.9c1,2,0.1,4.4-1.9,5.3
				C1342.1,359.1,1339.9,358.2,1338.9,356.2z"/>
			<path class="st27" d="M1347.5,354.3c-0.9-1.9-0.1-4.1,1.7-5s3.9-0.1,4.8,1.7c0.9,1.9,0.1,4.1-1.7,5
				C1350.7,356.8,1348.4,355.9,1347.5,354.3z"/>
			<path class="st27" d="M1354.4,349.5c-0.9-1.7-0.1-3.8,1.7-4.6c1.7-0.9,3.8-0.1,4.6,1.7c0.9,1.7,0.1,3.8-1.7,4.6
				C1357.3,351.9,1355.3,351.2,1354.4,349.5z"/>
			<path class="st27" d="M1358.6,342.1c-0.9-1.7-0.1-3.6,1.5-4.4s3.6-0.1,4.4,1.5c0.9,1.7,0.1,3.6-1.5,4.4
				C1361.3,344.5,1359.2,343.9,1358.6,342.1z"/>
			<path class="st27" d="M1359.7,334.7c-0.6-1.5,0-3.4,1.4-4.1c1.5-0.6,3.4,0,4.1,1.4c0.6,1.5,0,3.4-1.4,4.1
				C1362.3,336.8,1360.5,336.1,1359.7,334.7z"/>
			<path class="st27" d="M1358.9,327.2c-0.6-1.5-0.1-3.4,1.4-4.1s3.4-0.1,4.1,1.4c0.6,1.5,0,3.4-1.4,4.1
				C1361.5,329.4,1359.7,328.7,1358.9,327.2z"/>
			<path class="st27" d="M1357.3,320.5c-0.6-1.4-0.1-3.1,1.4-3.8s3.1-0.1,3.8,1.4c0.6,1.4,0,3.1-1.4,3.8
				C1359.7,322.6,1358.1,321.9,1357.3,320.5z"/>
			<path class="st27" d="M1354.7,314.5c-0.6-1.4-0.1-3.1,1.4-3.8c1.4-0.6,3.1,0,3.8,1.4c0.6,1.4,0,3.1-1.4,3.8
				C1357.1,316.4,1355.3,315.9,1354.7,314.5z"/>
			<path class="st27" d="M1351.7,308.9c-0.5-1.1,0-2.8,1.1-3.4s2.8,0,3.4,1.1s0,2.8-1.1,3.4C1353.8,310.8,1352.4,310.3,1351.7,308.9
				z"/>
			<path class="st27" d="M1348.2,304.5c-0.5-1.1,0-2.5,1.1-3.3c1.1-0.5,2.5,0,3.3,1.1c0.5,1.1,0,2.5-1.1,3.3
				C1350.2,306.4,1348.7,305.6,1348.2,304.5z"/>
			<path class="st27" d="M1343.5,301.4c-0.5-1.1,0-2.5,1.1-3.3c1.1-0.5,2.5,0,3.3,1.1c0.5,1.1,0,2.5-1.1,3.3
				C1345.4,303.1,1344,302.6,1343.5,301.4z"/>
			<path class="st27" d="M1330.8,354.3c-0.9-1.9-0.1-4.1,1.7-5c1.9-0.9,3.9-0.1,4.8,1.7c0.9,1.8,0.1,4.1-1.7,5
				C1333.9,356.8,1331.6,355.9,1330.8,354.3z"/>
			<path class="st27" d="M1324.3,349.5c-0.9-1.7-0.1-3.8,1.7-4.6c1.7-0.9,3.8-0.1,4.6,1.7c0.9,1.7,0.1,3.8-1.7,4.6
				C1327.2,351.9,1325,351.2,1324.3,349.5z"/>
			<path class="st27" d="M1320.6,342.1c-0.9-1.7-0.1-3.6,1.5-4.4c1.7-0.9,3.6-0.1,4.4,1.5c0.9,1.7,0.1,3.6-1.5,4.4
				C1323.3,344.5,1321.4,343.9,1320.6,342.1z"/>
			<path class="st27" d="M1319.7,334.7c-0.6-1.5,0-3.4,1.4-4.1c1.5-0.6,3.4,0,4.1,1.4c0.6,1.5,0.1,3.4-1.4,4.1
				C1322.2,336.8,1320.6,336.1,1319.7,334.7z"/>
			<path class="st27" d="M1320.6,327.2c-0.6-1.5,0-3.4,1.4-4.1c1.5-0.6,3.4-0.1,4.1,1.4c0.6,1.5,0.1,3.4-1.4,4.1
				S1321.2,328.7,1320.6,327.2z"/>
			<path class="st27" d="M1322.6,320.5c-0.6-1.4,0-3.1,1.4-3.8s3.1-0.1,3.8,1.4c0.6,1.4,0,3.1-1.4,3.8
				C1324.8,322.6,1323.3,321.9,1322.6,320.5z"/>
			<path class="st27" d="M1325.3,314.5c-0.6-1.4,0-3.1,1.4-3.8c1.4-0.6,3.1,0,3.8,1.4c0.6,1.4,0,3.1-1.4,3.8
				C1327.7,316.4,1326.1,315.9,1325.3,314.5z"/>
			<path class="st27" d="M1328.7,308.9c-0.5-1.1,0-2.8,1.1-3.4s2.8,0,3.4,1.1c0.5,1.1,0,2.8-1.1,3.4
				C1330.8,310.8,1329.2,310.3,1328.7,308.9z"/>
			<path class="st27" d="M1332.7,304.5c-0.5-1.1,0-2.5,1-3.3c1.1-0.5,2.5,0,3.3,1.1c0.5,1.1,0,2.5-1,3.3
				C1334.6,306.1,1333.2,305.6,1332.7,304.5z"/>
			<path class="st27" d="M1337.4,301.4c-0.5-1.1,0-2.5,1-3.3c1.1-0.5,2.5,0,3.3,1.1c0.5,1.1,0,2.5-1.1,3.3
				C1339.1,303.1,1337.9,302.6,1337.4,301.4z"/>
			<ellipse class="st27" cx="1332.9" cy="358.5" rx="1.7" ry="1.7"/>
			<ellipse class="st27" cx="1353.4" cy="358" rx="1.7" ry="1.7"/>
			<path class="st28" d="M1340.9,295.8c0,0-6-15.1,2.3-18.7s-0.6,19.3-0.6,19.3c-3.6-20.6-15.9-25.2-17.8-16.9
				c-1.9,8.4,16.7,17.8,16.7,17.8"/>
			<path class="st28" d="M1354.3,292.8c0,0-7.4-2.9-11.8,3.8"/>
			<path class="st28" d="M1356.8,285.3c0,0-10.9-1-13.3,8.8"/>
			<path class="st27" d="M1339.5,365.2c0-1.5,1.7-6.9,2.9-6.9c1,0,2.9,5.1,2.9,6.9c0,1.5-1.4,2.9-2.9,2.9S1339.5,366.9,1339.5,365.2
				z"/>
			<g>
				<ellipse class="st29" cx="195.8" cy="249.2" rx="54.4" ry="54.4"/>
				<path class="st30" d="M168.1,210.9c0,0,8.1,9.2,9.7,9.2c1.6-0.2,7.2-7.2,7.2-7.2l-9.5-9.4c0,0,24.1-3.8,20.5,18
					c12.4,12.4,15.8,16.4,15.8,16.4l-9.5,9.5l-14.9-15.8c0,0-4.8,0.8-8.3,0.3C175.9,231.3,163.6,227.8,168.1,210.9z"/>
				<path class="st30" d="M236.7,265.8c0,0-7.8-8.9-9.2-8.9s-6.9,7-6.9,7l9.2,9.1c0,0-23,3.8-19.5-17.4c-11.7-11.9-15-15.8-15-15.8
					l9.2-9.2l14.1,15.3c0,0,4.7-0.8,7.8-0.3C229.4,246.1,241.1,249.6,236.7,265.8z"/>
				<line class="st31" x1="193.1" y1="246.9" x2="211.9" y2="228.1"/>
				<polyline class="st32" points="197.6,244.2 209.8,231 214.5,235.3 199.8,249.4 193.9,246 197.6,244.2 				"/>
				<line class="st22" x1="191.7" y1="232" x2="197" y2="226.7"/>
				<line class="st22" x1="195.5" y1="236.1" x2="200.8" y2="230.8"/>
				<line class="st22" x1="209.2" y1="250.6" x2="214.7" y2="245.3"/>
				<line class="st22" x1="205.6" y1="247.1" x2="211.1" y2="241.7"/>
				<polygon class="st30" points="184.7,249.6 191.9,245.6 199.4,253.2 195.3,260.3 				"/>
				<polyline class="st30" points="194.2,246.9 218.8,222.2 218.6,218 229.4,210 234.4,215 226.7,225.3 223.8,226.1 198.7,251.1 
									"/>
				<line class="st33" x1="205.3" y1="250.2" x2="213.8" y2="241"/>
				<g id="Layer_3">
					<path class="st34" d="M194.8,265.7l-24.5,24.5c-1.6,1.6-4.1,1.6-5.5,0l-9.4-9.4c-1.6-1.6-1.6-4.1,0-5.5l24.5-24.5
						c1.6-1.6,4.1-1.6,5.5,0l9.4,9.4C196.2,261.7,196.2,264.1,194.8,265.7z"/>
				</g>
				<g id="Layer_4">
					<polygon class="st35" points="163.7,286.8 164.8,287.9 190,262.5 188.9,261.4 					"/>
					<polygon class="st35" points="185.6,258.2 160.4,283.5 161.5,284.6 186.7,259.2 					"/>
					<polygon class="st35" points="182.3,254.9 157.2,280 158.3,281.1 183.4,256 					"/>
				</g>
			</g>
			<path class="st36" d="M871.8,226.8"/>
			<g>
				<circle class="st0" cx="1427.8" cy="746" r="51.8"/>
				<polygon class="st1" points="1384.9,740.5 1392.2,731.5 1428.4,731.5 1428.4,740.5 				"/>
				<polygon class="st1" points="1471.6,740.5 1464.3,731.5 1428.2,731.5 1428.2,740.5 				"/>
				<rect x="1386.5" y="740.5" class="st2" width="83.5" height="27.8"/>
				<rect x="1417.6" y="723.3" class="st3" width="22" height="21.9"/>
				<polygon class="st1" points="1439.6,723.3 1417.6,723.3 1428.6,713.8 				"/>
				<rect x="1416" y="723.3" class="st0" width="25.1" height="1.8"/>
				<polygon class="st0" points="1447.9,746.7 1428.4,730.6 1408.6,746.7 1411.3,746.7 1428.4,732.8 1445.3,746.7 				"/>
				<path class="st2" d="M1428.4,749.1c-4.3,0-7.7,3.5-7.7,7.7v1v10.4h7.1h1.1h7.1v-10.4v-1C1436,752.7,1432.5,749.1,1428.4,749.1z"
					/>
				<rect x="1427.8" y="757.1" class="st2" width="1" height="11.2"/>
				<rect x="1420.5" y="756.5" class="st2" width="15.6" height="0.7"/>
				<g>
					<rect x="1448.4" y="748.4" class="st2" width="8.2" height="6.7"/>
					<line class="st4" x1="1452.7" y1="755" x2="1452.7" y2="748.3"/>
				</g>
				<g>
					<rect x="1458.9" y="748.6" class="st2" width="8.2" height="19.7"/>
					<line class="st4" x1="1463.1" y1="767.9" x2="1463.1" y2="748.3"/>
				</g>
				<g>
					<rect x="1448.4" y="757.2" class="st2" width="8.2" height="6.7"/>
					<line class="st4" x1="1452.7" y1="763.8" x2="1452.7" y2="757.1"/>
				</g>
				<g>
					<rect x="1389.5" y="748.6" class="st2" width="8.2" height="19.7"/>
					<line class="st4" x1="1393.7" y1="767.9" x2="1393.7" y2="748.3"/>
				</g>
				<g>
					<rect x="1400" y="748.4" class="st2" width="8.2" height="6.7"/>
					<line class="st4" x1="1404.2" y1="755" x2="1404.2" y2="748.3"/>
				</g>
				<g>
					<rect x="1400" y="757.2" class="st2" width="8.2" height="6.7"/>
					<line class="st4" x1="1404.2" y1="763.8" x2="1404.2" y2="757.1"/>
				</g>
			</g>
			<g>
				<circle class="st0" cx="455.8" cy="638" r="51.8"/>
				<polygon class="st1" points="412.9,632.5 420.2,623.5 456.4,623.5 456.4,632.5 				"/>
				<polygon class="st1" points="499.6,632.5 492.3,623.5 456.2,623.5 456.2,632.5 				"/>
				<rect x="414.5" y="632.5" class="st2" width="83.5" height="27.8"/>
				<rect x="445.6" y="615.3" class="st3" width="22" height="21.9"/>
				<polygon class="st1" points="467.6,615.3 445.6,615.3 456.6,605.8 				"/>
				<rect x="444" y="615.3" class="st0" width="25.1" height="1.8"/>
				<polygon class="st0" points="475.9,638.7 456.4,622.6 436.6,638.7 439.3,638.7 456.4,624.8 473.3,638.7 				"/>
				<path class="st2" d="M456.4,641.1c-4.3,0-7.7,3.5-7.7,7.7v1v10.4h7.1h1.1h7.1v-10.4v-1C464,644.7,460.5,641.1,456.4,641.1z"/>
				<rect x="455.8" y="649.1" class="st2" width="1" height="11.2"/>
				<rect x="448.5" y="648.5" class="st2" width="15.6" height="0.7"/>
				<g>
					<rect x="476.4" y="640.4" class="st2" width="8.2" height="6.7"/>
					<line class="st4" x1="480.7" y1="647" x2="480.7" y2="640.3"/>
				</g>
				<g>
					<rect x="486.9" y="640.6" class="st2" width="8.2" height="19.7"/>
					<line class="st4" x1="491.1" y1="659.9" x2="491.1" y2="640.3"/>
				</g>
				<g>
					<rect x="476.4" y="649.2" class="st2" width="8.2" height="6.7"/>
					<line class="st4" x1="480.7" y1="655.8" x2="480.7" y2="649.1"/>
				</g>
				<g>
					<rect x="417.5" y="640.6" class="st2" width="8.2" height="19.7"/>
					<line class="st4" x1="421.7" y1="659.9" x2="421.7" y2="640.3"/>
				</g>
				<g>
					<rect x="428" y="640.4" class="st2" width="8.2" height="6.7"/>
					<line class="st4" x1="432.2" y1="647" x2="432.2" y2="640.3"/>
				</g>
				<g>
					<rect x="428" y="649.2" class="st2" width="8.2" height="6.7"/>
					<line class="st4" x1="432.2" y1="655.8" x2="432.2" y2="649.1"/>
				</g>
			</g>
			<g>
				<circle class="st5" cx="932.1" cy="230.9" r="50.6"/>
				<rect x="913.8" y="206.5" class="st6" width="36.2" height="51"/>
				<rect x="911.7" y="205.4" class="st7" width="40.3" height="2.8"/>
				<rect x="913.8" y="251.1" class="st8" width="36.2" height="6.4"/>
				<rect x="927.4" y="247" class="st9" width="8.5" height="10.6"/>
				<rect x="893.9" y="223.4" class="st10" width="19.8" height="34.1"/>
				<rect x="897.3" y="227.4" class="st11" width="13.2" height="3.9"/>
				
					<rect x="902.1" y="230.4" transform="matrix(5.921128e-03 -1 1 5.921128e-03 661.6881 1139.557)" class="st11" width="3.9" height="13.2"/>
				<rect x="897.3" y="242.9" class="st11" width="13.2" height="3.9"/>
				<rect x="892.6" y="222.4" class="st12" width="21.2" height="2.5"/>
				<rect x="949.7" y="223.4" class="st13" width="19.8" height="34.1"/>
				<rect x="953.2" y="227.4" class="st11" width="13.2" height="3.9"/>
				<rect x="953.2" y="235.1" class="st11" width="13.2" height="3.9"/>
				<rect x="953.2" y="242.9" class="st11" width="13.2" height="3.9"/>
				<rect x="897.3" y="250.2" class="st11" width="13.2" height="3.9"/>
				<rect x="953.2" y="250.2" class="st11" width="13.2" height="3.9"/>
				<rect x="949.7" y="222.4" class="st7" width="21.2" height="2.5"/>
				<g>
					<rect x="916.6" y="234.6" class="st6" width="5.9" height="8.4"/>
					<line class="st14" x1="919.7" y1="234.6" x2="919.7" y2="242.6"/>
					<line class="st14" x1="916.7" y1="239" x2="922.1" y2="239"/>
				</g>
				<g>
					<rect x="924.9" y="234.6" class="st6" width="5.9" height="8.4"/>
					<line class="st14" x1="927.9" y1="234.6" x2="927.9" y2="242.6"/>
					<line class="st14" x1="925" y1="239" x2="930.4" y2="239"/>
				</g>
				<g>
					<rect x="933" y="234.6" class="st6" width="5.9" height="8.4"/>
					<line class="st14" x1="935.9" y1="234.6" x2="935.9" y2="242.6"/>
					<line class="st14" x1="933.1" y1="239" x2="938.5" y2="239"/>
				</g>
				<g>
					<rect x="941.4" y="234.3" class="st6" width="5.9" height="8.4"/>
					<line class="st14" x1="944.4" y1="234.3" x2="944.4" y2="242.6"/>
					<line class="st14" x1="941.5" y1="238.9" x2="947" y2="238.9"/>
				</g>
				<g>
					<rect x="916.6" y="223.4" class="st6" width="5.9" height="8.4"/>
					<line class="st14" x1="919.7" y1="223.4" x2="919.7" y2="231.6"/>
					<line class="st14" x1="916.7" y1="228.1" x2="922.1" y2="228.1"/>
				</g>
				<g>
					<rect x="924.9" y="223.4" class="st6" width="5.9" height="8.4"/>
					<line class="st14" x1="927.9" y1="223.4" x2="927.9" y2="231.6"/>
					<line class="st14" x1="925" y1="228.1" x2="930.4" y2="228.1"/>
				</g>
				<g>
					<rect x="933" y="223.4" class="st6" width="5.9" height="8.4"/>
					<line class="st14" x1="935.9" y1="223.4" x2="935.9" y2="231.6"/>
					<line class="st14" x1="933.1" y1="228.1" x2="938.5" y2="228.1"/>
				</g>
				<g>
					<rect x="941.4" y="223.4" class="st6" width="5.9" height="8.4"/>
					<line class="st14" x1="944.4" y1="223.4" x2="944.4" y2="231.5"/>
					<line class="st14" x1="941.5" y1="227.9" x2="947" y2="227.9"/>
				</g>
				<g>
					<rect x="916.6" y="212.4" class="st6" width="5.9" height="8.4"/>
					<line class="st14" x1="919.7" y1="212.4" x2="919.7" y2="220.5"/>
					<line class="st14" x1="916.7" y1="217" x2="922.1" y2="217"/>
				</g>
				<g>
					<rect x="924.9" y="212.4" class="st6" width="5.9" height="8.4"/>
					<line class="st14" x1="927.9" y1="212.4" x2="927.9" y2="220.5"/>
					<line class="st14" x1="925" y1="217" x2="930.4" y2="217"/>
				</g>
				<g>
					<rect x="933" y="212.4" class="st6" width="5.9" height="8.4"/>
					<line class="st14" x1="935.9" y1="212.4" x2="935.9" y2="220.5"/>
					<line class="st14" x1="933.1" y1="217" x2="938.5" y2="217"/>
				</g>
				<g>
					<rect x="941.4" y="212.3" class="st6" width="5.9" height="8.4"/>
					<line class="st14" x1="944.4" y1="212.3" x2="944.4" y2="220.4"/>
					<line class="st14" x1="941.5" y1="216.8" x2="947" y2="216.8"/>
				</g>
			</g>
			<g>
				<circle class="st15" cx="1736.8" cy="564.4" r="58.1"/>
				<g>
					<path class="st16" d="M1686.9,574.3c-0.2-0.8-0.3-1.7-0.3-2.5c0-6.2,4.5-11.2,10.4-12v-0.2c0-9.9,8-17.9,17.9-17.9h29.1
						c9.9,0,24.8,8,24.8,17.9h7.7c6.7,0,12.2,5.5,12.2,12.2c0,0.8-0.2,1.7-0.3,2.5C1788.5,574.3,1686.9,574.3,1686.9,574.3z"/>
					<path class="st17" d="M1713.7,547.2h32c5.7,0,17.2,4.7,17.2,10.4h-59.6C1703.3,551.9,1707.8,547.2,1713.7,547.2z"/>
					<g>
						<path class="st17" d="M1690.4,572c0,5,4,9,9,9s9-4,9-9s-4-9-9-9S1690.4,567,1690.4,572z"/>
						<path class="st17" d="M1695,572c0,2.5,2,4.5,4.5,4.5s4.5-2,4.5-4.5s-2-4.5-4.5-4.5C1697,567.4,1695,569.5,1695,572z"/>
					</g>
					<g>
						<path class="st17" d="M1766.4,572c0,5,4,9,9,9s9-4,9-9s-4-9-9-9C1770.4,562.9,1766.4,567,1766.4,572z"/>
						<path class="st17" d="M1770.9,572c0,2.5,2,4.5,4.5,4.5s4.5-2,4.5-4.5s-2-4.5-4.5-4.5C1772.9,567.4,1770.9,569.5,1770.9,572z"
							/>
					</g>
					<line class="st18" x1="1745.6" y1="547.2" x2="1745.6" y2="557.6"/>
					<line class="st18" x1="1724.1" y1="547.2" x2="1724.1" y2="557.6"/>
				</g>
			</g>
			<g>
				<circle class="st19" cx="1245.8" cy="743.9" r="54.8"/>
				<path class="st20" d="M1255.4,710.3c-0.3,1.1-0.3,1.7-0.6,2.4c-0.8,2.2-1.5,6.5-1.1,8.1s3.1,6.1,3.1,11.9c0,1.9-0.3,4.4-0.6,7.4
					c-7.4,2.5-13.3,1.5-17.5,0.1c-0.3-2.9-0.4-5.7-0.3-7.6c0.3-5.7,2.8-10.9,3.1-12.6c0.4-1.7-0.8-5.6-1.3-7.5
					c-0.1-0.4-0.3-1.3-0.4-2.2c1.3-1.5,2.7-1.9,3.9-1.5c1.7,0.4,2.2,1.3,3.7,1.5c1.3-0.1,2.2-1,3.8-1.5
					C1252.6,708.1,1254.1,708.7,1255.4,710.3z"/>
				<path class="st1" d="M1239.9,709.9C1239.9,710.2,1239.9,710.2,1239.9,709.9C1239.8,710,1239.8,709.9,1239.9,709.9l-0.1-7.1
					c0,0,0-0.1,0.1-0.1c0,0,0.1,0,0.1,0.1v7.2h-0.1V709.9z"/>
				<path class="st1" d="M1255.4,710.3L1255.4,710.3C1255.3,710.4,1255.3,710.3,1255.4,710.3l-0.1-7.4c0,0,0-0.1,0.1-0.1
					c0,0,0.1,0,0.1,0.1L1255.4,710.3L1255.4,710.3z"/>
				<path class="st20" d="M1256.3,739c-2.2,0.6-4.8-1.9-6.5-6.5c-0.3,1.7-0.9,5.8-2.2,7.9c-1.5-2-1.9-6.2-2.2-7.9
					c-1.7,4.6-4.3,7.1-6.5,6.5c0.4,8.1-7.2,35.7-19.8,41.8c-4.7,3.3,6.1,4.4,14.6,2.5c-1.7,5.6,29,6.7,28.1-0.1
					c8.5,1.9,19.3,0.8,14.6-2.5C1263.5,774.8,1255.8,747.2,1256.3,739z"/>
				<path class="st21" d="M1240.9,739c1.3,6.1-2.4,33.3-7.4,44.6c-0.6,0.1-1.9,0.3-2.7,0.4C1236.3,772.5,1241.9,744.5,1240.9,739z"
					/>
				<path class="st21" d="M1253.5,738.7c-1.3,6.1,2.4,33.2,7.5,44.6c0.6,0.1,1.9,0.3,2.7,0.4
					C1257.9,771.8,1252.3,743.9,1253.5,738.7z"/>
				<path class="st22" d="M1246.2,696.6c0,0-0.1-1.7,1.7-1.5c0.9,0.1,1.7,2-0.4,2.7l-0.1,1.9l-11.7,4.2l11.7-4.2"/>
				<line class="st22" x1="1259.4" y1="703.2" x2="1247.5" y2="699.8"/>
			</g>
			<g>
				<circle class="st23" cx="1595" cy="733.1" r="56.7"/>
				<polygon class="st24" points="1606.6,780.5 1585.4,780.5 1585.4,684.1 1606.6,700.9 				"/>
				<g>
					<g>
						<rect x="1588.9" y="707.4" class="st25" width="3.3" height="3.3"/>
						<rect x="1593.9" y="707.4" class="st25" width="3.3" height="3.3"/>
						<rect x="1599.4" y="707.4" class="st25" width="3.3" height="3.3"/>
					</g>
					<g>
						<rect x="1588.9" y="714.2" class="st25" width="3.3" height="3.3"/>
						<rect x="1593.9" y="714.2" class="st25" width="3.3" height="3.3"/>
						<rect x="1599.4" y="714.2" class="st25" width="3.3" height="3.3"/>
					</g>
					<g>
						<rect x="1588.9" y="720.7" class="st25" width="3.3" height="3.3"/>
						<rect x="1593.9" y="720.7" class="st25" width="3.3" height="3.3"/>
						<rect x="1599.4" y="720.7" class="st25" width="3.3" height="3.3"/>
					</g>
					<g>
						<rect x="1588.9" y="727.5" class="st25" width="3.3" height="3.3"/>
						<rect x="1593.9" y="727.5" class="st25" width="3.3" height="3.3"/>
						<rect x="1599.4" y="727.5" class="st25" width="3.3" height="3.3"/>
					</g>
				</g>
				<g>
					<g>
						<rect x="1588.9" y="734.2" class="st25" width="3.3" height="3.3"/>
						<rect x="1593.9" y="734.2" class="st25" width="3.3" height="3.3"/>
						<rect x="1599.4" y="734.2" class="st25" width="3.3" height="3.3"/>
					</g>
					<g>
						<rect x="1588.9" y="741" class="st25" width="3.3" height="3.3"/>
						<rect x="1593.9" y="741" class="st25" width="3.3" height="3.3"/>
						<rect x="1599.4" y="741" class="st25" width="3.3" height="3.3"/>
					</g>
					<g>
						<rect x="1588.9" y="747.5" class="st25" width="3.3" height="3.3"/>
						<rect x="1593.9" y="747.5" class="st25" width="3.3" height="3.3"/>
						<rect x="1599.4" y="747.5" class="st25" width="3.3" height="3.3"/>
					</g>
					<g>
						<rect x="1588.9" y="754.3" class="st25" width="3.3" height="3.3"/>
						<rect x="1593.9" y="754.3" class="st25" width="3.3" height="3.3"/>
						<rect x="1599.4" y="754.3" class="st25" width="3.3" height="3.3"/>
					</g>
				</g>
				<g>
					<rect x="1588.9" y="761" class="st25" width="3.3" height="3.3"/>
					<rect x="1593.9" y="761" class="st25" width="3.3" height="3.3"/>
					<rect x="1599.4" y="761" class="st25" width="3.3" height="3.3"/>
				</g>
				<g>
					<rect x="1588.9" y="768" class="st25" width="3.3" height="3.3"/>
					<rect x="1593.9" y="768" class="st25" width="3.3" height="3.3"/>
					<rect x="1599.4" y="768" class="st25" width="3.3" height="3.3"/>
				</g>
				<g>
					<rect x="1588.9" y="774.3" class="st25" width="3.3" height="3.3"/>
					<rect x="1593.9" y="774.3" class="st25" width="3.3" height="3.3"/>
					<rect x="1599.4" y="774.3" class="st25" width="3.3" height="3.3"/>
				</g>
			</g>
			<g>
				<circle class="st26" cx="293.6" cy="792.9" r="97.3"/>
				<path class="st27" d="M287.9,857.4c-1.8-3.7-0.2-8,3.4-9.6c3.7-1.8,8-0.2,9.6,3.4c1.8,3.7,0.2,8-3.4,9.6
					C293.6,862.7,289.7,861.1,287.9,857.4z"/>
				<path class="st27" d="M303.5,854c-1.6-3.4-0.2-7.3,3-9c3.2-1.6,7.1-0.2,8.7,3c1.6,3.4,0.2,7.3-3,9
					C309.2,858.6,305.1,857,303.5,854z"/>
				<path class="st27" d="M315.9,845.3c-1.6-3-0.2-6.9,3-8.3c3-1.6,6.9-0.2,8.3,3c1.6,3,0.2,6.9-3,8.3
					C321.2,849.6,317.5,848.5,315.9,845.3z"/>
				<path class="st27" d="M323.5,832c-1.6-3-0.2-6.4,2.8-8s6.4-0.2,8,2.8s0.2,6.4-2.8,8C328.3,836.3,324.6,835.2,323.5,832z"/>
				<path class="st27" d="M325.5,818.6c-1.1-2.8,0-6.2,2.5-7.3c2.8-1.1,6.2,0,7.3,2.5c1.1,2.8,0,6.2-2.5,7.3
					C330.1,822.3,326.9,821.2,325.5,818.6z"/>
				<path class="st27" d="M323.9,805.1c-1.1-2.8-0.2-6.2,2.5-7.3s6.2-0.2,7.3,2.5c1.1,2.8,0,6.2-2.5,7.3
					C328.7,809,325.5,807.9,323.9,805.1z"/>
				<path class="st27" d="M321.2,792.9c-1.1-2.5-0.2-5.5,2.5-6.9c2.8-1.4,5.5-0.2,6.9,2.5c1.1,2.5,0,5.5-2.5,6.9
					C325.5,796.8,322.6,795.5,321.2,792.9z"/>
				<path class="st27" d="M316.4,782.1c-1.1-2.5-0.2-5.5,2.5-6.9c2.5-1.1,5.5,0,6.9,2.5c1.1,2.5,0,5.5-2.5,6.9
					C320.7,785.6,317.5,784.7,316.4,782.1z"/>
				<path class="st27" d="M311.1,772c-0.9-2.1,0-5.1,2.1-6.2c2.1-1.1,5.1,0,6.2,2.1s0,5.1-2.1,6.2
					C314.7,775.5,312.2,774.6,311.1,772z"/>
				<path class="st27" d="M304.6,764c-0.9-2.1,0-4.6,2.1-6c2.1-0.9,4.6,0,6,2.1c0.9,2.1,0,4.6-2.1,6
					C308.3,767.4,305.6,766.1,304.6,764z"/>
				<path class="st27" d="M296.1,758.5c-0.9-2.1,0-4.6,2.1-6c2.1-0.9,4.6,0,6,2.1c0.9,2.1,0,4.6-2.1,6
					C299.6,761.5,297.1,760.6,296.1,758.5z"/>
				<path class="st27" d="M273.2,854c-1.6-3.4-0.2-7.3,3-9c3.4-1.6,7.1-0.2,8.7,3s0.2,7.3-3,9C278.9,858.6,274.8,857,273.2,854z"/>
				<path class="st27" d="M261.5,845.3c-1.6-3-0.2-6.9,3-8.3c3-1.6,6.9-0.2,8.3,3c1.6,3,0.2,6.9-3,8.3
					C266.8,849.6,262.9,848.5,261.5,845.3z"/>
				<path class="st27" d="M254.8,832c-1.6-3-0.2-6.4,2.8-8s6.4-0.2,8,2.8s0.2,6.4-2.8,8C259.6,836.3,256.2,835.2,254.8,832z"/>
				<path class="st27" d="M253.2,818.6c-1.1-2.8,0-6.2,2.5-7.3c2.8-1.1,6.2,0,7.3,2.5c1.1,2.8,0.2,6.2-2.5,7.3
					C257.8,822.3,254.8,821.2,253.2,818.6z"/>
				<path class="st27" d="M254.8,805.1c-1.1-2.8,0-6.2,2.5-7.3c2.8-1.1,6.2-0.2,7.3,2.5c1.1,2.8,0.2,6.2-2.5,7.3
					C259.4,808.8,256,807.9,254.8,805.1z"/>
				<path class="st27" d="M258.5,792.9c-1.1-2.5,0-5.5,2.5-6.9s5.5-0.2,6.9,2.5c1.1,2.5,0,5.5-2.5,6.9
					C262.4,796.8,259.6,795.5,258.5,792.9z"/>
				<path class="st27" d="M263.3,782.1c-1.1-2.5,0-5.5,2.5-6.9c2.5-1.1,5.5,0,6.9,2.5c1.1,2.5,0,5.5-2.5,6.9
					C267.7,785.6,264.7,784.7,263.3,782.1z"/>
				<path class="st27" d="M269.5,772c-0.9-2.1,0-5.1,2.1-6.2s5.1,0,6.2,2.1c0.9,2.1,0,5.1-2.1,6.2
					C273.2,775.5,270.4,774.6,269.5,772z"/>
				<path class="st27" d="M276.6,764c-0.9-2.1,0-4.6,1.8-6c2.1-0.9,4.6,0,6,2.1c0.9,2.1,0,4.6-1.8,6
					C280.1,767,277.6,766.1,276.6,764z"/>
				<path class="st27" d="M285.1,758.5c-0.9-2.1,0-4.6,1.8-6c2.1-0.9,4.6,0,6,2.1c0.9,2.1,0,4.6-2.1,6
					C288.3,761.5,286,760.6,285.1,758.5z"/>
				<ellipse class="st27" cx="277.1" cy="861.6" rx="3" ry="3"/>
				<ellipse class="st27" cx="314.1" cy="860.7" rx="3" ry="3"/>
				<path class="st28" d="M291.6,748.4c0,0-10.8-27.3,4.1-33.7s-1.1,34.9-1.1,34.9c-6.4-37.2-28.7-45.5-32.1-30.5
					c-3.4,15.2,30.1,32.1,30.1,32.1"/>
				<path class="st28" d="M315.7,742.9c0,0-13.3-5.3-21.4,6.9"/>
				<path class="st28" d="M320.3,729.3c0,0-19.7-1.8-24.1,15.8"/>
				<path class="st27" d="M289,873.7c0-2.8,3-12.4,5.3-12.4c1.8,0,5.3,9.2,5.3,12.4c0,2.8-2.5,5.3-5.3,5.3
					C291.6,879,289,876.7,289,873.7z"/>
			</g>
			<g>
				<circle class="st19" cx="599.8" cy="143.9" r="54.8"/>
				<path class="st20" d="M609.4,110.3c-0.3,1.1-0.3,1.7-0.6,2.4c-0.8,2.2-1.5,6.5-1.1,8.1c0.4,1.7,3.1,6.1,3.1,11.9
					c0,1.9-0.3,4.4-0.6,7.4c-7.4,2.5-13.3,1.5-17.5,0.1c-0.3-2.9-0.4-5.7-0.3-7.6c0.3-5.7,2.8-10.9,3.1-12.6
					c0.4-1.7-0.8-5.6-1.3-7.5c-0.1-0.4-0.3-1.3-0.4-2.2c1.3-1.5,2.7-1.9,3.9-1.5c1.7,0.4,2.2,1.3,3.7,1.5c1.3-0.1,2.2-1,3.8-1.5
					C606.6,108.1,608.1,108.7,609.4,110.3z"/>
				<path class="st1" d="M593.9,109.9C593.9,110.2,593.9,110.2,593.9,109.9C593.8,110,593.8,109.9,593.9,109.9l-0.1-7.1
					c0,0,0-0.1,0.1-0.1c0,0,0.1,0,0.1,0.1L593.9,109.9L593.9,109.9L593.9,109.9z"/>
				<path class="st1" d="M609.4,110.3L609.4,110.3C609.3,110.4,609.3,110.3,609.4,110.3l-0.1-7.4c0,0,0-0.1,0.1-0.1
					c0,0,0.1,0,0.1,0.1L609.4,110.3L609.4,110.3z"/>
				<path class="st20" d="M610.3,139c-2.2,0.6-4.8-1.9-6.5-6.5c-0.3,1.7-0.9,5.8-2.2,7.9c-1.5-2-1.9-6.2-2.2-7.9
					c-1.7,4.6-4.3,7.1-6.5,6.5c0.4,8.1-7.2,35.7-19.8,41.8c-4.7,3.3,6.1,4.4,14.6,2.5c-1.7,5.6,29,6.7,28.1-0.1
					c8.5,1.9,19.3,0.8,14.6-2.5C617.5,174.8,609.8,147.2,610.3,139z"/>
				<path class="st21" d="M594.9,139c1.3,6.1-2.4,33.3-7.4,44.6c-0.6,0.1-1.9,0.3-2.7,0.4C590.3,172.5,595.9,144.5,594.9,139z"/>
				<path class="st21" d="M607.5,138.7c-1.3,6.1,2.4,33.2,7.5,44.6c0.6,0.1,1.9,0.3,2.7,0.4C611.9,171.8,606.3,143.9,607.5,138.7z"
					/>
				<path class="st22" d="M600.2,96.6c0,0-0.1-1.7,1.7-1.5c0.9,0.1,1.7,2-0.4,2.7l-0.1,1.9l-11.7,4.2l11.7-4.2"/>
				<line class="st22" x1="613.4" y1="103.2" x2="601.5" y2="99.8"/>
			</g>
			<g>
				<circle class="st23" cx="448" cy="204.1" r="56.7"/>
				<polygon class="st24" points="459.6,251.5 438.4,251.5 438.4,155.1 459.6,171.9 				"/>
				<g>
					<g>
						<rect x="441.9" y="178.4" class="st25" width="3.3" height="3.3"/>
						<rect x="446.9" y="178.4" class="st25" width="3.3" height="3.3"/>
						<rect x="452.4" y="178.4" class="st25" width="3.3" height="3.3"/>
					</g>
					<g>
						<rect x="441.9" y="185.2" class="st25" width="3.3" height="3.3"/>
						<rect x="446.9" y="185.2" class="st25" width="3.3" height="3.3"/>
						<rect x="452.4" y="185.2" class="st25" width="3.3" height="3.3"/>
					</g>
					<g>
						<rect x="441.9" y="191.7" class="st25" width="3.3" height="3.3"/>
						<rect x="446.9" y="191.7" class="st25" width="3.3" height="3.3"/>
						<rect x="452.4" y="191.7" class="st25" width="3.3" height="3.3"/>
					</g>
					<g>
						<rect x="441.9" y="198.5" class="st25" width="3.3" height="3.3"/>
						<rect x="446.9" y="198.5" class="st25" width="3.3" height="3.3"/>
						<rect x="452.4" y="198.5" class="st25" width="3.3" height="3.3"/>
					</g>
				</g>
				<g>
					<g>
						<rect x="441.9" y="205.2" class="st25" width="3.3" height="3.3"/>
						<rect x="446.9" y="205.2" class="st25" width="3.3" height="3.3"/>
						<rect x="452.4" y="205.2" class="st25" width="3.3" height="3.3"/>
					</g>
					<g>
						<rect x="441.9" y="212" class="st25" width="3.3" height="3.3"/>
						<rect x="446.9" y="212" class="st25" width="3.3" height="3.3"/>
						<rect x="452.4" y="212" class="st25" width="3.3" height="3.3"/>
					</g>
					<g>
						<rect x="441.9" y="218.5" class="st25" width="3.3" height="3.3"/>
						<rect x="446.9" y="218.5" class="st25" width="3.3" height="3.3"/>
						<rect x="452.4" y="218.5" class="st25" width="3.3" height="3.3"/>
					</g>
					<g>
						<rect x="441.9" y="225.3" class="st25" width="3.3" height="3.3"/>
						<rect x="446.9" y="225.3" class="st25" width="3.3" height="3.3"/>
						<rect x="452.4" y="225.3" class="st25" width="3.3" height="3.3"/>
					</g>
				</g>
				<g>
					<rect x="441.9" y="232" class="st25" width="3.3" height="3.3"/>
					<rect x="446.9" y="232" class="st25" width="3.3" height="3.3"/>
					<rect x="452.4" y="232" class="st25" width="3.3" height="3.3"/>
				</g>
				<g>
					<rect x="441.9" y="239" class="st25" width="3.3" height="3.3"/>
					<rect x="446.9" y="239" class="st25" width="3.3" height="3.3"/>
					<rect x="452.4" y="239" class="st25" width="3.3" height="3.3"/>
				</g>
				<g>
					<rect x="441.9" y="245.3" class="st25" width="3.3" height="3.3"/>
					<rect x="446.9" y="245.3" class="st25" width="3.3" height="3.3"/>
					<rect x="452.4" y="245.3" class="st31" width="3.3" height="3.3"/>
				</g>
			</g>
			<circle class="st26" cx="599.1" cy="271.5" r="53.9"/>
			<path class="st27" d="M595.9,307.2c-1-2-0.1-4.4,1.9-5.3c2-1,4.4-0.1,5.3,1.9c1,2,0.1,4.4-1.9,5.3
				C599.1,310.1,596.9,309.2,595.9,307.2z"/>
			<path class="st27" d="M604.5,305.3c-0.9-1.9-0.1-4.1,1.7-5s3.9-0.1,4.8,1.7c0.9,1.9,0.1,4.1-1.7,5
				C607.7,307.8,605.4,306.9,604.5,305.3z"/>
			<path class="st27" d="M611.4,300.5c-0.9-1.7-0.1-3.8,1.7-4.6c1.7-0.9,3.8-0.1,4.6,1.7c0.9,1.7,0.1,3.8-1.7,4.6
				C614.3,302.9,612.3,302.2,611.4,300.5z"/>
			<path class="st27" d="M615.6,293.1c-0.9-1.7-0.1-3.6,1.5-4.4c1.7-0.9,3.6-0.1,4.4,1.5c0.9,1.7,0.1,3.6-1.5,4.4
				C618.3,295.5,616.2,294.9,615.6,293.1z"/>
			<path class="st27" d="M616.7,285.7c-0.6-1.5,0-3.4,1.4-4.1c1.5-0.6,3.4,0,4.1,1.4c0.6,1.5,0,3.4-1.4,4.1
				C619.3,287.8,617.5,287.1,616.7,285.7z"/>
			<path class="st27" d="M615.9,278.2c-0.6-1.5-0.1-3.4,1.4-4.1s3.4-0.1,4.1,1.4c0.6,1.5,0,3.4-1.4,4.1
				C618.5,280.4,616.7,279.7,615.9,278.2z"/>
			<path class="st27" d="M614.3,271.5c-0.6-1.4-0.1-3.1,1.4-3.8s3.1-0.1,3.8,1.4c0.6,1.4,0,3.1-1.4,3.8
				C616.7,273.6,615.1,272.9,614.3,271.5z"/>
			<path class="st27" d="M611.7,265.5c-0.6-1.4-0.1-3.1,1.4-3.8c1.4-0.6,3.1,0,3.8,1.4c0.6,1.4,0,3.1-1.4,3.8
				C614.1,267.4,612.3,266.9,611.7,265.5z"/>
			<path class="st27" d="M608.7,259.9c-0.5-1.1,0-2.8,1.1-3.4s2.8,0,3.4,1.1c0.6,1.1,0,2.8-1.1,3.4
				C610.8,261.8,609.4,261.3,608.7,259.9z"/>
			<path class="st27" d="M605.2,255.5c-0.5-1.1,0-2.5,1.1-3.3c1.1-0.5,2.5,0,3.3,1.1c0.5,1.1,0,2.5-1.1,3.3
				C607.2,257.4,605.7,256.6,605.2,255.5z"/>
			<path class="st27" d="M600.5,252.4c-0.5-1.1,0-2.5,1.1-3.3c1.1-0.5,2.5,0,3.3,1.1c0.5,1.1,0,2.5-1.1,3.3
				C602.4,254.1,601,253.6,600.5,252.4z"/>
			<path class="st27" d="M587.8,305.3c-0.9-1.9-0.1-4.1,1.7-5c1.9-0.9,3.9-0.1,4.8,1.7c0.9,1.8,0.1,4.1-1.7,5
				C590.9,307.8,588.6,306.9,587.8,305.3z"/>
			<path class="st27" d="M581.3,300.5c-0.9-1.7-0.1-3.8,1.7-4.6c1.7-0.9,3.8-0.1,4.6,1.7c0.9,1.7,0.1,3.8-1.7,4.6
				C584.2,302.9,582,302.2,581.3,300.5z"/>
			<path class="st27" d="M577.6,293.1c-0.9-1.7-0.1-3.6,1.5-4.4c1.7-0.9,3.6-0.1,4.4,1.5c0.9,1.7,0.1,3.6-1.5,4.4
				C580.3,295.5,578.4,294.9,577.6,293.1z"/>
			<path class="st27" d="M576.7,285.7c-0.6-1.5,0-3.4,1.4-4.1c1.5-0.6,3.4,0,4.1,1.4c0.6,1.5,0.1,3.4-1.4,4.1
				C579.2,287.8,577.6,287.1,576.7,285.7z"/>
			<path class="st27" d="M577.6,278.2c-0.6-1.5,0-3.4,1.4-4.1c1.5-0.6,3.4-0.1,4.1,1.4c0.6,1.5,0.1,3.4-1.4,4.1
				S578.2,279.7,577.6,278.2z"/>
			<path class="st27" d="M579.6,271.5c-0.6-1.4,0-3.1,1.4-3.8s3.1-0.1,3.8,1.4c0.6,1.4,0,3.1-1.4,3.8
				C581.8,273.6,580.3,272.9,579.6,271.5z"/>
			<path class="st27" d="M582.3,265.5c-0.6-1.4,0-3.1,1.4-3.8c1.4-0.6,3.1,0,3.8,1.4c0.6,1.4,0,3.1-1.4,3.8
				C584.7,267.4,583.1,266.9,582.3,265.5z"/>
			<path class="st27" d="M585.7,259.9c-0.5-1.1,0-2.8,1.1-3.4s2.8,0,3.4,1.1c0.5,1.1,0,2.8-1.1,3.4
				C587.8,261.8,586.2,261.3,585.7,259.9z"/>
			<path class="st27" d="M589.7,255.5c-0.5-1.1,0-2.5,1-3.3c1.1-0.5,2.5,0,3.3,1.1c0.5,1.1,0,2.5-1,3.3
				C591.6,257.1,590.2,256.6,589.7,255.5z"/>
			<path class="st27" d="M594.4,252.4c-0.5-1.1,0-2.5,1-3.3c1.1-0.5,2.5,0,3.3,1.1c0.5,1.1,0,2.5-1.1,3.3
				C596.1,254.1,594.9,253.6,594.4,252.4z"/>
			<ellipse class="st27" cx="589.9" cy="309.5" rx="1.7" ry="1.7"/>
			<ellipse class="st27" cx="610.4" cy="309" rx="1.7" ry="1.7"/>
			<path class="st28" d="M597.9,246.8c0,0-6-15.1,2.3-18.7c8.3-3.6-0.6,19.3-0.6,19.3c-3.6-20.6-15.9-25.2-17.8-16.9
				c-1.9,8.4,16.7,17.8,16.7,17.8"/>
			<path class="st28" d="M611.3,243.8c0,0-7.4-2.9-11.8,3.8"/>
			<path class="st28" d="M613.8,236.3c0,0-10.9-1-13.3,8.8"/>
			<path class="st27" d="M596.5,316.2c0-1.5,1.7-6.9,2.9-6.9c1,0,2.9,5.1,2.9,6.9c0,1.5-1.4,2.9-2.9,2.9S596.5,317.9,596.5,316.2z"
				/>
			<g>
				<ellipse class="st29" cx="1057.8" cy="171.1" rx="54.4" ry="54.4"/>
				<path class="st30" d="M1030.1,132.9c0,0,8.1,9.2,9.7,9.2c1.6-0.2,7.2-7.2,7.2-7.2l-9.5-9.4c0,0,24.1-3.8,20.5,18
					c12.4,12.4,15.8,16.4,15.8,16.4l-9.5,9.5l-14.9-15.8c0,0-4.8,0.8-8.3,0.3C1037.9,153.3,1025.6,149.8,1030.1,132.9z"/>
				<path class="st30" d="M1098.7,187.8c0,0-7.8-8.9-9.2-8.9s-6.9,7-6.9,7l9.2,9.1c0,0-23,3.8-19.5-17.4c-11.7-11.9-15-15.8-15-15.8
					l9.2-9.2l14.1,15.3c0,0,4.7-0.8,7.8-0.3C1091.4,168.1,1103.1,171.6,1098.7,187.8z"/>
				<line class="st31" x1="1055.1" y1="168.9" x2="1073.9" y2="150.1"/>
				<polyline class="st32" points="1059.6,166.2 1071.8,153 1076.5,157.3 1061.8,171.4 1055.9,168 1059.6,166.2 				"/>
				<line class="st22" x1="1053.7" y1="154" x2="1059" y2="148.7"/>
				<line class="st22" x1="1057.5" y1="158.1" x2="1062.8" y2="152.8"/>
				<line class="st22" x1="1071.2" y1="172.6" x2="1076.7" y2="167.3"/>
				<line class="st22" x1="1067.6" y1="169.1" x2="1073.1" y2="163.7"/>
				<polygon class="st30" points="1046.7,171.6 1053.9,167.6 1061.4,175.2 1057.3,182.3 				"/>
				<polyline class="st30" points="1056.2,168.9 1080.8,144.2 1080.6,140 1091.4,132 1096.4,137 1088.7,147.3 1085.8,148.1 
					1060.7,173.1 				"/>
				<line class="st33" x1="1067.3" y1="172.2" x2="1075.8" y2="163"/>
				<g id="Layer_3_1_">
					<path class="st34" d="M1056.8,187.7l-24.5,24.5c-1.6,1.6-4.1,1.6-5.5,0l-9.4-9.4c-1.6-1.6-1.6-4.1,0-5.5l24.5-24.5
						c1.6-1.6,4.1-1.6,5.5,0l9.4,9.4C1058.2,183.7,1058.2,186.1,1056.8,187.7z"/>
				</g>
				<g id="Layer_4_1_">
					<polygon class="st35" points="1025.7,208.8 1026.8,209.9 1052,184.5 1050.9,183.4 					"/>
					<polygon class="st35" points="1047.6,180.2 1022.4,205.5 1023.5,206.6 1048.7,181.2 					"/>
					<polygon class="st35" points="1044.3,176.9 1019.2,202 1020.3,203.1 1045.4,178 					"/>
				</g>
			</g>
			<g>
				<circle class="st15" cx="509.8" cy="904.4" r="58.1"/>
				<g>
					<path class="st16" d="M459.9,914.3c-0.2-0.8-0.3-1.7-0.3-2.5c0-6.2,4.5-11.2,10.4-12v-0.2c0-9.9,8-17.9,17.9-17.9H517
						c9.9,0,24.8,8,24.8,17.9h7.7c6.7,0,12.2,5.5,12.2,12.2c0,0.8-0.2,1.7-0.3,2.5C561.5,914.3,459.9,914.3,459.9,914.3z"/>
					<path class="st17" d="M486.7,887.2h32c5.7,0,17.2,4.7,17.2,10.4h-59.6C476.3,891.9,480.8,887.2,486.7,887.2z"/>
					<g>
						<path class="st17" d="M463.4,912c0,5,4,9,9,9s9-4,9-9s-4-9-9-9C467.4,902.9,463.4,907,463.4,912z"/>
						<path class="st17" d="M468,912c0,2.5,2,4.5,4.5,4.5s4.5-2,4.5-4.5s-2-4.5-4.5-4.5C470,907.4,468,909.5,468,912z"/>
					</g>
					<g>
						<path class="st17" d="M539.4,912c0,5,4,9,9,9s9-4,9-9s-4-9-9-9C543.4,902.9,539.4,907,539.4,912z"/>
						<path class="st17" d="M543.9,912c0,2.5,2,4.5,4.5,4.5s4.5-2,4.5-4.5s-2-4.5-4.5-4.5S543.9,909.5,543.9,912z"/>
					</g>
					<line class="st18" x1="518.6" y1="887.2" x2="518.6" y2="897.6"/>
					<line class="st18" x1="497.1" y1="887.2" x2="497.1" y2="897.6"/>
				</g>
			</g>
			<path class="st36" d="M589.8,907.8"/>
			<g>
				<circle class="st5" cx="650.1" cy="911.9" r="50.6"/>
				<rect x="631.8" y="887.5" class="st6" width="36.2" height="51"/>
				<rect x="629.7" y="886.4" class="st7" width="40.3" height="2.8"/>
				<rect x="631.8" y="932.1" class="st8" width="36.2" height="6.4"/>
				<rect x="645.4" y="928" class="st9" width="8.5" height="10.6"/>
				<rect x="611.9" y="904.4" class="st10" width="19.8" height="34.1"/>
				<rect x="615.3" y="908.4" class="st11" width="13.2" height="3.9"/>
				
					<rect x="620" y="911.4" transform="matrix(5.921128e-03 -1 1 5.921128e-03 -299.7137 1534.564)" class="st11" width="3.9" height="13.2"/>
				<rect x="615.3" y="923.9" class="st11" width="13.2" height="3.9"/>
				<rect x="610.6" y="903.4" class="st12" width="21.2" height="2.5"/>
				<rect x="667.7" y="904.4" class="st13" width="19.8" height="34.1"/>
				<rect x="671.2" y="908.4" class="st11" width="13.2" height="3.9"/>
				<rect x="671.2" y="916.1" class="st11" width="13.2" height="3.9"/>
				<rect x="671.2" y="923.9" class="st11" width="13.2" height="3.9"/>
				<rect x="615.3" y="931.2" class="st11" width="13.2" height="3.9"/>
				<rect x="671.2" y="931.2" class="st11" width="13.2" height="3.9"/>
				<rect x="667.7" y="903.4" class="st7" width="21.2" height="2.5"/>
				<g>
					<rect x="634.6" y="915.6" class="st6" width="5.9" height="8.4"/>
					<line class="st14" x1="637.7" y1="915.6" x2="637.7" y2="923.6"/>
					<line class="st14" x1="634.7" y1="920" x2="640.1" y2="920"/>
				</g>
				<g>
					<rect x="642.9" y="915.6" class="st6" width="5.9" height="8.4"/>
					<line class="st14" x1="645.9" y1="915.6" x2="645.9" y2="923.6"/>
					<line class="st14" x1="643" y1="920" x2="648.4" y2="920"/>
				</g>
				<g>
					<rect x="651" y="915.6" class="st6" width="5.9" height="8.4"/>
					<line class="st14" x1="653.9" y1="915.6" x2="653.9" y2="923.6"/>
					<line class="st14" x1="651.1" y1="920" x2="656.5" y2="920"/>
				</g>
				<g>
					<rect x="659.4" y="915.3" class="st6" width="5.9" height="8.4"/>
					<line class="st14" x1="662.4" y1="915.3" x2="662.4" y2="923.6"/>
					<line class="st14" x1="659.5" y1="919.9" x2="665" y2="919.9"/>
				</g>
				<g>
					<rect x="634.6" y="904.4" class="st6" width="5.9" height="8.4"/>
					<line class="st14" x1="637.7" y1="904.4" x2="637.7" y2="912.6"/>
					<line class="st14" x1="634.7" y1="909.1" x2="640.1" y2="909.1"/>
				</g>
				<g>
					<rect x="642.9" y="904.4" class="st6" width="5.9" height="8.4"/>
					<line class="st14" x1="645.9" y1="904.4" x2="645.9" y2="912.6"/>
					<line class="st14" x1="643" y1="909.1" x2="648.4" y2="909.1"/>
				</g>
				<g>
					<rect x="651" y="904.4" class="st6" width="5.9" height="8.4"/>
					<line class="st14" x1="653.9" y1="904.4" x2="653.9" y2="912.6"/>
					<line class="st14" x1="651.1" y1="909.1" x2="656.5" y2="909.1"/>
				</g>
				<g>
					<rect x="659.4" y="904.4" class="st6" width="5.9" height="8.4"/>
					<line class="st14" x1="662.4" y1="904.4" x2="662.4" y2="912.5"/>
					<line class="st14" x1="659.5" y1="908.9" x2="665" y2="908.9"/>
				</g>
				<g>
					<rect x="634.6" y="893.4" class="st6" width="5.9" height="8.4"/>
					<line class="st14" x1="637.7" y1="893.4" x2="637.7" y2="901.5"/>
					<line class="st14" x1="634.7" y1="898" x2="640.1" y2="898"/>
				</g>
				<g>
					<rect x="642.9" y="893.4" class="st6" width="5.9" height="8.4"/>
					<line class="st14" x1="645.9" y1="893.4" x2="645.9" y2="901.5"/>
					<line class="st14" x1="643" y1="898" x2="648.4" y2="898"/>
				</g>
				<g>
					<rect x="651" y="893.4" class="st6" width="5.9" height="8.4"/>
					<line class="st14" x1="653.9" y1="893.4" x2="653.9" y2="901.5"/>
					<line class="st14" x1="651.1" y1="898" x2="656.5" y2="898"/>
				</g>
				<g>
					<rect x="659.4" y="893.3" class="st6" width="5.9" height="8.4"/>
					<line class="st14" x1="662.4" y1="893.3" x2="662.4" y2="901.4"/>
					<line class="st14" x1="659.5" y1="897.8" x2="665" y2="897.8"/>
				</g>
			</g>
			<g>
				<ellipse class="st29" cx="775.8" cy="852.1" rx="54.4" ry="54.4"/>
				<path class="st30" d="M748.1,813.9c0,0,8.1,9.2,9.7,9.2c1.6-0.2,7.2-7.2,7.2-7.2l-9.5-9.4c0,0,24.1-3.8,20.5,18
					c12.4,12.4,15.8,16.4,15.8,16.4l-9.5,9.5l-14.9-15.8c0,0-4.8,0.8-8.3,0.3C755.9,834.3,743.6,830.8,748.1,813.9z"/>
				<path class="st30" d="M816.7,868.8c0,0-7.8-8.9-9.2-8.9s-6.9,7-6.9,7l9.2,9.1c0,0-23,3.8-19.5-17.4c-11.7-11.9-15-15.8-15-15.8
					l9.2-9.2l14.1,15.3c0,0,4.7-0.8,7.8-0.3C809.4,849.1,821.1,852.6,816.7,868.8z"/>
				<line class="st31" x1="773.1" y1="849.9" x2="791.9" y2="831.1"/>
				<polyline class="st32" points="777.6,847.2 789.8,834 794.5,838.3 779.8,852.4 773.9,849 777.6,847.2 				"/>
				<line class="st22" x1="771.7" y1="835" x2="777" y2="829.7"/>
				<line class="st22" x1="775.5" y1="839.1" x2="780.8" y2="833.8"/>
				<line class="st22" x1="789.2" y1="853.6" x2="794.7" y2="848.3"/>
				<line class="st22" x1="785.6" y1="850.1" x2="791.1" y2="844.7"/>
				<polygon class="st30" points="764.7,852.6 771.9,848.6 779.4,856.2 775.3,863.3 				"/>
				<polyline class="st30" points="774.2,849.9 798.8,825.2 798.6,821 809.4,813 814.4,818 806.7,828.3 803.8,829.1 778.7,854.1 
									"/>
				<line class="st33" x1="785.3" y1="853.2" x2="793.8" y2="844"/>
				<g id="Layer_3_4_">
					<path class="st34" d="M774.8,868.7l-24.5,24.5c-1.6,1.6-4.1,1.6-5.5,0l-9.4-9.4c-1.6-1.6-1.6-4.1,0-5.5l24.5-24.5
						c1.6-1.6,4.1-1.6,5.5,0l9.4,9.4C776.2,864.7,776.2,867.1,774.8,868.7z"/>
				</g>
				<g id="Layer_4_4_">
					<polygon class="st35" points="743.7,889.8 744.8,890.9 770,865.5 768.9,864.4 					"/>
					<polygon class="st35" points="765.6,861.2 740.4,886.5 741.5,887.6 766.7,862.2 					"/>
					<polygon class="st35" points="762.3,857.9 737.2,883 738.3,884.1 763.4,859 					"/>
				</g>
			</g>
			<g>
				<ellipse class="st15" cx="1025.9" cy="489.4" rx="172.1" ry="165"/>
				<g>
					<path class="st16" d="M878,517.5c-0.5-2.3-1-4.8-1-7.1c0-17.6,13.4-31.9,30.7-34.2v-0.5c0-28.1,23.8-50.9,53.1-50.9h86.4
						c29.3,0,73.4,22.8,73.4,50.9h22.8c19.9,0,36.2,15.7,36.2,34.7c0,2.3-0.5,4.8-1,7.1C1179.1,517.5,878,517.5,878,517.5z"/>
					<path class="st17" d="M957.4,440.4h94.8c16.8,0,51.1,13.3,51.1,29.5H926.6C926.6,453.7,940.1,440.4,957.4,440.4z"/>
					<g>
						<path class="st17" d="M888.5,510.8c0,14.3,11.9,25.7,26.8,25.7c14.9,0,26.8-11.4,26.8-25.7s-11.9-25.7-26.8-25.7
							C900.4,485.1,888.5,496.6,888.5,510.8z"/>
						<path class="st17" d="M901.9,510.8c0,7.1,6,12.8,13.4,12.8s13.4-5.7,13.4-12.8c0-7.1-6-12.8-13.4-12.8
							C907.8,497.9,901.9,503.7,901.9,510.8z"/>
					</g>
					<g>
						<path class="st17" d="M1113.7,510.8c0,14.3,11.9,25.7,26.8,25.7s26.8-11.4,26.8-25.7s-11.9-25.7-26.8-25.7
							C1125.6,485.1,1113.7,496.6,1113.7,510.8z"/>
						<path class="st17" d="M1127,510.8c0,7.1,6,12.8,13.4,12.8s13.4-5.7,13.4-12.8c0-7.1-6-12.8-13.4-12.8
							C1133,497.9,1127,503.7,1127,510.8z"/>
					</g>
					<line class="st18" x1="1052.1" y1="440.4" x2="1052.1" y2="469.9"/>
					<line class="st18" x1="988.2" y1="440.4" x2="988.2" y2="469.9"/>
				</g>
			</g>
			<g>
				<ellipse class="st29" cx="242.5" cy="501.9" rx="132.1" ry="132.1"/>
				<path class="st30" d="M175.3,408.9c0,0,19.7,22.3,23.6,22.3c3.9-0.5,17.5-17.5,17.5-17.5l-23.1-22.8c0,0,58.5-9.2,49.8,43.7
					c30.1,30.1,38.4,39.8,38.4,39.8l-23.1,23.1l-36.2-38.4c0,0-11.7,1.9-20.2,0.7C194.3,458.4,164.4,449.9,175.3,408.9z"/>
				<path class="st30" d="M341.9,542.2c0,0-18.9-21.6-22.3-21.6s-16.8,17-16.8,17l22.3,22.1c0,0-55.9,9.2-47.4-42.3
					c-28.4-28.9-36.4-38.4-36.4-38.4l22.3-22.3l34.2,37.2c0,0,11.4-1.9,18.9-0.7C324.2,494.4,352.6,502.9,341.9,542.2z"/>
				<line class="st31" x1="236.1" y1="496.3" x2="281.7" y2="450.6"/>
				<polyline class="st32" points="247,489.7 276.6,457.7 288,468.1 252.3,502.4 238,494.1 247,489.7 				"/>
				<line class="st22" x1="232.7" y1="460.1" x2="245.5" y2="447.3"/>
				<line class="st22" x1="241.9" y1="470.1" x2="254.8" y2="457.2"/>
				<line class="st22" x1="275.2" y1="505.3" x2="288.5" y2="492.4"/>
				<line class="st22" x1="266.4" y1="496.8" x2="279.8" y2="483.7"/>
				<polygon class="st30" points="215.7,502.9 233.1,493.1 251.4,511.6 241.4,528.8 				"/>
				<polyline class="st30" points="238.7,496.3 298.5,436.3 298,426.1 324.2,406.7 336.4,418.8 317.7,443.9 310.6,445.8 
					249.7,506.5 				"/>
				<line class="st33" x1="265.7" y1="504.3" x2="286.3" y2="482"/>
				<g id="Layer_3_3_">
					<path class="st34" d="M240.2,542l-59.5,59.5c-3.9,3.9-10,3.9-13.4,0l-22.8-22.8c-3.9-3.9-3.9-10,0-13.4l59.5-59.5
						c3.9-3.9,10-3.9,13.4,0l22.8,22.8C243.6,532.2,243.6,538.1,240.2,542z"/>
				</g>
				<g id="Layer_4_3_">
					<polygon class="st35" points="164.7,593.2 167.3,595.9 228.5,534.2 225.9,531.5 					"/>
					<polygon class="st35" points="217.8,523.7 156.6,585.2 159.3,587.9 220.5,526.2 					"/>
					<polygon class="st35" points="209.8,515.7 148.9,576.7 151.5,579.4 212.5,518.4 					"/>
				</g>
			</g>
			<path class="st36" d="M1505.8,907.8"/>
			<g>
				<circle class="st5" cx="1566.1" cy="911.9" r="50.6"/>
				<rect x="1547.8" y="887.5" class="st6" width="36.2" height="51"/>
				<rect x="1545.7" y="886.4" class="st7" width="40.3" height="2.8"/>
				<rect x="1547.8" y="932.1" class="st8" width="36.2" height="6.4"/>
				<rect x="1561.4" y="928" class="st9" width="8.5" height="10.6"/>
				<rect x="1527.9" y="904.4" class="st10" width="19.8" height="34.1"/>
				<rect x="1531.3" y="908.4" class="st11" width="13.2" height="3.9"/>
				
					<rect x="1536.1" y="911.3" transform="matrix(5.921128e-03 -1 1 5.921128e-03 611.0418 2450.5295)" class="st11" width="3.9" height="13.2"/>
				<rect x="1531.3" y="923.9" class="st11" width="13.2" height="3.9"/>
				<rect x="1526.6" y="903.4" class="st12" width="21.2" height="2.5"/>
				<rect x="1583.7" y="904.4" class="st13" width="19.8" height="34.1"/>
				<rect x="1587.2" y="908.4" class="st11" width="13.2" height="3.9"/>
				<rect x="1587.2" y="916.1" class="st11" width="13.2" height="3.9"/>
				<rect x="1587.2" y="923.9" class="st11" width="13.2" height="3.9"/>
				<rect x="1531.3" y="931.2" class="st11" width="13.2" height="3.9"/>
				<rect x="1587.2" y="931.2" class="st11" width="13.2" height="3.9"/>
				<rect x="1583.7" y="903.4" class="st7" width="21.2" height="2.5"/>
				<g>
					<rect x="1550.6" y="915.6" class="st6" width="5.9" height="8.4"/>
					<line class="st14" x1="1553.7" y1="915.6" x2="1553.7" y2="923.6"/>
					<line class="st14" x1="1550.7" y1="920" x2="1556.1" y2="920"/>
				</g>
				<g>
					<rect x="1558.9" y="915.6" class="st6" width="5.9" height="8.4"/>
					<line class="st14" x1="1561.9" y1="915.6" x2="1561.9" y2="923.6"/>
					<line class="st14" x1="1559" y1="920" x2="1564.4" y2="920"/>
				</g>
				<g>
					<rect x="1567" y="915.6" class="st6" width="5.9" height="8.4"/>
					<line class="st14" x1="1569.9" y1="915.6" x2="1569.9" y2="923.6"/>
					<line class="st14" x1="1567.1" y1="920" x2="1572.5" y2="920"/>
				</g>
				<g>
					<rect x="1575.4" y="915.3" class="st6" width="5.9" height="8.4"/>
					<line class="st14" x1="1578.4" y1="915.3" x2="1578.4" y2="923.6"/>
					<line class="st14" x1="1575.5" y1="919.9" x2="1581" y2="919.9"/>
				</g>
				<g>
					<rect x="1550.6" y="904.4" class="st6" width="5.9" height="8.4"/>
					<line class="st14" x1="1553.7" y1="904.4" x2="1553.7" y2="912.6"/>
					<line class="st14" x1="1550.7" y1="909.1" x2="1556.1" y2="909.1"/>
				</g>
				<g>
					<rect x="1558.9" y="904.4" class="st6" width="5.9" height="8.4"/>
					<line class="st14" x1="1561.9" y1="904.4" x2="1561.9" y2="912.6"/>
					<line class="st14" x1="1559" y1="909.1" x2="1564.4" y2="909.1"/>
				</g>
				<g>
					<rect x="1567" y="904.4" class="st6" width="5.9" height="8.4"/>
					<line class="st14" x1="1569.9" y1="904.4" x2="1569.9" y2="912.6"/>
					<line class="st14" x1="1567.1" y1="909.1" x2="1572.5" y2="909.1"/>
				</g>
				<g>
					<rect x="1575.4" y="904.4" class="st6" width="5.9" height="8.4"/>
					<line class="st14" x1="1578.4" y1="904.4" x2="1578.4" y2="912.5"/>
					<line class="st14" x1="1575.5" y1="908.9" x2="1581" y2="908.9"/>
				</g>
				<g>
					<rect x="1550.6" y="893.4" class="st6" width="5.9" height="8.4"/>
					<line class="st14" x1="1553.7" y1="893.4" x2="1553.7" y2="901.5"/>
					<line class="st14" x1="1550.7" y1="898" x2="1556.1" y2="898"/>
				</g>
				<g>
					<rect x="1558.9" y="893.4" class="st6" width="5.9" height="8.4"/>
					<line class="st14" x1="1561.9" y1="893.4" x2="1561.9" y2="901.5"/>
					<line class="st14" x1="1559" y1="898" x2="1564.4" y2="898"/>
				</g>
				<g>
					<rect x="1567" y="893.4" class="st6" width="5.9" height="8.4"/>
					<line class="st14" x1="1569.9" y1="893.4" x2="1569.9" y2="901.5"/>
					<line class="st14" x1="1567.1" y1="898" x2="1572.5" y2="898"/>
				</g>
				<g>
					<rect x="1575.4" y="893.3" class="st6" width="5.9" height="8.4"/>
					<line class="st14" x1="1578.4" y1="893.3" x2="1578.4" y2="901.4"/>
					<line class="st14" x1="1575.5" y1="897.8" x2="1581" y2="897.8"/>
				</g>
			</g>
			<g>
				<ellipse class="st29" cx="1691.8" cy="852.1" rx="54.4" ry="54.4"/>
				<path class="st30" d="M1664.1,813.9c0,0,8.1,9.2,9.7,9.2c1.6-0.2,7.2-7.2,7.2-7.2l-9.5-9.4c0,0,24.1-3.8,20.5,18
					c12.4,12.4,15.8,16.4,15.8,16.4l-9.5,9.5l-14.9-15.8c0,0-4.8,0.8-8.3,0.3C1671.9,834.3,1659.6,830.8,1664.1,813.9z"/>
				<path class="st30" d="M1732.7,868.8c0,0-7.8-8.9-9.2-8.9s-6.9,7-6.9,7l9.2,9.1c0,0-23,3.8-19.5-17.4c-11.7-11.9-15-15.8-15-15.8
					l9.2-9.2l14.1,15.3c0,0,4.7-0.8,7.8-0.3C1725.4,849.1,1737.1,852.6,1732.7,868.8z"/>
				<line class="st31" x1="1689.1" y1="849.9" x2="1707.9" y2="831.1"/>
				<polyline class="st32" points="1693.6,847.2 1705.8,834 1710.5,838.3 1695.8,852.4 1689.9,849 1693.6,847.2 				"/>
				<line class="st22" x1="1687.7" y1="835" x2="1693" y2="829.7"/>
				<line class="st22" x1="1691.5" y1="839.1" x2="1696.8" y2="833.8"/>
				<line class="st22" x1="1705.2" y1="853.6" x2="1710.7" y2="848.3"/>
				<line class="st22" x1="1701.6" y1="850.1" x2="1707.1" y2="844.7"/>
				<polygon class="st30" points="1680.7,852.6 1687.9,848.6 1695.4,856.2 1691.3,863.3 				"/>
				<polyline class="st30" points="1690.2,849.9 1714.8,825.2 1714.6,821 1725.4,813 1730.4,818 1722.7,828.3 1719.8,829.1 
					1694.7,854.1 				"/>
				<line class="st33" x1="1701.3" y1="853.2" x2="1709.8" y2="844"/>
				<g id="Layer_3_2_">
					<path class="st34" d="M1690.8,868.7l-24.5,24.5c-1.6,1.6-4.1,1.6-5.5,0l-9.4-9.4c-1.6-1.6-1.6-4.1,0-5.5l24.5-24.5
						c1.6-1.6,4.1-1.6,5.5,0l9.4,9.4C1692.2,864.7,1692.2,867.1,1690.8,868.7z"/>
				</g>
				<g id="Layer_4_2_">
					<polygon class="st35" points="1659.7,889.8 1660.8,890.9 1686,865.5 1684.9,864.4 					"/>
					<polygon class="st35" points="1681.6,861.2 1656.4,886.5 1657.5,887.6 1682.7,862.2 					"/>
					<polygon class="st35" points="1678.3,857.9 1653.2,883 1654.3,884.1 1679.4,859 					"/>
				</g>
			</g>
			<path class="st36" d="M1223.8,1.8"/>
		</g>
		<rect x="314.2" y="265.1" class="st31" width="1289" height="642.9"/>
	</g>
	<g id="Layer_2_1_">
		<g>
			<rect x="24.9" y="-1" class="st37" width="1918" height="1085"/>
		</g>
	</g>
	<g id="Layer_3_6_">
		<text transform="matrix(1 0 0 1 640.9199 333.7886)" class="st38 st39 st40">     Rental Trip</text>
		<text transform="matrix(1 0 0 1 640.9199 333.7886)" class="st41 st39 st40">     Rental Trip</text>
		<text transform="matrix(1 0 0 1 357.2534 505.7958)" class="st42 st39 st43">Explore peoples search interest Patternin rental around the </text>
		<text transform="matrix(1 0 0 1 738.1534 563.3958)" class="st42 st39 st43">world and in the U.S.</text>
		<text transform="matrix(1 0 0 1 653.8534 707.3958)" class="st39 st44">    Designer: Xing Liu</text>
		<text transform="matrix(1 0 0 1 810.8534 822.5958)" class="st42 st39 st43">Source: Google</text>
		<g>
			<g>
				<circle class="st0" cx="744.4" cy="923" r="43.5"/>
				<polygon class="st1" points="708.4,918.4 714.5,910.9 744.8,910.9 744.8,918.4 				"/>
				<polygon class="st1" points="781.1,918.4 775,910.9 744.7,910.9 744.7,918.4 				"/>
				<rect x="709.7" y="918.4" class="st2" width="70" height="23.3"/>
				<rect x="735.8" y="904" class="st3" width="18.5" height="18.4"/>
				<polygon class="st1" points="754.3,904 735.8,904 745.1,896 				"/>
				<rect x="734.5" y="904" class="st0" width="21.1" height="1.5"/>
				<polygon class="st0" points="761.2,923.6 744.8,910 728.3,923.6 730.5,923.6 744.8,911.9 759,923.6 				"/>
				<path class="st2" d="M744.8,925.6c-3.6,0-6.4,3-6.4,6.4v0.8v8.7h6h0.9h6v-8.7V932C751.3,928.6,748.3,925.6,744.8,925.6z"/>
				<rect x="744.4" y="932.3" class="st2" width="0.8" height="9.4"/>
				<rect x="738.3" y="931.8" class="st2" width="13.1" height="0.6"/>
				<g>
					<rect x="761.7" y="925" class="st2" width="6.9" height="5.6"/>
					<line class="st4" x1="765.2" y1="930.5" x2="765.2" y2="924.9"/>
				</g>
				<g>
					<rect x="770.5" y="925.2" class="st2" width="6.9" height="16.5"/>
					<line class="st4" x1="773.9" y1="941.3" x2="773.9" y2="924.9"/>
				</g>
				<g>
					<rect x="761.7" y="932.4" class="st2" width="6.9" height="5.6"/>
					<line class="st4" x1="765.2" y1="937.9" x2="765.2" y2="932.3"/>
				</g>
				<g>
					<rect x="712.2" y="925.2" class="st2" width="6.9" height="16.5"/>
					<line class="st4" x1="715.8" y1="941.3" x2="715.8" y2="924.9"/>
				</g>
				<g>
					<rect x="721" y="925" class="st2" width="6.9" height="5.6"/>
					<line class="st4" x1="724.6" y1="930.5" x2="724.6" y2="924.9"/>
				</g>
				<g>
					<rect x="721" y="932.4" class="st2" width="6.9" height="5.6"/>
					<line class="st4" x1="724.6" y1="937.9" x2="724.6" y2="932.3"/>
				</g>
			</g>
			<g>
				<circle class="st5" cx="864.1" cy="923" r="43.5"/>
				<rect x="848.4" y="901.9" class="st6" width="31.1" height="43.9"/>
				<rect x="846.6" y="901" class="st7" width="34.6" height="2.4"/>
				<rect x="848.4" y="940.3" class="st8" width="31.1" height="5.5"/>
				<rect x="860.1" y="936.8" class="st9" width="7.3" height="9.2"/>
				<rect x="831.3" y="916.5" class="st10" width="17" height="29.3"/>
				<rect x="834.2" y="920" class="st11" width="11.4" height="3.3"/>
				
					<rect x="838.4" y="922.5" transform="matrix(5.921232e-03 -1 1 5.921232e-03 -93.1066 1762.7451)" class="st11" width="3.3" height="11.4"/>
				<rect x="834.2" y="933.2" class="st11" width="11.4" height="3.3"/>
				<rect x="830.2" y="915.6" class="st12" width="18.2" height="2.1"/>
				<rect x="879.3" y="916.5" class="st13" width="17" height="29.3"/>
				<rect x="882.3" y="920" class="st11" width="11.4" height="3.3"/>
				<rect x="882.3" y="926.6" class="st11" width="11.4" height="3.3"/>
				<rect x="882.3" y="933.2" class="st11" width="11.4" height="3.3"/>
				<rect x="834.2" y="939.6" class="st11" width="11.4" height="3.3"/>
				<rect x="882.3" y="939.6" class="st11" width="11.4" height="3.3"/>
				<rect x="879.3" y="915.6" class="st7" width="18.2" height="2.1"/>
				<g>
					<rect x="850.8" y="926.1" class="st6" width="5" height="7.2"/>
					<line class="st14" x1="853.4" y1="926.1" x2="853.4" y2="933"/>
					<line class="st14" x1="850.9" y1="929.9" x2="855.6" y2="929.9"/>
				</g>
				<g>
					<rect x="858" y="926.1" class="st6" width="5" height="7.2"/>
					<line class="st14" x1="860.5" y1="926.1" x2="860.5" y2="933"/>
					<line class="st14" x1="858.1" y1="929.9" x2="862.7" y2="929.9"/>
				</g>
				<g>
					<rect x="864.9" y="926.1" class="st6" width="5" height="7.2"/>
					<line class="st14" x1="867.4" y1="926.1" x2="867.4" y2="933"/>
					<line class="st14" x1="865" y1="929.9" x2="869.6" y2="929.9"/>
				</g>
				<g>
					<rect x="872.2" y="925.9" class="st6" width="5" height="7.2"/>
					<line class="st14" x1="874.7" y1="925.9" x2="874.7" y2="933"/>
					<line class="st14" x1="872.3" y1="929.8" x2="877" y2="929.8"/>
				</g>
				<g>
					<rect x="850.8" y="916.5" class="st6" width="5" height="7.2"/>
					<line class="st14" x1="853.4" y1="916.5" x2="853.4" y2="923.6"/>
					<line class="st14" x1="850.9" y1="920.6" x2="855.6" y2="920.6"/>
				</g>
				<g>
					<rect x="858" y="916.5" class="st6" width="5" height="7.2"/>
					<line class="st14" x1="860.5" y1="916.5" x2="860.5" y2="923.6"/>
					<line class="st14" x1="858.1" y1="920.6" x2="862.7" y2="920.6"/>
				</g>
				<g>
					<rect x="864.9" y="916.5" class="st6" width="5" height="7.2"/>
					<line class="st14" x1="867.4" y1="916.5" x2="867.4" y2="923.6"/>
					<line class="st14" x1="865" y1="920.6" x2="869.6" y2="920.6"/>
				</g>
				<g>
					<rect x="872.2" y="916.5" class="st6" width="5" height="7.2"/>
					<line class="st14" x1="874.7" y1="916.5" x2="874.7" y2="923.5"/>
					<line class="st14" x1="872.3" y1="920.4" x2="877" y2="920.4"/>
				</g>
				<g>
					<rect x="850.8" y="907.1" class="st6" width="5" height="7.2"/>
					<line class="st14" x1="853.4" y1="907.1" x2="853.4" y2="914"/>
					<line class="st14" x1="850.9" y1="911" x2="855.6" y2="911"/>
				</g>
				<g>
					<rect x="858" y="907.1" class="st6" width="5" height="7.2"/>
					<line class="st14" x1="860.5" y1="907.1" x2="860.5" y2="914"/>
					<line class="st14" x1="858.1" y1="911" x2="862.7" y2="911"/>
				</g>
				<g>
					<rect x="864.9" y="907.1" class="st6" width="5" height="7.2"/>
					<line class="st14" x1="867.4" y1="907.1" x2="867.4" y2="914"/>
					<line class="st14" x1="865" y1="911" x2="869.6" y2="911"/>
				</g>
				<g>
					<rect x="872.2" y="907" class="st6" width="5" height="7.2"/>
					<line class="st14" x1="874.7" y1="907" x2="874.7" y2="913.9"/>
					<line class="st14" x1="872.3" y1="910.8" x2="877" y2="910.8"/>
				</g>
			</g>
			<g>
				<circle class="st15" cx="624.6" cy="923" r="43.5"/>
				<g>
					<path class="st16" d="M587.3,930.4c-0.1-0.6-0.3-1.3-0.3-1.9c0-4.6,3.4-8.4,7.8-9v-0.1c0-7.4,6-13.4,13.4-13.4H630
						c7.4,0,18.5,6,18.5,13.4h5.8c5,0,9.1,4.1,9.1,9.1c0,0.6-0.1,1.3-0.3,1.9C663.3,930.4,587.3,930.4,587.3,930.4z"/>
					<path class="st17" d="M607.3,910.1h23.9c4.3,0,12.9,3.5,12.9,7.8h-44.6C599.5,913.6,602.9,910.1,607.3,910.1z"/>
					<g>
						<path class="st17" d="M589.9,928.6c0,3.8,3,6.8,6.8,6.8s6.8-3,6.8-6.8s-3-6.8-6.8-6.8S589.9,924.9,589.9,928.6z"/>
						<path class="st17" d="M593.3,928.6c0,1.9,1.5,3.4,3.4,3.4s3.4-1.5,3.4-3.4s-1.5-3.4-3.4-3.4
							C594.8,925.2,593.3,926.7,593.3,928.6z"/>
					</g>
					<g>
						<path class="st17" d="M646.8,928.6c0,3.8,3,6.8,6.8,6.8s6.8-3,6.8-6.8s-3-6.8-6.8-6.8S646.8,924.9,646.8,928.6z"/>
						<path class="st17" d="M650.1,928.6c0,1.9,1.5,3.4,3.4,3.4s3.4-1.5,3.4-3.4s-1.5-3.4-3.4-3.4
							C651.7,925.2,650.1,926.7,650.1,928.6z"/>
					</g>
					<line class="st18" x1="631.2" y1="910.1" x2="631.2" y2="917.8"/>
					<line class="st18" x1="615.1" y1="910.1" x2="615.1" y2="917.8"/>
				</g>
			</g>
			<g>
				<circle class="st19" cx="1223.4" cy="923" r="43.5"/>
				<path class="st20" d="M1230.9,896.3c-0.2,0.9-0.2,1.3-0.5,1.9c-0.6,1.7-1.2,5.1-0.9,6.5c0.3,1.3,2.4,4.8,2.4,9.5
					c0,1.5-0.2,3.5-0.5,5.8c-5.8,2-10.6,1.2-13.9,0.1c-0.2-2.3-0.3-4.5-0.2-6.1c0.2-4.5,2.2-8.7,2.4-10c0.3-1.3-0.6-4.4-1-6
					c-0.1-0.3-0.2-1-0.3-1.7c1-1.2,2.1-1.5,3.1-1.2c1.3,0.3,1.7,1,2.9,1.2c1-0.1,1.7-0.8,3-1.2
					C1228.7,894.6,1229.9,895,1230.9,896.3z"/>
				<path class="st1" d="M1218.6,896C1218.6,896.2,1218.6,896.2,1218.6,896C1218.5,896.1,1218.5,896,1218.6,896l-0.1-5.6
					c0,0,0-0.1,0.1-0.1c0,0,0.1,0,0.1,0.1v5.7h-0.1V896z"/>
				<path class="st1" d="M1230.9,896.3L1230.9,896.3C1230.8,896.4,1230.8,896.3,1230.9,896.3l-0.1-5.8c0,0,0-0.1,0.1-0.1
					c0,0,0.1,0,0.1,0.1L1230.9,896.3L1230.9,896.3z"/>
				<path class="st20" d="M1231.6,919.1c-1.7,0.5-3.8-1.5-5.1-5.1c-0.2,1.3-0.7,4.6-1.7,6.3c-1.2-1.6-1.5-4.9-1.7-6.3
					c-1.3,3.6-3.4,5.6-5.1,5.1c0.3,6.5-5.7,28.3-15.7,33.2c-3.7,2.6,4.8,3.5,11.6,2c-1.3,4.4,23,5.3,22.3-0.1
					c6.8,1.5,15.3,0.6,11.6-2C1237.4,947.5,1231.2,925.6,1231.6,919.1z"/>
				<path class="st21" d="M1219.4,919.1c1,4.8-1.9,26.4-5.8,35.4c-0.5,0.1-1.5,0.2-2.1,0.3C1215.8,945.7,1220.3,923.5,1219.4,919.1z
					"/>
				<path class="st21" d="M1229.4,918.8c-1,4.8,1.9,26.3,6,35.4c0.5,0.1,1.5,0.2,2.1,0.3C1233,945.2,1228.5,923,1229.4,918.8z"/>
				<path class="st22" d="M1223.7,885.5c0,0-0.1-1.3,1.3-1.2c0.7,0.1,1.3,1.6-0.3,2.1l-0.1,1.5l-9.3,3.3l9.3-3.3"/>
				<line class="st22" x1="1234.2" y1="890.7" x2="1224.7" y2="888"/>
			</g>
			<g>
				<circle class="st23" cx="1103.6" cy="923" r="43.5"/>
				<polygon class="st24" points="1112.5,959.3 1096.3,959.3 1096.3,885.4 1112.5,898.2 				"/>
				<g>
					<g>
						<rect x="1098.9" y="903.2" class="st25" width="2.5" height="2.5"/>
						<rect x="1102.8" y="903.2" class="st25" width="2.5" height="2.5"/>
						<rect x="1107" y="903.2" class="st25" width="2.5" height="2.5"/>
					</g>
					<g>
						<rect x="1098.9" y="908.4" class="st25" width="2.5" height="2.5"/>
						<rect x="1102.8" y="908.4" class="st25" width="2.5" height="2.5"/>
						<rect x="1107" y="908.4" class="st25" width="2.5" height="2.5"/>
					</g>
					<g>
						<rect x="1098.9" y="913.4" class="st25" width="2.5" height="2.5"/>
						<rect x="1102.8" y="913.4" class="st25" width="2.5" height="2.5"/>
						<rect x="1107" y="913.4" class="st25" width="2.5" height="2.5"/>
					</g>
					<g>
						<rect x="1098.9" y="918.6" class="st25" width="2.5" height="2.5"/>
						<rect x="1102.8" y="918.6" class="st25" width="2.5" height="2.5"/>
						<rect x="1107" y="918.6" class="st25" width="2.5" height="2.5"/>
					</g>
				</g>
				<g>
					<g>
						<rect x="1098.9" y="923.8" class="st25" width="2.5" height="2.5"/>
						<rect x="1102.8" y="923.8" class="st25" width="2.5" height="2.5"/>
						<rect x="1107" y="923.8" class="st25" width="2.5" height="2.5"/>
					</g>
					<g>
						<rect x="1098.9" y="929" class="st25" width="2.5" height="2.5"/>
						<rect x="1102.8" y="929" class="st25" width="2.5" height="2.5"/>
						<rect x="1107" y="929" class="st25" width="2.5" height="2.5"/>
					</g>
					<g>
						<rect x="1098.9" y="934" class="st25" width="2.5" height="2.5"/>
						<rect x="1102.8" y="934" class="st25" width="2.5" height="2.5"/>
						<rect x="1107" y="934" class="st25" width="2.5" height="2.5"/>
					</g>
					<g>
						<rect x="1098.9" y="939.2" class="st25" width="2.5" height="2.5"/>
						<rect x="1102.8" y="939.2" class="st25" width="2.5" height="2.5"/>
						<rect x="1107" y="939.2" class="st25" width="2.5" height="2.5"/>
					</g>
				</g>
				<g>
					<rect x="1098.9" y="944.4" class="st25" width="2.5" height="2.5"/>
					<rect x="1102.8" y="944.4" class="st25" width="2.5" height="2.5"/>
					<rect x="1107" y="944.4" class="st25" width="2.5" height="2.5"/>
				</g>
				<g>
					<rect x="1098.9" y="949.7" class="st25" width="2.5" height="2.5"/>
					<rect x="1102.8" y="949.7" class="st25" width="2.5" height="2.5"/>
					<rect x="1107" y="949.7" class="st25" width="2.5" height="2.5"/>
				</g>
				<g>
					<rect x="1098.9" y="954.6" class="st25" width="2.5" height="2.5"/>
					<rect x="1102.8" y="954.6" class="st25" width="2.5" height="2.5"/>
					<rect x="1107" y="954.6" class="st25" width="2.5" height="2.5"/>
				</g>
			</g>
			<g>
				<circle class="st26" cx="1343.1" cy="923" r="43.5"/>
				<path class="st27" d="M1340.6,951.8c-0.8-1.6-0.1-3.6,1.5-4.3c1.6-0.8,3.6-0.1,4.3,1.5c0.8,1.6,0.1,3.6-1.5,4.3
					C1343.1,954.1,1341.4,953.4,1340.6,951.8z"/>
				<path class="st27" d="M1347.5,950.2c-0.7-1.5-0.1-3.3,1.3-4s3.2-0.1,3.9,1.3c0.7,1.5,0.1,3.3-1.3,4
					C1350.1,952.3,1348.3,951.6,1347.5,950.2z"/>
				<path class="st27" d="M1353.1,946.3c-0.7-1.3-0.1-3.1,1.3-3.7c1.3-0.7,3.1-0.1,3.7,1.3c0.7,1.3,0.1,3.1-1.3,3.7
					C1355.4,948.3,1353.8,947.8,1353.1,946.3z"/>
				<path class="st27" d="M1356.5,940.4c-0.7-1.3-0.1-2.9,1.2-3.6c1.3-0.7,2.9-0.1,3.6,1.2s0.1,2.9-1.2,3.6
					C1358.6,942.3,1357,941.8,1356.5,940.4z"/>
				<path class="st27" d="M1357.4,934.5c-0.5-1.2,0-2.8,1.1-3.3c1.2-0.5,2.8,0,3.3,1.1c0.5,1.2,0,2.8-1.1,3.3
					C1359.4,936.1,1358,935.6,1357.4,934.5z"/>
				<path class="st27" d="M1356.7,928.4c-0.5-1.2-0.1-2.8,1.1-3.3s2.8-0.1,3.3,1.1c0.5,1.2,0,2.8-1.1,3.3
					C1358.8,930.1,1357.4,929.6,1356.7,928.4z"/>
				<path class="st27" d="M1355.4,923c-0.5-1.1-0.1-2.5,1.1-3.1s2.5-0.1,3.1,1.1c0.5,1.1,0,2.5-1.1,3.1
					C1357.4,924.7,1356.1,924.1,1355.4,923z"/>
				<path class="st27" d="M1353.3,918.2c-0.5-1.1-0.1-2.5,1.1-3.1c1.1-0.5,2.5,0,3.1,1.1c0.5,1.1,0,2.5-1.1,3.1
					C1355.2,919.7,1353.8,919.3,1353.3,918.2z"/>
				<path class="st27" d="M1350.9,913.6c-0.4-0.9,0-2.3,0.9-2.8s2.3,0,2.8,0.9s0,2.3-0.9,2.8
					C1352.6,915.2,1351.4,914.8,1350.9,913.6z"/>
				<path class="st27" d="M1348.1,910.1c-0.4-0.9,0-2.1,0.9-2.7c0.9-0.4,2.1,0,2.7,0.9c0.4,0.9,0,2.1-0.9,2.7
					C1349.7,911.6,1348.5,911,1348.1,910.1z"/>
				<path class="st27" d="M1344.3,907.6c-0.4-0.9,0-2.1,0.9-2.7c0.9-0.4,2.1,0,2.7,0.9c0.4,0.9,0,2.1-0.9,2.7
					C1345.8,908.9,1344.7,908.5,1344.3,907.6z"/>
				<path class="st27" d="M1334,950.2c-0.7-1.5-0.1-3.3,1.3-4c1.5-0.7,3.2-0.1,3.9,1.3c0.7,1.4,0.1,3.3-1.3,4
					C1336.6,952.3,1334.7,951.6,1334,950.2z"/>
				<path class="st27" d="M1328.8,946.3c-0.7-1.3-0.1-3.1,1.3-3.7c1.3-0.7,3.1-0.1,3.7,1.3c0.7,1.3,0.1,3.1-1.3,3.7
					C1331.1,948.3,1329.4,947.8,1328.8,946.3z"/>
				<path class="st27" d="M1325.8,940.4c-0.7-1.3-0.1-2.9,1.2-3.6c1.3-0.7,2.9-0.1,3.6,1.2s0.1,2.9-1.2,3.6
					C1328,942.3,1326.4,941.8,1325.8,940.4z"/>
				<path class="st27" d="M1325.1,934.5c-0.5-1.2,0-2.8,1.1-3.3c1.2-0.5,2.8,0,3.3,1.1c0.5,1.2,0.1,2.8-1.1,3.3
					C1327.1,936.1,1325.8,935.6,1325.1,934.5z"/>
				<path class="st27" d="M1325.8,928.4c-0.5-1.2,0-2.8,1.1-3.3c1.2-0.5,2.8-0.1,3.3,1.1c0.5,1.2,0.1,2.8-1.1,3.3
					S1326.3,929.6,1325.8,928.4z"/>
				<path class="st27" d="M1327.5,923c-0.5-1.1,0-2.5,1.1-3.1s2.5-0.1,3.1,1.1c0.5,1.1,0,2.5-1.1,3.1
					C1329.2,924.7,1328,924.1,1327.5,923z"/>
				<path class="st27" d="M1329.6,918.2c-0.5-1.1,0-2.5,1.1-3.1c1.1-0.5,2.5,0,3.1,1.1c0.5,1.1,0,2.5-1.1,3.1
					C1331.6,919.7,1330.2,919.3,1329.6,918.2z"/>
				<path class="st27" d="M1332.4,913.6c-0.4-0.9,0-2.3,0.9-2.8s2.3,0,2.8,0.9c0.4,0.9,0,2.3-0.9,2.8
					C1334,915.2,1332.8,914.8,1332.4,913.6z"/>
				<path class="st27" d="M1335.5,910.1c-0.4-0.9,0-2.1,0.8-2.7c0.9-0.4,2.1,0,2.7,0.9c0.4,0.9,0,2.1-0.8,2.7
					C1337.1,911.4,1336,911,1335.5,910.1z"/>
				<path class="st27" d="M1339.3,907.6c-0.4-0.9,0-2.1,0.8-2.7c0.9-0.4,2.1,0,2.7,0.9c0.4,0.9,0,2.1-0.9,2.7
					C1340.8,908.9,1339.8,908.5,1339.3,907.6z"/>
				<ellipse class="st27" cx="1335.8" cy="953.6" rx="1.3" ry="1.3"/>
				<ellipse class="st27" cx="1352.3" cy="953.2" rx="1.3" ry="1.3"/>
				<path class="st28" d="M1342.2,903.1c0,0-4.8-12.2,1.8-15.1c6.7-2.9-0.5,15.6-0.5,15.6c-2.9-16.6-12.8-20.3-14.4-13.6
					c-1.5,6.8,13.4,14.4,13.4,14.4"/>
				<path class="st28" d="M1353,900.6c0,0-5.9-2.4-9.5,3.1"/>
				<path class="st28" d="M1355,894.6c0,0-8.8-0.8-10.8,7.1"/>
				<path class="st27" d="M1341.1,959.1c0-1.2,1.3-5.5,2.4-5.5c0.8,0,2.4,4.1,2.4,5.5c0,1.2-1.1,2.4-2.4,2.4
					C1342.2,961.4,1341.1,960.4,1341.1,959.1z"/>
			</g>
			<g>
				<ellipse class="st29" cx="983.9" cy="922.9" rx="43.5" ry="43.5"/>
				<path class="st30" d="M961.8,892.4c0,0,6.5,7.4,7.7,7.4c1.3-0.2,5.8-5.8,5.8-5.8l-7.6-7.5c0,0,19.3-3,16.4,14.4
					c9.9,9.9,12.6,13.1,12.6,13.1l-7.6,7.6L977.2,909c0,0-3.8,0.6-6.6,0.2C968,908.7,958.2,905.9,961.8,892.4z"/>
				<path class="st30" d="M1016.6,936.2c0,0-6.2-7.1-7.4-7.1c-1.1,0-5.5,5.6-5.5,5.6l7.4,7.3c0,0-18.4,3-15.6-13.9
					c-9.3-9.5-12-12.6-12-12.6l7.4-7.4l11.3,12.2c0,0,3.8-0.6,6.2-0.2C1010.8,920.5,1020.1,923.3,1016.6,936.2z"/>
				<line class="st31" x1="981.7" y1="921.1" x2="996.8" y2="906.1"/>
				<polyline class="st32" points="985.3,919 995.1,908.4 998.8,911.9 987.1,923.1 982.4,920.4 985.3,919 				"/>
				<line class="st22" x1="980.6" y1="909.2" x2="984.9" y2="905"/>
				<line class="st22" x1="983.7" y1="912.5" x2="987.9" y2="908.3"/>
				<line class="st22" x1="994.6" y1="924.1" x2="999" y2="919.9"/>
				<line class="st22" x1="991.7" y1="921.3" x2="996.1" y2="917"/>
				<polygon class="st30" points="975,923.3 980.8,920.1 986.8,926.2 983.5,931.8 				"/>
				<polyline class="st30" points="982.6,921.1 1002.3,901.4 1002.1,898 1010.8,891.6 1014.7,895.6 1008.6,903.9 1006.3,904.5 
					986.2,924.5 				"/>
				<line class="st33" x1="991.5" y1="923.8" x2="998.3" y2="916.4"/>
				<g id="Layer_3_5_">
					<path class="st34" d="M983.1,936.1l-19.6,19.6c-1.3,1.3-3.3,1.3-4.4,0l-7.5-7.5c-1.3-1.3-1.3-3.3,0-4.4l19.6-19.6
						c1.3-1.3,3.3-1.3,4.4,0l7.5,7.5C984.2,933,984.2,934.9,983.1,936.1z"/>
				</g>
				<g id="Layer_4_5_">
					<polygon class="st35" points="958.3,953 959.1,953.9 979.3,933.6 978.4,932.7 					"/>
					<polygon class="st35" points="975.8,930.2 955.6,950.4 956.5,951.2 976.6,931 					"/>
					<polygon class="st35" points="973.1,927.5 953.1,947.6 953.9,948.5 974,928.4 					"/>
				</g>
			</g>
		</g>
	</g>
</g>
<g id="Layer_3_7_">
</g>
<g>
	<text transform="matrix(1 0 0 1 636.2534 328.1958)" class="st39 st40">     Rental Trip</text>
</g>
<text transform="matrix(1 0 0 1 563 292)" class="st45 st46">Lorem ipsum</text>
</svg>
