<?xml version="1.0" encoding="utf-8"?>
<!-- Generator: Adobe Illustrator 23.0.1, SVG Export Plug-In . SVG Version: 6.00 Build 0)  -->
<svg version="1.1" xmlns="http://www.w3.org/2000/svg" xmlns:xlink="http://www.w3.org/1999/xlink" x="0px" y="0px"
	 viewBox="0 0 300 300" style="enable-background:new 0 0 300 300;" xml:space="preserve">
<style type="text/css">
	.st0{fill:#2275A7;}
	.st1{fill:#7BA1C0;}
	.st2{fill:none;}
	.st3{fill:#2D2D2D;}
	.st4{font-family:'GoodlifeBrush';}
	.st5{font-size:15.4569px;}
</style>
<g id="Layer_1">
	<path class="st0" d="M-69.9,192.1l-1.2-1l0.1,1.1c0,0-0.7,0.2-0.6,0.2c0.1,0,1.3,0.9,1.3,0.9l0.5,0.1l-0.2-0.8L-69.9,192.1z"/>
	<path class="st0" d="M-76.3,187.4c0.2,0,0.9,0.5,0.9,0.5l0.5-0.7l-1-0.6L-76.3,187.4z"/>
	<polygon class="st0" points="-79.2,186.2 -78,188.9 -78.8,189.1 -79.3,186.5 	"/>
	<path class="st0" d="M-82.1,183.2c0.1,0,1,0.3,1,0.3l0.7,0.1l0.5-0.4l0.1-0.5l-2.7,0L-82.1,183.2z"/>
	<g>
		<path class="st1" d="M86.9,258.7c0,0,0.3,0.4,0.3,1.3c0,0.9,0.7,1.6,0,2.3c-0.7,0.7-1.3,0.7-1.1,1.6c0.1,0.9-1,0.1-1.4,1
			c-0.4,0.9-0.5,2.1,0,2.7c0.5,0.6,1.3,1.3,1.3,1.7c0,0.4-0.3,1.1,0.4,1.9c0.7,0.9,0.5,1.7,0.1,2.9c-0.3,1.2,0,4,0.9,4
			c0.9,0.1,2,1.1,2.3,1.7c0.3,0.7,1.7,1,1.9-0.3c0.2-1.3,3.8-4.8,5.2-4.8c1.5,0,3.2-0.7,4.6-1.2c1.5-0.5,3.4-1.9,3.4-2.7
			c0.1-0.9-0.5-0.6-1.3-0.8c-0.8-0.2-1.8-2.6-2.5-3.4c-0.7-0.8-0.5-1.5-0.9-1.8c-0.4-0.3-2.4-1.8-2.9-2.5c-0.5-0.7-1.9-2-2.5-2.1
			c-0.5-0.1-1.6-1-1.7-1.2c-0.1-0.2-1-0.2-1.4-0.2c-0.4,0-0.3-0.1-1.7-1.1C88.7,256.7,86.4,256.2,86.9,258.7z"/>
		<path class="st1" d="M77.9,248.2c0,0-0.3,2.6,1.3,2.8c1.7,0.2,1.7-0.3,2.8-0.3c1.1,0,2.7-0.4,2.7-1.5c0.1-1.1-0.1-1.6-1.5-2.4
			c-1.3-0.8-2.1-1.4-2.5-1.5c-0.5-0.1-1.1,0.1-2,0.1c-0.9,0-1.7-0.6-2.1-1.1c-0.5-0.5-0.7-1.3-1.5-0.7c-0.9,0.7-1.6,2.3-0.5,2.7
			c1.1,0.5,1.7,0.9,2.5,1.1C78,247.7,77.9,248.2,77.9,248.2z"/>
		<path class="st1" d="M68.3,246.1c0,0,0.9,0.7,0.9,1.3c0,0.6,0.8,2,1.6,1.4c0.8-0.6,1.9-0.7,1.2-1.6c-0.7-0.9,0.6-1.7-0.9-1.9
			C69.5,245.2,66.8,244.7,68.3,246.1z"/>
		<path class="st1" d="M62.7,242.7c0.5,0,1.4-0.1,2.3,0c0.9,0.1,2,0.3,2.3,0s1.3,0.4,2.3,0.3c1.1-0.1,2.2-0.1,2.4-0.3
			s0.6-0.1,1.4-0.6c0.8-0.5,0.4-1-0.7-1c-1.1,0-2,0.4-2.8-0.2c-0.8-0.6-1.3-0.1-1.9,0.1c-0.6,0.1-1.1,0.5-1.7,0.2
			c-0.6-0.3-1.7-0.4-1.9-0.5c-0.2-0.1-0.6-0.9-1.1-0.3C62.9,241,62.7,242.7,62.7,242.7z"/>
		<path class="st1" d="M56,236.7c0,0,0.9-0.9,1.1,0.1c0.2,0.9,0.7,1.5,0.9,1.7c0.3,0.3-0.6,0.6-1.4,0.6c-0.8,0-1.5,0.5-2.1-0.2
			c-0.6-0.7-0.8-1.3-1.1-1.5c-0.3-0.1-0.9,0.5-1.4,1.1c-0.5,0.6-1.2,0-1.5-0.7c-0.3-0.7-0.5-1.3-0.7-1.5c-0.2-0.1-1.1-0.7-1.1-1
			c0-0.3-1-0.5-0.2-1.3c0.8-0.9,1-0.8,1.8-0.7c0.8,0.1,1.5-2.1,2.4-1.9c0.9,0.3,1.1,0.7,1.2,1.4c0.1,0.7,0.7,1,0.9,2.1
			C54.9,236,55.7,236.7,56,236.7z"/>
		<path class="st1" d="M30.7,226.6c0,0,0.7,1.9-0.9,1.9c-1.7,0-2.7,0-3,0c-0.3,0-0.3-0.1-1.2-1c-0.9-0.9-0.4-1.2-1.9-1.2
			c-1.5,0-0.7-0.9,0.1-1.5c0.8-0.7,1.3-0.7,1.5-1.4c0.2-0.7,0.5-0.9,1.9-0.9c1.4,0,1.9-0.3,2.8,0c0.9,0.3,1.5,0.1,1.7,0.5
			C31.7,223.5,32.1,224.9,30.7,226.6z"/>
		<path class="st1" d="M19.4,227.2c0,0-0.5,1.4-1.3,1.5c-0.8,0.1,0.6,1.3-0.5,1.3c-1.1,0-1.9-0.8-1.3-2.3c0.7-1.5,1.9-1.4,1.9-1.4
			s0.7-1.7,1.3-1.1C19.9,225.9,19.4,227.2,19.4,227.2z"/>
	</g>
	<path class="st1" d="M240.6,193.3c-0.9,0-0.8,1.9-0.8,1.9s-0.6,3.1-1.9,3.5c-1.3,0.4-1.4-2-1.4-2l-34.3,1.3l-2.2-3.4l-31.9,2.1
		c1.2,0.3,0.9,3.8,0.9,4.7c0,0.9,0.8,1.6,0.9,2.5c0.1,0.9-1.8,0.7-1.8,1.6s1.2,1.3,1.2,1.3s3.4-0.1,3.2-1.7c-0.1-1.6-0.7-2-0.2-2
		c0.5,0,0.4,0.9,0.8,0.9c0.5,0,0.7-0.4,0.9-1.2c0.2-0.7,0.3-1.3,0.8-1.2c0.5,0.1,1.5,0.8,0.7,1.7c-0.8,0.9-2.1,1.5-2,2.6
		c0.1,1.1,1.3,1.5,2.7,1.4c1.4-0.1,4-0.3,4.1-1.3c0-1.1-2.2-0.3-3.1-0.2c-0.9,0.1-2,0.1-2-0.4c0-0.5,1.3-0.8,2.4-0.8
		c1.1,0,2.3-0.3,2.3-0.3s0.6-1.6,1.9-1.7c1.3-0.1,3.8,0.1,3.8,0.9c0,0.8-1.1,1.3-1.6,1c-0.5-0.2-2-0.3-2,0.1c0,0.4,0.7,1.3,1.8,1.1
		c1.1-0.2,2.9-1.1,3.8-0.9c0.9,0.2,2.4,1.4,2.8,1.9c0.4,0.5,1.8,0.8,1.5-0.3c-0.3-1.1-0.2-2.7,1.1-2.6c1.3,0.1,1.2,1,1,1.3
		c-0.2,0.4-0.2,1.6,0.5,1.5c0.7-0.1,1.5,0,1.5,0.5c0,0.5-0.4,1.1-1.1,0.7c-0.7-0.5-2-1-2-1s0.1,1.1,0.7,1.6c0.6,0.5,2.7,1.8,2.7,2.8
		c0,1.1,0.1,2.2,0.1,2.2s0,1.1,0.9,0.7c0.9-0.4,1.6-0.7,2.4-0.8c0.8-0.1,1-0.8,1-0.8s0.4-0.3,1-0.1c0.5,0.2,1.5-0.6,1.7-0.8
		c0.2-0.2,1-0.3,1.1,0.2c0.1,0.5,0.1,0.5-0.4,1c-0.5,0.4-1.6,1.1-1.1,1.4c0.5,0.2,1.6,0.3,2.4-0.5c0.8-0.8,1.2-1.5,0.7-2.1
		c0,0,1-0.4,0.8-1.1c-0.3-0.7,1.5-1,2.2-0.9c0.8,0.1,1.6,0.2,1.3-1c-0.3-1.1-0.2-1.9,0.7-1.9c0.9,0,1-0.3,1-0.7
		c0-0.4,1.1-0.6,1.7-0.3c0.6,0.4,1.3,0.7,1.8,0.7c0.5,0,1.8-0.5,1.8,0.6c0,1.1-0.2,2.8,0.9,2.9c1.2,0.1,1.3,0.1,2,0.6
		c0.7,0.5,1.3,0,1.5-0.1c0.2-0.1,1.3,0.1,0.9,0.9c-0.4,0.8-0.8,1.8,0.6,2.7c1.4,0.9,3.2,1,3.2,2.2s0.1,3.3,0.1,3.3s2.3,0,3.6-1.3
		c0,0,0.4-0.6,0.9-0.3c0.5,0.3,0.7,0.7,0.3,1.4c-0.4,0.7,0,1.2,0.6,1.7c0.6,0.5,1.5,1.1,1.7,2.8c0.2,1.6,0.4,2.9,0.3,4
		c-0.1,1.1-0.2,1.7-0.8,2.8c-0.6,1.1-1,1.7-1.3,2.7c-0.2,0.9-0.7,1.5-0.6,2.4c0.1,1-0.2,1.9,0.8,2.2c1.1,0.3,1.5,0.6,1.6,1
		c0.1,0.5,0.4,1.4,0.9,1.4c0.6,0,1.4-1.1,0.6-2.4c-0.8-1.3-1.1-2-1.3-2.8c-0.2-0.8,0.8-1.2,1.3-0.5c0.5,0.8,0.4,2.9,1,3.1
		c0.6,0.1,0.8-0.2,0.7-0.7c0-0.5,0-1.2,0.4-1.2c0.4,0,1.3,0.8,1.1,1.9c-0.1,1.1-0.7,1.8-0.8,2.3c-0.1,0.5-0.4,1.2,0.3,1.4
		c0.7,0.2,1.4,0.9,0.6,1.2c-0.8,0.3-1.1-0.6-1.3,0.1c-0.2,0.6-0.2,1-0.7,0.8c-0.5-0.1-1.3-0.6-1.9-0.4c-0.5,0.2,0.3,0.9,0.3,0.9
		s0.8,0.7,0.7,1.3c-0.1,0.7-0.7,1.5-0.7,1.5s0.2,0.5,0.5,0.8c0.2,0.3,0.5,1,1,1.1c0.5,0.1,0.8,0.2,1.1,0.9c0.3,0.6,0.4,1.1,1,1.1
		c0.5-0.1,1.2-0.6,1.5,0.1c0.3,0.7,0.6,1.3,1,1.3c0.4,0,0.6-0.5,0.6-1c0.1-0.5,0.3-1.9,1.7-1.9c1.4,0,1.8,1,1.1,1.7
		c-0.7,0.7-1.5,1.5-0.7,1.7c0.8,0.2,1.4,1.2,1,1.9c-0.4,0.7-1.7,0.7-2.5-0.1c-0.8-0.8-1.4-1.5-1.9-0.7c-0.5,0.8,0.9,2.3,0.9,2.3
		s-0.4,1.6,0.4,2.1c0.9,0.5,1.6,0.5,2,0.3c0.4-0.2,1.1-0.1,1.4,0.3c0.2,0.4,1,0.4,1.1-0.7c0.1-1.2,0.7-2.1,1.4-1.9
		c0.7,0.2,0.7,1.1,0.8,1.6c0,0.5,0.3,3,0.8,4c0.5,1,1,1.8,1.5,1.8c0.6,0,0.7,0.3,0.8,0.6c0,0.3,0.5,0.8,0.8,0.4
		c0.4-0.3,1.5-0.5,1.1,0.2c-0.4,0.7-0.8,1.3,0,1.3c0.8,0,2.3,0.1,2.7,0.1c0.4-0.1,1.2-0.8,1.8-0.7c0.6,0.1,0.5,1.5,0.6,1.9
		c0,0.4,0.3,1.4-0.6,1.8c-1,0.4-3.1,1.3-2.4,2c0.7,0.7,2.1-0.4,2.5-0.7c0.4-0.3,0.8-0.7,1-0.4c0.2,0.3-0.1,0.8-1.5,1.8
		c-1.4,1,0.4,1.7,1.7,0.7c1.2-1,1.7-1.1,2.3-0.6c0.5,0.5,0.9,1.6-0.2,1.9c-1.1,0.3-3.1-0.1-3.8,0.4c-0.8,0.5-1,1.2-1,1.2
		s0.8,0.6,1.3,1c0.5,0.4,1.3,0.5,1.8,0.5c0.5,0,1.6-1.1,2.1-1.1c0.5,0,0.7,1.1,1.6,1c0.9-0.1,0.7-1.4,0.7-1.5s0-0.9,1.5-1.3
		c1.5-0.4,3-2,3-2s0.5-0.3,0-0.8c-0.5-0.5-1.3-1.4-1.3-2c0-0.7-0.1-1.5,0.2-2.5c0.4-1.1,1.1-3,1.9-4c0.8-1,1.7,0,1.8-1
		c0.1-1-0.7-2.8-0.7-3.5c-0.1-0.7-0.2-1-0.1-1.6c0.1-0.6,0.4-2.2,0.4-2.5c0-0.3-0.7,0.5-1,0.5c-0.2,0-0.7-1.4-0.4-2.1
		c0.2-0.6,0.9-0.4,0.9-0.8c0-0.5,0-1.7-1.1-1.4c-1.1,0.3-1.6-0.3-1.6-1.2s-0.2-2.6-0.4-3.3c-0.2-0.7-0.2-1.4-0.8-2.1
		c-0.6-0.7-0.9-1.3-0.9-1.8c0-0.6,0.3-1.2,0.7-0.4c0.4,0.8,1.4,2.2,1.7,2.9c0.2,0.7,0.4,4.1,1.7,3.5c1.4-0.6-1-4.1-1.6-5.1
		c-0.6-1-1.4-3-2.1-4c-0.7-1-1.1-2.4-1.4-3.4c-0.4-1-0.6-1.6-1.1-1.5c-0.5,0.1-0.4,0.7,0,1.6c0.5,0.8,0.6,2.1,0.3,2
		c-0.3-0.1-1-1.1-1.6-2.1c-0.7-1.1-0.6-1.9-0.6-1.9s0.4,0.1,0.7-0.3c0.4-0.4,0.2-1.1,0-1.5c-0.2-0.4-1-2.9-1.6-2.9
		c-0.7,0-0.1,0.9-0.1,0.9s0.2,1.1,0.2,1.7s-0.2,0.6-0.2,0.6s-1.1-0.4-1.6-1.7c-0.5-1.3-0.7-2-1.5-3.1c-0.8-1.2-1.8-3.2-1.8-3.7
		c0-0.5,0.6-0.7,0.9-0.2s1,1,1.4,0.9c0.3-0.1,0.7,1.4,1.3,0.9c0.6-0.5,0.3-1.8-1.2-3.8c-1.5-2-1.7-2.2-2.1-1.9
		c-0.4,0.3-0.2,0.8-0.2,0.8s-0.5,0.2-0.8-0.5c-0.4-0.7-1-1.3-1.9-1.2l-1-1.1c0,0-0.4-0.4,0.1-0.9c0.4-0.4,0.9-0.1,0.9-0.1
		s1.3,1.2,1.5,0.8c0.3-0.4-0.6-1.3-0.6-1.3s-0.7-0.9-0.9-1.3c-0.2-0.4-0.5-0.7-1-1.3c-0.4-0.6-1.2-1.6-1.5-2.6c-0.3-1-0.3-2-0.6-2.9
		c-0.3-0.8-0.5-1.9-1-2.4c-0.5-0.6-0.8-1.1-0.8-1.7c0-0.6,0-2.3-0.4-3.2c-0.3-0.9-0.6-1.2-0.8-1.9c-0.3-0.7-0.5-1.6-0.3-2
		c0.2-0.4,0-2.1,0-2.2l-0.4-0.1C243.6,195.2,241.5,193.3,240.6,193.3z"/>
	<path class="st1" d="M168.1,129.4l-1.3-0.7l-2-1c0,0.5-0.2,0.8-0.5,0.9c-0.4,0.3-1.3,0.1-3-1.3c-0.9-0.6-1.8-1.4-2.3-1.9
		c-1.2-0.9-1.9-1.1-2.7-1.1c-0.1,0-0.4,0-0.8,0.1c0,0-0.1,0-0.1,0c-1.2,0.1-2.4,0.2-3.1,0.2c-1.6,0.1-0.7,0.3-2.4,0.3
		c-1.7,0-2.2,0-3.5,0c-0.7,0-1.5,0.5-2.3,0.9c-0.6,0.4-1.1,0.7-1.4,0.7c0,0,0,0,0,0c-0.1,0-0.2,0-0.3,0c-0.9,0-1-0.7-1.1-1.3
		c-0.2-0.5-0.7-1.2-1.4-1.4c-0.2,0-0.4,0-0.7-0.1c-0.7,0-1.5-0.2-2.1-0.6c-0.7-0.4-1.1-0.7-1.5-0.6c-0.5,0.3-0.8,1.2-0.8,2
		c0,0.1,0,0.1,0,0.2c-0.1,0.4-0.3,0.6-0.5,0.7c-0.3,0.2-0.6,0.2-0.8-0.2c-0.4-0.8-0.5-1.5-1.2-1.3c-0.5,0.2-0.5,0.6-0.9,0.9
		c-0.4,0.5-1.6,0.2-2.9-0.4c-0.1,0-0.1-0.1-0.2-0.1c-0.1,0-0.3,0-0.4,0c-0.2,0-0.5,0.1-0.7,0.2c-0.7,0.3-1.4,0.9-2.5,0.9
		c-1.1,0.1-1.7-1-2.4-2c-0.1-0.2-0.3-0.5-0.4-0.9c-0.4-0.7-0.7-1.4-0.9-2c-0.5-0.8-1.3-1.2-2.2-0.4c-0.4,0.3-0.6,0.6-0.7,0.9
		c0,0.5,0.2,1.5-0.1,1.5c0.1,0.3,0.2,0.4-0.2-0.1c-0.1-0.1-0.3-0.2-0.4-0.5c-1.2-1.3-2.7-1.8-3.8-1.9c-0.5,0-0.8,0-1,0
		c0,0-0.1,0-0.1,0c0,0-0.2-0.2-0.6-0.4c-0.4-0.2-0.9-0.5-1.8-0.8c-0.1,0-0.1-0.1-0.2-0.1c-0.1,0-0.3,0-0.4-0.1
		c-1.4-0.1-2.3-2.1-2.6-2.6c-0.2-0.3-0.8-1.2-1.7-1.8c-0.5-0.3-1.1-0.5-1.6-0.6c0,0-0.1,0-0.1,0c-1.7,0-4.4-0.4-5.2-0.7
		c-0.2-0.1-0.5-0.2-0.7-0.2c-0.5-0.1-0.9-0.3-0.9-0.3l0.8-28.7l-35.3-3.5l-5.5,66.4l-42.9-4.1l-0.3,2.7l-0.5-0.1
		c0.3,0.2,1,0.7,1.1,1.1c0,0.4,0.1,1.3,0.1,1.3l1.7,2.6c0,0,1,0.8,1.7,1c0.7,0.1,3,2.4,3.6,3.9c0.6,1.5,1,2.2,1.7,2.8
		c0.7,0.6,2.5,2.6,2.7,3c0.1,0.4,0.6,0.4,0.8,0.4c0.2,0,0.7,0.2,0.8,0.7c0.1,0.5,0.6,1.1,1.5,1.7c1,0.6,2.5,2,2.7,3.1
		c0.2,1.1,0.8,4.7,1.2,6c0.4,1.3,1.2,4,1.4,5c0.1,1.1,0.8,2.3,1.1,2.5c0.3,0.2,0.4,1.2,1.7,2.5c1.2,1.3,3.2,2.7,4.2,2.7l1.9,1.6
		c0,0,1.3,0.2,1.7,0.2c0,0,1,0.9,1.8,1c0.9,0.1,1.1,1.1,1.6,1.6c0.5,0.5,2.3,2.6,3.6,2.3c1.3-0.4,1.8-2.4,2.6-3.1
		c0.8-0.7,1.7-2.8,1.7-3.9c0-1.1,0.9-2.5,1.9-3c1-0.5,1.7-2,1.7-2s1.4-1.6,2.9-0.6c1.4,1,2.6,0.6,2.6,0.6s0.3,0.5,1.6,0.7
		c1.3,0.2,2.5,0.6,2.6,1c0,0,1.1-0.7,1.7,0.1c0.6,0.7,1.4,0.4,1.4,0.2c0-0.1,1.5,0.2,2.6,1.1c1.1,1,2.3,1,3.1,1.3
		c0.9,0.3,1.4,0.5,1.7,1.7c0.2,1.2,2.9,3.2,3.5,3.6c0.6,0.4,0.9,2.1-0.1,1.9c0,0,4.5,2.7,3.6,4.8c0,0-0.2,0.3,0.2,0.9
		c0.4,0.6,2.5,4,2.9,5.1c0.5,1.1,0.9,1.5,1.3,1.7c0,0,0.1,0.7,0.2,1.3c0.2,0.6,2.6,5.1,2.6,5.1s0.7,1.9,1.9,2.6
		c1.2,0.7,3.2,1.6,3.2,3.4s0,3.5,0.8,4.6c0.8,1.1,0.7,3,0.5,3.4c-0.2,0.5,0.1,0.9,0.5,1.3c0.4,0.4,1.2,2.2,2,2.3
		c0.8,0.2,2.1,1.4,2.1,2.9c0,1.4,1.7,2.9,2.8,3.3c1.1,0.4,1.6,1.1,1.7,1.9c0.1,0.8,0.9,1.1,1,0.7c0.1-0.4,1.5-0.2,2,0.6
		c0.5,0.7,1.4,0.7,2,0.7c0.6,0,6.7-0.1,6.7-0.1s2.3-0.1,2.9,1.2c0.6,1.3,2.2,3.4,3.8,2.6c1.6-0.7,0.5-2.8,0.2-2.9
		c-0.2-0.1,1.1-1.9,1.1-1.9s0.8-0.6,0.5-2.1c-0.4-1.5-0.8-2-0.6-3.3c0.2-1.3-1.2-4.3-1-7.2c0.2-2.9,0.7-4.5,1.4-6.2
		c0.7-1.7-0.4-1.9-1.3-0.3c-0.9,1.6-1.8,4-1.6,7c0.2,3,0.9,4.4,1,6.2c0.1,1.8,0.5,3.4,0.9,3.8c0.4,0.4,0.1,1.6-0.2,1.2
		c-0.4-0.4-1.1-2-1.5-2.5c-0.4-0.5-0.4-1.3-0.4-2.2c0-0.8,0-2.8-0.7-3.6c-0.7-0.8-1.3-2-1.3-3.5c0-1.6-0.3-2.1-1.4-2.5
		c-1.1-0.5-1.6-1.5-1.5-1.8c0.1-0.3,0.4-0.2,0.6,0.1c0.2,0.3,0.4,0.2,0.7,0.2c0.4,0,1.7-2.5,1.7-2.5l0.3,4.2c0,0,1,0.8,1.1-0.2
		c0.1-1.1,1-3.6,1.6-5c0.7-1.4,0.3-3.7-1.3-4c-1.7-0.3-3.1-1.3-3-1.3s2.2,0.4,3.1,0c1-0.5,2.2-0.2,2.4,0.6c0.2,0.8,0.8,0.6,1.1,0
		c0.3-0.6,1.4-0.8,2.3-5.3c0,0,0-0.4,0.8-0.4c0.8,0,1.3,0.2,1.6-0.7c0.2-1,0.7-3.5,2.3-1l0.2,0.4c0,0-2.8,1.4-4.3,4.1
		c0,0-1,1.6-1.2,2.6c-0.2,1,0.9,0.8,1.3,0.1c0.4-0.7,0.2-1.8,1.3-2.8c1.1-1,4-2.7,4.3-3.4c0.3-0.7,0.8-1.2,0.8-1.2s0.1-0.3-0.7-1.4
		c-0.8-1.1-1.9-3.1-1.5-3.5c0.4-0.5,1.8,0.6,2.2,1.2c0.4,0.6-0.5-1.8,0.6-1.6c1.1,0.2,0.7,0.8,0.7,0.8s1.6-1.8,2-1.1
		c0.5,0.7-1.2,2.2-1.2,2.6c-0.1,0.4-1.9,1.9-1.8,2.4c0,0.6,0.1,0.7,0.9,0.4c0.8-0.3,6.3-3.5,6.3-3.5s0.3-0.4-0.5-0.1
		c-0.8,0.4-1.9,1-1.9,1s-2,0-1.2-0.6c0.7-0.6,3.4-1.8,3.6-1.3c0.2,0.5,0.1,0.9,0.3,0.9c0.2,0,2-1.2,2.5-1.9c0.5-0.7,1.7-0.7,2.1-0.6
		c0.5,0.1,1,0.1,1.8-0.4c0.8-0.5,1.1-0.7,1.7-0.7c0.6,0,2.1-1.1,2.1-2.2c0,0,1.2-0.3,1.5-0.9c0,0,0.9,1.8,1.9,0.5
		c1-1.3,2.2-2.2,1.4-2.5c-0.7-0.3-2.2,0.3-2.4,0.7c-0.2,0.4-0.4-0.4-0.4-1.4s0.2-3-1-4c-1.1-1,0-1.6,0.9-1.7c0.8,0,2.6-1.4,2.6-1.4
		s1.8-1,1.3,0.4c-0.4,1.3-0.8,2.5-0.5,3c0.3,0.5,1.3,1.1,2.1,0.5c0,0-1.6,1-2.5,1.3c-1,0.4-0.8,1.4,0.5,1.1c1.3-0.2,3.7-1.4,3.7-1.4
		s1.1-1.8,2.1-2.2c1-0.4,2.9-0.1,3.6-0.1c0.7,0,1.9-0.4,2-0.8c-0.9-2,0.2-3.1,1.4-3.9c0.9-0.6,0.1-1.1-0.3-1.4
		c-0.2,0-0.3-0.1-0.3-0.1s0.1,0,0.3,0.1c0.2,0,0.4,0,0.6-0.2c0.6-0.5,0.8-4.2,0.1-6.5c-0.8-2.3,0.4-4.6,0.9-6.3
		c0.6-1.7-0.4-3-1.6-3.4c-1.2-0.4-0.8-2.3-0.8-3.7c0-1.4-0.2-4.4-0.9-4.4c-0.8,0-1.6-1-1.8-3.1c-0.2-2.1-2.4-4.2-2.4-4.2l0.7-12.4
		l-0.3-6.7L168.1,129.4z"/>
	<path class="st1" d="M70.6,39.8l35.3,3.5L105,72c0,0,0.4,0.1,0.9,0.3c0.7,0.2,1.7,0.4,2.7,0.4c0.9,0,2.2,0.2,3.4,0.5
		c0.6,0,1.2,0.3,1.6,0.6c0.6,0.3,1.1,0.7,1.4,1.1c1.1,1.6,1.4,2.6,3.3,3.3c0.8,0.1,1.5,0.5,2,0.9c0.5,0.3,0.6,0.4,0.6,0.4s0,0,0.1,0
		c0.3,0,0.6,0,1,0c1.1,0.1,2.8,0.5,3.7,1.7c0,0.1,0.1,0.1,0.1,0.2c0,0,0.1,0.1,0.1,0.1c0.1,0.2,0.3,0.3,0.3,0.4
		c0.1,0.1,0.1,0.1,0.2,0.1c-0.1-0.3-0.2-0.9,0.1-1.5c0-0.1,0-0.2,0-0.3c0.1-0.4,2-2.1,2.8-0.5c0,0.1,0.1,0.1,0.1,0.2
		c0.4,0.6,0.7,1.3,0.9,2c0.7,1.5,1.7,2.9,2.8,2.9c0.8,0,1.7-0.6,2.5-0.9c0.4-0.2,0.7-0.3,1.2-0.1c0.8,0.2,1.7,0.7,2.5,0.7
		c0.3,0,0.4-0.1,0.6-0.2c0.1-0.1,0.1-0.1,0.1-0.2c0.3-0.8,1.5-1.1,1.8-0.1c0.2,0.6,0.6,0.9,1,0.9c0.2-0.1,0.5-0.4,0.5-0.7
		c0-0.1,0-0.1,0-0.2c-0.1-0.6,0.2-1.6,0.7-1.9c0.1,0,0.1-0.1,0.2-0.1c0.3-0.2,0.6-0.1,1,0.2c0.7,0.7,1.9,1,2.7,1.1
		c0.1,0,0.2,0,0.3,0c0.1,0,0.2,0,0.4,0.1c0,0,0.1,0,0.1,0c0.5,0,1.2,0.8,1.3,1.4c0.2,0.6,0.7,1.3,1.4,1.3c0.4-0.1,0.9-0.4,1.4-0.7
		c0.6-0.4,1.3-0.8,1.8-0.9c1-0.1,3.9,0,3.9,0l1.7-0.3c0,0,0.3,0,0.7,0c0,0,0,0,0,0c1-0.1,2.4-0.2,3.2-0.2c0.3,0,0.6-0.1,0.8-0.1
		c0,0,0.1,0,0.1,0s1-0.4,2.4,0.9c0,0,0.1,0.1,0.2,0.1c0.6,0.4,1.3,1,2.3,1.8c0,0,0,0,0,0c1.1,0.8,2.3,1.4,3,1.3
		c0.3-0.2,0.4-0.6,0.5-0.9l0,0l-2-42.5l-0.1-7.9l-88.4-3.5L83,34c-2.7-0.2-5.6-0.5-8.7-0.8l-3.2-0.3L70.6,39.8z"/>
	<path class="st1" d="M255.3,90.7c0-0.4-0.1-0.9-0.3-1.5c-0.2-0.5-0.4-1-0.3-1.9c0.1-0.6,0.2-0.9,0.2-0.9s-4,0.5-5.1,0.5
		c-1.3,0.1-1.3-1.8-0.8-2.5c0.4-0.8,0.3-1.1-0.2-1.7c-0.5-0.3-0.5-1.4-0.5-1.4l-53.5,1.6c0.9,9.5,1.4,19.6,1.7,27.5
		c0.3,6.2,0.5,11.9,0.3,14.7c0,0.1,0,0.2,0,0.2l2,1l-1.8-0.9l1.8,0.9l2.4,1.2l0-0.3l0.1,0.3l0.1,6.6l38.1-0.3
		c-1-1.7,1.4-4.6,1.5-4.8c0,0,0,0,0-0.1c-0.1-0.3-1-0.9-0.5-1.9c0,0,0-0.1,0-0.1c0-0.1,0-0.1,0.1-0.2c0.3-1-0.6-1.5-0.6-1.5
		c-0.1-0.1-0.2-0.3-0.2-0.4c-0.3-0.5-0.6-1.1-0.7-2.1c0-0.4,0-0.9,0.1-1.3c0.1-0.6,0.3-1.2,0.6-1.7c0.7-1.5,1.6-2.9,2.3-3.8
		c0.8-1.3,1.7-2.5,2.5-3.4c0.1-0.1,0.1-0.1,0.2-0.2c0.1-0.2,0.3-0.4,0.4-0.6c0.1-0.3,0.1-0.7,1-2.1c0.3-0.5,0.6-1.1,0.9-1.6
		c0.5-1.2-0.1-1.3,0.1-1.6c0-0.1,0.1-0.1,0.2-0.3c0.3-0.3,0.7-0.8,1-1.2c0.3-0.4,1-0.8,1.1-1.5c0,0,0,0,0,0c0,0,0-0.1,0-0.1
		c0-0.1,0-0.2,0-0.2c0-0.4,0.1-0.6,0.2-0.7c0.1-0.2,0.2-0.3,0.2-0.3s0.5-1,0.7-2.1c0-0.5,0.1-1,0.3-1.5c0.2-0.9,0.5-1.6,1.3-2.1
		c1.1-0.7,1.6-2.5,1.6-2.5l0.6-0.6l-0.4-1.5C254,91.6,255.1,91.4,255.3,90.7z"/>
</g>
<g id="Layer_2">
	<rect x="107.2" y="55.7" class="st2" width="113.3" height="46.2"/>
	<text transform="matrix(1 0 0 1 107.1914 65.416)" class="st3 st4 st5">Oklahoma</text>
	<rect x="193.6" y="65" class="st2" width="113.3" height="46.2"/>
	<text transform="matrix(1 0 0 1 193.6263 74.7803)" class="st3 st4 st5">Arkansas</text>
	<rect x="179.6" y="243" class="st2" width="99.4" height="34.8"/>
	<text transform="matrix(1 0 0 1 179.6094 252.7246)" class="st3 st4 st5">Florida</text>
	<rect x="26.2" y="258.7" class="st2" width="113.3" height="46.2"/>
	<text transform="matrix(1 0 0 1 26.1914 268.415)" class="st3 st4 st5">Hawaii</text>
	<rect x="89.2" y="160.7" class="st2" width="113.3" height="46.2"/>
	<text transform="matrix(1 0 0 1 89.1914 170.415)" class="st3 st4 st5">Texas</text>
	
		<image style="overflow:visible;" width="1732" height="404" xlink:href="../Screen Shot 2018-12-03 at 9.00.49 PM.png"  transform="matrix(0.5 0 0 0.5 -222 344)">
	</image>
</g>
<g id="Layer_3">
</g>
</svg>
