<?xml version="1.0" encoding="utf-8"?>
<!-- Generator: Adobe Illustrator 23.0.1, SVG Export Plug-In . SVG Version: 6.00 Build 0)  -->
<svg version="1.1" id="Layer_1" xmlns="http://www.w3.org/2000/svg" xmlns:xlink="http://www.w3.org/1999/xlink" x="0px" y="0px"
	 viewBox="0 0 300 300" style="enable-background:new 0 0 300 300;" xml:space="preserve">
<style type="text/css">
	.st0{opacity:0.6;}
	.st1{fill:#7BA1C0;}
	.st2{opacity:0.4;fill:#7BA1C0;enable-background:new    ;}
	.st3{opacity:0.2;fill:#7BA1C0;enable-background:new    ;}
	.st4{fill:none;}
	.st5{fill:#2D2D2D;}
	.st6{font-family:'GoodlifeBrush';}
	.st7{font-size:15.4569px;}
	.st8{font-size:36px;}
	.st9{font-size:30px;}
	.st10{fill:#757575;}
	.st11{font-size:18px;}
	.st12{opacity:0.8;fill:#7BA1C0;enable-background:new    ;}
</style>
<g class="st0">
	<path class="st1" d="M107.7,255.6c0,0,0.3,0.4,0.3,1.3s0.7,1.6,0,2.3c-0.7,0.7-1.3,0.7-1.1,1.6c0.1,0.9-1,0.1-1.4,1s-0.5,2.1,0,2.7
		s1.3,1.3,1.3,1.7c0,0.4-0.3,1.1,0.4,1.9c0.7,0.9,0.5,1.7,0.1,2.9c-0.3,1.2,0,4,0.9,4c0.9,0.1,2,1.1,2.3,1.7c0.3,0.7,1.7,1,1.9-0.3
		c0.2-1.3,3.8-4.8,5.2-4.8c1.5,0,3.2-0.7,4.6-1.2c1.5-0.5,3.4-1.9,3.4-2.7c0.1-0.9-0.5-0.6-1.3-0.8c-0.8-0.2-1.8-2.6-2.5-3.4
		s-0.5-1.5-0.9-1.8s-2.4-1.8-2.9-2.5s-1.9-2-2.5-2.1c-0.5-0.1-1.6-1-1.7-1.2s-1-0.2-1.4-0.2s-0.3-0.1-1.7-1.1
		C109.5,253.6,107.2,253.1,107.7,255.6z"/>
	<path class="st1" d="M98.7,245.1c0,0-0.3,2.6,1.3,2.8c1.7,0.2,1.7-0.3,2.8-0.3c1.1,0,2.7-0.4,2.7-1.5c0.1-1.1-0.1-1.6-1.5-2.4
		c-1.3-0.8-2.1-1.4-2.5-1.5c-0.5-0.1-1.1,0.1-2,0.1s-1.7-0.6-2.1-1.1c-0.5-0.5-0.7-1.3-1.5-0.7c-0.9,0.7-1.6,2.3-0.5,2.7
		c1.1,0.5,1.7,0.9,2.5,1.1C98.8,244.6,98.7,245.1,98.7,245.1z"/>
	<path class="st1" d="M89.1,243c0,0,0.9,0.7,0.9,1.3s0.8,2,1.6,1.4c0.8-0.6,1.9-0.7,1.2-1.6c-0.7-0.9,0.6-1.7-0.9-1.9
		C90.3,242.1,87.6,241.6,89.1,243z"/>
	<path class="st1" d="M83.5,239.6c0.5,0,1.4-0.1,2.3,0s2,0.3,2.3,0s1.3,0.4,2.3,0.3c1.1-0.1,2.2-0.1,2.4-0.3s0.6-0.1,1.4-0.6
		s0.4-1-0.7-1s-2,0.4-2.8-0.2c-0.8-0.6-1.3-0.1-1.9,0.1c-0.6,0.1-1.1,0.5-1.7,0.2s-1.7-0.4-1.9-0.5c-0.2-0.1-0.6-0.9-1.1-0.3
		C83.7,237.9,83.5,239.6,83.5,239.6z"/>
	<path class="st1" d="M76.8,233.6c0,0,0.9-0.9,1.1,0.1c0.2,0.9,0.7,1.5,0.9,1.7c0.3,0.3-0.6,0.6-1.4,0.6s-1.5,0.5-2.1-0.2
		s-0.8-1.3-1.1-1.5c-0.3-0.1-0.9,0.5-1.4,1.1s-1.2,0-1.5-0.7s-0.5-1.3-0.7-1.5c-0.2-0.1-1.1-0.7-1.1-1s-1-0.5-0.2-1.3
		c0.8-0.9,1-0.8,1.8-0.7s1.5-2.1,2.4-1.9c0.9,0.3,1.1,0.7,1.2,1.4s0.7,1,0.9,2.1C75.7,232.9,76.5,233.6,76.8,233.6z"/>
	<path class="st1" d="M51.5,223.5c0,0,0.7,1.9-0.9,1.9c-1.7,0-2.7,0-3,0s-0.3-0.1-1.2-1s-0.4-1.2-1.9-1.2s-0.7-0.9,0.1-1.5
		c0.8-0.7,1.3-0.7,1.5-1.4s0.5-0.9,1.9-0.9s1.9-0.3,2.8,0c0.9,0.3,1.5,0.1,1.7,0.5C52.5,220.4,52.9,221.8,51.5,223.5z"/>
	<path class="st1" d="M40.2,224.1c0,0-0.5,1.4-1.3,1.5s0.6,1.3-0.5,1.3s-1.9-0.8-1.3-2.3c0.7-1.5,1.9-1.4,1.9-1.4s0.7-1.7,1.3-1.1
		C40.7,222.8,40.2,224.1,40.2,224.1z"/>
</g>
<path class="st1" d="M163.9,91.4l-1.3-0.7l-2-1c0,0.5-0.2,0.8-0.5,0.9c-0.4,0.3-1.3,0.1-3-1.3c-0.9-0.6-1.8-1.4-2.3-1.9
	c-1.2-0.9-1.9-1.1-2.7-1.1c-0.1,0-0.4,0-0.8,0.1h-0.1c-1.2,0.1-2.4,0.2-3.1,0.2c-1.6,0.1-0.7,0.3-2.4,0.3s-2.2,0-3.5,0
	c-0.7,0-1.5,0.5-2.3,0.9c-0.6,0.4-1.1,0.7-1.4,0.7l0,0c-0.1,0-0.2,0-0.3,0c-0.9,0-1-0.7-1.1-1.3c-0.2-0.5-0.7-1.2-1.4-1.4
	c-0.2,0-0.4,0-0.7-0.1c-0.7,0-1.5-0.2-2.1-0.6c-0.7-0.4-1.1-0.7-1.5-0.6c-0.5,0.3-0.8,1.2-0.8,2c0,0.1,0,0.1,0,0.2
	c-0.1,0.4-0.3,0.6-0.5,0.7c-0.3,0.2-0.6,0.2-0.8-0.2c-0.4-0.8-0.5-1.5-1.2-1.3c-0.5,0.2-0.5,0.6-0.9,0.9c-0.4,0.5-1.6,0.2-2.9-0.4
	c-0.1,0-0.1-0.1-0.2-0.1s-0.3,0-0.4,0c-0.2,0-0.5,0.1-0.7,0.2c-0.7,0.3-1.4,0.9-2.5,0.9c-1.1,0.1-1.7-1-2.4-2
	c-0.1-0.2-0.3-0.5-0.4-0.9c-0.4-0.7-0.7-1.4-0.9-2c-0.5-0.8-1.3-1.2-2.2-0.4c-0.4,0.3-0.6,0.6-0.7,0.9c0,0.5,0.2,1.5-0.1,1.5
	c0.1,0.3,0.2,0.4-0.2-0.1c-0.1-0.1-0.3-0.2-0.4-0.5c-1.2-1.3-2.7-1.8-3.8-1.9c-0.5,0-0.8,0-1,0h-0.1c0,0-0.2-0.2-0.6-0.4
	c-0.4-0.2-0.9-0.5-1.8-0.8c-0.1,0-0.1-0.1-0.2-0.1s-0.3,0-0.4-0.1c-1.4-0.1-2.3-2.1-2.6-2.6c-0.2-0.3-0.8-1.2-1.7-1.8
	c-0.5-0.3-1.1-0.5-1.6-0.6h-0.1c-1.7,0-4.4-0.4-5.2-0.7c-0.2-0.1-0.5-0.2-0.7-0.2c-0.5-0.1-0.9-0.3-0.9-0.3l0.8-28.7L58,42.2
	l-5.5,66.4l-42.9-4.1l-0.3,2.7l-0.5-0.1c0.3,0.2,1,0.7,1.1,1.1c0,0.4,0.1,1.3,0.1,1.3l1.7,2.6c0,0,1,0.8,1.7,1
	c0.7,0.1,3,2.4,3.6,3.9s1,2.2,1.7,2.8s2.5,2.6,2.7,3c0.1,0.4,0.6,0.4,0.8,0.4c0.2,0,0.7,0.2,0.8,0.7c0.1,0.5,0.6,1.1,1.5,1.7
	c1,0.6,2.5,2,2.7,3.1s0.8,4.7,1.2,6s1.2,4,1.4,5c0.1,1.1,0.8,2.3,1.1,2.5s0.4,1.2,1.7,2.5c1.2,1.3,3.2,2.7,4.2,2.7l1.9,1.6
	c0,0,1.3,0.2,1.7,0.2c0,0,1,0.9,1.8,1c0.9,0.1,1.1,1.1,1.6,1.6s2.3,2.6,3.6,2.3c1.3-0.4,1.8-2.4,2.6-3.1c0.8-0.7,1.7-2.8,1.7-3.9
	c0-1.1,0.9-2.5,1.9-3s1.7-2,1.7-2s1.4-1.6,2.9-0.6c1.4,1,2.6,0.6,2.6,0.6s0.3,0.5,1.6,0.7s2.5,0.6,2.6,1c0,0,1.1-0.7,1.7,0.1
	c0.6,0.7,1.4,0.4,1.4,0.2c0-0.1,1.5,0.2,2.6,1.1c1.1,1,2.3,1,3.1,1.3c0.9,0.3,1.4,0.5,1.7,1.7c0.2,1.2,2.9,3.2,3.5,3.6
	c0.6,0.4,0.9,2.1-0.1,1.9c0,0,4.5,2.7,3.6,4.8c0,0-0.2,0.3,0.2,0.9c0.4,0.6,2.5,4,2.9,5.1c0.5,1.1,0.9,1.5,1.3,1.7
	c0,0,0.1,0.7,0.2,1.3c0.2,0.6,2.6,5.1,2.6,5.1s0.7,1.9,1.9,2.6c1.2,0.7,3.2,1.6,3.2,3.4s0,3.5,0.8,4.6s0.7,3,0.5,3.4
	c-0.2,0.5,0.1,0.9,0.5,1.3c0.4,0.4,1.2,2.2,2,2.3c0.8,0.2,2.1,1.4,2.1,2.9c0,1.4,1.7,2.9,2.8,3.3c1.1,0.4,1.6,1.1,1.7,1.9
	c0.1,0.8,0.9,1.1,1,0.7c0.1-0.4,1.5-0.2,2,0.6c0.5,0.7,1.4,0.7,2,0.7s6.7-0.1,6.7-0.1s2.3-0.1,2.9,1.2s2.2,3.4,3.8,2.6
	c1.6-0.7,0.5-2.8,0.2-2.9c-0.2-0.1,1.1-1.9,1.1-1.9s0.8-0.6,0.5-2.1c-0.4-1.5-0.8-2-0.6-3.3s-1.2-4.3-1-7.2s0.7-4.5,1.4-6.2
	s-0.4-1.9-1.3-0.3c-0.9,1.6-1.8,4-1.6,7c0.2,3,0.9,4.4,1,6.2s0.5,3.4,0.9,3.8c0.4,0.4,0.1,1.6-0.2,1.2c-0.4-0.4-1.1-2-1.5-2.5
	s-0.4-1.3-0.4-2.2c0-0.8,0-2.8-0.7-3.6s-1.3-2-1.3-3.5c0-1.6-0.3-2.1-1.4-2.5c-1.1-0.5-1.6-1.5-1.5-1.8s0.4-0.2,0.6,0.1
	s0.4,0.2,0.7,0.2c0.4,0,1.7-2.5,1.7-2.5l0.3,4.2c0,0,1,0.8,1.1-0.2c0.1-1.1,1-3.6,1.6-5c0.7-1.4,0.3-3.7-1.3-4
	c-1.7-0.3-3.1-1.3-3-1.3s2.2,0.4,3.1,0c1-0.5,2.2-0.2,2.4,0.6s0.8,0.6,1.1,0s1.4-0.8,2.3-5.3c0,0,0-0.4,0.8-0.4
	c0.8,0,1.3,0.2,1.6-0.7c0.2-1,0.7-3.5,2.3-1l0.2,0.4c0,0-2.8,1.4-4.3,4.1c0,0-1,1.6-1.2,2.6s0.9,0.8,1.3,0.1
	c0.4-0.7,0.2-1.8,1.3-2.8s4-2.7,4.3-3.4s0.8-1.2,0.8-1.2s0.1-0.3-0.7-1.4c-0.8-1.1-1.9-3.1-1.5-3.5c0.4-0.5,1.8,0.6,2.2,1.2
	c0.4,0.6-0.5-1.8,0.6-1.6s0.7,0.8,0.7,0.8s1.6-1.8,2-1.1c0.5,0.7-1.2,2.2-1.2,2.6c-0.1,0.4-1.9,1.9-1.8,2.4c0,0.6,0.1,0.7,0.9,0.4
	c0.8-0.3,6.3-3.5,6.3-3.5s0.3-0.4-0.5-0.1c-0.8,0.4-1.9,1-1.9,1s-2,0-1.2-0.6c0.7-0.6,3.4-1.8,3.6-1.3c0.2,0.5,0.1,0.9,0.3,0.9
	s2-1.2,2.5-1.9s1.7-0.7,2.1-0.6c0.5,0.1,1,0.1,1.8-0.4s1.1-0.7,1.7-0.7c0.6,0,2.1-1.1,2.1-2.2c0,0,1.2-0.3,1.5-0.9
	c0,0,0.9,1.8,1.9,0.5s2.2-2.2,1.4-2.5c-0.7-0.3-2.2,0.3-2.4,0.7s-0.4-0.4-0.4-1.4s0.2-3-1-4c-1.1-1,0-1.6,0.9-1.7
	c0.8,0,2.6-1.4,2.6-1.4s1.8-1,1.3,0.4c-0.4,1.3-0.8,2.5-0.5,3s1.3,1.1,2.1,0.5c0,0-1.6,1-2.5,1.3c-1,0.4-0.8,1.4,0.5,1.1
	c1.3-0.2,3.7-1.4,3.7-1.4s1.1-1.8,2.1-2.2s2.9-0.1,3.6-0.1c0.7,0,1.9-0.4,2-0.8c-0.9-2,0.2-3.1,1.4-3.9c0.9-0.6,0.1-1.1-0.3-1.4
	c-0.2,0-0.3-0.1-0.3-0.1s0.1,0,0.3,0.1c0.2,0,0.4,0,0.6-0.2c0.6-0.5,0.8-4.2,0.1-6.5c-0.8-2.3,0.4-4.6,0.9-6.3
	c0.6-1.7-0.4-3-1.6-3.4c-1.2-0.4-0.8-2.3-0.8-3.7s-0.2-4.4-0.9-4.4c-0.8,0-1.6-1-1.8-3.1s-2.4-4.2-2.4-4.2l0.7-12.4l-0.3-6.7
	L163.9,91.4z"/>
<path class="st2" d="M135.8,245.2l35.3,3.5l-0.9,28.7c0,0,0.4,0.1,0.9,0.3c0.7,0.2,1.7,0.4,2.7,0.4c0.9,0,2.2,0.2,3.4,0.5
	c0.6,0,1.2,0.3,1.6,0.6c0.6,0.3,1.1,0.7,1.4,1.1c1.1,1.6,1.4,2.6,3.3,3.3c0.8,0.1,1.5,0.5,2,0.9c0.5,0.3,0.6,0.4,0.6,0.4s0,0,0.1,0
	c0.3,0,0.6,0,1,0c1.1,0.1,2.8,0.5,3.7,1.7c0,0.1,0.1,0.1,0.1,0.2l0.1,0.1c0.1,0.2,0.3,0.3,0.3,0.4c0.1,0.1,0.1,0.1,0.2,0.1
	c-0.1-0.3-0.2-0.9,0.1-1.5c0-0.1,0-0.2,0-0.3c0.1-0.4,2-2.1,2.8-0.5c0,0.1,0.1,0.1,0.1,0.2c0.4,0.6,0.7,1.3,0.9,2
	c0.7,1.5,1.7,2.9,2.8,2.9c0.8,0,1.7-0.6,2.5-0.9c0.4-0.2,0.7-0.3,1.2-0.1c0.8,0.2,1.7,0.7,2.5,0.7c0.3,0,0.4-0.1,0.6-0.2
	c0.1-0.1,0.1-0.1,0.1-0.2c0.3-0.8,1.5-1.1,1.8-0.1c0.2,0.6,0.6,0.9,1,0.9c0.2-0.1,0.5-0.4,0.5-0.7c0-0.1,0-0.1,0-0.2
	c-0.1-0.6,0.2-1.6,0.7-1.9c0.1,0,0.1-0.1,0.2-0.1c0.3-0.2,0.6-0.1,1,0.2c0.7,0.7,1.9,1,2.7,1.1c0.1,0,0.2,0,0.3,0s0.2,0,0.4,0.1h0.1
	c0.5,0,1.2,0.8,1.3,1.4c0.2,0.6,0.7,1.3,1.4,1.3c0.4-0.1,0.9-0.4,1.4-0.7c0.6-0.4,1.3-0.8,1.8-0.9c1-0.1,3.9,0,3.9,0l1.7-0.3
	c0,0,0.3,0,0.7,0l0,0c1-0.1,2.4-0.2,3.2-0.2c0.3,0,0.6-0.1,0.8-0.1h0.1c0,0,1-0.4,2.4,0.9c0,0,0.1,0.1,0.2,0.1
	c0.6,0.4,1.3,1,2.3,1.8l0,0c1.1,0.8,2.3,1.4,3,1.3c0.3-0.2,0.4-0.6,0.5-0.9l0,0l-2-42.5l-0.1-7.9l-88.4-3.5l0.1,0.8
	c-2.7-0.2-5.6-0.5-8.7-0.8l-3.2-0.3L135.8,245.2z"/>
<path class="st3" d="M281.8,175.3c0-0.4-0.1-0.9-0.3-1.5c-0.2-0.5-0.4-1-0.3-1.9c0.1-0.6,0.2-0.9,0.2-0.9s-4,0.5-5.1,0.5
	c-1.3,0.1-1.3-1.8-0.8-2.5c0.4-0.8,0.3-1.1-0.2-1.7c-0.5-0.3-0.5-1.4-0.5-1.4l-53.5,1.6c0.9,9.5,1.4,19.6,1.7,27.5
	c0.3,6.2,0.5,11.9,0.3,14.7c0,0.1,0,0.2,0,0.2l2,1l-1.8-0.9l1.8,0.9l2.4,1.2v-0.3l0.1,0.3l0.1,6.6l38.1-0.3c-1-1.7,1.4-4.6,1.5-4.8
	c0,0,0,0,0-0.1c-0.1-0.3-1-0.9-0.5-1.9v-0.1c0-0.1,0-0.1,0.1-0.2c0.3-1-0.6-1.5-0.6-1.5c-0.1-0.1-0.2-0.3-0.2-0.4
	c-0.3-0.5-0.6-1.1-0.7-2.1c0-0.4,0-0.9,0.1-1.3c0.1-0.6,0.3-1.2,0.6-1.7c0.7-1.5,1.6-2.9,2.3-3.8c0.8-1.3,1.7-2.5,2.5-3.4
	c0.1-0.1,0.1-0.1,0.2-0.2c0.1-0.2,0.3-0.4,0.4-0.6c0.1-0.3,0.1-0.7,1-2.1c0.3-0.5,0.6-1.1,0.9-1.6c0.5-1.2-0.1-1.3,0.1-1.6
	c0-0.1,0.1-0.1,0.2-0.3c0.3-0.3,0.7-0.8,1-1.2s1-0.8,1.1-1.5l0,0v-0.1c0-0.1,0-0.2,0-0.2c0-0.4,0.1-0.6,0.2-0.7
	c0.1-0.2,0.2-0.3,0.2-0.3s0.5-1,0.7-2.1c0-0.5,0.1-1,0.3-1.5c0.2-0.9,0.5-1.6,1.3-2.1c1.1-0.7,1.6-2.5,1.6-2.5l0.6-0.6l-0.4-1.5
	C280.5,176.2,281.6,176,281.8,175.3z"/>
<rect x="163.5" y="243.3" class="st4" width="113.3" height="46.2"/>
<text transform="matrix(1 0 0 1 149.8013 231.6365)" class="st5 st6 st7">Oklahoma</text>
<rect x="364.2" y="239.3" class="st4" width="113.3" height="46.2"/>
<text transform="matrix(1 0 0 1 225.293 159.338)" class="st5 st6 st7">Arkansas</text>
<rect x="47" y="255.6" class="st4" width="113.3" height="46.2"/>
<text transform="matrix(1 0 0 1 22.156 272.0814)" class="st5 st6 st8">3. </text>
<text transform="matrix(1 0 0 1 53.8355 272.0814)" class="st5 st6 st7">Hawaii</text>
<rect x="89.2" y="446.2" class="st4" width="113.3" height="46.2"/>
<text transform="matrix(1 0 0 1 68.8258 122.5508)" class="st5 st6 st9">1. </text>
<text transform="matrix(1 0 0 1 97.4258 122.5508)" class="st5 st6 st7">Texas</text>
<g id="Layer_3">
</g>
<text transform="matrix(1 0 0 1 58.6109 16.0757)" class="st10 st6 st11">House Rental Interest</text>
<text transform="matrix(1 0 0 1 190.2317 134.592)" class="st5 st6 st9">2. </text>
<text transform="matrix(1 0 0 1 215.2377 132.7185)" class="st5 st6 st7">Florida</text>
<path class="st12" d="M264.7,136.1L264.7,136.1h-0.1v0.1l0,0l0.1,0.1l0.1,0.1v-0.1L264.7,136.1L264.7,136.1z M263.5,136.8
	L263.5,136.8l0.1,0.1l0.1-0.1H263.5L263.5,136.8z M264.1,120.9L264,121v0.1l0.3,0.1h0.1l0.1-0.1V121h-0.1h-0.1L264.1,120.9
	L264.1,120.9L264.1,120.9z M264,135.8l-0.4-0.3h-0.1l0,0l0,0l0.8,1.3v0.4l0.3-0.2l-0.2-0.5L264,135.8z M263.6,120.9l0.1,0.2l0,0l0,0
	l0,0l0,0V121l0.1-0.1h0.1h0.1v-0.1l-0.1-0.1h-0.1l-0.1-0.2l-0.1-0.1l-0.2-0.1l-0.1,0.1v0.1v0.1v0.3h0.1L263.6,120.9L263.6,120.9z
	 M263.1,120.7L263.1,120.7v-0.2l0,0v-0.1l-0.1-0.2l-0.1-0.1h-0.2h-0.1h-0.1l-0.2,0.1v0.2l0.1,0.1l0,0v0.1l0,0v-0.1v-0.1v-0.1h0.1
	h0.1l0,0h0.2l0.1,0.1v0.1l0.1,0.1L263.1,120.7L263.1,120.7z M263.2,136.4L263.2,136.4h-0.1H263.2L263.2,136.4l-0.2,0.1v0.1l0.1,0.1
	v0.1h0.1v-0.1v-0.2V136.4z M265.5,136.5l-0.2,0.2l0,0l0.1-0.1L265.5,136.5L265.5,136.5L265.5,136.5z M272.8,130.6l0.2,0.1v-0.1
	H272.8z M272.3,130.1l0.1,0.1L272.3,130.1L272.3,130.1z M272.8,130.3L272.8,130.3l-0.1,0.1L272.8,130.3L272.8,130.3L272.8,130.3z
	 M267.3,135.9L267,136h0.4l0.1,0.1l0.1,0.2l0.1-0.2l0.1-0.1l0.1-0.1l0.3-0.1l0,0v-0.1h-0.3L267.3,135.9z M272.1,132L272.1,132
	L272.1,132L272.1,132z M262.8,136.4L262.8,136.4l-0.1-0.1h-0.1h-0.1h-0.1l0,0l-0.1,0.1v0.2l0.1,0.1l0,0l0,0h0.1h0.1h0.1h0.1l0.1,0.1
	l0.1,0.1v-0.1v-0.2L262.8,136.4z M272.2,133.9l-0.1,0.1l-0.1,0.1v0.1h0.1L272.2,133.9h0.1l0.1-0.2v-0.1L272.2,133.9z M271.3,134.4
	L271.3,134.4l-0.1,0.1v-0.1v-0.1l-0.5,0.3l-0.1,0.2h0.5l0.2-0.1l0.1-0.1l0.1-0.1L271.3,134.4L271.3,134.4L271.3,134.4z M268.4,135.9
	l0.9-0.4l0.2-0.2h0.2h0.1h0.1v-0.1l-0.4,0.1L268.4,135.9z M271.8,131.5l0.1,0.1L271.8,131.5L271.8,131.5L271.8,131.5z M260,119.8
	L260,119.8l0.1,0.2h0.1h0.2l0.1-0.1l0.2-0.3v-0.1l-0.2-0.1h-0.2h-0.1h-0.1v0.1L260,119.8L260,119.8L260,119.8z M253.3,108.9v-0.3
	l-0.1-0.1l0,0h-0.1l0.2,0.7l0.1,0.3l0.2,0.3v-0.3L253.3,108.9z M224.1,64.3l-0.3,0.2l-0.5,0.3l-0.1,0.1l0.7-0.2l0.3-0.2l0.1-0.3
	L224.1,64.3L224.1,64.3z M248.5,98.9l-0.3-0.6l-0.1-0.1l-0.2-0.1l0.1,0.2l0.1,0.2l0.1,0.1l0.1,0.2l0.5,0.6l0.2,0.2v-0.2L248.5,98.9z
	 M253.1,107.6l-0.1-0.3l-0.1-0.3l-0.1-0.1l0,0l-0.1,0.1l0.1,0.3v0.7l0.1,0.3l0.1-0.3L253.1,107.6z M243.4,73.8L243.4,73.8l-0.2-0.1
	l-0.1,0.1V74l0.1,0.1l0.2-0.1h0.1L243.4,73.8L243.4,73.8z M222.4,65.4l-0.2,0.1h-0.1v0.1l-0.1,0.1h-0.1h-0.1v0.1v0.1V66l-2.6,1.3
	l-0.5,0.1h-0.3l-0.3-0.2h-0.2l0.3,0.2l0.3,0.1h0.7l0.3-0.1l0.8-0.4l0.3-0.2l1.2-0.5L222.4,65.4l0.2-0.1v-0.1l0.1-0.1h0.1V65
	l-0.2,0.1L222.4,65.4z M275.8,92.5l0.4,1l0.2,0.4V94v0.2l0.1,0.3l0.1,0.4l0.1,0.2l0.1,0.2l0.1,0.2l0.5,2.1l0.2,0.4v0.2v0.1l0.2,0.1
	v0.1v0.2l0.8,1.7l0.1,0.5l0.3,0.3l0.2,0.4l-0.1-0.3l-2.1-5.8v-0.2V95l-0.1-0.3l-0.2-0.5l-0.5-0.9l-0.3-0.6l-0.1-0.6V92l0,0l0,0v-0.1
	h-0.1l0,0l0,0L275.8,92.5z M198.4,55.6l-0.4,0.1l-0.1-0.1l-0.3,0.1l-1.3,0.2h-0.5h-0.2l-0.3,0.1h-0.1l-0.3,0.1H194l-0.7,0.3
	l-1.4,0.2h-1l-0.2,0.1l0.7,0.1l8.4-1.1l0.1,0.1h0.1h0.1l0.1-0.1l-1.2-0.2L198.4,55.6z M217.9,66.4L217.9,66.4v-0.2l0,0h-0.2
	l-0.2-0.1h-0.3l-0.2,0.2h-0.2l-0.5-0.1l0.1,0.1l0.3,0.1l0.1,0.1l0.1,0.1l0.1,0.1l0.1,0.1h0.1l0.3,0.1h0.1l0.1-0.1v-0.1l0.1-0.1
	L217.9,66.4z M255.4,111.9h-0.2l-0.4-0.1l-0.2-0.1l-0.2-0.2l-0.1-0.2l-0.1-0.3v-0.2v-0.1l-0.1-0.1l-0.1-0.1l0.1,0.4l0.1,0.4l0.1,0.2
	l0.1,0.2l0.1,0.1l0.8,0.4h0.2l0.2-0.1l0.3-0.3l0.2-0.1l-0.5-0.3L255.4,111.9z M260.6,137.5l-0.3,0.1h-0.1l-0.1-0.1H260l-0.1,0.1v0.1
	v0.1l0.1,0.1v0.1l-0.1,0.1h-0.1l0.9-0.3L260.6,137.5L260.6,137.5z M259.6,137.9L259.6,137.9l-0.1-0.1h-0.1l-0.3,0.2H259h-0.1h-0.1
	h-0.1l-0.1,0.2l0.4-0.1l0.2-0.1l0.1-0.1l0.1-0.1v-0.1l0.1,0.1l0,0l0,0l0,0L259.6,137.9l-0.1,0.1l0,0h0.1V137.9L259.6,137.9z
	 M273.2,130.9L273.2,130.9v-0.1V130.9L273.2,130.9z M262,136.3L262,136.3L262,136.3L262,136.3L262,136.3l-0.2-0.1l-0.1,0.3h0.1h0.1
	v0.1l-0.1,0.1v0.1h0.2l0.1,0.1v0.1l-0.1,0.2h-0.1l-0.1-0.2l-0.2-0.1l-0.4-0.1l0.1,0.1l0.1,0.1l0.2,0.1l-0.1,0.1l0,0l0,0l-0.1,0.1
	l-0.3,0.1l-0.1-0.1l-0.1,0.1l-0.2,0.2v0.1l0.9-0.3l0.4-0.2l0.3-0.2v-0.1l-0.4-0.5L262,136.3z M262.1,119.6L262.1,119.6l-0.2-0.1v0.1
	v0.1l0.1,0.1h0.1v0.1v0.2v0.1l0.1-0.2v-0.1v-0.1L262.1,119.6L262.1,119.6L262.1,119.6L262.1,119.6z M254.8,108.7l-0.2-0.2l-0.3-0.1
	h-0.2l0.2,0.4l0.2,0.4l0.2,0.4l-0.1,0.3l0.2,0.3l0.2,0.7l0.2,0.3l0.2,0.1v-0.2l-0.1-0.7l-0.1-0.2l-0.2-0.3l-0.1-0.3l0.1-0.5
	L254.8,108.7z M254.8,137.6h-0.2h-0.1l0,0h0.1H254.8L254.8,137.6l0.1,0.1l0.1,0.2v0.1v-0.1v-0.1L254.8,137.6z M254.7,138.1
	L254.7,138.1h0.1l0.1-0.1h-0.1L254.7,138.1z M267.4,127.5l0.1,0.1l0.1,0.1v-0.1v-0.1v-0.1v-0.1h-0.1h-0.1l0,0l0,0h-0.1l-0.1,0.1
	L267.4,127.5z M247.9,77.5L247.9,77.5h0.1l0,0H247.9L247.9,77.5L247.9,77.5l-0.1-0.1l0,0l0,0L247.9,77.5L247.9,77.5z M246.3,74.5
	L246.3,74.5l-0.1-0.1h-0.1H246v0.1v0.1L246.3,74.5L246.3,74.5z M247.7,79.1L247.7,79.1l0.1,0.1v0.1v0.1l0,0h0.1h0.1l0.1-0.1v-0.1
	l-0.1-0.1l-0.1-0.1L247.7,79.1L247.7,79.1z M247.2,78L247.2,78L247.2,78L247.2,78L247.2,78z M247.1,78.9L247.1,78.9L247.1,78.9
	L247.1,78.9L247.1,78.9z M248.2,82.4L248.2,82.4L248.2,82.4L248.2,82.4l-0.1-0.1L248.2,82.4L248.2,82.4L248.2,82.4L248.2,82.4z
	 M247.5,80L247.5,80h0.1l0,0H247.5L247.5,80L247.5,80z M247.4,77.8L247.4,77.8L247.4,77.8L247.4,77.8L247.4,77.8L247.4,77.8h0.1
	H247.4L247.4,77.8L247.4,77.8L247.4,77.8L247.4,77.8z M247.2,78.6L247.2,78.6h0.1h0.1l0,0h0.1l0,0l0,0h-0.1H247.2L247.2,78.6z
	 M247.7,77.9h0.2h0.1h0.1l0,0l0,0H248h-0.1H247.7L247.7,77.9L247.7,77.9z M273.6,82.1l-0.2-0.4h-0.2l-0.2,0.1l-0.3,0.2l-0.3,0.2
	l-0.1,0.1l-0.1,0.2h-0.3l-0.1,0.4v0.5l0.1,0.2l0.1,1.1l0.1,0.3l0.2,0.3l0.4,1.3l0.2,0.4v-0.2l-0.1-0.2l-0.1-0.3v-0.2V86l0.1-0.3
	l0.1-1.7l0.1-0.5l0.4-0.9L273.6,82.1z M248.3,77.7l-0.1-0.1h-0.1L248.3,77.7l-0.1,0.1v0.1V78v0.1l0.1,0.1l0,0l0,0l0,0V77.7
	L248.3,77.7z M273.2,87.3v0.2v0.2h0.1v-0.1l-0.2-0.5L273.2,87.3z M248.1,81.2L248.1,81.2L248.1,81.2L248.1,81.2L248.1,81.2
	L248.1,81.2l-0.1-0.1l0,0L248.1,81.2L248.1,81.2z M247.9,80.8L247.9,80.8L247.9,80.8L247.9,80.8z M248,80.2L248,80.2L248,80.2
	L248,80.2L248,80.2z M248.2,79.5L248.2,79.5H248v0.1L248.2,79.5L248.2,79.5z M247.9,79.7L247.9,79.7h-0.1v0.1L247.9,79.7l-0.1,0.1
	l0,0l0,0l0,0l0.2,0.1V80l0,0h0.1l0,0l0.1-0.1v-0.2L247.9,79.7L247.9,79.7z M267.8,127.8v0.2l0.1,0.2h0.1l0.1-0.1V128l0.1-0.2v-0.1
	h-0.1h-0.2h-0.2L267.8,127.8z M274.6,129.3L274.6,129.3L274.6,129.3l-0.1,0.1v0.1l0,0h0.1V129.3z M275.3,130.4v-0.2V130.4h-0.2v0.1
	l0,0v0.1l0,0L275.3,130.4L275.3,130.4z M278.8,125.2L278.8,125.2l-0.2,0.9l-0.1,0.2l-0.2,0.1l0,0l0,0l0,0l0.2-0.2l0.2-0.3l0.1-0.3
	V125.2L278.8,125.2L278.8,125.2V125V125.2z M279.1,122L279.1,122l-0.1,0.1l-0.1,0.1v0.1h0.1l0,0l0,0l0,0l-0.1,0.1v0.1l0.1,0.1h0.2
	l0.1-0.1v-0.8L279.1,122L279.1,122z M273.9,129.8L273.9,129.8v-0.1h-0.1l-0.1,0.1v0.1L273.9,129.8z M273.1,130.4L273.1,130.4
	L273.1,130.4v0.1v0.1l0,0l0,0v-0.1V130.4L273.1,130.4L273.1,130.4z M269.6,128.5L269.6,128.5l0.1,0.3l0,0v-0.1v-0.1l-0.1-0.2
	l-0.1-0.1l-0.1,0.1L269.6,128.5L269.6,128.5L269.6,128.5z M277.6,127.3l-0.3,0.5l-0.2,0.1l-0.4,0.1l-0.1,0.1v0.2l0.1,0.1l0.1,0.1
	v0.2l-0.1,0.3l-0.5,0.5l-0.2,0.6l-0.6-0.1l-0.1,0.2l0.2-0.1l0.1,0.1l0.1,0.1v0.2h-0.1l0,0v0.1l0.1,0.1l-0.1,0.2l-0.1,0.1h-0.3v0.2
	l-0.1,0.2l-0.3,0.3l-0.2,0.3l-0.1,0.1h-0.2l-0.1,0.1l-0.1,0.5l-0.1,0.1h-0.2l-0.1-0.3l0.1,0.2h0.2l0.3-0.3l0.5-0.6l0.4-0.3l0.1-0.1
	l0.1-0.3l0.1-0.1h0.1l0.1-0.1l1-1v-0.1v-0.3l0.2-0.3l0.4-0.6l0.4-0.5l0.1-0.1v-0.1l0.1-0.2l0.1-0.2l0.1-0.1h0.1l0,0v-0.1v-0.1
	l-0.3-0.1L277.6,127.3z M273.4,132.9l-0.4,0.5h0.1l0.3-0.3V132.9h0.1H273.4L273.4,132.9z M267.4,127.1L267.4,127.1l-0.1,0.1
	L267.4,127.1l0.4,0.1l0,0h-0.2L267.4,127.1z M268.2,127.7l0.1-0.1v-0.1l-0.2-0.1H268v0.1v0.1L268.2,127.7L268.2,127.7z M280.8,108.2
	l-0.1-0.4l-0.2-0.2v-0.1l0.2-0.2v-0.4l-0.3-1.3l-0.1-0.1l-0.1-0.1l-0.3-0.1l-0.2-0.1v-0.1l0.1-0.1h0.1h0.1l0.1-0.2v-0.2l-0.2-0.5
	l-0.3-0.8l-0.3-0.6v-0.2l-0.1-0.2l-0.3-0.2l-0.1-0.2l-0.5-0.5h-0.1l-0.3,0.1h-0.1l-0.2-0.1h-0.1l-0.3-0.4l-0.1-0.1h0.2l0.1,0.1
	l0.1,0.1l0.1,0.1l0.3,0.1l0.5,0.1l0.1,0.1l0.1,0.3v-0.2l-1.8-4.4l-0.4-2.1l-4-8.9l-0.1-0.3l-0.4-0.7l-0.2-0.8l-0.1-0.3l-0.3-1.4
	v-0.6v-0.3l-0.4-0.7L271,81v-0.2l-0.1-0.3l-0.2-1.3l0.2,0.1l0.4,0.4l0.5,0.2v0.2l-0.1,0.3l-0.1,0.2l-0.1-0.1l-0.1,0.2V81v0.3
	l0.1,0.2l0.2,0.2l0.2,0.1l0.8,0.1h0.1h0.2l0,0v-0.2v-0.1h0.1h0.1h0.1l0,0h0.2l0.2,0.1l0.1,0.1l0.1,0.2l0.1,0.6v0.6l-0.4,1.8v2.4
	l0.1,0.6l0.4,1.1l0.7,1.3l0.1,0.5l0.4,0.4l0.1,0.1v0.1l0.3,0.6v-0.6l-1-1.5l-0.3-0.6v-0.2l-0.2-0.4l-0.3-1.4l-0.1-0.8v-0.3l-0.1-0.1
	l0.1-0.2v-1.4v-0.1h0.1l0.1-0.1l0.1-0.1v-0.1h0.1l0.2-0.3l0.2-0.3l-0.2-0.3l-0.3-0.9l-0.7-1.3l-0.7-0.9l-0.8-1.4l-1.7-2.7l-0.1-0.3
	l-0.1-0.3l-0.2-0.2l-0.2-0.2l0.1-0.2l-1.2-2.1l-0.8-2.2l-0.7-1.7l-0.6-1l-0.1-0.3l-0.1-0.3V67l-0.1-0.3l-0.4-0.7l-0.2-0.9l-0.1-0.1
	l-0.1-0.2l-0.1-0.7l-0.1-0.2l0.1-0.1l-0.1-0.1l-0.1-0.1v-0.1l0.1-0.1H265l-0.1-0.1h-0.1l0.1-0.5l-0.4-1.6l0.2-1.1l-0.1-0.3l-0.3-0.5
	l-0.1-0.3l-0.4-1.6v-0.6l0.1-0.6v-0.1l-0.1-0.1l-0.1-0.1v-0.1v-0.5v-0.2l-0.1-0.1l-0.1-0.1h-0.1l-0.1-0.1l-0.1-0.1l-0.1-0.2
	l-0.1-0.1l-0.3-0.3v-0.3l-0.2-0.1l-0.1-0.2v-0.3v-0.3v-0.3v-0.1h0.1h0.1l0.1,0.1l0.1,0.1v0.1v0.3v0.3l0.1,0.2l0.2,0.1v-0.4v-1.2
	l0.1-0.4v-0.2l-0.1-0.1l0,0v-0.1v-0.1H263h-0.1l-0.2,0.1h-0.1l-0.3-0.1v-0.1h-0.1L262,51l-0.4,0.1h-0.1L261,51l-0.1-0.1l-0.2-0.1
	h-0.1h-0.1h-0.1l-0.6-0.2l-0.2-0.1l-0.1-0.1l-0.1-0.1l-0.1-0.1h-0.2H259h-0.1l-1.1-0.5l-0.2-0.1l-0.1-0.1l-0.2-0.1h-0.1h-0.1H257
	h-0.2h-0.1h-0.1l0.1,0.5V50v0.1l0,0v0.1v0.1v0.1h-0.1h-0.1h-0.1h-0.1h-0.1v0.1v0.2v0.1v0.1l-0.1,0.1v0.1v0.1v0.1v0.1v0.4v0.1V52
	l-0.1,0.3v0.1v0.2v0.1v0.1l0.1,0.1l0.2,0.3l0.1,0.1v0.1v0.1v0.2l-0.2,1l-0.2,0.9v0.2v0.1v0.4v0.1v0.1v0.1h-0.1l-0.3,0.1h-0.1h-0.1
	l-0.2-0.1h-0.1l-0.6,0.1h-0.1h-0.1h-0.1v-0.1l-0.1-0.1l-0.2-0.5v-0.1v-0.1v-0.1v-0.2l0.1-0.2v-0.1v-0.1V55v-0.1l-0.1-0.1l-0.1-0.1
	l-0.3-0.4l-0.1-0.1v-0.1V54v-0.1l0.1-0.1v-0.1l0,0l0,0H253h-0.5h-0.6h-0.7l-0.8-0.1l-0.9-0.1l-1-0.1l-1.1-0.1l-1.2-0.1l-1.2-0.1
	l-1.3-0.1l-1.3-0.1l-1.4-0.1l-1.4-0.1l-1.4-0.1l-1.4-0.1l-1.4-0.1l-1.4-0.1l-1.4-0.1l-1.3-0.1L230,52l-1.2-0.1l-1.2-0.1l-1.1-0.1
	l-1-0.1l-1-0.1l-0.9-0.1l-0.7-0.1h-0.6h-0.5h-0.4h-0.2h-0.1h-0.4h-0.1l-0.6-0.6l-0.2-0.9v-0.6l-0.1-0.4l-0.2-0.3l-0.1-0.1l-0.1-0.4
	l-0.1-0.2l-0.1-0.1l-0.2-0.2l-0.1-0.1v-0.2l0,0H201h-2h-12.3l-0.1,0.2v0.7v0.1l-0.3,0.6v0.1V49v0.1v0.1l0.1,0.1l0.1,0.2l0.1,0.2
	l0.6,0.6l0.1,0.1l0.3,0.5l0.2,0.2l0.2,0.1l1,0.6l0.1,0.1V52v0.1v0.2l-0.1,0.5l-0.1,0.4l-0.2,0.4v0.1v0.1V54l0.2,0.7l0,0l0.2,0.1
	l0.1,0.1h0.1h0.2h0.1l0.1,0.1l0.1,0.2v0.2l-0.1,0.1l-0.3,0.1l-0.2,0.2l-0.4,0.4v0.1l0.2,0.1v0.1l-0.1,0.1l-0.1,0.1h-0.2h-0.3
	l-0.2,0.1l0.2,0.1l0.2,0.1l-0.5,0.1h-0.1l-0.1,0.1l-0.1,0.1l-0.1,0.1l-0.1,0.1v0.1l0.1-0.1l0.3-0.1h0.1l0.2-0.1l1.8-0.4l0.3-0.1
	v-0.3h0.1h0.3l0.1-0.1v-0.1v-0.4v-0.1l0.2-0.1h0.3l0.2-0.1l0.1-0.3h0.1l0,0l0,0h0.1l0.3-0.6v-0.2l-0.1-0.3l-0.2-0.4l-0.1-0.2v-0.5
	v-0.2h0.2L192,53l0.1,0.1l0.1,0.1h0.2v0.1v0.2v0.1h0.3l0.1,0.2v0.3l0.1,0.2l-0.1,0.2v0.2l0.1,0.2h0.2l0.1-0.2l0.1-0.5l0.2-0.3
	l0.3-0.8l0.1-0.1v-0.1l-0.1-0.3l0.3,0.2l0.1,0.3l0.1,0.2l0.2-0.2l0.1,0.1l0,0v0.1l-0.4,0.2l-0.2,0.2l-0.1,0.2V54l0.1,0.1h0.1h0.1
	l0.1,0.1l0.2,0.3l0.1,0.1h0.2l0.3,0.1l0.3,0.1l0.2,0.2v0.2l-0.2-0.1l-0.2-0.1l-0.2-0.1l-0.8,0.7H194h-0.7l-0.7,0.2l-0.5,0.2H192
	l-0.1,0.1l-0.1,0.2l0.6-0.1l1.2-0.3l1.9-0.3h0.7l0.4-0.1l0.3-0.1l0.3,0.1l1-0.1l1,0.1l0.1-0.1v-0.2v-0.1h0.3h0.2l0.2-0.2h0.1h0.2
	l0.2-0.1l0.1-0.1l0.1-0.1v-0.1l-0.1-0.4v-0.2l0.1,0.2l0.1,0.1h0.1L201,54l0.1-0.1h0.1h0.3l-0.3,0.4l-0.1,0.2l0.2,0.2h0.2l0.2-0.1
	l0.2-0.1l0.2-0.1h0.2l0.5-0.1h0.2l0.5,0.1h0.2l0.2-0.2l0.2,0.4l0.2,0.1h0.2l0.3-0.2v0.2l-0.1,0.1l-0.1,0.1l0.1,0.2l0.4,0.4v0.1
	l0.1,0.1v0.2l-0.1,0.1l-0.2-0.2l-0.1-0.1l-0.6-0.2l-0.3-0.3l-0.2-0.1h-0.2l-0.2,0.1v0.1l0.2,0.1h0.2h0.1v0.1l-0.1,0.1l-0.1,0.1
	l-0.6-0.1l-0.1-0.1l-0.1-0.2l-0.1-0.2l0,0l0,0h-0.1l-0.1,0.1l-0.1,0.2l-0.1,0.2l-0.2,0.1l-0.8-0.2h-1l-0.2-0.1l0,0l0,0l0,0l0.3,0.2
	l1.5,0.2l2.1,0.6l1.6,0.5l1.4,0.8l1.1,0.5l1.5,1.1l0.3,0.1l-0.1-0.1l-0.1-0.1h0.1l0.2,0.2l0.1-0.2l-0.2-0.2l-0.2-0.1l-0.1-0.2
	l0.2-0.3l-0.2-0.2l-0.1-0.2l-0.1-0.1l-0.2-0.1h-0.3l-0.2,0.1l0,0l-0.2-0.2l-0.1-0.3l0.1-0.2l0.2-0.1l0.2-0.1h0.4l0.1-0.1l0.1-0.3
	l0.2,0.3l0.2,0.2l0.1,0.2v0.2h0.1l0.1-0.1l0.1-0.2l0.1-0.1l0.2-0.1l0.2-0.1h0.1l0.1,0.2l0.2-0.1l0.3-0.5l0.1-0.1l0.1,0.1l0.1,0.2
	L212,57h-0.3l-0.5,0.6l-0.3-0.1h-0.2l-0.5,0.7l-0.3,0.2l0.1,0.1l0.1,0.1l0.1,0.1l0.4,0.2l0.1,0.1l0.1,0.2l0.2-0.1l0.3,0.1l0.3,0.2
	l0.2,0.1v-0.1v-0.1v-0.1v-0.1l0.2,0.1l0.2-0.1l0.2-0.1h0.2v0.1l-0.2,0.2v0.2l0.1,0.1l0.2-0.1v0.2v0.5l0.1,0.2l0.2,0.1l0.1-0.1
	l0.2-0.3l0.1-0.1l0,0v0.1l0.1,0.1h0.1h0.2h0.1l0.1,0.2l-0.1,0.1l-0.2,0.1l-0.1,0.1l-0.2,0.1l-0.4-0.2l-0.4-0.3l-0.2-0.3l-0.2-0.2
	l-0.8-0.2v-0.3l-0.8-0.1h-0.1l0.1,0.2l0.6,0.6l0.2,0.1l1.6,1.3h-0.2l-0.3-0.2l-0.3-0.3l-0.1-0.2H212v0.1v0.1V61l0.1,0.1l0.4,0.3
	l1.4,0.7l0.2,0.2l0.2,0.2l0.2,0.3l0.1,0.3l0.1,0.2l0.4,0.5l0.1,0.3l-0.1,1v0.2v0.1l-0.1,0.1l-0.1,0.1l-0.1,0.1h-0.2l-0.1-0.1
	l-0.3-0.5l-0.1-0.3l-0.1-0.3v-0.3v-1v-0.1l-0.2,0.3v0.7l0.2,1.2l0.1,0.2l0.2,0.2l0.2,0.1l0.5-0.2h0.3l0.3,0.1h0.3l1.5-0.5h0.5l1,0.1
	l0.2-0.1l0.3-0.4h0.3l0.2-0.4l0.2-0.1l0.2-0.1l0.2-0.1l0.2-0.1l0.2,0.1l-0.4,0.6l-0.1,0.1l0.1,0.3h0.1l0.2-0.2l0.2-0.1l0.2-0.1
	l0.2-0.1l0.3-0.2l0.2-0.1h0.3l0.2-0.1l0.6-0.6l0.4-0.3l0.6-0.2l0.5-0.4l0.7-0.4l0.1,0.1h0.2l0.2-0.1h0.2h0.5l0.5,0.2v0.1l-0.1,0.1
	l-0.1,0.2l0.4-0.2l0.2-0.3l-0.1-0.3l-0.4-0.1l-0.8-0.1l-0.1-0.1v-0.2v-0.1h-0.2l0.2-0.2l0.2,0.1l0.2,0.2l0.4,0.1l0.3,0.1h0.2l0,0
	l-0.2-0.3l-0.1-0.1v0.1l-0.1,0.1v0.1l-0.1-0.1v-0.1v-0.1l0,0l0,0v-0.1l0.1-0.1l0,0l0,0h0.1V61l0.1-0.1l0.4-0.2h0.1h0.4v-0.1l0.1-0.2
	l0.1-0.2l0.1-0.1h0.1h0.1l0,0l0,0h0.3h0.1l0.1-0.1h0.1h0.1l0,0l0,0l0,0l0.1,0.1l0.1,0.2l0.1,0.1l0.1-0.1l0.3-0.2l0.9-0.1l0.4-0.2
	h0.2l0.9,0.7l1.2,0.7l0.6,0.2l0.3-0.1l0.3,0.3l0.2,0.1l0.2,0.1l0.2,0.1l0.5,0.4l0.1,0.1l0.1,0.2l0.5,0.5l0.1,0.3l0.1,0.1l0.1,0.1
	l0.1,0.1l0.1,0.1l0.1,0.3v0.1l0.1,0.2l0.2,0.3l0.2,0.2l0.2,0.2l0.4,0.2l0.1,0.1l0.1,0.1l0.1,0.1l0.3,0.1h0.2l0.2,0.1l0.1,0.2
	l0.1,0.3v0.3l-0.1,0.3l-0.1,0.2l0.1,0.1l0.1,0.2v0.2l-0.1,0.1l0.3,0.2l0.2,0.1h0.1l0.6,0.7l0.3,0.3l0.3-0.1l0.3,0.2l0.2,0.2l0.4,0.5
	l0.2,0.4l0,0v0.3v0.1v0.1l0.1,0.1l0.2,0.1l0.2,0.1h0.2l0.2,0.1l0.1,0.2l0.1,0.2l0.1,0.1l-0.1,0.1v0.1l0.1,0.1h0.2l0.1,0.1v0.2
	l0.1,0.2l0.2,0.1h0.2h0.1l0.2-0.1h0.2h0.4h0.1l0.2,0.1l0.3,0.1h0.3l0.2-0.2l0.1,0.1l0.1,0.1l0.1,0.1l0.1-0.1l0.3-0.1v0.3V73l0.1,0.2
	l0.2,0.1l-0.3,0.2l0.1,0.2l0.5,0.4v0.1v0.4v0.1l-0.1,0.1l0.1,0.1l0.1,0.1h0.1l-0.1,0.3l0.1,0.2l0.5,0.6l0.1,0.1h0.1h0.2h0.1l0.1,0.2
	v0.2l-0.1,0.7v0.2l0.1,0.4l-0.3-0.4l-0.2-0.1l-0.2,0.2v0.1l0.2,0.3l0.1,0.2v0.1h0.1h0.1v0.1v0.5V79v0.1v0.1l-0.1,0.1v0.1v0.1v0.1
	v0.1l-0.1,0.2v1.2l-0.1,0.4v0.2v0.8l-0.3,0.5v0.1v0.1l-0.1,0.2l-0.4,1.2h0.1l0,0l0,0v0.2l-0.1,0.2l-0.3,0.4l-0.1,0.4l-0.1,0.2
	l-0.2,0.2l-0.1-0.1l-0.1,0.2v0.3v0.2l0.1,0.4l0.1,0.2l0.1,0.2l-0.1,0.1v0.2v0.4l-0.3,1.3l-0.4,1.1l-0.1-0.2v-0.2l0.1-0.2l0.1-0.2
	L246,90l-0.1,0.2l-0.1,0.2v0.3V91l0.1,0.4v0.2l0.2,0.3l0.8,0.7l0.2,0.5v0.2l0.1,0.3l0.1,0.3h0.2v-0.2l-0.1-0.3l-0.2-0.5l-0.1-0.3
	l-0.7-0.8l-0.1-0.2v-0.2l0.2,0.2L247,92l0.2,0.3l0.2,0.3l0.2,0.1h0.3v0.1v0.3v0.1l0.1,0.1h0.1h0.2l0.2-0.1l0.1-0.2v-0.3l-0.1-0.2
	l0.2-0.4V92v-0.1l0.2-0.2l0.1-0.1v-0.2l-0.1-0.3v-0.2l0.4-0.2l0.1-0.1l-0.5,0.1l-0.5-0.2l-0.5-0.3l-0.5-0.2l0.2-0.2l0.6-0.2l0.2-0.2
	h-0.5h-0.1v-0.1l0.1-0.1v-0.1l0.1-0.2v-0.1v-0.1l-0.1-0.2v-0.1l0.5,0.5v-0.1l0,0h0.1l0.1,0.2l0.2,0.1l0.3,0.2v0.1l-0.3,0.1v0.1h0.4
	l0.3,0.1l0.2,0.2l0.1,0.4l-0.1,0.7v0.4l0.2,0.3h0.1h0.4l0.1-0.1v0.2l-0.1-0.2v-0.5l0.1-0.2l0.1-0.2l0.3-0.1h0.2l0.2,0.2l0.1,0.6
	l0.2,0.6v0.3l-0.1,0.2l-0.4,0.5l-0.1,0.1l-0.3,0.2l-0.1,0.1l-0.2,0.4l-0.1,0.1h-0.1l-0.1,0.1v0.2v0.1l-0.3,0.3l-0.2,0.3l-0.1,0.3
	l-0.1,0.3l-0.3,0.2l0.1,0.1v0.1l-0.1,0.2l0.2-0.1h0.2l-0.1,0.2l-0.2,0.1l-0.4,0.1l-0.2,0.1h0.2l0.2,0.1l0.1,0.1l0.1,0.1h-0.3
	l-0.3-0.2l-0.3-0.1l-0.2,0.2l0.1,0.1l0.1,0.1h0.1l0.1-0.1h0.1v0.1V97l-0.1,0.1l-0.1,0.1l-0.1-0.1l-0.3-0.2l-0.1-0.1l-0.1-0.1
	l-0.2-0.5h-0.1v0.2l0.2,0.6l0.1,0.2l0.2,0.1l0.5,0.1l0.5,0.4l0.2,0.1l0.2,0.2l0.1,0.7l0.3,0.5v0.3h-0.1v-0.1l0,0l0,0h-0.1v0.3
	l0.2,0.3l0.2,0.3l0.1,0.3h0.1v-0.2l0.1,0.1l0.1,0.2v0.2v0.2l-0.1-0.1V101l-0.1-0.2l0.1,0.3l0.3,0.6l0.1,0.5l1.1,2.2l0.1,0.3l0.1,0.1
	h0.1l0.2,0.1l-0.1-0.2l-0.2-0.3v-0.2l0.3,0.4l0.4,1.2l0.4,0.3h0.1h0.1l0.2,0.1l0.1,0.1l0.1,0.1h0.1h0.1l0,0l0,0l0,0h0.1l0.1,0.1l0,0
	l0.1-0.1l0.1-0.1l0.1-0.1v-0.1l0.1,0.2v0.4l0.1-0.1l0.1-0.2v-0.2l-0.1-0.6l-0.2-0.5l-0.1-0.1l-0.1-0.1l-0.2-0.4l-0.1-0.2l-0.1,0.1
	l-0.1-0.1l-0.4-0.5l-0.1-0.3v-0.1l0.3,0.1l0.1,0.2l0.2,0.4h0.2l0.2-0.1h0.1v0.2l0.2,0.3l0.1,0.1h0.1l0.1-0.1h0.2h0.2l0.1-0.2
	l0.3,0.1h0.2l0.2-0.1l0.5-0.1l0.3-0.3l0.2-0.1l-0.2,0.4l-0.1,0.1l-0.1,0.1l-0.3,0.1l-0.6,0.4l-0.2,0.2v0.2l0.3,0.2l0.2,0.1l0.1,0.1
	v0.3v0.3l-0.3,1.6v0.3l0.1,0.2l0.2,0.5l0.1,0.2v0.3l-0.1,0.2v0.2l0.1,0.2l0.2,0.2h0.2l0.2-0.1l0.2-0.1v0.2l0.1-0.1l0.3-0.1l0.1-0.1
	l0.1-0.1l0.4-1.1l0.1-0.2l0.4-0.4l0.2-0.2l0.2-0.1h0.2l0.3-0.2l0.2-0.1l-0.1,0.2l-0.1,0.1l-0.1,0.1l-0.1,0.1l-0.1-0.1L259,108
	l-0.1,0.1v0.1l-0.5,0.5l-0.1,0.2l0.1,0.4l-0.2,0.4l-0.3,0.3l-0.3,0.2l-0.1,0.1l-0.1,0.1h-0.1h-0.1l-0.1-0.2H257l-0.1,0.1v0.2v0.2
	v0.1l0.1-0.1l0.1,0.1l0,0l0.2-0.1l0.7,0.4h0.3h0.1l0.1,0.1h0.1h0.1l0.1-0.1v-0.3l0,0l0.1,0.2l0.2,0.4l0.1,0.2l0.1,0.3v0.9h-0.1v-0.1
	h-0.1v0.2l0.4,0.7l0,0v0.1l-0.1,0.5l0.1,1.1l0.2,1h0.1v-0.2V116v-0.1l0.1-0.1l0.2,1l0.2,0.4l0.4,0.3l-0.1,0.1v0.2l0.1,0.2l0.1,0.1
	h0.1h0.3h0.2v0.2l-0.1,0.2l-0.1,0.2l-0.1,0.1l-0.1-0.1l-0.1-0.1l-0.1-0.1l-0.2,0.1l0.1,0.4v0.1l0.1,0.1l0,0h0.1h0.1v-0.1l0.1-0.1
	l0,0v-0.1v-0.1l0.1,0.1l0.1,0.1h0.1h0.2l0.1-0.1l0.1-0.2l0.1-0.1l0.1,0.2l0.1,0.1l0.1,0.1h0.1v0.1l0,0l0,0l-0.1,0.1h0.1l0.1-0.1h0.1
	h0.1l0.2,0.1l0.3,0.1l0.1,0.1l0.1,0.1l0.2-0.2l0.1,0.1l0.2,0.2l0.1,0.1l0.2,0.1l0.4,0.1l0.2,0.1l0.3,0.2l0.3,0.3l0.2,0.4l0.1,0.1
	l-0.3,0.2l-0.1,0.2l0.2,0.1l0.1,0.1l0.2,0.4l0.1,0.1h0.1h0.4v0.2v0.2l0.1,0.1v0.2l0.3,0.5l0.1,0.6v0.1l0.1,0.1l0.3-0.1l0.1,0.1v0.1
	v0.1l-0.1,0.1l-0.2,0.2l0.1,0.3l0.4,0.5l0.2,0.5v0.1l0.1,0.3v0.1l0.1,0.1l0.6,0.5l0.5,0.1h0.1l0.2,0.1l0.4,0.1l0.2,0.1l0.7,0.7
	l0.1,0.2l-0.1,0.3l-0.2,0.2l-0.3,0.1h-0.3l-0.2-0.1l0,0h0.1l0.1-0.1h0.1v-0.1l-1-0.4l-0.2-0.1l0,0l-0.2-0.4l-0.1-0.1l-0.1-0.1
	l-0.1-0.1H268l0.1-0.2l-0.2,0.2l-0.2,0.5l-0.1,0.5v0.4l0.1,0.4l0.2,0.4l0.6,0.6h0.2l0.6-0.1h0.5l0.4-0.1h0.5h0.2l0.3-0.3h0.1
	l0.3-0.2l0.2,0.2l0.4,0.1v0.1v0.1h0.1h0.1l0,0v-0.1l0.1,0.1h0.1h0.1h0.1v-0.1l0,0l0,0v-0.1l0.1,0.1l0.2,0.1h0.2h0.2l0.2-0.2l0.2-0.1
	l0.2,0.1h0.1l0.1-0.1v-0.1v-0.1v-0.1h0.1l0.5-0.1v0.1l0,0l0,0l0,0l0.2,0.1l0.1-0.2l0.1-0.3l0.1-0.2l0.2-0.1h0.5h0.2v0.1l0,0v0.1
	h-0.1h-0.1v0.1v0.1h0.1l0.1,0.1l0.1,0.1v0.1l0.2-0.1h0.2l0.2,0.2v0.3h0.1v-0.3l-0.2-0.2l-0.2-0.1h-0.3l0.2-0.2l0.2-0.1h0.2v0.2
	l0.2,0.1l0.2,0.4l0.2,0.2v-0.1l-0.2-0.2l-0.2-0.2V129v-0.2l0.2-0.2v-0.1v-0.1l0.1-0.1l0.6-0.6l0.5-0.4v-0.2l-0.1-0.1l-0.2-0.1
	l-0.1-0.1l0.1-0.3l0.1-0.2v-0.1l-0.1-0.1l-0.1-0.1v-0.3v-0.3l0.1-0.2l0.2-0.3l0.1-0.2V124v-0.3l0.4-0.4l0.3-0.6v-0.3v-0.1l0.1-0.1
	h0.1h0.1l0.1-0.1l0.2-0.3v-0.6l0.2-0.4l0.1-0.5l0.4-0.6h0.1v0.2v0.4l-0.1,0.6v0.6h0.1l0.2-4l-0.2-0.3v-0.1l0.2-0.2l0.1-0.4l0.3-2
	v-0.3l0.1-0.2v-0.2v-0.5v-0.2l0.1-0.4l0.1-1.9h0.2l0.1-0.4L280.8,108.2z M273.3,130.4v-0.1l-0.1-0.2l0,0l0,0v0.1L273.3,130.4
	L273.3,130.4z M269,128.5L269,128.5l0.2-0.1l-0.1-0.1H269l0,0l0,0l0,0V128.5L269,128.5z M269.3,128.9h0.1l0,0v-0.1h0.1h0.1l0,0v-0.1
	h-0.1h-0.1l0,0v0.1L269.3,128.9z M248.7,96.4L248.7,96.4l-0.1,0.2L248.7,96.4L248.7,96.4L248.7,96.4z M248.8,96.5L248.8,96.5
	L248.8,96.5L248.8,96.5z M245.4,137.2L245.4,137.2L245.4,137.2L245.4,137.2z M244.8,137.1L244.8,137.1L244.8,137.1L244.8,137.1z
	 M245.5,137.1L245.5,137.1L245.5,137.1L245.5,137.1z M245.7,136.9L245.7,136.9L245.7,136.9L245.7,136.9L245.7,136.9L245.7,136.9
	L245.7,136.9L245.7,136.9z M245.6,137.2L245.6,137.2L245.6,137.2L245.6,137.2z"/>
<rect x="145.5" y="248.8" class="st4" width="80.5" height="61.3"/>
<text transform="matrix(1 0 0 1 125.4692 230.8902)" class="st6 st9">4.</text>
<rect x="201.7" y="180.5" class="st4" width="81.8" height="72.2"/>
<text transform="matrix(1 0 0 1 200.415 162.5422)" class="st6 st9">5.</text>
</svg>
