<?xml version="1.0" encoding="utf-8"?>
<!-- Generator: Adobe Illustrator 23.0.1, SVG Export Plug-In . SVG Version: 6.00 Build 0)  -->
<svg version="1.1" id="Layer_1" xmlns="http://www.w3.org/2000/svg" xmlns:xlink="http://www.w3.org/1999/xlink" x="0px" y="0px"
	 viewBox="0 0 300 300" style="enable-background:new 0 0 300 300;" xml:space="preserve">
<style type="text/css">
	.st0{fill:#E0B19E;}
	.st1{fill:none;}
	.st2{font-family:'GoodlifeBrush';}
	.st3{font-size:15.4569px;}
	.st4{enable-background:new    ;}
	.st5{font-size:24px;}
	.st6{opacity:0.8;fill:#E0B19E;enable-background:new    ;}
	.st7{opacity:0.6;fill:#E0B19E;enable-background:new    ;}
	.st8{opacity:0.4;fill:#E0B19E;enable-background:new    ;}
	.st9{font-size:30px;}
	.st10{opacity:0.2;fill:#E0B19E;enable-background:new    ;}
	.st11{fill:#757575;}
	.st12{font-size:18px;}
	.st13{letter-spacing:31;}
</style>
<g>
	<path vector-effect="non-scaling-stroke" class="st0" d="M17.3,124.5l7.2-7.2l5.4-6.7l-4.7-5.9l-0.7-4.1l8.8-4.2l11.3-1.3l4.4,1.5
		l9.3-2.7l7.3-7.2l2.8-0.8L66,78.6l2.2-0.9L64,71.6l5-4.5l7.6-12.8l4.4-4.4l24.9-6.5l1.4,8.7l2.4,3.5l-0.1,9.2l2.8,5.6l-0.5,3.3
		l3.5,1.5l3.9,17.3l-0.4,15.4l0.5,0.7l3,16.8l1.5,1.5l-3.4,3.4l1.7,2.1v0.1l-1.7,4.1l6.2-4.5l12.2-3.6l3.7-4.6l4.9,2.2l-4.1,4
		l-10.1,7.4l-13.4,5.9l-2.3-3.3l0.7-6.8l-14.9-4.9l-7.4-4.2l-0.9-4.2l-5.6-3.3l-71.2,14L17.3,124.5z"/>
</g>
<g id="Layer_4">
</g>
<rect x="166.6" y="81.6" class="st1" width="99.4" height="34.8"/>
<text transform="matrix(1 0 0 1 166.6058 91.3779)" class="st2 st3">Connecticut</text>
<rect x="43" y="97.7" class="st1" width="99.4" height="34.8"/>
<text transform="matrix(1 0 0 1 39.3143 111.5034)" class="st2 st3"> New York</text>
<rect x="358.1" y="67.8" class="st1" width="302.5" height="247.6"/>
<text transform="matrix(1 0 0 1 358.0508 79.4727)" class="st3" style="font-family:'Avenir-Roman';">New York</text>
<text transform="matrix(1 0 0 1 358.0508 97.9727)" class="st3" style="font-family:'Avenir-Roman';">Connecticut</text>
<text transform="matrix(1 0 0 1 358.0508 135.0727)" class="st3" style="font-family:'Avenir-Roman';">Massachusetts</text>
<text transform="matrix(1 0 0 1 358.0508 172.1727)" class="st3" style="font-family:'Avenir-Roman';">District of Columbia</text>
<text transform="matrix(1 0 0 1 358.0508 209.2727)" class="st3" style="font-family:'Avenir-Roman';">New Jersey</text>
<text transform="matrix(1 0 0 1 358.0508 246.3727)" class="st3" style="font-family:'Avenir-Roman';">Vermont</text>
<rect x="-14.2" y="501.2" class="st1" width="135.8" height="34.5"/>
<text transform="matrix(1 0 0 1 24.3531 174.6432)" class="st4"><tspan x="0" y="0" class="st2 st5">3. </tspan><tspan x="24.8" y="0" class="st2 st3">Massachusetts</tspan></text>
<path vector-effect="non-scaling-stroke" class="st6" d="M193.8,49.1l27.1-6.2l0.1,0.3l3.4,12.9l-0.5,2.4l-8.1,3.4l-8.3,2.4
	l-10.8,8.6V73v-0.1l-1.7-2.1l3.4-3.4l-1.5-1.5L193.8,49.1z"/>
<path vector-effect="non-scaling-stroke" class="st7" d="M88.9,214l2.9-2.8l1.5,2.4L88.9,214z M78.9,215.3l3.1-4l3.2,2.1L78.9,215.3
	z M32.3,194.8l12.8-2.8l18.6-4.1l3.2-4.6l3.3-1.2l1.7,3.8l3.2,0.4l-3.8,3.1l-1.3,6.1l2.5-0.9l5.1,3.8l4.6,6.4l7-2.5l-1-4.4l3.1,6.1
	l-6.2,3l-4.9,4l-0.5-3.6l-6.3,6l-2.2-3.5l-0.7-0.7l-2.1-1.1l-2.2-5l-6.6,2l-0.1-0.3L32.4,211l-0.5-0.7L32.3,194.8z"/>
<path vector-effect="non-scaling-stroke" class="st8" d="M140.3,277.5l1.6-4.3l9.8-10.2l-6.9-4.6l-3.7-5.4l1.6-4.6l-1.8-1.9
	l5.2-10.1l14.9,4.9l-0.7,6.8l-1.8,1.9h-0.1l-0.7,4.3l4.5,0.2l1.1,2.6l0.8,12l-2.3,7.9l-3.7,5.3l-1.8,6.4l-2.8,1.8l0.4-5.1l-4.6,0.3
	l-7.7-4.5l-1-3.1L140.3,277.5z"/>
<rect x="28.9" y="126.1" class="st1" width="105.3" height="21.1"/>
<text transform="matrix(1 0 0 1 111.4551 229.5345)" class="st4"><tspan x="0" y="0" class="st2 st5">4. </tspan><tspan x="26" y="0" class="st2 st3">New Jersey</tspan></text>
<text transform="matrix(1 0 0 1 203.6175 163.5715)" class="st4"><tspan x="0" y="0" class="st2 st9">5. </tspan><tspan x="30.3" y="0" class="st2 st3">Vermont</tspan></text>
<path vector-effect="non-scaling-stroke" class="st10" d="M235.4,179.2l28.2-7.2l0.1,4.4l0,0l1.7,7l-2.8,4.1l-3.2,1.7l1.1,4.1
	l-0.7,8.5l-1.6,4.8l1.4,11.8l-0.3,4.8l2.2,2.3l-12.8,2.8l-3.9-17.3l-3.5-1.5l0.5-3.3l-2.8-5.6l0.1-9.2l-2.4-3.5L235.4,179.2z"/>
<text transform="matrix(1 0 0 1 32.9752 15.3369)" class="st4"><tspan x="0" y="0" class="st11 st2 st12 st13">	</tspan><tspan x="36" y="0" class="st11 st2 st12">Jewelry Rental Interest</tspan></text>
<rect x="22" y="46.9" class="st1" width="41.6" height="52.2"/>
<text transform="matrix(1 0 0 1 22.0485 65.8567)" class="st2 st9">1.</text>
<g>
	<rect x="173.7" y="42.3" class="st1" width="81" height="44"/>
	<text transform="matrix(1 0 0 1 173.6953 61.2793)" class="st2 st9">2.</text>
</g>
</svg>
