<?xml version="1.0" encoding="utf-8"?>
<!-- Generator: Adobe Illustrator 23.0.1, SVG Export Plug-In . SVG Version: 6.00 Build 0)  -->
<svg version="1.1" id="Layer_1" xmlns="http://www.w3.org/2000/svg" xmlns:xlink="http://www.w3.org/1999/xlink" x="0px" y="0px"
	 viewBox="0 0 300 300" style="enable-background:new 0 0 300 300;" xml:space="preserve">
<style type="text/css">
	.st0{fill:none;}
	.st1{font-family:'GoodlifeBrush';}
	.st2{font-size:30px;}
	.st3{font-size:12px;}
	.st4{fill:#E0B19E;}
	.st5{fill:#757575;}
	.st6{font-size:18px;}
	.st7{letter-spacing:29;}
</style>
<rect x="0.4" y="0.3" class="st0" width="299.5" height="297.5"/>
<g>
	<text transform="matrix(1.0863 0 0 1 92.4551 102.1514)" class="st1 st2">1. </text>
	<rect x="162.9" y="162.8" class="st0" width="78.5" height="59.4"/>
	<text transform="matrix(1 0 0 1 115.7806 101.8165)" class="st1 st3"> United States</text>
	<g>
		<g>
			<g>
				<path vector-effect="non-scaling-stroke" class="st4" d="M199,200.1L199,200.1l9.4-0.9l2.5,9.2l0.9,1.6v0.9l0.5,0.3l-0.5,0.7
					l-0.3,1.2l0.5,1.2v1.8l0.5,0.7l-9.9,0.9v0.7l0.9,0.7v0.5l0,0l-0.3,1.4h-0.9l-0.7-0.5l-0.5-1.2l-0.3,1.6l-0.9-0.3l-0.9-6.7
					l0.3-6.9l0.3-6.9H199z"/>
				<path vector-effect="non-scaling-stroke" class="st4" d="M107.6,233.8L107.6,233.8l0.3,0.3h0.5l0.5,0.5v0.3l-0.3-0.5h-0.3
					l0.3,0.3l0.3,0.3l0.3,0.5h-0.3l-0.3,0.5l0,0l-0.3-0.3l0.3-0.3l-0.3-0.3l-0.3-0.5l-0.3-0.5L107.6,233.8z M107.3,235.4v-0.5
					l0.5,0.3h0.3l0.3,0.5l0.5,0.7l0.3,0.7l-0.3-0.3l-0.5-0.5l-0.3-0.3l-0.3-0.7h-0.5V235.4z M107.3,235.6L107.3,235.6L107.3,235.6
					h0.5v0.3h-0.3L107.3,235.6L107.3,235.6z M106.4,234.7l0.3-0.5l0.3-0.3l0.7,0.3v0.3l0.3,0.7h-0.3l-0.5-0.3l0,0l0.3,0.3l-0.3,0.3
					l-0.3-0.3l-0.3-0.5H106.4L106.4,234.7z M98.1,232.5L98.1,232.5l0.5-0.3L98.1,232.5L98.1,232.5z M97.9,232.6L97.9,232.6l0.5-0.3
					l0,0L97.9,232.6L97.9,232.6z M97,233.6L97,233.6l0.5-0.7v-0.3h0.3l-0.3,0.5v0.3L97,233.6z M97,232.9v-0.3l0.3-0.3L97,232.9
					L97,232.9z M96.7,233.4l0.3-0.3L96.7,233.4L96.7,233.4z M67.3,241l0.3,0.3L67.3,241L67.3,241z M65.3,240.2h0.3H65.3L65.3,240.2z
					 M62.3,237.7h0.3v0.3L62.3,237.7z M62,236.8L62,236.8l0.7,0.3l0.3,0.5l-0.5-0.3L62,236.8L62,236.8z M111.9,238L111.9,238h0.3
					H111.9z M111.7,238v-0.5h0.3v0.3L111.7,238z M110.8,238.4L110.8,238.4L110.8,238.4L110.8,238.4z M109.9,236.3L109.9,236.3
					l0.3-0.3v0.3H109.9L109.9,236.3z M109.9,238.1L109.9,238.1l0.3-0.3L109.9,238.1z M109.6,237.2l0.3-0.5l-0.3-0.3h0.5l0.3,0.3v0.3
					h0.3l0.5,0.3l0.3,0.3l0,0l0.5,0.3l0.3,0.7v0.3h-0.5v-0.3l-0.5-0.3H111V238h-0.3l0.3,0.5h0.3v0.3l-0.5-0.3l-0.3-0.5h-0.3v-0.1
					l0.3-0.3l-0.3-0.3h-0.3L109.6,237.2h0.5l-0.3-0.3L109.6,237.2z M109.1,237.2L109.1,237.2L109.1,237.2L109.1,237.2z M108.7,236.2
					l0.3-0.3l0.3,0.3v-0.3l-0.5-0.3v-0.3h0.7l0.5,0.5l-0.3,0.3h-0.3v0.3l-0.5,0.3v-0.3h-0.3l0.3,0.5v0.5l0,0l-0.3-0.3v-0.5
					L108.7,236.2L108.7,236.2z M70.3,242.8L70.3,242.8l0.5-0.5h0.3l-0.3,0.3h0.3v0.3L70.3,242.8z M69.6,242.3h0.5l0.3-0.3l0,0
					l-0.3,0.3H69.6z M69.4,241.9h0.3v0.5h-0.3V241.9z M92.6,236.6l0.3-0.5h0.3l0.3-0.5h0.3l-0.3,0.5H94v0.3h-0.5l-0.3,0.3
					L92.6,236.6z M91.9,238.9L91.9,238.9h0.5H91.9z M91.5,239l0.3-0.3l0,0L91.5,239z M91.5,237.7l0.3-0.3l0.3-0.3h0.3v-0.5h0.3
					l0.3,0.3l-0.3-0.3l0.3,0.3l-0.3-0.3L93,237v0.3l0.3-0.3v0.5h0.3l-0.3,0.3h-0.5L93,238v0.3h-0.5h0.3l-0.5,0.3v-0.3l-0.3,0.3
					l-0.3,0.5h-0.3l0.3-0.3l0,0l0.3-0.3l-0.5,0.5l-0.3-0.3v-0.3L91.5,237.7z M90.8,240.1L90.8,240.1L90.8,240.1L90.8,240.1z
					 M86.6,241.1l0.3-0.5l0,0L86.6,241.1z M86.4,240.5L86.4,240.5L86.4,240.5L86.4,240.5z M86.2,240.5h0.3v0.5L86.2,240.5
					L86.2,240.5z M86.6,235.4L86.6,235.4l0.5-0.3L86.6,235.4L86.6,235.4z M85.2,240.7h0.3H85.2L85.2,240.7z M84.8,241L84.8,241
					L84.8,241L84.8,241z M86.2,227.7L86.2,227.7h0.3H86.2z M84.3,241.7L84.3,241.7h0.3H84.3z M82.4,241.1L82.4,241.1l0.5-0.5l0,0
					l0.5-0.3h0.3l0.3,0.5l-0.3,0.3h-0.3H83v0.3h-0.5L82.4,241.1L82.4,241.1z M81.5,241.7L81.5,241.7L81.5,241.7L81.5,241.7z
					 M81.4,241.7L81.4,241.7h0.5H81.4L81.4,241.7z M80.9,242.1L80.9,242.1L80.9,242.1L80.9,242.1z M82,232.2h0.5l0.3-0.3h0.3v0.3
					h0.3v0.7h-0.5l-0.3,0.3l-0.3-0.3H82l-0.5-0.5L82,232.2z M79.6,242.6L79.6,242.6l0.7-0.3l0.3-0.3h0.3l-0.5-0.3l0.3-0.3H81v0.3
					l0.3-0.3l-0.5,0.5H81v0.3h-0.3l-0.3,0.3h-0.3L79.6,242.6L79.6,242.6z M83.2,223.7l1.2-0.5l0.7-0.3h0.5h0.5h0.5v0.3l-0.3,0.5v0.3
					h0.5h0.3l0,0h0.3h0.3l0.3-0.3h0.3v-0.3l-0.3-0.3h-0.3V223l-0.3-0.3h-0.5v-0.3v-0.3l0,0l0.3,0.3v0.3l0.3,0.5h0.3l-0.3-0.5v-0.3
					l0.3-0.3l-0.3-0.3H87l-0.3-0.3h-0.3l-0.5-0.3v-0.5v-0.3l-0.3-0.3l-0.5-0.5l-0.3-0.3V219l-0.5-0.3h0.3v-0.3v-0.5h0.5h0.7H86
					l0.3-0.3l0.3-0.3V217v-0.3v-0.3l0.5-0.5l0.3-0.3h0.3H88l0.3-0.3l0.5-0.5h0.3v0.3h0.7h0.3l0.3-0.3l0.3-0.5H91l0.3,0.3h0.3v0.3
					l-0.3,0.3H91v0.3h0.3v-0.3l0.3-0.3v-0.3l0.3,0.3v0.3h0.3l0.3-0.3H93l0.5,0.3l-0.8,1.2v0.3h0.5v0.3h0.3h0.3v-0.3h0.5l0.3-0.3h0.5
					h0.3l0.3,0.3l0,0H96l0,0h0.5H96h0.5l0.3,0.3h0.3l0.5-0.3h0.3l0.5,0.3l0.3,0.3H99l0.3,0.3h0.3l2.7,14.3h0.5v-0.3l0.5,0.3l0.3-0.3
					l0.5-0.3v0.5l0.5,0.3v0.3l0.9,0.7l0.3,0.5l0.5-0.5h0.3V233v-0.3l0.3-0.3h-1.6l0.3-0.3l0.3-0.3l0.5,0.3v0.3l0.3,0.3h0.3l0.3,0.3
					l0.3,0.5h0.5l0.5,0.3l0,0l0.3,0.3l0.7,0.7l0.5,0.3v0.3h0.3v0.3h0.3l0.3,0.3h0.3l0.5,0.3h0.3h0.3v0.3h0.3l0.3,0.3v0.3l0.5,0.7
					v0.7l-0.3,0.5h-0.9l-0.3-0.5l-0.3-0.3l0.3-0.3l-0.3-0.5l-0.5-0.3l0.5,0.5l0.3,0.5v0.5l-0.3-0.3h-0.5v0.3l-0.3-0.3v-0.5l0,0v-0.5
					l-0.3,0.3h0.3v0.5h-0.3v-0.3v-0.3l-0.3-0.3l-0.3,0.3l0.3,0.3l-0.3,0.3l-0.3-0.3l0,0l-0.3-0.3l0.3-0.3v-0.5h-0.3v-0.3l0,0
					l-0.3-0.3h0.3h-0.7v-0.3l0.3-0.3h-0.3l-0.3-0.5h0.5l-0.5-0.3v-0.3v0.3l-0.5-0.3l-0.3-0.3h-0.5l-0.3-0.5l-0.5-0.5l-0.3-0.3v0.3
					l0.5,0.5l0.3,0.5v0.3h-0.3l-0.3-0.3l-0.5,0.3l-0.3-0.3l0,0l-0.3-0.3l0,0l-0.7-0.3v0.3h0.5l0.5,0.5v0.3l-0.3,0.3l0,0v0.3
					l-0.3-0.3h-0.3l-0.5-0.3l-0.3-0.3v-0.3l-0.3-0.3h-0.5l-1.2-0.5l0.3-0.3l-0.3-0.3v0.3l-0.3,0.3h-0.5l-0.5-0.3l0,0l-0.3-0.3l0,0
					l0.3,0.3l-0.3,0.3h-0.7h0.3l-0.5,0.3l-0.3,0.3l-0.3-0.3h-0.5v-0.3V233l-0.3,0.3l-0.3-0.3h-0.3l0.3-0.3H97v-0.3l-0.5,0.3v-0.3
					h0.3h-0.3v-0.3v0.1l-0.3,0.3v-0.3v0.3h-0.3V232v0.5l-0.5,0.3v-0.3l0.3-0.5l0,0l-0.3,0.5v-0.3l-0.3,0.7l0.3-0.3l0.3,0.5l-0.3,0.3
					l0.3,0.3v0.3l-0.3-0.3v0.3v-0.3v0.3l-0.5-0.3v0.3v-0.3l-0.3,0.5h-0.3l-0.5,0.5l0.3-0.5l-0.3,0.5h0.5L94,235h-0.3l-0.3,0.3
					l-0.3-0.3v-0.3l0.5-0.3v-0.3l-0.3,0.3l-0.3-0.3v-0.5l0.3-0.3v-0.5l-0.3-0.3h0.3l0.5-0.5l0.3,0.3H95V232h0.5l-0.5-0.3l-0.3-0.3
					l0.3-0.5l0.3-0.3H95l0.5,0.3v0.3H95l0,0l-0.3,0.3v0.3h-0.3l-0.3,0.3v0.3l-0.3,0.3l-0.3,0.3v0.3l-0.3,0.3h-0.3l0.3,0.3h-0.5h-0.3
					h0.3v0.3h-0.3l-0.3,0.3v0.3l-0.3,0.3v0.5h0.5l0.3,0.3v0.3l-0.3,0.3H92l-0.3,0.5v0.3l-0.3,0.3h-0.3l-0.3,0.3l-0.3,0.3v0.3h-0.3
					l-0.3,0.5h0.3v0.3h-0.3l-0.3,0.3h0.3v0.3l-0.3,0.3H90l-0.3,0.3l-0.3-0.3l-0.3,0.3l-0.5,0.3H89v0.3h-0.3l-0.3,0.3l0.3,0.3h-0.3
					v0.5l-0.3-0.3v0.3l0,0v0.3h-0.5l-0.3,0.5v-0.5H87l-0.5,0.3l-0.3,0.3h-0.3l-0.3,0.3h-0.3l0.3-0.5h-0.3v0.3l-0.5,0.5h-0.3v-0.5
					h-0.3v0.5h-0.3l-0.3-0.3h0.3l0.3,0.3l-0.3-0.9l0.3-0.5h0.5V242H85v-0.3l0.3-0.3l0.5-0.3h0.5h0.3l0.3,0.5v-0.3h0.3v0.3h0.3
					l-0.3-0.3l0.3-0.5l0.5-0.5l0.5-0.3l0.3-0.3h0.3v-0.5l0.3-0.3l0.7-0.5l0.3-0.9h0.3v-0.3V236l0.5-0.5v-0.3h-0.3l-0.7,0.3H90
					l-0.3-0.3V235l-0.3,0.3v0.3v0.5h-0.3l-0.3-0.5l-0.3-0.3l-0.3,0.3l-0.3-0.3V235l-0.3,0.3l-0.5,0.3l-0.3,0.3l-0.3-0.3v-0.3V235
					l-0.3-0.5l0.3-0.3L86,233v0.3l-0.5,0.3H85h-0.3v-0.3l-0.3-0.5h-0.3l-0.3-0.3l-0.3-0.3l0.5-0.3v-0.3l-0.7-1.4h0.3l-0.3-0.3H83
					v-0.3h-0.3l0.3-0.3h-0.3V229H83l-0.3-0.3h0.5v-0.5l0.5-0.5l0.3-0.3v-0.3v1.2l0.3-0.3v-0.3l0.3-0.3h0.3h0.3l0.3,0.3h0.3l0.3-0.3
					l0.3-0.5l0,0h0.5h0.3l0.3-0.3v-0.3v-0.5v0.2l-0.3-0.3h-0.7l0.3-0.3h0.3l0.3-0.3v-0.3l-0.3-0.3l-0.3,0.3h-0.3l-0.3,0.3l-0.3,0.3
					l-0.3,0.3v-0.3l-0.3-0.3l0,0l0.3,0.3v0.3l-0.3-0.3h-0.5l-0.5,0.3l-0.9-0.5l-0.3-0.3v-0.3l-0.3-0.5h0.3l0.3-0.3L83.2,223.7
					l-0.4,0.1L83.2,223.7z M78.1,243l0.3-0.3l0.3-0.3l0.5-0.3l0.3-0.3H80v0.3l-0.5,0.3l-0.3,0.3L78.1,243z M78.8,237.2H79H78.8
					L78.8,237.2z M77.2,242.8h0.3H77.2L77.2,242.8z M76.6,243L76.6,243h0.3H76.6z M80,226.5l0.3-0.5v0.3l0.5,0.3H81h0.3v0.3l0.3,0.3
					l0.5,0.3l-0.3,0.3h-0.5l-0.3,0.3v-0.3l-0.3-0.3V227l-0.3-0.3h-0.3H80V226.5L80,226.5z M74.7,243L74.7,243H75H74.7z M77.9,230.5
					L77.9,230.5l0.5,0.5h-0.3L77.9,230.5z M73.3,242.8h0.5l0,0l0.5,0.3h-0.5L73.3,242.8L73.3,242.8z M72.1,242.6h0.5h0.5l0.3-0.3
					l0.3,0.3h-0.3v0.3h-0.3h-0.5L72.1,242.6z"/>
				<path vector-effect="non-scaling-stroke" class="st4" d="M101.8,204.6h0.7l0.3-1.2l-0.5-0.3l0.3-1.6l0.9-0.5l0.5-1.8l0.5-0.7
					l1.2-0.7l-0.7-0.7l-0.3-1.2l-0.5-0.7v-0.7l0.5-0.7v-2.5l0.3-0.7l-0.3-0.9h1.4l0.7,0.7l0.5-0.7l0.7-3.4l17.5,2.7l-3.4,25.1
					l-7.6-1.2l-3.3-1.8l-9.7-5.8L101.8,204.6z"/>
				<path vector-effect="non-scaling-stroke" class="st4" d="M175.8,194.6l15.8-0.7v0.3l0,0l0.3,0.7l-0.9,1.4l2.4-0.3l0.3,0.5
					l-0.9,0.7l0.5,0.5l-1.2,0.9l0.5,1.2l-0.9,0.7L191,203l-0.7,0.5l-0.5,1.4l-0.7,0.3l0.5,0.9l-0.9,0.9l0.5,0.7v1.8l-10.6,0.3v-2.4
					h-1.4l-0.5-0.5V199L175.8,194.6z"/>
				<path vector-effect="non-scaling-stroke" class="st4" d="M88.5,198.2l0.7,0.5l-0.5,0.3L88.5,198.2z M88.1,200.1l0.7,1.2
					l-0.5-0.3L88.1,200.1z M84.3,194.6l1.2,0.7l-1.2-0.3V194.6z M83.2,194.6h0.7l-0.5,0.5L83.2,194.6z M79.7,156.1l5.8,1.6l7.6,2.1
					l-3.4,13.1l2.7,4.2L97,184l3.9,5.8l3.4,5.1v0.7l0.5,0.7l0.3,1.2l0.7,0.7l-1.2,0.7l-0.5,0.7l-0.5,1.8l-0.9,0.5l-0.3,1.6l0.5,0.3
					l-0.3,1.2h-0.7l-9-1.2l-0.3-0.7l0.3-1.6l-0.5-1.6l-2.1-2.5l-0.5,0.3l-0.7-1.6h-0.9l-1.4-0.9v-0.5l-0.9-0.9l-1.4-0.5l-1.6-0.5
					l-0.5-0.7l0.7-2.5l-0.7-0.7l0.3-0.7l-1.2-1.6l-0.9-2.7l-0.5-0.7V182l0.9-0.9l-0.3-0.9l-0.7-0.3l-0.7-0.9v-2l0.3-1.2h0.5
					l-0.3,0.9l0.7,0.7v-0.9l-0.5-0.7V175l0.7-0.3l-0.7-0.5l-0.5,1.2l-0.7-0.9l-0.7-0.3l0.5-0.7l-0.3-1.4l-0.5-0.7l-0.9-1.8l0.3-0.5
					v-1.2l0.5-1.2v-1.4l-0.5-1.4l-0.7-0.9v-1l1.4-1.6l0.3-1.2l0.7-1.4v-1.2l-0.3-0.5L79.7,156.1L79.7,156.1z"/>
				<path vector-effect="non-scaling-stroke" class="st4" d="M127.6,171.3l16.6,1.8l6.7,0.5l-0.3,4.3l-0.9,13.6l-3.4-0.3l-4.6-0.5
					l-16.6-1.8l0.7-5.2v-0.5L127.6,171.3z"/>
				<path vector-effect="non-scaling-stroke" class="st4" d="M244.1,161l5.2-1.2l0,0l0.7,2.5v0.5l-1.6,0.7l-1.6,0.5l-2.1,1.6l0,0
					l0,0l-0.5-0.5l0.7-0.7l-0.3-0.3L244.1,161z"/>
				<path vector-effect="non-scaling-stroke" class="st4" d="M238.8,172.7l0.5-0.7h0.7l-0.5,0.9l0.3,0.7l0.9,0.9l0.3,0.9l0.9,0.9
					h0.5l0.5,1.4l-2.4,0.5L238.8,172.7z"/>
				<path vector-effect="non-scaling-stroke" class="st4" d="M235.1,177.3h0.7l-0.5,0.5L235.1,177.3z"/>
				<path vector-effect="non-scaling-stroke" class="st4" d="M208.4,199.3l4.6-0.5l4.3-0.7l-0.7,1.4l1.2,0.9h0.7l1.6,2.4l1.2,0.7
					l0.3,0.5l1.2,0.7v0.5l0.9,0.9l0.9,0.5l0.5,1.4l0,0l0.5,0.5l0,0l0,0l0,0l0.5,0.3l0.7,1.6l0.9,0.3l-0.7,1.6l-0.3,2.4l-0.7,1.2
					l0.5,0.3v0.9l-2.1-0.3l-0.3,0.7l0.3,1.4h-0.7l-0.3-0.7l-5.5,0.5l-4.6,0.3l-0.7-1.2l-0.5-0.7v-1.8l-0.5-1.2l0.3-1.2l0.5-0.7
					l-0.5-0.3V211l-0.9-1.6L208.4,199.3z"/>
				<path vector-effect="non-scaling-stroke" class="st4" d="M133.1,239.3l0.9-1.4l-0.3-1.2l2.5,1.2l0.9,0.7v0.5l1.2,0.9l-0.7,0.7
					l-1.4,0.5l-1.6,1.4l-0.9-0.5v-1.4L133.1,239.3z M130.6,234.3l0.5-0.5l0.5,0.7l0.7-0.3l1.4,0.7l-0.3,0.5l-1.6,0.3V235
					L130.6,234.3z M128.9,234.3l1.2,0.5l-0.7,0.3L128.9,234.3z M128,233.4l0.3-0.5l2.1,0.3l-0.5,0.5L128,233.4z M123.9,231.3
					l1.4-0.7l0.5,1.2l0.9,0.7h-2L123.9,231.3z M117.6,229.2l0.9-0.9h0.9l0.5,0.5l-0.7,1.2L117.6,229.2z"/>
				<path vector-effect="non-scaling-stroke" class="st4" d="M106.6,144.9V143l2.5-11.2l2.7,0.7l-0.9,4.3l0.7,1.4l-0.3,1.2l1.2,1.2
					l0.7,1.8l0.7,0.7v0.5l0.9,0.3l-0.5,0.5l-0.7,1.8l0.3,0.9l-0.5,0.3l-0.3,0.9l0.7,0.5l1.2-0.9l0.5,0.5v0.9l0.5,1.4l0.3,0.3
					l-0.3,0.9l0.9,0.7l0.5,1.8l0.5-0.3l1.2,0.5l0.5-0.5l0.5,0.3l1.8,0.3l0.3-0.7h0.5l0.7,1.4l-1.8,10.9l-9.7-1.6l-9.7-2.1l1.8-7.8
					l0.7-1.4l-0.7-0.7V152l0.9-1.4h0.5l0.5-0.9l1.6-2.4l-0.3-0.7l-0.5-0.3L106.6,144.9z"/>
				<path vector-effect="non-scaling-stroke" class="st4" d="M186.2,176.8l0.3-1.2l0.7-0.3l0.5-1.2v-0.5L187,173l0.3-0.9l1.2-0.3
					l0.9-0.7l0.5-0.9v-1.4l-0.7-0.5l-0.9-1.2l9.2-0.7v0.9l0.5,0.9l0.7,1.6l0.9,10.6l-0.3,1.2l0.5,0.7l0.3,0.9l-1.8,4.2l0.3,0.5
					l-0.5,0.7l0.5,0.9L197,190l0.3,1.4l-1.6-0.5l-0.7,0.7l0.3,0.5h-0.5l-0.9-1.2l0.3-0.5l-0.5-1.4l-1.2-0.9l-0.3,0.3l-1.6-1.4v-0.5
					l0.7-1.4l0.3-1.2l-1.2-0.5l-0.7,0.3l-0.3-1.4l-1.2-0.9l-1.2-1.2l-0.5-1.4L186.2,176.8z"/>
				<path vector-effect="non-scaling-stroke" class="st4" d="M198.9,170l1.2,0.3l1.2-0.7l6.7-0.7v0.3l0.7,6.7l0.5,5.1l-0.3,0.3
					l0.5,1.2l-1.2,0.7h-0.9l0.3,0.9l-1.2,1.2l-0.3,1.2l-0.5,0.5l-1.2-0.7l-0.7,0.7v0.5l-0.7,0.3l-0.3-0.5l-1.2,0.9l-0.9-0.7
					l-0.7,0.5h-1.2l-0.3,0.5l-0.3-0.5l1.8-4.2l-0.3-0.9l-0.5-0.7l0.3-1.2L198.9,170z"/>
				<path vector-effect="non-scaling-stroke" class="st4" d="M169.4,163l16.7-0.5v0.7l0.5,0.5l-0.5,0.5l0.5,1.8l1.2,0.5l0.3,0.5
					l0.9,1.2l0.7,0.5v1.4l-0.5,0.9l-0.9,0.7l-1.2,0.3l-0.3,0.9l0.7,0.7v0.7l-0.5,1.2l-0.7,0.3L186,177l-1.2-0.9l-5.2,0.5l-4.6,0.3
					h-3.7l-0.5-0.7l0.3-0.9l-0.5-2.1l0.3-0.5l-0.5-0.5V171l-0.7-0.9l-0.7-2.4l-0.7-0.9l0.3-0.7l0.3-1.6l-0.5-1.2L169.4,163z"/>
				<path vector-effect="non-scaling-stroke" class="st4" d="M150.6,178.2l22.6,0.7l1.4,0.7L174,181l1.2,1.6h0.5v9.7l-20.9-0.5
					l-5.2-0.3L150.6,178.2z"/>
				<path vector-effect="non-scaling-stroke" class="st4" d="M226.6,175.2l12.2-2.4l1.6,5.5l2.4-0.5l-0.3,2.1l-1.4,0.5l-0.9,0.3
					l-0.7-1.4l-0.9-0.3l-0.5-0.5v-0.7h0.9l-1.2-0.5l-0.3-0.5l0.3-2.4l0.5-0.7v-0.1l-1.2,1.8l0.5,0.7l-0.3,1.4l0.3,0.9l0.7,0.5
					l0.5,1.4l-1.2-0.5h-1.2l-0.5-0.7l-0.7,0.5l-0.3-0.5l0.5-0.7l0.3-0.7l0.5-0.5h-0.7l-1.6-0.5l0.3-0.5l-0.9-0.3l-0.7-0.9l-1.2-0.5
					l-0.7,0.9H230l-0.5-0.5l0,0l-0.5,0.9h-0.5l-1.2,1.4L226.6,175.2z"/>
				<path vector-effect="non-scaling-stroke" class="st4" d="M167.3,138.7h6.1V137l0.9,0.5l0.5,2.4l0.5,0.3l2.1,0.3l0.3,0.5l0.9-0.3
					l0.3-0.5h1.2l1.4,0.7l0.5,0.9l0.3-0.5h0.7l0.3,0.5l0.9,0.3l0.5,0.7l0.9-0.3l1.2-0.7l0.5,0.7l1.8-0.3l0.9,0.5h0.7l-1.2,0.9
					l-1.8,0.5l-1.6,1.2l-1.2,1.6l-1.8,1.6l0.3,0.5l-0.9,0.3v2.5l-1.2,0.7l-0.7,0.9v0.7l0.7,0.5l-0.3,0.7v1.6l-0.3,0.9l0.9,0.7h0.7
					l0.3,0.5l0.9,0.5l0.3,0.7l1.4,0.9l0.7,0.9l0.3,1.2l-16.7,0.5v-8.1l-0.7-0.5l-0.5-0.9l0.7-0.7l0.3-0.9v-1.2l0,0l0,0l0,0l-0.5-1.4
					l-0.3-2.4l0,0v-2.5l-0.9-2.5v-1.8l0.3-0.5L167.3,138.7z"/>
				<path vector-effect="non-scaling-stroke" class="st4" d="M188.7,209.7v-1.8l-0.5-0.7l0.9-0.9l-0.5-0.9l0.7-0.3l0.5-1.4l0.7-0.5
					l0.7-2.5l7.6-0.5l0.5,0.5l-0.3,6.9l-0.3,6.9l0.9,6.7l-0.3,0.3l-2.1-0.3l-1.2,0.5l-0.7,0.7l-1.2-1.6l0,0v-1.2l0,0v-0.9l-7.1,0.5
					l0.3-0.3l-0.3-1.4h0.5v-1.2l0.5-0.3l0.3-1.4l1.2-1.4h-0.7l0.9-0.9l-0.7-0.7l-0.3-1.4l0.3-0.7L188.7,209.7z"/>
				<path vector-effect="non-scaling-stroke" class="st4" d="M112.1,132.4l6.9,1.4l12.8,2.1l15.4,1.8L146,151l-0.5,4.2l-21.8-2.7
					l-0.5,2.4l-0.7-1.4h-0.4l-0.3,0.7l-1.8-0.3l-0.5-0.3l-0.5,0.5l-1.2-0.5l-0.5,0.3l-0.5-1.8l-0.9-0.7l0.3-0.9l-0.5,0.5l-0.5-1.4
					v-0.9l-0.5-0.5l-1.2,0.9l-0.7-0.5l0.3-0.9l0.5-0.3l-0.3-0.9l0.7-1.8l0.5-0.5l-0.9-0.3v-0.5l-0.7-0.7l-0.7-1.8l-1.2-1.6l0.3-1.2
					l-0.7-1.4L112.1,132.4z"/>
				<path vector-effect="non-scaling-stroke" class="st4" d="M93,160l9.4,2.4l9.7,2.1l-4.3,22.1l-0.7,3.4l-0.5,0.7L106,190h-1.4
					l0.3,0.9l-0.3,0.7v2.5l-0.5,0.7l-3.4-5.1l-3.9-5.8l-4.6-6.9l-2.7-4.2L93,160z"/>
				<path vector-effect="non-scaling-stroke" class="st4" d="M239.7,172.9l0.3-0.9l1.8-2.1l-1.4-0.9l-0.7-1.2l0.3-0.9l-0.5-0.5
					l1.2-2.1l3,0.9l-0.3,1.4l-0.5,0.5l0,0l-0.3,0.9h0.9l0.3,0.5l0.3,2.4l-0.5,1.6l-0.7,1.2l-0.5,1.4l-0.5,0.5v-0.9H241l-1.6-0.9
					L239.7,172.9L239.7,172.9z"/>
				<path vector-effect="non-scaling-stroke" class="st4" d="M125.2,188.9l16.6,1.8l4.6,0.5l-0.3,2.4h-0.3l-0.9,11.8l-0.5,3.9
					l-0.3,4.3l-13.3-1.2l0.3,0.9l-6.1-0.7l-0.3,2.1l-3.3-0.5L125.2,188.9z"/>
				<path vector-effect="non-scaling-stroke" class="st4" d="M147.1,137.8l20.3,0.9l0.5,1.6l-0.3,0.5v1.8l0.9,2.5v2.5l0,0l0.3,2.4
					l0.5,1.4l0,0l0,0l0,0v1.2l-11.9-0.5l-11.2-0.7L147.1,137.8z"/>
				<path vector-effect="non-scaling-stroke" class="st4" d="M146.4,191.3l3.4,0.3l5.2,0.3l20.9,0.5v2.4l0.7,5.1v7.8l-1.4-0.5
					l-1.2-0.9l-0.3,0.5l-1.2-0.3l-0.9,0.5h-1.2l-0.7,0.7l-2.1-1.2l-0.9,0.9v-0.7l-0.9,0.5l-0.9-0.7l-0.7,0.7l-0.3-0.7l-1.6-0.7
					l-0.5,0.5l-1.8-0.7h-0.7l-0.3-0.9h-1.6l-1.2-0.9l0.5-8.8h-1.2l0,0l-9.4-0.5L146.4,191.3z"/>
				<path vector-effect="non-scaling-stroke" class="st4" d="M221.6,165.8l2.4-1.6l0.3,1.2l14.3-2.7l1.2,0.7l0.3,0.9l1.4,0.9l-1.4,2
					l0.5,0.5l-0.3,0.9l0.7,1.2l1.4,0.9l-1.8,2.1l0,0h-0.7l-0.5,0.7l-12.2,2.4l-3.4,0.7l-0.7-4.2L221.6,165.8z"/>
				<path vector-effect="non-scaling-stroke" class="st4" d="M217.2,198l1.8-0.9l0,0l0.9-0.3l4.3-0.5l1.2,0.7v0.5l3.9-0.7l4.8,3.4
					l-0.9,0.7l-0.7,1.4l-0.3,1.4l-0.5,0.9H231v0.7l-1.4,1.6l-1.6,0.9l0.3,0.7l-0.7,0.5l-0.7,1.2l-0.9-0.3l-0.7-1.6L225,208l0,0l0,0
					l0,0l-0.5-0.5l0,0l-0.5-1.4l-0.9-0.5l-0.9-0.9v-0.5l-1.2-0.7l-0.3-0.5l-1.2-0.7l-1.6-2.4h-0.7L216,199L217.2,198z"/>
				<path vector-effect="non-scaling-stroke" class="st4" d="M145.7,155.5l0.5-4.2l11.2,0.7l11.9,0.5l-0.5,0.7l-0.7,0.7l0.5,0.9
					l0.7,0.5v8.1h-0.5l0.5,1.2l-0.3,1.6l-0.3,0.7l0.7,0.9h-0.7l-0.3-0.7l-2.1-0.9H165l-0.5,0.5l-1.6-0.9v-0.3l-17.9-0.9L145.7,155.5
					z"/>
				<path vector-effect="non-scaling-stroke" class="st4" d="M112.1,164.2l9.7,1.6l-0.7,4.3l6.7,0.9l-1.6,12.2v0.5l-0.7,5.2
					l-17.5-2.7L112.1,164.2z"/>
				<path vector-effect="non-scaling-stroke" class="st4" d="M241.4,147.9l5.5-1.4v0.9l0,0l0.3,1.4l-0.5,0.9L246,150l0.3,0.9
					l-0.3,1.6l-0.3,0.9l0.3,2.4v0.9l0.5,0.5l-2.5,0.5l-0.7-3.4l-0.7-0.3v-0.7l-0.5-1.2V150l-0.5-0.7L241.4,147.9z"/>
				<path vector-effect="non-scaling-stroke" class="st4" d="M216.9,182.5l0.9-0.3l0.5-0.7l-0.3-0.9l0.5-1.2l0.7,0.7l0.5-1.8
					l0.7-0.7h0.7l1.2-1.6v-1.6l0.3-1.2l-0.5-1.2l0.5-0.3l0.7,4.2l3.4-0.7l0.5,2.4l1.2-1.4h0.5l0.5-0.9l0,0l0.5,0.5h0.7l0.7-0.9
					l1.2,0.5l0.7,0.9l-0.3,0.9l-2.1-1.2v1.4l-1.2,1.4l-0.3,0.7l-0.5-0.3l-0.5,1.8l-0.7,0.3l-0.7-0.5l-0.3,1.2l-0.7,1.8l-0.7,1.2l0,0
					v1.2l-0.7,0.3l-1.2,0.9l-1.2,0.5l-0.7-0.3l0,0l-0.3,0.3l0,0l-0.7,0.5l-1.2-0.9l0,0v-0.3l0,0v-0.3l-1.2-0.5l-1.6-1.8L216.9,182.5
					z"/>
				<path vector-effect="non-scaling-stroke" class="st4" d="M145.7,155.5l-0.7,9l-0.7,9l-16.6-1.8l-6.7-0.9l0.7-4.3l1.8-10.9
					l0.5-2.4L145.7,155.5z"/>
				<path vector-effect="non-scaling-stroke" class="st4" d="M228.9,243.2l1.4-1.4l0.7,0.7L228.9,243.2z M212.6,216.8l0.7,1.2
					l4.6-0.3l5.5-0.5l0.3,0.7h0.7l-0.3-1.4l0.3-0.7l2.1,0.3l0.5,1.8l0.9,2.1l1.6,2.7l1.8,2.1l0.3,1.8l1.2,1.8l2.1,3.9l0.5,4.3
					l-0.7,1.4l0.3,0.7l-0.3,0.9l-1.2,0.5l-1.6,0.5l-0.3-1.2l-0.9-1.2l-1.2-0.7l-0.7,0.3l-1.2-2.4l-0.9-0.5v-1.6L226,234l-2.1-2.7
					l0.9-1.8l-1.2-0.7l0.5,0.9l-0.5,0.7l-0.5-0.7l0.3-3.3l-0.3-1.4l-0.7-1.2l-0.9,0.3l-0.9-1.2l-0.7-0.3l-0.3-0.7l-1.2-0.9l-1.4-0.7
					l-0.9,0.3l-0.3,0.9h-0.7l-1.2,0.9l-1.6,0.5l-0.5-1.2l-2.5-1.2l-1.2-0.3h-1.2l-3.4,0.9l0.3-1.4l0,0v-0.5l-0.9-0.7v-0.7
					L212.6,216.8z"/>
				<path vector-effect="non-scaling-stroke" class="st4" d="M195.1,191.6l-0.3-0.5l0.7-0.7l1.6,0.5l-0.3-1.4l1.4-0.5l-0.5-0.9
					l0.5-0.7l0.3-0.5h1.2l0.7-0.5l0.9,0.7l1.2-0.9l0.3,0.5l0.7-0.3v-0.5l0.7-0.7l1.2,0.7l0.5-0.5l0.3-1.2l1.2-1.2l-0.3-0.9h0.9
					l1.2-0.7l-0.5-1.2l0.3-0.3l1.2-0.3l0.5,0.3l0.5,0.9h1.2l0.7,0.5l0.5-0.5l0.7,0.5l1.4-0.9l0.3,0.7l0.9,0.7v1.4l1.6,1.8l1.2,0.5
					l-1.2,1.4l-1.2,0.9l-0.5,1.2l-0.7,0.7l0,0l-1.8,0.9l0,0l-4.6,0.5l-2.7,0.3l-2.7,0.3l-4.3,0.5l-0.7-0.3l0.3,0.7l-4.8,0.5l0.5-0.3
					l0.5-0.9L195.1,191.6z"/>
				<path vector-effect="non-scaling-stroke" class="st4" d="M186.2,225.1l0.5-0.3l0.9,0.3l-0.3,0.3L186.2,225.1z M178.1,209.9
					l10.6-0.3l0.5,0.5l-0.3,0.7l0.3,1.4l0.7,0.7l-0.9,0.9h0.7l-1.2,1.4l-0.3,1.4l-0.5,0.3v1.2h-0.5l0.3,0.9l-0.3,0.3l7.1-0.5v0.9
					l0,0v1.2l0,0l1.2,1.6l-1.2,1.2l0.9,0.3l0.5-0.5l0.9,0.5l-0.7,0.9l-0.9,0.3l0.7,1.2h0.7l1.2,1.2l-0.7,0.3l-0.7,0.7l0.5-1.2
					l-0.3-0.3l-1.6-1.2l-0.7-0.3l-0.3,1.2l-0.7,0.5l-0.9-1.2l-1.4,1.4l-0.7-0.5l-1.2-0.3l-0.5-1.2l-0.5,0.3l-0.7-1.2l-0.9,0.3v-0.5
					l-1.2,0.5l0.3,0.5l-0.9,0.5l-1.4-0.3l-2.1-0.7h-1.2l-1.4,0.5l-0.5-0.5l0.9-1.2l-0.3-2.1l0.7-1.4l0.3-0.9l-0.7-1.6l-0.7-0.9
					l0.3-0.5l-0.9-1.2L178.1,209.9z"/>
				<path vector-effect="non-scaling-stroke" class="st4" d="M258.5,145.4v0.7l-0.5-0.3v0.7l-0.9,0.5l-0.3-0.7l-0.3,0.7l0.3,0.7
					h-1.2l-0.3-0.9l-0.3,0.9l-0.3,1.4l-0.3,0.9l-0.5-0.3v0.7l-0.9,0.9l-0.9-0.3l-0.3,1.4v0.9l-0.5,0.3l-0.3,1.2l-1.2-1.2l-1.4-4.6
					l-1.2-3.7l0.7,0.3l0.3-1.4l0.9-2.1l-0.5-1.2l0.5-1.2l-0.3-1.2l1.4-3.9h0.5l0.3,0.7l0.5,0.3l1.6-1.4l1.8,0.9l1.6,4.8l0.3,1.2h1.2
					l0.3,1.4l0.7,0.5l0.5-0.3l0.9,1.4l-0.3,0.7l-1.2,0.9L258.5,145.4z"/>
				<path vector-effect="non-scaling-stroke" class="st4" d="M255.4,161.5l0.7-0.5l0.3,0.5H255.4z M253.3,161.9l0.7-0.7l0.7,0.5
					L253.3,161.9z M244.1,157.7l2.5-0.5l3.7-0.9l0.7-0.9l0.7-0.3l0.3,0.7h0.7l-0.7,0.7l-0.3,1.2l0.5-0.3l0.9,0.7l0.9,1.4l1.4-0.5
					l-0.3-0.9l0.7,1.2l-1.2,0.7l-0.9,0.7V160l-1.2,1.2l-0.5-0.7l-0.3-0.3l-0.5-0.3l-0.5-0.9l-1.4,0.5l0,0l-5.2,1.2l0,0L244.1,157.7z
					"/>
				<path vector-effect="non-scaling-stroke" class="st4" d="M203.2,152.1l0.3-0.7l0.3,0.7H203.2z M201.1,169.5l0.7-0.9l0.9-2.5
					v-1.8l-0.3-0.9l-0.9-1.8l0.3-0.9l-0.5-1.2l0.7-1.4l-0.3-1.4l0.5-0.5v-0.7l0.7-0.3l0.5-1.2l0.3,0.5l-0.3,0.9l0.5,0.5l0.3-1.2
					v-1.4l1.4-0.7l-0.7-0.7l0.5-0.9l0.7-0.3l0.9,0.5h0.7l0.5,0.5l2.1,0.5l0.7,1.2l-0.5,0.3l0.7,1.4v1.6l-0.5,0.5v0.9l-0.7,0.5
					l-0.3,1.2l0.9,0.7l1.2-1.8l0.9-0.5l0.7,0.3l0.5,0.9l0.7,2.4l0.5,0.9v1.8H214l-0.3,1.4l-0.5,0.3l-0.3,1.4l-0.7,1.4l-4.3,0.7v-0.3
					L201.1,169.5L201.1,169.5z M191.3,143l0.3-0.3l1.8-1.2h0.5l-0.7,0.7l-1.4,0.9L191.3,143z M188,149.1l1.2-0.5l0.7-0.7l1.2-0.3
					l1.4-0.9l0.3-0.5l1.8-1.6l1.4-0.3l0.3,0.3l-1.6,1.2l-0.5,0.9l0.3,0.7l0.5-0.7h1.2l1.2,0.9l0.7,0.9l1.2-0.3l1.2,0.5l1.4-1.4
					l2.1-0.3l1.6-0.7v1.4l1.2-0.3l0.3,0.3l0.5-0.5l0.9-0.3l0.3,1.2l-0.5,0.3l0.7,0.3l0.5,0.7l-1.8,0.3l-0.5-0.3l-0.5,0.9l-0.7-0.5
					l-1.6-0.3l-0.5,0.7l-2.1,0.5v0.7l-1.2,0.7l0.5-0.9h-0.7l-0.5,0.9l-0.3-0.7l-1.6,3.4l-0.5-0.3l0.3-0.7h-0.7l0.3-1.4l-1.2-0.5
					v-0.5l-1.4-0.3l-0.5,0.3l0,0H194l0,0l-1.2-0.5l-3.3-0.7l-0.7-0.7l0,0v-0.3l0,0L188,149.1z M208.7,149.4l0.5-0.3l0.3,0.7h-1.2
					L208.7,149.4z"/>
				<path vector-effect="non-scaling-stroke" class="st4" d="M171.6,176.1h3.7l4.6-0.3l5.2-0.5l1.2,0.9l-0.3,1.6l0.5,1.4l1.2,1.2
					l1.2,0.9l0.3,1.4l0.7-0.3l1.2,0.5l-0.3,1.2l-0.7,1.4v0.5l1.6,1.4l0.3-0.3l1.2,0.9l0.5,1.4l-0.3,0.5l0.9,1.2h0.5l0.3,0.9
					l-0.5,0.9l-0.5,0.3h-0.3h-0.3v1.2h-0.7l0.5,0.5l-0.5,0.7l-2.4,0.3l0.9-1.4l-0.3-0.7l0,0v-0.3l-15.3,0.8v-2.4v-9.7h-0.5l-1.2-1.6
					l0.7-1.4l-1.4-0.7l-0.5-1.2l-0.5-0.5L171.6,176.1z"/>
				<path vector-effect="non-scaling-stroke" class="st4" d="M144.8,164.2l17.9,0.9v0.3l1.6,0.9l0.5-0.5h1.6l2.1,0.9l0.3,0.7h0.7
					l0.7,2.4l0.7,0.9v1.2l0.5,0.5l-0.3,0.5l0.5,2.1l-0.3,0.9l0.5,0.7l0.5,1.2l0.5,0.5l0.5,1.2l-22.8-0.7l0.3-4.3l-6.7-0.5
					L144.8,164.2z"/>
				<path vector-effect="non-scaling-stroke" class="st4" d="M247.1,147.4L247.1,147.4v-0.9l0.3-1.2l0.7-0.5l1.2,3.7l1.4,4.6
					l1.2,1.2l-0.3,0.9l-0.7,0.3l-0.7,0.9l-3.7,0.9l-0.5-0.5v-0.9l-0.3-2.4l0.3-0.9l0.3-1.6l-0.3-0.9l0.7-0.3l0.5-0.9L247.1,147.4
					L247.1,147.4z"/>
				<path vector-effect="non-scaling-stroke" class="st4" d="M223.6,164.2l1.4-1.4l1.2-1.4l-0.9-1.2l-0.3-0.9l1.8-0.9l2.4-0.3
					l0.9,0.3l1.8-0.5l1.4-1.4l0.5-0.3l-0.5-1.4l0.5-0.3l-0.9-1.2l0.9-0.9l1.6-2.5l0.9-0.9l5.1-1.4l0.3,1.8l0.5,0.7v1.8l0.5,1.2v0.7
					l0.7,0.3l0.7,3.4v3v0.3l0.7,3.4l0.3,0.3l-0.7,0.7l0.5,0.5l0,0l-0.3,0.9l1.2-0.9l2.5-0.7l0.7-0.9l0.9,0.5L249,165l-2.1,1.4
					l-2.7,1.2l-0.5-0.7l0.3-1.4l-3-0.9l-1.4-0.9l-0.3-0.9l-1.2-0.7l-14.3,2.7L223.6,164.2z"/>
				<path vector-effect="non-scaling-stroke" class="st4" d="M213.5,197.5L213.5,197.5l0.3-0.7l0.7-0.9l0.9-0.3l0.7-0.9l0.9-0.3
					l0.7-1.2h0.7l1.4-1.2h0.7l0.9-1.4v-0.9l4.8-0.7l6.1-1.2l9.2-1.8l-0.3,0.7l0.3,0.9l-0.5,0.5l-2.1,1.4l1.2-0.3l0.7-0.5l0.7,0.3
					l0.3-0.5l0.9,1.2l-1.2,1.8h-2.6l1.8,0.5v0.9l-0.5,0.9l0.9-0.9l0.7,0.3l-0.7,1.4l-2.1,0.7l-1.4,1.6l-0.7,1.4l-0.3,1.6l-0.4-0.1
					l-1.6,0.5l-4.8-3.4l-3.9,0.7v-0.5l-1.2-0.7l-4.3,0.5l-0.9,0.3l0,0l-1.8,0.9l-4.3,0.7v-1.2L213.5,197.5L213.5,197.5z"/>
				<path vector-effect="non-scaling-stroke" class="st4" d="M207.8,169.1l4.3-0.7l1.6,0.7l0.5-0.3l1.4,0.7l1.4-0.9h0.9l1.4-1.4
					l2.4-1.4l0.9,6l-0.5,0.3l0.5,1.2l-0.3,1.2v1.6l-1.2,1.6h-0.7l-0.7,0.7l-0.5,1.8l-0.7-0.7l-0.5,1.2l0.3,0.9L218,182l-0.9,0.3
					l-0.9-0.7l-0.3-0.7l-1.4,0.9l-0.7-0.5l-0.5,0.5l-0.7-0.5h-1.2l-0.5-0.9l-0.5-0.3l-1.2,0.3l-0.5-5.1L207.8,169.1z"/>
				<path vector-effect="non-scaling-stroke" class="st4" d="M87.1,138.7l0.7,0.7h0.5l0.7,1.2l-0.3,1.4l1.4,0.9l1.4-0.3l0.9,0.3
					l0.9,0.7l1.8-0.3l1.2,0.5l0.9-0.3h1.4l1.2,0.3l0.5-0.3l6.1,1.4l0.3,0.9l0.5,0.3l0.3,0.7l-1.6,2.4l-0.5,0.9h-0.5l-0.9,1.4v0.7
					l0.7,0.7l-0.9,1.2l-1.8,7.8l-9.4-2.4l-7.6-2.1l-5.8-1.6l-0.3-0.5l0.3-1.6l0.5-0.9l-0.3-0.9l1.8-2.5L82,148l3-7.6l0.5-2.4
					l0.9,0.5L87.1,138.7z"/>
				<path vector-effect="non-scaling-stroke" class="st4" d="M251.7,160.7l0.5,0.7l-0.7,0.3L251.7,160.7z M250,162.8v-0.5l-0.7-2.5
					l1.4-0.5l0.5,0.9l0.5,0.3h-0.5v1.6L250,162.8z"/>
				<path vector-effect="non-scaling-stroke" class="st4" d="M193.2,195.9l0.5-0.7l-0.5-0.5h0.7v-1.2h0.3h0.3l4.8-0.5l-0.3-0.7
					l0.7,0.3l4.3-0.5l2.7-0.3l2.7-0.3l4.6-0.5l0,0l6.9-0.9v0.9l-0.9,1.4h-0.7l-1.4,1.2h-0.7l-0.3,0.7l-0.9,0.3l-0.7,0.9l-0.9,0.3
					l-0.7,0.9l-0.3,0.7l0,0l-0.7,0.3v1.2l-4.6,0.5l-9.4,0.7l0,0l-7.6,0.5l0.9-0.7l-0.5-1.2l1.2-0.9l-0.5-0.5l0.9-0.7L193.2,195.9z"
					/>
				<path vector-effect="non-scaling-stroke" class="st4" d="M165.2,237.5l0.3-2.1l0.5-1.2l-0.5,2.4L165.2,237.5z M146.1,193.7
					l9.4,0.5l0,0h1.2l-0.5,8.8l1.2,0.9h1.6l0.3,0.9h0.7l1.8,0.7l0.5-0.5l1.6,0.7l0.3,0.7l0.7-0.7l0.9,0.7l0.9-0.5v0.7l0.9-0.9
					l2.1,1.2l0.7-0.7h1.2l0.9-0.5l1.2,0.3l0.3-0.5l1.2,0.9l1.4,0.5l0.5,0.5h1.4v2.4v4.6l0.9,1.2l-0.3,0.5l0.7,0.9l0.7,1.6l-0.3,0.9
					l-0.7,1.4l0.3,2.1l-0.9,1.2l0.5,0.5l-0.9,0.3l-2.5,1.2l0.9-0.7l-0.9,0.3l0.3-1.2l-1.2,0.9l0.5,0.3v0.9l-1.8,1.8l-3.3,1.6
					l-1.8,1.4l-1.8,1.3l0.5-1.2l1.8-1.2h-1.4v0.7l-0.9,0.5l-0.5,0.9l-0.9,0.3l0.5,0.7l-0.7,1.6l-0.3,2.4l0.3,1.4l0.5,0.9v0.7
					l0.7,0.7l-1.6,0.3l-1.2-0.7h-1.8l-0.9-0.7h-0.9l-0.5-0.7l-1.2-0.3l-0.7-2.1l-0.7-0.9V234l-0.5-0.7l-1.2-0.7l-0.7-1.6l-0.5-0.3
					l-0.7-1.8l-0.9-1.4v-0.7l-1.4-2l-0.7-0.3l-0.5-1.2l-2.5-0.3l-0.9-0.5l-0.3,0.5H145l-2.1,3.3l-1-0.3l-1.4-1.2l-0.9-0.3l-0.5-0.3
					l-1.2-0.9l-0.5-1.2v-1.4l-0.5-0.7l-0.5-1.4l-1.4-0.9l-1.8-2.4l-0.9-0.5l-0.5-1.2l-0.5-0.3l-0.3-0.9l13.3,1.2l0.3-4.3l0.5-3.9
					L146.1,193.7L146.1,193.7z"/>
				<path vector-effect="non-scaling-stroke" class="st4" d="M241.1,180.3l1.4-0.5l-0.9,1.6v0.7l-0.5,1.8l-0.5,0.5l-0.3-0.7v-1.8
					l0.5-1.2L241.1,180.3z M214.4,191.3l1.8-0.9l0,0l0.7-0.7l0.5-1.2l1.2-0.9l1.2-1.4v0.3l0,0v0.3l0,0l1.2,0.9l0.7-0.5l0,0l0.3-0.3
					l0,0l0.7,0.3l1.2-0.5l1.2-0.9l0.7-0.3v-1.2l0,0l0.7-1.2l0.7-1.8l0.3-1.2l0.7,0.5l0.7-0.3l0.5-1.8l0.5,0.3l0.3-0.7l1.2-1.4v-1.4
					l2.1,1.2l0.3-0.9l0.9,0.3l-0.3,0.5l1.6,0.5l0.5,0.5l-0.3,0.7l-0.5,0.9l0.5,0.5l0.7-0.5l0.5,0.7h0.9l1.8,0.9v1.2l0.5,1.4
					l-0.5,0.3l0.7,0.9l-0.7,0.7l1.8-0.3l0.7,1.4l-9.2,1.8l-6.1,1.2l-4.8,0.7L214.4,191.3z"/>
				<path vector-effect="non-scaling-stroke" class="st4" d="M91.5,134.8l0.3-0.7l0.3,0.7H91.5z M91.9,130.9l0.5-0.5l0.5,0.5
					l-0.5,0.3v0.9h0.5l-0.3,0.5l-0.5-0.8L91.9,130.9z M91.7,129l0.5-0.3l0.5,0.5L91.7,129z M109.1,132l-2.5,11.2v1.8l-6.1-1.4
					L100,144l-1.2-0.3h-1.4l-0.9,0.3l-1.2-0.5l-1.8,0.3l-0.9-0.7l-0.9-0.3l-1.4,0.3l-1.4-0.9l0.3-1.4l-0.7-1.4H88l-0.7-0.7l-0.9-0.3
					l-0.3-0.7l1.2-1.2l-0.7-0.5l0.3-0.5l0.9-0.3l-0.9-0.7v-1.8l0.3-1.6l-0.5-0.7L87,129l0.5-0.7l1.4,1.4l3.4,1.4l0.3,1.2l-0.7,0.3
					l-0.3,0.7H92l0.9-0.9l-0.3,1.2l-0.7,1.6l-0.5-0.3v0.9l0.7-0.7h0.7v-1.4l1.2-1.4l-0.3-0.9L94,129l-0.7-1.2l0.3-0.3L109.1,132z"/>
				<path vector-effect="non-scaling-stroke" class="st4" d="M183.2,148.5h0.7l2.1-0.9l0.7-0.5l0.5,0.3l-0.5,1.4l0.7-0.5l0.9,0.5
					h0.3l0,0v0.3l0,0l0.7,0.7l3.3,0.7l1.2,0.5l0,0h0.3l0,0l0.5-0.3l1.4,0.3v0.5l1.2,0.5l-0.3,1.4h0.7L197,154l0.5,0.3l-1.2,1.8v0.7
					l0.9-0.5l0.5-0.9l0.7-0.5l0.9-1.8l0.3,0.9l-0.7,1.4l-0.5,1.2v1.6l-0.5,0.5l-0.3,1.2l0.3,0.9l-0.5,2.1l0.5,1.6l0.3,0.5v1.4
					L189,167l-0.3-0.5l-1.2-0.5l-0.5-1.8l0.5-0.5l-0.5-0.5v-0.7l-0.3-1.2l-0.7-0.9l-1.4-0.9l-0.3-0.7l-0.9-0.5l-0.3-0.5h-0.7
					l-0.9-0.7l0.3-0.9v-1.6l0.3-0.7l-0.7-0.5v-0.7l0.7-0.9l1.2-0.7v-2.5L183.2,148.5z"/>
			</g>
		</g>
		<g pointer-events="none">
		</g>
	</g>
	<text transform="matrix(1 0 0 1 28.265 18.9415)" class="st5 st1 st6 st7"> </text>
	<text transform="matrix(1 0 0 1 64.265 18.9415)" class="st5 st1 st6">Jewelry Rental Interest</text>
	<rect x="0.4" y="0.3" class="st0" width="299.5" height="297.5"/>
</g>
</svg>
