<?xml version="1.0" encoding="utf-8"?>
<!-- Generator: Adobe Illustrator 23.0.1, SVG Export Plug-In . SVG Version: 6.00 Build 0)  -->
<svg version="1.1" id="Layer_1" xmlns="http://www.w3.org/2000/svg" xmlns:xlink="http://www.w3.org/1999/xlink" x="0px" y="0px"
	 viewBox="0 0 300 300" style="enable-background:new 0 0 300 300;" xml:space="preserve">
<style type="text/css">
	
		.st0{fill-rule:evenodd;clip-rule:evenodd;fill:#FCD4C7;stroke:#999999;stroke-width:0.25;stroke-linecap:round;stroke-linejoin:round;}
	
		.st1{fill-rule:evenodd;clip-rule:evenodd;fill:#FFE3CA;stroke:#999999;stroke-width:0.25;stroke-linecap:round;stroke-linejoin:round;}
	.st2{font-family:'GoodlifeBrush';}
	.st3{font-size:12px;}
	.st4{fill:none;}
	.st5{opacity:0.6;}
	.st6{fill:#E0B19E;}
</style>
<path class="st0" d="M368.8-35.9l-0.3,0.2l-0.6,0.2l-0.2,0.2l0.2,0l0.9,0.5l0.2,0l0.3-0.1l0.1-0.1l0.1-0.2l0.4-0.2l-0.3-0.3
	L368.8-35.9z M356.3-49.2l0.4-0.2l0.4-0.3l0.5-0.3l0.2-0.2l-0.5,0l-0.2-0.1l-0.5-0.5l-0.6,0l-0.5,0.2l0,0.7l0.3,0.5l0.2,0
	L356.3-49.2z M349.6-54.3l0.4-0.2l0.3-0.4l0.1-0.2l0.1-0.2l0.5-0.1l0.5-0.1l0.3-0.5l-0.3,0l-0.1-0.1l0.1-0.5l-0.1-0.4l0.2,0.1
	l0.2,0.1l0.2,0.3l0.2,0.1l0.1-0.3l-0.1-0.3l-0.1-0.4l-0.2-0.2l-0.7-0.1l-0.3,0.1l-0.3,0.1l0-0.2l0.5-0.2l0.3-0.2l0-0.3l-0.6-0.5
	l-0.4-0.6l-0.1-0.6l-0.4-0.4l-0.5,0l-0.6-0.1l-0.4,0l-1,0.3l-0.6,0.1l-0.3,0l-0.3,0l-0.4,0.6l-0.3,0.2l-0.3,0l-0.1-0.2l-0.7,0.4
	l-0.1,0.1L344-59l0,0.2l-0.3,0.3l-0.2,0.3l-0.3,0.1l-0.4,0.1l-0.2,0.1l-0.3,0l-0.3,0l-0.2,0.1l0,0.1l0.1,0.1l0.3,0.1l0.3,0.1l0,0.1
	l-0.2,0.1l-1.1,0.3l-0.3,0.2l-0.1,0.1l0.1,0.2l0.8,0.7l0.1,0.1l0.1,0.4l0.7,0.2l0.3,0.2l0.3,0.1l0.6,0l0.2,0.1l0.1-0.1l0.1-0.1
	l0.5-0.3l0.2-0.1l-0.1-0.2l-0.1-0.1l0.3-0.3l0.4-0.3l0.2,0l0.3,0.2l0.2,0.3l0,0.2l0,0.1l0.2,0.3l0.1,0.1l0.4,0.1l0.1,0.1l-0.1,0.4
	l0,0.1l0.4,0l0.5,0l0.2,0l0.2-0.1l0.3-0.1l0.4,0l0.4,0.2L349.6-54.3z M353.9-62l0.5,0l0.1-0.3l0-0.4l-0.2-0.5l-0.1-0.1l-0.3-0.1
	l-0.3,0l-0.1,0.1l-0.1,0.1l-0.1,0.3l0.2,0.8l0.2,0.1L353.9-62z M349.3-62.9l0.2,0l0.7-0.3l0.2-0.2l0-0.1l-0.1-0.4l-0.1-0.7l-0.4,0.1
	l-0.4,0.3l-0.1-0.1l-0.1,0l-0.2,0.1l-0.2,0.1l-0.1,0.1l0,0.2l-0.2,0.3l0,0.1l0.2,0l0.6-0.4l0.1,0l0.1,0l-0.1,0.2l0.1,0.3L349.3-62.9
	L349.3-62.9z M350.5-64.5l0,0.3l0,0.1l0.1,0.1l0.2,0l0.1-0.1l0.9-1.1l0.4-0.6l-0.2,0l-0.2,0.1l-0.6,0.3l-0.2,0.2l0,0.1l0.2,0.1
	l-0.6,0.3L350.5-64.5z M351.9-68l-0.5-0.1l-0.3-0.4l-0.3-0.2l-0.1,0l-0.2,0l-0.5,0.2l-0.1,0.1l-0.1,0.2l0,0.1l0.7,0.3l-0.3,0.7
	l-0.5,0.1l-0.1,0.1l0,0.1l0.6,0l1.7-0.3l0.2-0.8L351.9-68z M349.3-68.7L349.3-68.7l-0.4,0l-0.5,0.4l0,0.1l0.2,0l0.4-0.2L349.3-68.7z
	 M345.1-70.3l0.4-0.1l0.1-0.1l0-0.1l-0.2-0.1l-0.3,0.1l-0.1,0.2l0,0.1L345.1-70.3z M350-70.3l0.2,0l0.1-0.1l0.1-0.1l0-0.1l-0.1-0.1
	l-0.2-0.1l-0.5,0.2l0.2,0.3L350-70.3z M345.8-72.7l0,0.5l-0.1,0.4l0,0.2l0.1,0.3l0.1,0.1l0.2,0l0.2,0l0-0.1l0.1-1.3l-0.1-0.1
	L345.8-72.7z M351.6-70.8l0.2,0l0.2-0.1l0.6-0.5l0.5-0.3l0.1-0.2V-72l-0.1-0.1l-0.7,0l-0.8-0.1l-0.1-0.1l-0.2-0.1l0-0.2l-0.1-0.3
	l0.1-0.3l0-0.2l0-0.4l-0.3-0.4l-0.2-0.1l-0.2,0l-0.1,0.3l-1,0.2l0,0.1l0.1,0.2l0,0.1l-0.1,0.1l-0.2,0l-0.2-0.1l-0.2,0.2l0,0.1
	l0.1,0.2l0.2,0.3l1,0.2l0.3,0.5l0.1,0.2l0.2,0.1l0.4,0l0.6-0.1l0,0.8L351.6-70.8z M346.9-73.5l0.4-0.5l-0.4-0.3l-0.3,0.1l-0.2,0
	l-0.3,0.1l-0.2-0.1l-0.1,0l-0.1,0.1l-0.1,0.1l0,0.1l0.8,0.4L346.9-73.5z M348-75.3l-0.6,0.3l0.3,0.3l0.1,0.1l0.1,0l0.2-0.1l0.3-0.3
	l0.2,0l0.5-0.5l0.5-0.2l0.7-0.4l0.1-0.1l0-0.2l-0.1-0.1l-0.5,0l0.6-0.3l0.2-0.2l0.2,0l0.6-0.9l0.1-0.4l-0.1-0.3l-0.1-0.1l-0.3,0.1
	l-1.1,0.6l-0.9,0.3l-0.2,0.1l-0.1,0.1l0.2,0.5l0,0l-0.4,0l-0.3,0.1l-0.2-0.2l-0.3-0.1l-0.1,0l-0.1,0.1l-0.2,0.1l-0.1,0.2l0,0.2
	l0,0.1l0.2,0l0.1,0.1l0.1,0l-0.3,0.2l0,0.1l0.2,0.2l0.6,0.2l0,0.1l-0.4,0.2L348-75.3z M382.9-46.6l-0.2-0.4l-1.2-0.8L381-48
	l-0.9-0.2l-0.5,0l-0.5-0.1l-0.5,0l-0.6,0.1l-0.2,0.2l-0.4,0.4l-0.2,0.2l-0.2,0.1l-0.2,0l-1-0.5l0.4-0.4l0.4-0.3l0.4-0.3l0.3-0.4
	l-0.3-1l-0.6-0.7l-1.8-1.2l-0.8,0l-0.8-0.2l0.4,0l0.5,0.1l0.8-0.1l0.4,0.3l0.4,0.2l0.2,0l0.2,0L376-52l0.2,0.1l-0.4-0.7l-0.5-0.7
	l-0.2-0.4l-0.1-0.4l0.2-0.3l0.3-0.2l-0.6-0.4l-0.6-0.5l-0.6-0.6l-0.6-0.6l-0.4-0.2l-1.7-0.6l-0.3-0.3l-0.2-0.4l-0.5-1.4l-0.3-1.3
	l-0.3-1.3l-0.2-0.4L369-63l-0.4-0.3l-0.7-0.8l-0.5-0.5l-1.9-0.7l-1,0l-0.8,0.4l-0.1,0l-2.4-0.4l-0.4-0.1l-0.3-0.3l0.4,0.2l0.9,0.2
	l0.5,0l0.4-0.1l0.4-0.2l0.9-0.6l0.9,0l0.4-0.3l0.1-0.4l-1-0.4l-0.9,0l-0.5,0.1l-0.5,0l0.4-0.1l0.4-0.2l0.3-0.1l1.2-0.2l0.4-0.2
	l0.4-0.3l0.4-0.4l0.4-0.5l0.8-0.7l0.8-1.3l0.1-0.3l0.1-0.3l0.1-0.3l0.4-0.5l0.5-0.4l0.3-0.3l0-0.1l-0.3-0.6l-0.4-0.4l-0.5-0.1
	l-0.7,0.1l-2.6-0.1l-0.4,0l-0.4,0.1l-0.2,0l-0.9-0.2l-0.5,0l-1,0.3l-1,0.3l-0.5,0.1l-0.6,0l0.3-0.5l0.9-0.6l0.1-0.2l-0.2-0.1
	l-0.5-0.1l0.1-0.3l0.2-0.2l1-0.5l1.6-1l0.9-0.4l0.3-0.3l0.1-0.2l0.1-0.1l0-0.4l0.3-0.4l0.1-0.1l0-0.1l-0.9-0.1l-0.8,0.2l-0.9,0.1
	l-0.8,0.2l-1.4,0.1l-1.1,0.2l-0.2-0.3l-0.2,0l-0.6,0.3l-0.2,0l-0.2-0.2l-0.2-0.1l-0.5-0.1l-0.2,0l-0.2,0.1l-0.2,0.3l-0.1,0.2
	l-0.1,0.4l-0.1,0.2l0,0.2l0.2,0.3l0.1,0.2l-0.2,0.1l-0.9,0l-0.3,0.1l-0.1,0.1l0,0.2l0,0.2l-0.3,0.4l0.1,0.1l0.8,0.7l0.1,0.1
	l-0.5-0.1l-0.1,0l-0.1,0.1l-1.1,0l-0.3,0.3l-0.2,0.2l-0.3,0.6l0,0.1l0.1,0.2l0.1,0.2l0.4,0.1l-0.5,0.1l-0.3,0.1l-0.2,0.2l-0.1,0.2
	l0.1,0.3l0.6,0.2l0.1,0.2l0.3,0.3l-0.2,0.7l-0.7,0.8l-0.5,0.2l-0.1,0.1l0.5,0.3l-0.7,0.4l-0.7,0.1l-0.4,0.3l0,0.1l0.3,0.1l0.4,0
	l0.1,0.5l0.3,0.2l0.4,0.1l0.5,0l0.4-0.2l1.6-1l0.1,0l-0.3,0.4l-0.3,0.4l-0.1,0.3l-0.3,0.2l-0.2,0.5l-0.3,0.4l-0.3,0.5l-0.2,0.6
	l-0.3,0.4l-0.2,1.3l0.1,0.1l0.1,0l0.3-0.1l0,0l-0.5,0.4l-0.2,0.3L352-63l-0.4,1l-0.1,0.3l0,0.2l0.1,0.2l0.4,0l0.1,0l0.1-0.1l0.2-0.2
	l1-2.1l0.1-0.3l-0.1-0.7l0-0.1l0-0.1l0.1-0.1l0.5-0.4l0.9-0.6l0.4-0.2l-0.8,0.6l-0.2,0.3l-0.1,0.4l0,0.4l0,0.2l0.1,0l0.1-0.2l0.3,0
	l0.1-0.1l0.1-0.2l0.5-0.1l0.2-0.1l0.4-0.5l0.2-0.2l0.1,0l-0.2,0.4l0,0.2l0.7,0.5l0.4,0.2l-1,0l-0.1,0.1l-0.2,0.3l-0.1,0.5l-0.1,0.5
	l0.7,0.6l0.1,0.2l0,0.3l-0.2,0.4l-0.3,0.3l-0.9,1.2l-0.5,0.9l-0.2-0.1l-0.3,0.1l0,0.4l0.1,0.3l0.4,0.5l0.5,0.4l0.1-0.5l0.2-0.3
	l0.2-0.1l0.7,0.3l0.5,0.2l0.5-0.2l0.5-0.3l0.2-0.1l0.2,0.1l0.1,0.2l0.2,0.1l0.3,0l0.5,0l0.3-0.1l0.3-0.2l0.3-0.2l0.3,0l0.3-0.1
	l0.5-0.3l0.5-0.1l1.5,0l0.2,0l-1,0.3l-0.9,0.7l-0.7,1.2l0,0.5l0.6,0.9l0.3,0.4l0.6,0.6l0.2,0l0.3-0.2l0.3-0.1l0.6,0l0.1,0.2
	l-0.1,0.5l-0.2,0.5l-0.6,0.3l-0.1,0.3l0,0.4l0.2,0.1l0.3,0.1l-0.3,0.4l-0.3,0.4l-0.1,0.4l0.4,0.7l0.2,0.2l0.3,0.1l0.2,0l0.2,0.1
	l-0.5,0.1l-0.2-0.1l-0.6-0.7l-0.5,0.2l0.2,0.7l-1-0.5l-0.4,0l-0.5,0.2l-0.5,0.1l-0.5-0.1l-0.2,0l-1.4,0.5l-0.7,0.4l-0.3,0.2
	l-0.2,0.3l-0.2,0.2l-0.6,0.3l-0.5,0.4l-0.2,0.3l0,0.2l0.4,0l0.5-0.3l0.5-0.2l0.6-0.1l0.6,0l-0.1,0.3l0,0.3l0.2,0.3l0.1,0.3l-0.2,0.3
	l-0.1,0.3l0.1,0.3l0.3,0.1l-0.3,0.4l-0.3,0.5l-0.3,0.4l-0.3,0.3l-0.8,0.4l-0.8,0.3l-1.5,0.6l-1,0.3l-0.4,0.3l-0.4,0.4l0.3,0.1
	l0.1,0.3l0,0.4l0.2,0.2l0.9,0.4l0.9-0.3l0.5-0.3l0.3-0.1l0.6,0l0.2,0.2L356-41l0.8,0.1l-0.4,0.2l-0.3,0.3l0.5,0l0.5-0.1l0.3-0.1
	l0.2,0l0.5,0.3l0.8,0.7l1.2,0.1l0.2,0l0.8-0.5l0.5-0.2l1.1-0.2l0.4-0.2l0.6-0.4l0.5-0.3l-0.8,0.7l-0.5,0.4l-0.5,0.4l-0.4,0.4
	l-0.8,0.9l-0.4,0.2l-0.5,0.1l-0.5,0l-1-0.2l-1,0l-1.4,0.2l-0.1,0.1l-0.6,0.9l-1,0.3l-0.1,0.4l-0.1,0.5l-0.1,0.3l-1.3,1.1l-0.2,0.3
	l-0.3,0.1l-0.2,0.2l-0.2,0.2l-0.5,0.4l-1,0.7l-1.1,0.3l-0.4,0.4l0,0.3l0.1,0.2l0.3-0.2l0.5-0.1l0.5,0.1l0.4,0.4l0.5-0.1l0.4-0.5
	l0.2-0.1l0.9-0.5l0.4-0.2l1-0.3l0.6-0.1l0.4,0l0.4-0.1l0.1-0.1l0.1,0l0.3,0.2l0.9,0.4l0.5,0.3l0.5-0.1l0.5-0.5l0.3-0.6l0.2-0.7
	l0.4-0.5l1.9-0.5l0.4,0l0.5,0.1l0.5,0.2l0.5,0.3l0.5,0.1l0.2-0.2l0.2,0l1.4,0.2l0.2,0l0.2-0.1l-0.2-0.3l-0.1-0.3l0.7,0.1l0.8-0.1
	l0.4,0l0.4-0.1l0.8-0.4l-0.3-0.4l0.6,0.2l0.7,0.1l0.6,0.2l0.6,0.2l0.4,0l1.5-0.3l1.1,0l1.8,0.3l0.4-0.1l0.5-0.2l0.5-0.2l0.7-0.2
	l0.4-0.3l0.8,0l0.1-0.3l0.3-0.4l1.5-0.6l0.2-0.1l0.1-0.7l0-0.3l-0.2-0.1l-0.5,0l-1.1,0.1l-0.6,0l-0.9-0.2l-0.2-0.1l-0.2-0.4
	l-0.3-0.1l-0.5,0.1l0.4-0.2l0.4-0.1l0.5,0l0.5-0.1l0.4-0.2l0.2-0.4l-0.1-0.2l-0.6-0.2l0.9-0.4l0.6,0.1l0.4-0.1l0.4-0.2l0-0.3
	l-0.2-0.3l0-0.1l0.2,0l0.2,0.1l0.4-0.2l0.7-0.5l0.2-0.2l0.1-0.2l0.2-0.7l0.3-0.5l0.2-0.6l0-0.6L382.9-46.6z M365.3-80.1l0.1,0.1l0,0
	l0.1-0.3l0.1-0.2l-0.2,0l-0.4,0.1L365.3-80.1z M364.1-80.3l0.2,0l0.2-0.1l0,0l-0.2-0.1l0-0.1l0-0.2l-0.2-0.3l-0.3-0.1l-0.2,0.1
	l0,0.2l0.1,0.2L364.1-80.3z M363.9-81.3l0.1,0l0.3-0.2l0,0.1l0,0.2l0,0.1l0.1,0.1l0.1,0l0.7-0.1l0.5,0.3l0.2,0l0.1-0.1l0.2-0.3
	l-0.2-0.1l-0.3,0l-0.4-0.1l-0.3,0l0.1-0.1l0.2-0.2l0-0.1l-0.1-0.1l-0.4-0.2l-0.4,0l-0.3,0.1l-0.2,0.4l-0.1,0.3L363.9-81.3
	L363.9-81.3z M367.9-82.9l0.1-0.1l-0.5,0l-0.3,0.1l-0.3,0.3l0.5,0L367.9-82.9z M365.6-82.9l0.4,0.1l0,0.3l0.1,0.1l0.4-0.1l0.1-0.2
	l0,0l-0.3-0.1l-0.2-0.3l-0.4-0.3l-0.3,0.1l0,0.1l0.1,0.2L365.6-82.9z M371.6-88.1l0.1,0l0.4,0l0.1,0l0,0.1l0.1,0.1l0.3-0.1l0.4,0
	l0.1,0.2l0,0.2l-0.1,0.4l-0.3,0.7l0.2,0.2l0.1,0l0.2-0.5l0.2-0.2l0.1-0.6l0.1-0.1l0.1-0.3l0.1-0.2l0.4-0.9l0.1-0.3l-0.3,0.1l-0.2,0
	l-0.3-0.4l-0.2,0.1l-0.1-0.4l0.1-0.4l-0.3,0l-0.2,0.1l-0.4,0.4l-0.2,0.1l-0.1,0.1l0.1,0.1l0.4,0.1l0.2,0.7l-0.5,0.2l-0.3,0l-0.4,0.1
	l0,0.1L371.6-88.1z M374.2-89.6L374.2-89.6l0.1-0.4l0-0.3l0,0l0.2,0l0-0.1l0-0.2l-0.4,0l-0.4,0.6l0.4,0.5L374.2-89.6z M374.9-90.5
	l0.3,0l0-0.2l0.3-0.5l0-0.1l-0.1-0.1l-0.1,0l-0.2,0.1l-0.1-0.1l-0.1,0l-0.1,0.1l-0.1,0.3L374.9-90.5L374.9-90.5z"/>
<path class="st0" d="M503.5,283.4l-0.2,0.3l0,0.1l0.2,0.2l-0.4,0l-0.2-0.2l0.1-0.2l-0.1-0.2l-0.1-0.8l-0.2-0.3l-0.3-0.1l0.1,0.3
	l-0.1,0.3l-0.2,0.2l-0.2,0.1l0.1,0.4l0.5,0.6l0.3,0.2l0.5-0.1l0.2,0.2l0,0.1l0.1,0.1l0.2,0.1l0-0.2l0-0.7L503.5,283.4z M474.3,232.1
	l-0.8-0.4l-0.2-0.1l-0.1-0.3l-0.1,0.3l0.1,0.3l1,0.4l0.2,0.2l0.2,0.3l0.4,0.4h0.1l0.3-0.2l-0.2-0.1L474.3,232.1z M473.4,231.2l0-0.1
	l-0.1-0.4l0-0.4l-0.2,0.3l0,0.5L473.4,231.2L473.4,231.2z M570.6,252.4l-0.5-0.8l-0.5-0.8l-0.5-0.8l-0.3-0.6l-0.4-0.7l-0.3,0.5
	l-0.1,0l-0.4-0.1l-0.1,0l-0.4-0.1l-0.6-0.1l-0.8-0.1l-0.9-0.1l-1-0.1l-1.1-0.2l-1.1-0.2l-1.1-0.2l-1.1-0.2l-1-0.1l-0.9-0.1l-0.8-0.1
	l-0.6-0.1l-0.4-0.1l-0.1,0l-0.4-0.1l-0.3-0.3l-0.3-0.4l-0.3-0.4l-0.3-0.4l-0.6-0.8l-0.3-0.4l-0.3-0.4l-0.3-0.4l-0.3-0.4l-0.3-0.4
	l-0.3-0.4l-0.3-0.4l-0.3-0.4l-0.3-0.4l-0.3-0.4l-0.3-0.4l-0.2-0.3l-0.1-0.3l-0.1-0.8l0-0.2l-0.2,0l-0.3-0.1l-0.4-0.1l-0.4-0.1
	l0.2-0.8l0.2-0.3l-0.1-0.2l-0.4,0l-0.4-0.3l-0.4,0.1l-0.4,0.1l-0.4,0l-0.3-0.1l-0.2-0.1l-0.4-0.5l-0.3-0.6l-0.4-0.5l-0.3-0.6
	l-0.6-0.7l-0.3-1.3l-0.3-0.7l-0.9-0.8l-0.2-0.3l-0.3-0.8l-0.3-0.5l-0.3-0.7l-0.3-0.9l0.1-0.1l0.2,0l0.2,0.1l0.1,0l0.2-1.2l-0.2-0.6
	l-0.4-0.3l-0.5-0.4l-0.1-0.5l-0.1-0.4l0.1-0.1l0.3,0.1l0.2,0.1l0.1,0l-0.9-1l-1.4-0.7l-1-1.1l-0.7-0.2l-0.7-0.8l-0.6-0.7l0.3-0.3
	l-0.4-0.2l-0.4-0.1l-0.9-0.5l-0.6-0.6l0-0.2l0.1-0.2l-0.2-0.6l-0.2-0.4l-0.8-1l-0.6-1.3l-0.2-0.6l-0.3-0.6l-0.9,0l-1.1,0l-0.9,0
	l-1,0l-0.5-0.6l-0.2-0.6l-0.2-0.6l-0.5-0.9l-1.5-0.2l-0.8-0.1l-1.3-0.2l-1-0.1l-0.9,0.2l-2-0.2l-2.3-0.2l-2.3-0.2l-1.7-0.2l-0.1-0.1
	l-1.8-1.4l-1.4-1.1l-1.7-1.3l-1.8-1.4l-1.8-1.4l-1.3-1l-1.6-1.3l-1.5-1.2l-1.1-0.9l-1.4-0.8l-1.1-0.6l-1.6-0.9l-1.3-0.7L492,196
	l-1.7-1l-0.6-0.3l-1.7-0.3l-1.6-0.3l-1.7-0.3l-1.1-0.2l-0.7,0.7l-0.2,0.1l-0.9,0.3l-1.9,0.6l-1.3,0.4l-1.6,0.5l-1.4,0.4l-1.3,0.4
	l-1.2,0.4l0.8,0.8l1.2,1.2l0.8,0.8l1,1l0.9,0.9l0.9,1l-0.6,0.3l-0.9,0.6l-0.1,0.1l-0.1,0.1l-0.3,1l-0.3,0.8l-0.1,0.1l-1.3,0.3
	l-1.3,0.3l-0.8,0.2l-0.2,0.2l-0.5,1l-0.5,1l-0.9,0.8l-1,0.9l-0.3,0.1l-0.8-0.1l-1.3-0.2l-1.3-0.2l-0.9-0.2l-1.1-0.2l-0.5,3.7l0,1.2
	l-0.4,1.4l-0.3,0.7l0.1,0.5l0.5-0.4l0.5,0.1l1.3,0.1l0.5,0.3l1.3,1.8l0.9,1.8l1,1l0.5,1.1l1,1.1l0.3,0.7l0.8,1l1.5,2.9l0.8,0.4
	l0.2,0.8l0.3,0.9l0.5,0.3l0.3,0.3l1.3,2.1l0.4,0.8l0.1,0.5l0.1,0.7l-0.2,0.5l-0.2,0.3l0.9,1.2l0.5,0.9l0.6,1l0.5,0.1l0.4,0l0.6,0.5
	l0.5,0l0.3,0.4l0.6,0.4l1,0.9l0.9,1.2l0.4,0.9l0.9,1.5l0.3,0.7l0.2,0.9l0.2,0.3l0.6,0.6l-0.3,0l0.3,0.5l0.4,0.2l0,0.4l0.3,0.6
	l0.2,1.2l-0.1,0.6l-0.2,0.5l0,1l-0.1,0.9l0.2,0.6l0.3,0.7l0.3,0.9l0,0.5l-0.3,0.7l1,2l1.2,1.4l0.7,1.3l0.6,0.7l0.8,0.6l1,0.2
	l2.1,1.6l0.7,1l0.7,0.4l0.1,0.2l0.1,0.4l0.3,0.5l0.3,0.4l1.1,2.4l0.2,0.5l0.3,0.7l0.2,0.6l0.1,0.5l1.1,1.3l0.4,1.2l0.8,1.5l0.5,0.7
	l1.6,1.3l1.3,1.4l0.2,1l0.3,0.8l0.5,0.4l0.4,0.5l0.1,0.5l0.5,0.4l0.3,0.4l0.2,0.5l0,0.5l0.3,0.7l0.1,0.5l0.9-0.8l0.2-0.2l0.1-0.2
	l0.2-0.5l0.3-0.1l0.1-0.5l0-0.2l-0.2-0.2l-0.2-0.6l0-0.7l0-0.3l0.1-0.5l0.3-0.2l0.1-0.2l-0.3-0.3l0-0.2l0.5-0.6l0.2-0.2l0.4-0.2
	l0.3,0l0.3,0.1l0.3,0.2l0.3,0.3l0.3,0.3l0.5,0.1l0.3,0l0.3,0.1l0.2-0.1l0.2-0.2l0.4,0l0.3-0.2l1-0.1l1,0.1l1-0.2l1,0l1,0l0.2,0
	l0.2,0.1l0.9,0.5l0.7,0.1l1.3,0.1l1.4,0.1l1.2,0.1l1-0.1l0.9-0.1l0.2,0l0.3,0.3l0.6,0.8l0.5,0.7l0.9,0l0.5-0.3l0.6-0.4l0.4-0.3
	l0.4-1.2l0.2-0.8l0.6-0.9l0.5-0.7l0.7-1l0.4-0.5l0.7-1.1l0.7-0.4l1.4-0.8l1.3-0.8l0.9-0.5l0.8-0.2l1.3-0.2l1.5-0.2l1.5-0.2l1.6-0.2
	l1.8-0.3l1.2-0.2l1.6-0.2l1.3-0.2l1.2-0.2l1.2-0.2l0.7-0.3l0.9-0.3l0.9-0.3l0.9-0.3l0.9-0.3l0.9-0.3l0.9-0.3l0.9-0.3l0.9-0.3
	l0.9-0.3l0.9-0.3l0.9-0.3l0.9-0.3l0.9-0.3l0.9-0.3l0.9-0.3l0.9-0.3l0.5-0.2l0.2-0.8l0.1-0.6l0.1-0.6l0.1-0.6l0.1-0.6l0.1-0.6
	l0.1-0.6l0.1-0.6l0.1-0.6l0.1-0.6l0.1-0.6l0.1-0.6l0.3-1.3l0.1-0.6l0.1-0.6l0.1-0.6l0.1-0.6L570.6,252.4z"/>
<polygon class="st0" points="685.5,131.3 685.4,128.4 685.3,125.5 685.3,122.5 685.3,121.2 685.2,119.9 685.2,118.6 685.2,117.3 
	685.1,116 685.1,114.6 685.1,113.3 685,112 685,110.7 685,109.4 684.9,108.1 684.9,106.7 684.9,105.4 684.8,104.1 684.8,102.8 
	684.8,101.5 684.7,100.1 684.7,98.8 684.7,97.5 684.6,96.2 684.6,94.9 684.5,93.6 684.5,92.2 684.5,90.9 684.4,89.6 684.4,88.3 
	684.3,87 684.3,85.6 684.2,84.3 684.2,83 684.1,81.7 684.1,80.4 684,80.1 683.7,79.2 683.4,78.1 683.1,76.7 683.1,76.3 682.6,74.8 
	682.5,74.4 682.6,74.1 683.3,72.9 683.5,72.3 683.7,71.6 683.7,71.1 683.5,70.2 683.2,69.4 683.1,68.6 683,67.8 683.3,67.3 
	683.8,66.8 683.9,66.4 684.2,66.1 684.4,65.9 684.2,65.6 683.7,64.6 683.3,64.2 683,64 682,63.8 681,63.9 679.2,63.9 678.8,63.7 
	678.1,63.2 677.6,63 675,62.7 674.1,62 674.1,61.6 674.2,61.3 674,60.3 673.1,59.9 672.3,59.6 671.2,59.3 670.2,58.8 669.5,58.5 
	667.8,58.6 667.2,58.4 666.8,58.4 665.7,59.2 665.2,59.4 664,59.4 661.8,60.5 660.6,61.4 659.4,62.6 659,63.3 658.7,63.9 658.5,65 
	658.7,66.5 659,67.4 659.5,68 659.7,68.6 659.7,69.3 659.6,70 659.1,70.9 657.7,72.7 657.1,73.2 655.6,73.9 654.8,74 653.8,73.9 
	652.5,73.2 650.1,71.1 648.9,70.6 648.3,70.2 645.9,69.3 643,68.5 641.4,68.4 639.8,68.2 638.3,67.7 637.7,67.3 637.1,66.7 
	636.6,65.9 636.2,64.9 635.9,64.1 635.9,63 635.4,62.1 635,61.6 631.7,60.9 631.3,60.7 630.3,59.9 629.9,59.8 628.4,59.3 
	627.4,59.2 626.9,59.1 625.6,58.6 624.9,58.7 623,59.2 621.4,59.1 620.7,58.9 618.4,57.5 617.6,57.4 616.9,57 616.9,57.2 
	616.7,58.3 616.6,58.7 616.6,59.3 616.6,60.2 617,60.9 617,61.2 616.9,61.5 616.2,61.9 615.2,62.4 614.4,62.9 613.5,63.4 
	613.3,63.8 612.8,64.1 612.5,64.3 612.4,64.6 612.1,65.1 611.8,65.5 611,65.6 610.8,65.8 610.4,66.3 610.2,66.6 610,67.1 
	610.3,68.3 610.6,69.6 610.7,70.1 610.7,70.5 610.5,71 610,71.7 609.7,72.2 609.1,73.1 608.9,73.3 608.5,73.6 607.6,74 607,74.3 
	606.5,74.6 606,74.9 606.4,75.6 607.2,76.8 607.6,77.7 607.8,78.1 608.1,79.3 608.4,80.4 608.5,80.8 608.6,81.6 608.5,84 
	608.7,87.1 609,88.6 608.5,89.9 608.1,91.2 608.1,91.9 608.3,92.9 608.6,93.7 608.8,94.1 608.8,95.3 608.7,95.8 607.8,96.5 
	606.8,97.1 606.5,97.6 606.5,98.2 606.6,98.7 607.2,99.7 608.3,101.3 609.4,103 609.4,103.4 609.5,104.6 609.9,106.1 610.4,106.8 
	610.6,107.3 611,107.7 611.3,107.9 611.6,108 612.8,107.5 614.9,108.2 617,108.9 617.1,109.1 617.5,110 618.3,111.4 618.8,112.6 
	619.3,113.6 621.9,114.3 624.4,114.9 626.9,115.6 627.5,115.9 628.9,117.2 630.6,118.9 630.7,118.9 630.8,118.9 632.4,117.9 
	634.5,116.7 634.5,116.7 636.4,115.7 637.8,115 639.6,114 641.3,115 643.7,116.4 646.2,117.8 648.6,119.2 651,120.5 653.5,121.9 
	655.9,123.3 658.4,124.7 660.8,126.1 663.3,127.5 665.7,128.9 668.2,130.3 670.6,131.6 673.1,133 675.6,134.4 678,135.8 
	680.5,137.2 680.5,136.5 680.5,135.7 680.5,135 680.4,134.3 681.7,134.3 683,134.3 684.2,134.3 685.5,134.3 685.5,134.3 
	685.5,134.2 685.5,134.2 685.5,134.2 "/>
<path class="st1" d="M663.9,19.3l-0.4-0.1l-0.1,0.1l0,0.3l0.3,0.2l0.2-0.1l0-0.1L663.9,19.3z M680.6,10.5l-0.8,0.4l-0.3-0.1
	l-0.3,0.1l-0.2,0.3l-0.3,0.1l-0.7-0.1l-0.7,0l-0.3,0l-0.3,0.1l-0.5,0.4l-0.6,0.2l-0.4,0l-0.6,0.2l-1.1-0.1l-0.5,0.1l-0.7,0.3l-0.3,0
	l-0.3-0.1l-0.9-0.6l-0.3,0l-0.2-0.1l-0.2-0.3l-0.3-0.1l-0.6,0l-0.5,0.4l0,0.3l-0.4,0.3l-0.3,0l-0.3-0.2l-0.6-0.7l-0.2,0.2l-0.2,0.2
	l-0.3,0.1l-0.3,0.2l-0.3,0.7l-0.2,0.7l0.1,0.3l0.4,0.6l0.6,0.4l0.3,0.1l0.3,0l0.5,0l0.3,0l0.6,0.4l0.6,0.2l0.2,0.2l0.2,0.2l0.5,0.4
	l1.1,0.6l1,0.7l0.5,0.2l0.6,0l0.6,0l0.6,0.3l0.5,0.4l0.7,1l0.3,0.1l0.3,0.1l0.8,0.3l0.6-0.1l0.5,0.2l0.5,0l0-0.3l-0.1-0.3l0.1-0.3
	l0.1-0.3l0.2-0.3l0.5-0.5l0-0.3l0-0.2l-0.3-0.2l-0.3-0.4l0.3-0.2l-0.2-0.2l-0.2-0.1l-0.1-0.2l-0.1-0.2l0-0.5l0.1-0.4l0.2-0.3
	l0.1-0.4l0.1-0.4l0.1-0.4l1.1-1.7l0.2-0.3L681,11l0.3-0.3l-0.3-0.2L680.6,10.5z M646.3,5.6l0,0.1l0,0.4l0.3,0.4l0.3-0.6l-0.2-0.1
	L646.3,5.6z M672.9-3.2l0.1-0.1l0-0.1l-0.4-0.1l-0.1,0.2l0.1,0.1l0.1,0.1L672.9-3.2z M646.1-5.1l0.2-0.1l0.1-0.2l-0.1-0.1L646-5.4
	L645.8-5l-0.1,0.2l0.2,0L646.1-5.1z M652.7-3.8l-0.2-0.4l-0.3-0.2l-0.1-0.1l0.2-0.3l0.1-0.1l0-0.1L652.2-5L652-5.2l-0.2-0.3
	l-0.2-0.3L651.1-6l-0.3,0l-0.3-0.3l-0.2,0.1l-0.1,0.3L650-5.7l-0.5,0.2l-0.8,0.9L648-4.2L647.4-4l-0.5,0.1L646.4-4L646.2-4l-0.3-0.3
	l-0.1,0l-0.1,0.2l-0.1,0.6l0,0.7l0.2,0.3l0.3,0.3l0.3,0.3l0.1,0.3l0.1,0.5l0.3,0.3l0,0.9l-0.1,0.3l-0.2,0.2l0-0.1l0,0.4l0.4,0.1
	l0.2,0.3l0,0.4l0,0.2l-0.1,0.1l-0.2-0.2l-0.1,0.2l0,0.4L646.7,3l-0.1,0.2l-0.1,0.2l0,1.1l0,0.5l0.3,0.6l0.3,0.5l0.2,0.4l0.3,0.2
	l0.3,0l0.4,0.1l0.4,0l0.4-0.3l0.3-0.5l0.2-1.2l0.2,0.2l0.2,0.1l0.3-0.1l0.3,0l0.6,0.3l0.5,0.2l0.4-0.2l0.1-0.5l0.2-0.6l0.3-3.3
	l0.1-0.1l0-0.4L652.6,0l-0.1-0.6l0.5-0.8l0.1-0.2l0.1-0.3l-0.1-0.3L652.7-3.8z M656.3-15.2l-0.2-0.2l-0.2,0.2l-0.3,0l-0.2,0.1
	l-0.6,0l-0.1,0.1l0.1,0.2l0.4,0l0.6-0.1l0.4,0.3l0-0.3l0.1-0.1L656.3-15.2z M694.5-0.3l-0.7-0.9l-1.4-1.1l-0.4-0.5l-2.3-1.1l-1-0.8
	l-0.8-0.5l-2.6-1l-2.6-1.2l-0.5-0.4l0-0.6l0.6-0.5l0.5-0.3l0.2-0.3l-0.1-0.5l-0.5-0.2l-0.5-0.1l-2.6,0.1l-1.1-0.1l-1.4-0.7l-1.6-1.1
	l-1.7-1.5l-0.8-1l-0.4-0.9l-0.6-1.9l-0.5-1.2l-0.6-1l-0.3-0.2l-1-0.4l-1.8-1.3l-1-0.4l-1-0.8l-0.4-0.5l-0.4-1.2l-0.3-1.7l0.1-0.6
	l0.2,0l0.3,0.2l0.4-0.3l0.2-0.3l0.1-0.4l-0.6-0.9l-0.5-1l-0.3-0.2l0.1-0.7l0.1-0.4l0.4-0.3l0.6-0.3l0.2,0l-0.5,0.4l0.3,0l0.5-0.2
	l0.7-0.3l0.7-0.4l0.6-0.2l0.4-0.3l0.2-0.3l0.2-0.1l1.2,0.4l0.4-0.3l0.3,0l0.7,0.8l-0.3,0.2l0.3,0l0.3-0.1l0.1-0.1l-0.2-0.4l-0.5-0.5
	l-0.3-0.2l-0.4-0.1l-0.1-0.1l0.2-0.7l-0.1-0.1l-0.4,0l-0.1-0.1l0-0.1l0-0.2l0.3-0.3l0.3-0.3l0.1-0.1l0-0.1l-0.4-0.1l-0.2-0.1l-0.2,0
	l-0.1,0.1L670-35l-0.1-0.2l0.1-0.3l0.4-0.3l0.4-0.3l0.3-0.2l0.2-0.1l0.1-0.3l-1-0.2l-0.6,0l-0.8-0.1l-1.7-0.3l-0.5-0.1l-0.5,0
	l-0.5-0.1l-0.4-0.2l-0.3-0.3l-0.3-0.4l-0.5-0.6l-0.1-0.3l0.2-0.2l0.2-0.2l0-0.1l-0.1,0l-0.9,0.2l-0.9,0.3l-0.3,0l-0.3-0.1l-0.4,0
	l-0.4,0.1l-0.9,0l-0.5,0.2l-0.3,0.4l-0.2,0.4l-0.1,0.1l-0.3,0l-0.5,0l-0.3-0.1l-0.3-0.3l-0.5,0l-0.5,0l-0.1-0.1l-0.2,0.7l0,0.4
	l0.2,0.3l0,0.2l-0.1,0.2l-0.3,0l-0.4-0.1l-0.4-0.3l-0.3,0l-0.2,0.1l-0.1,0.3l-0.1,0.4l0,0.2l0.2,0.2l0.1,0.3l0.1,0.4l0.1,0.2
	l-0.1,0.1l-0.2,0.1l-0.2-0.1l-0.3-0.5l-0.1-0.2l-0.3,0l-0.4,0.1l-0.7,0.3l-0.3,0l-0.2-0.1l-0.2-0.2l-0.2-0.5l-0.1-0.3l-0.1,0
	l-0.4-0.1l-0.2,0.1l0,0.5l0,0.6l-0.2,0.4l-0.6,0.7l-0.2,0.3l-0.1,0.2l0,0.2l0.1,0.3l0.1,0.3l-0.1,0.2l-0.3,0.1l-0.2-0.2l-0.1-0.3
	l-0.5-0.4l0.2-0.4l0-0.1l-0.8-0.2l-0.3-0.3l-0.5-0.5l-0.1-0.2l0-0.7l0-0.2l-0.1-0.1l-0.2,0l-0.3,0.2l-0.3,0.4l-0.6,0.4l-0.1,0.1
	l0.2,0.4l0,0.2l-0.5,0.6l-0.1,0.2l-0.7,0.4l-0.3,0.1l-0.9-0.3l-0.2,0l-0.4,0.2l-0.6,0.2l-0.9,0.2l-0.3-0.1l-0.2-0.1l-0.4,0.3
	l-0.6,0.3l-0.1,0.2l0,0.2l0.1,0.2l0.3,0.2l0.4,0.5l0.2,0.5l0.5,0.4l0.1,0.1l0,0.1L641-30l-0.2,0.6l-0.2,0.1l-0.2,0l-0.7,0.5
	l-0.3-0.1l-0.4,0l-0.3,0.1l0,0.3l0.3,0.3l0.1,0.8l0.1,0.3l0.3,0.2l0.4,0.1l0.2,0l0.2,0.1l0.1,0.1l0.2,0.6l-0.1,0.2l-0.2,0.1
	l-0.1,0.3l-0.3,0.4l-0.2,0.3l0.2,0.3l0.1,0.2l-0.1,0.2l0.1,0.3l0.3,0.3L641-23l0.8,0.4l0.2,0.1l1.1-0.2l0.2,0l0.1,0.3l0.1,0.2
	l-0.1,0.3l-0.3,0.4l-0.3,0.3l-0.2,0.3l0,0.2l0,0.3l1.1-0.2l1.3-0.4l0.4-0.2l1-1.2l1.2-1.2l1-0.4l0.8,0.1l1.2,0.5l0.4,0l2.1,1.2
	l1.5,0.5l0.7,0.4l0.3,0.5l0.3,1.9l0.6,0.8l0.3,0.9l0.1,0.4l-0.1,0.4l0,0.6L657-16l0.3,0l0.3,0.1l0.1,0.2l0.1,0.3l0.2,0.2l0.6,0.4
	l1.1,1.2l0.1,0.4l-0.2,0.1l-0.2,0.2l0.2,0.2l0.2,0l0.3-0.1l0.2,0l1,0.3l0.7,0.4l0.8,1.2l1.3,0.8l0.6,0.7l2,2l1,0.3l0.8,0.6l0.1,0.2
	l0.2,0.1l0.4-0.2l0.3-0.1l0.5,0.1l0.9,0.3l0.5-0.1l0.3,0.1l0.6,0.6l0.9,1.5l0,0.3l0.2,0.1l0.1-0.2l0.2,0l0.8,0l0.6,0.3l0.2,0.2
	l-0.6,0.7l0.2,0l0.4-0.2l0.5,0l0.3-0.1l0.7-0.1l0.4,0.2l0.3,0.4l0.2,0.5l0.2,0.5l-0.3,0.4l0,0.3l0.1,0.1l1.7,1l0.5,0.1l0.9,0
	l0.5-0.1l0.4,0.7l0.5,1.4l0.8,1.6l0.3,1.3l0.2,0.7l0.5,0.5l0,1.1l-0.6,0.1L682.9,8l-0.2,0.2l-0.2,0.3l0.1,0.8l-0.4,1.1l-0.6,0.2
	l-0.3,0.5l0,0.8l0.4,0.6l1.6,0l0.2-0.5l0.2-0.4l0.6-1l1.2-0.9l0.1-0.5L685.7,8l0.3-0.5l0.7-0.5l0.9-0.3l0.7,0.1l0.4-0.5l-0.3-0.8
	l-0.1-1.4l-0.6-0.6l-0.9-0.6l-1.1-0.4l-0.4-0.6l0-0.7l0.6-1.1l0.6-1.1l0.6-0.8l0.5-0.3l0.7,0.1l0.2,0.1l0.2,0.3l0,0.2l0.7,0.3
	l0.4,0.1l1.9,0.2l1.1,1.5l0.7,0.5l0.6,0.2l0.2-0.5l0.1-0.5l0.3-0.2L694.5-0.3z M665.9-21.3l-0.3,0l-0.1-0.2l0.2-0.3l0.3,0l0.1,0.2
	L665.9-21.3z"/>
<polygon class="st0" points="533.5,109.6 533.2,109.4 532.7,108.9 532.3,108.7 531.6,108.8 531.2,108.7 530.7,108.6 530.3,108.6 
	530.1,108.9 530,109.1 529.6,109.2 529,109.4 528.1,109.7 527.6,109.6 527.5,109.5 527.5,109.3 527.8,109.1 527.8,108.8 
	527.7,108.6 527.4,108.5 527.2,108.5 527.1,108.4 526.5,108.3 526,108.3 525.2,108.6 523.9,109.5 523.4,110 523.1,110.9 
	521.7,111.2 520.8,111.7 520,112.5 519.4,112.9 519,113 518.7,112.9 518.3,112.7 517.9,112 517.4,111 517,110.3 516.9,109.5 
	516.8,108.5 516.7,107.5 516.7,106.3 516.8,105.9 516.7,105.6 516.5,105.5 516.2,105.5 515.8,105.7 515.5,105.7 515.2,105.6 
	515.1,105.1 515.2,104.1 514.6,103.3 513.5,102.6 512.6,102.4 511.9,102.6 511.5,103.1 511.2,104 510.9,104.7 510.5,105.2 
	510.2,105.5 510.1,105.6 510.1,105.8 510.5,106.5 510.6,107.1 510.4,107.6 510.1,107.8 509.8,107.8 509.4,107.7 509.2,107.5 
	508.6,107.4 507.7,107.5 507.1,107.8 506.8,108.2 506.8,108.7 507.1,109.3 507.1,109.8 506.9,110.2 506.7,110.4 506.5,110.4 
	506.1,110.1 505.3,109.5 504.8,109.1 504.6,109.1 504.4,109.1 504.3,109.2 504.2,109.3 504.2,109.5 504,109.5 503.7,109.5 
	503.5,109.5 503.4,109.7 503,110 502.3,110.3 501.9,110.6 501.9,110.9 501.8,111 501.6,111 500.9,111.4 500.4,111.2 499.7,110.7 
	499.3,110.2 499.2,110.1 499.1,109.9 498.8,109.7 498.4,109.7 498.1,109.7 497.9,109.5 497.5,109.5 497,109.8 496.4,109.7 
	495.6,109.1 494.4,108.9 493,109 492.7,109 492.1,108.9 490.9,108.6 489.8,108 489.1,107.7 489,107.7 488.7,108 488.6,108.3 
	488.5,108.9 488.4,109.6 487.2,109.6 486.2,109.7 485.6,109.9 485,110.3 484.9,110.7 484.9,111.3 484.7,112.6 484.6,113.7 
	484.6,114.5 484.4,115 483.8,115.7 483,116.2 482.6,116.4 482.5,116.7 482.5,116.9 482.3,117 482,116.9 481.6,117 480.9,117.2 
	480,117.6 479.1,117.9 478.5,117.9 478.2,118 478.2,118.1 478.3,118.4 478.5,118.7 478.6,119 478.4,119.2 478.3,119.6 478.3,120.4 
	478,120.6 477.4,120.9 476.8,121.4 476.7,121.5 476.3,121.6 476,121.6 475.6,121.5 475.2,121.6 474.9,122 474.7,121.9 474.6,121.5 
	474.3,121.3 473.6,120.8 473.1,120.4 472.8,120.3 472.4,120.4 471.8,120.5 471.3,120.4 470.9,120.3 470.2,119.8 470,119.5 
	469.8,119.3 469.4,119.3 469.5,119.7 469.6,120 469.4,120.2 469.4,120.5 469.3,120.9 469.3,121.2 469.1,121.3 468.9,121.4 
	469,121.8 469.2,122.1 469.4,122.5 469.3,122.7 469.2,123 469.1,123.5 469.2,123.9 469.1,124.2 468.9,124.5 468.8,124.7 
	468.8,125.1 468.7,125.2 468.4,125.5 468.2,125.6 467.9,125.7 467.8,125.9 467.9,126 468.1,126.1 468.3,126.5 468.8,127 
	467.6,127.1 467.4,127.6 467.1,128.4 467.5,129.9 467.4,130.6 467.6,131 468,131.3 468.4,131.5 469.2,131.5 469.7,131.6 
	469.7,131.8 469.5,132.1 469.1,132.7 468.9,132.9 468.3,134 468.4,134.5 468.5,134.8 469.1,136 469.6,137.1 470.5,139.2 
	470.5,139.7 470.5,140.7 470.6,141.4 470.8,142.2 470.8,142.6 471.1,143.6 471.3,143.7 472.5,143.9 473.7,144 475.3,144.3 
	475.9,144.8 476.4,146.1 476.5,147 476.4,147.5 475.5,148.8 474.6,150.2 473.6,151.6 472.5,153.2 474.5,153.8 476.1,154.3 
	478.5,155.1 480.5,155.7 481,155.8 486.4,155.3 488.4,155.7 489.1,155.9 489.2,155.8 489.4,155.5 489.8,155.2 490.5,155 
	491.1,154.9 492,154.9 492.6,154.9 493.1,154.9 493.9,154.9 494.3,154.8 495.7,154.4 496.7,154.1 498.1,153.6 499.1,153.3 
	499.3,153.1 499.6,152.8 499.6,152.5 499.3,152.1 499.2,151.7 499.3,151.2 499.3,150.4 499.1,149.4 498.9,148.8 499.1,147.6 
	499.2,147 499.7,146.7 500,146.5 500.1,146.4 500.2,146.2 500.6,145.4 501,144.9 501.5,144.7 502,144.7 502.5,145.1 503.3,145.2 
	504.1,145.1 504.8,144.9 505.1,144.7 505.5,144.5 505.4,144.3 504.9,144.1 504.7,143.8 504.5,143.5 504.7,143.3 505.3,143.3 
	506.5,142.5 507,142 507.1,141.8 507.4,141.8 507.9,142 508.5,142.1 508.9,141.8 509.3,141.8 509.7,142.1 509.9,142.4 510.3,142.7 
	510.8,142.8 511.3,142.6 511.7,142.2 512.1,141.6 512.5,141 512.1,139.2 511.8,138.1 511.9,137.5 512.2,137.2 512.3,136.7 
	512.2,136.2 512.4,135.8 512.5,134.7 512.7,134.4 513.4,134.2 514.4,134.1 515.2,133.6 515.9,133.1 515.9,132.6 515.5,132.1 
	514.9,131.2 514.4,130.6 513.3,129.5 513.3,128.9 513.7,128.6 515.1,129.1 515.5,129.1 515.9,129.2 517.1,129.2 518,129 
	518.9,128.6 519,128.2 518.9,127.7 518.9,127.3 518.8,126.7 518.3,126.4 518.1,126.1 517.9,125.8 518.2,125.6 518.3,125.4 
	518.5,124.9 518.9,124.3 519.1,123.8 519.4,123.5 519.8,123.2 520,122.7 520.1,122.4 520.3,122.1 520.4,121.9 520.3,121.8 
	520.1,121.5 519.9,121.3 519.8,121.1 519.9,120.8 520,120.6 519.9,120.3 519.7,119.8 519.4,119.5 519,118.8 518.6,118 518.4,117.8 
	518.1,117.4 517.4,117.1 517.2,116.8 517.3,116.3 517.7,116 518.2,115.3 518.5,114.8 518.8,114.4 519.3,114.5 519.6,114.5 
	519.7,114.2 520.1,113.9 520.9,113.3 521.1,112.9 521.5,112.7 521.8,112.6 522.3,112.5 522.8,112.3 523.2,112.1 523.9,112.1 
	524.9,112 525.5,111.9 526.9,111.8 528.5,111.8 528.6,111.7 529.4,112 529.9,112.1 530,112.1 530.7,111.7 531.7,111.2 532.2,110.9 
	532.1,110.9 531.9,110.7 531.3,110.3 531.2,110.1 532,109.7 532.5,109.5 532.7,109.3 532.8,109.4 533,109.6 533.4,109.7 
	533.6,109.7 "/>
<rect x="340.3" y="42.4" style="fill-rule:evenodd;clip-rule:evenodd;fill:none;" width="140.7" height="120.4"/>
<text transform="matrix(1 0 0 1 340.2793 50.9595)" style="opacity:0.4;"><tspan x="0" y="0" class="st3" style="font-family:'MyriadPro-Regular';">Aruba</tspan><tspan x="0" y="14.4" class="st3" style="font-family:'MyriadPro-Regular';">United States</tspan></text>
<text transform="matrix(1 0 0 1 102.971 57.657)" class="st2 st3">Aruba</text>
<rect x="163.4" y="171.1" class="st4" width="78.5" height="59.4"/>
<text transform="matrix(1 0 0 1 163.4375 178.6826)" class="st2 st3">United States</text>
<image style="overflow:visible;" width="1732" height="404" xlink:href="../Screen Shot 2018-12-03 at 9.00.49 PM.png"  transform="matrix(0.5 0 0 0.5 -236 330)">
</image>
<g class="st5">
	<g>
		<g>
			<path vector-effect="non-scaling-stroke" class="st6" d="M213.7,251.2L213.7,251.2l7.2-0.7l1.9,7l0.7,1.2v0.7l0.4,0.2l-0.4,0.5
				l-0.2,0.9l0.4,0.9v1.4l0.4,0.5l-7.6,0.7v0.5l0.7,0.5v0.4l0,0l-0.2,1.1h-0.7l-0.5-0.4l-0.4-0.9l-0.2,1.2l-0.7-0.2l-0.7-5.1
				l0.2-5.3l0.2-5.3L213.7,251.2z"/>
			<path vector-effect="non-scaling-stroke" class="st6" d="M143.8,277L143.8,277l0.2,0.2h0.4l0.4,0.4v0.2l-0.2-0.4h-0.2l0.2,0.2
				l0.2,0.2l0.2,0.4h-0.2l-0.2,0.4l0,0l-0.2-0.2l0.2-0.2l-0.2-0.2l-0.2-0.4l-0.2-0.4L143.8,277z M143.6,278.2v-0.4l0.4,0.2h0.2
				l0.2,0.4l0.4,0.5l0.2,0.5l-0.2-0.2l-0.4-0.4l-0.2-0.2l-0.2-0.5H143.6L143.6,278.2z M143.6,278.4L143.6,278.4L143.6,278.4h0.4v0.2
				h-0.2L143.6,278.4L143.6,278.4z M142.9,277.7l0.2-0.4l0.2-0.2l0.5,0.2v0.2l0.2,0.5h-0.2l-0.4-0.2l0,0l0.2,0.2l-0.2,0.2l-0.2-0.2
				l-0.2-0.4L142.9,277.7L142.9,277.7z M136.6,276L136.6,276l0.4-0.2L136.6,276L136.6,276z M136.4,276.1L136.4,276.1l0.4-0.2l0,0
				L136.4,276.1L136.4,276.1z M135.7,276.8L135.7,276.8l0.4-0.5v-0.2h0.2l-0.2,0.4v0.2L135.7,276.8z M135.7,276.3v-0.2l0.2-0.2
				L135.7,276.3L135.7,276.3z M135.5,276.7l0.2-0.2L135.5,276.7L135.5,276.7z M113,282.5l0.2,0.2L113,282.5L113,282.5z M111.5,281.9
				h0.2H111.5L111.5,281.9z M109.2,280h0.2v0.2L109.2,280z M109,279.3L109,279.3l0.5,0.2l0.2,0.4l-0.4-0.2L109,279.3L109,279.3z
				 M147.1,280.2L147.1,280.2h0.2H147.1z M147,280.2v-0.4h0.2v0.2L147,280.2z M146.3,280.5L146.3,280.5L146.3,280.5L146.3,280.5z
				 M145.6,278.9L145.6,278.9l0.2-0.2v0.2H145.6L145.6,278.9z M145.6,280.3L145.6,280.3l0.2-0.2L145.6,280.3z M145.4,279.6l0.2-0.4
				l-0.2-0.2h0.4l0.2,0.2v0.2h0.2l0.4,0.2l0.2,0.2l0,0l0.4,0.2l0.2,0.5v0.2H147v-0.2l-0.4-0.2h-0.2v-0.2h-0.2l0.2,0.4h0.2v0.2
				l-0.4-0.2l-0.2-0.4h-0.2V280l0.2-0.2l-0.2-0.2h-0.2H145.4h0.4l-0.2-0.2L145.4,279.6z M145,279.6L145,279.6L145,279.6L145,279.6z
				 M144.7,278.8l0.2-0.2l0.2,0.2v-0.2l-0.4-0.2v-0.2h0.5l0.4,0.4l-0.2,0.2h-0.2v0.2l-0.4,0.2v-0.2h-0.2l0.2,0.4v0.4l0,0l-0.2-0.2
				v-0.4V278.8z M115.3,283.9L115.3,283.9l0.4-0.4h0.2l-0.2,0.2h0.2v0.2L115.3,283.9z M114.8,283.5h0.4l0.2-0.2l0,0l-0.2,0.2H114.8z
				 M114.6,283.2h0.2v0.4h-0.2V283.2z M132.4,279.1l0.2-0.4h0.2l0.2-0.4h0.2l-0.2,0.4h0.4v0.2h-0.4l-0.2,0.2L132.4,279.1z
				 M131.8,280.9L131.8,280.9h0.4H131.8z M131.5,281l0.2-0.2l0,0L131.5,281z M131.5,280l0.2-0.2l0.2-0.2h0.2v-0.4h0.2l0.2,0.2
				l-0.2-0.2l0.2,0.2l-0.2-0.2l0.4,0.2v0.2l0.2-0.2v0.4h0.2l-0.2,0.2h-0.4l0.2,0.2v0.2h-0.4h0.2l-0.4,0.2v-0.2l-0.2,0.2l-0.2,0.4
				h-0.2l0.2-0.2l0,0l0.2-0.2l-0.4,0.4l-0.2-0.2v-0.2L131.5,280z M131,281.8L131,281.8L131,281.8L131,281.8z M127.8,282.6l0.2-0.4
				l0,0L127.8,282.6z M127.6,282.1L127.6,282.1L127.6,282.1L127.6,282.1z M127.5,282.1h0.2v0.4L127.5,282.1L127.5,282.1z
				 M127.8,278.2L127.8,278.2l0.4-0.2L127.8,278.2L127.8,278.2z M126.7,282.3h0.2H126.7L126.7,282.3z M126.4,282.5L126.4,282.5
				L126.4,282.5L126.4,282.5z M127.5,272.3L127.5,272.3h0.2H127.5z M126,283L126,283h0.2H126z M124.6,282.6L124.6,282.6l0.4-0.4l0,0
				l0.4-0.2h0.2l0.2,0.4l-0.2,0.2h-0.2H125v0.2h-0.4V282.6z M123.9,283L123.9,283L123.9,283L123.9,283z M123.8,283L123.8,283h0.4
				H123.8L123.8,283z M123.4,283.3L123.4,283.3L123.4,283.3L123.4,283.3z M124.3,275.8h0.4l0.2-0.2h0.2v0.2h0.2v0.5h-0.4l-0.2,0.2
				l-0.2-0.2h-0.2l-0.4-0.4L124.3,275.8z M122.4,283.7L122.4,283.7l0.5-0.2l0.2-0.2h0.2l-0.4-0.2l0.2-0.2h0.4v0.2l0.2-0.2l-0.4,0.4
				h0.2v0.2h-0.2l-0.2,0.2h-0.2L122.4,283.7L122.4,283.7z M125.2,269.3l0.9-0.4l0.5-0.2h0.4h0.4h0.4v0.2l-0.2,0.4v0.2h0.4h0.2l0,0
				h0.2h0.2l0.2-0.2h0.2v-0.2l-0.2-0.2h-0.2v-0.2l-0.2-0.2H128v-0.2v-0.2l0,0l0.2,0.2v0.2l0.2,0.4h0.2l-0.2-0.4v-0.2l0.2-0.2
				l-0.2-0.2H128l-0.2-0.2h-0.2l-0.4-0.2v-0.4v-0.2l-0.2-0.2l-0.4-0.4l-0.2-0.2v-0.2l-0.4-0.2h0.2v-0.2v-0.4h0.4h0.5h0.2l0.2-0.2
				l0.2-0.2v-0.2v-0.2v-0.2l0.4-0.4l0.2-0.2h0.2h0.2l0.2-0.2l0.4-0.4h0.2v0.2h0.5h0.2l0.2-0.2l0.2-0.4h0.2l0.2,0.2h0.2v0.2l-0.2,0.2
				h-0.2v0.2h0.2v-0.2l0.2-0.2v-0.2l0.2,0.2v0.2h0.2l0.2-0.2h0.4l0.4,0.2L132,264v0.2h0.4v0.2h0.2h0.2v-0.2h0.4l0.2-0.2h0.4h0.2
				l0.2,0.2l0,0h0.2l0,0h0.4h0.2h0.4l0.2,0.2h0.2l0.4-0.2h0.2l0.4,0.2l0.2,0.2h0.2l0.2,0.2h0.2l2.1,10.9h0.4v-0.2l0.4,0.2l0.2-0.2
				l0.4-0.2v0.4l0.4,0.2v0.2l0.7,0.5l0.2,0.4l0.4-0.4h0.2v-0.2v-0.2l0.2-0.2H142l0.2-0.2l0.2-0.2l0.4,0.2v0.2l0.2,0.2h0.2l0.2,0.2
				l0.2,0.4h0.4l0.4,0.2l0,0l0.2,0.2l0.5,0.5l0.4,0.2v0.2h0.2v0.2h0.2l0.2,0.2h0.2l0.4,0.2h0.2h0.2v0.2h0.2l0.2,0.2v0.2l0.4,0.5v0.5
				l-0.2,0.4H147l-0.2-0.4l-0.2-0.2l0.2-0.2l-0.2-0.4l-0.4-0.2l0.4,0.4l0.2,0.4v0.4l-0.2-0.2h-0.4v0.2l-0.2-0.2v-0.4l0,0v-0.4
				l-0.2,0.2h0.2v0.4h-0.2v-0.2v-0.2l-0.2-0.2l-0.2,0.2l0.2,0.2l-0.2,0.2l-0.2-0.2l0,0l-0.2-0.2l0.2-0.2v-0.4h-0.2v-0.2H145
				l-0.2-0.2h0.2h-0.5v-0.2l0.2-0.2h-0.2l-0.2-0.4h0.4l-0.4-0.2v-0.2v0.2l-0.4-0.2l-0.2-0.2h-0.4l-0.2-0.4l-0.4-0.4l-0.2-0.2v0.2
				l0.4,0.4l0.2,0.4v0.2h-0.2l-0.2-0.2l-0.4,0.2l-0.2-0.2l0,0l-0.2-0.2l0,0l-0.5-0.2v0.2h0.4l0.4,0.4v0.2l-0.2,0.2H142v0.2l-0.2-0.2
				h-0.2l-0.4-0.2l-0.2-0.2v-0.2l-0.2-0.2h-0.4l-0.9-0.4l0.2-0.2l-0.2-0.2v0.2l-0.2,0.2h-0.4l-0.4-0.2l0,0l-0.2-0.2l0,0l0.2,0.2
				l-0.2,0.2h-0.5H138l-0.4,0.2l-0.2,0.2l-0.2-0.2h-0.4v-0.2v-0.2l-0.2,0.2l-0.2-0.2h-0.2l0.2-0.2h-0.4v-0.2l-0.4,0.2v-0.2h0.2h-0.2
				v-0.2V276l-0.2,0.2V276v0.2h-0.2v-0.4v0.4l-0.4,0.2v-0.2l0.2-0.4v-0.2l-0.2,0.4v-0.2l-0.2,0.5l0.2-0.2l0.2,0.4l-0.2,0.2l0.2,0.2
				v0.2l-0.2-0.2v0.2v-0.2v0.2l-0.4-0.2v0.2v-0.2l-0.2,0.4h-0.2l-0.4,0.4l0.2-0.4l-0.2,0.4H134l-0.2,0.2h-0.2l-0.2,0.2l-0.2-0.2
				v-0.2l0.4-0.2v-0.2l-0.2,0.2l-0.2-0.2v-0.4l0.2-0.2v-0.4l-0.2-0.2h0.2l0.4-0.4l0.2,0.2h0.2v-0.2h0.4l-0.4-0.2l-0.2-0.2l0.2-0.4
				l0.2-0.2h-0.2l0.4,0.2v0.2h-0.4l0,0l-0.2,0.2v0.2h-0.2l-0.2,0.2v0.2l-0.2,0.2l-0.2,0.2v0.2l-0.2,0.2h-0.2l0.2,0.2l-0.4,0h-0.2
				h0.2v0.2h-0.2l-0.2,0.2v0.2l-0.2,0.2v0.4h0.4l0.2,0.2v0.2l-0.2,0.2h-0.2l-0.2,0.4v0.2l-0.2,0.2h-0.2l-0.2,0.2l-0.2,0.2v0.2h-0.2
				l-0.2,0.4H131v0.2h-0.2l-0.2,0.2h0.2v0.2l-0.2,0.2h-0.2l-0.2,0.2l-0.2-0.2l-0.2,0.2l-0.4,0.2h0.2v0.2h-0.2l-0.2,0.2l0.2,0.2h-0.2
				v0.4l-0.2-0.2v0.2H129v0.2h-0.4l-0.2,0.4v-0.4h-0.2l-0.4,0.2l-0.2,0.2h-0.2l-0.2,0.2h-0.2l0.2-0.4h-0.2v0.2l-0.4,0.4h-0.2v-0.4
				h-0.2v0.4h-0.2l-0.2-0.2H126l0.2,0.2L126,283l0.2-0.4h0.4v-0.2h0.2v-0.2l0.2-0.2l0.4-0.2h0.4h0.2l0.2,0.4v-0.2h0.2v0.2h0.2
				l-0.2-0.2l0.2-0.4l0.4-0.4l0.4-0.2l0.2-0.2h0.2v-0.4l0.2-0.2l0.5-0.4l0.2-0.7h0.2v-0.2v-0.2l0.4-0.4v-0.2h-0.2l-0.5,0.2h-0.2
				l-0.2-0.2v-0.2l-0.2,0.2v0.2v0.4h-0.2l-0.2-0.4l-0.2-0.2l-0.2,0.2l-0.2-0.2v-0.2l-0.2,0.2l-0.4,0.2l-0.2,0.2l-0.2-0.2v-0.2v-0.2
				l-0.2-0.4l0.2-0.2l-0.4-0.9v0.2l-0.4,0.2h-0.4h-0.2v-0.2l-0.2-0.4h-0.2l-0.2-0.2l-0.2-0.2l0.4-0.2v-0.2l-0.5-1.1h0.2l-0.2-0.2
				h-0.2v-0.2h-0.2l0.2-0.2h-0.2v-0.2h0.2l-0.2-0.2h0.4v-0.4l0.4-0.4l0.2-0.2v-0.2V273l0.2-0.2v-0.2l0.2-0.2h0.2h0.2l0.2,0.2h0.2
				l0.2-0.2l0.2-0.4l0,0h0.4h0.2l0.2-0.2v-0.2v-0.4v-0.2l-0.2-0.2H128l0.2-0.2h0.2l0.2-0.2v-0.2l-0.2-0.2l-0.2,0.2H128l-0.2,0.2
				l-0.2,0.2l-0.2,0.2v-0.2l-0.2-0.2l0,0l0.2,0.2v0.2l-0.2-0.2h-0.4l-0.4,0.2l-0.7-0.4l-0.2-0.2v-0.2l-0.2-0.4h0.2l0.2-0.2l-0.2,0
				h-0.2L125.2,269.3z M121.3,284l0.2-0.2l0.2-0.2l0.4-0.2l0.2-0.2h0.4v0.2l-0.4,0.2l-0.2,0.2L121.3,284z M121.8,279.6h0.2H121.8
				L121.8,279.6z M120.6,283.9h0.2H120.6L120.6,283.9z M120.1,284L120.1,284h0.2H120.1z M122.7,271.4l0.2-0.4v0.2l0.4,0.2h0.2h0.2
				v0.2l0.2,0.2l0.4,0.2l-0.2,0.2h-0.4l-0.2,0.2v-0.2l-0.2-0.2v-0.2l-0.2-0.2h-0.2h-0.2L122.7,271.4L122.7,271.4z M118.7,284
				L118.7,284h0.2H118.7z M121.1,274.5L121.1,274.5l0.4,0.4h-0.2L121.1,274.5z M117.6,283.9h0.4l0,0l0.4,0.2H118L117.6,283.9
				L117.6,283.9z M116.7,283.7h0.4h0.4l0.2-0.2l0.2,0.2h-0.2v0.2h-0.2h-0.4L116.7,283.7z"/>
			<path vector-effect="non-scaling-stroke" class="st6" d="M139.4,254.7h0.5l0.2-0.9l-0.4-0.2l0.2-1.2l0.7-0.4l0.4-1.4l0.4-0.5
				l0.9-0.5l-0.5-0.5l-0.2-0.9l-0.4-0.5v-0.5l0.4-0.5v-1.9l0.2-0.5l-0.2-0.7h1.1l0.5,0.5l0.4-0.5l0.5-2.6l13.4,2.1l-2.6,19.2
				l-5.8-0.9l-2.5-1.4l-7.4-4.4L139.4,254.7z"/>
			<path vector-effect="non-scaling-stroke" class="st6" d="M196,247l12.1-0.5v0.2l0,0l0.2,0.5l-0.7,1.1l1.8-0.2l0.2,0.4l-0.7,0.5
				l0.4,0.4l-0.9,0.7l0.4,0.9l-0.7,0.5l-0.5,1.9l-0.5,0.4l-0.4,1.1l-0.5,0.2l0.4,0.7l-0.7,0.7l0.4,0.5v1.4l-8.1,0.2v-1.8h-1.1
				l-0.4-0.4v-6L196,247z"/>
			<path vector-effect="non-scaling-stroke" class="st6" d="M129.2,249.8l0.5,0.4l-0.4,0.2L129.2,249.8z M128.9,251.2l0.5,0.9
				l-0.4-0.2L128.9,251.2z M126,247l0.9,0.5l-0.9-0.2V247z M125.2,247h0.5l-0.4,0.4L125.2,247z M122.5,217.6l4.4,1.2l5.8,1.6
				l-2.6,10l2.1,3.2l3.5,5.3l3,4.4l2.6,3.9v0.5l0.4,0.5l0.2,0.9l0.5,0.5l-0.9,0.5l-0.4,0.5l-0.4,1.4l-0.7,0.4l-0.2,1.2l0.4,0.2
				l-0.2,0.9h-0.5l-6.9-0.9l-0.2-0.5l0.2-1.2l-0.4-1.2l-1.6-1.9l-0.4,0.2l-0.5-1.2h-0.7l-1.1-0.7v-0.4l-0.7-0.7l-1.1-0.4l-1.2-0.4
				l-0.4-0.5l0.5-1.9l-0.5-0.5l0.2-0.5l-0.9-1.2l-0.7-2.1l-0.4-0.5v-0.9l0.7-0.7l-0.2-0.7l-0.5-0.2l-0.5-0.7v-1.4l0.2-0.9h0.4
				l-0.2,0.7l0.5,0.5v-0.7l-0.4-0.5v-0.7l0.5-0.2l-0.5-0.4l-0.4,0.9l-0.5-0.7l-0.5-0.2l0.4-0.5l-0.2-1.1l-0.4-0.5l-0.7-1.4l0.2-0.4
				v-0.9l0.4-0.9v-1.1l-0.4-1.1l-0.5-0.7v-0.7l1.1-1.2l0.2-0.9l0.5-1.1v-0.9l-0.2-0.4L122.5,217.6z"/>
			<path vector-effect="non-scaling-stroke" class="st6" d="M159.1,229.2l12.7,1.4l5.1,0.4l-0.2,3.3l-0.7,10.4l-2.6-0.2l-3.5-0.4
				l-12.7-1.4l0.5-4v-0.4L159.1,229.2z"/>
			<path vector-effect="non-scaling-stroke" class="st6" d="M248.2,221.3l4-0.9l0,0l0.5,1.9v0.4l-1.2,0.5l-1.2,0.4l-1.6,1.2l0,0l0,0
				l-0.4-0.4l0.5-0.5l-0.2-0.2L248.2,221.3z"/>
			<path vector-effect="non-scaling-stroke" class="st6" d="M244.1,230.3l0.4-0.5h0.5l-0.4,0.7l0.2,0.5l0.7,0.7l0.2,0.7l0.7,0.7h0.4
				l0.4,1.1l-1.8,0.4L244.1,230.3z"/>
			<path vector-effect="non-scaling-stroke" class="st6" d="M241.3,233.8h0.5l-0.4,0.4L241.3,233.8z"/>
			<path vector-effect="non-scaling-stroke" class="st6" d="M220.9,250.6l3.5-0.4l3.3-0.5l-0.5,1.1l0.9,0.7h0.5l1.2,1.8l0.9,0.5
				l0.2,0.4l0.9,0.5v0.4l0.7,0.7l0.7,0.4l0.4,1.1l0,0l0.4,0.4l0,0l0,0l0,0l0.4,0.2l0.5,1.2l0.7,0.2l-0.5,1.2l-0.2,1.8l-0.5,0.9
				l0.4,0.2v0.7l-1.6-0.2l-0.2,0.5l0.2,1.1h-0.5l-0.2-0.5l-4.2,0.4l-3.5,0.2l-0.5-0.9l-0.4-0.5v-1.4l-0.4-0.9l0.2-0.9l0.4-0.5
				l-0.4-0.2v-0.7l-0.7-1.2L220.9,250.6z"/>
			<path vector-effect="non-scaling-stroke" class="st6" d="M163.3,281.2l0.7-1.1l-0.2-0.9l1.9,0.9l0.7,0.5v0.4l0.9,0.7l-0.5,0.5
				l-1.1,0.4l-1.2,1.1l-0.7-0.4v-1.1L163.3,281.2z M161.4,277.4l0.4-0.4l0.4,0.5l0.5-0.2l1.1,0.5l-0.2,0.4l-1.2,0.2v-0.5
				L161.4,277.4z M160.1,277.4l0.9,0.4l-0.5,0.2L160.1,277.4z M159.4,276.7l0.2-0.4l1.6,0.2l-0.4,0.4L159.4,276.7z M156.3,275.1
				l1.1-0.5l0.4,0.9l0.7,0.5H157L156.3,275.1z M151.5,273.5l0.7-0.7h0.7l0.4,0.4l-0.5,0.9L151.5,273.5z"/>
			<path vector-effect="non-scaling-stroke" class="st6" d="M143.1,209v-1.4l1.9-8.6l2.1,0.5l-0.7,3.3l0.5,1.1l-0.2,0.9l0.9,0.9
				l0.5,1.4l0.5,0.5v0.4l0.7,0.2l-0.4,0.4l-0.5,1.4l0.2,0.7l-0.4,0.2l-0.2,0.7l0.5,0.4l0.9-0.7l0.4,0.4v0.7l0.4,1.1l0.2,0.2
				l-0.2,0.7l0.7,0.5l0.4,1.4l0.4-0.2l0.9,0.4l0.4-0.4l0.4,0.2l1.4,0.2l0.2-0.5h0.4l0.5,1.1l-1.4,8.3l-7.4-1.2l-7.4-1.6l1.4-6
				l0.5-1.1l-0.5-0.5v-0.5l0.7-1.1h0.4l0.4-0.7l1.2-1.8l-0.2-0.5l-0.4-0.2L143.1,209z"/>
			<path vector-effect="non-scaling-stroke" class="st6" d="M203.9,233.4l0.2-0.9l0.5-0.2l0.4-0.9V231l-0.5-0.5l0.2-0.7l0.9-0.2
				l0.7-0.5l0.4-0.7v-1.1l-0.5-0.4l-0.7-0.9l7-0.5v0.7l0.4,0.7l0.5,1.2l0.7,8.1l-0.2,0.9l0.4,0.5l0.2,0.7l-1.4,3.2l0.2,0.4l-0.4,0.5
				l0.4,0.7l-1.1,0.4l0.2,1.1l-1.2-0.4l-0.5,0.5l0.2,0.4h-0.4l-0.7-0.9l0.2-0.4l-0.4-1.1l-0.9-0.7l-0.2,0.2l-1.2-1.1v-0.4l0.5-1.1
				l0.2-0.9l-0.9-0.4l-0.5,0.2l-0.2-1.1l-0.9-0.7l-0.9-0.9l-0.4-1.1L203.9,233.4z"/>
			<path vector-effect="non-scaling-stroke" class="st6" d="M213.6,228.2l0.9,0.2l0.9-0.5l5.1-0.5v0.2l0.5,5.1l0.4,3.9l-0.2,0.2
				l0.4,0.9l-0.9,0.5h-0.7l0.2,0.7l-0.9,0.9l-0.2,0.9l-0.4,0.4l-0.9-0.5l-0.5,0.5v0.4l-0.5,0.2l-0.2-0.4l-0.9,0.7l-0.7-0.5l-0.5,0.4
				h-0.9l-0.2,0.4l-0.2-0.4l1.4-3.2l-0.2-0.7l-0.4-0.5l0.2-0.9L213.6,228.2z"/>
			<path vector-effect="non-scaling-stroke" class="st6" d="M191.1,222.9l12.8-0.4v0.5l0.4,0.4l-0.4,0.4l0.4,1.4l0.9,0.4l0.2,0.4
				l0.7,0.9l0.5,0.4v1.1l-0.4,0.7l-0.7,0.5l-0.9,0.2l-0.2,0.7l0.5,0.5v0.5l-0.4,0.9l-0.5,0.2l-0.2,0.9l-0.9-0.7l-4,0.4l-3.5,0.2
				h-2.8l-0.4-0.5l0.2-0.7l-0.4-1.6l0.2-0.4l-0.4-0.4v-0.9l-0.5-0.7l-0.5-1.8l-0.5-0.7l0.2-0.5l0.2-1.2l-0.4-0.9L191.1,222.9z"/>
			<path vector-effect="non-scaling-stroke" class="st6" d="M176.7,234.5L194,235l1.1,0.5l-0.5,1.1l0.9,1.2h0.4v7.4l-16-0.4l-4-0.2
				L176.7,234.5z"/>
			<path vector-effect="non-scaling-stroke" class="st6" d="M234.8,232.2l9.3-1.8l1.2,4.2l1.8-0.4l-0.2,1.6l-1.1,0.4l-0.7,0.2
				l-0.5-1.1l-0.7-0.2l-0.4-0.4v-0.5h0.7l-0.9-0.4l-0.2-0.4l0.2-1.8l0.4-0.5V231l-0.9,1.4l0.4,0.5l-0.2,1.1l0.2,0.7l0.5,0.4l0.4,1.1
				l-0.9-0.4h-0.9l-0.4-0.5l-0.5,0.4l-0.2-0.4l0.4-0.5l0.2-0.5l0.4-0.4h-0.5l-1.2-0.4l0.2-0.4l-0.7-0.2l-0.5-0.7l-0.9-0.4l-0.5,0.7
				h-0.5l-0.4-0.4l0,0l-0.4,0.7h-0.4l-0.9,1.1L234.8,232.2z"/>
			<path vector-effect="non-scaling-stroke" class="st6" d="M189.5,204.3h4.7V203l0.7,0.4l0.4,1.8l0.4,0.2l1.6,0.2l0.2,0.4l0.7-0.2
				l0.2-0.4h0.9l1.1,0.5l0.4,0.7l0.2-0.4h0.5l0.2,0.4l0.7,0.2l0.4,0.5l0.7-0.2l0.9-0.5l0.4,0.5l1.4-0.2l0.7,0.4h0.5l-0.9,0.7
				l-1.4,0.4l-1.2,0.9l-0.9,1.2l-1.4,1.2l0.2,0.4l-0.7,0.2v1.9l-0.9,0.5l-0.5,0.7v0.5l0.5,0.4l-0.2,0.5v1.2l-0.2,0.7l0.7,0.5h0.5
				l0.2,0.4l0.7,0.4l0.2,0.5l1.1,0.7l0.5,0.7l0.2,0.9l-12.8,0.4v-6.2l-0.5-0.4l-0.4-0.7l0.5-0.5l0.2-0.7v-0.9l0,0l0,0l0,0l-0.4-1.1
				l-0.2-1.8l0,0V209l-0.7-1.9v-1.4l0.2-0.4L189.5,204.3z"/>
			<path vector-effect="non-scaling-stroke" class="st6" d="M205.8,258.6v-1.4l-0.4-0.5l0.7-0.7l-0.4-0.7l0.5-0.2l0.4-1.1l0.5-0.4
				l0.5-1.9l5.8-0.4l0.4,0.4l-0.2,5.3l-0.2,5.3l0.7,5.1l-0.2,0.2l-1.6-0.2l-0.9,0.4l-0.5,0.5l-0.9-1.2l0,0v-0.9l0,0v-0.7l-5.4,0.4
				l0.2-0.2l-0.2-1.1h0.4v-0.9l0.4-0.2l0.2-1.1l0.9-1.1H206l0.7-0.7l-0.5-0.5l-0.2-1.1l0.2-0.5L205.8,258.6z"/>
			<path vector-effect="non-scaling-stroke" class="st6" d="M147.3,199.5l5.3,1.1l9.8,1.6l11.8,1.4l-0.9,10.2l-0.4,3.2l-16.7-2.1
				l-0.4,1.8l-0.5-1.1H155l-0.2,0.5l-1.4-0.2l-0.4-0.2l-0.4,0.4l-0.9-0.4l-0.4,0.2l-0.4-1.4l-0.7-0.5l0.2-0.7l-0.4,0.4l-0.4-1.1
				v-0.7l-0.4-0.4l-0.9,0.7l-0.5-0.4l0.2-0.7l0.4-0.2l-0.2-0.7l0.5-1.4l0.4-0.4l-0.7-0.2v-0.4l-0.5-0.5l-0.5-1.4l-0.9-1.2l0.2-0.9
				l-0.5-1.1L147.3,199.5z"/>
			<path vector-effect="non-scaling-stroke" class="st6" d="M132.7,220.6l7.2,1.8l7.4,1.6l-3.3,16.9l-0.5,2.6l-0.4,0.5l-0.5-0.5
				h-1.1l0.2,0.7l-0.2,0.5v1.9l-0.4,0.5l-2.6-3.9l-3-4.4l-3.5-5.3l-2.1-3.2L132.7,220.6z"/>
			<path vector-effect="non-scaling-stroke" class="st6" d="M244.8,230.4l0.2-0.7l1.4-1.6l-1.1-0.7l-0.5-0.9l0.2-0.7l-0.4-0.4
				l0.9-1.6l2.3,0.7l-0.2,1.1l-0.4,0.4l0,0l-0.2,0.7h0.7l0.2,0.4l0.2,1.8l-0.4,1.2l-0.5,0.9l-0.4,1.1l-0.4,0.4v-0.7h-0.7l-1.2-0.7
				L244.8,230.4L244.8,230.4z"/>
			<path vector-effect="non-scaling-stroke" class="st6" d="M157.3,242.7l12.7,1.4l3.5,0.4l-0.2,1.8h-0.2l-0.7,9l-0.4,3l-0.2,3.3
				l-10.2-0.9l0.2,0.7l-4.7-0.5l-0.2,1.6l-2.5-0.4L157.3,242.7z"/>
			<path vector-effect="non-scaling-stroke" class="st6" d="M174,203.6l15.5,0.7l0.4,1.2l-0.2,0.4v1.4l0.7,1.9v1.9l0,0l0.2,1.8
				l0.4,1.1l0,0l0,0l0,0v0.9l-9.1-0.4l-8.6-0.5L174,203.6z"/>
			<path vector-effect="non-scaling-stroke" class="st6" d="M173.5,244.5l2.6,0.2l4,0.2l16,0.4v1.8l0.5,3.9v6l-1.1-0.4l-0.9-0.7
				l-0.2,0.4l-0.9-0.2l-0.7,0.4h-0.9l-0.5,0.5l-1.6-0.9l-0.7,0.7v-0.5l-0.7,0.4l-0.7-0.5l-0.5,0.5l-0.2-0.5l-1.2-0.5l-0.4,0.4
				l-1.4-0.5h-0.5l-0.2-0.7h-1.2l-0.9-0.7l0.4-6.7h-0.9l0,0l-7.2-0.4L173.5,244.5z"/>
			<path vector-effect="non-scaling-stroke" class="st6" d="M231,225l1.8-1.2l0.2,0.9l10.9-2.1l0.9,0.5l0.2,0.7l1.1,0.7L245,226
				l0.4,0.4l-0.2,0.7l0.5,0.9l1.1,0.7l-1.4,1.6l0,0h-0.5l-0.4,0.5l-9.3,1.8l-2.6,0.5l-0.5-3.2L231,225z"/>
			<path vector-effect="non-scaling-stroke" class="st6" d="M227.6,249.6l1.4-0.7l0,0l0.7-0.2l3.3-0.4l0.9,0.5v0.4l3-0.5l3.7,2.6
				l-0.7,0.5l-0.5,1.1l-0.2,1.1l-0.4,0.7h-0.5v0.5l-1.1,1.2l-1.2,0.7l0.2,0.5l-0.5,0.4l-0.5,0.9l-0.7-0.2l-0.5-1.2l-0.4-0.2l0,0l0,0
				l0,0l-0.4-0.4l0,0l-0.4-1.1l-0.7-0.4l-0.7-0.7v-0.4l-0.9-0.5l-0.2-0.4l-0.9-0.5l-1.2-1.8h-0.5l-0.9-0.7L227.6,249.6z"/>
			<path vector-effect="non-scaling-stroke" class="st6" d="M173,217.1l0.4-3.2l8.6,0.5l9.1,0.4l-0.4,0.5l-0.5,0.5l0.4,0.7l0.5,0.4
				v6.2h-0.4l0.4,0.9l-0.2,1.2l-0.2,0.5l0.5,0.7h-0.5l-0.2-0.5l-1.6-0.7h-1.2l-0.4,0.4l-1.2-0.7v-0.2l-13.7-0.7L173,217.1z"/>
			<path vector-effect="non-scaling-stroke" class="st6" d="M147.3,223.8l7.4,1.2l-0.5,3.3l5.1,0.7l-1.2,9.3v0.4l-0.5,4l-13.4-2.1
				L147.3,223.8z"/>
			<path vector-effect="non-scaling-stroke" class="st6" d="M246.1,211.3l4.2-1.1v0.7l0,0l0.2,1.1l-0.4,0.7l-0.5,0.2l0.2,0.7
				l-0.2,1.2l-0.2,0.7l0.2,1.8v0.7l0.4,0.4l-1.9,0.4l-0.5-2.6l-0.5-0.2v-0.5l-0.4-0.9V213l-0.4-0.5L246.1,211.3z"/>
			<path vector-effect="non-scaling-stroke" class="st6" d="M227.4,237.8l0.7-0.2l0.4-0.5l-0.2-0.7l0.4-0.9l0.5,0.5l0.4-1.4l0.5-0.5
				h0.5l0.9-1.2v-1.2l0.2-0.9l-0.4-0.9l0.4-0.2l0.5,3.2l2.6-0.5l0.4,1.8l0.9-1.1h0.4l0.4-0.7l0,0l0.4,0.4h0.5l0.5-0.7l0.9,0.4
				l0.5,0.7l-0.2,0.7l-1.6-0.9v1.1l-0.9,1.1l-0.2,0.5l-0.4-0.2l-0.4,1.4l-0.5,0.2l-0.5-0.4l-0.2,0.9l-0.5,1.4l-0.5,0.9l0,0v0.9
				l-0.5,0.2l-0.9,0.7l-0.9,0.4l-0.5-0.2l0,0l-0.2,0.2l0,0l-0.5,0.4l-0.9-0.7l0,0v-0.2l0,0v-0.2l-0.9-0.4l-1.2-1.4L227.4,237.8z"/>
			<path vector-effect="non-scaling-stroke" class="st6" d="M173,217.1l-0.5,6.9l-0.5,6.9l-12.7-1.4l-5.1-0.7l0.5-3.3l1.4-8.3
				l0.4-1.8L173,217.1z"/>
			<path vector-effect="non-scaling-stroke" class="st6" d="M236.6,284.2l1.1-1.1l0.5,0.5L236.6,284.2z M224.1,264l0.5,0.9l3.5-0.2
				l4.2-0.4l0.2,0.5h0.5l-0.2-1.1l0.2-0.5l1.6,0.2l0.4,1.4l0.7,1.6l1.2,2.1l1.4,1.6l0.2,1.4l0.9,1.4l1.6,3l0.4,3.3l-0.5,1.1l0.2,0.5
				l-0.2,0.7l-0.9,0.4l-1.2,0.4l-0.2-0.9l-0.7-0.9l-0.9-0.5l-0.5,0.2l-0.9-1.8l-0.7-0.4v-1.2l-0.5,0.5l-1.6-2.1l0.7-1.4l-0.9-0.5
				l0.4,0.7l-0.4,0.5l-0.4-0.5l0.2-2.5l-0.2-1.1l-0.5-0.9l-0.7,0.2l-0.7-0.9l-0.5-0.2l-0.2-0.5l-0.9-0.7l-1.1-0.5l-0.7,0.2l-0.2,0.7
				h-0.5l-0.9,0.7l-1.2,0.4l-0.4-0.9l-1.9-0.9l-0.9-0.2h-0.9l-2.6,0.7l0.2-1.1l0,0v-0.4l-0.7-0.5v-0.5L224.1,264z"/>
			<path vector-effect="non-scaling-stroke" class="st6" d="M210.7,244.7l-0.2-0.4l0.5-0.5l1.2,0.4l-0.2-1.1l1.1-0.4l-0.4-0.7
				l0.4-0.5l0.2-0.4h0.9l0.5-0.4l0.7,0.5l0.9-0.7l0.2,0.4l0.5-0.2v-0.4l0.5-0.5l0.9,0.5l0.4-0.4l0.2-0.9l0.9-0.9l-0.2-0.7h0.7
				l0.9-0.5l-0.4-0.9l0.2-0.2l0.9-0.2l0.4,0.2l0.4,0.7h0.9l0.5,0.4l0.4-0.4l0.5,0.4l1.1-0.7l0.2,0.5l0.7,0.5v1.1l1.2,1.4l0.9,0.4
				l-0.9,1.1l-0.9,0.7l-0.4,0.9l-0.5,0.5l0,0l-1.4,0.7l0,0l-3.5,0.4l-2.1,0.2l-2.1,0.2l-3.3,0.4l-0.5-0.2l0.2,0.5l-3.7,0.4l0.4-0.2
				l0.4-0.7L210.7,244.7z"/>
			<path vector-effect="non-scaling-stroke" class="st6" d="M203.9,270.3l0.4-0.2l0.7,0.2l-0.2,0.2L203.9,270.3z M197.7,258.7
				l8.1-0.2l0.4,0.4l-0.2,0.5l0.2,1.1l0.5,0.5l-0.7,0.7h0.5l-0.9,1.1l-0.2,1.1l-0.4,0.2v0.9h-0.4l0.2,0.7l-0.2,0.2l5.4-0.4v0.7l0,0
				v0.9l0,0l0.9,1.2l-0.9,0.9l0.7,0.2l0.4-0.4l0.7,0.4l-0.5,0.7l-0.7,0.2l0.5,0.9h0.5l0.9,0.9l-0.5,0.2l-0.5,0.5l0.4-0.9l-0.2-0.2
				l-1.2-0.9l-0.5-0.2l-0.2,0.9l-0.5,0.4l-0.7-0.9l-1.1,1.1l-0.5-0.4l-0.9-0.2l-0.4-0.9l-0.4,0.2l-0.5-0.9l-0.7,0.2v-0.4l-0.9,0.4
				l0.2,0.4l-0.7,0.4l-1.1-0.2l-1.6-0.5h-0.9l-1.1,0.4l-0.4-0.4l0.7-0.9l-0.2-1.6l0.5-1.1l0.2-0.7l-0.5-1.2l-0.5-0.7l0.2-0.4
				l-0.7-0.9L197.7,258.7z"/>
			<path vector-effect="non-scaling-stroke" class="st6" d="M259.2,209.4v0.5l-0.4-0.2v0.5l-0.7,0.4l-0.2-0.5l-0.2,0.5l0.2,0.5h-0.9
				l-0.2-0.7l-0.2,0.7l-0.2,1.1l-0.2,0.7l-0.4-0.2v0.5l-0.7,0.7l-0.7-0.2l-0.2,1.1v0.7l-0.4,0.2l-0.2,0.9l-0.9-0.9l-1.1-3.5
				l-0.9-2.8l0.5,0.2l0.2-1.1l0.7-1.6l-0.4-0.9l0.4-0.9l-0.2-0.9l1.1-3h0.4l0.2,0.5l0.4,0.2l1.2-1.1l1.4,0.7l1.2,3.7l0.2,0.9h0.9
				l0.2,1.1l0.5,0.4l0.4-0.2l0.7,1.1l-0.2,0.5l-0.9,0.7L259.2,209.4z"/>
			<path vector-effect="non-scaling-stroke" class="st6" d="M256.8,221.7l0.5-0.4l0.2,0.4H256.8z M255.2,222l0.5-0.5l0.5,0.4
				L255.2,222z M248.2,218.8l1.9-0.4l2.8-0.7l0.5-0.7l0.5-0.2l0.2,0.5h0.5l-0.5,0.5l-0.2,0.9l0.4-0.2l0.7,0.5l0.7,1.1l1.1-0.4
				l-0.2-0.7l0.5,0.9l-0.9,0.5l-0.7,0.5v-0.5l-0.9,0.9l-0.4-0.5l-0.2-0.2l-0.4-0.2l-0.4-0.7l-1.1,0.4l0,0l-4,0.9V221L248.2,218.8z"
				/>
			<path vector-effect="non-scaling-stroke" class="st6" d="M216.9,214.5l0.2-0.5l0.2,0.5H216.9z M215.3,227.8l0.5-0.7l0.7-1.9v-1.4
				l-0.2-0.7l-0.7-1.4l0.2-0.7l-0.4-0.9l0.5-1.1l-0.2-1.1l0.4-0.4v-0.5l0.5-0.2l0.4-0.9l0.2,0.4l-0.2,0.7l0.4,0.4l0.2-0.9v-1.1
				l1.1-0.5l-0.5-0.5l0.4-0.7l0.5-0.2l0.7,0.4h0.5l0.4,0.4l1.6,0.4l0.5,0.9l-0.4,0.2l0.5,1.1v1.2l-0.4,0.4v0.7l-0.5,0.4l-0.2,0.9
				l0.7,0.5l0.9-1.4l0.7-0.4l0.5,0.2l0.4,0.7l0.5,1.8l0.4,0.7v1.4h-0.7l-0.2,1.1l-0.4,0.2l-0.2,1.1l-0.5,1.1l-3.3,0.5v-0.2
				L215.3,227.8z M207.8,207.6l0.2-0.2l1.4-0.9h0.4l-0.5,0.5l-1.1,0.7L207.8,207.6z M205.3,212.2l0.9-0.4l0.5-0.5l0.9-0.2l1.1-0.7
				l0.2-0.4l1.4-1.2l1.1-0.2l0.2,0.2l-1.2,0.9l-0.4,0.7l0.2,0.5l0.4-0.5h0.9l0.9,0.7l0.5,0.7l0.9-0.2l0.9,0.4l1.1-1.1l1.6-0.2
				l1.2-0.5v1.1l0.9-0.2l0.2,0.2l0.4-0.4l0.7-0.2l0.2,0.9l-0.4,0.2l0.5,0.2l0.4,0.5l-1.4,0.2l-0.4-0.2l-0.4,0.7l-0.5-0.4l-1.2-0.2
				l-0.4,0.5l-1.6,0.4v0.5l-0.9,0.5l0.4-0.7h-0.5l-0.4,0.7l-0.2-0.5l-1.2,2.6l-0.4-0.2l0.2-0.5h-0.5l0.2-1.1l-0.9-0.4v-0.4l-1.1-0.2
				l-0.4,0.2l0,0h-0.2l0,0l-0.9-0.4l-2.5-0.5l-0.5-0.5l0,0v-0.2l0,0L205.3,212.2z M221.1,212.5l0.4-0.2l0.2,0.5h-0.9L221.1,212.5z"
				/>
			<path vector-effect="non-scaling-stroke" class="st6" d="M192.8,232.9h2.8l3.5-0.2l4-0.4l0.9,0.7l-0.2,1.2l0.4,1.1l0.9,0.9
				l0.9,0.7l0.2,1.1l0.5-0.2l0.9,0.4l-0.2,0.9l-0.5,1.1v0.4l1.2,1.1l0.2-0.2l0.9,0.7l0.4,1.1l-0.2,0.4l0.7,0.9h0.4l0.2,0.7l-0.4,0.7
				l-0.4,0.2h-0.2h-0.2v0.9H209l0.4,0.4l-0.4,0.5l-1.8,0.2l0.7-1.1l-0.2-0.5l0,0v-0.2L196,247v-1.8v-7.4h-0.4l-0.9-1.2l0.5-1.1
				l-1.1-0.5l-0.4-0.9l-0.4-0.4L192.8,232.9z"/>
			<path vector-effect="non-scaling-stroke" class="st6" d="M172.3,223.8l13.7,0.7v0.2l1.2,0.7l0.4-0.4h1.2l1.6,0.7l0.2,0.5h0.5
				l0.5,1.8l0.5,0.7v0.9l0.4,0.4l-0.2,0.4l0.4,1.6l-0.2,0.7l0.4,0.5l0.4,0.9l0.4,0.4l0.4,0.9l-17.4-0.5l0.2-3.3l-5.1-0.4
				L172.3,223.8z"/>
			<path vector-effect="non-scaling-stroke" class="st6" d="M250.5,210.9L250.5,210.9v-0.7l0.2-0.9l0.5-0.4l0.9,2.8l1.1,3.5l0.9,0.9
				l-0.2,0.7l-0.5,0.2l-0.5,0.7l-2.8,0.7l-0.4-0.4v-0.7l-0.2-1.8l0.2-0.7l0.2-1.2l-0.2-0.7l0.5-0.2l0.4-0.7V210.9z"/>
			<path vector-effect="non-scaling-stroke" class="st6" d="M232.5,223.8l1.1-1.1l0.9-1.1l-0.7-0.9l-0.2-0.7l1.4-0.7l1.8-0.2
				l0.7,0.2l1.4-0.4l1.1-1.1l0.4-0.2l-0.4-1.1l0.4-0.2l-0.7-0.9l0.7-0.7l1.2-1.9l0.7-0.7l3.9-1.1l0.2,1.4l0.4,0.5v1.4l0.4,0.9v0.5
				l0.5,0.2l0.5,2.6v2.3v0.2l0.5,2.6l0.2,0.2l-0.5,0.5l0.4,0.4l0,0l-0.2,0.7l0.9-0.7l1.9-0.5l0.5-0.7l0.7,0.4l-0.7,0.5l-1.6,1.1
				l-2.1,0.9l-0.4-0.5l0.2-1.1l-2.3-0.7l-1.1-0.7l-0.2-0.7l-0.9-0.5l-10.9,2.1L232.5,223.8z"/>
			<path vector-effect="non-scaling-stroke" class="st6" d="M224.8,249.2L224.8,249.2l0.2-0.5l0.5-0.7l0.7-0.2l0.5-0.7l0.7-0.2
				l0.5-0.9h0.5l1.1-0.9h0.5l0.7-1.1v-0.7l3.7-0.5l4.7-0.9l7-1.4l-0.2,0.5l0.2,0.7l-0.4,0.4l-1.6,1.1l0.9-0.2l0.5-0.4l0.5,0.2
				l0.2-0.4l0.7,0.9l-0.9,1.4H244l1.4,0.4v0.7l-0.4,0.7l0.7-0.7l0.5,0.2l-0.5,1.1l-1.6,0.5l-1.1,1.2l-0.5,1.1l-0.2,1.2L242,251
				l-1.2,0.4l-3.7-2.6l-3,0.5v-0.4l-0.9-0.5l-3.3,0.4l-0.7,0.2l0,0l-1.4,0.7l-3.3,0.5v-0.9H224.8z"/>
			<path vector-effect="non-scaling-stroke" class="st6" d="M220.4,227.5l3.3-0.5l1.2,0.5l0.4-0.2l1.1,0.5l1.1-0.7h0.7l1.1-1.1
				l1.8-1.1l0.7,4.6l-0.4,0.2l0.4,0.9l-0.2,0.9v1.2l-0.9,1.2h-0.5l-0.5,0.5l-0.4,1.4l-0.5-0.5l-0.4,0.9l0.2,0.7l-0.4,0.5l-0.7,0.2
				l-0.7-0.5l-0.2-0.5l-1.1,0.7l-0.5-0.4l-0.4,0.4l-0.5-0.4h-0.9l-0.4-0.7l-0.4-0.2l-0.9,0.2l-0.4-3.9L220.4,227.5z"/>
			<path vector-effect="non-scaling-stroke" class="st6" d="M128.2,204.3l0.5,0.5h0.4l0.5,0.9l-0.2,1.1l1.1,0.7l1.1-0.2l0.7,0.2
				l0.7,0.5l1.4-0.2l0.9,0.4l0.7-0.2h1.1l0.9,0.2l0.4-0.2l4.7,1.1l0.2,0.7l0.4,0.2l0.2,0.5l-1.2,1.8l-0.4,0.7h-0.4l-0.7,1.1v0.5
				l0.5,0.5L141,216l-1.4,6l-7.2-1.8l-5.8-1.6l-4.4-1.2l-0.2-0.4l0.2-1.2l0.4-0.7l-0.2-0.7l1.4-1.9l0.5-1.1l2.3-5.8l0.4-1.8l0.7,0.4
				L128.2,204.3z"/>
			<path vector-effect="non-scaling-stroke" class="st6" d="M254,221.1l0.4,0.5l-0.5,0.2L254,221.1z M252.7,222.7v-0.4l-0.5-1.9
				l1.1-0.4l0.4,0.7l0.4,0.2h-0.4v1.2L252.7,222.7z"/>
			<path vector-effect="non-scaling-stroke" class="st6" d="M209.3,248l0.4-0.5l-0.4-0.4h0.5v-0.9h0.2h0.2l3.7-0.4l-0.2-0.5l0.5,0.2
				l3.3-0.4l2.1-0.2l2.1-0.2l3.5-0.4l0,0l5.3-0.7v0.7l-0.7,1.1h-0.5l-1.1,0.9h-0.5l-0.2,0.5l-0.7,0.2l-0.5,0.7l-0.7,0.2l-0.5,0.7
				l-0.2,0.5l0,0l-0.5,0.2v0.9l-3.5,0.4l-7.2,0.5l0,0l-5.8,0.4l0.7-0.5l-0.4-0.9l0.9-0.7l-0.4-0.4l0.7-0.5L209.3,248z"/>
			<path vector-effect="non-scaling-stroke" class="st6" d="M187.9,279.8l0.2-1.6l0.4-0.9l-0.4,1.8L187.9,279.8z M173.3,246.3
				l7.2,0.4l0,0h0.9l-0.4,6.7l0.9,0.7h1.2l0.2,0.7h0.5l1.4,0.5l0.4-0.4l1.2,0.5l0.2,0.5l0.5-0.5l0.7,0.5l0.7-0.4v0.5l0.7-0.7
				l1.6,0.9l0.5-0.5h0.9l0.7-0.4l0.9,0.2l0.2-0.4l0.9,0.7l1.1,0.4l0.4,0.4h1.1v1.8v3.5l0.7,0.9l-0.2,0.4l0.5,0.7l0.5,1.2l-0.2,0.7
				l-0.5,1.1l0.2,1.6l-0.7,0.9l0.4,0.4l-0.7,0.2l-1.9,0.9l0.7-0.5l-0.7,0.2l0.2-0.9l-0.9,0.7l0.4,0.2v0.7l-1.4,1.4l-2.5,1.2
				l-1.4,1.1L189,276l0.4-0.9l1.4-0.9h-1.1v0.5l-0.7,0.4l-0.4,0.7l-0.7,0.2l0.4,0.5l-0.5,1.2l-0.2,1.8l0.2,1.1l0.4,0.7v0.5l0.5,0.5
				l-1.2,0.2l-0.9-0.5h-1.4l-0.7-0.5h-0.7l-0.4-0.5l-0.9-0.2l-0.5-1.6l-0.5-0.7v-1.6l-0.4-0.5l-0.9-0.5l-0.5-1.2l-0.4-0.2l-0.5-1.4
				l-0.7-1.1v-0.5L177,270l-0.5-0.2l-0.4-0.9l-1.9-0.2l-0.7-0.4l-0.2,0.4h-0.9l-1.6,2.5L170,271l-1.1-0.9l-0.7-0.2l-0.4-0.2
				l-0.9-0.7l-0.4-0.9v-1.1l-0.4-0.5l-0.4-1.1l-1.1-0.7l-1.4-1.8l-0.7-0.4l-0.4-0.9l-0.4-0.2l-0.2-0.7l10.2,0.9l0.2-3.3l0.4-3
				L173.3,246.3L173.3,246.3z"/>
			<path vector-effect="non-scaling-stroke" class="st6" d="M245.9,236.1l1.1-0.4l-0.7,1.2v0.5l-0.4,1.4l-0.4,0.4l-0.2-0.5v-1.4
				l0.4-0.9L245.9,236.1z M225.5,244.5l1.4-0.7l0,0l0.5-0.5l0.4-0.9l0.9-0.7l0.9-1.1v0.2l0,0v0.2l0,0l0.9,0.7l0.5-0.4l0,0l0.2-0.2
				l0,0l0.5,0.2l0.9-0.4l0.9-0.7l0.5-0.2v-0.9l0,0l0.5-0.9l0.5-1.4l0.2-0.9l0.5,0.4l0.5-0.2l0.4-1.4l0.4,0.2l0.2-0.5l0.9-1.1v-1.1
				l1.6,0.9l0.2-0.7l0.7,0.2l-0.2,0.4l1.2,0.4l0.4,0.4l-0.2,0.5l-0.4,0.7l0.4,0.4l0.5-0.4l0.4,0.5h0.7l1.4,0.7v0.9l0.4,1.1l-0.4,0.2
				l0.5,0.7l-0.5,0.5l1.4-0.2l0.5,1.1l-7,1.4l-4.7,0.9l-3.7,0.5L225.5,244.5z"/>
			<path vector-effect="non-scaling-stroke" class="st6" d="M131.5,201.3l0.2-0.5l0.2,0.5H131.5z M131.8,198.3l0.4-0.4l0.4,0.4
				l-0.4,0.2v0.7h0.4l-0.2,0.4L132,199L131.8,198.3z M131.7,196.9l0.4-0.2l0.4,0.4L131.7,196.9z M145,199.2l-1.9,8.6v1.4l-4.7-1.1
				l-0.4,0.2l-0.9-0.2h-1.1l-0.7,0.2l-0.9-0.4l-1.4,0.2l-0.7-0.5l-0.7-0.2l-1.1,0.2l-1.1-0.7l0.2-1.1l-0.5-1.1h-0.4l-0.5-0.5
				l-0.7-0.2l-0.2-0.5l0.9-0.9l-0.5-0.4l0.2-0.4l0.7-0.2l-0.7-0.5v-1.4l0.2-1.2l-0.4-0.5l0.2-1.1l0.4-0.5l1.1,1.1l2.6,1.1l0.2,0.9
				l-0.5,0.2l-0.2,0.5h0.4l0.7-0.7l-0.2,0.9l-0.5,1.2l-0.4-0.2v0.7l0.5-0.5h0.5v-1.1l0.9-1.1l-0.2-0.7l0.2-1.8l-0.5-0.9l0.2-0.2
				L145,199.2z"/>
			<path vector-effect="non-scaling-stroke" class="st6" d="M201.6,211.8h0.5l1.6-0.7l0.5-0.4l0.4,0.2l-0.4,1.1l0.5-0.4l0.7,0.4h0.2
				l0,0v0.2l0,0l0.5,0.5l2.5,0.5l0.9,0.4l0,0h0.2l0,0l0.4-0.2l1.1,0.2v0.4l0.9,0.4l-0.2,1.1h0.5l-0.2,0.5l0.4,0.2l-0.9,1.4v0.5
				l0.7-0.4l0.4-0.7l0.5-0.4l0.7-1.4l0.2,0.7l-0.5,1.1l-0.4,0.9v1.2l-0.4,0.4l-0.2,0.9l0.2,0.7l-0.4,1.6l0.4,1.2l0.2,0.4v1.1l-7,0.5
				l-0.2-0.4l-0.9-0.4l-0.4-1.4l0.4-0.4l-0.4-0.4v-0.5l-0.2-0.9l-0.5-0.7l-1.1-0.7l-0.2-0.5l-0.7-0.4l-0.2-0.4h-0.5l-0.7-0.5
				l0.2-0.7v-1.2l0.2-0.5l-0.5-0.4V215l0.5-0.7l0.9-0.5v-1.9L201.6,211.8z"/>
		</g>
	</g>
	<g pointer-events="none">
	</g>
</g>
<path class="st6" d="M153.8,121.5l0.3-0.3l0.4,0.3h0.9l0.3,0.3l0.8-0.1l-0.3-0.9l-0.5-0.5h-0.3l-0.4-0.7l-1.2-0.8l-0.1-0.4l-2.1-1.3
	l-1.2-1.2v-0.3l-1.3-1.3v-0.4l-0.8-0.9l-0.3-0.7l-0.9-0.9l-0.1-0.3h-0.3l-0.5-0.5l-0.1-0.4h-0.3l-0.5-0.5v-0.3l-2-2l-0.4-0.8
	l-0.7-0.7v-0.3l-1.1-1.4v-0.1l-0.7-0.7v-0.3l-1.1-1.1l-0.3-1.4l-0.8-0.8l-0.7,0.3l-0.3,0.4v0.3l-0.4,0.3v0.9l0.8,1.7l-0.3,0.3h-0.4
	l-0.8-0.5l-0.1-0.9l-0.3,0.1L136,103h-0.4l-0.8,0.7l-0.3-0.1l0.3-0.3l-0.3-0.5l-0.4,0.3l-0.8-0.1l0.3-0.5h0.7l0.8-0.3l-0.3-0.5
	l-0.3-0.1v-0.3l-0.7-0.4v-0.5l0.5-0.1l0.1-0.3l0.3-0.1l0.8,0.9l0.5-0.1l-0.3-0.4l0.3-0.1l0.7,0.7h0.4l1.1-0.9l0.5-0.4v-0.7l-1.1-2.4
	l-0.4-0.7v-0.4l-1.3-1.3l-0.1-0.3h-0.4l-0.7-0.7h-0.3l-1.4-0.9h-0.4l-0.1-0.4l-1.3-1.2l-2-1.3h-0.4l-0.4-0.4h-0.3l-0.8-0.8l-0.7-0.3
	l-0.4-0.4h-1.1l-0.3-0.3H121l-0.3-0.3h-1.1l-0.3-0.3h-1.7l-0.3-0.3h-0.8l-0.3,0.3h-2.8l-0.3-0.3h-0.7l-0.3-0.3l-1.7-0.4l-1.4-1.1
	H109l-1.4-0.9h-2l-0.8,0.4h-2l-0.8-0.4h-0.3l-0.7-0.4l-1.1-0.3l-0.8-0.4h-1.4l-2.1-1.1l-2.2-2.1v-0.3l-0.4-0.3v-0.3l-0.5-0.5h-0.3
	L91,77.1l-0.7-0.3l-0.7-0.7l-0.8-0.4l-0.1-0.3l-1.2-1.2h-0.3l-1.1-1.1H86l-2-1.7l-1.3-0.7L82,70.1V70l-1.1-2.1l-0.8-0.7V67l-0.7-0.7
	l-0.7-1.7l-0.4-0.4l-0.7-1.3l-1.3-1.3l0.3-0.3v-0.7l-0.3-0.3l-0.4-1.7l-0.3-0.3v-0.4l0.3-0.3l-0.3-1.3l-0.3-0.3l0.3-0.7l-0.3-0.3
	v-1.7l-0.3-0.3l0.3-1.6l0-0.1h-0.8l-0.1,0.3l-0.4-0.1l0.5-0.5l1.2-0.1l-0.3-1.6l-0.3-0.3l-0.3-0.9l-0.7-1.1l-0.7-0.7V46l-0.7-1.1
	v-0.4l-0.4-0.4l-0.4-0.9l-0.7-0.7v-0.1l-0.4-0.3v-0.3l-0.4-0.3v-0.3l-0.8-0.9l-1.1-0.7h-1.4l-0.3-0.3h-1.4l-0.8-0.4l-0.4,0.3
	l-0.4-0.7H64l-0.7-0.4h-0.7L62.3,38h-0.4l-0.3-0.4h-0.4l-0.3-0.3l-3.2-1.7L57,34.7l-0.3,0.3l-0.3-0.4h-0.3l-0.8-0.9l-0.8-0.4
	L54,32.6l-0.8-0.3l-1.1-1.1l-0.8-0.4H50l-0.5,0.5v0.4l-0.4,0.4l-0.4,1.1l-0.7,0.4V34l0.8,1.1h0.3l0.5,0.5v0.3l0.8,1.1l-0.3,0.3v0.4
	L49.9,38l-0.4,0.3v0.9l0.3,0.3v0.4l0.7,0.7v0.4l0.3,0.3l0.3,0.4l-0.7,0.9v0.7l0.3,0.3l0.3,0.9l-0.4,0.4V46l0.3,0.3v0.4l0.8,1.1
	l-0.4,0.4v2.1l0.3,0.3v1.1l0.7,0.7l0.3,0.9l0.7,0.4l-0.5,0.1L52,54.2h-0.7l-0.5,0.5V55L50,56.1l0.3,0.3l0.3,0.9l1.1,1.1l0.3,1.1
	l0.5,0.5l0.8,0.3l1.2,1.6l0.3,0.9l0.5,0.5H57l0.8-0.9l0.4-0.1l-0.3-0.3v-0.9l-0.8-0.1l0.3-0.3l0.4,0.7l0.3-0.3v-0.4l-0.4-0.4
	l0.1-0.1h0.3l0.7,0.7l0.7,0.3l0.1,0.4l-1.4,0.3l-0.3,0.3v0.4l0.3,0.3l-0.5,0.1L57,63.2v0.4l0.8,1.1v0.3l0.8,0.8H59l2.4,2.4l0.7,0.3
	l0.1,0.5l0.8,0.9v0.7l-0.3,0.3v0.9l0.3,0.3v0.4l1.8,0.1l0.5,0.5l0.3,0.9l0.8,0.7l-0.3,0.3v1.3l1.4,0.4v1.7l0.3,0.3l-0.3,0.4l0.3,1.6
	l0.3,0.5l0.8,0.3l0.4,0.3v0.3l0.4,0.4v0.7l0.3,0.5l0.8,0.3l1.3,0.7l0.4,0.4H73l0.8,0.4h0.7l0.3-0.3h0.4l0.3-0.5l1.3-1.7l0.1-0.8h0.7
	l1.1-0.7l0.3,0.3h0.4l1.7,0.9h0.7l0.3,0.4h0.3l0.4,0.4l0.7,0.3l0.1,0.5l1.4,1.3v0.4l-0.3,0.3v1.1l0.7,0.4l0.4,1.3l0.4,0.4v0.7
	l1.3,1.4h0.3l0.3,0.4l0.5,0.3l0.3,0.4l0.3,1.7l0.3,0.3l0.3,0.1v0.3l0.4,0.4l-0.4,0.9v0.4l1.8,2.1l0.3-0.3h0.4l0.3,0.3h1.1l0.3,0.4
	v0.4l0.5,0.5l0.7,0.3l0.4,0.4l0.8,0.3l0.4,0.4h0.3l0.5,0.8v0.7l0.3,0.4l0.7,0.3l1.4,1.3l1.8,0.9l0.3,0.3l1.1,0.3l0.3,0.3l1.1,0.3
	l0.1,0.3h0.7l0.3,0.3h0.7l0.4,0.7h0.4l0.3-0.3l0.3,0.3h0.8l0.3,0.3l0.4,0.3h0.7l1.1,0.7h0.4l0.4,0.4h0.4l0.4,0.4l0.7,0.3l0.7,0.7
	l0.9,0.4h0.4l0.4,0.4l0.8,0.3l0.3,0.8h1.1l1.3,1.1h0.4l1.1,0.9l0.4-0.3l0.1,0.5l0.4,0.1l0.1,0.3l0.8,0.5l0.7,0.3l1.2-1.4v-0.3
	l0.5-0.3l0.8,0.5l0.3,2.1l0.7,0.4v0.3l0.5,0.5h0.8l0.7-0.4l0.7,0.7h0.4l0.8,0.4l2.4,2.6h0.4l0.3,0.3l0.3-0.1l-0.5-0.5h-0.3l-1.6-1.8
	l0.3-0.1l0.3,0.3h0.7l0.5,0.5v0.7l0.9,0.9l1.1,0.3l0.9,0.4l0.5,0.5l-0.3,0.1l-1.3-0.9l-0.8,0.1l0.5,0.1l0.3,0.3h0.3l0.8,0.9h1.4
	l0.9,0.7h1.1l0.1,0.4l0.8,0.5h0.4l0.3,0.3h0.9l0.8,0.4h0.7l0.3,0.3l1.3,0.3l2.1-2.4l1.1-0.4h0.7l0.3,0.3h2.5l0.7,0.4l1.1,0.3
	l0.3,0.3h3.5l0.5-0.3l-0.3-0.4h-0.7l-0.3,0.3l-1.3-0.1l0.3-0.5h-0.1V121.5z M179.7,137.2v-1.4l-0.3-0.3v-0.7l-0.5-0.5h-1.2l-0.1,0.1
	v1.1l0.4,0.7v1.3l0.3,0.3l0.3,0.4v1.1l0.3,0.5l0.5-0.3V139l0.4-0.4v-0.4l0.3-0.3v-0.4L179.7,137.2z"/>
</svg>
