<?xml version="1.0" encoding="utf-8"?>
<!-- Generator: Adobe Illustrator 23.0.1, SVG Export Plug-In . SVG Version: 6.00 Build 0)  -->
<svg version="1.1" id="Layer_1" xmlns="http://www.w3.org/2000/svg" xmlns:xlink="http://www.w3.org/1999/xlink" x="0px" y="0px"
	 viewBox="0 0 300 300" style="enable-background:new 0 0 300 300;" xml:space="preserve">
<style type="text/css">
	
		.st0{fill-rule:evenodd;clip-rule:evenodd;fill:#FCD4C7;stroke:#999999;stroke-width:0.25;stroke-linecap:round;stroke-linejoin:round;}
	
		.st1{fill-rule:evenodd;clip-rule:evenodd;fill:#FFE3CA;stroke:#999999;stroke-width:0.25;stroke-linecap:round;stroke-linejoin:round;}
	.st2{fill:none;}
	.st3{font-family:'GoodlifeBrush';}
	.st4{font-size:30px;}
	.st5{font-size:12px;}
	.st6{fill:#E0B19E;}
	.st7{enable-background:new    ;}
	.st8{fill:#757575;}
	.st9{font-size:18px;}
	.st10{letter-spacing:31;}
</style>
<path class="st0" d="M368.8-35.9l-0.3,0.2l-0.6,0.2l-0.2,0.2h0.2l0.9,0.5h0.2l0.3-0.1l0.1-0.1l0.1-0.2l0.4-0.2l-0.3-0.3L368.8-35.9z
	 M356.3-49.2l0.4-0.2l0.4-0.3l0.5-0.3l0.2-0.2h-0.5l-0.2-0.1l-0.5-0.5H356l-0.5,0.2v0.7l0.3,0.5h0.2L356.3-49.2z M349.6-54.3
	l0.4-0.2l0.3-0.4l0.1-0.2l0.1-0.2l0.5-0.1l0.5-0.1l0.3-0.5h-0.3l-0.1-0.1l0.1-0.5l-0.1-0.4l0.2,0.1l0.2,0.1l0.2,0.3l0.2,0.1l0.1-0.3
	l-0.1-0.3l-0.1-0.4l-0.2-0.2l-0.7-0.1l-0.3,0.1l-0.3,0.1v-0.2l0.5-0.2l0.3-0.2v-0.3l-0.6-0.5l-0.4-0.6l-0.1-0.6l-0.4-0.4h-0.5
	l-0.6-0.1h-0.4l-1,0.3l-0.6,0.1h-0.3h-0.3l-0.4,0.6l-0.3,0.2h-0.3l-0.1-0.2l-0.7,0.4l-0.1,0.1L344-59v0.2l-0.3,0.3l-0.2,0.3
	l-0.3,0.1l-0.4,0.1l-0.2,0.1h-0.3H342l-0.2,0.1v0.1l0.1,0.1l0.3,0.1l0.3,0.1v0.1l-0.2,0.1l-1.1,0.3l-0.3,0.2l-0.1,0.1l0.1,0.2
	l0.8,0.7l0.1,0.1l0.1,0.4l0.7,0.2l0.3,0.2l0.3,0.1h0.6l0.2,0.1l0.1-0.1l0.1-0.1l0.5-0.3l0.2-0.1l-0.1-0.2l-0.1-0.1l0.3-0.3l0.4-0.3
	h0.2l0.3,0.2l0.2,0.3v0.2v0.1l0.2,0.3l0.1,0.1l0.4,0.1l0.1,0.1l-0.1,0.4v0.1h0.4h0.5h0.2l0.2-0.1l0.3-0.1h0.4l0.4,0.2L349.6-54.3z
	 M353.9-62h0.5l0.1-0.3v-0.4l-0.2-0.5l-0.1-0.1l-0.3-0.1h-0.3l-0.1,0.1l-0.1,0.1l-0.1,0.3l0.2,0.8l0.2,0.1L353.9-62z M349.3-62.9
	h0.2l0.7-0.3l0.2-0.2v-0.1l-0.1-0.4l-0.1-0.7l-0.4,0.1l-0.4,0.3l-0.1-0.1h-0.1l-0.2,0.1l-0.2,0.1l-0.1,0.1v0.2l-0.2,0.3v0.1h0.2
	l0.6-0.4h0.1h0.1l-0.1,0.2l0.1,0.3L349.3-62.9L349.3-62.9z M350.5-64.5v0.3v0.1l0.1,0.1h0.2l0.1-0.1l0.9-1.1l0.4-0.6H352l-0.2,0.1
	l-0.6,0.3l-0.2,0.2v0.1l0.2,0.1l-0.6,0.3L350.5-64.5z M351.9-68l-0.5-0.1l-0.3-0.4l-0.3-0.2h-0.1h-0.2l-0.5,0.2l-0.1,0.1l-0.1,0.2
	v0.1l0.7,0.3l-0.3,0.7l-0.5,0.1l-0.1,0.1v0.1h0.6l1.7-0.3l0.2-0.8L351.9-68z M349.3-68.7L349.3-68.7h-0.4l-0.5,0.4v0.1h0.2l0.4-0.2
	L349.3-68.7z M345.1-70.3l0.4-0.1l0.1-0.1v-0.1l-0.2-0.1l-0.3,0.1l-0.1,0.2v0.1H345.1z M350-70.3h0.2l0.1-0.1l0.1-0.1v-0.1l-0.1-0.1
	l-0.2-0.1l-0.5,0.2l0.2,0.3L350-70.3z M345.8-72.7v0.5l-0.1,0.4v0.2l0.1,0.3l0.1,0.1h0.2h0.2v-0.1l0.1-1.3l-0.1-0.1H345.8z
	 M351.6-70.8h0.2l0.2-0.1l0.6-0.5l0.5-0.3l0.1-0.2V-72l-0.1-0.1h-0.7l-0.8-0.1l-0.1-0.1l-0.2-0.1v-0.2l-0.1-0.3l0.1-0.3v-0.2v-0.4
	l-0.3-0.4l-0.2-0.1h-0.2l-0.1,0.3l-1,0.2v0.1l0.1,0.2v0.1l-0.1,0.1h-0.2l-0.2-0.1l-0.2,0.2v0.1l0.1,0.2l0.2,0.3l1,0.2l0.3,0.5
	l0.1,0.2l0.2,0.1h0.4l0.6-0.1v0.8L351.6-70.8z M346.9-73.5l0.4-0.5l-0.4-0.3l-0.3,0.1h-0.2l-0.3,0.1l-0.2-0.1h-0.1l-0.1,0.1
	l-0.1,0.1v0.1l0.8,0.4L346.9-73.5z M348-75.3l-0.6,0.3l0.3,0.3l0.1,0.1h0.1l0.2-0.1l0.3-0.3h0.2l0.5-0.5l0.5-0.2l0.7-0.4l0.1-0.1
	v-0.2l-0.1-0.1h-0.5l0.6-0.3l0.2-0.2h0.2l0.6-0.9l0.1-0.4l-0.1-0.3l-0.1-0.1l-0.3,0.1l-1.1,0.6l-0.9,0.3l-0.2,0.1l-0.1,0.1l0.2,0.5
	l0,0h-0.4l-0.3,0.1l-0.2-0.2l-0.3-0.1h-0.1l-0.1,0.1l-0.2,0.1l-0.1,0.2v0.2v0.1h0.2l0.1,0.1h0.1l-0.3,0.2v0.1l0.2,0.2l0.6,0.2v0.1
	l-0.4,0.2L348-75.3z M382.9-46.6l-0.2-0.4l-1.2-0.8L381-48l-0.9-0.2h-0.5l-0.5-0.1h-0.5l-0.6,0.1l-0.2,0.2l-0.4,0.4l-0.2,0.2
	l-0.2,0.1h-0.2l-1-0.5l0.4-0.4l0.4-0.3l0.4-0.3l0.3-0.4l-0.3-1l-0.6-0.7l-1.8-1.2h-0.8l-0.8-0.2h0.4l0.5,0.1l0.8-0.1l0.4,0.3
	l0.4,0.2h0.2h0.2L376-52l0.2,0.1l-0.4-0.7l-0.5-0.7l-0.2-0.4l-0.1-0.4l0.2-0.3l0.3-0.2l-0.6-0.4l-0.6-0.5l-0.6-0.6l-0.6-0.6
	l-0.4-0.2l-1.7-0.6l-0.3-0.3l-0.2-0.4l-0.5-1.4l-0.3-1.3l-0.3-1.3l-0.2-0.4L369-63l-0.4-0.3l-0.7-0.8l-0.5-0.5l-1.9-0.7h-1l-0.8,0.4
	h-0.1l-2.4-0.4l-0.4-0.1l-0.3-0.3l0.4,0.2l0.9,0.2h0.5l0.4-0.1l0.4-0.2l0.9-0.6h0.9l0.4-0.3l0.1-0.4l-1-0.4h-0.9l-0.5,0.1h-0.5
	l0.4-0.1l0.4-0.2l0.3-0.1l1.2-0.2l0.4-0.2l0.4-0.3l0.4-0.4l0.4-0.5l0.8-0.7l0.8-1.3l0.1-0.3l0.1-0.3l0.1-0.3l0.4-0.5l0.5-0.4
	l0.3-0.3v-0.1l-0.3-0.6l-0.4-0.4l-0.5-0.1l-0.7,0.1l-2.6-0.1h-0.4l-0.4,0.1H364l-0.9-0.2h-0.5l-1,0.3l-1,0.3l-0.5,0.1h-0.6l0.3-0.5
	l0.9-0.6l0.1-0.2l-0.2-0.1l-0.5-0.1l0.1-0.3l0.2-0.2l1-0.5l1.6-1l0.9-0.4l0.3-0.3l0.1-0.2l0.1-0.1v-0.4l0.3-0.4l0.1-0.1v-0.1
	l-0.9-0.1l-0.8,0.2l-0.9,0.1l-0.8,0.2l-1.4,0.1l-1.1,0.2l-0.2-0.3h-0.2l-0.6,0.3h-0.2l-0.2-0.2l-0.2-0.1l-0.5-0.1h-0.2l-0.2,0.1
	l-0.2,0.3l-0.1,0.2l-0.1,0.4l-0.1,0.2v0.2l0.2,0.3l0.1,0.2l-0.2,0.1h-0.9l-0.3,0.1l-0.1,0.1v0.2v0.2l-0.3,0.4l0.1,0.1l0.8,0.7
	l0.1,0.1l-0.5-0.1h-0.1l-0.1,0.1h-1.1l-0.3,0.3l-0.2,0.2l-0.3,0.6v0.1l0.1,0.2l0.1,0.2l0.4,0.1l-0.5,0.1l-0.3,0.1l-0.2,0.2l-0.1,0.2
	l0.1,0.3l0.6,0.2l0.1,0.2l0.3,0.3l-0.2,0.7l-0.7,0.8l-0.5,0.2l-0.1,0.1l0.5,0.3l-0.7,0.4l-0.7,0.1l-0.4,0.3v0.1l0.3,0.1h0.4l0.1,0.5
	l0.3,0.2l0.4,0.1h0.5l0.4-0.2l1.6-1h0.1l-0.3,0.4l-0.3,0.4l-0.1,0.3l-0.3,0.2l-0.2,0.5l-0.3,0.4l-0.3,0.5l-0.2,0.6l-0.3,0.4
	l-0.2,1.3l0.1,0.1h0.1l0.3-0.1l0,0l-0.5,0.4l-0.2,0.3v0.5l-0.4,1l-0.1,0.3v0.2l0.1,0.2h0.4h0.1l0.1-0.1l0.2-0.2l1-2.1l0.1-0.3
	l-0.1-0.7v-0.1v-0.1l0.1-0.1l0.5-0.4l0.9-0.6l0.4-0.2l-0.8,0.6l-0.2,0.3l-0.1,0.4v0.4v0.2h0.1l0.1-0.2h0.3l0.1-0.1l0.1-0.2l0.5-0.1
	l0.2-0.1l0.4-0.5l0.2-0.2h0.1l-0.2,0.4v0.2l0.7,0.5l0.4,0.2h-1l-0.1,0.1l-0.2,0.3l-0.1,0.5l-0.1,0.5l0.7,0.6l0.1,0.2v0.3l-0.2,0.4
	l-0.3,0.3l-0.9,1.2l-0.5,0.9l-0.2-0.1l-0.3,0.1v0.4l0.1,0.3l0.4,0.5l0.5,0.4l0.1-0.5l0.2-0.3l0.2-0.1l0.7,0.3l0.5,0.2l0.5-0.2
	l0.5-0.3l0.2-0.1l0.2,0.1l0.1,0.2l0.2,0.1h0.3h0.5l0.3-0.1l0.3-0.2l0.3-0.2h0.3l0.3-0.1l0.5-0.3l0.5-0.1h1.5h0.2l-1,0.3l-0.9,0.7
	l-0.7,1.2v0.5l0.6,0.9l0.3,0.4l0.6,0.6h0.2l0.3-0.2l0.3-0.1h0.6l0.1,0.2l-0.1,0.5l-0.2,0.5l-0.6,0.3l-0.1,0.3v0.4l0.2,0.1l0.3,0.1
	l-0.3,0.4l-0.3,0.4l-0.1,0.4l0.4,0.7l0.2,0.2l0.3,0.1h0.2l0.2,0.1l-0.5,0.1l-0.2-0.1l-0.6-0.7l-0.5,0.2l0.2,0.7l-1-0.5H361l-0.5,0.2
	l-0.5,0.1l-0.5-0.1h-0.2l-1.4,0.5l-0.7,0.4l-0.3,0.2l-0.2,0.3l-0.2,0.2l-0.6,0.3l-0.5,0.4l-0.2,0.3v0.2h0.4l0.5-0.3l0.5-0.2l0.6-0.1
	h0.6l-0.1,0.3v0.3l0.2,0.3l0.1,0.3l-0.2,0.3l-0.1,0.3l0.1,0.3l0.3,0.1l-0.3,0.4l-0.3,0.5l-0.3,0.4l-0.3,0.3l-0.8,0.4l-0.8,0.3
	l-1.5,0.6l-1,0.3l-0.4,0.3l-0.4,0.4l0.3,0.1l0.1,0.3v0.4l0.2,0.2l0.9,0.4l0.9-0.3l0.5-0.3l0.3-0.1h0.6L356-41l0,0l0.8,0.1l-0.4,0.2
	l-0.3,0.3h0.5l0.5-0.1l0.3-0.1h0.2l0.5,0.3l0.8,0.7l1.2,0.1h0.2l0.8-0.5l0.5-0.2l1.1-0.2l0.4-0.2l0.6-0.4l0.5-0.3l-0.8,0.7l-0.5,0.4
	l-0.5,0.4l-0.4,0.4l-0.8,0.9l-0.4,0.2l-0.5,0.1h-0.5l-1-0.2h-1l-1.4,0.2l-0.1,0.1l-0.6,0.9l-1,0.3l-0.1,0.4l-0.1,0.5l-0.1,0.3
	l-1.3,1.1l-0.2,0.3l-0.3,0.1l-0.2,0.2l-0.2,0.2l-0.5,0.4l-1,0.7l-1.1,0.3l-0.4,0.4v0.3l0.1,0.2l0.3-0.2l0.5-0.1l0.5,0.1l0.4,0.4
	l0.5-0.1l0.4-0.5l0.2-0.1l0.9-0.5l0.4-0.2l1-0.3l0.6-0.1h0.4l0.4-0.1l0.1-0.1h0.1l0.3,0.2l0.9,0.4l0.5,0.3l0.5-0.1l0.5-0.5l0.3-0.6
	l0.2-0.7l0.4-0.5l1.9-0.5h0.4l0.5,0.1l0.5,0.2l0.5,0.3l0.5,0.1l0.2-0.2h0.2l1.4,0.2h0.2l0.2-0.1l-0.2-0.3l-0.1-0.3l0.7,0.1l0.8-0.1
	h0.4l0.4-0.1l0.8-0.4l-0.3-0.4l0.6,0.2l0.7,0.1l0.6,0.2l0.6,0.2h0.4l1.5-0.3h1.1l1.8,0.3l0.4-0.1l0.5-0.2l0.5-0.2l0.7-0.2l0.4-0.3
	h0.8l0.1-0.3l0.3-0.4l1.5-0.6l0.2-0.1l0.1-0.7v-0.3l-0.2-0.1h-0.5l-1.1,0.1H379l-0.9-0.2l-0.2-0.1l-0.2-0.4l-0.3-0.1l-0.5,0.1
	l0.4-0.2l0.4-0.1h0.5l0.5-0.1l0.4-0.2l0.2-0.4l-0.1-0.2l-0.6-0.2l0.9-0.4l0.6,0.1l0.4-0.1l0.4-0.2v-0.3l-0.2-0.3v-0.1h0.2l0.2,0.1
	l0.4-0.2l0.7-0.5l0.2-0.2l0.1-0.2l0.2-0.7l0.3-0.5l0.2-0.6v-0.6L382.9-46.6z M365.3-80.1l0.1,0.1l0,0l0.1-0.3l0.1-0.2h-0.2l-0.4,0.1
	L365.3-80.1z M364.1-80.3h0.2l0.2-0.1l0,0l-0.2-0.1v-0.1v-0.2l-0.2-0.3l-0.3-0.1l-0.2,0.1v0.2l0.1,0.2L364.1-80.3z M363.9-81.3h0.1
	l0.3-0.2v0.1v0.2v0.1l0.1,0.1h0.1l0.7-0.1l0.5,0.3h0.2l0.1-0.1l0.2-0.3l-0.2-0.1h-0.3l-0.4-0.1H365l0.1-0.1l0.2-0.2v-0.1l-0.1-0.1
	l-0.4-0.2h-0.4l-0.3,0.1l-0.2,0.4L363.9-81.3L363.9-81.3L363.9-81.3z M367.9-82.9L368-83h-0.5l-0.3,0.1l-0.3,0.3h0.5L367.9-82.9z
	 M365.6-82.9l0.4,0.1v0.3l0.1,0.1l0.4-0.1l0.1-0.2l0,0l-0.3-0.1l-0.2-0.3l-0.4-0.3l-0.3,0.1v0.1l0.1,0.2L365.6-82.9z M371.6-88.1
	h0.1h0.4h0.1v0.1l0.1,0.1l0.3-0.1h0.4l0.1,0.2v0.2l-0.1,0.4l-0.3,0.7l0.2,0.2h0.1l0.2-0.5l0.2-0.2l0.1-0.6l0.1-0.1l0.1-0.3l0.1-0.2
	l0.4-0.9l0.1-0.3l-0.3,0.1h-0.2l-0.3-0.4l-0.2,0.1l-0.1-0.4l0.1-0.4H373l-0.2,0.1l-0.4,0.4l-0.2,0.1l-0.1,0.1l0.1,0.1l0.4,0.1
	l0.2,0.7l-0.5,0.2H372l-0.4,0.1v0.1V-88.1z M374.2-89.6L374.2-89.6l0.1-0.4v-0.3l0,0h0.2v-0.1v-0.2h-0.4l-0.4,0.6L374.2-89.6
	L374.2-89.6z M374.9-90.5h0.3v-0.2l0.3-0.5v-0.1l-0.1-0.1h-0.1l-0.2,0.1l-0.1-0.1h-0.1l-0.1,0.1l-0.1,0.3L374.9-90.5L374.9-90.5z"/>
<path class="st0" d="M503.5,283.4l-0.2,0.3v0.1l0.2,0.2h-0.4l-0.2-0.2l0.1-0.2l-0.1-0.2l-0.1-0.8l-0.2-0.3l-0.3-0.1l0.1,0.3
	l-0.1,0.3l-0.2,0.2l-0.2,0.1l0.1,0.4l0.5,0.6l0.3,0.2l0.5-0.1l0.2,0.2v0.1l0.1,0.1l0.2,0.1v-0.2v-0.7L503.5,283.4z M474.3,232.1
	l-0.8-0.4l-0.2-0.1l-0.1-0.3l-0.1,0.3l0.1,0.3l1,0.4l0.2,0.2l0.2,0.3l0.4,0.4h0.1l0.3-0.2l-0.2-0.1L474.3,232.1z M473.4,231.2v-0.1
	l-0.1-0.4v-0.4l-0.2,0.3v0.5L473.4,231.2L473.4,231.2z M570.6,252.4l-0.5-0.8l-0.5-0.8l-0.5-0.8l-0.3-0.6l-0.4-0.7l-0.3,0.5H568
	l-0.4-0.1h-0.1l-0.4-0.1l-0.6-0.1l-0.8-0.1l-0.9-0.1l-1-0.1l-1.1-0.2l-1.1-0.2l-1.1-0.2l-1.1-0.2l-1-0.1l-0.9-0.1l-0.8-0.1l-0.6-0.1
	l-0.4-0.1h-0.1l-0.4-0.1l-0.3-0.3l-0.3-0.4l-0.3-0.4l-0.3-0.4l-0.6-0.8l-0.3-0.4l-0.3-0.4l-0.3-0.4l-0.3-0.4l-0.3-0.4l-0.3-0.4
	l-0.3-0.4l-0.3-0.4l-0.3-0.4l-0.3-0.4l-0.3-0.4l-0.2-0.3l-0.1-0.3l-0.1-0.8v-0.2h-0.2l-0.3-0.1l-0.4-0.1l-0.4-0.1l0.2-0.8l0.2-0.3
	l-0.1-0.2h-0.4l-0.4-0.3l-0.4,0.1l-0.4,0.1h-0.4l-0.3-0.1l-0.2-0.1l-0.4-0.5l-0.3-0.6l-0.4-0.5l-0.3-0.6l-0.6-0.7l-0.3-1.3l-0.3-0.7
	l-0.9-0.8l-0.2-0.3l-0.3-0.8l-0.3-0.5l-0.3-0.7l-0.3-0.9l0.1-0.1h0.2l0.2,0.1h0.1l0.2-1.2l-0.2-0.6l-0.4-0.3l-0.5-0.4l-0.1-0.5
	l-0.1-0.4l0.1-0.1l0.3,0.1l0.2,0.1h0.1l-0.9-1l-1.4-0.7l-1-1.1l-0.7-0.2l-0.7-0.8l-0.6-0.7l0.3-0.3l-0.4-0.2l-0.4-0.1l-0.9-0.5
	l-0.6-0.6v-0.2l0.1-0.2l-0.2-0.6l-0.2-0.4l-0.8-1l-0.6-1.3l-0.2-0.6l-0.3-0.6h-0.9H530h-0.9h-1l-0.5-0.6l-0.2-0.6l-0.2-0.6l-0.5-0.9
	l-1.5-0.2l-0.8-0.1l-1.3-0.2l-1-0.1l-0.9,0.2l-2-0.2l-2.3-0.2l-2.3-0.2l-1.7-0.2l-0.1-0.1l-1.8-1.4l-1.4-1.1l-1.7-1.3l-1.8-1.4
	l-1.8-1.4l-1.3-1l-1.6-1.3l-1.5-1.2l-1.1-0.9l-1.4-0.8l-1.1-0.6l-1.6-0.9l-1.3-0.7L492,196l-1.7-1l-0.6-0.3l-1.7-0.3l-1.6-0.3
	l-1.7-0.3l-1.1-0.2l-0.7,0.7l-0.2,0.1l-0.9,0.3l-1.9,0.6l-1.3,0.4l-1.6,0.5l-1.4,0.4l-1.3,0.4l-1.2,0.4l0.8,0.8l1.2,1.2l0.8,0.8l1,1
	l0.9,0.9l0.9,1l-0.6,0.3l-0.9,0.6l-0.1,0.1l-0.1,0.1l-0.3,1l-0.3,0.8l-0.1,0.1l-1.3,0.3l-1.3,0.3l-0.8,0.2l-0.2,0.2l-0.5,1l-0.5,1
	l-0.9,0.8l-1,0.9l-0.3,0.1l-0.8-0.1l-1.3-0.2l-1.3-0.2l-0.9-0.2l-1.1-0.2l-0.5,3.7v1.2l-0.4,1.4l-0.3,0.7l0.1,0.5l0.5-0.4l0.5,0.1
	l1.3,0.1l0.5,0.3l1.3,1.8l0.9,1.8l1,1l0.5,1.1l1,1.1l0.3,0.7l0.8,1l1.5,2.9l0.8,0.4l0.2,0.8l0.3,0.9l0.5,0.3l0.3,0.3l1.3,2.1
	l0.4,0.8l0.1,0.5l0.1,0.7l-0.2,0.5l-0.2,0.3l0.9,1.2l0.5,0.9l0.6,1l0.5,0.1h0.4l0.6,0.5h0.5l0.3,0.4l0.6,0.4l1,0.9l0.9,1.2l0.4,0.9
	l0.9,1.5l0.3,0.7l0.2,0.9l0.2,0.3l0.6,0.6h-0.3l0.3,0.5l0.4,0.2v0.4l0.3,0.6l0.2,1.2l-0.1,0.6l-0.2,0.5v1l-0.1,0.9l0.2,0.6l0.3,0.7
	l0.3,0.9v0.5l-0.3,0.7l1,2l1.2,1.4l0.7,1.3l0.6,0.7l0.8,0.6l1,0.2l2.1,1.6l0.7,1l0.7,0.4l0.1,0.2l0.1,0.4l0.3,0.5l0.3,0.4l1.1,2.4
	l0.2,0.5l0.3,0.7l0.2,0.6l0.1,0.5l1.1,1.3l0.4,1.2l0.8,1.5l0.5,0.7l1.6,1.3l1.3,1.4l0.2,1l0.3,0.8l0.5,0.4l0.4,0.5l0.1,0.5l0.5,0.4
	l0.3,0.4l0.2,0.5v0.5l0.3,0.7l0.1,0.5l0.9-0.8l0.2-0.2l0.1-0.2l0.2-0.5l0.3-0.1l0.1-0.5v-0.2l-0.2-0.2l-0.2-0.6v-0.7v-0.3l0.1-0.5
	l0.3-0.2l0.1-0.2l-0.3-0.3v-0.2l0.5-0.6l0.2-0.2l0.4-0.2h0.3l0.3,0.1l0.3,0.2l0.3,0.3l0.3,0.3l0.5,0.1h0.3l0.3,0.1l0.2-0.1l0.2-0.2
	h0.4l0.3-0.2l1-0.1l1,0.1l1-0.2h1h1h0.2l0.2,0.1l0.9,0.5l0.7,0.1l1.3,0.1l1.4,0.1l1.2,0.1l1-0.1l0.9-0.1h0.2l0.3,0.3l0.6,0.8
	l0.5,0.7h0.9l0.5-0.3l0.6-0.4l0.4-0.3l0.4-1.2l0.2-0.8l0.6-0.9l0.5-0.7l0.7-1l0.4-0.5l0.7-1.1l0.7-0.4l1.4-0.8l1.3-0.8l0.9-0.5
	l0.8-0.2l1.3-0.2l1.5-0.2l1.5-0.2l1.6-0.2l1.8-0.3l1.2-0.2l1.6-0.2l1.3-0.2l1.2-0.2l1.2-0.2l0.7-0.3l0.9-0.3l0.9-0.3l0.9-0.3
	l0.9-0.3l0.9-0.3l0.9-0.3l0.9-0.3l0.9-0.3l0.9-0.3l0.9-0.3l0.9-0.3l0.9-0.3l0.9-0.3l0.9-0.3l0.9-0.3l0.9-0.3l0.5-0.2l0.2-0.8
	l0.1-0.6l0.1-0.6l0.1-0.6l0.1-0.6l0.1-0.6l0.1-0.6l0.1-0.6l0.1-0.6l0.1-0.6l0.1-0.6l0.1-0.6l0.3-1.3l0.1-0.6l0.1-0.6l0.1-0.6
	l0.1-0.6L570.6,252.4z"/>
<polygon class="st0" points="685.5,131.3 685.4,128.4 685.3,125.5 685.3,122.5 685.3,121.2 685.2,119.9 685.2,118.6 685.2,117.3 
	685.1,116 685.1,114.6 685.1,113.3 685,112 685,110.7 685,109.4 684.9,108.1 684.9,106.7 684.9,105.4 684.8,104.1 684.8,102.8 
	684.8,101.5 684.7,100.1 684.7,98.8 684.7,97.5 684.6,96.2 684.6,94.9 684.5,93.6 684.5,92.2 684.5,90.9 684.4,89.6 684.4,88.3 
	684.3,87 684.3,85.6 684.2,84.3 684.2,83 684.1,81.7 684.1,80.4 684,80.1 683.7,79.2 683.4,78.1 683.1,76.7 683.1,76.3 682.6,74.8 
	682.5,74.4 682.6,74.1 683.3,72.9 683.5,72.3 683.7,71.6 683.7,71.1 683.5,70.2 683.2,69.4 683.1,68.6 683,67.8 683.3,67.3 
	683.8,66.8 683.9,66.4 684.2,66.1 684.4,65.9 684.2,65.6 683.7,64.6 683.3,64.2 683,64 682,63.8 681,63.9 679.2,63.9 678.8,63.7 
	678.1,63.2 677.6,63 675,62.7 674.1,62 674.1,61.6 674.2,61.3 674,60.3 673.1,59.9 672.3,59.6 671.2,59.3 670.2,58.8 669.5,58.5 
	667.8,58.6 667.2,58.4 666.8,58.4 665.7,59.2 665.2,59.4 664,59.4 661.8,60.5 660.6,61.4 659.4,62.6 659,63.3 658.7,63.9 658.5,65 
	658.7,66.5 659,67.4 659.5,68 659.7,68.6 659.7,69.3 659.6,70 659.1,70.9 657.7,72.7 657.1,73.2 655.6,73.9 654.8,74 653.8,73.9 
	652.5,73.2 650.1,71.1 648.9,70.6 648.3,70.2 645.9,69.3 643,68.5 641.4,68.4 639.8,68.2 638.3,67.7 637.7,67.3 637.1,66.7 
	636.6,65.9 636.2,64.9 635.9,64.1 635.9,63 635.4,62.1 635,61.6 631.7,60.9 631.3,60.7 630.3,59.9 629.9,59.8 628.4,59.3 
	627.4,59.2 626.9,59.1 625.6,58.6 624.9,58.7 623,59.2 621.4,59.1 620.7,58.9 618.4,57.5 617.6,57.4 616.9,57 616.9,57.2 
	616.7,58.3 616.6,58.7 616.6,59.3 616.6,60.2 617,60.9 617,61.2 616.9,61.5 616.2,61.9 615.2,62.4 614.4,62.9 613.5,63.4 
	613.3,63.8 612.8,64.1 612.5,64.3 612.4,64.6 612.1,65.1 611.8,65.5 611,65.6 610.8,65.8 610.4,66.3 610.2,66.6 610,67.1 
	610.3,68.3 610.6,69.6 610.7,70.1 610.7,70.5 610.5,71 610,71.7 609.7,72.2 609.1,73.1 608.9,73.3 608.5,73.6 607.6,74 607,74.3 
	606.5,74.6 606,74.9 606.4,75.6 607.2,76.8 607.6,77.7 607.8,78.1 608.1,79.3 608.4,80.4 608.5,80.8 608.6,81.6 608.5,84 
	608.7,87.1 609,88.6 608.5,89.9 608.1,91.2 608.1,91.9 608.3,92.9 608.6,93.7 608.8,94.1 608.8,95.3 608.7,95.8 607.8,96.5 
	606.8,97.1 606.5,97.6 606.5,98.2 606.6,98.7 607.2,99.7 608.3,101.3 609.4,103 609.4,103.4 609.5,104.6 609.9,106.1 610.4,106.8 
	610.6,107.3 611,107.7 611.3,107.9 611.6,108 612.8,107.5 614.9,108.2 617,108.9 617.1,109.1 617.5,110 618.3,111.4 618.8,112.6 
	619.3,113.6 621.9,114.3 624.4,114.9 626.9,115.6 627.5,115.9 628.9,117.2 630.6,118.9 630.7,118.9 630.8,118.9 632.4,117.9 
	634.5,116.7 634.5,116.7 636.4,115.7 637.8,115 639.6,114 641.3,115 643.7,116.4 646.2,117.8 648.6,119.2 651,120.5 653.5,121.9 
	655.9,123.3 658.4,124.7 660.8,126.1 663.3,127.5 665.7,128.9 668.2,130.3 670.6,131.6 673.1,133 675.6,134.4 678,135.8 
	680.5,137.2 680.5,136.5 680.5,135.7 680.5,135 680.4,134.3 681.7,134.3 683,134.3 684.2,134.3 685.5,134.3 685.5,134.3 
	685.5,134.2 685.5,134.2 685.5,134.2 "/>
<path class="st1" d="M663.9,19.3l-0.4-0.1l-0.1,0.1v0.3l0.3,0.2l0.2-0.1v-0.1V19.3z M680.6,10.5l-0.8,0.4l-0.3-0.1l-0.3,0.1
	l-0.2,0.3l-0.3,0.1l-0.7-0.1h-0.7H677l-0.3,0.1l-0.5,0.4l-0.6,0.2h-0.4l-0.6,0.2l-1.1-0.1l-0.5,0.1l-0.7,0.3H672l-0.3-0.1l-0.9-0.6
	h-0.3l-0.2-0.1l-0.2-0.3l-0.3-0.1h-0.6l-0.5,0.4v0.3l-0.4,0.3H668l-0.3-0.2l-0.6-0.7l-0.2,0.2l-0.2,0.2l-0.3,0.1l-0.3,0.2l-0.3,0.7
	l-0.2,0.7l0.1,0.3l0.4,0.6l0.6,0.4l0.3,0.1h0.3h0.5h0.3l0.6,0.4l0.6,0.2l0.2,0.2l0.2,0.2l0.5,0.4l1.1,0.6l1,0.7l0.5,0.2h0.6h0.6
	l0.6,0.3l0.5,0.4l0.7,1l0.3,0.1l0.3,0.1l0.8,0.3l0.6-0.1l0.5,0.2h0.5v-0.3l-0.1-0.3l0.1-0.3l0.1-0.3l0.2-0.3l0.5-0.5v-0.3v-0.2
	l-0.3-0.2l-0.3-0.4l0.3-0.2l-0.2-0.2l-0.2-0.1l-0.1-0.2l-0.1-0.2v-0.5l0.1-0.4l0.2-0.3l0.1-0.4l0.1-0.4l0.1-0.4l1.1-1.7l0.2-0.3
	L681,11l0.3-0.3l-0.3-0.2H680.6z M646.3,5.6L646.3,5.6v0.5l0.3,0.4l0.3-0.6l-0.2-0.1L646.3,5.6z M672.9-3.2L672.9-3.2l0.1-0.2
	l-0.4-0.1l-0.1,0.2l0.1,0.1l0.1,0.1L672.9-3.2z M646.1-5.1l0.2-0.1l0.1-0.2l-0.1-0.1L646-5.4L645.8-5l-0.1,0.2h0.2L646.1-5.1z
	 M652.7-3.8l-0.2-0.4l-0.3-0.2l-0.1-0.1l0.2-0.3l0.1-0.1V-5h-0.2L652-5.2l-0.2-0.3l-0.2-0.3L651.1-6h-0.3l-0.3-0.3l-0.2,0.1
	l-0.1,0.3L650-5.7l-0.5,0.2l-0.8,0.9L648-4.2L647.4-4l-0.5,0.1L646.4-4h-0.2l-0.3-0.3h-0.1l-0.1,0.2l-0.1,0.6v0.7l0.2,0.3l0.3,0.3
	l0.3,0.3l0.1,0.3l0.1,0.5l0.3,0.3v0.9l-0.1,0.3l-0.2,0.2V0.5v0.4L647,1l0.2,0.3v0.4v0.2L647.1,2l-0.2-0.2L646.8,2v0.4L646.7,3
	l-0.1,0.2l-0.1,0.2v1.1V5l0.3,0.6l0.3,0.5l0.2,0.4l0.3,0.2h0.3l0.4,0.1h0.4l0.4-0.3l0.3-0.5l0.2-1.2l0.2,0.2l0.2,0.1l0.3-0.1h0.3
	l0.6,0.3l0.5,0.2l0.4-0.2l0.1-0.5l0.2-0.6l0.3-3.3l0.1-0.1V0.4L652.6,0l-0.1-0.6l0.5-0.8l0.1-0.2l0.1-0.3l-0.1-0.3L652.7-3.8z
	 M656.3-15.2l-0.2-0.2l-0.2,0.2h-0.3l-0.2,0.1h-0.6l-0.1,0.1l0.1,0.2h0.4l0.6-0.1l0.4,0.3v-0.3l0.1-0.1V-15.2z M694.5-0.3l-0.7-0.9
	l-1.4-1.1L692-2.8l-2.3-1.1l-1-0.8l-0.8-0.5l-2.6-1l-2.6-1.2l-0.5-0.4v-0.6l0.6-0.5l0.5-0.3l0.2-0.3l-0.1-0.5l-0.5-0.2l-0.5-0.1
	l-2.6,0.1l-1.1-0.1l-1.4-0.7l-1.6-1.1l-1.7-1.5l-0.8-1l-0.4-0.9l-0.6-1.9l-0.5-1.2l-0.6-1l-0.3-0.2l-1-0.4l-1.8-1.3l-1-0.4l-1-0.8
	l-0.4-0.5l-0.4-1.2l-0.3-1.7l0.1-0.6h0.2l0.3,0.2l0.4-0.3l0.2-0.3l0.1-0.4l-0.6-0.9l-0.5-1l-0.3-0.2l0.1-0.7l0.1-0.4l0.4-0.3
	l0.6-0.3h0.2l-0.5,0.4h0.3l0.5-0.2l0.7-0.3l0.7-0.4l0.6-0.2l0.4-0.3l0.2-0.3l0.2-0.1l1.2,0.4l0.4-0.3h0.3l0.7,0.8l-0.3,0.2h0.3
	l0.3-0.1l0.1-0.1l-0.2-0.4l-0.5-0.5l-0.3-0.2l-0.4-0.1l-0.1-0.1l0.2-0.7l-0.1-0.1h-0.4l-0.1-0.1v-0.1v-0.2l0.3-0.3l0.3-0.3l0.1-0.1
	v-0.1l-0.4-0.1l-0.2-0.1h-0.2l-0.1,0.1L670-35l-0.1-0.2l0.1-0.3l0.4-0.3l0.4-0.3l0.3-0.2l0.2-0.1l0.1-0.3l-1-0.2h-0.6L669-37
	l-1.7-0.3l-0.5-0.1h-0.5l-0.5-0.1l-0.4-0.2l-0.3-0.3l-0.3-0.4l-0.5-0.6l-0.1-0.3l0.2-0.2l0.2-0.2v-0.1h-0.1l-0.9,0.2l-0.9,0.3h-0.3
	l-0.3-0.1h-0.4l-0.4,0.1h-0.9l-0.5,0.2l-0.3,0.4l-0.2,0.4l-0.1,0.1H659h-0.5l-0.3-0.1l-0.3-0.3h-0.5h-0.5l-0.1-0.1l-0.2,0.7v0.4
	l0.2,0.3v0.2l-0.1,0.2h-0.3L656-37l-0.4-0.3h-0.3l-0.2,0.1l-0.1,0.3l-0.1,0.4v0.2l0.2,0.2l0.1,0.3l0.1,0.4l0.1,0.2l-0.1,0.1
	l-0.2,0.1l-0.2-0.1l-0.3-0.5l-0.1-0.2h-0.3l-0.4,0.1l-0.7,0.3h-0.3l-0.2-0.1l-0.2-0.2l-0.2-0.5l-0.1-0.3H652l-0.4-0.1l-0.2,0.1v0.5
	v0.6l-0.2,0.4l-0.6,0.7l-0.2,0.3l-0.1,0.2v0.2l0.1,0.3l0.1,0.3l-0.1,0.2l-0.3,0.1l-0.2-0.2l-0.1-0.3l-0.5-0.4l0.2-0.4v-0.1l-0.8-0.2
	l-0.3-0.3l-0.5-0.5l-0.1-0.2V-36v-0.2l-0.1-0.1h-0.2l-0.3,0.2l-0.3,0.4l-0.6,0.4l-0.1,0.1l0.2,0.4v0.2l-0.5,0.6l-0.1,0.2l-0.7,0.4
	l-0.3,0.1l-0.9-0.3h-0.2l-0.4,0.2l-0.6,0.2l-0.9,0.2l-0.3-0.1l-0.2-0.1l-0.4,0.3l-0.6,0.3l-0.1,0.2v0.2l0.1,0.2l0.3,0.2l0.4,0.5
	l0.2,0.5l0.5,0.4l0.1,0.1v0.1L641-30l-0.2,0.6l-0.2,0.1h-0.2l-0.7,0.5l-0.3-0.1H639l-0.3,0.1v0.3l0.3,0.3l0.1,0.8l0.1,0.3l0.3,0.2
	l0.4,0.1h0.2l0.2,0.1l0.1,0.1l0.2,0.6l-0.1,0.2l-0.2,0.1l-0.1,0.3l-0.3,0.4l-0.2,0.3l0.2,0.3l0.1,0.2l-0.1,0.2l0.1,0.3l0.3,0.3
	L641-23l0.8,0.4l0.2,0.1l1.1-0.2h0.2l0.1,0.3l0.1,0.2l-0.1,0.3l-0.3,0.4l-0.3,0.3l-0.2,0.3v0.2v0.3l1.1-0.2L645-21l0.4-0.2l1-1.2
	l1.2-1.2l1-0.4l0.8,0.1l1.2,0.5h0.4l2.1,1.2l1.5,0.5l0.7,0.4l0.3,0.5l0.3,1.9l0.6,0.8l0.3,0.9l0.1,0.4l-0.1,0.4v0.6L657-16h0.3
	l0.3,0.1l0.1,0.2l0.1,0.3l0.2,0.2l0.6,0.4l1.1,1.2l0.1,0.4l-0.2,0.1l-0.2,0.2l0.2,0.2h0.2l0.3-0.1h0.2l1,0.3l0.7,0.4l0.8,1.2
	l1.3,0.8l0.6,0.7l2,2l1,0.3l0.8,0.6l0.1,0.2l0.2,0.1l0.4-0.2l0.3-0.1l0.5,0.1l0.9,0.3l0.5-0.1l0.3,0.1l0.6,0.6l0.9,1.5v0.3l0.2,0.1
	l0.1-0.2h0.2h0.8l0.6,0.3l0.2,0.2l-0.6,0.7h0.2l0.4-0.2h0.5l0.3-0.1l0.7-0.1l0.4,0.2l0.3,0.4l0.2,0.5l0.2,0.5L677.6-1v0.3l0.1,0.1
	l1.7,1l0.5,0.1h0.9l0.5-0.1l0.4,0.7l0.5,1.4l0.8,1.6l0.3,1.3l0.2,0.7l0.5,0.5v1.1l-0.6,0.1L682.9,8l-0.2,0.2l-0.2,0.3l0.1,0.8
	l-0.4,1.1l-0.6,0.2l-0.3,0.5v0.8l0.4,0.6h1.6l0.2-0.5l0.2-0.4l0.6-1l1.2-0.9l0.1-0.5l0.1-1.2l0.3-0.5l0.7-0.5l0.9-0.3l0.7,0.1
	l0.4-0.5l-0.3-0.8l-0.1-1.4l-0.6-0.6l-0.9-0.6l-1.1-0.4l-0.4-0.6V1.2l0.6-1.1l0.6-1.1l0.6-0.8l0.5-0.3l0.7,0.1l0.2,0.1l0.2,0.3v0.2
	l0.7,0.3l0.4,0.1l1.9,0.2l1.1,1.5l0.7,0.5l0.6,0.2l0.2-0.5l0.1-0.5l0.3-0.2L694.5-0.3z M665.9-21.3h-0.3l-0.1-0.2l0.2-0.3h0.3
	l0.1,0.2L665.9-21.3z"/>
<polygon class="st0" points="533.5,109.6 533.2,109.4 532.7,108.9 532.3,108.7 531.6,108.8 531.2,108.7 530.7,108.6 530.3,108.6 
	530.1,108.9 530,109.1 529.6,109.2 529,109.4 528.1,109.7 527.6,109.6 527.5,109.5 527.5,109.3 527.8,109.1 527.8,108.8 
	527.7,108.6 527.4,108.5 527.2,108.5 527.1,108.4 526.5,108.3 526,108.3 525.2,108.6 523.9,109.5 523.4,110 523.1,110.9 
	521.7,111.2 520.8,111.7 520,112.5 519.4,112.9 519,113 518.7,112.9 518.3,112.7 517.9,112 517.4,111 517,110.3 516.9,109.5 
	516.8,108.5 516.7,107.5 516.7,106.3 516.8,105.9 516.7,105.6 516.5,105.5 516.2,105.5 515.8,105.7 515.5,105.7 515.2,105.6 
	515.1,105.1 515.2,104.1 514.6,103.3 513.5,102.6 512.6,102.4 511.9,102.6 511.5,103.1 511.2,104 510.9,104.7 510.5,105.2 
	510.2,105.5 510.1,105.6 510.1,105.8 510.5,106.5 510.6,107.1 510.4,107.6 510.1,107.8 509.8,107.8 509.4,107.7 509.2,107.5 
	508.6,107.4 507.7,107.5 507.1,107.8 506.8,108.2 506.8,108.7 507.1,109.3 507.1,109.8 506.9,110.2 506.7,110.4 506.5,110.4 
	506.1,110.1 505.3,109.5 504.8,109.1 504.6,109.1 504.4,109.1 504.3,109.2 504.2,109.3 504.2,109.5 504,109.5 503.7,109.5 
	503.5,109.5 503.4,109.7 503,110 502.3,110.3 501.9,110.6 501.9,110.9 501.8,111 501.6,111 500.9,111.4 500.4,111.2 499.7,110.7 
	499.3,110.2 499.2,110.1 499.1,109.9 498.8,109.7 498.4,109.7 498.1,109.7 497.9,109.5 497.5,109.5 497,109.8 496.4,109.7 
	495.6,109.1 494.4,108.9 493,109 492.7,109 492.1,108.9 490.9,108.6 489.8,108 489.1,107.7 489,107.7 488.7,108 488.6,108.3 
	488.5,108.9 488.4,109.6 487.2,109.6 486.2,109.7 485.6,109.9 485,110.3 484.9,110.7 484.9,111.3 484.7,112.6 484.6,113.7 
	484.6,114.5 484.4,115 483.8,115.7 483,116.2 482.6,116.4 482.5,116.7 482.5,116.9 482.3,117 482,116.9 481.6,117 480.9,117.2 
	480,117.6 479.1,117.9 478.5,117.9 478.2,118 478.2,118.1 478.3,118.4 478.5,118.7 478.6,119 478.4,119.2 478.3,119.6 478.3,120.4 
	478,120.6 477.4,120.9 476.8,121.4 476.7,121.5 476.3,121.6 476,121.6 475.6,121.5 475.2,121.6 474.9,122 474.7,121.9 474.6,121.5 
	474.3,121.3 473.6,120.8 473.1,120.4 472.8,120.3 472.4,120.4 471.8,120.5 471.3,120.4 470.9,120.3 470.2,119.8 470,119.5 
	469.8,119.3 469.4,119.3 469.5,119.7 469.6,120 469.4,120.2 469.4,120.5 469.3,120.9 469.3,121.2 469.1,121.3 468.9,121.4 
	469,121.8 469.2,122.1 469.4,122.5 469.3,122.7 469.2,123 469.1,123.5 469.2,123.9 469.1,124.2 468.9,124.5 468.8,124.7 
	468.8,125.1 468.7,125.2 468.4,125.5 468.2,125.6 467.9,125.7 467.8,125.9 467.9,126 468.1,126.1 468.3,126.5 468.8,127 
	467.6,127.1 467.4,127.6 467.1,128.4 467.5,129.9 467.4,130.6 467.6,131 468,131.3 468.4,131.5 469.2,131.5 469.7,131.6 
	469.7,131.8 469.5,132.1 469.1,132.7 468.9,132.9 468.3,134 468.4,134.5 468.5,134.8 469.1,136 469.6,137.1 470.5,139.2 
	470.5,139.7 470.5,140.7 470.6,141.4 470.8,142.2 470.8,142.6 471.1,143.6 471.3,143.7 472.5,143.9 473.7,144 475.3,144.3 
	475.9,144.8 476.4,146.1 476.5,147 476.4,147.5 475.5,148.8 474.6,150.2 473.6,151.6 472.5,153.2 474.5,153.8 476.1,154.3 
	478.5,155.1 480.5,155.7 481,155.8 486.4,155.3 488.4,155.7 489.1,155.9 489.2,155.8 489.4,155.5 489.8,155.2 490.5,155 
	491.1,154.9 492,154.9 492.6,154.9 493.1,154.9 493.9,154.9 494.3,154.8 495.7,154.4 496.7,154.1 498.1,153.6 499.1,153.3 
	499.3,153.1 499.6,152.8 499.6,152.5 499.3,152.1 499.2,151.7 499.3,151.2 499.3,150.4 499.1,149.4 498.9,148.8 499.1,147.6 
	499.2,147 499.7,146.7 500,146.5 500.1,146.4 500.2,146.2 500.6,145.4 501,144.9 501.5,144.7 502,144.7 502.5,145.1 503.3,145.2 
	504.1,145.1 504.8,144.9 505.1,144.7 505.5,144.5 505.4,144.3 504.9,144.1 504.7,143.8 504.5,143.5 504.7,143.3 505.3,143.3 
	506.5,142.5 507,142 507.1,141.8 507.4,141.8 507.9,142 508.5,142.1 508.9,141.8 509.3,141.8 509.7,142.1 509.9,142.4 510.3,142.7 
	510.8,142.8 511.3,142.6 511.7,142.2 512.1,141.6 512.5,141 512.1,139.2 511.8,138.1 511.9,137.5 512.2,137.2 512.3,136.7 
	512.2,136.2 512.4,135.8 512.5,134.7 512.7,134.4 513.4,134.2 514.4,134.1 515.2,133.6 515.9,133.1 515.9,132.6 515.5,132.1 
	514.9,131.2 514.4,130.6 513.3,129.5 513.3,128.9 513.7,128.6 515.1,129.1 515.5,129.1 515.9,129.2 517.1,129.2 518,129 
	518.9,128.6 519,128.2 518.9,127.7 518.9,127.3 518.8,126.7 518.3,126.4 518.1,126.1 517.9,125.8 518.2,125.6 518.3,125.4 
	518.5,124.9 518.9,124.3 519.1,123.8 519.4,123.5 519.8,123.2 520,122.7 520.1,122.4 520.3,122.1 520.4,121.9 520.3,121.8 
	520.1,121.5 519.9,121.3 519.8,121.1 519.9,120.8 520,120.6 519.9,120.3 519.7,119.8 519.4,119.5 519,118.8 518.6,118 518.4,117.8 
	518.1,117.4 517.4,117.1 517.2,116.8 517.3,116.3 517.7,116 518.2,115.3 518.5,114.8 518.8,114.4 519.3,114.5 519.6,114.5 
	519.7,114.2 520.1,113.9 520.9,113.3 521.1,112.9 521.5,112.7 521.8,112.6 522.3,112.5 522.8,112.3 523.2,112.1 523.9,112.1 
	524.9,112 525.5,111.9 526.9,111.8 528.5,111.8 528.6,111.7 529.4,112 529.9,112.1 530,112.1 530.7,111.7 531.7,111.2 532.2,110.9 
	532.1,110.9 531.9,110.7 531.3,110.3 531.2,110.1 532,109.7 532.5,109.5 532.7,109.3 532.8,109.4 533,109.6 533.4,109.7 
	533.6,109.7 "/>
<rect x="340.3" y="42.4" class="st2" width="140.7" height="120.4"/>
<text transform="matrix(1 0 0 1 340.2793 50.9595)" class="st5" style="font-family:'MyriadPro-Semibold';">Aruba</text>
<text transform="matrix(1 0 0 1 340.2793 65.3595)" class="st5" style="font-family:'MyriadPro-Semibold';">United States</text>
<text transform="matrix(1.0863 0 0 1 92.4552 109.1515)" class="st3 st4">1. </text>
<rect x="162.9" y="169.8" class="st2" width="78.5" height="59.4"/>
<text transform="matrix(1 0 0 1 115.7806 108.8165)" class="st3 st5"> United States</text>
<g>
	<g>
		<g>
			<path vector-effect="non-scaling-stroke" class="st6" d="M199,207.1L199,207.1l9.4-0.9l2.5,9.2l0.9,1.6v0.9l0.5,0.3l-0.5,0.7
				l-0.3,1.2l0.5,1.2v1.8l0.5,0.7l-9.9,0.9v0.7l0.9,0.7v0.5l0,0l-0.3,1.4h-0.9l-0.7-0.5l-0.5-1.2l-0.3,1.6l-0.9-0.3l-0.9-6.7
				l0.3-6.9l0.3-6.9L199,207.1z"/>
			<path vector-effect="non-scaling-stroke" class="st6" d="M107.6,240.8L107.6,240.8l0.3,0.3h0.5l0.5,0.5v0.3l-0.3-0.5h-0.3
				l0.3,0.3l0.3,0.3l0.3,0.5h-0.3l-0.3,0.5l0,0l-0.3-0.3l0.3-0.3l-0.3-0.3l-0.3-0.5l-0.3-0.5L107.6,240.8z M107.3,242.4v-0.5
				l0.5,0.3h0.3l0.3,0.5l0.5,0.7l0.3,0.7l-0.3-0.3l-0.5-0.5l-0.3-0.3l-0.3-0.7h-0.5V242.4z M107.3,242.6L107.3,242.6L107.3,242.6
				h0.5v0.3h-0.3L107.3,242.6L107.3,242.6z M106.4,241.7l0.3-0.5l0.3-0.3l0.7,0.3v0.3l0.3,0.7h-0.3l-0.5-0.3l0,0l0.3,0.3l-0.3,0.3
				l-0.3-0.3l-0.3-0.5L106.4,241.7L106.4,241.7z M98.1,239.5L98.1,239.5l0.5-0.3L98.1,239.5L98.1,239.5z M97.9,239.6L97.9,239.6
				l0.5-0.3l0,0L97.9,239.6L97.9,239.6z M97,240.6L97,240.6l0.5-0.7v-0.3h0.3l-0.3,0.5v0.3L97,240.6z M97,239.9v-0.3l0.3-0.3
				L97,239.9L97,239.9z M96.7,240.4l0.3-0.3L96.7,240.4L96.7,240.4z M67.3,248l0.3,0.3L67.3,248L67.3,248z M65.3,247.2h0.3H65.3
				L65.3,247.2z M62.3,244.7h0.3v0.3L62.3,244.7z M62,243.8L62,243.8l0.7,0.3l0.3,0.5l-0.5-0.3L62,243.8L62,243.8z M111.9,245
				L111.9,245h0.3H111.9z M111.7,245v-0.5h0.3v0.3L111.7,245z M110.8,245.4L110.8,245.4L110.8,245.4L110.8,245.4z M109.9,243.3
				L109.9,243.3l0.3-0.3v0.3H109.9L109.9,243.3z M109.9,245.1L109.9,245.1l0.3-0.3L109.9,245.1z M109.6,244.2l0.3-0.5l-0.3-0.3h0.5
				l0.3,0.3v0.3h0.3l0.5,0.3l0.3,0.3l0,0l0.5,0.3l0.3,0.7v0.3h-0.5v-0.3l-0.5-0.3H111v-0.3h-0.3l0.3,0.5h0.3v0.3l-0.5-0.3l-0.3-0.5
				h-0.3v-0.1l0.3-0.3l-0.3-0.3h-0.3L109.6,244.2h0.5l-0.3-0.3L109.6,244.2z M109.1,244.2L109.1,244.2L109.1,244.2L109.1,244.2z
				 M108.7,243.2l0.3-0.3l0.3,0.3v-0.3l-0.5-0.3v-0.3h0.7l0.5,0.5l-0.3,0.3h-0.3v0.3l-0.5,0.3v-0.3h-0.3l0.3,0.5v0.5l0,0l-0.3-0.3
				v-0.5L108.7,243.2L108.7,243.2z M70.3,249.8L70.3,249.8l0.5-0.5h0.3l-0.3,0.3h0.3v0.3L70.3,249.8z M69.6,249.3h0.5l0.3-0.3l0,0
				l-0.3,0.3H69.6z M69.4,248.9h0.3v0.5h-0.3V248.9z M92.6,243.6l0.3-0.5h0.3l0.3-0.5h0.3l-0.3,0.5h0.5v0.3h-0.5l-0.3,0.3
				L92.6,243.6z M91.9,245.9L91.9,245.9h0.5H91.9z M91.5,246l0.3-0.3l0,0L91.5,246z M91.5,244.7l0.3-0.3l0.3-0.3h0.3v-0.5h0.3
				l0.3,0.3l-0.3-0.3l0.3,0.3l-0.3-0.3L93,244v0.3l0.3-0.3v0.5h0.3l-0.3,0.3h-0.5L93,245v0.3h-0.5h0.3l-0.5,0.3v-0.3l-0.3,0.3
				l-0.3,0.5h-0.3l0.3-0.3l0,0l0.3-0.3l-0.5,0.5l-0.3-0.3v-0.3L91.5,244.7z M90.8,247.1L90.8,247.1L90.8,247.1L90.8,247.1z
				 M86.6,248.1l0.3-0.5l0,0L86.6,248.1z M86.4,247.5L86.4,247.5L86.4,247.5L86.4,247.5z M86.2,247.5h0.3v0.5L86.2,247.5L86.2,247.5
				z M86.6,242.4L86.6,242.4l0.5-0.3L86.6,242.4L86.6,242.4z M85.2,247.7h0.3H85.2L85.2,247.7z M84.8,248L84.8,248L84.8,248
				L84.8,248z M86.2,234.7L86.2,234.7h0.3H86.2z M84.3,248.7L84.3,248.7h0.3H84.3z M82.4,248.1L82.4,248.1l0.5-0.5l0,0l0.5-0.3h0.3
				l0.3,0.5l-0.3,0.3h-0.3H83v0.3h-0.5V248.1z M81.5,248.7L81.5,248.7L81.5,248.7L81.5,248.7z M81.4,248.7L81.4,248.7h0.5H81.4
				L81.4,248.7z M80.9,249.1L80.9,249.1L80.9,249.1L80.9,249.1z M82,239.2h0.5l0.3-0.3h0.3v0.3h0.3v0.7h-0.5l-0.3,0.3l-0.3-0.3H82
				l-0.5-0.5L82,239.2z M79.6,249.6L79.6,249.6l0.7-0.3l0.3-0.3h0.3l-0.5-0.3l0.3-0.3H81v0.3l0.3-0.3l-0.5,0.5H81v0.3h-0.3l-0.3,0.3
				h-0.3L79.6,249.6L79.6,249.6z M83.2,230.7l1.2-0.5l0.7-0.3h0.5h0.5h0.5v0.3l-0.3,0.5v0.3h0.5h0.3l0,0h0.3h0.3l0.3-0.3h0.3v-0.3
				l-0.3-0.3h-0.3V230l-0.3-0.3h-0.5v-0.3v-0.3l0,0l0.3,0.3v0.3l0.3,0.5h0.3l-0.3-0.5v-0.3l0.3-0.3l-0.3-0.3h-0.5l-0.3-0.3h-0.3
				l-0.5-0.3v-0.5v-0.3l-0.3-0.3l-0.5-0.5l-0.3-0.3v-0.3l-0.5-0.3h0.3v-0.3v-0.5h0.5h0.7H86l0.3-0.3l0.3-0.3v-0.3v-0.3v-0.3l0.5-0.5
				l0.3-0.3h0.3h0.3l0.3-0.3l0.5-0.5h0.3v0.3h0.7h0.3l0.3-0.3l0.3-0.5h0.3l0.3,0.3h0.3v0.3l-0.3,0.3h-0.3v0.3h0.3v-0.3l0.3-0.3v-0.3
				l0.3,0.3v0.3h0.3l0.3-0.3h0.5l0.5,0.3l-0.8,1.2v0.3h0.5v0.3h0.3h0.3v-0.3h0.5l0.3-0.3h0.5h0.3l0.3,0.3l0,0h0.3l0,0h0.5H96h0.5
				l0.3,0.3h0.3l0.5-0.3h0.3l0.5,0.3l0.3,0.3h0.3l0.3,0.3h0.3l2.7,14.3h0.5v-0.3l0.5,0.3l0.3-0.3l0.5-0.3v0.5l0.5,0.3v0.3l0.9,0.7
				l0.3,0.5l0.5-0.5h0.3V240v-0.3l0.3-0.3h-1.6l0.3-0.3l0.3-0.3l0.5,0.3v0.3l0.3,0.3h0.3l0.3,0.3l0.3,0.5h0.5l0.5,0.3l0,0l0.3,0.3
				l0.7,0.7l0.5,0.3v0.3h0.3v0.3h0.3l0.3,0.3h0.3l0.5,0.3h0.3h0.3v0.3h0.3l0.3,0.3v0.3l0.5,0.7v0.7l-0.3,0.5h-0.9l-0.3-0.5l-0.3-0.3
				l0.3-0.3l-0.3-0.5l-0.5-0.3l0.5,0.5l0.3,0.5v0.5l-0.3-0.3h-0.5v0.3l-0.3-0.3v-0.5l0,0v-0.5l-0.3,0.3h0.3v0.5h-0.3v-0.3v-0.3
				l-0.3-0.3l-0.3,0.3l0.3,0.3l-0.3,0.3l-0.3-0.3l0,0l-0.3-0.3l0.3-0.3v-0.5h-0.3v-0.3l0,0l-0.3-0.3h0.3h-0.7v-0.3l0.3-0.3h-0.3
				l-0.3-0.5h0.5l-0.5-0.3v-0.3v0.3l-0.5-0.3l-0.3-0.3h-0.5l-0.3-0.5l-0.5-0.5l-0.3-0.3v0.3l0.5,0.5l0.3,0.5v0.3h-0.3l-0.3-0.3
				l-0.5,0.3l-0.3-0.3l0,0l-0.3-0.3l0,0l-0.7-0.3v0.3h0.5l0.5,0.5v0.3l-0.3,0.3l0,0v0.3l-0.3-0.3h-0.3l-0.5-0.3l-0.3-0.3v-0.3
				l-0.3-0.3h-0.5l-1.2-0.5l0.3-0.3l-0.3-0.3v0.3l-0.3,0.3h-0.5l-0.5-0.3l0,0l-0.3-0.3l0,0l0.3,0.3l-0.3,0.3h-0.7h0.3l-0.5,0.3
				l-0.3,0.3l-0.3-0.3h-0.5v-0.3v-0.3l-0.3,0.3l-0.3-0.3h-0.3l0.3-0.3h-0.5v-0.3l-0.5,0.3v-0.3h0.3h-0.3v-0.3v0.1l-0.3,0.3v-0.3v0.3
				h-0.3v-0.5v0.5l-0.5,0.3v-0.3l0.3-0.5V239l-0.3,0.5v-0.3l-0.3,0.7l0.3-0.3l0.3,0.5l-0.3,0.3l0.3,0.3v0.3l-0.3-0.3v0.3v-0.3v0.3
				l-0.5-0.3v0.3v-0.3l-0.3,0.5h-0.3l-0.5,0.5l0.3-0.5l-0.3,0.5h0.5l-0.3,0.3h-0.3l-0.3,0.3l-0.3-0.3v-0.3l0.5-0.3v-0.3l-0.3,0.3
				l-0.3-0.3v-0.5l0.3-0.3v-0.5l-0.3-0.3h0.3l0.5-0.5l0.3,0.3H95v-0.3h0.5l-0.5-0.3l-0.3-0.3l0.3-0.5l0.3-0.3H95l0.5,0.3v0.3H95l0,0
				l-0.3,0.3v0.3h-0.3l-0.3,0.3v0.3l-0.3,0.3l-0.3,0.3v0.3l-0.3,0.3h-0.3l0.3,0.3h-0.5h-0.3h0.3v0.3h-0.3l-0.3,0.3v0.3l-0.3,0.3v0.5
				h0.5l0.3,0.3v0.3l-0.3,0.3h-0.3l-0.3,0.5v0.3l-0.3,0.3h-0.3l-0.3,0.3l-0.3,0.3v0.3h-0.3l-0.3,0.5h0.3v0.3h-0.3l-0.3,0.3h0.3v0.3
				l-0.3,0.3H90l-0.3,0.3l-0.3-0.3l-0.3,0.3l-0.5,0.3H89v0.3h-0.3l-0.3,0.3l0.3,0.3h-0.3v0.5l-0.3-0.3v0.3l0,0v0.3h-0.5l-0.3,0.5
				v-0.5h-0.3l-0.5,0.3l-0.3,0.3h-0.3l-0.3,0.3h-0.3l0.3-0.5h-0.3v0.3l-0.5,0.5h-0.3v-0.5h-0.3v0.5h-0.3l-0.3-0.3h0.3l0.3,0.3
				l-0.3-0.9l0.3-0.5h0.5v-0.3h0.3v-0.3l0.3-0.3l0.5-0.3h0.5h0.3l0.3,0.5v-0.3h0.3v0.3h0.3l-0.3-0.3l0.3-0.5l0.5-0.5l0.5-0.3
				l0.3-0.3h0.3v-0.5l0.3-0.3l0.7-0.5l0.3-0.9h0.3v-0.3V243l0.5-0.5v-0.3h-0.3l-0.7,0.3H90l-0.3-0.3V242l-0.3,0.3v0.3v0.5h-0.3
				l-0.3-0.5l-0.3-0.3l-0.3,0.3l-0.3-0.3V242l-0.3,0.3l-0.5,0.3l-0.3,0.3l-0.3-0.3v-0.3V242l-0.3-0.5l0.3-0.3l-0.5-1.2v0.3l-0.5,0.3
				h-0.5h-0.3v-0.3l-0.3-0.5h-0.3l-0.3-0.3l-0.3-0.3l0.5-0.3v-0.3l-0.7-1.4h0.3l-0.3-0.3h-0.3v-0.3h-0.3l0.3-0.3h-0.3v-0.3h0.3
				l-0.3-0.3h0.5v-0.5l0.5-0.5l0.3-0.3v-0.3v1.2l0.3-0.3v-0.3l0.3-0.3h0.3h0.3l0.3,0.3h0.3l0.3-0.3l0.3-0.5l0,0h0.5h0.3l0.3-0.3
				v-0.3v-0.5V233l-0.3-0.3h-0.7l0.3-0.3h0.3l0.3-0.3v-0.3l-0.3-0.3l-0.3,0.3h-0.3l-0.3,0.3l-0.3,0.3l-0.3,0.3v-0.3l-0.3-0.3l0,0
				l0.3,0.3v0.3l-0.3-0.3h-0.5l-0.5,0.3l-0.9-0.5l-0.3-0.3v-0.3l-0.3-0.5h0.3l0.3-0.3h-0.3h-0.3L83.2,230.7z M78.1,250l0.3-0.3
				l0.3-0.3l0.5-0.3l0.3-0.3H80v0.3l-0.5,0.3l-0.3,0.3L78.1,250z M78.8,244.2H79H78.8L78.8,244.2z M77.2,249.8h0.3H77.2L77.2,249.8z
				 M76.6,250L76.6,250h0.3H76.6z M80,233.5l0.3-0.5v0.3l0.5,0.3H81h0.3v0.3l0.3,0.3l0.5,0.3l-0.3,0.3h-0.5l-0.3,0.3v-0.3l-0.3-0.3
				V234l-0.3-0.3h-0.3H80L80,233.5L80,233.5z M74.7,250L74.7,250H75H74.7z M77.9,237.5L77.9,237.5l0.5,0.5h-0.3L77.9,237.5z
				 M73.3,249.8h0.5l0,0l0.5,0.3h-0.5L73.3,249.8L73.3,249.8z M72.1,249.6h0.5h0.5l0.3-0.3l0.3,0.3h-0.3v0.3h-0.3h-0.5L72.1,249.6z"
				/>
			<path vector-effect="non-scaling-stroke" class="st6" d="M101.8,211.6h0.7l0.3-1.2l-0.5-0.3l0.3-1.6l0.9-0.5l0.5-1.8l0.5-0.7
				l1.2-0.7l-0.7-0.7l-0.3-1.2l-0.5-0.7v-0.7l0.5-0.7v-2.5l0.3-0.7l-0.3-0.9h1.4l0.7,0.7l0.5-0.7l0.7-3.4l17.5,2.7l-3.4,25.1
				l-7.6-1.2l-3.3-1.8l-9.7-5.8L101.8,211.6z"/>
			<path vector-effect="non-scaling-stroke" class="st6" d="M175.8,201.6l15.8-0.7v0.3l0,0l0.3,0.7l-0.9,1.4l2.4-0.3l0.3,0.5
				l-0.9,0.7l0.5,0.5l-1.2,0.9l0.5,1.2l-0.9,0.7l-0.7,2.5l-0.7,0.5l-0.5,1.4l-0.7,0.3l0.5,0.9l-0.9,0.9l0.5,0.7v1.8l-10.6,0.3v-2.4
				h-1.4l-0.5-0.5V206L175.8,201.6z"/>
			<path vector-effect="non-scaling-stroke" class="st6" d="M88.5,205.2l0.7,0.5l-0.5,0.3L88.5,205.2z M88.1,207.1l0.7,1.2l-0.5-0.3
				L88.1,207.1z M84.3,201.6l1.2,0.7l-1.2-0.3V201.6z M83.2,201.6h0.7l-0.5,0.5L83.2,201.6z M79.7,163.1l5.8,1.6l7.6,2.1l-3.4,13.1
				l2.7,4.2L97,191l3.9,5.8l3.4,5.1v0.7l0.5,0.7l0.3,1.2l0.7,0.7l-1.2,0.7l-0.5,0.7l-0.5,1.8l-0.9,0.5l-0.3,1.6l0.5,0.3l-0.3,1.2
				h-0.7l-9-1.2l-0.3-0.7l0.3-1.6l-0.5-1.6l-2.1-2.5l-0.5,0.3l-0.7-1.6h-0.9l-1.4-0.9v-0.5l-0.9-0.9l-1.4-0.5l-1.6-0.5l-0.5-0.7
				l0.7-2.5l-0.7-0.7l0.3-0.7l-1.2-1.6l-0.9-2.7l-0.5-0.7v-1.2l0.9-0.9l-0.3-0.9l-0.7-0.3l-0.7-0.9V184l0.3-1.2h0.5l-0.3,0.9
				l0.7,0.7v-0.9l-0.5-0.7V182l0.7-0.3l-0.7-0.5l-0.5,1.2l-0.7-0.9l-0.7-0.3l0.5-0.7l-0.3-1.4l-0.5-0.7l-0.9-1.8l0.3-0.5v-1.2
				l0.5-1.2v-1.4l-0.5-1.4l-0.7-0.9V169l1.4-1.6l0.3-1.2l0.7-1.4v-1.2l-0.3-0.5H79.7z"/>
			<path vector-effect="non-scaling-stroke" class="st6" d="M127.6,178.3l16.6,1.8l6.7,0.5l-0.3,4.3l-0.9,13.6l-3.4-0.3l-4.6-0.5
				l-16.6-1.8l0.7-5.2v-0.5L127.6,178.3z"/>
			<path vector-effect="non-scaling-stroke" class="st6" d="M244.1,168l5.2-1.2l0,0l0.7,2.5v0.5l-1.6,0.7l-1.6,0.5l-2.1,1.6l0,0l0,0
				l-0.5-0.5l0.7-0.7l-0.3-0.3L244.1,168z"/>
			<path vector-effect="non-scaling-stroke" class="st6" d="M238.8,179.7l0.5-0.7h0.7l-0.5,0.9l0.3,0.7l0.9,0.9l0.3,0.9l0.9,0.9h0.5
				l0.5,1.4l-2.4,0.5L238.8,179.7z"/>
			<path vector-effect="non-scaling-stroke" class="st6" d="M235.1,184.3h0.7l-0.5,0.5L235.1,184.3z"/>
			<path vector-effect="non-scaling-stroke" class="st6" d="M208.4,206.3l4.6-0.5l4.3-0.7l-0.7,1.4l1.2,0.9h0.7l1.6,2.4l1.2,0.7
				l0.3,0.5l1.2,0.7v0.5l0.9,0.9l0.9,0.5l0.5,1.4l0,0l0.5,0.5l0,0l0,0l0,0l0.5,0.3l0.7,1.6l0.9,0.3l-0.7,1.6l-0.3,2.4l-0.7,1.2
				l0.5,0.3v0.9l-2.1-0.3l-0.3,0.7l0.3,1.4h-0.7l-0.3-0.7l-5.5,0.5l-4.6,0.3l-0.7-1.2l-0.5-0.7v-1.8l-0.5-1.2l0.3-1.2l0.5-0.7
				l-0.5-0.3v-0.9l-0.9-1.6L208.4,206.3z"/>
			<path vector-effect="non-scaling-stroke" class="st6" d="M133.1,246.3l0.9-1.4l-0.3-1.2l2.5,1.2l0.9,0.7v0.5l1.2,0.9l-0.7,0.7
				l-1.4,0.5l-1.6,1.4l-0.9-0.5v-1.4L133.1,246.3z M130.6,241.3l0.5-0.5l0.5,0.7l0.7-0.3l1.4,0.7l-0.3,0.5l-1.6,0.3V242L130.6,241.3
				z M128.9,241.3l1.2,0.5l-0.7,0.3L128.9,241.3z M128,240.4l0.3-0.5l2.1,0.3l-0.5,0.5L128,240.4z M123.9,238.3l1.4-0.7l0.5,1.2
				l0.9,0.7h-2L123.9,238.3z M117.6,236.2l0.9-0.9h0.9l0.5,0.5l-0.7,1.2L117.6,236.2z"/>
			<path vector-effect="non-scaling-stroke" class="st6" d="M106.6,151.9V150l2.5-11.2l2.7,0.7l-0.9,4.3l0.7,1.4l-0.3,1.2l1.2,1.2
				l0.7,1.8l0.7,0.7v0.5l0.9,0.3l-0.5,0.5l-0.7,1.8l0.3,0.9l-0.5,0.3l-0.3,0.9l0.7,0.5l1.2-0.9l0.5,0.5v0.9l0.5,1.4l0.3,0.3
				l-0.3,0.9l0.9,0.7l0.5,1.8l0.5-0.3l1.2,0.5l0.5-0.5l0.5,0.3l1.8,0.3l0.3-0.7h0.5l0.7,1.4l-1.8,10.9l-9.7-1.6l-9.7-2.1l1.8-7.8
				l0.7-1.4l-0.7-0.7v-0.7l0.9-1.4h0.5l0.5-0.9l1.6-2.4l-0.3-0.7l-0.5-0.3L106.6,151.9z"/>
			<path vector-effect="non-scaling-stroke" class="st6" d="M186.2,183.8l0.3-1.2l0.7-0.3l0.5-1.2v-0.5L187,180l0.3-0.9l1.2-0.3
				l0.9-0.7l0.5-0.9v-1.4l-0.7-0.5l-0.9-1.2l9.2-0.7v0.9l0.5,0.9l0.7,1.6l0.9,10.6l-0.3,1.2l0.5,0.7l0.3,0.9l-1.8,4.2l0.3,0.5
				l-0.5,0.7l0.5,0.9L197,197l0.3,1.4l-1.6-0.5l-0.7,0.7l0.3,0.5h-0.5l-0.9-1.2l0.3-0.5l-0.5-1.4l-1.2-0.9l-0.3,0.3l-1.6-1.4v-0.5
				l0.7-1.4l0.3-1.2l-1.2-0.5l-0.7,0.3l-0.3-1.4l-1.2-0.9l-1.2-1.2l-0.5-1.4L186.2,183.8z"/>
			<path vector-effect="non-scaling-stroke" class="st6" d="M198.9,177l1.2,0.3l1.2-0.7l6.7-0.7v0.3l0.7,6.7l0.5,5.1l-0.3,0.3
				l0.5,1.2l-1.2,0.7h-0.9l0.3,0.9l-1.2,1.2l-0.3,1.2l-0.5,0.5l-1.2-0.7l-0.7,0.7v0.5l-0.7,0.3l-0.3-0.5l-1.2,0.9l-0.9-0.7l-0.7,0.5
				h-1.2l-0.3,0.5l-0.3-0.5l1.8-4.2l-0.3-0.9l-0.5-0.7l0.3-1.2L198.9,177z"/>
			<path vector-effect="non-scaling-stroke" class="st6" d="M169.4,170l16.7-0.5v0.7l0.5,0.5l-0.5,0.5l0.5,1.8l1.2,0.5l0.3,0.5
				l0.9,1.2l0.7,0.5v1.4l-0.5,0.9l-0.9,0.7l-1.2,0.3l-0.3,0.9l0.7,0.7v0.7l-0.5,1.2l-0.7,0.3l-0.3,1.2l-1.2-0.9l-5.2,0.5l-4.6,0.3
				h-3.7l-0.5-0.7l0.3-0.9l-0.5-2.1l0.3-0.5l-0.5-0.5v-1.2l-0.7-0.9l-0.7-2.4l-0.7-0.9l0.3-0.7l0.3-1.6l-0.5-1.2L169.4,170z"/>
			<path vector-effect="non-scaling-stroke" class="st6" d="M150.6,185.2l22.6,0.7l1.4,0.7L174,188l1.2,1.6h0.5v9.7l-20.9-0.5
				l-5.2-0.3L150.6,185.2z"/>
			<path vector-effect="non-scaling-stroke" class="st6" d="M226.6,182.2l12.2-2.4l1.6,5.5l2.4-0.5l-0.3,2.1l-1.4,0.5l-0.9,0.3
				l-0.7-1.4l-0.9-0.3l-0.5-0.5v-0.7h0.9l-1.2-0.5l-0.3-0.5l0.3-2.4l0.5-0.7v-0.1l-1.2,1.8l0.5,0.7l-0.3,1.4l0.3,0.9l0.7,0.5
				l0.5,1.4l-1.2-0.5h-1.2l-0.5-0.7l-0.7,0.5l-0.3-0.5l0.5-0.7l0.3-0.7l0.5-0.5h-0.7l-1.6-0.5l0.3-0.5l-0.9-0.3l-0.7-0.9l-1.2-0.5
				l-0.7,0.9h-0.7l-0.5-0.5l0,0l-0.5,0.9h-0.5l-1.2,1.4L226.6,182.2z"/>
			<path vector-effect="non-scaling-stroke" class="st6" d="M167.3,145.7h6.1V144l0.9,0.5l0.5,2.4l0.5,0.3l2.1,0.3l0.3,0.5l0.9-0.3
				l0.3-0.5h1.2l1.4,0.7l0.5,0.9l0.3-0.5h0.7l0.3,0.5l0.9,0.3l0.5,0.7l0.9-0.3l1.2-0.7l0.5,0.7l1.8-0.3l0.9,0.5h0.7l-1.2,0.9
				l-1.8,0.5l-1.6,1.2l-1.2,1.6l-1.8,1.6l0.3,0.5l-0.9,0.3v2.5l-1.2,0.7l-0.7,0.9v0.7l0.7,0.5l-0.3,0.7v1.6l-0.3,0.9l0.9,0.7h0.7
				l0.3,0.5l0.9,0.5l0.3,0.7l1.4,0.9l0.7,0.9l0.3,1.2l-16.7,0.5v-8.1l-0.7-0.5l-0.5-0.9l0.7-0.7l0.3-0.9v-1.2l0,0l0,0l0,0l-0.5-1.4
				l-0.3-2.4l0,0v-2.5l-0.9-2.5v-1.8l0.3-0.5L167.3,145.7z"/>
			<path vector-effect="non-scaling-stroke" class="st6" d="M188.7,216.7v-1.8l-0.5-0.7l0.9-0.9l-0.5-0.9l0.7-0.3l0.5-1.4l0.7-0.5
				l0.7-2.5l7.6-0.5l0.5,0.5l-0.3,6.9l-0.3,6.9l0.9,6.7l-0.3,0.3l-2.1-0.3l-1.2,0.5l-0.7,0.7l-1.2-1.6l0,0v-1.2l0,0v-0.9l-7.1,0.5
				l0.3-0.3l-0.3-1.4h0.5v-1.2l0.5-0.3l0.3-1.4l1.2-1.4h-0.7l0.9-0.9l-0.7-0.7l-0.3-1.4l0.3-0.7L188.7,216.7z"/>
			<path vector-effect="non-scaling-stroke" class="st6" d="M112.1,139.4l6.9,1.4l12.8,2.1l15.4,1.8l-1.2,13.3l-0.5,4.2l-21.8-2.7
				l-0.5,2.4l-0.7-1.4h-0.4l-0.3,0.7l-1.8-0.3l-0.5-0.3l-0.5,0.5l-1.2-0.5l-0.5,0.3l-0.5-1.8l-0.9-0.7l0.3-0.9l-0.5,0.5l-0.5-1.4
				v-0.9l-0.5-0.5l-1.2,0.9l-0.7-0.5l0.3-0.9l0.5-0.3l-0.3-0.9l0.7-1.8l0.5-0.5l-0.9-0.3v-0.5l-0.7-0.7l-0.7-1.8l-1.2-1.6l0.3-1.2
				l-0.7-1.4L112.1,139.4z"/>
			<path vector-effect="non-scaling-stroke" class="st6" d="M93,167l9.4,2.4l9.7,2.1l-4.3,22.1l-0.7,3.4l-0.5,0.7L106,197h-1.4
				l0.3,0.9l-0.3,0.7v2.5l-0.5,0.7l-3.4-5.1l-3.9-5.8l-4.6-6.9l-2.7-4.2L93,167z"/>
			<path vector-effect="non-scaling-stroke" class="st6" d="M239.7,179.9l0.3-0.9l1.8-2.1l-1.4-0.9l-0.7-1.2l0.3-0.9l-0.5-0.5
				l1.2-2.1l3,0.9l-0.3,1.4l-0.5,0.5l0,0l-0.3,0.9h0.9l0.3,0.5l0.3,2.4l-0.5,1.6l-0.7,1.2l-0.5,1.4l-0.5,0.5v-0.9h-0.9l-1.6-0.9
				L239.7,179.9L239.7,179.9z"/>
			<path vector-effect="non-scaling-stroke" class="st6" d="M125.2,195.9l16.6,1.8l4.6,0.5l-0.3,2.4h-0.3l-0.9,11.8l-0.5,3.9
				l-0.3,4.3l-13.3-1.2l0.3,0.9l-6.1-0.7l-0.3,2.1l-3.3-0.5L125.2,195.9z"/>
			<path vector-effect="non-scaling-stroke" class="st6" d="M147.1,144.8l20.3,0.9l0.5,1.6l-0.3,0.5v1.8l0.9,2.5v2.5l0,0l0.3,2.4
				l0.5,1.4l0,0l0,0l0,0v1.2l-11.9-0.5l-11.2-0.7L147.1,144.8z"/>
			<path vector-effect="non-scaling-stroke" class="st6" d="M146.4,198.3l3.4,0.3l5.2,0.3l20.9,0.5v2.4l0.7,5.1v7.8l-1.4-0.5
				l-1.2-0.9l-0.3,0.5l-1.2-0.3l-0.9,0.5h-1.2l-0.7,0.7l-2.1-1.2l-0.9,0.9v-0.7l-0.9,0.5l-0.9-0.7l-0.7,0.7l-0.3-0.7l-1.6-0.7
				l-0.5,0.5l-1.8-0.7h-0.7l-0.3-0.9h-1.6l-1.2-0.9l0.5-8.8h-1.2l0,0l-9.4-0.5L146.4,198.3z"/>
			<path vector-effect="non-scaling-stroke" class="st6" d="M221.6,172.8l2.4-1.6l0.3,1.2l14.3-2.7l1.2,0.7l0.3,0.9l1.4,0.9l-1.4,2
				l0.5,0.5l-0.3,0.9l0.7,1.2l1.4,0.9l-1.8,2.1l0,0h-0.7l-0.5,0.7l-12.2,2.4l-3.4,0.7l-0.7-4.2L221.6,172.8z"/>
			<path vector-effect="non-scaling-stroke" class="st6" d="M217.2,205l1.8-0.9l0,0l0.9-0.3l4.3-0.5l1.2,0.7v0.5l3.9-0.7l4.8,3.4
				l-0.9,0.7l-0.7,1.4l-0.3,1.4l-0.5,0.9h-0.7v0.7l-1.4,1.6l-1.6,0.9l0.3,0.7l-0.7,0.5l-0.7,1.2l-0.9-0.3l-0.7-1.6L225,215l0,0l0,0
				l0,0l-0.5-0.5l0,0l-0.5-1.4l-0.9-0.5l-0.9-0.9v-0.5l-1.2-0.7l-0.3-0.5l-1.2-0.7l-1.6-2.4h-0.7l-1.2-0.9L217.2,205z"/>
			<path vector-effect="non-scaling-stroke" class="st6" d="M145.7,162.5l0.5-4.2l11.2,0.7l11.9,0.5l-0.5,0.7l-0.7,0.7l0.5,0.9
				l0.7,0.5v8.1h-0.5l0.5,1.2l-0.3,1.6l-0.3,0.7l0.7,0.9h-0.7l-0.3-0.7l-2.1-0.9H165l-0.5,0.5l-1.6-0.9v-0.3l-17.9-0.9L145.7,162.5z
				"/>
			<path vector-effect="non-scaling-stroke" class="st6" d="M112.1,171.2l9.7,1.6l-0.7,4.3l6.7,0.9l-1.6,12.2v0.5l-0.7,5.2
				l-17.5-2.7L112.1,171.2z"/>
			<path vector-effect="non-scaling-stroke" class="st6" d="M241.4,154.9l5.5-1.4v0.9l0,0l0.3,1.4l-0.5,0.9l-0.7,0.3l0.3,0.9
				l-0.3,1.6l-0.3,0.9l0.3,2.4v0.9l0.5,0.5l-2.5,0.5l-0.7-3.4l-0.7-0.3v-0.7l-0.5-1.2v-2.1l-0.5-0.7L241.4,154.9z"/>
			<path vector-effect="non-scaling-stroke" class="st6" d="M216.9,189.5l0.9-0.3l0.5-0.7l-0.3-0.9l0.5-1.2l0.7,0.7l0.5-1.8l0.7-0.7
				h0.7l1.2-1.6v-1.6l0.3-1.2l-0.5-1.2l0.5-0.3l0.7,4.2l3.4-0.7l0.5,2.4l1.2-1.4h0.5l0.5-0.9l0,0l0.5,0.5h0.7l0.7-0.9l1.2,0.5
				l0.7,0.9l-0.3,0.9l-2.1-1.2v1.4l-1.2,1.4l-0.3,0.7l-0.5-0.3l-0.5,1.8l-0.7,0.3l-0.7-0.5l-0.3,1.2l-0.7,1.8l-0.7,1.2l0,0v1.2
				l-0.7,0.3l-1.2,0.9l-1.2,0.5l-0.7-0.3l0,0l-0.3,0.3l0,0l-0.7,0.5l-1.2-0.9l0,0v-0.3l0,0v-0.3l-1.2-0.5l-1.6-1.8L216.9,189.5z"/>
			<path vector-effect="non-scaling-stroke" class="st6" d="M145.7,162.5l-0.7,9l-0.7,9l-16.6-1.8l-6.7-0.9l0.7-4.3l1.8-10.9
				l0.5-2.4L145.7,162.5z"/>
			<path vector-effect="non-scaling-stroke" class="st6" d="M228.9,250.2l1.4-1.4l0.7,0.7L228.9,250.2z M212.6,223.8l0.7,1.2
				l4.6-0.3l5.5-0.5l0.3,0.7h0.7l-0.3-1.4l0.3-0.7l2.1,0.3l0.5,1.8l0.9,2.1l1.6,2.7l1.8,2.1l0.3,1.8l1.2,1.8l2.1,3.9l0.5,4.3
				l-0.7,1.4l0.3,0.7l-0.3,0.9l-1.2,0.5l-1.6,0.5l-0.3-1.2l-0.9-1.2l-1.2-0.7l-0.7,0.3l-1.2-2.4l-0.9-0.5v-1.6l-0.7,0.7l-2.1-2.7
				l0.9-1.8l-1.2-0.7l0.5,0.9l-0.5,0.7l-0.5-0.7l0.3-3.3l-0.3-1.4l-0.7-1.2l-0.9,0.3l-0.9-1.2l-0.7-0.3l-0.3-0.7l-1.2-0.9l-1.4-0.7
				l-0.9,0.3l-0.3,0.9h-0.7l-1.2,0.9l-1.6,0.5l-0.5-1.2l-2.5-1.2l-1.2-0.3h-1.2l-3.4,0.9l0.3-1.4l0,0v-0.5l-0.9-0.7v-0.7
				L212.6,223.8z"/>
			<path vector-effect="non-scaling-stroke" class="st6" d="M195.1,198.6l-0.3-0.5l0.7-0.7l1.6,0.5l-0.3-1.4l1.4-0.5l-0.5-0.9
				l0.5-0.7l0.3-0.5h1.2l0.7-0.5l0.9,0.7l1.2-0.9l0.3,0.5l0.7-0.3v-0.5l0.7-0.7l1.2,0.7l0.5-0.5l0.3-1.2l1.2-1.2l-0.3-0.9h0.9
				l1.2-0.7l-0.5-1.2l0.3-0.3l1.2-0.3l0.5,0.3l0.5,0.9h1.2l0.7,0.5l0.5-0.5l0.7,0.5l1.4-0.9l0.3,0.7l0.9,0.7v1.4l1.6,1.8l1.2,0.5
				l-1.2,1.4l-1.2,0.9l-0.5,1.2l-0.7,0.7l0,0l-1.8,0.9l0,0l-4.6,0.5l-2.7,0.3l-2.7,0.3l-4.3,0.5l-0.7-0.3l0.3,0.7l-4.8,0.5l0.5-0.3
				l0.5-0.9L195.1,198.6z"/>
			<path vector-effect="non-scaling-stroke" class="st6" d="M186.2,232.1l0.5-0.3l0.9,0.3l-0.3,0.3L186.2,232.1z M178.1,216.9
				l10.6-0.3l0.5,0.5l-0.3,0.7l0.3,1.4l0.7,0.7l-0.9,0.9h0.7l-1.2,1.4l-0.3,1.4l-0.5,0.3v1.2h-0.5l0.3,0.9l-0.3,0.3l7.1-0.5v0.9l0,0
				v1.2l0,0l1.2,1.6l-1.2,1.2l0.9,0.3l0.5-0.5l0.9,0.5l-0.7,0.9l-0.9,0.3l0.7,1.2h0.7l1.2,1.2l-0.7,0.3l-0.7,0.7l0.5-1.2l-0.3-0.3
				l-1.6-1.2l-0.7-0.3l-0.3,1.2l-0.7,0.5l-0.9-1.2l-1.4,1.4l-0.7-0.5l-1.2-0.3l-0.5-1.2l-0.5,0.3l-0.7-1.2l-0.9,0.3v-0.5l-1.2,0.5
				l0.3,0.5l-0.9,0.5l-1.4-0.3l-2.1-0.7h-1.2l-1.4,0.5l-0.5-0.5l0.9-1.2l-0.3-2.1l0.7-1.4l0.3-0.9l-0.7-1.6l-0.7-0.9l0.3-0.5
				l-0.9-1.2L178.1,216.9z"/>
			<path vector-effect="non-scaling-stroke" class="st6" d="M258.5,152.4v0.7l-0.5-0.3v0.7l-0.9,0.5l-0.3-0.7l-0.3,0.7l0.3,0.7h-1.2
				l-0.3-0.9l-0.3,0.9l-0.3,1.4l-0.3,0.9l-0.5-0.3v0.7l-0.9,0.9l-0.9-0.3l-0.3,1.4v0.9l-0.5,0.3l-0.3,1.2l-1.2-1.2l-1.4-4.6
				l-1.2-3.7l0.7,0.3l0.3-1.4l0.9-2.1l-0.5-1.2l0.5-1.2l-0.3-1.2l1.4-3.9h0.5l0.3,0.7l0.5,0.3l1.6-1.4l1.8,0.9l1.6,4.8l0.3,1.2h1.2
				l0.3,1.4l0.7,0.5l0.5-0.3l0.9,1.4l-0.3,0.7l-1.2,0.9L258.5,152.4z"/>
			<path vector-effect="non-scaling-stroke" class="st6" d="M255.4,168.5l0.7-0.5l0.3,0.5H255.4z M253.3,168.9l0.7-0.7l0.7,0.5
				L253.3,168.9z M244.1,164.7l2.5-0.5l3.7-0.9l0.7-0.9l0.7-0.3l0.3,0.7h0.7l-0.7,0.7l-0.3,1.2l0.5-0.3l0.9,0.7l0.9,1.4l1.4-0.5
				l-0.3-0.9l0.7,1.2l-1.2,0.7l-0.9,0.7v-0.7l-1.2,1.2l-0.5-0.7l-0.3-0.3l-0.5-0.3l-0.5-0.9l-1.4,0.5l0,0l-5.2,1.2l0,0L244.1,164.7z
				"/>
			<path vector-effect="non-scaling-stroke" class="st6" d="M203.2,159.1l0.3-0.7l0.3,0.7H203.2z M201.1,176.5l0.7-0.9l0.9-2.5v-1.8
				l-0.3-0.9l-0.9-1.8l0.3-0.9l-0.5-1.2l0.7-1.4l-0.3-1.4l0.5-0.5v-0.7l0.7-0.3l0.5-1.2l0.3,0.5l-0.3,0.9l0.5,0.5l0.3-1.2v-1.4
				l1.4-0.7l-0.7-0.7l0.5-0.9l0.7-0.3l0.9,0.5h0.7l0.5,0.5l2.1,0.5l0.7,1.2l-0.5,0.3l0.7,1.4v1.6l-0.5,0.5v0.9l-0.7,0.5l-0.3,1.2
				l0.9,0.7l1.2-1.8l0.9-0.5l0.7,0.3l0.5,0.9l0.7,2.4l0.5,0.9v1.8H214l-0.3,1.4l-0.5,0.3l-0.3,1.4l-0.7,1.4l-4.3,0.7v-0.3
				L201.1,176.5L201.1,176.5z M191.3,150l0.3-0.3l1.8-1.2h0.5l-0.7,0.7l-1.4,0.9L191.3,150z M188,156.1l1.2-0.5l0.7-0.7l1.2-0.3
				l1.4-0.9l0.3-0.5l1.8-1.6l1.4-0.3l0.3,0.3l-1.6,1.2l-0.5,0.9l0.3,0.7l0.5-0.7h1.2l1.2,0.9l0.7,0.9l1.2-0.3l1.2,0.5l1.4-1.4
				l2.1-0.3l1.6-0.7v1.4l1.2-0.3l0.3,0.3l0.5-0.5l0.9-0.3l0.3,1.2l-0.5,0.3l0.7,0.3l0.5,0.7l-1.8,0.3l-0.5-0.3l-0.5,0.9l-0.7-0.5
				l-1.6-0.3l-0.5,0.7l-2.1,0.5v0.7l-1.2,0.7l0.5-0.9h-0.7l-0.5,0.9l-0.3-0.7l-1.6,3.4l-0.5-0.3l0.3-0.7h-0.7l0.3-1.4l-1.2-0.5v-0.5
				l-1.4-0.3l-0.5,0.3l0,0h-0.3l0,0l-1.2-0.5l-3.3-0.7l-0.7-0.7l0,0v-0.3l0,0L188,156.1z M208.7,156.4l0.5-0.3l0.3,0.7h-1.2
				L208.7,156.4z"/>
			<path vector-effect="non-scaling-stroke" class="st6" d="M171.6,183.1h3.7l4.6-0.3l5.2-0.5l1.2,0.9l-0.3,1.6l0.5,1.4l1.2,1.2
				l1.2,0.9l0.3,1.4l0.7-0.3l1.2,0.5l-0.3,1.2l-0.7,1.4v0.5l1.6,1.4l0.3-0.3l1.2,0.9l0.5,1.4l-0.3,0.5l0.9,1.2h0.5l0.3,0.9l-0.5,0.9
				l-0.5,0.3h-0.3h-0.3v1.2h-0.7l0.5,0.5l-0.5,0.7l-2.4,0.3l0.9-1.4l-0.3-0.7l0,0v-0.3l-15.3,0.8v-2.4v-9.7h-0.5l-1.2-1.6l0.7-1.4
				l-1.4-0.7l-0.5-1.2l-0.5-0.5L171.6,183.1z"/>
			<path vector-effect="non-scaling-stroke" class="st6" d="M144.8,171.2l17.9,0.9v0.3l1.6,0.9l0.5-0.5h1.6l2.1,0.9l0.3,0.7h0.7
				l0.7,2.4l0.7,0.9v1.2l0.5,0.5l-0.3,0.5l0.5,2.1l-0.3,0.9l0.5,0.7l0.5,1.2l0.5,0.5l0.5,1.2l-22.8-0.7l0.3-4.3l-6.7-0.5
				L144.8,171.2z"/>
			<path vector-effect="non-scaling-stroke" class="st6" d="M247.1,154.4L247.1,154.4v-0.9l0.3-1.2l0.7-0.5l1.2,3.7l1.4,4.6l1.2,1.2
				l-0.3,0.9l-0.7,0.3l-0.7,0.9l-3.7,0.9l-0.5-0.5v-0.9l-0.3-2.4l0.3-0.9l0.3-1.6l-0.3-0.9l0.7-0.3l0.5-0.9L247.1,154.4L247.1,154.4
				z"/>
			<path vector-effect="non-scaling-stroke" class="st6" d="M223.6,171.2l1.4-1.4l1.2-1.4l-0.9-1.2l-0.3-0.9l1.8-0.9l2.4-0.3
				l0.9,0.3l1.8-0.5l1.4-1.4l0.5-0.3l-0.5-1.4l0.5-0.3l-0.9-1.2l0.9-0.9l1.6-2.5l0.9-0.9l5.1-1.4l0.3,1.8l0.5,0.7v1.8l0.5,1.2v0.7
				l0.7,0.3l0.7,3.4v3v0.3l0.7,3.4l0.3,0.3l-0.7,0.7l0.5,0.5l0,0l-0.3,0.9l1.2-0.9l2.5-0.7l0.7-0.9l0.9,0.5L249,172l-2.1,1.4
				l-2.7,1.2l-0.5-0.7l0.3-1.4l-3-0.9l-1.4-0.9l-0.3-0.9l-1.2-0.7l-14.3,2.7L223.6,171.2z"/>
			<path vector-effect="non-scaling-stroke" class="st6" d="M213.5,204.5L213.5,204.5l0.3-0.7l0.7-0.9l0.9-0.3l0.7-0.9l0.9-0.3
				l0.7-1.2h0.7l1.4-1.2h0.7l0.9-1.4v-0.9l4.8-0.7l6.1-1.2l9.2-1.8l-0.3,0.7l0.3,0.9l-0.5,0.5l-2.1,1.4l1.2-0.3l0.7-0.5l0.7,0.3
				l0.3-0.5l0.9,1.2l-1.2,1.8h-2.6l1.8,0.5v0.9l-0.5,0.9l0.9-0.9l0.7,0.3l-0.7,1.4l-2.1,0.7l-1.4,1.6l-0.7,1.4l-0.3,1.6l-0.4-0.1
				l-1.6,0.5l-4.8-3.4l-3.9,0.7v-0.5l-1.2-0.7l-4.3,0.5l-0.9,0.3l0,0l-1.8,0.9l-4.3,0.7v-1.2L213.5,204.5L213.5,204.5z"/>
			<path vector-effect="non-scaling-stroke" class="st6" d="M207.8,176.1l4.3-0.7l1.6,0.7l0.5-0.3l1.4,0.7l1.4-0.9h0.9l1.4-1.4
				l2.4-1.4l0.9,6l-0.5,0.3l0.5,1.2l-0.3,1.2v1.6l-1.2,1.6h-0.7l-0.7,0.7l-0.5,1.8l-0.7-0.7l-0.5,1.2l0.3,0.9L218,189l-0.9,0.3
				l-0.9-0.7l-0.3-0.7l-1.4,0.9l-0.7-0.5l-0.5,0.5l-0.7-0.5h-1.2l-0.5-0.9l-0.5-0.3l-1.2,0.3l-0.5-5.1L207.8,176.1z"/>
			<path vector-effect="non-scaling-stroke" class="st6" d="M87.1,145.7l0.7,0.7h0.5l0.7,1.2l-0.3,1.4l1.4,0.9l1.4-0.3l0.9,0.3
				l0.9,0.7l1.8-0.3l1.2,0.5l0.9-0.3h1.4l1.2,0.3l0.5-0.3l6.1,1.4l0.3,0.9l0.5,0.3l0.3,0.7l-1.6,2.4l-0.5,0.9h-0.5l-0.9,1.4v0.7
				l0.7,0.7l-0.9,1.2l-1.8,7.8l-9.4-2.4l-7.6-2.1l-5.8-1.6l-0.3-0.5l0.3-1.6l0.5-0.9l-0.3-0.9l1.8-2.5L82,155l3-7.6l0.5-2.4l0.9,0.5
				L87.1,145.7z"/>
			<path vector-effect="non-scaling-stroke" class="st6" d="M251.7,167.7l0.5,0.7l-0.7,0.3L251.7,167.7z M250,169.8v-0.5l-0.7-2.5
				l1.4-0.5l0.5,0.9l0.5,0.3h-0.5v1.6L250,169.8z"/>
			<path vector-effect="non-scaling-stroke" class="st6" d="M193.2,202.9l0.5-0.7l-0.5-0.5h0.7v-1.2h0.3h0.3l4.8-0.5l-0.3-0.7
				l0.7,0.3l4.3-0.5l2.7-0.3l2.7-0.3l4.6-0.5l0,0l6.9-0.9v0.9l-0.9,1.4h-0.7l-1.4,1.2h-0.7l-0.3,0.7l-0.9,0.3l-0.7,0.9l-0.9,0.3
				l-0.7,0.9l-0.3,0.7l0,0l-0.7,0.3v1.2l-4.6,0.5l-9.4,0.7l0,0l-7.6,0.5l0.9-0.7l-0.5-1.2l1.2-0.9l-0.5-0.5l0.9-0.7L193.2,202.9z"/>
			<path vector-effect="non-scaling-stroke" class="st6" d="M165.2,244.5l0.3-2.1l0.5-1.2l-0.5,2.4L165.2,244.5z M146.1,200.7
				l9.4,0.5l0,0h1.2l-0.5,8.8l1.2,0.9h1.6l0.3,0.9h0.7l1.8,0.7l0.5-0.5l1.6,0.7l0.3,0.7l0.7-0.7l0.9,0.7l0.9-0.5v0.7l0.9-0.9
				l2.1,1.2l0.7-0.7h1.2l0.9-0.5l1.2,0.3l0.3-0.5l1.2,0.9l1.4,0.5l0.5,0.5h1.4v2.4v4.6l0.9,1.2l-0.3,0.5l0.7,0.9l0.7,1.6l-0.3,0.9
				l-0.7,1.4l0.3,2.1l-0.9,1.2l0.5,0.5l-0.9,0.3l-2.5,1.2l0.9-0.7l-0.9,0.3l0.3-1.2l-1.2,0.9l0.5,0.3v0.9l-1.8,1.8l-3.3,1.6
				l-1.8,1.4l-1.8,1.3l0.5-1.2l1.8-1.2h-1.4v0.7l-0.9,0.5l-0.5,0.9l-0.9,0.3l0.5,0.7l-0.7,1.6l-0.3,2.4l0.3,1.4l0.5,0.9v0.7l0.7,0.7
				l-1.6,0.3l-1.2-0.7h-1.8l-0.9-0.7h-0.9l-0.5-0.7l-1.2-0.3l-0.7-2.1l-0.7-0.9v-2.1l-0.5-0.7l-1.2-0.7l-0.7-1.6l-0.5-0.3l-0.7-1.8
				l-0.9-1.4v-0.7l-1.4-2l-0.7-0.3l-0.5-1.2l-2.5-0.3l-0.9-0.5l-0.3,0.5H145l-2.1,3.3l-1-0.3l-1.4-1.2l-0.9-0.3l-0.5-0.3l-1.2-0.9
				l-0.5-1.2v-1.4l-0.5-0.7l-0.5-1.4l-1.4-0.9l-1.8-2.4l-0.9-0.5l-0.5-1.2l-0.5-0.3l-0.3-0.9l13.3,1.2l0.3-4.3l0.5-3.9L146.1,200.7
				L146.1,200.7z"/>
			<path vector-effect="non-scaling-stroke" class="st6" d="M241.1,187.3l1.4-0.5l-0.9,1.6v0.7l-0.5,1.8l-0.5,0.5l-0.3-0.7v-1.8
				l0.5-1.2L241.1,187.3z M214.4,198.3l1.8-0.9l0,0l0.7-0.7l0.5-1.2l1.2-0.9l1.2-1.4v0.3l0,0v0.3l0,0l1.2,0.9l0.7-0.5l0,0l0.3-0.3
				l0,0l0.7,0.3l1.2-0.5l1.2-0.9l0.7-0.3v-1.2l0,0l0.7-1.2l0.7-1.8l0.3-1.2l0.7,0.5l0.7-0.3l0.5-1.8l0.5,0.3l0.3-0.7l1.2-1.4v-1.4
				l2.1,1.2l0.3-0.9l0.9,0.3l-0.3,0.5l1.6,0.5l0.5,0.5l-0.3,0.7l-0.5,0.9l0.5,0.5l0.7-0.5l0.5,0.7h0.9l1.8,0.9v1.2l0.5,1.4l-0.5,0.3
				l0.7,0.9l-0.7,0.7l1.8-0.3l0.7,1.4l-9.2,1.8l-6.1,1.2l-4.8,0.7L214.4,198.3z"/>
			<path vector-effect="non-scaling-stroke" class="st6" d="M91.5,141.8l0.3-0.7l0.3,0.7H91.5z M91.9,137.9l0.5-0.5l0.5,0.5
				l-0.5,0.3v0.9h0.5l-0.3,0.5l-0.5-0.8L91.9,137.9z M91.7,136l0.5-0.3l0.5,0.5L91.7,136z M109.1,139l-2.5,11.2v1.8l-6.1-1.4
				L100,151l-1.2-0.3h-1.4l-0.9,0.3l-1.2-0.5l-1.8,0.3l-0.9-0.7l-0.9-0.3l-1.4,0.3l-1.4-0.9l0.3-1.4l-0.7-1.4h-0.5l-0.7-0.7
				l-0.9-0.3l-0.3-0.7l1.2-1.2l-0.7-0.5l0.3-0.5l0.9-0.3l-0.9-0.7v-1.8l0.3-1.6l-0.5-0.7l0.3-1.4l0.5-0.7l1.4,1.4l3.4,1.4l0.3,1.2
				l-0.7,0.3l-0.3,0.7H92l0.9-0.9l-0.3,1.2l-0.7,1.6l-0.5-0.3v0.9l0.7-0.7h0.7v-1.4l1.2-1.4l-0.3-0.9l0.3-2.4l-0.7-1.2l0.3-0.3
				L109.1,139z"/>
			<path vector-effect="non-scaling-stroke" class="st6" d="M183.2,155.5h0.7l2.1-0.9l0.7-0.5l0.5,0.3l-0.5,1.4l0.7-0.5l0.9,0.5h0.3
				l0,0v0.3l0,0l0.7,0.7l3.3,0.7l1.2,0.5l0,0h0.3l0,0l0.5-0.3l1.4,0.3v0.5l1.2,0.5l-0.3,1.4h0.7L197,161l0.5,0.3l-1.2,1.8v0.7
				l0.9-0.5l0.5-0.9l0.7-0.5l0.9-1.8l0.3,0.9l-0.7,1.4l-0.5,1.2v1.6l-0.5,0.5l-0.3,1.2l0.3,0.9l-0.5,2.1l0.5,1.6l0.3,0.5v1.4
				L189,174l-0.3-0.5l-1.2-0.5l-0.5-1.8l0.5-0.5l-0.5-0.5v-0.7l-0.3-1.2l-0.7-0.9l-1.4-0.9l-0.3-0.7l-0.9-0.5l-0.3-0.5h-0.7
				l-0.9-0.7l0.3-0.9v-1.6l0.3-0.7l-0.7-0.5v-0.7l0.7-0.9l1.2-0.7v-2.5L183.2,155.5z"/>
		</g>
	</g>
	<g pointer-events="none">
	</g>
</g>
<text transform="matrix(1 0 0 1 28.265 15.3593)" class="st7"><tspan x="0" y="0" class="st8 st3 st9 st10">	</tspan><tspan x="36" y="0" class="st8 st3 st9">Jewelry Rental Interest</tspan></text>
</svg>
