<?xml version="1.0" encoding="utf-8"?>
<!-- Generator: Adobe Illustrator 23.0.1, SVG Export Plug-In . SVG Version: 6.00 Build 0)  -->
<svg version="1.1" id="Layer_1" xmlns="http://www.w3.org/2000/svg" xmlns:xlink="http://www.w3.org/1999/xlink" x="0px" y="0px"
	 viewBox="0 0 300 300" style="enable-background:new 0 0 300 300;" xml:space="preserve">
<style type="text/css">
	.st0{fill:#AB8B93;}
	.st1{opacity:0.8;fill:#AB8B93;}
	.st2{opacity:0.6;fill:#AB8B93;}
	.st3{opacity:0.4;fill:#AB8B93;}
	.st4{opacity:0.2;fill:#AB8B93;}
	.st5{display:none;}
	.st6{fill:none;}
	.st7{font-family:'GoodlifeBrush';}
	.st8{font-size:15.4569px;}
</style>
<path vector-effect="non-scaling-stroke" class="st0" d="M103.2,279.7l-0.8-2.1l3.9-3.7l8.6,2.8l-0.9-7l6.8-2.5l-1.7-4.2l2.1-3.2
	l1.3-2.1l6.2,0.1l3.5-2.1l4.7,3l5.4-5.1l1.5,2l3.7-1.2l-0.6-2.4l3.2-3l5.2,3.9l2.1-1.9l1.1-5.8l6.1-6.1l-0.8-4.1h4.6l6.2-3l-2.2-5.8
	l1.1-1.3l5.8-0.9l2.9,1.7l2.7,4.8l5.9,0.2l3.6,2.5l2.7-2l3.8,1.8l6.6-4.5l1.5,3.7l4.8,3.1l0.2,6.5l7.5,9.6l6,2.1l-5.9,7.1l-6,4.3
	l-1.9,5.4l-4,3.5l0,0l-9.2,4.9l-0.2,0.4l-23.6,2.1l-14.3,1.5l-13.5,0.7l-22.3,2.5l-3.9-0.7l0.7,4L99,290.9l2.7-1.7l2.2-4.9
	L103.2,279.7z"/>
<path vector-effect="non-scaling-stroke" class="st1" d="M229.8,121.2l0.6-3.6l1.4,3.3L229.8,121.2z M219.5,208.9l3.6-4.5l4.2-12.8
	l-0.5-9.7l-1.5-4.8l-5.1-9.8l1-4.3l-1.8-6.1l3.3-6.9l-0.7-7.5l2.7-2.1l-0.2-2.9l3.9-1.6l2.5-5.7l1.2,2.8l-0.9,4.1l2.2,2.8l1.7-5.2
	l-0.5-6.8l6.8-3.4l-3.7-3.7l2.4-4.4l3.2-1l4.5,2.5l3.9-0.1l1.8,2.5l10.3,2.6l3.9,5.5l-2.3,0.8l3.6,7.1l0.2,8.5l-2.8,2.1l-0.2,4.8
	l-3.9,1.9L261,159l5,3.3l5.4-9.5l5.1-2.8l3,1.2l2.9,4.6l3.2,12.1l2.4,4.7l-0.5,9.1l-4.6-0.4l-1.2,7l-2.4,1.4l-0.6,6.6l-3.8,7.1
	l-22.1,3.6l-0.2-1.4L219.5,208.9z M169.6,75.9l1.1-1.5l9.1-6l1.9-0.1l-3.5,3.8l-7.2,4.7L169.6,75.9z M153.9,106l5.6-2.6l3.7-3.6
	l5.4-0.8l7.2-4.4l0.8-2L186,84l6.4-1l1.4,1.4l-7.6,5.5l-2.8,5.1l0.6,3.7l2.5-3h5.4l5.8,4.1l3.2,4.2l5.9-1.1l5.5,2l7-6.5l9.8-1.1
	l8.1-3l-0.4,6.5l5.3-0.7l1.5,1.5l2.4-2.3l4.7-0.6l0.9,5.4l-2.6,1.6l3.9,1l2.2,3.5l-9.5,1.1l-2.2-1.6l-2.4,4.1l-2.9-2.5l-8.1-0.9
	l-1.8,3l-10,2l-0.4,3l-5.2,3.7l2.3-4.5l-3.8-0.1l-2.5,4.6l-0.9-3.6l-7.7,17.3l-2.4-1.5l1.1-3.9l-3.8-0.1l1.1-7.1l-5.8-2.8l0.3-2.3
	l-6.4-1.7l-2.3,0.9l0,0l-0.8-0.6l0,0l-6.2-2.3l-16.2-3.3l-3-3.9l0,0l-0.5-0.7l0,0L153.9,106z M258.1,108l2.1-1.4l1.5,3.5l-5.9-0.2
	L258.1,108z"/>
<path vector-effect="non-scaling-stroke" class="st2" d="M105,119.2l6.1,1.1l5.3-3.3l33.2-3.6l0.2,1.4l4,33l2.7,25.1l-1.1,1.3
	l2.2,5.8l-6.2,3h-4.6l0.8,4.1l-6.1,6.1l-1.1,5.8l-2.1,1.9l-5.2-3.9l-3.2,3l0.6,2.4l-3.7,1.2l-1.5-2l-5.4,5.1l-4.7-3l-3.5,2.1
	l-6.2-0.1l-1.3,2.1l-1.4-2.1l8.7-20.4l-0.7-4.3l-2.7-3.2l1.6-5.6L105,119.2z"/>
<path vector-effect="non-scaling-stroke" class="st3" d="M10.8,123.8l22.1-3.6l8.6,3.6l2-1.7l6.4,3.8l7.3-4.1h4.5l6.6-7.3l11.7-6.8
	l4.9,29.8l-2.3,1.7l2.1,5.9l-1.4,5.5l-0.2,8.6l-5.5,8.2h-3.8l-3.1,3.5l-2.6,9.6l-3.1-2.9l-2.3,5.7l1.2,4.2l-1.7,3.1l-4.7,1.7
	l-4.8-3.1l-1.5-3.7l-6.6,4.5l-3.8-1.8l-2.7,2l-3.6-2.5l-5.9-0.2l-2.7-4.8L23,181l-5.8,0.9l-2.7-25.1L10.8,123.8z"/>
<path vector-effect="non-scaling-stroke" class="st4" d="M60.2,44.6L71.4,36l1,6l71.2-14l5.6,3.3l0.9,4.2l7.4,4.2l-5.2,10.1l1.8,1.9
	l-1.6,4.6l3.7,5.4l6.9,4.6l-9.8,10.2l-0.2-0.1l-3-0.1l-2.7,3.3L85.9,91.8l-17.5,3L65,74.4L60.2,44.6z"/>
<g id="Layer_4" class="st5">
</g>
<rect x="208.7" y="70.2" class="st6" width="99.4" height="34.8"/>
<text transform="matrix(1 0 0 1 208.7034 81.8777)" class="st7 st8">Michigan</text>
<rect x="102.9" y="214.5" class="st6" width="113.3" height="46.2"/>
<text transform="matrix(1 0 0 1 102.8756 226.1363)" class="st7 st8">Indiana</text>
<rect x="65.9" y="54.5" class="st6" width="113.3" height="46.2"/>
<text transform="matrix(1 0 0 1 65.8756 66.1363)" class="st7 st8">Pennsylvania</text>
<rect x="26.5" y="152.5" transform="matrix(1 -3.410640e-03 3.410640e-03 1 -0.5986 0.1589)" class="st6" width="39.6" height="46.2"/>
<text transform="matrix(1 0 0 1 26.4227 164.1426)" class="st7 st8">Ohio</text>
<rect x="358.1" y="67.8" class="st6" width="302.5" height="247.6"/>
<text transform="matrix(1 0 0 1 358.0508 79.4727)" class="st8" style="font-family:'Avenir-Roman';">Kentucky</text>
<text transform="matrix(1 0 0 1 358.0508 97.9727)" class="st8" style="font-family:'Avenir-Roman';">Michigin</text>
<text transform="matrix(1 0 0 1 358.0508 116.5727)" class="st8" style="font-family:'Avenir-Roman';">Indiana</text>
<text transform="matrix(1 0 0 1 358.0508 135.0727)" class="st8" style="font-family:'Avenir-Roman';">Ohio</text>
<text transform="matrix(1 0 0 1 358.0508 153.6727)" class="st8" style="font-family:'Avenir-Roman';">Pennsylvania</text>
<rect x="138.8" y="255.3" class="st6" width="96.3" height="34.5"/>
<text transform="matrix(1 0 0 1 138.7632 266.9746)" class="st7 st8">Kentucky</text>
</svg>
