<?xml version="1.0" encoding="utf-8"?>
<!-- Generator: Adobe Illustrator 23.0.1, SVG Export Plug-In . SVG Version: 6.00 Build 0)  -->
<svg version="1.1" id="Layer_1" xmlns="http://www.w3.org/2000/svg" xmlns:xlink="http://www.w3.org/1999/xlink" x="0px" y="0px"
	 viewBox="0 0 300 300" style="enable-background:new 0 0 300 300;" xml:space="preserve">
<style type="text/css">
	.st0{fill:#AB8B93;}
	.st1{opacity:0.8;fill:#AB8B93;enable-background:new    ;}
	.st2{opacity:0.6;fill:#AB8B93;enable-background:new    ;}
	.st3{opacity:0.4;fill:#AB8B93;enable-background:new    ;}
	.st4{opacity:0.2;fill:#AB8B93;enable-background:new    ;}
	.st5{display:none;}
	.st6{fill:none;}
	.st7{font-family:'GoodlifeBrush';}
	.st8{font-size:15.4569px;}
	.st9{fill:#757575;}
	.st10{font-size:18px;}
	.st11{font-size:24px;}
</style>
<path vector-effect="non-scaling-stroke" class="st0" d="M14.8,97.1L14,95l3.9-3.7l8.6,2.8l-0.9-7l6.8-2.5l-1.7-4.2l2.1-3.2l1.3-2.1
	l6.2,0.1l3.5-2.1l4.7,3l5.4-5.1l1.5,2l3.7-1.2l-0.6-2.4l3.2-3l5.2,3.9l2.1-1.9l1.1-5.8l6.1-6.1l-0.8-4.1H80l6.2-3L84,43.6l1.1-1.3
	l5.8-0.9l2.9,1.7l2.7,4.8l5.9,0.2l3.6,2.5l2.7-2l3.8,1.8l6.6-4.5l1.5,3.7l4.8,3.1l0.2,6.5l7.5,9.6l6,2.1l-5.9,7.1l-6,4.3l-1.9,5.4
	l-4,3.5l0,0l-9.2,4.9l-0.2,0.4l-23.6,2.1L74,100.1l-13.5,0.7l-22.3,2.5l-3.9-0.7l0.7,4l-24.4,1.7l2.7-1.7l2.2-4.9L14.8,97.1z"/>
<path vector-effect="non-scaling-stroke" class="st1" d="M220.7,104.5l0.6-3.6l1.4,3.3L220.7,104.5z M210.4,192.2l3.6-4.5l4.2-12.8
	l-0.5-9.7l-1.5-4.8l-5.1-9.8l1-4.3l-1.8-6.1l3.3-6.9l-0.7-7.5l2.7-2.1l-0.2-2.9l3.9-1.6l2.5-5.7l1.2,2.8l-0.9,4.1l2.2,2.8l1.7-5.2
	l-0.5-6.8l6.8-3.4l-3.7-3.7l2.4-4.4l3.2-1l4.5,2.5l3.9-0.1l1.8,2.5l10.3,2.6l3.9,5.5l-2.3,0.8l3.6,7.1l0.2,8.5l-2.8,2.1l-0.2,4.8
	l-3.9,1.9l-1.3,5.4l5,3.3l5.4-9.5l5.1-2.8l3,1.2l2.9,4.6l3.2,12.1l2.4,4.7l-0.5,9.1l-4.6-0.4l-1.2,7l-2.4,1.4l-0.6,6.6l-3.8,7.1
	l-22.1,3.6l-0.2-1.4L210.4,192.2z M160.5,59.2l1.1-1.5l9.1-6l1.9-0.1l-3.5,3.8l-7.2,4.7L160.5,59.2z M144.8,89.3l5.6-2.6l3.7-3.6
	l5.4-0.8l7.2-4.4l0.8-2l9.4-8.6l6.4-1l1.4,1.4l-7.6,5.5l-2.8,5.1l0.6,3.7l2.5-3h5.4l5.8,4.1l3.2,4.2l5.9-1.1l5.5,2l7-6.5l9.8-1.1
	l8.1-3l-0.4,6.5l5.3-0.7l1.5,1.5l2.4-2.3l4.7-0.6l0.9,5.4l-2.6,1.6l3.9,1l2.2,3.5l-9.5,1.1l-2.2-1.6l-2.4,4.1l-2.9-2.5l-8.1-0.9
	l-1.8,3l-10,2l-0.4,3l-5.2,3.7l2.3-4.5l-3.8-0.1l-2.5,4.6l-0.9-3.6l-7.7,17.3l-2.4-1.5l1.1-3.9l-3.8-0.1l1.1-7.1l-5.8-2.8l0.3-2.3
	l-6.4-1.7l-2.3,0.9l0,0l-0.8-0.6l0,0l-6.2-2.3l-16.2-3.3l-3-3.9l0,0l-0.5-0.7l0,0L144.8,89.3z M249,91.3l2.1-1.4l1.5,3.5l-5.9-0.2
	L249,91.3z"/>
<path vector-effect="non-scaling-stroke" class="st2" d="M38.6,156.2l6.1,1.1L50,154l33.2-3.6l0.2,1.4l4,33l2.7,25.1l-1.1,1.3
	l2.2,5.8l-6.2,3h-4.6l0.8,4.1l-6.1,6.1L74,236l-2.1,1.9l-5.2-3.9l-3.2,3l0.6,2.4l-3.7,1.2l-1.5-2l-5.4,5.1l-4.7-3l-3.5,2.1l-6.2-0.1
	l-1.3,2.1l-1.4-2.1l8.7-20.4l-0.7-4.3l-2.7-3.2l1.6-5.6L38.6,156.2z"/>
<path vector-effect="non-scaling-stroke" class="st3" d="M101.3,184.1l22.1-3.6l8.6,3.6l2-1.7l6.4,3.8l7.3-4.1h4.5l6.6-7.3l11.7-6.8
	l4.9,29.8l-2.3,1.7l2.1,5.9l-1.4,5.5l-0.2,8.6l-5.5,8.2h-3.8l-3.1,3.5l-2.6,9.6l-3.1-2.9l-2.3,5.7l1.2,4.2l-1.7,3.1l-4.7,1.7
	l-4.8-3.1l-1.5-3.7l-6.6,4.5l-3.8-1.8l-2.7,2L125,248l-5.9-0.2l-2.7-4.8l-2.9-1.7l-5.8,0.9l-2.7-25.1L101.3,184.1z"/>
<path vector-effect="non-scaling-stroke" class="st4" d="M193.3,237.7l11.2-8.6l1,6l71.2-14l5.6,3.3l0.9,4.2l7.4,4.2l-5.2,10.1
	l1.8,1.9l-1.6,4.6l3.7,5.4l6.9,4.6l-9.8,10.2l-0.2-0.1l-3-0.1l-2.7,3.3L219,284.9l-17.5,3l-3.4-20.4L193.3,237.7z"/>
<g id="Layer_4" class="st5">
</g>
<rect x="531.3" y="274.9" class="st6" width="99.4" height="34.8"/>
<text transform="matrix(1 0 0 1 225.6884 65.8157)" class="st7 st8">Michigan</text>
<rect x="425.5" y="419.2" class="st6" width="113.3" height="46.2"/>
<text transform="matrix(1 0 0 1 20.1759 269.0154)" class="st7 st8">Indiana</text>
<rect x="388.5" y="259.2" class="st6" width="113.3" height="46.2"/>
<text transform="matrix(1 0 0 1 207.3035 259.5196)" class="st7 st8">Pennsylvania</text>
<rect x="349.1" y="357.2" transform="matrix(1 -3.410600e-03 3.410600e-03 1 -1.295 1.2602)" class="st6" width="39.6" height="46.2"/>
<text transform="matrix(1 0 0 1 117.5286 219.1975)" class="st7 st8"> Ohio</text>
<rect x="358.1" y="67.8" class="st6" width="302.5" height="247.6"/>
<text transform="matrix(1 0 0 1 358.0508 79.4727)" class="st8" style="font-family:'Avenir-Roman';">Kentucky</text>
<text transform="matrix(1 0 0 1 358.0508 97.9727)" class="st8" style="font-family:'Avenir-Roman';">Michigin</text>
<text transform="matrix(1 0 0 1 358.0508 116.5727)" class="st8" style="font-family:'Avenir-Roman';">Indiana</text>
<text transform="matrix(1 0 0 1 358.0508 135.0727)" class="st8" style="font-family:'Avenir-Roman';">Ohio</text>
<text transform="matrix(1 0 0 1 358.0508 153.6727)" class="st8" style="font-family:'Avenir-Roman';">Pennsylvania</text>
<rect x="50.4" y="72.7" class="st6" width="96.3" height="34.5"/>
<text transform="matrix(1 0 0 1 37.4218 88.7628)" class="st7 st8">Kentucky</text>
<text transform="matrix(1 0 0 1 67.577 16.5623)" class="st9 st7 st10">Uniform Rental Interest</text>
<g>
	<rect x="16.7" y="57.2" class="st6" width="34.5" height="30.6"/>
	<text transform="matrix(1 0 0 1 16.7326 72.3157)" class="st7 st11">1.</text>
</g>
<rect x="197.9" y="52.6" class="st6" width="28" height="68.4"/>
<text transform="matrix(1 0 0 1 197.8591 67.7542)" class="st7 st11">2. </text>
<rect x="14.1" y="179.3" class="st6" width="61.9" height="68.4"/>
<text transform="matrix(1 0 0 1 14.1269 194.4546)" class="st7 st11">3. </text>
<g>
	<rect x="126.7" y="155.7" class="st6" width="34.5" height="32.6"/>
	<text transform="matrix(1 0 0 1 126.6881 170.7967)" class="st7 st11">4.</text>
</g>
<g>
	<rect x="214.1" y="208" class="st6" width="66.5" height="83.4"/>
	<text transform="matrix(1 0 0 1 214.1476 223.1226)" class="st7 st11">5. </text>
</g>
</svg>
