<?xml version="1.0" encoding="utf-8"?>
<!-- Generator: Adobe Illustrator 23.0.1, SVG Export Plug-In . SVG Version: 6.00 Build 0)  -->
<svg version="1.1" id="Layer_1" xmlns="http://www.w3.org/2000/svg" xmlns:xlink="http://www.w3.org/1999/xlink" x="0px" y="0px"
	 viewBox="0 0 1920 1080" style="enable-background:new 0 0 1920 1080;" xml:space="preserve">
<style type="text/css">
	.st0{fill:none;}
	.st1{fill:#71A2C3;stroke:#71A2C3;stroke-miterlimit:10;}
	.st2{fill:#FFFFFF;stroke:#FFFFFF;stroke-miterlimit:10;}
	.st3{fill:#FFFFFF;stroke:#71A2C3;stroke-miterlimit:10;}
	.st4{fill:#F7F8F8;stroke:#71A2C3;stroke-miterlimit:10;}
	.st5{fill:none;stroke:#71A2C3;stroke-miterlimit:10;}
	.st6{fill:#C25892;stroke:#C35892;stroke-width:2;stroke-miterlimit:10;}
	.st7{fill:#FFFFFF;stroke:#C25892;stroke-miterlimit:10;}
	.st8{fill:#F8F7F8;stroke:#F7F0F3;stroke-miterlimit:10;}
	.st9{fill:#F8F7F9;stroke:#F8F7F9;stroke-miterlimit:10;}
	.st10{fill:#C25892;}
	.st11{fill:#F9F9FA;stroke:#FFFFFF;stroke-miterlimit:10;}
	.st12{fill:#F8F7F9;stroke:#C25892;stroke-miterlimit:10;}
	.st13{fill:#F8F7F8;stroke:#F8F7F9;stroke-miterlimit:10;}
	.st14{fill:#FFFEFE;stroke:#F8F7F9;stroke-miterlimit:10;}
	.st15{fill:none;stroke:#C25892;stroke-miterlimit:10;}
	.st16{fill:#215977;stroke:#215977;stroke-miterlimit:10;}
	.st17{fill:#FFFFFF;stroke:#215977;stroke-miterlimit:10;}
	.st18{fill:#F4F6F9;stroke:#215977;stroke-miterlimit:10;}
	.st19{fill:none;stroke:#215977;stroke-miterlimit:10;}
	.st20{fill:#B18993;stroke:#B18993;stroke-miterlimit:10;}
	.st21{fill-rule:evenodd;clip-rule:evenodd;fill:#FFFFFF;stroke:#B18993;stroke-miterlimit:10;}
	.st22{fill-rule:evenodd;clip-rule:evenodd;fill:#B18993;}
	.st23{fill:none;stroke:#FFFFFF;stroke-miterlimit:10;}
	.st24{fill:#927894;stroke:#917894;stroke-miterlimit:10;}
	.st25{fill:#F7F8F9;stroke:#927894;stroke-miterlimit:10;}
	.st26{fill:#927894;}
	.st27{fill:#E9AF9B;stroke:#E8B09C;stroke-miterlimit:10;}
	.st28{fill:#F9F9FA;}
	.st29{fill:none;stroke:#F8F7F7;stroke-miterlimit:10;}
	.st30{fill:#D37384;stroke:#D47384;stroke-miterlimit:10;}
	.st31{fill:#FFFFFF;stroke:#D37384;stroke-miterlimit:10;}
	.st32{fill:#F7F6F6;}
	.st33{fill:none;stroke:#D37384;stroke-miterlimit:10;}
	.st34{fill:#FCFAFC;stroke:#D37384;stroke-miterlimit:10;}
	.st35{fill:#D37384;}
	.st36{fill:none;stroke:#E9AF9B;stroke-miterlimit:10;}
	.st37{opacity:0.9;fill:#FFFFFF;enable-background:new    ;}
	.st38{fill:#E9AF9B;}
	.st39{font-family:'GoodlifeBrush';}
	.st40{font-size:100px;}
	.st41{fill:#020202;}
	.st42{fill:none;stroke:#020202;stroke-miterlimit:10;}
	.st43{fill:#9B9B9B;}
	.st44{font-size:48px;}
	.st45{font-size:72px;}
	.st46{display:none;}
	.st47{display:inline;}
</style>
<g>
	<g id="Layer_3_7_">
	</g>
	<rect x="201.7" y="1156.5" class="st0" width="453.9" height="156.9"/>
</g>
<g id="Layer_3_8_">
	<g>
		<g>
			<g>
				<g>
					
						<ellipse transform="matrix(0.7071 -0.7071 0.7071 0.7071 -317.5058 982.265)" class="st1" cx="1026.9" cy="874.4" rx="119.8" ry="119.8"/>
					<polygon class="st2" points="927.9,861.8 944.6,841.1 1028.3,841.1 1028.3,861.8 					"/>
					<polygon class="st2" points="1128.3,861.8 1111.5,841.1 1028,841.1 1028,861.8 					"/>
					<rect x="931.4" y="861.8" class="st3" width="193.1" height="64.3"/>
					<rect x="1003.4" y="822.1" class="st4" width="51" height="50.6"/>
					<polygon class="st2" points="1054.3,822.1 1003.4,822.1 1029,800.1 					"/>
					<rect x="999.8" y="822.1" class="st1" width="58.1" height="4.2"/>
					<polygon class="st1" points="1073.4,876.3 1028.3,838.8 982.7,876.3 988.9,876.3 1028.3,844 1067.4,876.3 					"/>
					<path class="st3" d="M1028.3,881.8c-9.9,0-17.7,8.1-17.7,17.7v2.3v23.9h16.4h2.6h16.4v-23.9v-2.3
						C1046,889.9,1037.9,881.8,1028.3,881.8z"/>
					<rect x="1027" y="900.2" class="st3" width="2.3" height="25.9"/>
					<rect x="1010.2" y="898.9" class="st3" width="36.1" height="1.6"/>
					<g>
						<rect x="1074.7" y="880.2" class="st3" width="19" height="15.5"/>
						<line class="st5" x1="1084.5" y1="895.3" x2="1084.5" y2="879.8"/>
					</g>
					<g>
						<rect x="1099" y="880.5" class="st3" width="19" height="45.6"/>
						<line class="st5" x1="1108.6" y1="925.1" x2="1108.6" y2="879.8"/>
					</g>
					<g>
						<rect x="1074.7" y="900.5" class="st3" width="19" height="15.5"/>
						<line class="st5" x1="1084.5" y1="915.7" x2="1084.5" y2="900.2"/>
					</g>
					<g>
						<rect x="938.4" y="880.5" class="st3" width="19" height="45.6"/>
						<line class="st5" x1="948.2" y1="925.1" x2="948.2" y2="879.8"/>
					</g>
					<g>
						<rect x="962.7" y="880.2" class="st3" width="19" height="15.5"/>
						<line class="st5" x1="972.5" y1="895.3" x2="972.5" y2="879.8"/>
					</g>
					<g>
						<rect x="962.7" y="900.5" class="st3" width="19" height="15.5"/>
						<line class="st5" x1="972.5" y1="915.7" x2="972.5" y2="900.2"/>
					</g>
				</g>
				<g>
					
						<ellipse transform="matrix(0.1602 -0.9871 0.9871 0.1602 17.3764 935.2235)" class="st6" cx="558.3" cy="457.4" rx="50.6" ry="50.6"/>
					<rect x="540" y="433" class="st7" width="36.2" height="51"/>
					<rect x="537.9" y="431.9" class="st8" width="40.3" height="2.8"/>
					<rect x="540" y="477.6" class="st9" width="36.2" height="6.4"/>
					<rect x="553.6" y="473.5" class="st10" width="8.5" height="10.6"/>
					<rect x="520.1" y="449.9" class="st11" width="19.8" height="34.1"/>
					<rect x="523.5" y="453.9" class="st12" width="13.2" height="3.9"/>
					
						<rect x="528.2" y="456.9" transform="matrix(5.920816e-03 -1 1 5.920816e-03 63.5461 990.9492)" class="st12" width="3.9" height="13.2"/>
					<rect x="523.5" y="469.4" class="st12" width="13.2" height="3.9"/>
					<rect x="518.8" y="448.9" class="st13" width="21.2" height="2.5"/>
					<rect x="575.9" y="449.9" class="st14" width="19.8" height="34.1"/>
					<rect x="579.4" y="453.9" class="st12" width="13.2" height="3.9"/>
					<rect x="579.4" y="461.6" class="st12" width="13.2" height="3.9"/>
					<rect x="579.4" y="469.4" class="st12" width="13.2" height="3.9"/>
					<rect x="523.5" y="476.7" class="st12" width="13.2" height="3.9"/>
					<rect x="579.4" y="476.7" class="st12" width="13.2" height="3.9"/>
					<rect x="575.9" y="448.9" class="st8" width="21.2" height="2.5"/>
					<g>
						<rect x="542.8" y="461.1" class="st7" width="5.9" height="8.4"/>
						<line class="st15" x1="545.9" y1="461.1" x2="545.9" y2="469.1"/>
						<line class="st15" x1="542.9" y1="465.5" x2="548.3" y2="465.5"/>
					</g>
					<g>
						<rect x="551.1" y="461.1" class="st7" width="5.9" height="8.4"/>
						<line class="st15" x1="554.1" y1="461.1" x2="554.1" y2="469.1"/>
						<line class="st15" x1="551.2" y1="465.5" x2="556.6" y2="465.5"/>
					</g>
					<g>
						<rect x="559.2" y="461.1" class="st7" width="5.9" height="8.4"/>
						<line class="st15" x1="562.1" y1="461.1" x2="562.1" y2="469.1"/>
						<line class="st15" x1="559.3" y1="465.5" x2="564.7" y2="465.5"/>
					</g>
					<g>
						<rect x="567.6" y="460.8" class="st7" width="5.9" height="8.4"/>
						<line class="st15" x1="570.6" y1="460.8" x2="570.6" y2="469.1"/>
						<line class="st15" x1="567.7" y1="465.4" x2="573.2" y2="465.4"/>
					</g>
					<g>
						<rect x="542.8" y="449.9" class="st7" width="5.9" height="8.4"/>
						<line class="st15" x1="545.9" y1="449.9" x2="545.9" y2="458.1"/>
						<line class="st15" x1="542.9" y1="454.6" x2="548.3" y2="454.6"/>
					</g>
					<g>
						<rect x="551.1" y="449.9" class="st7" width="5.9" height="8.4"/>
						<line class="st15" x1="554.1" y1="449.9" x2="554.1" y2="458.1"/>
						<line class="st15" x1="551.2" y1="454.6" x2="556.6" y2="454.6"/>
					</g>
					<g>
						<rect x="559.2" y="449.9" class="st7" width="5.9" height="8.4"/>
						<line class="st15" x1="562.1" y1="449.9" x2="562.1" y2="458.1"/>
						<line class="st15" x1="559.3" y1="454.6" x2="564.7" y2="454.6"/>
					</g>
					<g>
						<rect x="567.6" y="449.9" class="st7" width="5.9" height="8.4"/>
						<line class="st15" x1="570.6" y1="449.9" x2="570.6" y2="458"/>
						<line class="st15" x1="567.7" y1="454.4" x2="573.2" y2="454.4"/>
					</g>
					<g>
						<rect x="542.8" y="438.9" class="st7" width="5.9" height="8.4"/>
						<line class="st15" x1="545.9" y1="438.9" x2="545.9" y2="447"/>
						<line class="st15" x1="542.9" y1="443.5" x2="548.3" y2="443.5"/>
					</g>
					<g>
						<rect x="551.1" y="438.9" class="st7" width="5.9" height="8.4"/>
						<line class="st15" x1="554.1" y1="438.9" x2="554.1" y2="447"/>
						<line class="st15" x1="551.2" y1="443.5" x2="556.6" y2="443.5"/>
					</g>
					<g>
						<rect x="559.2" y="438.9" class="st7" width="5.9" height="8.4"/>
						<line class="st15" x1="562.1" y1="438.9" x2="562.1" y2="447"/>
						<line class="st15" x1="559.3" y1="443.5" x2="564.7" y2="443.5"/>
					</g>
					<g>
						<rect x="567.6" y="438.8" class="st7" width="5.9" height="8.4"/>
						<line class="st15" x1="570.6" y1="438.8" x2="570.6" y2="446.9"/>
						<line class="st15" x1="567.7" y1="443.3" x2="573.2" y2="443.3"/>
					</g>
				</g>
				<g>
					<circle class="st16" cx="770" cy="224.9" r="58.1"/>
					<g>
						<path class="st17" d="M720.1,234.8c-0.2-0.8-0.3-1.7-0.3-2.5c0-6.2,4.5-11.2,10.4-12v-0.2c0-9.9,8-17.9,17.9-17.9h29.1
							c9.9,0,24.8,8,24.8,17.9h7.7c6.7,0,12.2,5.5,12.2,12.2c0,0.8-0.2,1.7-0.3,2.5C821.7,234.8,720.1,234.8,720.1,234.8z"/>
						<path class="st18" d="M746.9,207.7h32c5.7,0,17.2,4.7,17.2,10.4h-59.6C736.5,212.4,741,207.7,746.9,207.7z"/>
						<g>
							<path class="st18" d="M723.6,232.5c0,5,4,9,9,9s9-4,9-9s-4-9-9-9C727.6,223.4,723.6,227.5,723.6,232.5z"/>
							<path class="st18" d="M728.2,232.5c0,2.5,2,4.5,4.5,4.5s4.5-2,4.5-4.5s-2-4.5-4.5-4.5S728.2,230,728.2,232.5z"/>
						</g>
						<g>
							<path class="st18" d="M799.6,232.5c0,5,4,9,9,9s9-4,9-9s-4-9-9-9C803.6,223.4,799.6,227.5,799.6,232.5z"/>
							<path class="st18" d="M804.1,232.5c0,2.5,2,4.5,4.5,4.5s4.5-2,4.5-4.5s-2-4.5-4.5-4.5C806.1,227.9,804.1,230,804.1,232.5z"/>
						</g>
						<line class="st19" x1="778.8" y1="207.7" x2="778.8" y2="218.1"/>
						<line class="st19" x1="757.3" y1="207.7" x2="757.3" y2="218.1"/>
					</g>
				</g>
				<g>
					<circle class="st20" cx="1544.1" cy="172.3" r="126.3"/>
					<path class="st21" d="M1566.1,94.9c-0.6,2.6-0.6,3.8-1.5,5.6c-1.8,5-3.5,14.9-2.6,18.8c0.9,3.8,7,14.1,7,27.5
						c0,4.4-0.6,10.3-1.5,17c-17,5.9-30.8,3.5-40.4,0.3c-0.6-6.7-0.9-13.2-0.6-17.6c0.6-13.2,6.4-25.2,7-29
						c0.9-3.8-1.8-12.9-2.9-17.3c-0.3-0.9-0.6-2.9-0.9-5c2.9-3.5,6.2-4.4,9.1-3.5c3.8,0.9,5,2.9,8.5,3.5c2.9-0.3,5-2.3,8.8-3.5
						C1559.7,89.9,1563.2,91.1,1566.1,94.9z"/>
					<path class="st2" d="M1530.4,94C1530.4,94.6,1530.4,94.6,1530.4,94c-0.3,0.3-0.3,0-0.3,0V77.6c0,0,0-0.3,0.3-0.3
						c0,0,0.3,0,0.3,0.3v16.7h-0.3V94z"/>
					<path class="st2" d="M1566.1,94.9L1566.1,94.9c-0.3,0.3-0.3,0-0.3,0v-17c0,0,0-0.3,0.3-0.3c0,0,0.3,0,0.3,0.3v17H1566.1z"/>
					<path class="st21" d="M1568.2,161.1c-5,1.5-11.1-4.4-14.9-14.9c-0.6,3.8-2.1,13.5-5,18.2c-3.5-4.7-4.4-14.4-5-18.2
						c-3.8,10.5-10,16.4-14.9,14.9c0.9,18.8-16.7,82.3-45.7,96.4c-10.8,7.6,14.1,10.3,33.7,5.9c-3.8,12.9,66.8,15.5,64.8-0.3
						c19.6,4.4,44.5,1.8,33.7-5.9C1584.9,243.5,1567,179.9,1568.2,161.1z"/>
					<path class="st22" d="M1532.7,161.1c2.9,14.1-5.6,76.8-17,102.8c-1.5,0.3-4.4,0.6-6.2,0.9
						C1522.2,238.2,1535,173.7,1532.7,161.1z"/>
					<path class="st22" d="M1561.7,160.3c-2.9,14.1,5.6,76.5,17.3,102.8c1.5,0.3,4.4,0.6,6.2,0.9
						C1572,236.7,1559.1,172.3,1561.7,160.3z"/>
					<path class="st23" d="M1545,63.3c0,0-0.3-3.8,3.8-3.5c2.1,0.3,3.8,4.7-0.9,6.2l-0.3,4.4l-27,9.7l27-9.7"/>
					<line class="st23" x1="1575.5" y1="78.5" x2="1547.9" y2="70.6"/>
				</g>
				<g>
					<circle class="st24" cx="669.2" cy="611.6" r="56.7"/>
					<polygon class="st25" points="680.8,659 659.6,659 659.6,562.6 680.8,579.4 					"/>
					<g>
						<g>
							<rect x="663.1" y="585.9" class="st26" width="3.3" height="3.3"/>
							<rect x="668.1" y="585.9" class="st26" width="3.3" height="3.3"/>
							<rect x="673.6" y="585.9" class="st26" width="3.3" height="3.3"/>
						</g>
						<g>
							<rect x="663.1" y="592.7" class="st26" width="3.3" height="3.3"/>
							<rect x="668.1" y="592.7" class="st26" width="3.3" height="3.3"/>
							<rect x="673.6" y="592.7" class="st26" width="3.3" height="3.3"/>
						</g>
						<g>
							<rect x="663.1" y="599.2" class="st26" width="3.3" height="3.3"/>
							<rect x="668.1" y="599.2" class="st26" width="3.3" height="3.3"/>
							<rect x="673.6" y="599.2" class="st26" width="3.3" height="3.3"/>
						</g>
						<g>
							<rect x="663.1" y="606" class="st26" width="3.3" height="3.3"/>
							<rect x="668.1" y="606" class="st26" width="3.3" height="3.3"/>
							<rect x="673.6" y="606" class="st26" width="3.3" height="3.3"/>
						</g>
					</g>
					<g>
						<g>
							<rect x="663.1" y="612.7" class="st26" width="3.3" height="3.3"/>
							<rect x="668.1" y="612.7" class="st26" width="3.3" height="3.3"/>
							<rect x="673.6" y="612.7" class="st26" width="3.3" height="3.3"/>
						</g>
						<g>
							<rect x="663.1" y="619.5" class="st26" width="3.3" height="3.3"/>
							<rect x="668.1" y="619.5" class="st26" width="3.3" height="3.3"/>
							<rect x="673.6" y="619.5" class="st26" width="3.3" height="3.3"/>
						</g>
						<g>
							<rect x="663.1" y="626" class="st26" width="3.3" height="3.3"/>
							<rect x="668.1" y="626" class="st26" width="3.3" height="3.3"/>
							<rect x="673.6" y="626" class="st26" width="3.3" height="3.3"/>
						</g>
						<g>
							<rect x="663.1" y="632.8" class="st26" width="3.3" height="3.3"/>
							<rect x="668.1" y="632.8" class="st26" width="3.3" height="3.3"/>
							<rect x="673.6" y="632.8" class="st26" width="3.3" height="3.3"/>
						</g>
					</g>
					<g>
						<rect x="663.1" y="639.5" class="st26" width="3.3" height="3.3"/>
						<rect x="668.1" y="639.5" class="st26" width="3.3" height="3.3"/>
						<rect x="673.6" y="639.5" class="st26" width="3.3" height="3.3"/>
					</g>
					<g>
						<rect x="663.1" y="646.5" class="st26" width="3.3" height="3.3"/>
						<rect x="668.1" y="646.5" class="st26" width="3.3" height="3.3"/>
						<rect x="673.6" y="646.5" class="st26" width="3.3" height="3.3"/>
					</g>
					<g>
						<rect x="663.1" y="652.8" class="st26" width="3.3" height="3.3"/>
						<rect x="668.1" y="652.8" class="st26" width="3.3" height="3.3"/>
						<rect x="673.6" y="652.8" class="st26" width="3.3" height="3.3"/>
					</g>
				</g>
				<g>
					<circle class="st24" cx="1448.5" cy="475.9" r="117.9"/>
					<polygon class="st25" points="1472.5,574.3 1428.5,574.3 1428.5,373.8 1472.5,408.7 					"/>
					<g>
						<g>
							<rect x="1435.8" y="422.3" class="st26" width="6.8" height="6.8"/>
							<rect x="1446.2" y="422.3" class="st26" width="6.8" height="6.8"/>
							<rect x="1457.5" y="422.3" class="st26" width="6.8" height="6.8"/>
						</g>
						<g>
							<rect x="1435.8" y="436.4" class="st26" width="6.8" height="6.8"/>
							<rect x="1446.2" y="436.4" class="st26" width="6.8" height="6.8"/>
							<rect x="1457.5" y="436.4" class="st26" width="6.8" height="6.8"/>
						</g>
						<g>
							<rect x="1435.8" y="450" class="st26" width="6.8" height="6.8"/>
							<rect x="1446.2" y="450" class="st26" width="6.8" height="6.8"/>
							<rect x="1457.5" y="450" class="st26" width="6.8" height="6.8"/>
						</g>
						<g>
							<rect x="1435.8" y="464.1" class="st26" width="6.8" height="6.8"/>
							<rect x="1446.2" y="464.1" class="st26" width="6.8" height="6.8"/>
							<rect x="1457.5" y="464.1" class="st26" width="6.8" height="6.8"/>
						</g>
					</g>
					<g>
						<g>
							<rect x="1435.8" y="478.1" class="st26" width="6.8" height="6.8"/>
							<rect x="1446.2" y="478.1" class="st26" width="6.8" height="6.8"/>
							<rect x="1457.5" y="478.1" class="st26" width="6.8" height="6.8"/>
						</g>
						<g>
							<rect x="1435.8" y="492.2" class="st26" width="6.8" height="6.8"/>
							<rect x="1446.2" y="492.2" class="st26" width="6.8" height="6.8"/>
							<rect x="1457.5" y="492.2" class="st26" width="6.8" height="6.8"/>
						</g>
						<g>
							<rect x="1435.8" y="505.8" class="st26" width="6.8" height="6.8"/>
							<rect x="1446.2" y="505.8" class="st26" width="6.8" height="6.8"/>
							<rect x="1457.5" y="505.8" class="st26" width="6.8" height="6.8"/>
						</g>
						<g>
							<rect x="1435.8" y="519.9" class="st26" width="6.8" height="6.8"/>
							<rect x="1446.2" y="519.9" class="st26" width="6.8" height="6.8"/>
							<rect x="1457.5" y="519.9" class="st26" width="6.8" height="6.8"/>
						</g>
					</g>
					<g>
						<rect x="1435.8" y="533.9" class="st26" width="6.8" height="6.8"/>
						<rect x="1446.2" y="533.9" class="st26" width="6.8" height="6.8"/>
						<rect x="1457.5" y="533.9" class="st26" width="6.8" height="6.8"/>
					</g>
					<g>
						<rect x="1435.8" y="548.4" class="st26" width="6.8" height="6.8"/>
						<rect x="1446.2" y="548.4" class="st26" width="6.8" height="6.8"/>
						<rect x="1457.5" y="548.4" class="st26" width="6.8" height="6.8"/>
					</g>
					<g>
						<rect x="1435.8" y="561.6" class="st26" width="6.8" height="6.8"/>
						<rect x="1446.2" y="561.6" class="st26" width="6.8" height="6.8"/>
						<rect x="1457.5" y="561.6" class="st26" width="6.8" height="6.8"/>
					</g>
				</g>
				<g>
					<circle class="st27" cx="820.3" cy="679" r="53.9"/>
					<path class="st28" d="M817.1,714.7c-1-2-0.1-4.4,1.9-5.3c2-1,4.4-0.1,5.3,1.9c1,2,0.1,4.4-1.9,5.3
						C820.3,717.6,818.1,716.7,817.1,714.7z"/>
					<path class="st28" d="M825.7,712.8c-0.9-1.9-0.1-4.1,1.7-5s3.9-0.1,4.8,1.7c0.9,1.9,0.1,4.1-1.7,5
						C828.9,715.3,826.6,714.4,825.7,712.8z"/>
					<path class="st28" d="M832.6,708c-0.9-1.7-0.1-3.8,1.7-4.6c1.7-0.9,3.8-0.1,4.6,1.7c0.9,1.7,0.1,3.8-1.7,4.6
						C835.5,710.4,833.5,709.7,832.6,708z"/>
					<path class="st28" d="M836.8,700.6c-0.9-1.7-0.1-3.6,1.5-4.4c1.7-0.9,3.6-0.1,4.4,1.5c0.9,1.7,0.1,3.6-1.5,4.4
						C839.5,703,837.4,702.4,836.8,700.6z"/>
					<path class="st28" d="M837.9,693.2c-0.6-1.5,0-3.4,1.4-4.1c1.5-0.6,3.4,0,4.1,1.4c0.6,1.5,0,3.4-1.4,4.1
						C840.5,695.3,838.7,694.6,837.9,693.2z"/>
					<path class="st28" d="M837.1,685.7c-0.6-1.5-0.1-3.4,1.4-4.1s3.4-0.1,4.1,1.4c0.6,1.5,0,3.4-1.4,4.1
						C839.7,687.9,837.9,687.2,837.1,685.7z"/>
					<path class="st28" d="M835.5,679c-0.6-1.4-0.1-3.1,1.4-3.8s3.1-0.1,3.8,1.4c0.6,1.4,0,3.1-1.4,3.8
						C837.9,681.1,836.3,680.4,835.5,679z"/>
					<path class="st28" d="M832.9,673c-0.6-1.4-0.1-3.1,1.4-3.8c1.4-0.6,3.1,0,3.8,1.4c0.6,1.4,0,3.1-1.4,3.8
						C835.3,674.9,833.5,674.4,832.9,673z"/>
					<path class="st28" d="M829.9,667.4c-0.5-1.1,0-2.8,1.1-3.4s2.8,0,3.4,1.1c0.6,1.1,0,2.8-1.1,3.4
						C832,669.3,830.6,668.8,829.9,667.4z"/>
					<path class="st28" d="M826.4,663c-0.5-1.1,0-2.5,1.1-3.3c1.1-0.5,2.5,0,3.3,1.1c0.5,1.1,0,2.5-1.1,3.3
						C828.4,664.9,826.9,664.1,826.4,663z"/>
					<path class="st28" d="M821.7,659.9c-0.5-1.1,0-2.5,1.1-3.3c1.1-0.5,2.5,0,3.3,1.1c0.5,1.1,0,2.5-1.1,3.3
						C823.6,661.6,822.2,661.1,821.7,659.9z"/>
					<path class="st28" d="M809,712.8c-0.9-1.9-0.1-4.1,1.7-5c1.9-0.9,3.9-0.1,4.8,1.7c0.9,1.8,0.1,4.1-1.7,5
						C812.1,715.3,809.8,714.4,809,712.8z"/>
					<path class="st28" d="M802.5,708c-0.9-1.7-0.1-3.8,1.7-4.6c1.7-0.9,3.8-0.1,4.6,1.7c0.9,1.7,0.1,3.8-1.7,4.6
						C805.4,710.4,803.2,709.7,802.5,708z"/>
					<path class="st28" d="M798.8,700.6c-0.9-1.7-0.1-3.6,1.5-4.4c1.7-0.9,3.6-0.1,4.4,1.5c0.9,1.7,0.1,3.6-1.5,4.4
						C801.5,703,799.6,702.4,798.8,700.6z"/>
					<path class="st28" d="M797.9,693.2c-0.6-1.5,0-3.4,1.4-4.1c1.5-0.6,3.4,0,4.1,1.4c0.6,1.5,0.1,3.4-1.4,4.1
						C800.4,695.3,798.8,694.6,797.9,693.2z"/>
					<path class="st28" d="M798.8,685.7c-0.6-1.5,0-3.4,1.4-4.1c1.5-0.6,3.4-0.1,4.1,1.4c0.6,1.5,0.1,3.4-1.4,4.1
						S799.4,687.2,798.8,685.7z"/>
					<path class="st28" d="M800.8,679c-0.6-1.4,0-3.1,1.4-3.8s3.1-0.1,3.8,1.4c0.6,1.4,0,3.1-1.4,3.8
						C803,681.1,801.5,680.4,800.8,679z"/>
					<path class="st28" d="M803.5,673c-0.6-1.4,0-3.1,1.4-3.8c1.4-0.6,3.1,0,3.8,1.4c0.6,1.4,0,3.1-1.4,3.8
						C805.9,674.9,804.3,674.4,803.5,673z"/>
					<path class="st28" d="M806.9,667.4c-0.5-1.1,0-2.8,1.1-3.4s2.8,0,3.4,1.1c0.5,1.1,0,2.8-1.1,3.4
						C809,669.3,807.4,668.8,806.9,667.4z"/>
					<path class="st28" d="M810.9,663c-0.5-1.1,0-2.5,1-3.3c1.1-0.5,2.5,0,3.3,1.1c0.5,1.1,0,2.5-1,3.3
						C812.8,664.6,811.4,664.1,810.9,663z"/>
					<path class="st28" d="M815.6,659.9c-0.5-1.1,0-2.5,1-3.3c1.1-0.5,2.5,0,3.3,1.1c0.5,1.1,0,2.5-1.1,3.3
						C817.3,661.6,816.1,661.1,815.6,659.9z"/>
					<ellipse class="st28" cx="811.1" cy="717" rx="1.7" ry="1.7"/>
					<ellipse class="st28" cx="831.6" cy="716.5" rx="1.7" ry="1.7"/>
					<path class="st29" d="M819.1,654.3c0,0-6-15.1,2.3-18.7c8.3-3.6-0.6,19.3-0.6,19.3c-3.6-20.6-15.9-25.2-17.8-16.9
						c-1.9,8.4,16.7,17.8,16.7,17.8"/>
					<path class="st29" d="M832.5,651.3c0,0-7.4-2.9-11.8,3.8"/>
					<path class="st29" d="M835,643.8c0,0-10.9-1-13.3,8.8"/>
					<path class="st28" d="M817.7,723.7c0-1.5,1.7-6.9,2.9-6.9c1,0,2.9,5.1,2.9,6.9c0,1.5-1.4,2.9-2.9,2.9S817.7,725.4,817.7,723.7z
						"/>
				</g>
				<g>
					<circle class="st24" cx="1169.2" cy="254.6" r="56.7"/>
					<polygon class="st25" points="1180.8,302 1159.6,302 1159.6,205.6 1180.8,222.4 					"/>
					<g>
						<g>
							<rect x="1163.1" y="228.9" class="st26" width="3.3" height="3.3"/>
							<rect x="1168.1" y="228.9" class="st26" width="3.3" height="3.3"/>
							<rect x="1173.6" y="228.9" class="st26" width="3.3" height="3.3"/>
						</g>
						<g>
							<rect x="1163.1" y="235.7" class="st26" width="3.3" height="3.3"/>
							<rect x="1168.1" y="235.7" class="st26" width="3.3" height="3.3"/>
							<rect x="1173.6" y="235.7" class="st26" width="3.3" height="3.3"/>
						</g>
						<g>
							<rect x="1163.1" y="242.2" class="st26" width="3.3" height="3.3"/>
							<rect x="1168.1" y="242.2" class="st26" width="3.3" height="3.3"/>
							<rect x="1173.6" y="242.2" class="st26" width="3.3" height="3.3"/>
						</g>
						<g>
							<rect x="1163.1" y="249" class="st26" width="3.3" height="3.3"/>
							<rect x="1168.1" y="249" class="st26" width="3.3" height="3.3"/>
							<rect x="1173.6" y="249" class="st26" width="3.3" height="3.3"/>
						</g>
					</g>
					<g>
						<g>
							<rect x="1163.1" y="255.7" class="st26" width="3.3" height="3.3"/>
							<rect x="1168.1" y="255.7" class="st26" width="3.3" height="3.3"/>
							<rect x="1173.6" y="255.7" class="st26" width="3.3" height="3.3"/>
						</g>
						<g>
							<rect x="1163.1" y="262.5" class="st26" width="3.3" height="3.3"/>
							<rect x="1168.1" y="262.5" class="st26" width="3.3" height="3.3"/>
							<rect x="1173.6" y="262.5" class="st26" width="3.3" height="3.3"/>
						</g>
						<g>
							<rect x="1163.1" y="269" class="st26" width="3.3" height="3.3"/>
							<rect x="1168.1" y="269" class="st26" width="3.3" height="3.3"/>
							<rect x="1173.6" y="269" class="st26" width="3.3" height="3.3"/>
						</g>
						<g>
							<rect x="1163.1" y="275.8" class="st26" width="3.3" height="3.3"/>
							<rect x="1168.1" y="275.8" class="st26" width="3.3" height="3.3"/>
							<rect x="1173.6" y="275.8" class="st26" width="3.3" height="3.3"/>
						</g>
					</g>
					<g>
						<rect x="1163.1" y="282.5" class="st26" width="3.3" height="3.3"/>
						<rect x="1168.1" y="282.5" class="st26" width="3.3" height="3.3"/>
						<rect x="1173.6" y="282.5" class="st26" width="3.3" height="3.3"/>
					</g>
					<g>
						<rect x="1163.1" y="289.5" class="st26" width="3.3" height="3.3"/>
						<rect x="1168.1" y="289.5" class="st26" width="3.3" height="3.3"/>
						<rect x="1173.6" y="289.5" class="st26" width="3.3" height="3.3"/>
					</g>
					<g>
						<rect x="1163.1" y="295.8" class="st26" width="3.3" height="3.3"/>
						<rect x="1168.1" y="295.8" class="st26" width="3.3" height="3.3"/>
						<rect x="1173.6" y="295.8" class="st26" width="3.3" height="3.3"/>
					</g>
				</g>
				<circle class="st27" cx="1320.3" cy="322" r="53.9"/>
				<path class="st28" d="M1317.1,357.7c-1-2-0.1-4.4,1.9-5.3c2-1,4.4-0.1,5.3,1.9c1,2,0.1,4.4-1.9,5.3
					C1320.3,360.6,1318.1,359.7,1317.1,357.7z"/>
				<path class="st28" d="M1325.7,355.8c-0.9-1.9-0.1-4.1,1.7-5s3.9-0.1,4.8,1.7c0.9,1.9,0.1,4.1-1.7,5
					C1328.9,358.3,1326.6,357.4,1325.7,355.8z"/>
				<path class="st28" d="M1332.6,351c-0.9-1.7-0.1-3.8,1.7-4.6c1.7-0.9,3.8-0.1,4.6,1.7c0.9,1.7,0.1,3.8-1.7,4.6
					C1335.5,353.4,1333.5,352.7,1332.6,351z"/>
				<path class="st28" d="M1336.8,343.6c-0.9-1.7-0.1-3.6,1.5-4.4s3.6-0.1,4.4,1.5c0.9,1.7,0.1,3.6-1.5,4.4
					C1339.5,346,1337.4,345.4,1336.8,343.6z"/>
				<path class="st28" d="M1337.9,336.2c-0.6-1.5,0-3.4,1.4-4.1c1.5-0.6,3.4,0,4.1,1.4c0.6,1.5,0,3.4-1.4,4.1
					C1340.5,338.3,1338.7,337.6,1337.9,336.2z"/>
				<path class="st28" d="M1337.1,328.7c-0.6-1.5-0.1-3.4,1.4-4.1s3.4-0.1,4.1,1.4c0.6,1.5,0,3.4-1.4,4.1
					C1339.7,330.9,1337.9,330.2,1337.1,328.7z"/>
				<path class="st28" d="M1335.5,322c-0.6-1.4-0.1-3.1,1.4-3.8s3.1-0.1,3.8,1.4c0.6,1.4,0,3.1-1.4,3.8
					C1337.9,324.1,1336.3,323.4,1335.5,322z"/>
				<path class="st28" d="M1332.9,316c-0.6-1.4-0.1-3.1,1.4-3.8c1.4-0.6,3.1,0,3.8,1.4c0.6,1.4,0,3.1-1.4,3.8
					C1335.3,317.9,1333.5,317.4,1332.9,316z"/>
				<path class="st28" d="M1329.9,310.4c-0.5-1.1,0-2.8,1.1-3.4s2.8,0,3.4,1.1s0,2.8-1.1,3.4C1332,312.3,1330.6,311.8,1329.9,310.4z
					"/>
				<path class="st28" d="M1326.4,306c-0.5-1.1,0-2.5,1.1-3.3c1.1-0.5,2.5,0,3.3,1.1c0.5,1.1,0,2.5-1.1,3.3
					C1328.4,307.9,1326.9,307.1,1326.4,306z"/>
				<path class="st28" d="M1321.7,302.9c-0.5-1.1,0-2.5,1.1-3.3c1.1-0.5,2.5,0,3.3,1.1c0.5,1.1,0,2.5-1.1,3.3
					C1323.6,304.6,1322.2,304.1,1321.7,302.9z"/>
				<path class="st28" d="M1309,355.8c-0.9-1.9-0.1-4.1,1.7-5c1.9-0.9,3.9-0.1,4.8,1.7c0.9,1.8,0.1,4.1-1.7,5
					C1312.1,358.3,1309.8,357.4,1309,355.8z"/>
				<path class="st28" d="M1302.5,351c-0.9-1.7-0.1-3.8,1.7-4.6c1.7-0.9,3.8-0.1,4.6,1.7c0.9,1.7,0.1,3.8-1.7,4.6
					C1305.4,353.4,1303.2,352.7,1302.5,351z"/>
				<path class="st28" d="M1298.8,343.6c-0.9-1.7-0.1-3.6,1.5-4.4c1.7-0.9,3.6-0.1,4.4,1.5c0.9,1.7,0.1,3.6-1.5,4.4
					C1301.5,346,1299.6,345.4,1298.8,343.6z"/>
				<path class="st28" d="M1297.9,336.2c-0.6-1.5,0-3.4,1.4-4.1c1.5-0.6,3.4,0,4.1,1.4c0.6,1.5,0.1,3.4-1.4,4.1
					C1300.4,338.3,1298.8,337.6,1297.9,336.2z"/>
				<path class="st28" d="M1298.8,328.7c-0.6-1.5,0-3.4,1.4-4.1c1.5-0.6,3.4-0.1,4.1,1.4c0.6,1.5,0.1,3.4-1.4,4.1
					S1299.4,330.2,1298.8,328.7z"/>
				<path class="st28" d="M1300.8,322c-0.6-1.4,0-3.1,1.4-3.8s3.1-0.1,3.8,1.4c0.6,1.4,0,3.1-1.4,3.8
					C1303,324.1,1301.5,323.4,1300.8,322z"/>
				<path class="st28" d="M1303.5,316c-0.6-1.4,0-3.1,1.4-3.8c1.4-0.6,3.1,0,3.8,1.4c0.6,1.4,0,3.1-1.4,3.8
					C1305.9,317.9,1304.3,317.4,1303.5,316z"/>
				<path class="st28" d="M1306.9,310.4c-0.5-1.1,0-2.8,1.1-3.4s2.8,0,3.4,1.1c0.5,1.1,0,2.8-1.1,3.4
					C1309,312.3,1307.4,311.8,1306.9,310.4z"/>
				<path class="st28" d="M1310.9,306c-0.5-1.1,0-2.5,1-3.3c1.1-0.5,2.5,0,3.3,1.1c0.5,1.1,0,2.5-1,3.3
					C1312.8,307.6,1311.4,307.1,1310.9,306z"/>
				<path class="st28" d="M1315.6,302.9c-0.5-1.1,0-2.5,1-3.3c1.1-0.5,2.5,0,3.3,1.1c0.5,1.1,0,2.5-1.1,3.3
					C1317.3,304.6,1316.1,304.1,1315.6,302.9z"/>
				<ellipse class="st28" cx="1311.1" cy="360" rx="1.7" ry="1.7"/>
				<ellipse class="st28" cx="1331.6" cy="359.5" rx="1.7" ry="1.7"/>
				<path class="st29" d="M1319.1,297.3c0,0-6-15.1,2.3-18.7s-0.6,19.3-0.6,19.3c-3.6-20.6-15.9-25.2-17.8-16.9
					c-1.9,8.4,16.7,17.8,16.7,17.8"/>
				<path class="st29" d="M1332.5,294.3c0,0-7.4-2.9-11.8,3.8"/>
				<path class="st29" d="M1335,286.8c0,0-10.9-1-13.3,8.8"/>
				<path class="st28" d="M1317.7,366.7c0-1.5,1.7-6.9,2.9-6.9c1,0,2.9,5.1,2.9,6.9c0,1.5-1.4,2.9-2.9,2.9
					S1317.7,368.4,1317.7,366.7z"/>
				<g>
					<ellipse class="st30" cx="174" cy="250.7" rx="54.4" ry="54.4"/>
					<path class="st31" d="M146.3,212.4c0,0,8.1,9.2,9.7,9.2c1.6-0.2,7.2-7.2,7.2-7.2l-9.5-9.4c0,0,24.1-3.8,20.5,18
						c12.4,12.4,15.8,16.4,15.8,16.4l-9.5,9.5l-14.9-15.8c0,0-4.8,0.8-8.3,0.3C154.1,232.8,141.8,229.3,146.3,212.4z"/>
					<path class="st31" d="M214.9,267.3c0,0-7.8-8.9-9.2-8.9s-6.9,7-6.9,7l9.2,9.1c0,0-23,3.8-19.5-17.4c-11.7-11.9-15-15.8-15-15.8
						l9.2-9.2l14.1,15.3c0,0,4.7-0.8,7.8-0.3C207.6,247.6,219.3,251.1,214.9,267.3z"/>
					<line class="st0" x1="171.3" y1="248.4" x2="190.1" y2="229.6"/>
					<polyline class="st32" points="175.8,245.7 188,232.5 192.7,236.8 178,250.9 172.1,247.5 175.8,245.7 					"/>
					<line class="st23" x1="169.9" y1="233.5" x2="175.2" y2="228.2"/>
					<line class="st23" x1="173.7" y1="237.6" x2="179" y2="232.3"/>
					<line class="st23" x1="187.4" y1="252.1" x2="192.9" y2="246.8"/>
					<line class="st23" x1="183.8" y1="248.6" x2="189.3" y2="243.2"/>
					<polygon class="st31" points="162.9,251.1 170.1,247.1 177.6,254.7 173.5,261.8 					"/>
					<polyline class="st31" points="172.4,248.4 197,223.7 196.8,219.5 207.6,211.5 212.6,216.5 204.9,226.8 202,227.6 176.9,252.6 
											"/>
					<line class="st33" x1="183.5" y1="251.7" x2="192" y2="242.5"/>
					<g id="Layer_3">
						<path class="st34" d="M173,267.2l-24.5,24.5c-1.6,1.6-4.1,1.6-5.5,0l-9.4-9.4c-1.6-1.6-1.6-4.1,0-5.5l24.5-24.5
							c1.6-1.6,4.1-1.6,5.5,0l9.4,9.4C174.4,263.2,174.4,265.6,173,267.2z"/>
					</g>
					<g id="Layer_4">
						<polygon class="st35" points="141.9,288.3 143,289.4 168.2,264 167.1,262.9 						"/>
						<polygon class="st35" points="163.8,259.7 138.6,285 139.7,286.1 164.9,260.7 						"/>
						<polygon class="st35" points="160.5,256.4 135.4,281.5 136.5,282.6 161.6,257.5 						"/>
					</g>
				</g>
				<path class="st36" d="M850,228.3"/>
				<g>
					<circle class="st1" cx="1406" cy="747.5" r="51.8"/>
					<polygon class="st2" points="1363.1,742 1370.4,733 1406.6,733 1406.6,742 					"/>
					<polygon class="st2" points="1449.8,742 1442.5,733 1406.4,733 1406.4,742 					"/>
					<rect x="1364.7" y="742" class="st3" width="83.5" height="27.8"/>
					<rect x="1395.8" y="724.8" class="st4" width="22" height="21.9"/>
					<polygon class="st2" points="1417.8,724.8 1395.8,724.8 1406.8,715.3 					"/>
					<rect x="1394.2" y="724.8" class="st1" width="25.1" height="1.8"/>
					<polygon class="st1" points="1426.1,748.2 1406.6,732.1 1386.8,748.2 1389.5,748.2 1406.6,734.3 1423.5,748.2 					"/>
					<path class="st3" d="M1406.6,750.6c-4.3,0-7.7,3.5-7.7,7.7v1v10.4h7.1h1.1h7.1v-10.4v-1
						C1414.2,754.2,1410.7,750.6,1406.6,750.6z"/>
					<rect x="1406" y="758.6" class="st3" width="1" height="11.2"/>
					<rect x="1398.7" y="758" class="st3" width="15.6" height="0.7"/>
					<g>
						<rect x="1426.6" y="749.9" class="st3" width="8.2" height="6.7"/>
						<line class="st5" x1="1430.9" y1="756.5" x2="1430.9" y2="749.8"/>
					</g>
					<g>
						<rect x="1437.1" y="750.1" class="st3" width="8.2" height="19.7"/>
						<line class="st5" x1="1441.3" y1="769.4" x2="1441.3" y2="749.8"/>
					</g>
					<g>
						<rect x="1426.6" y="758.7" class="st3" width="8.2" height="6.7"/>
						<line class="st5" x1="1430.9" y1="765.3" x2="1430.9" y2="758.6"/>
					</g>
					<g>
						<rect x="1367.7" y="750.1" class="st3" width="8.2" height="19.7"/>
						<line class="st5" x1="1371.9" y1="769.4" x2="1371.9" y2="749.8"/>
					</g>
					<g>
						<rect x="1378.2" y="749.9" class="st3" width="8.2" height="6.7"/>
						<line class="st5" x1="1382.4" y1="756.5" x2="1382.4" y2="749.8"/>
					</g>
					<g>
						<rect x="1378.2" y="758.7" class="st3" width="8.2" height="6.7"/>
						<line class="st5" x1="1382.4" y1="765.3" x2="1382.4" y2="758.6"/>
					</g>
				</g>
				<g>
					<circle class="st1" cx="434" cy="639.5" r="51.8"/>
					<polygon class="st2" points="391.1,634 398.4,625 434.6,625 434.6,634 					"/>
					<polygon class="st2" points="477.8,634 470.5,625 434.4,625 434.4,634 					"/>
					<rect x="392.7" y="634" class="st3" width="83.5" height="27.8"/>
					<rect x="423.8" y="616.8" class="st4" width="22" height="21.9"/>
					<polygon class="st2" points="445.8,616.8 423.8,616.8 434.8,607.3 					"/>
					<rect x="422.2" y="616.8" class="st1" width="25.1" height="1.8"/>
					<polygon class="st1" points="454.1,640.2 434.6,624.1 414.8,640.2 417.5,640.2 434.6,626.3 451.5,640.2 					"/>
					<path class="st3" d="M434.6,642.6c-4.3,0-7.7,3.5-7.7,7.7v1v10.4h7.1h1.1h7.1v-10.4v-1C442.2,646.2,438.7,642.6,434.6,642.6z"
						/>
					<rect x="434" y="650.6" class="st3" width="1" height="11.2"/>
					<rect x="426.7" y="650" class="st3" width="15.6" height="0.7"/>
					<g>
						<rect x="454.6" y="641.9" class="st3" width="8.2" height="6.7"/>
						<line class="st5" x1="458.9" y1="648.5" x2="458.9" y2="641.8"/>
					</g>
					<g>
						<rect x="465.1" y="642.1" class="st3" width="8.2" height="19.7"/>
						<line class="st5" x1="469.3" y1="661.4" x2="469.3" y2="641.8"/>
					</g>
					<g>
						<rect x="454.6" y="650.7" class="st3" width="8.2" height="6.7"/>
						<line class="st5" x1="458.9" y1="657.3" x2="458.9" y2="650.6"/>
					</g>
					<g>
						<rect x="395.7" y="642.1" class="st3" width="8.2" height="19.7"/>
						<line class="st5" x1="399.9" y1="661.4" x2="399.9" y2="641.8"/>
					</g>
					<g>
						<rect x="406.2" y="641.9" class="st3" width="8.2" height="6.7"/>
						<line class="st5" x1="410.4" y1="648.5" x2="410.4" y2="641.8"/>
					</g>
					<g>
						<rect x="406.2" y="650.7" class="st3" width="8.2" height="6.7"/>
						<line class="st5" x1="410.4" y1="657.3" x2="410.4" y2="650.6"/>
					</g>
				</g>
				<g>
					<circle class="st6" cx="910.3" cy="232.4" r="50.6"/>
					<rect x="892" y="208" class="st7" width="36.2" height="51"/>
					<rect x="889.9" y="206.9" class="st8" width="40.3" height="2.8"/>
					<rect x="892" y="252.6" class="st9" width="36.2" height="6.4"/>
					<rect x="905.6" y="248.5" class="st10" width="8.5" height="10.6"/>
					<rect x="872.1" y="224.9" class="st11" width="19.8" height="34.1"/>
					<rect x="875.5" y="228.9" class="st12" width="13.2" height="3.9"/>
					
						<rect x="880.2" y="231.7" transform="matrix(5.920816e-03 -1 1 5.920816e-03 638.6707 1119.0419)" class="st12" width="3.9" height="13.2"/>
					<rect x="875.5" y="244.4" class="st12" width="13.2" height="3.9"/>
					<rect x="870.8" y="223.9" class="st13" width="21.2" height="2.5"/>
					<rect x="927.9" y="224.9" class="st14" width="19.8" height="34.1"/>
					<rect x="931.4" y="228.9" class="st12" width="13.2" height="3.9"/>
					<rect x="931.4" y="236.6" class="st12" width="13.2" height="3.9"/>
					<rect x="931.4" y="244.4" class="st12" width="13.2" height="3.9"/>
					<rect x="875.5" y="251.7" class="st12" width="13.2" height="3.9"/>
					<rect x="931.4" y="251.7" class="st12" width="13.2" height="3.9"/>
					<rect x="927.9" y="223.9" class="st8" width="21.2" height="2.5"/>
					<g>
						<rect x="894.8" y="236.1" class="st7" width="5.9" height="8.4"/>
						<line class="st15" x1="897.9" y1="236.1" x2="897.9" y2="244.1"/>
						<line class="st15" x1="894.9" y1="240.5" x2="900.3" y2="240.5"/>
					</g>
					<g>
						<rect x="903.1" y="236.1" class="st7" width="5.9" height="8.4"/>
						<line class="st15" x1="906.1" y1="236.1" x2="906.1" y2="244.1"/>
						<line class="st15" x1="903.2" y1="240.5" x2="908.6" y2="240.5"/>
					</g>
					<g>
						<rect x="911.2" y="236.1" class="st7" width="5.9" height="8.4"/>
						<line class="st15" x1="914.1" y1="236.1" x2="914.1" y2="244.1"/>
						<line class="st15" x1="911.3" y1="240.5" x2="916.7" y2="240.5"/>
					</g>
					<g>
						<rect x="919.6" y="235.8" class="st7" width="5.9" height="8.4"/>
						<line class="st15" x1="922.6" y1="235.8" x2="922.6" y2="244.1"/>
						<line class="st15" x1="919.7" y1="240.4" x2="925.2" y2="240.4"/>
					</g>
					<g>
						<rect x="894.8" y="224.9" class="st7" width="5.9" height="8.4"/>
						<line class="st15" x1="897.9" y1="224.9" x2="897.9" y2="233.1"/>
						<line class="st15" x1="894.9" y1="229.6" x2="900.3" y2="229.6"/>
					</g>
					<g>
						<rect x="903.1" y="224.9" class="st7" width="5.9" height="8.4"/>
						<line class="st15" x1="906.1" y1="224.9" x2="906.1" y2="233.1"/>
						<line class="st15" x1="903.2" y1="229.6" x2="908.6" y2="229.6"/>
					</g>
					<g>
						<rect x="911.2" y="224.9" class="st7" width="5.9" height="8.4"/>
						<line class="st15" x1="914.1" y1="224.9" x2="914.1" y2="233.1"/>
						<line class="st15" x1="911.3" y1="229.6" x2="916.7" y2="229.6"/>
					</g>
					<g>
						<rect x="919.6" y="224.9" class="st7" width="5.9" height="8.4"/>
						<line class="st15" x1="922.6" y1="224.9" x2="922.6" y2="233"/>
						<line class="st15" x1="919.7" y1="229.4" x2="925.2" y2="229.4"/>
					</g>
					<g>
						<rect x="894.8" y="213.9" class="st7" width="5.9" height="8.4"/>
						<line class="st15" x1="897.9" y1="213.9" x2="897.9" y2="222"/>
						<line class="st15" x1="894.9" y1="218.5" x2="900.3" y2="218.5"/>
					</g>
					<g>
						<rect x="903.1" y="213.9" class="st7" width="5.9" height="8.4"/>
						<line class="st15" x1="906.1" y1="213.9" x2="906.1" y2="222"/>
						<line class="st15" x1="903.2" y1="218.5" x2="908.6" y2="218.5"/>
					</g>
					<g>
						<rect x="911.2" y="213.9" class="st7" width="5.9" height="8.4"/>
						<line class="st15" x1="914.1" y1="213.9" x2="914.1" y2="222"/>
						<line class="st15" x1="911.3" y1="218.5" x2="916.7" y2="218.5"/>
					</g>
					<g>
						<rect x="919.6" y="213.8" class="st7" width="5.9" height="8.4"/>
						<line class="st15" x1="922.6" y1="213.8" x2="922.6" y2="221.9"/>
						<line class="st15" x1="919.7" y1="218.3" x2="925.2" y2="218.3"/>
					</g>
				</g>
				<g>
					<circle class="st16" cx="1715" cy="565.9" r="58.1"/>
					<g>
						<path class="st17" d="M1665.1,575.8c-0.2-0.8-0.3-1.7-0.3-2.5c0-6.2,4.5-11.2,10.4-12v-0.2c0-9.9,8-17.9,17.9-17.9h29.1
							c9.9,0,24.8,8,24.8,17.9h7.7c6.7,0,12.2,5.5,12.2,12.2c0,0.8-0.2,1.7-0.3,2.5C1766.7,575.8,1665.1,575.8,1665.1,575.8z"/>
						<path class="st18" d="M1691.9,548.7h32c5.7,0,17.2,4.7,17.2,10.4h-59.6C1681.5,553.4,1686,548.7,1691.9,548.7z"/>
						<g>
							<path class="st18" d="M1668.6,573.5c0,5,4,9,9,9s9-4,9-9s-4-9-9-9S1668.6,568.5,1668.6,573.5z"/>
							<path class="st18" d="M1673.2,573.5c0,2.5,2,4.5,4.5,4.5s4.5-2,4.5-4.5s-2-4.5-4.5-4.5C1675.2,568.9,1673.2,571,1673.2,573.5
								z"/>
						</g>
						<g>
							<path class="st18" d="M1744.6,573.5c0,5,4,9,9,9s9-4,9-9s-4-9-9-9C1748.6,564.4,1744.6,568.5,1744.6,573.5z"/>
							<path class="st18" d="M1749.1,573.5c0,2.5,2,4.5,4.5,4.5s4.5-2,4.5-4.5s-2-4.5-4.5-4.5C1751.1,568.9,1749.1,571,1749.1,573.5
								z"/>
						</g>
						<line class="st19" x1="1723.8" y1="548.7" x2="1723.8" y2="559.1"/>
						<line class="st19" x1="1702.3" y1="548.7" x2="1702.3" y2="559.1"/>
					</g>
				</g>
				<g>
					<circle class="st20" cx="1224" cy="745.4" r="54.8"/>
					<path class="st21" d="M1233.6,711.8c-0.3,1.1-0.3,1.7-0.6,2.4c-0.8,2.2-1.5,6.5-1.1,8.1s3.1,6.1,3.1,11.9
						c0,1.9-0.3,4.4-0.6,7.4c-7.4,2.5-13.3,1.5-17.5,0.1c-0.3-2.9-0.4-5.7-0.3-7.6c0.3-5.7,2.8-10.9,3.1-12.6
						c0.4-1.7-0.8-5.6-1.3-7.5c-0.1-0.4-0.3-1.3-0.4-2.2c1.3-1.5,2.7-1.9,3.9-1.5c1.7,0.4,2.2,1.3,3.7,1.5c1.3-0.1,2.2-1,3.8-1.5
						C1230.8,709.6,1232.3,710.2,1233.6,711.8z"/>
					<path class="st2" d="M1218.1,711.4C1218.1,711.7,1218.1,711.7,1218.1,711.4C1218,711.5,1218,711.4,1218.1,711.4l-0.1-7.1
						c0,0,0-0.1,0.1-0.1c0,0,0.1,0,0.1,0.1v7.2h-0.1V711.4z"/>
					<path class="st2" d="M1233.6,711.8L1233.6,711.8C1233.5,711.9,1233.5,711.8,1233.6,711.8l-0.1-7.4c0,0,0-0.1,0.1-0.1
						c0,0,0.1,0,0.1,0.1L1233.6,711.8L1233.6,711.8z"/>
					<path class="st21" d="M1234.5,740.5c-2.2,0.6-4.8-1.9-6.5-6.5c-0.3,1.7-0.9,5.8-2.2,7.9c-1.5-2-1.9-6.2-2.2-7.9
						c-1.7,4.6-4.3,7.1-6.5,6.5c0.4,8.1-7.2,35.7-19.8,41.8c-4.7,3.3,6.1,4.4,14.6,2.5c-1.7,5.6,29,6.7,28.1-0.1
						c8.5,1.9,19.3,0.8,14.6-2.5C1241.7,776.3,1234,748.7,1234.5,740.5z"/>
					<path class="st22" d="M1219.1,740.5c1.3,6.1-2.4,33.3-7.4,44.6c-0.6,0.1-1.9,0.3-2.7,0.4C1214.5,774,1220.1,746,1219.1,740.5z"
						/>
					<path class="st22" d="M1231.7,740.2c-1.3,6.1,2.4,33.2,7.5,44.6c0.6,0.1,1.9,0.3,2.7,0.4
						C1236.1,773.3,1230.5,745.4,1231.7,740.2z"/>
					<path class="st23" d="M1224.4,698.1c0,0-0.1-1.7,1.7-1.5c0.9,0.1,1.7,2-0.4,2.7l-0.1,1.9l-11.7,4.2l11.7-4.2"/>
					<line class="st23" x1="1237.6" y1="704.7" x2="1225.7" y2="701.3"/>
				</g>
				<g>
					<circle class="st24" cx="1573.2" cy="734.6" r="56.7"/>
					<polygon class="st25" points="1584.8,782 1563.6,782 1563.6,685.6 1584.8,702.4 					"/>
					<g>
						<g>
							<rect x="1567.1" y="708.9" class="st26" width="3.3" height="3.3"/>
							<rect x="1572.1" y="708.9" class="st26" width="3.3" height="3.3"/>
							<rect x="1577.6" y="708.9" class="st26" width="3.3" height="3.3"/>
						</g>
						<g>
							<rect x="1567.1" y="715.7" class="st26" width="3.3" height="3.3"/>
							<rect x="1572.1" y="715.7" class="st26" width="3.3" height="3.3"/>
							<rect x="1577.6" y="715.7" class="st26" width="3.3" height="3.3"/>
						</g>
						<g>
							<rect x="1567.1" y="722.2" class="st26" width="3.3" height="3.3"/>
							<rect x="1572.1" y="722.2" class="st26" width="3.3" height="3.3"/>
							<rect x="1577.6" y="722.2" class="st26" width="3.3" height="3.3"/>
						</g>
						<g>
							<rect x="1567.1" y="729" class="st26" width="3.3" height="3.3"/>
							<rect x="1572.1" y="729" class="st26" width="3.3" height="3.3"/>
							<rect x="1577.6" y="729" class="st26" width="3.3" height="3.3"/>
						</g>
					</g>
					<g>
						<g>
							<rect x="1567.1" y="735.7" class="st26" width="3.3" height="3.3"/>
							<rect x="1572.1" y="735.7" class="st26" width="3.3" height="3.3"/>
							<rect x="1577.6" y="735.7" class="st26" width="3.3" height="3.3"/>
						</g>
						<g>
							<rect x="1567.1" y="742.5" class="st26" width="3.3" height="3.3"/>
							<rect x="1572.1" y="742.5" class="st26" width="3.3" height="3.3"/>
							<rect x="1577.6" y="742.5" class="st26" width="3.3" height="3.3"/>
						</g>
						<g>
							<rect x="1567.1" y="749" class="st26" width="3.3" height="3.3"/>
							<rect x="1572.1" y="749" class="st26" width="3.3" height="3.3"/>
							<rect x="1577.6" y="749" class="st26" width="3.3" height="3.3"/>
						</g>
						<g>
							<rect x="1567.1" y="755.8" class="st26" width="3.3" height="3.3"/>
							<rect x="1572.1" y="755.8" class="st26" width="3.3" height="3.3"/>
							<rect x="1577.6" y="755.8" class="st26" width="3.3" height="3.3"/>
						</g>
					</g>
					<g>
						<rect x="1567.1" y="762.5" class="st26" width="3.3" height="3.3"/>
						<rect x="1572.1" y="762.5" class="st26" width="3.3" height="3.3"/>
						<rect x="1577.6" y="762.5" class="st26" width="3.3" height="3.3"/>
					</g>
					<g>
						<rect x="1567.1" y="769.5" class="st26" width="3.3" height="3.3"/>
						<rect x="1572.1" y="769.5" class="st26" width="3.3" height="3.3"/>
						<rect x="1577.6" y="769.5" class="st26" width="3.3" height="3.3"/>
					</g>
					<g>
						<rect x="1567.1" y="775.8" class="st26" width="3.3" height="3.3"/>
						<rect x="1572.1" y="775.8" class="st26" width="3.3" height="3.3"/>
						<rect x="1577.6" y="775.8" class="st26" width="3.3" height="3.3"/>
					</g>
				</g>
				<g>
					<circle class="st27" cx="271.8" cy="794.4" r="97.3"/>
					<path class="st28" d="M266.1,858.9c-1.8-3.7-0.2-8,3.4-9.6c3.7-1.8,8-0.2,9.6,3.4c1.8,3.7,0.2,8-3.4,9.6
						C271.8,864.2,267.9,862.6,266.1,858.9z"/>
					<path class="st28" d="M281.7,855.5c-1.6-3.4-0.2-7.3,3-9c3.2-1.6,7.1-0.2,8.7,3c1.6,3.4,0.2,7.3-3,9
						C287.4,860.1,283.3,858.5,281.7,855.5z"/>
					<path class="st28" d="M294.1,846.8c-1.6-3-0.2-6.9,3-8.3c3-1.6,6.9-0.2,8.3,3c1.6,3,0.2,6.9-3,8.3
						C299.4,851.1,295.7,850,294.1,846.8z"/>
					<path class="st28" d="M301.7,833.5c-1.6-3-0.2-6.4,2.8-8s6.4-0.2,8,2.8s0.2,6.4-2.8,8C306.5,837.8,302.8,836.7,301.7,833.5z"/>
					<path class="st28" d="M303.7,820.1c-1.1-2.8,0-6.2,2.5-7.3c2.8-1.1,6.2,0,7.3,2.5c1.1,2.8,0,6.2-2.5,7.3
						C308.3,823.8,305.1,822.7,303.7,820.1z"/>
					<path class="st28" d="M302.1,806.6c-1.1-2.8-0.2-6.2,2.5-7.3s6.2-0.2,7.3,2.5c1.1,2.8,0,6.2-2.5,7.3
						C306.9,810.5,303.7,809.4,302.1,806.6z"/>
					<path class="st28" d="M299.4,794.4c-1.1-2.5-0.2-5.5,2.5-6.9c2.8-1.4,5.5-0.2,6.9,2.5c1.1,2.5,0,5.5-2.5,6.9
						C303.7,798.3,300.8,797,299.4,794.4z"/>
					<path class="st28" d="M294.6,783.6c-1.1-2.5-0.2-5.5,2.5-6.9c2.5-1.1,5.5,0,6.9,2.5c1.1,2.5,0,5.5-2.5,6.9
						C298.9,787.1,295.7,786.2,294.6,783.6z"/>
					<path class="st28" d="M289.3,773.5c-0.9-2.1,0-5.1,2.1-6.2c2.1-1.1,5.1,0,6.2,2.1s0,5.1-2.1,6.2
						C292.9,777,290.4,776.1,289.3,773.5z"/>
					<path class="st28" d="M282.8,765.5c-0.9-2.1,0-4.6,2.1-6c2.1-0.9,4.6,0,6,2.1c0.9,2.1,0,4.6-2.1,6
						C286.5,768.9,283.8,767.6,282.8,765.5z"/>
					<path class="st28" d="M274.3,760c-0.9-2.1,0-4.6,2.1-6c2.1-0.9,4.6,0,6,2.1c0.9,2.1,0,4.6-2.1,6
						C277.8,763,275.3,762.1,274.3,760z"/>
					<path class="st28" d="M251.4,855.5c-1.6-3.4-0.2-7.3,3-9c3.4-1.6,7.1-0.2,8.7,3s0.2,7.3-3,9C257.1,860.1,253,858.5,251.4,855.5
						z"/>
					<path class="st28" d="M239.7,846.8c-1.6-3-0.2-6.9,3-8.3c3-1.6,6.9-0.2,8.3,3c1.6,3,0.2,6.9-3,8.3
						C245,851.1,241.1,850,239.7,846.8z"/>
					<path class="st28" d="M233,833.5c-1.6-3-0.2-6.4,2.8-8s6.4-0.2,8,2.8s0.2,6.4-2.8,8C237.8,837.8,234.4,836.7,233,833.5z"/>
					<path class="st28" d="M231.4,820.1c-1.1-2.8,0-6.2,2.5-7.3c2.8-1.1,6.2,0,7.3,2.5c1.1,2.8,0.2,6.2-2.5,7.3
						C236,823.8,233,822.7,231.4,820.1z"/>
					<path class="st28" d="M233,806.6c-1.1-2.8,0-6.2,2.5-7.3c2.8-1.1,6.2-0.2,7.3,2.5c1.1,2.8,0.2,6.2-2.5,7.3
						C237.6,810.3,234.2,809.4,233,806.6z"/>
					<path class="st28" d="M236.7,794.4c-1.1-2.5,0-5.5,2.5-6.9s5.5-0.2,6.9,2.5c1.1,2.5,0,5.5-2.5,6.9
						C240.6,798.3,237.8,797,236.7,794.4z"/>
					<path class="st28" d="M241.5,783.6c-1.1-2.5,0-5.5,2.5-6.9c2.5-1.1,5.5,0,6.9,2.5c1.1,2.5,0,5.5-2.5,6.9
						C245.9,787.1,242.9,786.2,241.5,783.6z"/>
					<path class="st28" d="M247.7,773.5c-0.9-2.1,0-5.1,2.1-6.2s5.1,0,6.2,2.1c0.9,2.1,0,5.1-2.1,6.2
						C251.4,777,248.6,776.1,247.7,773.5z"/>
					<path class="st28" d="M254.8,765.5c-0.9-2.1,0-4.6,1.8-6c2.1-0.9,4.6,0,6,2.1c0.9,2.1,0,4.6-1.8,6
						C258.3,768.5,255.8,767.6,254.8,765.5z"/>
					<path class="st28" d="M263.3,760c-0.9-2.1,0-4.6,1.8-6c2.1-0.9,4.6,0,6,2.1c0.9,2.1,0,4.6-2.1,6
						C266.5,763,264.2,762.1,263.3,760z"/>
					
						<ellipse transform="matrix(0.1602 -0.9871 0.9871 0.1602 -637.5497 976.8499)" class="st28" cx="255.3" cy="863.1" rx="3" ry="3"/>
					<ellipse class="st28" cx="292.3" cy="862.2" rx="3" ry="3"/>
					<path class="st29" d="M269.8,749.9c0,0-10.8-27.3,4.1-33.7s-1.1,34.9-1.1,34.9c-6.4-37.2-28.7-45.5-32.1-30.5
						c-3.4,15.2,30.1,32.1,30.1,32.1"/>
					<path class="st29" d="M293.9,744.4c0,0-13.3-5.3-21.4,6.9"/>
					<path class="st29" d="M298.5,730.8c0,0-19.7-1.8-24.1,15.8"/>
					<path class="st28" d="M267.2,875.2c0-2.8,3-12.4,5.3-12.4c1.8,0,5.3,9.2,5.3,12.4c0,2.8-2.5,5.3-5.3,5.3
						C269.8,880.5,267.2,878.2,267.2,875.2z"/>
				</g>
				<g>
					<circle class="st20" cx="578" cy="145.4" r="54.8"/>
					<path class="st21" d="M587.6,111.8c-0.3,1.1-0.3,1.7-0.6,2.4c-0.8,2.2-1.5,6.5-1.1,8.1c0.4,1.7,3.1,6.1,3.1,11.9
						c0,1.9-0.3,4.4-0.6,7.4c-7.4,2.5-13.3,1.5-17.5,0.1c-0.3-2.9-0.4-5.7-0.3-7.6c0.3-5.7,2.8-10.9,3.1-12.6
						c0.4-1.7-0.8-5.6-1.3-7.5c-0.1-0.4-0.3-1.3-0.4-2.2c1.3-1.5,2.7-1.9,3.9-1.5c1.7,0.4,2.2,1.3,3.7,1.5c1.3-0.1,2.2-1,3.8-1.5
						C584.8,109.6,586.3,110.2,587.6,111.8z"/>
					<path class="st2" d="M572.1,111.4C572.1,111.7,572.1,111.7,572.1,111.4C572,111.5,572,111.4,572.1,111.4l-0.1-7.1
						c0,0,0-0.1,0.1-0.1c0,0,0.1,0,0.1,0.1L572.1,111.4L572.1,111.4L572.1,111.4z"/>
					<path class="st2" d="M587.6,111.8L587.6,111.8C587.5,111.9,587.5,111.8,587.6,111.8l-0.1-7.4c0,0,0-0.1,0.1-0.1
						c0,0,0.1,0,0.1,0.1L587.6,111.8L587.6,111.8z"/>
					<path class="st21" d="M588.5,140.5c-2.2,0.6-4.8-1.9-6.5-6.5c-0.3,1.7-0.9,5.8-2.2,7.9c-1.5-2-1.9-6.2-2.2-7.9
						c-1.7,4.6-4.3,7.1-6.5,6.5c0.4,8.1-7.2,35.7-19.8,41.8c-4.7,3.3,6.1,4.4,14.6,2.5c-1.7,5.6,29,6.7,28.1-0.1
						c8.5,1.9,19.3,0.8,14.6-2.5C595.7,176.3,588,148.7,588.5,140.5z"/>
					<path class="st22" d="M573.1,140.5c1.3,6.1-2.4,33.3-7.4,44.6c-0.6,0.1-1.9,0.3-2.7,0.4C568.5,174,574.1,146,573.1,140.5z"/>
					<path class="st22" d="M585.7,140.2c-1.3,6.1,2.4,33.2,7.5,44.6c0.6,0.1,1.9,0.3,2.7,0.4C590.1,173.3,584.5,145.4,585.7,140.2z"
						/>
					<path class="st23" d="M578.4,98.1c0,0-0.1-1.7,1.7-1.5c0.9,0.1,1.7,2-0.4,2.7l-0.1,1.9l-11.7,4.2l11.7-4.2"/>
					<line class="st23" x1="591.6" y1="104.7" x2="579.7" y2="101.3"/>
				</g>
				<g>
					<circle class="st24" cx="426.2" cy="205.6" r="56.7"/>
					<polygon class="st25" points="437.8,253 416.6,253 416.6,156.6 437.8,173.4 					"/>
					<g>
						<g>
							<rect x="420.1" y="179.9" class="st26" width="3.3" height="3.3"/>
							<rect x="425.1" y="179.9" class="st26" width="3.3" height="3.3"/>
							<rect x="430.6" y="179.9" class="st26" width="3.3" height="3.3"/>
						</g>
						<g>
							<rect x="420.1" y="186.7" class="st26" width="3.3" height="3.3"/>
							<rect x="425.1" y="186.7" class="st26" width="3.3" height="3.3"/>
							<rect x="430.6" y="186.7" class="st26" width="3.3" height="3.3"/>
						</g>
						<g>
							<rect x="420.1" y="193.2" class="st26" width="3.3" height="3.3"/>
							<rect x="425.1" y="193.2" class="st26" width="3.3" height="3.3"/>
							<rect x="430.6" y="193.2" class="st26" width="3.3" height="3.3"/>
						</g>
						<g>
							<rect x="420.1" y="200" class="st26" width="3.3" height="3.3"/>
							<rect x="425.1" y="200" class="st26" width="3.3" height="3.3"/>
							<rect x="430.6" y="200" class="st26" width="3.3" height="3.3"/>
						</g>
					</g>
					<g>
						<g>
							<rect x="420.1" y="206.7" class="st26" width="3.3" height="3.3"/>
							<rect x="425.1" y="206.7" class="st26" width="3.3" height="3.3"/>
							<rect x="430.6" y="206.7" class="st26" width="3.3" height="3.3"/>
						</g>
						<g>
							<rect x="420.1" y="213.5" class="st26" width="3.3" height="3.3"/>
							<rect x="425.1" y="213.5" class="st26" width="3.3" height="3.3"/>
							<rect x="430.6" y="213.5" class="st26" width="3.3" height="3.3"/>
						</g>
						<g>
							<rect x="420.1" y="220" class="st26" width="3.3" height="3.3"/>
							<rect x="425.1" y="220" class="st26" width="3.3" height="3.3"/>
							<rect x="430.6" y="220" class="st26" width="3.3" height="3.3"/>
						</g>
						<g>
							<rect x="420.1" y="226.8" class="st26" width="3.3" height="3.3"/>
							<rect x="425.1" y="226.8" class="st26" width="3.3" height="3.3"/>
							<rect x="430.6" y="226.8" class="st26" width="3.3" height="3.3"/>
						</g>
					</g>
					<g>
						<rect x="420.1" y="233.5" class="st26" width="3.3" height="3.3"/>
						<rect x="425.1" y="233.5" class="st26" width="3.3" height="3.3"/>
						<rect x="430.6" y="233.5" class="st26" width="3.3" height="3.3"/>
					</g>
					<g>
						<rect x="420.1" y="240.5" class="st26" width="3.3" height="3.3"/>
						<rect x="425.1" y="240.5" class="st26" width="3.3" height="3.3"/>
						<rect x="430.6" y="240.5" class="st26" width="3.3" height="3.3"/>
					</g>
					<g>
						<rect x="420.1" y="246.8" class="st26" width="3.3" height="3.3"/>
						<rect x="425.1" y="246.8" class="st26" width="3.3" height="3.3"/>
						<rect x="430.6" y="246.8" class="st0" width="3.3" height="3.3"/>
					</g>
				</g>
				<circle class="st27" cx="577.3" cy="273" r="53.9"/>
				<path class="st28" d="M574.1,308.7c-1-2-0.1-4.4,1.9-5.3c2-1,4.4-0.1,5.3,1.9c1,2,0.1,4.4-1.9,5.3
					C577.3,311.6,575.1,310.7,574.1,308.7z"/>
				<path class="st28" d="M582.7,306.8c-0.9-1.9-0.1-4.1,1.7-5s3.9-0.1,4.8,1.7c0.9,1.9,0.1,4.1-1.7,5
					C585.9,309.3,583.6,308.4,582.7,306.8z"/>
				<path class="st28" d="M589.6,302c-0.9-1.7-0.1-3.8,1.7-4.6c1.7-0.9,3.8-0.1,4.6,1.7c0.9,1.7,0.1,3.8-1.7,4.6
					C592.5,304.4,590.5,303.7,589.6,302z"/>
				<path class="st28" d="M593.8,294.6c-0.9-1.7-0.1-3.6,1.5-4.4c1.7-0.9,3.6-0.1,4.4,1.5c0.9,1.7,0.1,3.6-1.5,4.4
					C596.5,297,594.4,296.4,593.8,294.6z"/>
				<path class="st28" d="M594.9,287.2c-0.6-1.5,0-3.4,1.4-4.1c1.5-0.6,3.4,0,4.1,1.4c0.6,1.5,0,3.4-1.4,4.1
					C597.5,289.3,595.7,288.6,594.9,287.2z"/>
				<path class="st28" d="M594.1,279.7c-0.6-1.5-0.1-3.4,1.4-4.1s3.4-0.1,4.1,1.4c0.6,1.5,0,3.4-1.4,4.1
					C596.7,281.9,594.9,281.2,594.1,279.7z"/>
				<path class="st28" d="M592.5,273c-0.6-1.4-0.1-3.1,1.4-3.8s3.1-0.1,3.8,1.4c0.6,1.4,0,3.1-1.4,3.8
					C594.9,275.1,593.3,274.4,592.5,273z"/>
				<path class="st28" d="M589.9,267c-0.6-1.4-0.1-3.1,1.4-3.8c1.4-0.6,3.1,0,3.8,1.4c0.6,1.4,0,3.1-1.4,3.8
					C592.3,268.9,590.5,268.4,589.9,267z"/>
				<path class="st28" d="M586.9,261.4c-0.5-1.1,0-2.8,1.1-3.4s2.8,0,3.4,1.1c0.6,1.1,0,2.8-1.1,3.4
					C589,263.3,587.6,262.8,586.9,261.4z"/>
				<path class="st28" d="M583.4,257c-0.5-1.1,0-2.5,1.1-3.3c1.1-0.5,2.5,0,3.3,1.1c0.5,1.1,0,2.5-1.1,3.3
					C585.4,258.9,583.9,258.1,583.4,257z"/>
				<path class="st28" d="M578.7,253.9c-0.5-1.1,0-2.5,1.1-3.3c1.1-0.5,2.5,0,3.3,1.1c0.5,1.1,0,2.5-1.1,3.3
					C580.6,255.6,579.2,255.1,578.7,253.9z"/>
				<path class="st28" d="M566,306.8c-0.9-1.9-0.1-4.1,1.7-5c1.9-0.9,3.9-0.1,4.8,1.7c0.9,1.8,0.1,4.1-1.7,5
					C569.1,309.3,566.8,308.4,566,306.8z"/>
				<path class="st28" d="M559.5,302c-0.9-1.7-0.1-3.8,1.7-4.6c1.7-0.9,3.8-0.1,4.6,1.7c0.9,1.7,0.1,3.8-1.7,4.6
					C562.4,304.4,560.2,303.7,559.5,302z"/>
				<path class="st28" d="M555.8,294.6c-0.9-1.7-0.1-3.6,1.5-4.4c1.7-0.9,3.6-0.1,4.4,1.5c0.9,1.7,0.1,3.6-1.5,4.4
					C558.5,297,556.6,296.4,555.8,294.6z"/>
				<path class="st28" d="M554.9,287.2c-0.6-1.5,0-3.4,1.4-4.1c1.5-0.6,3.4,0,4.1,1.4c0.6,1.5,0.1,3.4-1.4,4.1
					C557.4,289.3,555.8,288.6,554.9,287.2z"/>
				<path class="st28" d="M555.8,279.7c-0.6-1.5,0-3.4,1.4-4.1c1.5-0.6,3.4-0.1,4.1,1.4c0.6,1.5,0.1,3.4-1.4,4.1
					S556.4,281.2,555.8,279.7z"/>
				<path class="st28" d="M557.8,273c-0.6-1.4,0-3.1,1.4-3.8s3.1-0.1,3.8,1.4c0.6,1.4,0,3.1-1.4,3.8
					C560,275.1,558.5,274.4,557.8,273z"/>
				<path class="st28" d="M560.5,267c-0.6-1.4,0-3.1,1.4-3.8c1.4-0.6,3.1,0,3.8,1.4c0.6,1.4,0,3.1-1.4,3.8
					C562.9,268.9,561.3,268.4,560.5,267z"/>
				<path class="st28" d="M563.9,261.4c-0.5-1.1,0-2.8,1.1-3.4s2.8,0,3.4,1.1c0.5,1.1,0,2.8-1.1,3.4
					C566,263.3,564.4,262.8,563.9,261.4z"/>
				<path class="st28" d="M567.9,257c-0.5-1.1,0-2.5,1-3.3c1.1-0.5,2.5,0,3.3,1.1c0.5,1.1,0,2.5-1,3.3
					C569.8,258.6,568.4,258.1,567.9,257z"/>
				<path class="st28" d="M572.6,253.9c-0.5-1.1,0-2.5,1-3.3c1.1-0.5,2.5,0,3.3,1.1c0.5,1.1,0,2.5-1.1,3.3
					C574.3,255.6,573.1,255.1,572.6,253.9z"/>
				<ellipse class="st28" cx="568.1" cy="311" rx="1.7" ry="1.7"/>
				<ellipse class="st28" cx="588.6" cy="310.5" rx="1.7" ry="1.7"/>
				<path class="st29" d="M576.1,248.3c0,0-6-15.1,2.3-18.7c8.3-3.6-0.6,19.3-0.6,19.3c-3.6-20.6-15.9-25.2-17.8-16.9
					c-1.9,8.4,16.7,17.8,16.7,17.8"/>
				<path class="st29" d="M589.5,245.3c0,0-7.4-2.9-11.8,3.8"/>
				<path class="st29" d="M592,237.8c0,0-10.9-1-13.3,8.8"/>
				<path class="st28" d="M574.7,317.7c0-1.5,1.7-6.9,2.9-6.9c1,0,2.9,5.1,2.9,6.9c0,1.5-1.4,2.9-2.9,2.9S574.7,319.4,574.7,317.7z"
					/>
				<g>
					<ellipse class="st30" cx="1036" cy="172.6" rx="54.4" ry="54.4"/>
					<path class="st31" d="M1008.3,134.4c0,0,8.1,9.2,9.7,9.2c1.6-0.2,7.2-7.2,7.2-7.2l-9.5-9.4c0,0,24.1-3.8,20.5,18
						c12.4,12.4,15.8,16.4,15.8,16.4l-9.5,9.5l-14.9-15.8c0,0-4.8,0.8-8.3,0.3C1016.1,154.8,1003.8,151.3,1008.3,134.4z"/>
					<path class="st31" d="M1076.9,189.3c0,0-7.8-8.9-9.2-8.9s-6.9,7-6.9,7l9.2,9.1c0,0-23,3.8-19.5-17.4
						c-11.7-11.9-15-15.8-15-15.8l9.2-9.2l14.1,15.3c0,0,4.7-0.8,7.8-0.3C1069.6,169.6,1081.3,173.1,1076.9,189.3z"/>
					<line class="st0" x1="1033.3" y1="170.4" x2="1052.1" y2="151.6"/>
					<polyline class="st32" points="1037.8,167.7 1050,154.5 1054.7,158.8 1040,172.9 1034.1,169.5 1037.8,167.7 					"/>
					<line class="st23" x1="1031.9" y1="155.5" x2="1037.2" y2="150.2"/>
					<line class="st23" x1="1035.7" y1="159.6" x2="1041" y2="154.3"/>
					<line class="st23" x1="1049.4" y1="174.1" x2="1054.9" y2="168.8"/>
					<line class="st23" x1="1045.8" y1="170.6" x2="1051.3" y2="165.2"/>
					<polygon class="st31" points="1024.9,173.1 1032.1,169.1 1039.6,176.7 1035.5,183.8 					"/>
					<polyline class="st31" points="1034.4,170.4 1059,145.7 1058.8,141.5 1069.6,133.5 1074.6,138.5 1066.9,148.8 1064,149.6 
						1038.9,174.6 					"/>
					<line class="st33" x1="1045.5" y1="173.7" x2="1054" y2="164.5"/>
					<g id="Layer_3_1_">
						<path class="st34" d="M1035,189.2l-24.5,24.5c-1.6,1.6-4.1,1.6-5.5,0l-9.4-9.4c-1.6-1.6-1.6-4.1,0-5.5l24.5-24.5
							c1.6-1.6,4.1-1.6,5.5,0l9.4,9.4C1036.4,185.2,1036.4,187.6,1035,189.2z"/>
					</g>
					<g id="Layer_4_1_">
						<polygon class="st35" points="1003.9,210.3 1005,211.4 1030.2,186 1029.1,184.9 						"/>
						<polygon class="st35" points="1025.8,181.7 1000.6,207 1001.7,208.1 1026.9,182.7 						"/>
						<polygon class="st35" points="1022.5,178.4 997.4,203.5 998.5,204.6 1023.6,179.5 						"/>
					</g>
				</g>
				<g>
					<circle class="st16" cx="488" cy="905.9" r="58.1"/>
					<g>
						<path class="st17" d="M438.1,915.8c-0.2-0.8-0.3-1.7-0.3-2.5c0-6.2,4.5-11.2,10.4-12v-0.2c0-9.9,8-17.9,17.9-17.9h29.1
							c9.9,0,24.8,8,24.8,17.9h7.7c6.7,0,12.2,5.5,12.2,12.2c0,0.8-0.2,1.7-0.3,2.5C539.7,915.8,438.1,915.8,438.1,915.8z"/>
						<path class="st18" d="M464.9,888.7h32c5.7,0,17.2,4.7,17.2,10.4h-59.6C454.5,893.4,459,888.7,464.9,888.7z"/>
						<g>
							<path class="st18" d="M441.6,913.5c0,5,4,9,9,9s9-4,9-9s-4-9-9-9C445.6,904.4,441.6,908.5,441.6,913.5z"/>
							<path class="st18" d="M446.2,913.5c0,2.5,2,4.5,4.5,4.5s4.5-2,4.5-4.5s-2-4.5-4.5-4.5C448.2,908.9,446.2,911,446.2,913.5z"/>
						</g>
						<g>
							<path class="st18" d="M517.6,913.5c0,5,4,9,9,9s9-4,9-9s-4-9-9-9C521.6,904.4,517.6,908.5,517.6,913.5z"/>
							<path class="st18" d="M522.1,913.5c0,2.5,2,4.5,4.5,4.5s4.5-2,4.5-4.5s-2-4.5-4.5-4.5S522.1,911,522.1,913.5z"/>
						</g>
						<line class="st19" x1="496.8" y1="888.7" x2="496.8" y2="899.1"/>
						<line class="st19" x1="475.3" y1="888.7" x2="475.3" y2="899.1"/>
					</g>
				</g>
				<path class="st36" d="M568,909.3"/>
				<g>
					<circle class="st6" cx="628.3" cy="913.4" r="50.6"/>
					<rect x="610" y="889" class="st7" width="36.2" height="51"/>
					<rect x="607.9" y="887.9" class="st8" width="40.3" height="2.8"/>
					<rect x="610" y="933.6" class="st9" width="36.2" height="6.4"/>
					<rect x="623.6" y="929.5" class="st10" width="8.5" height="10.6"/>
					<rect x="590.1" y="905.9" class="st11" width="19.8" height="34.1"/>
					<rect x="593.5" y="909.9" class="st12" width="13.2" height="3.9"/>
					
						<rect x="598.2" y="912.9" transform="matrix(5.920816e-03 -1 1 5.920816e-03 -322.884 1514.1316)" class="st12" width="3.9" height="13.2"/>
					<rect x="593.5" y="925.4" class="st12" width="13.2" height="3.9"/>
					<rect x="588.8" y="904.9" class="st13" width="21.2" height="2.5"/>
					<rect x="645.9" y="905.9" class="st14" width="19.8" height="34.1"/>
					<rect x="649.4" y="909.9" class="st12" width="13.2" height="3.9"/>
					<rect x="649.4" y="917.6" class="st12" width="13.2" height="3.9"/>
					<rect x="649.4" y="925.4" class="st12" width="13.2" height="3.9"/>
					<rect x="593.5" y="932.7" class="st12" width="13.2" height="3.9"/>
					<rect x="649.4" y="932.7" class="st12" width="13.2" height="3.9"/>
					<rect x="645.9" y="904.9" class="st8" width="21.2" height="2.5"/>
					<g>
						<rect x="612.8" y="917.1" class="st7" width="5.9" height="8.4"/>
						<line class="st15" x1="615.9" y1="917.1" x2="615.9" y2="925.1"/>
						<line class="st15" x1="612.9" y1="921.5" x2="618.3" y2="921.5"/>
					</g>
					<g>
						<rect x="621.1" y="917.1" class="st7" width="5.9" height="8.4"/>
						<line class="st15" x1="624.1" y1="917.1" x2="624.1" y2="925.1"/>
						<line class="st15" x1="621.2" y1="921.5" x2="626.6" y2="921.5"/>
					</g>
					<g>
						<rect x="629.2" y="917.1" class="st7" width="5.9" height="8.4"/>
						<line class="st15" x1="632.1" y1="917.1" x2="632.1" y2="925.1"/>
						<line class="st15" x1="629.3" y1="921.5" x2="634.7" y2="921.5"/>
					</g>
					<g>
						<rect x="637.6" y="916.8" class="st7" width="5.9" height="8.4"/>
						<line class="st15" x1="640.6" y1="916.8" x2="640.6" y2="925.1"/>
						<line class="st15" x1="637.7" y1="921.4" x2="643.2" y2="921.4"/>
					</g>
					<g>
						<rect x="612.8" y="905.9" class="st7" width="5.9" height="8.4"/>
						<line class="st15" x1="615.9" y1="905.9" x2="615.9" y2="914.1"/>
						<line class="st15" x1="612.9" y1="910.6" x2="618.3" y2="910.6"/>
					</g>
					<g>
						<rect x="621.1" y="905.9" class="st7" width="5.9" height="8.4"/>
						<line class="st15" x1="624.1" y1="905.9" x2="624.1" y2="914.1"/>
						<line class="st15" x1="621.2" y1="910.6" x2="626.6" y2="910.6"/>
					</g>
					<g>
						<rect x="629.2" y="905.9" class="st7" width="5.9" height="8.4"/>
						<line class="st15" x1="632.1" y1="905.9" x2="632.1" y2="914.1"/>
						<line class="st15" x1="629.3" y1="910.6" x2="634.7" y2="910.6"/>
					</g>
					<g>
						<rect x="637.6" y="905.9" class="st7" width="5.9" height="8.4"/>
						<line class="st15" x1="640.6" y1="905.9" x2="640.6" y2="914"/>
						<line class="st15" x1="637.7" y1="910.4" x2="643.2" y2="910.4"/>
					</g>
					<g>
						<rect x="612.8" y="894.9" class="st7" width="5.9" height="8.4"/>
						<line class="st15" x1="615.9" y1="894.9" x2="615.9" y2="903"/>
						<line class="st15" x1="612.9" y1="899.5" x2="618.3" y2="899.5"/>
					</g>
					<g>
						<rect x="621.1" y="894.9" class="st7" width="5.9" height="8.4"/>
						<line class="st15" x1="624.1" y1="894.9" x2="624.1" y2="903"/>
						<line class="st15" x1="621.2" y1="899.5" x2="626.6" y2="899.5"/>
					</g>
					<g>
						<rect x="629.2" y="894.9" class="st7" width="5.9" height="8.4"/>
						<line class="st15" x1="632.1" y1="894.9" x2="632.1" y2="903"/>
						<line class="st15" x1="629.3" y1="899.5" x2="634.7" y2="899.5"/>
					</g>
					<g>
						<rect x="637.6" y="894.8" class="st7" width="5.9" height="8.4"/>
						<line class="st15" x1="640.6" y1="894.8" x2="640.6" y2="902.9"/>
						<line class="st15" x1="637.7" y1="899.3" x2="643.2" y2="899.3"/>
					</g>
				</g>
				<g>
					<ellipse class="st30" cx="754" cy="853.6" rx="54.4" ry="54.4"/>
					<path class="st31" d="M726.3,815.4c0,0,8.1,9.2,9.7,9.2c1.6-0.2,7.2-7.2,7.2-7.2l-9.5-9.4c0,0,24.1-3.8,20.5,18
						c12.4,12.4,15.8,16.4,15.8,16.4l-9.5,9.5l-14.9-15.8c0,0-4.8,0.8-8.3,0.3C734.1,835.8,721.8,832.3,726.3,815.4z"/>
					<path class="st31" d="M794.9,870.3c0,0-7.8-8.9-9.2-8.9s-6.9,7-6.9,7l9.2,9.1c0,0-23,3.8-19.5-17.4c-11.7-11.9-15-15.8-15-15.8
						l9.2-9.2l14.1,15.3c0,0,4.7-0.8,7.8-0.3C787.6,850.6,799.3,854.1,794.9,870.3z"/>
					<line class="st0" x1="751.3" y1="851.4" x2="770.1" y2="832.6"/>
					<polyline class="st32" points="755.8,848.7 768,835.5 772.7,839.8 758,853.9 752.1,850.5 755.8,848.7 					"/>
					<line class="st23" x1="749.9" y1="836.5" x2="755.2" y2="831.2"/>
					<line class="st23" x1="753.7" y1="840.6" x2="759" y2="835.3"/>
					<line class="st23" x1="767.4" y1="855.1" x2="772.9" y2="849.8"/>
					<line class="st23" x1="763.8" y1="851.6" x2="769.3" y2="846.2"/>
					<polygon class="st31" points="742.9,854.1 750.1,850.1 757.6,857.7 753.5,864.8 					"/>
					<polyline class="st31" points="752.4,851.4 777,826.7 776.8,822.5 787.6,814.5 792.6,819.5 784.9,829.8 782,830.6 756.9,855.6 
											"/>
					<line class="st33" x1="763.5" y1="854.7" x2="772" y2="845.5"/>
					<g id="Layer_3_4_">
						<path class="st34" d="M753,870.2l-24.5,24.5c-1.6,1.6-4.1,1.6-5.5,0l-9.4-9.4c-1.6-1.6-1.6-4.1,0-5.5l24.5-24.5
							c1.6-1.6,4.1-1.6,5.5,0l9.4,9.4C754.4,866.2,754.4,868.6,753,870.2z"/>
					</g>
					<g id="Layer_4_4_">
						<polygon class="st35" points="721.9,891.3 723,892.4 748.2,867 747.1,865.9 						"/>
						<polygon class="st35" points="743.8,862.7 718.6,888 719.7,889.1 744.9,863.7 						"/>
						<polygon class="st35" points="740.5,859.4 715.4,884.5 716.5,885.6 741.6,860.5 						"/>
					</g>
				</g>
				<g>
					<ellipse class="st16" cx="1004.1" cy="490.9" rx="172.1" ry="165"/>
					<g>
						<path class="st17" d="M856.2,519c-0.5-2.3-1-4.8-1-7.1c0-17.6,13.4-31.9,30.7-34.2v-0.5c0-28.1,23.8-50.9,53.1-50.9h86.4
							c29.3,0,73.4,22.8,73.4,50.9h22.8c19.9,0,36.2,15.7,36.2,34.7c0,2.3-0.5,4.8-1,7.1C1157.3,519,856.2,519,856.2,519z"/>
						<path class="st18" d="M935.6,441.9h94.8c16.8,0,51.1,13.3,51.1,29.5H904.8C904.8,455.2,918.3,441.9,935.6,441.9z"/>
						<g>
							<path class="st18" d="M866.7,512.3c0,14.3,11.9,25.7,26.8,25.7c14.9,0,26.8-11.4,26.8-25.7s-11.9-25.7-26.8-25.7
								C878.6,486.6,866.7,498.1,866.7,512.3z"/>
							<path class="st18" d="M880.1,512.3c0,7.1,6,12.8,13.4,12.8s13.4-5.7,13.4-12.8c0-7.1-6-12.8-13.4-12.8
								C886,499.4,880.1,505.2,880.1,512.3z"/>
						</g>
						<g>
							<path class="st18" d="M1091.9,512.3c0,14.3,11.9,25.7,26.8,25.7s26.8-11.4,26.8-25.7s-11.9-25.7-26.8-25.7
								C1103.8,486.6,1091.9,498.1,1091.9,512.3z"/>
							<path class="st18" d="M1105.2,512.3c0,7.1,6,12.8,13.4,12.8s13.4-5.7,13.4-12.8c0-7.1-6-12.8-13.4-12.8
								C1111.2,499.4,1105.2,505.2,1105.2,512.3z"/>
						</g>
						<line class="st19" x1="1030.3" y1="441.9" x2="1030.3" y2="471.4"/>
						<line class="st19" x1="966.4" y1="441.9" x2="966.4" y2="471.4"/>
					</g>
				</g>
				<g>
					<ellipse class="st30" cx="220.7" cy="503.4" rx="132.1" ry="132.1"/>
					<path class="st31" d="M153.5,410.4c0,0,19.7,22.3,23.6,22.3c3.9-0.5,17.5-17.5,17.5-17.5l-23.1-22.8c0,0,58.5-9.2,49.8,43.7
						c30.1,30.1,38.4,39.8,38.4,39.8L236.6,499l-36.2-38.4c0,0-11.7,1.9-20.2,0.7C172.5,459.9,142.6,451.4,153.5,410.4z"/>
					<path class="st31" d="M320.1,543.7c0,0-18.9-21.6-22.3-21.6s-16.8,17-16.8,17l22.3,22.1c0,0-55.9,9.2-47.4-42.3
						c-28.4-28.9-36.4-38.4-36.4-38.4l22.3-22.3l34.2,37.2c0,0,11.4-1.9,18.9-0.7C302.4,495.9,330.8,504.4,320.1,543.7z"/>
					<line class="st0" x1="214.3" y1="497.8" x2="259.9" y2="452.1"/>
					<polyline class="st32" points="225.2,491.2 254.8,459.2 266.2,469.6 230.5,503.9 216.2,495.6 225.2,491.2 					"/>
					<line class="st23" x1="210.9" y1="461.6" x2="223.7" y2="448.8"/>
					<line class="st23" x1="220.1" y1="471.6" x2="233" y2="458.7"/>
					<line class="st23" x1="253.4" y1="506.8" x2="266.7" y2="493.9"/>
					<line class="st23" x1="244.6" y1="498.3" x2="258" y2="485.2"/>
					<polygon class="st31" points="193.9,504.4 211.3,494.6 229.6,513.1 219.6,530.3 					"/>
					<polyline class="st31" points="216.9,497.8 276.7,437.8 276.2,427.6 302.4,408.2 314.6,420.3 295.9,445.4 288.8,447.3 
						227.9,508 					"/>
					<line class="st33" x1="243.9" y1="505.8" x2="264.5" y2="483.5"/>
					<g id="Layer_3_3_">
						<path class="st34" d="M218.4,543.5L158.9,603c-3.9,3.9-10,3.9-13.4,0l-22.8-22.8c-3.9-3.9-3.9-10,0-13.4l59.5-59.5
							c3.9-3.9,10-3.9,13.4,0l22.8,22.8C221.8,533.7,221.8,539.6,218.4,543.5z"/>
					</g>
					<g id="Layer_4_3_">
						<polygon class="st35" points="142.9,594.7 145.5,597.4 206.7,535.7 204.1,533 						"/>
						<polygon class="st35" points="196,525.2 134.8,586.7 137.5,589.4 198.7,527.7 						"/>
						<polygon class="st35" points="188,517.2 127.1,578.2 129.7,580.9 190.7,519.9 						"/>
					</g>
				</g>
				<path class="st36" d="M1484,909.3"/>
				<g>
					<circle class="st6" cx="1544.3" cy="913.4" r="50.6"/>
					<rect x="1526" y="889" class="st7" width="36.2" height="51"/>
					<rect x="1523.9" y="887.9" class="st8" width="40.3" height="2.8"/>
					<rect x="1526" y="933.6" class="st9" width="36.2" height="6.4"/>
					<rect x="1539.6" y="929.5" class="st10" width="8.5" height="10.6"/>
					<rect x="1506.1" y="905.9" class="st11" width="19.8" height="34.1"/>
					<rect x="1509.5" y="909.9" class="st12" width="13.2" height="3.9"/>
					
						<rect x="1514.3" y="912.7" transform="matrix(5.920816e-03 -1 1 5.920816e-03 587.9498 2430.03)" class="st12" width="3.9" height="13.2"/>
					<rect x="1509.5" y="925.4" class="st12" width="13.2" height="3.9"/>
					<rect x="1504.8" y="904.9" class="st13" width="21.2" height="2.5"/>
					<rect x="1561.9" y="905.9" class="st14" width="19.8" height="34.1"/>
					<rect x="1565.4" y="909.9" class="st12" width="13.2" height="3.9"/>
					<rect x="1565.4" y="917.6" class="st12" width="13.2" height="3.9"/>
					<rect x="1565.4" y="925.4" class="st12" width="13.2" height="3.9"/>
					<rect x="1509.5" y="932.7" class="st12" width="13.2" height="3.9"/>
					<rect x="1565.4" y="932.7" class="st12" width="13.2" height="3.9"/>
					<rect x="1561.9" y="904.9" class="st8" width="21.2" height="2.5"/>
					<g>
						<rect x="1528.8" y="917.1" class="st7" width="5.9" height="8.4"/>
						<line class="st15" x1="1531.9" y1="917.1" x2="1531.9" y2="925.1"/>
						<line class="st15" x1="1528.9" y1="921.5" x2="1534.3" y2="921.5"/>
					</g>
					<g>
						<rect x="1537.1" y="917.1" class="st7" width="5.9" height="8.4"/>
						<line class="st15" x1="1540.1" y1="917.1" x2="1540.1" y2="925.1"/>
						<line class="st15" x1="1537.2" y1="921.5" x2="1542.6" y2="921.5"/>
					</g>
					<g>
						<rect x="1545.2" y="917.1" class="st7" width="5.9" height="8.4"/>
						<line class="st15" x1="1548.1" y1="917.1" x2="1548.1" y2="925.1"/>
						<line class="st15" x1="1545.3" y1="921.5" x2="1550.7" y2="921.5"/>
					</g>
					<g>
						<rect x="1553.6" y="916.8" class="st7" width="5.9" height="8.4"/>
						<line class="st15" x1="1556.6" y1="916.8" x2="1556.6" y2="925.1"/>
						<line class="st15" x1="1553.7" y1="921.4" x2="1559.2" y2="921.4"/>
					</g>
					<g>
						<rect x="1528.8" y="905.9" class="st7" width="5.9" height="8.4"/>
						<line class="st15" x1="1531.9" y1="905.9" x2="1531.9" y2="914.1"/>
						<line class="st15" x1="1528.9" y1="910.6" x2="1534.3" y2="910.6"/>
					</g>
					<g>
						<rect x="1537.1" y="905.9" class="st7" width="5.9" height="8.4"/>
						<line class="st15" x1="1540.1" y1="905.9" x2="1540.1" y2="914.1"/>
						<line class="st15" x1="1537.2" y1="910.6" x2="1542.6" y2="910.6"/>
					</g>
					<g>
						<rect x="1545.2" y="905.9" class="st7" width="5.9" height="8.4"/>
						<line class="st15" x1="1548.1" y1="905.9" x2="1548.1" y2="914.1"/>
						<line class="st15" x1="1545.3" y1="910.6" x2="1550.7" y2="910.6"/>
					</g>
					<g>
						<rect x="1553.6" y="905.9" class="st7" width="5.9" height="8.4"/>
						<line class="st15" x1="1556.6" y1="905.9" x2="1556.6" y2="914"/>
						<line class="st15" x1="1553.7" y1="910.4" x2="1559.2" y2="910.4"/>
					</g>
					<g>
						<rect x="1528.8" y="894.9" class="st7" width="5.9" height="8.4"/>
						<line class="st15" x1="1531.9" y1="894.9" x2="1531.9" y2="903"/>
						<line class="st15" x1="1528.9" y1="899.5" x2="1534.3" y2="899.5"/>
					</g>
					<g>
						<rect x="1537.1" y="894.9" class="st7" width="5.9" height="8.4"/>
						<line class="st15" x1="1540.1" y1="894.9" x2="1540.1" y2="903"/>
						<line class="st15" x1="1537.2" y1="899.5" x2="1542.6" y2="899.5"/>
					</g>
					<g>
						<rect x="1545.2" y="894.9" class="st7" width="5.9" height="8.4"/>
						<line class="st15" x1="1548.1" y1="894.9" x2="1548.1" y2="903"/>
						<line class="st15" x1="1545.3" y1="899.5" x2="1550.7" y2="899.5"/>
					</g>
					<g>
						<rect x="1553.6" y="894.8" class="st7" width="5.9" height="8.4"/>
						<line class="st15" x1="1556.6" y1="894.8" x2="1556.6" y2="902.9"/>
						<line class="st15" x1="1553.7" y1="899.3" x2="1559.2" y2="899.3"/>
					</g>
				</g>
				<g>
					<ellipse class="st30" cx="1670" cy="853.6" rx="54.4" ry="54.4"/>
					<path class="st31" d="M1642.3,815.4c0,0,8.1,9.2,9.7,9.2c1.6-0.2,7.2-7.2,7.2-7.2l-9.5-9.4c0,0,24.1-3.8,20.5,18
						c12.4,12.4,15.8,16.4,15.8,16.4l-9.5,9.5l-14.9-15.8c0,0-4.8,0.8-8.3,0.3C1650.1,835.8,1637.8,832.3,1642.3,815.4z"/>
					<path class="st31" d="M1710.9,870.3c0,0-7.8-8.9-9.2-8.9s-6.9,7-6.9,7l9.2,9.1c0,0-23,3.8-19.5-17.4
						c-11.7-11.9-15-15.8-15-15.8l9.2-9.2l14.1,15.3c0,0,4.7-0.8,7.8-0.3C1703.6,850.6,1715.3,854.1,1710.9,870.3z"/>
					<line class="st0" x1="1667.3" y1="851.4" x2="1686.1" y2="832.6"/>
					<polyline class="st32" points="1671.8,848.7 1684,835.5 1688.7,839.8 1674,853.9 1668.1,850.5 1671.8,848.7 					"/>
					<line class="st23" x1="1665.9" y1="836.5" x2="1671.2" y2="831.2"/>
					<line class="st23" x1="1669.7" y1="840.6" x2="1675" y2="835.3"/>
					<line class="st23" x1="1683.4" y1="855.1" x2="1688.9" y2="849.8"/>
					<line class="st23" x1="1679.8" y1="851.6" x2="1685.3" y2="846.2"/>
					<polygon class="st31" points="1658.9,854.1 1666.1,850.1 1673.6,857.7 1669.5,864.8 					"/>
					<polyline class="st31" points="1668.4,851.4 1693,826.7 1692.8,822.5 1703.6,814.5 1708.6,819.5 1700.9,829.8 1698,830.6 
						1672.9,855.6 					"/>
					<line class="st33" x1="1679.5" y1="854.7" x2="1688" y2="845.5"/>
					<g id="Layer_3_2_">
						<path class="st34" d="M1669,870.2l-24.5,24.5c-1.6,1.6-4.1,1.6-5.5,0l-9.4-9.4c-1.6-1.6-1.6-4.1,0-5.5l24.5-24.5
							c1.6-1.6,4.1-1.6,5.5,0l9.4,9.4C1670.4,866.2,1670.4,868.6,1669,870.2z"/>
					</g>
					<g id="Layer_4_2_">
						<polygon class="st35" points="1637.9,891.3 1639,892.4 1664.2,867 1663.1,865.9 						"/>
						<polygon class="st35" points="1659.8,862.7 1634.6,888 1635.7,889.1 1660.9,863.7 						"/>
						<polygon class="st35" points="1656.5,859.4 1631.4,884.5 1632.5,885.6 1657.6,860.5 						"/>
					</g>
				</g>
				<path class="st36" d="M1202,3.3"/>
			</g>
			<rect x="292.4" y="266.6" class="st0" width="1289" height="642.9"/>
		</g>
		<g id="Layer_2_1_">
			<g>
				<rect x="3.1" y="0.5" class="st37" width="1918" height="1085"/>
			</g>
		</g>
		<g id="Layer_3_6_">
			<text transform="matrix(1 0 0 1 619.0997 335.2433)" class="st38 st39 st40">     Rental Trip</text>
			<g>
				<text transform="matrix(1 0 0 1 619.0997 335.2433)" class="st41 st39 st40">     Rental Trip</text>
				<text transform="matrix(1 0 0 1 619.0997 335.2433)" class="st42 st39 st40">     Rental Trip</text>
			</g>
			<text transform="matrix(1 0 0 1 335.4331 507.2505)" class="st43 st39 st44">An exploration of peoples search interest patterns in rentals around the </text>
			<text transform="matrix(1 0 0 1 716.3331 564.8505)" class="st43 st39 st44">world and in the U.S.</text>
			<text transform="matrix(1 0 0 1 632.0331 708.8505)" class="st39 st45">    Designer: Xing Liu</text>
			<text transform="matrix(1 0 0 1 789.0331 824.0505)" class="st43 st39 st44">Source: Google Trends</text>
			<g>
				<g>
					<circle class="st1" cx="722.6" cy="924.5" r="43.5"/>
					<polygon class="st2" points="686.6,919.9 692.7,912.4 723,912.4 723,919.9 					"/>
					<polygon class="st2" points="759.3,919.9 753.2,912.4 722.9,912.4 722.9,919.9 					"/>
					<rect x="687.9" y="919.9" class="st3" width="70" height="23.3"/>
					<rect x="714" y="905.5" class="st4" width="18.5" height="18.4"/>
					<polygon class="st2" points="732.5,905.5 714,905.5 723.3,897.5 					"/>
					<rect x="712.7" y="905.5" class="st1" width="21.1" height="1.5"/>
					<polygon class="st1" points="739.4,925.1 723,911.5 706.5,925.1 708.7,925.1 723,913.4 737.2,925.1 					"/>
					<path class="st3" d="M723,927.1c-3.6,0-6.4,3-6.4,6.4v0.8v8.7h6h0.9h6v-8.7v-0.8C729.5,930.1,726.5,927.1,723,927.1z"/>
					<rect x="722.6" y="933.8" class="st3" width="0.8" height="9.4"/>
					<rect x="716.5" y="933.3" class="st3" width="13.1" height="0.6"/>
					<g>
						<rect x="739.9" y="926.5" class="st3" width="6.9" height="5.6"/>
						<line class="st5" x1="743.4" y1="932" x2="743.4" y2="926.4"/>
					</g>
					<g>
						<rect x="748.7" y="926.7" class="st3" width="6.9" height="16.5"/>
						<line class="st5" x1="752.1" y1="942.8" x2="752.1" y2="926.4"/>
					</g>
					<g>
						<rect x="739.9" y="933.9" class="st3" width="6.9" height="5.6"/>
						<line class="st5" x1="743.4" y1="939.4" x2="743.4" y2="933.8"/>
					</g>
					<g>
						<rect x="690.4" y="926.7" class="st3" width="6.9" height="16.5"/>
						<line class="st5" x1="694" y1="942.8" x2="694" y2="926.4"/>
					</g>
					<g>
						<rect x="699.2" y="926.5" class="st3" width="6.9" height="5.6"/>
						<line class="st5" x1="702.8" y1="932" x2="702.8" y2="926.4"/>
					</g>
					<g>
						<rect x="699.2" y="933.9" class="st3" width="6.9" height="5.6"/>
						<line class="st5" x1="702.8" y1="939.4" x2="702.8" y2="933.8"/>
					</g>
				</g>
				<g>
					<circle class="st6" cx="842.3" cy="924.5" r="43.5"/>
					<rect x="826.6" y="903.4" class="st7" width="31.1" height="43.9"/>
					<rect x="824.8" y="902.5" class="st8" width="34.6" height="2.4"/>
					<rect x="826.6" y="941.8" class="st9" width="31.1" height="5.5"/>
					<rect x="838.3" y="938.3" class="st10" width="7.3" height="9.2"/>
					<rect x="809.5" y="918" class="st11" width="17" height="29.3"/>
					<rect x="812.4" y="921.5" class="st12" width="11.4" height="3.3"/>
					
						<rect x="816.6" y="924" transform="matrix(5.920920e-03 -1 1 5.920920e-03 -116.2451 1742.3774)" class="st12" width="3.3" height="11.4"/>
					<rect x="812.4" y="934.7" class="st12" width="11.4" height="3.3"/>
					<rect x="808.4" y="917.1" class="st13" width="18.2" height="2.1"/>
					<rect x="857.5" y="918" class="st14" width="17" height="29.3"/>
					<rect x="860.5" y="921.5" class="st12" width="11.4" height="3.3"/>
					<rect x="860.5" y="928.1" class="st12" width="11.4" height="3.3"/>
					<rect x="860.5" y="934.7" class="st12" width="11.4" height="3.3"/>
					<rect x="812.4" y="941.1" class="st12" width="11.4" height="3.3"/>
					<rect x="860.5" y="941.1" class="st12" width="11.4" height="3.3"/>
					<rect x="857.5" y="917.1" class="st8" width="18.2" height="2.1"/>
					<g>
						<rect x="829" y="927.6" class="st7" width="5" height="7.2"/>
						<line class="st15" x1="831.6" y1="927.6" x2="831.6" y2="934.5"/>
						<line class="st15" x1="829.1" y1="931.4" x2="833.8" y2="931.4"/>
					</g>
					<g>
						<rect x="836.2" y="927.6" class="st7" width="5" height="7.2"/>
						<line class="st15" x1="838.7" y1="927.6" x2="838.7" y2="934.5"/>
						<line class="st15" x1="836.3" y1="931.4" x2="840.9" y2="931.4"/>
					</g>
					<g>
						<rect x="843.1" y="927.6" class="st7" width="5" height="7.2"/>
						<line class="st15" x1="845.6" y1="927.6" x2="845.6" y2="934.5"/>
						<line class="st15" x1="843.2" y1="931.4" x2="847.8" y2="931.4"/>
					</g>
					<g>
						<rect x="850.4" y="927.4" class="st7" width="5" height="7.2"/>
						<line class="st15" x1="852.9" y1="927.4" x2="852.9" y2="934.5"/>
						<line class="st15" x1="850.5" y1="931.3" x2="855.2" y2="931.3"/>
					</g>
					<g>
						<rect x="829" y="918" class="st7" width="5" height="7.2"/>
						<line class="st15" x1="831.6" y1="918" x2="831.6" y2="925.1"/>
						<line class="st15" x1="829.1" y1="922.1" x2="833.8" y2="922.1"/>
					</g>
					<g>
						<rect x="836.2" y="918" class="st7" width="5" height="7.2"/>
						<line class="st15" x1="838.7" y1="918" x2="838.7" y2="925.1"/>
						<line class="st15" x1="836.3" y1="922.1" x2="840.9" y2="922.1"/>
					</g>
					<g>
						<rect x="843.1" y="918" class="st7" width="5" height="7.2"/>
						<line class="st15" x1="845.6" y1="918" x2="845.6" y2="925.1"/>
						<line class="st15" x1="843.2" y1="922.1" x2="847.8" y2="922.1"/>
					</g>
					<g>
						<rect x="850.4" y="918" class="st7" width="5" height="7.2"/>
						<line class="st15" x1="852.9" y1="918" x2="852.9" y2="925"/>
						<line class="st15" x1="850.5" y1="921.9" x2="855.2" y2="921.9"/>
					</g>
					<g>
						<rect x="829" y="908.6" class="st7" width="5" height="7.2"/>
						<line class="st15" x1="831.6" y1="908.6" x2="831.6" y2="915.5"/>
						<line class="st15" x1="829.1" y1="912.5" x2="833.8" y2="912.5"/>
					</g>
					<g>
						<rect x="836.2" y="908.6" class="st7" width="5" height="7.2"/>
						<line class="st15" x1="838.7" y1="908.6" x2="838.7" y2="915.5"/>
						<line class="st15" x1="836.3" y1="912.5" x2="840.9" y2="912.5"/>
					</g>
					<g>
						<rect x="843.1" y="908.6" class="st7" width="5" height="7.2"/>
						<line class="st15" x1="845.6" y1="908.6" x2="845.6" y2="915.5"/>
						<line class="st15" x1="843.2" y1="912.5" x2="847.8" y2="912.5"/>
					</g>
					<g>
						<rect x="850.4" y="908.5" class="st7" width="5" height="7.2"/>
						<line class="st15" x1="852.9" y1="908.5" x2="852.9" y2="915.4"/>
						<line class="st15" x1="850.5" y1="912.3" x2="855.2" y2="912.3"/>
					</g>
				</g>
				<g>
					<circle class="st16" cx="602.8" cy="924.5" r="43.5"/>
					<g>
						<path class="st17" d="M565.5,931.9c-0.1-0.6-0.3-1.3-0.3-1.9c0-4.6,3.4-8.4,7.8-9v-0.1c0-7.4,6-13.4,13.4-13.4h21.8
							c7.4,0,18.5,6,18.5,13.4h5.8c5,0,9.1,4.1,9.1,9.1c0,0.6-0.1,1.3-0.3,1.9C641.5,931.9,565.5,931.9,565.5,931.9z"/>
						<path class="st18" d="M585.5,911.6h23.9c4.3,0,12.9,3.5,12.9,7.8h-44.6C577.7,915.1,581.1,911.6,585.5,911.6z"/>
						<g>
							<path class="st18" d="M568.1,930.1c0,3.8,3,6.8,6.8,6.8s6.8-3,6.8-6.8s-3-6.8-6.8-6.8S568.1,926.4,568.1,930.1z"/>
							<path class="st18" d="M571.5,930.1c0,1.9,1.5,3.4,3.4,3.4s3.4-1.5,3.4-3.4s-1.5-3.4-3.4-3.4
								C573,926.7,571.5,928.2,571.5,930.1z"/>
						</g>
						<g>
							<path class="st18" d="M625,930.1c0,3.8,3,6.8,6.8,6.8s6.8-3,6.8-6.8s-3-6.8-6.8-6.8S625,926.4,625,930.1z"/>
							<path class="st18" d="M628.3,930.1c0,1.9,1.5,3.4,3.4,3.4s3.4-1.5,3.4-3.4s-1.5-3.4-3.4-3.4
								C629.9,926.7,628.3,928.2,628.3,930.1z"/>
						</g>
						<line class="st19" x1="609.4" y1="911.6" x2="609.4" y2="919.3"/>
						<line class="st19" x1="593.3" y1="911.6" x2="593.3" y2="919.3"/>
					</g>
				</g>
				<g>
					<circle class="st20" cx="1201.6" cy="924.5" r="43.5"/>
					<path class="st21" d="M1209.1,897.8c-0.2,0.9-0.2,1.3-0.5,1.9c-0.6,1.7-1.2,5.1-0.9,6.5c0.3,1.3,2.4,4.8,2.4,9.5
						c0,1.5-0.2,3.5-0.5,5.8c-5.8,2-10.6,1.2-13.9,0.1c-0.2-2.3-0.3-4.5-0.2-6.1c0.2-4.5,2.2-8.7,2.4-10c0.3-1.3-0.6-4.4-1-6
						c-0.1-0.3-0.2-1-0.3-1.7c1-1.2,2.1-1.5,3.1-1.2c1.3,0.3,1.7,1,2.9,1.2c1-0.1,1.7-0.8,3-1.2
						C1206.9,896.1,1208.1,896.5,1209.1,897.8z"/>
					<path class="st2" d="M1196.8,897.5C1196.8,897.7,1196.8,897.7,1196.8,897.5C1196.7,897.6,1196.7,897.5,1196.8,897.5l-0.1-5.6
						c0,0,0-0.1,0.1-0.1c0,0,0.1,0,0.1,0.1v5.7h-0.1V897.5z"/>
					<path class="st2" d="M1209.1,897.8L1209.1,897.8C1209,897.9,1209,897.8,1209.1,897.8l-0.1-5.8c0,0,0-0.1,0.1-0.1
						c0,0,0.1,0,0.1,0.1L1209.1,897.8L1209.1,897.8z"/>
					<path class="st21" d="M1209.8,920.6c-1.7,0.5-3.8-1.5-5.1-5.1c-0.2,1.3-0.7,4.6-1.7,6.3c-1.2-1.6-1.5-4.9-1.7-6.3
						c-1.3,3.6-3.4,5.6-5.1,5.1c0.3,6.5-5.7,28.3-15.7,33.2c-3.7,2.6,4.8,3.5,11.6,2c-1.3,4.4,23,5.3,22.3-0.1
						c6.8,1.5,15.3,0.6,11.6-2C1215.6,949,1209.4,927.1,1209.8,920.6z"/>
					<path class="st22" d="M1197.6,920.6c1,4.8-1.9,26.4-5.8,35.4c-0.5,0.1-1.5,0.2-2.1,0.3C1194,947.2,1198.5,925,1197.6,920.6z"/>
					<path class="st22" d="M1207.6,920.3c-1,4.8,1.9,26.3,6,35.4c0.5,0.1,1.5,0.2,2.1,0.3C1211.2,946.7,1206.7,924.5,1207.6,920.3z"
						/>
					<path class="st23" d="M1201.9,887c0,0-0.1-1.3,1.3-1.2c0.7,0.1,1.3,1.6-0.3,2.1l-0.1,1.5l-9.3,3.3l9.3-3.3"/>
					<line class="st23" x1="1212.4" y1="892.2" x2="1202.9" y2="889.5"/>
				</g>
				<g>
					<circle class="st24" cx="1081.8" cy="924.5" r="43.5"/>
					<polygon class="st25" points="1090.7,960.8 1074.5,960.8 1074.5,886.9 1090.7,899.7 					"/>
					<g>
						<g>
							<rect x="1077.1" y="904.7" class="st26" width="2.5" height="2.5"/>
							<rect x="1081" y="904.7" class="st26" width="2.5" height="2.5"/>
							<rect x="1085.2" y="904.7" class="st26" width="2.5" height="2.5"/>
						</g>
						<g>
							<rect x="1077.1" y="909.9" class="st26" width="2.5" height="2.5"/>
							<rect x="1081" y="909.9" class="st26" width="2.5" height="2.5"/>
							<rect x="1085.2" y="909.9" class="st26" width="2.5" height="2.5"/>
						</g>
						<g>
							<rect x="1077.1" y="914.9" class="st26" width="2.5" height="2.5"/>
							<rect x="1081" y="914.9" class="st26" width="2.5" height="2.5"/>
							<rect x="1085.2" y="914.9" class="st26" width="2.5" height="2.5"/>
						</g>
						<g>
							<rect x="1077.1" y="920.1" class="st26" width="2.5" height="2.5"/>
							<rect x="1081" y="920.1" class="st26" width="2.5" height="2.5"/>
							<rect x="1085.2" y="920.1" class="st26" width="2.5" height="2.5"/>
						</g>
					</g>
					<g>
						<g>
							<rect x="1077.1" y="925.3" class="st26" width="2.5" height="2.5"/>
							<rect x="1081" y="925.3" class="st26" width="2.5" height="2.5"/>
							<rect x="1085.2" y="925.3" class="st26" width="2.5" height="2.5"/>
						</g>
						<g>
							<rect x="1077.1" y="930.5" class="st26" width="2.5" height="2.5"/>
							<rect x="1081" y="930.5" class="st26" width="2.5" height="2.5"/>
							<rect x="1085.2" y="930.5" class="st26" width="2.5" height="2.5"/>
						</g>
						<g>
							<rect x="1077.1" y="935.5" class="st26" width="2.5" height="2.5"/>
							<rect x="1081" y="935.5" class="st26" width="2.5" height="2.5"/>
							<rect x="1085.2" y="935.5" class="st26" width="2.5" height="2.5"/>
						</g>
						<g>
							<rect x="1077.1" y="940.7" class="st26" width="2.5" height="2.5"/>
							<rect x="1081" y="940.7" class="st26" width="2.5" height="2.5"/>
							<rect x="1085.2" y="940.7" class="st26" width="2.5" height="2.5"/>
						</g>
					</g>
					<g>
						<rect x="1077.1" y="945.9" class="st26" width="2.5" height="2.5"/>
						<rect x="1081" y="945.9" class="st26" width="2.5" height="2.5"/>
						<rect x="1085.2" y="945.9" class="st26" width="2.5" height="2.5"/>
					</g>
					<g>
						<rect x="1077.1" y="951.2" class="st26" width="2.5" height="2.5"/>
						<rect x="1081" y="951.2" class="st26" width="2.5" height="2.5"/>
						<rect x="1085.2" y="951.2" class="st26" width="2.5" height="2.5"/>
					</g>
					<g>
						<rect x="1077.1" y="956.1" class="st26" width="2.5" height="2.5"/>
						<rect x="1081" y="956.1" class="st26" width="2.5" height="2.5"/>
						<rect x="1085.2" y="956.1" class="st26" width="2.5" height="2.5"/>
					</g>
				</g>
				<g>
					<circle class="st27" cx="1321.3" cy="924.5" r="43.5"/>
					<path class="st28" d="M1318.8,953.3c-0.8-1.6-0.1-3.6,1.5-4.3c1.6-0.8,3.6-0.1,4.3,1.5c0.8,1.6,0.1,3.6-1.5,4.3
						C1321.3,955.6,1319.6,954.9,1318.8,953.3z"/>
					<path class="st28" d="M1325.7,951.7c-0.7-1.5-0.1-3.3,1.3-4s3.2-0.1,3.9,1.3c0.7,1.5,0.1,3.3-1.3,4
						C1328.3,953.8,1326.5,953.1,1325.7,951.7z"/>
					<path class="st28" d="M1331.3,947.8c-0.7-1.3-0.1-3.1,1.3-3.7c1.3-0.7,3.1-0.1,3.7,1.3c0.7,1.3,0.1,3.1-1.3,3.7
						C1333.6,949.8,1332,949.3,1331.3,947.8z"/>
					<path class="st28" d="M1334.7,941.9c-0.7-1.3-0.1-2.9,1.2-3.6c1.3-0.7,2.9-0.1,3.6,1.2s0.1,2.9-1.2,3.6
						C1336.8,943.8,1335.2,943.3,1334.7,941.9z"/>
					<path class="st28" d="M1335.6,936c-0.5-1.2,0-2.8,1.1-3.3c1.2-0.5,2.8,0,3.3,1.1c0.5,1.2,0,2.8-1.1,3.3
						C1337.6,937.6,1336.2,937.1,1335.6,936z"/>
					<path class="st28" d="M1334.9,929.9c-0.5-1.2-0.1-2.8,1.1-3.3s2.8-0.1,3.3,1.1c0.5,1.2,0,2.8-1.1,3.3
						C1337,931.6,1335.6,931.1,1334.9,929.9z"/>
					<path class="st28" d="M1333.6,924.5c-0.5-1.1-0.1-2.5,1.1-3.1s2.5-0.1,3.1,1.1c0.5,1.1,0,2.5-1.1,3.1
						C1335.6,926.2,1334.3,925.6,1333.6,924.5z"/>
					<path class="st28" d="M1331.5,919.7c-0.5-1.1-0.1-2.5,1.1-3.1c1.1-0.5,2.5,0,3.1,1.1c0.5,1.1,0,2.5-1.1,3.1
						C1333.4,921.2,1332,920.8,1331.5,919.7z"/>
					<path class="st28" d="M1329.1,915.1c-0.4-0.9,0-2.3,0.9-2.8s2.3,0,2.8,0.9s0,2.3-0.9,2.8
						C1330.8,916.7,1329.6,916.3,1329.1,915.1z"/>
					<path class="st28" d="M1326.3,911.6c-0.4-0.9,0-2.1,0.9-2.7c0.9-0.4,2.1,0,2.7,0.9c0.4,0.9,0,2.1-0.9,2.7
						C1327.9,913.1,1326.7,912.5,1326.3,911.6z"/>
					<path class="st28" d="M1322.5,909.1c-0.4-0.9,0-2.1,0.9-2.7c0.9-0.4,2.1,0,2.7,0.9c0.4,0.9,0,2.1-0.9,2.7
						C1324,910.4,1322.9,910,1322.5,909.1z"/>
					<path class="st28" d="M1312.2,951.7c-0.7-1.5-0.1-3.3,1.3-4c1.5-0.7,3.2-0.1,3.9,1.3c0.7,1.4,0.1,3.3-1.3,4
						C1314.8,953.8,1312.9,953.1,1312.2,951.7z"/>
					<path class="st28" d="M1307,947.8c-0.7-1.3-0.1-3.1,1.3-3.7c1.3-0.7,3.1-0.1,3.7,1.3c0.7,1.3,0.1,3.1-1.3,3.7
						C1309.3,949.8,1307.6,949.3,1307,947.8z"/>
					<path class="st28" d="M1304,941.9c-0.7-1.3-0.1-2.9,1.2-3.6c1.3-0.7,2.9-0.1,3.6,1.2s0.1,2.9-1.2,3.6
						C1306.2,943.8,1304.6,943.3,1304,941.9z"/>
					<path class="st28" d="M1303.3,936c-0.5-1.2,0-2.8,1.1-3.3c1.2-0.5,2.8,0,3.3,1.1c0.5,1.2,0.1,2.8-1.1,3.3
						C1305.3,937.6,1304,937.1,1303.3,936z"/>
					<path class="st28" d="M1304,929.9c-0.5-1.2,0-2.8,1.1-3.3c1.2-0.5,2.8-0.1,3.3,1.1c0.5,1.2,0.1,2.8-1.1,3.3
						S1304.5,931.1,1304,929.9z"/>
					<path class="st28" d="M1305.7,924.5c-0.5-1.1,0-2.5,1.1-3.1s2.5-0.1,3.1,1.1c0.5,1.1,0,2.5-1.1,3.1
						C1307.4,926.2,1306.2,925.6,1305.7,924.5z"/>
					<path class="st28" d="M1307.8,919.7c-0.5-1.1,0-2.5,1.1-3.1c1.1-0.5,2.5,0,3.1,1.1c0.5,1.1,0,2.5-1.1,3.1
						C1309.8,921.2,1308.4,920.8,1307.8,919.7z"/>
					<path class="st28" d="M1310.6,915.1c-0.4-0.9,0-2.3,0.9-2.8s2.3,0,2.8,0.9c0.4,0.9,0,2.3-0.9,2.8
						C1312.2,916.7,1311,916.3,1310.6,915.1z"/>
					<path class="st28" d="M1313.7,911.6c-0.4-0.9,0-2.1,0.8-2.7c0.9-0.4,2.1,0,2.7,0.9c0.4,0.9,0,2.1-0.8,2.7
						C1315.3,912.9,1314.2,912.5,1313.7,911.6z"/>
					<path class="st28" d="M1317.5,909.1c-0.4-0.9,0-2.1,0.8-2.7c0.9-0.4,2.1,0,2.7,0.9c0.4,0.9,0,2.1-0.9,2.7
						C1319,910.4,1318,910,1317.5,909.1z"/>
					<ellipse class="st28" cx="1314" cy="955.1" rx="1.3" ry="1.3"/>
					<ellipse class="st28" cx="1330.5" cy="954.7" rx="1.3" ry="1.3"/>
					<path class="st29" d="M1320.4,904.6c0,0-4.8-12.2,1.8-15.1c6.7-2.9-0.5,15.6-0.5,15.6c-2.9-16.6-12.8-20.3-14.4-13.6
						c-1.5,6.8,13.4,14.4,13.4,14.4"/>
					<path class="st29" d="M1331.2,902.1c0,0-5.9-2.4-9.5,3.1"/>
					<path class="st29" d="M1333.2,896.1c0,0-8.8-0.8-10.8,7.1"/>
					<path class="st28" d="M1319.3,960.6c0-1.2,1.3-5.5,2.4-5.5c0.8,0,2.4,4.1,2.4,5.5c0,1.2-1.1,2.4-2.4,2.4
						C1320.4,962.9,1319.3,961.9,1319.3,960.6z"/>
				</g>
				<g>
					<ellipse class="st30" cx="962.1" cy="924.4" rx="43.5" ry="43.5"/>
					<path class="st31" d="M940,893.9c0,0,6.5,7.4,7.7,7.4c1.3-0.2,5.8-5.8,5.8-5.8l-7.6-7.5c0,0,19.3-3,16.4,14.4
						c9.9,9.9,12.6,13.1,12.6,13.1l-7.6,7.6l-11.9-12.6c0,0-3.8,0.6-6.6,0.2C946.2,910.2,936.4,907.4,940,893.9z"/>
					<path class="st31" d="M994.8,937.7c0,0-6.2-7.1-7.4-7.1c-1.1,0-5.5,5.6-5.5,5.6l7.4,7.3c0,0-18.4,3-15.6-13.9
						c-9.3-9.5-12-12.6-12-12.6l7.4-7.4l11.3,12.2c0,0,3.8-0.6,6.2-0.2C989,922,998.3,924.8,994.8,937.7z"/>
					<line class="st0" x1="959.9" y1="922.6" x2="975" y2="907.6"/>
					<polyline class="st32" points="963.5,920.5 973.3,909.9 977,913.4 965.3,924.6 960.6,921.9 963.5,920.5 					"/>
					<line class="st23" x1="958.8" y1="910.7" x2="963.1" y2="906.5"/>
					<line class="st23" x1="961.9" y1="914" x2="966.1" y2="909.8"/>
					<line class="st23" x1="972.8" y1="925.6" x2="977.2" y2="921.4"/>
					<line class="st23" x1="969.9" y1="922.8" x2="974.3" y2="918.5"/>
					<polygon class="st31" points="953.2,924.8 959,921.6 965,927.7 961.7,933.3 					"/>
					<polyline class="st31" points="960.8,922.6 980.5,902.9 980.3,899.5 989,893.1 992.9,897.1 986.8,905.4 984.5,906 964.4,926 
											"/>
					<line class="st33" x1="969.7" y1="925.3" x2="976.5" y2="917.9"/>
					<g id="Layer_3_5_">
						<path class="st34" d="M961.3,937.6l-19.6,19.6c-1.3,1.3-3.3,1.3-4.4,0l-7.5-7.5c-1.3-1.3-1.3-3.3,0-4.4l19.6-19.6
							c1.3-1.3,3.3-1.3,4.4,0l7.5,7.5C962.4,934.5,962.4,936.4,961.3,937.6z"/>
					</g>
					<g id="Layer_4_5_">
						<polygon class="st35" points="936.5,954.5 937.3,955.4 957.5,935.1 956.6,934.2 						"/>
						<polygon class="st35" points="954,931.7 933.8,951.9 934.7,952.7 954.8,932.5 						"/>
						<polygon class="st35" points="951.3,929 931.3,949.1 932.1,950 952.2,929.9 						"/>
					</g>
				</g>
			</g>
		</g>
	</g>
</g>
<g class="st46">
	<g class="st47">
		<text transform="matrix(1 0 0 1 636.2534 328.1958)" class="st39 st40">     Rental Trip</text>
	</g>
</g>
</svg>
